<?xml version="1.0" encoding="utf-8"?>
<!-- Generator: Adobe Illustrator 25.1.0, SVG Export Plug-In . SVG Version: 6.00 Build 0)  -->
<svg version="1.2" baseProfile="tiny" id="Layer_1" xmlns="http://www.w3.org/2000/svg" xmlns:xlink="http://www.w3.org/1999/xlink"
	 x="0px" y="0px" viewBox="0 0 64 64" overflow="visible" xml:space="preserve">
<g>
	<path fill="#FFFFFF" d="M45.5,14.2H18.5c-9.8,0-17.8,8-17.8,17.8s8,17.8,17.8,17.8h27.1c9.8,0,17.8-8,17.8-17.8
		S55.3,14.2,45.5,14.2z M45.5,46.8H18.5c-8.1,0-14.8-6.6-14.8-14.8s6.6-14.8,14.8-14.8h27.1c8.1,0,14.8,6.6,14.8,14.8
		S53.7,46.8,45.5,46.8z"/>
	<path fill="#FFFFFF" d="M19.1,20.9C13,20.9,8,25.9,8,32s5,11.1,11.1,11.1s11.1-5,11.1-11.1S25.2,20.9,19.1,20.9z M19.1,40.1
		c-4.5,0-8.1-3.6-8.1-8.1c0-4.5,3.6-8.1,8.1-8.1s8.1,3.6,8.1,8.1C27.2,36.5,23.6,40.1,19.1,40.1z"/>
</g>
</svg>
