<svg fill="#000000" width="24" height="24" viewBox="-102.4 -102.4 1228.80 1228.80" xmlns="http://www.w3.org/2000/svg" stroke="#000000" stroke-width="0.01024" transform="matrix(1, 0, 0, 1, 0, 0)rotate(0)"><g stroke-width="0"/><g stroke-linecap="round" stroke-linejoin="round" stroke="#CCCCCC" stroke-width="98.304"/><g><path d="M768 0H416c-35.344 0-64 28.656-64 64h352v256h256v512H736v64h224c35.344 0 64-28.656 64-64V256.016zm0 256V90.496L933.472 256H768zM64 128c-35.344 0-64 28.656-64 64v768c0 35.344 28.656 64 64 64h544c35.344 0 64-28.656 64-64V384.016L416 128H64zm544 832H64V192h288v256h256v512zM416 384V218.496L581.472 384H416z"/></g></svg>