<?xml version="1.0" encoding="utf-8"?>
<!-- Generator: Adobe Illustrator 27.7.0, SVG Export Plug-In . SVG Version: 6.00 Build 0)  -->
<svg version="1.1" id="Layer_1" xmlns="http://www.w3.org/2000/svg" xmlns:xlink="http://www.w3.org/1999/xlink" x="0px" y="0px"
	 viewBox="0 0 64 64" style="enable-background:new 0 0 64 64;" xml:space="preserve">
<style type="text/css">
	.st0{fill:#FFFFFF;}
</style>
<g>
	<path class="st0" d="M55.6,5.5H8.4c-3.6,0-6.5,2.9-6.5,6.5v40c0,3.6,2.9,6.5,6.5,6.5h47.1c3.6,0,6.5-2.9,6.5-6.5V12
		C62.1,8.4,59.1,5.5,55.6,5.5z M59.1,52c0,1.9-1.6,3.5-3.5,3.5H8.4c-1.9,0-3.5-1.6-3.5-3.5V12c0-1.9,1.6-3.5,3.5-3.5h47.1
		c1.9,0,3.5,1.6,3.5,3.5V52z"/>
	<path class="st0" d="M15.5,14.3c-2.4,0-4.4,2-4.4,4.4s2,4.4,4.4,4.4s4.4-2,4.4-4.4S17.9,14.3,15.5,14.3z M15.5,20.1
		c-0.8,0-1.4-0.6-1.4-1.4s0.6-1.4,1.4-1.4s1.4,0.6,1.4,1.4S16.3,20.1,15.5,20.1z"/>
	<path class="st0" d="M51.4,17.2H23.9c-0.8,0-1.5,0.7-1.5,1.5s0.7,1.5,1.5,1.5h27.5c0.8,0,1.5-0.7,1.5-1.5S52.2,17.2,51.4,17.2z"/>
	<path class="st0" d="M51.4,30.5H23.9c-0.8,0-1.5,0.7-1.5,1.5s0.7,1.5,1.5,1.5h27.5c0.8,0,1.5-0.7,1.5-1.5S52.2,30.5,51.4,30.5z"/>
	<path class="st0" d="M15.5,27.6c-2.4,0-4.4,2-4.4,4.4c0,2.4,2,4.4,4.4,4.4s4.4-2,4.4-4.4C19.9,29.6,17.9,27.6,15.5,27.6z
		 M15.5,33.4c-0.8,0-1.4-0.6-1.4-1.4c0-0.8,0.6-1.4,1.4-1.4s1.4,0.6,1.4,1.4C16.9,32.8,16.3,33.4,15.5,33.4z"/>
	<path class="st0" d="M51.4,43.8H23.9c-0.8,0-1.5,0.7-1.5,1.5s0.7,1.5,1.5,1.5h27.5c0.8,0,1.5-0.7,1.5-1.5S52.2,43.8,51.4,43.8z"/>
	<path class="st0" d="M15.5,40.9c-2.4,0-4.4,2-4.4,4.4c0,2.4,2,4.4,4.4,4.4s4.4-2,4.4-4.4C19.9,42.9,17.9,40.9,15.5,40.9z
		 M15.5,46.7c-0.8,0-1.4-0.6-1.4-1.4c0-0.8,0.6-1.4,1.4-1.4s1.4,0.6,1.4,1.4C16.9,46.1,16.3,46.7,15.5,46.7z"/>
</g>
</svg>
