<?xml version="1.0" encoding="utf-8"?>
<!-- Generator: Adobe Illustrator 26.2.1, SVG Export Plug-In . SVG Version: 6.00 Build 0)  -->
<svg version="1.1" id="Layer_1" xmlns="http://www.w3.org/2000/svg" xmlns:xlink="http://www.w3.org/1999/xlink" x="0px" y="0px"
	 viewBox="0 0 64 64" style="enable-background:new 0 0 64 64;" xml:space="preserve">
<style type="text/css">
	.st0{fill:#FFFFFF;}
</style>
<g>
	<path class="st0" d="M62,4.1h-9c-0.8,0-1.5,0.7-1.5,1.5s0.7,1.5,1.5,1.5h5.4l-8,8c-0.6,0.6-0.6,1.5,0,2.1c0.3,0.3,0.7,0.4,1.1,0.4
		s0.8-0.1,1.1-0.4l8-8v5.4c0,0.8,0.7,1.5,1.5,1.5s1.5-0.7,1.5-1.5v-9C63.5,4.8,62.9,4.1,62,4.1z"/>
	<path class="st0" d="M5.6,7.1h5.4c0.8,0,1.5-0.7,1.5-1.5s-0.7-1.5-1.5-1.5H2c-0.8,0-1.5,0.7-1.5,1.5v9c0,0.8,0.7,1.5,1.5,1.5
		s1.5-0.7,1.5-1.5V9.2l8,8c0.3,0.3,0.7,0.4,1.1,0.4s0.8-0.1,1.1-0.4c0.6-0.6,0.6-1.5,0-2.1L5.6,7.1z"/>
	<path class="st0" d="M62,47.9c-0.8,0-1.5,0.7-1.5,1.5v5.4l-8-8c-0.6-0.6-1.5-0.6-2.1,0s-0.6,1.5,0,2.1l8,8h-5.4
		c-0.8,0-1.5,0.7-1.5,1.5s0.7,1.5,1.5,1.5h9c0.8,0,1.5-0.7,1.5-1.5v-9C63.5,48.6,62.9,47.9,62,47.9z"/>
	<path class="st0" d="M11.4,46.8l-8,8v-5.4c0-0.8-0.7-1.5-1.5-1.5s-1.5,0.7-1.5,1.5v9c0,0.8,0.7,1.5,1.5,1.5h9
		c0.8,0,1.5-0.7,1.5-1.5s-0.7-1.5-1.5-1.5H5.6l8-8c0.6-0.6,0.6-1.5,0-2.1S12,46.2,11.4,46.8z"/>
	<path class="st0" d="M46,18.1H17.8c-1.8,0-3.3,1.5-3.3,3.3v20.8c0,1.8,1.5,3.3,3.3,3.3H46c1.8,0,3.3-1.5,3.3-3.3V21.4
		C49.3,19.6,47.8,18.1,46,18.1z M46.3,42.2c0,0.2-0.1,0.3-0.3,0.3H17.8c-0.2,0-0.3-0.1-0.3-0.3V21.4c0-0.2,0.1-0.3,0.3-0.3H46
		c0.2,0,0.3,0.1,0.3,0.3V42.2z"/>
	<path class="st0" d="M41.3,26.8H22.5c-0.8,0-1.5,0.7-1.5,1.5s0.7,1.5,1.5,1.5h18.9c0.8,0,1.5-0.7,1.5-1.5S42.2,26.8,41.3,26.8z"/>
	<path class="st0" d="M38.9,33.8H24.9c-0.8,0-1.5,0.7-1.5,1.5s0.7,1.5,1.5,1.5h13.9c0.8,0,1.5-0.7,1.5-1.5S39.7,33.8,38.9,33.8z"/>
</g>
</svg>
