<?xml version="1.0" encoding="utf-8"?>
<!-- Generator: Adobe Illustrator 26.3.1, SVG Export Plug-In . SVG Version: 6.00 Build 0)  -->
<svg version="1.1" id="Layer_1" xmlns="http://www.w3.org/2000/svg" xmlns:xlink="http://www.w3.org/1999/xlink" x="0px" y="0px"
	 viewBox="0 0 64 64" style="enable-background:new 0 0 64 64;" xml:space="preserve">
<style type="text/css">
	.st0{fill:#FFFFFF;}
</style>
<g>
	<path class="st0" d="M36.9,52.1h-9.8c-0.8,0-1.5,0.7-1.5,1.5s0.7,1.5,1.5,1.5h9.8c0.8,0,1.5-0.7,1.5-1.5S37.7,52.1,36.9,52.1z"/>
	<path class="st0" d="M40,28.9H24c-0.8,0-1.5,0.7-1.5,1.5s0.7,1.5,1.5,1.5H40c0.8,0,1.5-0.7,1.5-1.5S40.8,28.9,40,28.9z"/>
	<path class="st0" d="M40,22.1H24c-0.8,0-1.5,0.7-1.5,1.5s0.7,1.5,1.5,1.5H40c0.8,0,1.5-0.7,1.5-1.5S40.8,22.1,40,22.1z"/>
	<path class="st0" d="M40,35.3H24c-0.8,0-1.5,0.7-1.5,1.5s0.7,1.5,1.5,1.5H40c0.8,0,1.5-0.7,1.5-1.5S40.8,35.3,40,35.3z"/>
	<path class="st0" d="M59,7.4h-8.8V6.1c0-2.2-1.8-4-4-4H17.7c-2.2,0-4,1.8-4,4v1.3H5c-1.9,0-3.5,1.7-3.5,3.8v42.8
		c0,2.1,1.6,3.8,3.5,3.8h8.8v0.2c0,2.2,1.8,4,4,4h28.5c2.2,0,4-1.8,4-4v-0.2H59c1.9,0,3.5-1.7,3.5-3.8V11.2
		C62.5,9.1,60.9,7.4,59,7.4z M59,10.4c0.2,0,0.5,0.3,0.5,0.8v6.2h-9.3v-7H59z M17.7,5.1h28.5c0.6,0,1,0.4,1,1v7.8H16.7V6.1
		C16.7,5.5,17.2,5.1,17.7,5.1z M5,10.4h8.8v7H4.5v-6.2C4.5,10.7,4.8,10.4,5,10.4z M5,54.7c-0.2,0-0.5-0.3-0.5-0.8V20.3h9.2v34.4H5z
		 M46.2,58.9H17.7c-0.6,0-1-0.4-1-1v-41h30.5v41C47.2,58.5,46.8,58.9,46.2,58.9z M59,54.7h-8.8V20.3h9.3v33.6
		C59.5,54.4,59.2,54.7,59,54.7z"/>
</g>
</svg>
