<?xml version="1.0" encoding="utf-8"?>
<!-- Generator: Adobe Illustrator 27.1.1, SVG Export Plug-In . SVG Version: 6.00 Build 0)  -->
<svg version="1.1" id="Layer_1" xmlns="http://www.w3.org/2000/svg" xmlns:xlink="http://www.w3.org/1999/xlink" x="0px" y="0px"
	 viewBox="0 0 64 64" style="enable-background:new 0 0 64 64;" xml:space="preserve">
<style type="text/css">
	.st0{fill:#FFFFFF;}
</style>
<g>
	<g>
		<path class="st0" d="M31.5,43.7c-0.2,0-0.4-0.1-0.7-0.2c0,0-0.1,0-0.1-0.1l-3.4-1.8c-0.7-0.4-1-1.3-0.6-2c0.4-0.7,1.3-1,2-0.6
			l3.4,1.8c0.7,0.4,1,1.3,0.7,2C32.6,43.4,32.1,43.7,31.5,43.7z M40.3,40.4c-0.5,0-1.1-0.3-1.3-0.8c-0.4-0.7-0.1-1.6,0.6-2l3.4-1.8
			c0.7-0.4,1.6-0.1,2,0.6c0.4,0.7,0.1,1.6-0.6,2L41,40.2C40.8,40.3,40.5,40.4,40.3,40.4z M19.5,37.5c-0.2,0-0.5-0.1-0.7-0.2
			l-3.4-1.8c-0.7-0.4-1-1.3-0.6-2c0.4-0.7,1.3-1,2-0.6l3.4,1.8c0.7,0.4,1,1.3,0.6,2C20.6,37.2,20.1,37.5,19.5,37.5z M52.3,34.1
			c-0.5,0-1.1-0.3-1.3-0.8c-0.4-0.7-0.1-1.6,0.6-2l3.4-1.8c0.7-0.4,1.6-0.1,2,0.6c0.4,0.7,0.1,1.6-0.6,2L53,34
			C52.8,34.1,52.5,34.1,52.3,34.1z M7.5,31.2c-0.2,0-0.5-0.1-0.7-0.2l-3.5-1.8c-0.7-0.4-0.9-1.3-0.5-2.1c0.4-0.7,1.3-0.9,2.1-0.5
			l3.3,1.7c0.7,0.4,1,1.3,0.6,2C8.6,30.9,8.1,31.2,7.5,31.2z M61.3,26.7c-0.3,0-0.5-0.1-0.8-0.2l-3.3-1.7c-0.7-0.4-1-1.3-0.6-2
			c0.4-0.7,1.3-1,2-0.6l3.3,1.7c0.1,0,0.1,0.1,0.2,0.1c0.7,0.4,0.9,1.4,0.5,2.1C62.3,26.5,61.8,26.7,61.3,26.7z M9.7,23.8
			c-0.5,0-1.1-0.3-1.3-0.8C8,22.3,8.3,21.4,9,21l3.4-1.8c0.7-0.4,1.6-0.1,2,0.6c0.4,0.7,0.1,1.6-0.6,2l-3.4,1.8
			C10.2,23.7,9.9,23.8,9.7,23.8z M49.3,20.5c-0.2,0-0.5-0.1-0.7-0.2l-3.4-1.8c-0.7-0.4-1-1.3-0.6-2c0.4-0.7,1.3-1,2-0.6l3.4,1.8
			c0.7,0.4,1,1.3,0.6,2C50.4,20.2,49.8,20.5,49.3,20.5z M21.7,17.6c-0.5,0-1.1-0.3-1.3-0.8c-0.4-0.7-0.1-1.6,0.6-2l3.4-1.8
			c0.7-0.4,1.6-0.1,2,0.6c0.4,0.7,0.1,1.6-0.6,2l-3.4,1.8C22.2,17.5,21.9,17.6,21.7,17.6z M37.3,14.2c-0.2,0-0.5-0.1-0.7-0.2
			l-3.5-1.8c-0.7-0.4-0.9-1.3-0.5-2.1c0.4-0.7,1.2-0.9,1.9-0.6l0,0c0,0,0,0,0,0l3.4,1.8c0.7,0.4,1,1.3,0.6,2
			C38.4,13.9,37.8,14.2,37.3,14.2z"/>
	</g>
	<g>
		<path class="st0" d="M32.7,59.2c-0.7,0-1.4-0.1-1.9-0.4L3.5,44.5c-1-0.5-1.6-1.4-1.7-2.5c-0.1-1.3,0.6-2.4,1.7-3l7.8-3.8
			c0.7-0.4,1.6-0.1,2,0.7c0.4,0.7,0.1,1.6-0.7,2l-7.7,3.8c0,0-0.1,0.1-0.1,0.1c0,0,0.1,0,0.1,0.1l27.3,14.2c0.2,0.1,0.8,0.1,1,0
			l27.3-14.2c0.1,0,0.1-0.1,0.1-0.1c0,0-0.1-0.1-0.2-0.1l-7.9-3.9c-0.7-0.4-1-1.3-0.7-2c0.4-0.7,1.3-1,2-0.7l7.9,3.9
			c1.2,0.6,1.9,1.8,1.8,3c-0.1,1.1-0.7,2-1.7,2.5L34.6,58.7C34,59,33.4,59.2,32.7,59.2z"/>
	</g>
</g>
</svg>
