<?xml version="1.0" encoding="utf-8"?>
<!-- Generator: Adobe Illustrator 27.5.0, SVG Export Plug-In . SVG Version: 6.00 Build 0)  -->
<svg version="1.1" id="Layer_1" xmlns="http://www.w3.org/2000/svg" xmlns:xlink="http://www.w3.org/1999/xlink" x="0px" y="0px"
	 viewBox="0 0 64 64" style="enable-background:new 0 0 64 64;" xml:space="preserve">
<style type="text/css">
	.st0{fill:#FFFFFF;}
</style>
<g>
	<path class="st0" d="M62,39.9c-0.5-0.6-13.3-14.1-30-14.1c-18.4,0-29.6,13.6-30.1,14.2c-0.5,0.6-0.4,1.5,0.1,2
		C2.7,42.5,16.8,56,32,56c16,0,29.4-13.5,30-14.1C62.5,41.4,62.5,40.5,62,39.9z M32,53C20.3,53,8.7,43.8,5.2,40.8
		c3-3.1,12.7-12,26.8-12c12.8,0,23.4,9,26.7,12.1C55.3,44,44.3,53,32,53z"/>
	<path class="st0" d="M22,40.9c0,5.5,4.5,10,10,10c5.5,0,10-4.5,10-10s-4.5-10-10-10C26.5,30.9,22,35.4,22,40.9z M39,40.9
		c0,3.9-3.1,7-7,7c-3.9,0-7-3.1-7-7s3.1-7,7-7C35.9,33.9,39,37,39,40.9z"/>
	<path class="st0" d="M42.5,21.6c0.1,0,0.2,0,0.3,0c0.7,0,1.3-0.5,1.5-1.2l1.9-9.4c0.2-0.8-0.4-1.6-1.2-1.8
		c-0.8-0.2-1.6,0.4-1.8,1.2l-1.9,9.4C41.2,20.6,41.7,21.4,42.5,21.6z"/>
	<path class="st0" d="M32.5,20.3C32.5,20.3,32.5,20.3,32.5,20.3c0.8,0,1.5-0.7,1.5-1.5l0.1-9.4c0-0.8-0.7-1.5-1.5-1.5c0,0,0,0,0,0
		c-0.8,0-1.5,0.7-1.5,1.5L31,18.8C31,19.6,31.6,20.3,32.5,20.3z"/>
	<path class="st0" d="M51.5,25.6c0.2,0.1,0.4,0.1,0.6,0.1c0.6,0,1.1-0.3,1.4-0.9l4.1-9c0.3-0.8,0-1.6-0.8-2c-0.8-0.3-1.6,0-2,0.8
		l-4.1,9C50.4,24.4,50.7,25.3,51.5,25.6z"/>
	<path class="st0" d="M10,24.9c0.2,0.6,0.8,0.9,1.4,0.9c0.2,0,0.4,0,0.6-0.1c0.8-0.3,1.1-1.2,0.8-2l-4.1-9c-0.3-0.8-1.2-1.1-2-0.8
		c-0.8,0.3-1.1,1.2-0.8,2L10,24.9z"/>
	<path class="st0" d="M20.1,20.3c0.1,0.7,0.8,1.2,1.5,1.2c0.1,0,0.2,0,0.3,0c0.8-0.2,1.3-1,1.2-1.8l-1.9-9.4c-0.2-0.8-1-1.3-1.8-1.2
		c-0.8,0.2-1.3,1-1.2,1.8L20.1,20.3z"/>
</g>
</svg>
