<?xml version='1.0' encoding='utf-8'?>
<svg xmlns="http://www.w3.org/2000/svg" viewBox="0 0 89.726 67.791"> <defs> <filter id="i"> <feGaussianBlur stdDeviation=".44119"/> </filter> <filter id="g"> <feGaussianBlur stdDeviation="1.44263"/> </filter> <filter id="a" x="-.02073" y="-.56607" width="1.0415" height="2.1321"> <feGaussianBlur stdDeviation=".24545"/> </filter> <filter id="f" x="-.0674" y="-.25556" width="1.1348" height="1.5111"> <feGaussianBlur stdDeviation=".63889"/> </filter> <filter id="h" x="-.04196" y="-.23302" width="1.0839" height="1.466"/> <linearGradient id="e" x1="41.447" x2="37.069" y1="15.171" y2="71.75" gradientUnits="userSpaceOnUse"> <stop stop-color="#f0a600" offset="0"/> <stop stop-color="#d4810c" offset="1"/> </linearGradient> <linearGradient id="d" x2="0" y1="67.811" y2="34.436" gradientUnits="userSpaceOnUse"> <stop stop-color="#cd7810" offset="0"/> <stop stop-color="#efa600" offset="1"/> </linearGradient> <linearGradient id="c" x1="7.3306" x2="30.385" y1="58.74" y2="25.24" gradientUnits="userSpaceOnUse"> <stop stop-color="#cd7811" offset="0"/> <stop stop-color="#cd7811" stop-opacity="0" offset="1"/> </linearGradient> <linearGradient id="b" x1="65.144" x2="59.133" y1="2.7304" y2="19.701" gradientUnits="userSpaceOnUse"> <stop stop-color="#f7d47d" offset="0"/> <stop stop-color="#f7d47d" stop-opacity="0" offset="1"/> </linearGradient> </defs> <path d="m5.327 4.3236-0.69773 59.656 81.635 0.34887v-60.005h-80.937z" fill="#babdb6" filter="url(#g)"/> <path d="m2.717 1.3631-0.67356 57.589 78.806 0.33678v-57.926h-78.133z" fill="#fdcb3c" stroke="url(#e)" stroke-width="2"/> <path transform="matrix(2.589 0 0 2.589 5.4113 -2.3415)" d="m-0.45033 2.8947-0.28468 1.4491 8.0841 8.8866-8.2553 8.8947-0.125 1.2812h29.618l-0.40625-1.5509-8.8681-8.7928 8.6297-8.0706 0.54281-1.8241-28.935-0.27312z" fill="#d77e06" filter="url(#i)" opacity=".54188"/> <path d="m3.0407 56.529 30.647-29.973 14.818 0.33678 31.994 28.626 0.55266 4.607-78.349-0.22884 0.33678-3.3678z" fill="#fdcb3c" stroke="url(#d)" stroke-width="2"/> <path d="m24.168 30.149 28.75 1.25-3.25 5.75-17.5 0.25-8-7.25z" fill="#e8a11f" filter="url(#f)"/> <path d="m3.3906 4.3678 30.647 29.973 14.818-0.33678 31.994-28.626-0.60778-4.3781h-77.188l0.33678 3.3678z" fill="#fdcb3c" stroke="#efa600" stroke-width="2"/> <path transform="matrix(2.589 0 0 1.3109 4.9113 15.239)" d="m11.177 12.473h5.7793v1.0406h-5.7793z" fill="#ffeba8" filter="url(#h)" opacity=".56015"/> <path d="m3.3518 11.197-0.27116 49.172 77.805 0.91535-0.91535-26.087-54.302-3.75-22.316-20.25z" fill="url(#c)" opacity=".65"/> <path transform="matrix(2.5343 0 0 2.589 4.242 -1.655)" d="m0.13008 22.186h28.413v1.0406h-28.413z" fill="#ffeba8" filter="url(#a)" opacity=".75188"/> <path d="m57.012 19.701 21.213-16.263-26.163-0.70711 4.9498 16.971z" fill="url(#b)"/> <path transform="matrix(2.589 0 0 2.589 5.4113 -2.3415)" d="m0.13008 1.561h28.413v1.0406h-28.413z" fill="#ffeba8" filter="url(#a)" opacity=".75188"/> </svg>