<?xml version="1.0" encoding="UTF-8"?>
<svg version="1.1" xmlns="http://www.w3.org/2000/svg" width="1600" height="572">
<path d="M0 0 C23.1 0 46.2 0 70 0 C70.33 64.02 70.66 128.04 71 194 C76.75774997 187.66647503 82.3010452 181.50822975 87.65234375 174.8828125 C90.22815134 171.71984078 92.85701325 168.60678889 95.5 165.5 C98.85465374 161.55365475 102.17222304 157.58357343 105.4375 153.5625 C109.39508188 148.69870975 113.46542446 143.94118769 117.55834961 139.19165039 C121.3255223 134.81109166 124.99267429 130.35793077 128.6328125 125.87109375 C132.00261348 121.7839589 135.46003399 117.77374376 138.92773438 113.76953125 C139.41306641 113.2075 139.89839844 112.64546875 140.3984375 112.06640625 C140.82817871 111.57084229 141.25791992 111.07527832 141.70068359 110.56469727 C143.0925941 109.00280172 143.0925941 109.00280172 144.06651306 106.93058777 C146.54628407 104.45453505 148.42031116 104.52808926 151.83093262 104.50231934 C152.6243103 104.51670044 153.41768799 104.53108154 154.23510742 104.54589844 C155.07435257 104.54531433 155.91359772 104.54473022 156.77827454 104.54412842 C159.55442558 104.5469169 162.32950512 104.57804437 165.10546875 104.609375 C167.02931634 104.61683469 168.95317152 104.6225289 170.87702942 104.62652588 C175.94234165 104.64180365 181.00719559 104.68110397 186.07232666 104.7253418 C191.240212 104.76624827 196.40817133 104.78452701 201.57617188 104.8046875 C211.71764935 104.84759611 221.85878658 104.9158734 232 105 C229.89483491 108.59958622 227.72322001 111.57260652 224.875 114.625 C221.62912126 118.16500368 218.51709748 121.76303365 215.5 125.5 C211.88850866 129.96420457 208.11339306 134.23002114 204.24609375 138.47265625 C201.93812402 141.06962393 199.74444137 143.73404013 197.5625 146.4375 C193.70291397 151.20996203 189.62800009 155.73109109 185.47265625 160.24609375 C182.25290481 163.83207284 179.24094824 167.56701492 176.21484375 171.31640625 C174.04367173 173.94708557 171.79758643 176.47942424 169.5 179 C166.38541332 182.41739372 163.4081338 185.9052235 160.5 189.5 C157.5918662 193.0947765 154.61458668 196.58260628 151.5 200 C148.24303549 203.59012843 145.05477909 207.22505965 141.9375 210.9375 C141.18339844 211.83339844 140.42929688 212.72929687 139.65234375 213.65234375 C137.71221959 215.93040594 137.71221959 215.93040594 138 219 C139.85704541 221.36324004 141.74098347 223.58468249 143.75 225.8125 C144.94841057 227.16622959 146.14631585 228.52040664 147.34375 229.875 C148.26027344 230.90560547 148.26027344 230.90560547 149.1953125 231.95703125 C151.92015008 235.04164175 154.58378494 238.17725671 157.25 241.3125 C160.6735548 245.324174 164.13730025 249.28658728 167.6875 253.1875 C170.71712868 256.52227114 173.60608092 259.93287639 176.4375 263.4375 C180.29825137 268.211403 184.37437075 272.73388428 188.53125 277.25 C191.72881296 280.81184229 194.71388343 284.52565833 197.71875 288.25 C200.86194258 292.03905407 204.20158595 295.63269352 207.53515625 299.25390625 C209.92707297 301.91875166 212.19254884 304.64831825 214.4375 307.4375 C217.65947879 311.4322991 221.00705595 315.24502464 224.5 319 C239 334.62341883 239 334.62341883 239 338 C227.6039552 338.32552596 216.2090295 338.57369795 204.80926895 338.72537041 C199.51455843 338.79820007 194.22304562 338.89682182 188.93017578 339.05615234 C183.81404419 339.20918448 178.70097032 339.29215711 173.58272552 339.3282814 C171.63839327 339.35399309 169.69421389 339.40421074 167.75119781 339.48022079 C151.77834353 340.0797604 151.77834353 340.0797604 146.24255371 335.02960205 C143.59233171 332.16952788 141.35473186 329.10922272 139.23008442 325.84509563 C137.20922516 322.81385767 134.90651893 320.02601928 132.625 317.1875 C131.72429206 316.03070125 130.82430676 314.87333849 129.92578125 313.71484375 C126.6288434 309.49873195 123.22341118 305.37406465 119.8125 301.25 C115.53944228 296.08332405 111.29322703 290.90115659 107.12109375 285.65234375 C104.26804033 282.08471342 101.38349326 278.54304387 98.5 275 C94.98419035 270.67909635 91.4727555 266.35565945 88 262 C82.37388975 254.96736219 76.67922484 247.98981519 71 241 C70.67 273.01 70.34 305.02 70 338 C46.9 338 23.8 338 0 338 C0 226.46 0 114.92 0 0 Z " fill="#000000" transform="translate(1361,6)"/>
<path d="M0 0 C8.17631225 7.3526245 8.17631225 7.3526245 10 11 C10.33 3.08 10.66 -4.84 11 -13 C34.1 -13 57.2 -13 81 -13 C81 63.89 81 140.78 81 220 C57.9 220 34.8 220 11 220 C10.67 212.08 10.34 204.16 10 196 C7.69 198.64 5.38 201.28 3 204 C-15.2425905 220.215636 -39.83954215 226.22592015 -63.81787109 225.15234375 C-86.39889148 223.57586616 -107.01337794 214.8632943 -124 200 C-124.7321875 199.41089844 -125.464375 198.82179688 -126.21875 198.21484375 C-149.08011946 179.25761661 -162.48488318 148.26917414 -165.71875 119.2265625 C-168.5339309 82.43070451 -160.43313437 48.05523639 -136.75390625 19.26953125 C-103.17921236 -19.33238953 -42.53794604 -32.62359011 0 0 Z M-87.00390625 67.19140625 C-96.40966358 78.54738541 -100.6644863 93.02365448 -99.9375 107.6875 C-98.08607428 123.60188277 -91.11306829 138.13105005 -78.43554688 148.24853516 C-64.84682054 158.3367738 -49.89629069 162.32097368 -33 160.375 C-15.63885871 157.46541916 -2.58602465 148.83249291 9 136 C11.24341532 132.63487702 11.27211824 131.42406523 11.33813477 127.47802734 C11.36057755 126.34609955 11.38302032 125.21417175 11.40614319 124.04794312 C11.4235984 122.21050034 11.4235984 122.21050034 11.44140625 120.3359375 C11.45517807 119.0741568 11.46894989 117.8123761 11.48313904 116.51235962 C11.50643953 113.83735598 11.52434576 111.16282348 11.53540039 108.48779297 C11.55188665 105.08110452 11.61021144 101.67651502 11.67854404 98.27052879 C11.73444885 95.00085419 11.74059063 91.73101981 11.75390625 88.4609375 C11.78376114 87.24812103 11.81361603 86.03530457 11.84437561 84.78573608 C11.80121492 76.40478859 9.91040755 71.92977907 4 66 C3.26394531 65.21367187 2.52789063 64.42734375 1.76953125 63.6171875 C-11.30934607 51.97411507 -26.92024185 45.52589401 -44.51953125 45.72265625 C-61.77530989 47.09769585 -75.34726945 54.44408999 -87.00390625 67.19140625 Z " fill="#000000" transform="translate(998,124)"/>
<path d="M0 0 C8.85607337 7.71028918 17.17001272 15.90356684 24.05859375 25.44140625 C24.46940186 26.00891602 24.88020996 26.57642578 25.3034668 27.16113281 C27.48308971 30.33028652 28.74193076 32.98391131 29.18359375 36.81640625 C22.04483666 41.42090457 14.63262761 45.49315579 7.18359375 49.56640625 C4.59047372 50.98575589 1.99797777 52.40623463 -0.59375 53.828125 C-1.22361313 54.17354843 -1.85347626 54.51897186 -2.50242615 54.87486267 C-6.07268473 56.83865895 -9.61611101 58.84037182 -13.1328125 60.8984375 C-13.86951172 61.32737305 -14.60621094 61.75630859 -15.36523438 62.19824219 C-16.6656221 62.96069066 -17.96039199 63.73284088 -19.24804688 64.51660156 C-21.57644488 65.87639672 -23.28622939 66.82392649 -26.01953125 66.78515625 C-28.41029639 65.496222 -29.45633793 63.9816404 -31.00390625 61.75390625 C-40.88133794 48.6048358 -54.56829734 41.13165841 -70.81640625 38.81640625 C-85.17032918 37.1521833 -100.15094469 42.15754862 -111.46484375 50.8515625 C-124.52172643 61.96755722 -131.34481429 76.04792978 -133.03515625 93.01171875 C-133.69496092 107.91230764 -127.71505534 122.46434025 -118.19140625 133.69140625 C-107.16958774 145.01336505 -93.00647055 151.16643636 -77.26171875 151.90625 C-60.94333265 151.48071385 -47.02018884 145.80531504 -35.171875 134.39453125 C-31.89920642 130.81250594 -29.22413519 127.02231251 -26.81640625 122.81640625 C-23.21112157 124.19044832 -19.845805 125.78933571 -16.44921875 127.6171875 C-15.40894531 128.17639893 -14.36867188 128.73561035 -13.296875 129.31176758 C-12.18957031 129.91142334 -11.08226562 130.5110791 -9.94140625 131.12890625 C-8.80058594 131.74467529 -7.65976563 132.36044434 -6.484375 132.99487305 C4.17729009 138.76360927 14.73411066 144.71522366 25.2578125 150.73168945 C26.54876984 151.45883492 27.85835826 152.1537885 29.18359375 152.81640625 C27.64848593 164.24673611 16.87586904 173.83275689 9.18359375 181.81640625 C8.6009375 182.46222656 8.01828125 183.10804688 7.41796875 183.7734375 C-12.93142905 205.71584371 -43.81438363 215.04480584 -72.73046875 217.09375 C-107.63802036 218.04439138 -137.71823042 204.37346602 -162.81640625 180.81640625 C-163.70199219 180.04490234 -163.70199219 180.04490234 -164.60546875 179.2578125 C-181.89022141 163.48854763 -193.6670887 136.72053392 -196.81640625 113.81640625 C-196.92597656 113.09453125 -197.03554687 112.37265625 -197.1484375 111.62890625 C-201.05527915 80.79090286 -193.3908012 48.92267944 -175.09765625 23.73828125 C-171.55691513 19.20322241 -167.79389926 14.97037506 -163.81640625 10.81640625 C-162.71425781 9.60210937 -162.71425781 9.60210937 -161.58984375 8.36328125 C-120.20258225 -35.65394001 -46.02888828 -37.46810141 0 0 Z " fill="#000000" transform="translate(1304.81640625,132.18359375)"/>
<path d="M0 0 C0.84506104 0.39453369 1.69012207 0.78906738 2.56079102 1.19555664 C8.54796905 4.13883074 13.62888263 7.80028475 18.75 12.0625 C18.11868126 17.79801016 16.07223101 22.74966419 13.93359375 28.0546875 C13.36971703 29.47359787 13.36971703 29.47359787 12.79444885 30.9211731 C11.59770535 33.9288719 10.39273248 36.93319418 9.1875 39.9375 C8.37250094 41.98155325 7.5580417 44.02582181 6.74414062 46.0703125 C4.7523407 51.07021973 2.75378193 56.06738355 0.75 61.0625 C-2.21495558 59.9173677 -5.02781838 58.7180546 -7.7890625 57.14453125 C-27.68652193 46.05136607 -48.3759318 38.85632165 -71.3125 38.5625 C-72.72160645 38.53458374 -72.72160645 38.53458374 -74.15917969 38.50610352 C-82.06885214 38.57840528 -88.36616302 40.83135961 -95.1875 44.75 C-98.21694008 48.14664493 -99.60912144 51.56109106 -100.25 56.0625 C-99.24818064 60.98811184 -97.56391858 63.16041733 -93.5625 66.125 C-89.53993485 68.51091054 -85.39528203 70.31045591 -81.0234375 71.94140625 C-80.3282048 72.20112213 -79.63297211 72.46083801 -78.91667175 72.72842407 C-71.67862966 75.36736878 -64.3008351 77.3730791 -56.85549927 79.33139038 C-34.51841658 85.23576238 -10.98176845 91.45723515 6.75 107.0625 C7.51054688 107.72894531 8.27109375 108.39539063 9.0546875 109.08203125 C21.0865842 120.32395494 26.55690753 134.51603658 27.22094727 150.73657227 C27.47469485 170.50542837 21.20247274 188.17368093 7.52319336 202.5559082 C-11.99299427 222.01140173 -39.14817821 229.0052364 -66 229.25 C-99.66583664 229.181302 -132.50389349 222.23826307 -161.8125 205.375 C-162.76890381 204.84084473 -162.76890381 204.84084473 -163.74462891 204.29589844 C-166.34539098 202.7324095 -168.02037413 201.7037311 -169.06420898 198.78881836 C-169.3005266 195.32106698 -168.43106797 193.41093062 -166.96875 190.265625 C-166.20449707 188.59077026 -166.20449707 188.59077026 -165.42480469 186.88208008 C-164.87211914 185.70411865 -164.31943359 184.52615723 -163.75 183.3125 C-162.91363631 181.49180294 -162.08221104 179.66890638 -161.25115967 177.84577942 C-160.42842436 176.04170502 -159.60192199 174.23935012 -158.77539062 172.43701172 C-156.74980012 167.95594386 -154.84829335 163.43158437 -153 158.875 C-152.56977539 157.81684082 -152.56977539 157.81684082 -152.13085938 156.73730469 C-151.5004495 155.1804317 -150.8745697 153.62172506 -150.25 152.0625 C-146.55751597 153.39236015 -143.2660117 155.14783445 -139.88598633 157.13378906 C-115.53778061 171.40514237 -84.29760627 179.70864006 -56.0078125 174.4140625 C-49.25529511 172.55513418 -43.75775708 169.519925 -39.25 164.0625 C-37.89162101 159.98736303 -37.74571624 156.32256874 -38.25 152.0625 C-41.29504882 145.97240235 -48.61808329 143.30000596 -54.80224609 141.19287109 C-57.4401252 140.44534531 -60.08541321 139.77079646 -62.75 139.125 C-64.22509033 138.75169556 -64.22509033 138.75169556 -65.72998047 138.37084961 C-72.15747697 136.76271242 -78.61361657 135.30005886 -85.08081055 133.86157227 C-111.85968644 127.87388468 -137.82239674 120.63650664 -154.7890625 97.50390625 C-164.33122564 81.55777801 -165.59588777 62.09719778 -161.22265625 44.33984375 C-158.39731129 34.8199063 -154.41871977 26.84534725 -148.25 19.0625 C-147.60417969 18.24007812 -146.95835937 17.41765625 -146.29296875 16.5703125 C-137.12337646 5.64846046 -125.43585007 -1.71912987 -112.25 -6.9375 C-111.31027344 -7.31519531 -110.37054687 -7.69289063 -109.40234375 -8.08203125 C-75.07577275 -20.6889012 -32.57936924 -15.24997905 0 0 Z " fill="#000000" transform="translate(681.25,119.9375)"/>
<path d="M0 0 C23.1 0 46.2 0 70 0 C70 111.54 70 223.08 70 338 C46.9 338 23.8 338 0 338 C0 226.46 0 114.92 0 0 Z " fill="#000000" transform="translate(735,6)"/>
<path d="M0 0 C1.71626083 -0.0076664 1.71626083 -0.0076664 3.4671936 -0.01548767 C7.23428641 -0.02934128 11.00119536 -0.02842989 14.76831055 -0.02612305 C17.39853482 -0.03001258 20.02875848 -0.03434778 22.65898132 -0.03910828 C28.16736468 -0.04730428 33.6756967 -0.04642501 39.18408203 -0.04101562 C45.5268205 -0.03498205 51.8693368 -0.04727738 58.21203738 -0.06858569 C64.34162585 -0.08841146 70.47111139 -0.0913652 76.60072899 -0.08785057 C79.19572661 -0.08836226 81.7907279 -0.0935712 84.38570595 -0.10366249 C88.0229337 -0.11607049 91.65965467 -0.10920829 95.296875 -0.09765625 C96.35749649 -0.10529999 97.41811798 -0.11294373 98.51087952 -0.12081909 C111.7956897 -0.02808452 122.79330313 3.88811196 132.5925293 12.9621582 C141.89242641 22.8268264 144.83893238 33.83886142 144.5925293 47.06762695 C143.70056503 58.5098561 137.97229824 69.60266076 129.26049805 77.0559082 C119.26137758 84.68043948 108.32428183 86.88626023 95.96557617 86.79223633 C94.22377831 86.80275024 94.22377831 86.80275024 92.4467926 86.81347656 C88.65137004 86.8309195 84.85670795 86.81948194 81.0612793 86.8059082 C78.39814346 86.80860704 75.73502971 86.81248802 73.07189941 86.81750488 C67.5075677 86.82474699 61.94344955 86.81528479 56.37915039 86.79614258 C49.98002424 86.77438023 43.58140819 86.78143407 37.18229437 86.8034482 C31.65147004 86.82170115 26.12079772 86.82411265 20.58995295 86.81369352 C17.30266325 86.80751242 14.01566069 86.80808304 10.7283783 86.81983948 C7.05840395 86.83008664 3.38938619 86.81438876 -0.28051758 86.79223633 C-1.34479477 86.80033325 -2.40907196 86.80843018 -3.50559998 86.81677246 C-16.19704971 86.67604186 -27.30055188 82.95787887 -36.6574707 74.2746582 C-45.15718247 64.58783585 -49.07630527 53.38021395 -48.93481445 40.59887695 C-48.1391814 31.0624864 -44.65804512 22.67003927 -38.6574707 15.2746582 C-38.15602539 14.64946289 -37.65458008 14.02426758 -37.13793945 13.38012695 C-27.4443942 2.55448882 -13.81948706 -0.03209601 0 0 Z " fill="#FCC003" transform="translate(261.657470703125,212.725341796875)"/>
<path d="M0 0 C1.65511093 -0.00744736 1.65511093 -0.00744736 3.34365845 -0.01504517 C6.98147209 -0.02960824 10.61924212 -0.03645923 14.25708008 -0.04199219 C16.79665629 -0.04774868 19.33623251 -0.05350634 21.87580872 -0.05926514 C26.51860005 -0.06841971 31.16137843 -0.07472659 35.80417651 -0.07776189 C42.60722484 -0.08223576 49.41007156 -0.09976158 56.21305865 -0.12876248 C62.13277929 -0.15310942 68.05245054 -0.16071225 73.97222328 -0.16243744 C76.47708546 -0.16545182 78.98194705 -0.173439 81.48677635 -0.18662262 C85.00175349 -0.20380177 88.51624717 -0.20177373 92.03125 -0.1953125 C93.56304146 -0.20913467 93.56304146 -0.20913467 95.1257782 -0.22323608 C108.91304157 -0.14440366 120.76845032 3.78139365 130.98754883 13.14550781 C134.30735444 16.75947342 136.6229295 20.80495041 138.83911133 25.16113281 C139.16911133 25.79664063 139.49911133 26.43214844 139.83911133 27.08691406 C144.45621449 37.45319857 143.51935887 49.70006289 139.83911133 60.16113281 C134.82386576 71.31324437 126.27993362 79.80522341 114.83911133 84.16113281 C108.48841514 86.4369466 102.54159436 86.45710095 95.83618164 86.45166016 C94.04698807 86.46173599 94.04698807 86.46173599 92.22164917 86.47201538 C88.96519054 86.48771004 85.70888538 86.49436764 82.45239353 86.49564695 C80.41249323 86.49707363 78.37261926 86.50135301 76.33272552 86.50664139 C69.20072242 86.52511861 62.06879382 86.53331511 54.93676758 86.53173828 C48.31395791 86.53053826 41.69147485 86.55161888 35.06874776 86.58322561 C29.36230938 86.60947793 23.65597708 86.62010181 17.94947886 86.61882746 C14.55036204 86.61832035 11.15153562 86.62386289 7.75247955 86.64518356 C3.95458738 86.66487736 0.15752598 86.65899084 -3.64038086 86.64697266 C-4.74932709 86.65821167 -5.85827332 86.66945068 -7.00082397 86.68103027 C-19.14408304 86.58385994 -29.40568943 82.4154945 -38.32104492 74.16113281 C-48.01431902 64.01490198 -50.69689441 53.01749651 -50.43432617 39.30957031 C-49.85801447 26.8646611 -43.62076462 18.30786019 -34.97338867 9.91113281 C-24.64227954 1.06346499 -12.98636454 0.01407612 0 0 Z " fill="#1AB9FF" transform="translate(50.160888671875,105.8388671875)"/>
<path d="M0 0 C9.40771358 6.6933016 16.07113932 15.91791964 18.3125 27.3125 C18.61064519 31.30821007 18.60628198 35.29407809 18.60302734 39.29956055 C18.60974457 40.49074997 18.61646179 41.68193939 18.62338257 42.90922546 C18.63907793 46.16161918 18.64573492 49.41385924 18.64701414 52.66628623 C18.64844098 54.70418422 18.6527207 56.74205587 18.65800858 58.77994728 C18.67648748 65.90661936 18.68468225 73.03321687 18.68310547 80.15991211 C18.68190602 86.77474964 18.70297498 93.38925987 18.7345928 100.00401467 C18.76086119 105.70537318 18.77146831 111.40662551 18.77019465 117.10804397 C18.76968792 120.5032805 18.77520839 123.89822614 18.79655075 127.29340172 C18.81626893 131.08869497 18.81034835 134.88315858 18.79833984 138.6784668 C18.80957886 139.78381775 18.82081787 140.8891687 18.83239746 142.02801514 C18.72717847 155.19434699 14.56969872 164.98258385 5.36328125 174.28125 C-4.6587213 183.57473763 -15.74685658 186.02017577 -29.1015625 185.68359375 C-39.88953173 185.05649004 -49.24790186 180.02667031 -56.6875 172.3125 C-65.43540653 160.96833387 -67.83358894 150.22675538 -67.84863281 136.17333984 C-67.85359772 135.06032501 -67.85856262 133.94731018 -67.86367798 132.80056763 C-67.87826089 129.12485124 -67.88509582 125.44917804 -67.890625 121.7734375 C-67.89638041 119.2100118 -67.90213809 116.6465861 -67.90789795 114.0831604 C-67.91705701 109.39447853 -67.92336123 104.7058138 -67.9263947 100.01712453 C-67.9308668 93.14501637 -67.9483814 86.27310795 -67.9773953 79.40106046 C-68.00174178 73.42419681 -68.0093451 67.44742658 -68.01107025 61.47050858 C-68.01408522 58.94052672 -68.02207441 56.41054547 -68.03525543 53.88059616 C-68.05243297 50.32958882 -68.05040677 46.77906011 -68.04394531 43.22802734 C-68.0531601 42.19591125 -68.06237488 41.16379517 -68.0718689 40.10040283 C-68.00588993 28.4443183 -65.31791172 18.91148748 -58.6875 9.3125 C-58.11 8.425625 -57.5325 7.53875 -56.9375 6.625 C-41.48465794 -9.25708768 -18.57429386 -11.32117402 0 0 Z " fill="#41B658" transform="translate(280.6875,6.6875)"/>
<path d="M0 0 C8.99406201 6.88038455 15.28255233 15.48415488 17.625 26.75 C17.7204005 28.46554362 17.76404706 30.18430612 17.77217102 31.90248108 C17.77932632 32.94385223 17.78648163 33.98522339 17.79385376 35.05815125 C17.79654266 36.19533096 17.79923157 37.33251068 17.80200195 38.50415039 C17.80857315 39.7062616 17.81514435 40.9083728 17.82191467 42.14691162 C17.84164567 46.13049571 17.85331628 50.11403954 17.86328125 54.09765625 C17.86733116 55.47308306 17.87144815 56.84850967 17.87563133 58.22393608 C17.89467718 64.69043993 17.90890667 71.15693244 17.9172433 77.62345892 C17.92699878 85.06616011 17.95327624 92.50856255 17.99374419 99.95115858 C18.02400886 105.71697098 18.03872212 111.48269828 18.04202431 117.2485885 C18.044364 120.68577408 18.05318105 124.12264034 18.07848549 127.55974007 C18.10291644 131.40342873 18.10190375 135.24634483 18.0949707 139.09008789 C18.10778076 140.21309799 18.12059082 141.33610809 18.13378906 142.4931488 C18.06128631 153.57255805 14.94630032 162.41825387 7.625 170.75 C6.87283203 171.65878906 6.87283203 171.65878906 6.10546875 172.5859375 C0.28350682 179.07367123 -8.60024216 184.15744367 -17.39868164 184.92700195 C-33.03022533 185.37535271 -44.297415 183.62546145 -56.375 172.75 C-66.50844877 161.41332169 -68.52686066 148.47592032 -68.52026367 133.84863281 C-68.52362228 132.77287994 -68.5269809 131.69712708 -68.53044128 130.58877563 C-68.53991552 127.0435469 -68.54189269 123.49836559 -68.54296875 119.953125 C-68.546184 117.4784137 -68.54954828 115.0037026 -68.55305481 112.5289917 C-68.55903742 107.34419311 -68.56089562 102.15941117 -68.56030273 96.97460938 C-68.56020121 90.34960197 -68.57384698 83.72470198 -68.59107494 77.09972 C-68.60222541 71.98829666 -68.604221 66.87689903 -68.60369301 61.76546478 C-68.60486877 59.32397848 -68.60926778 56.88249141 -68.61702538 54.44101715 C-68.62688586 51.01691798 -68.62392321 47.59304864 -68.61791992 44.16894531 C-68.62353943 43.17220795 -68.62915894 42.17547058 -68.63494873 41.14852905 C-68.56919896 26.29792152 -65.19073474 14.92654633 -54.82421875 4.01171875 C-39.6963012 -9.95808071 -17.11535121 -11.31529271 0 0 Z " fill="#E3066A" transform="translate(174.375,220.25)"/>
<path d="M0 0 C1.36167566 1.03368079 2.70220206 2.09630267 4.01171875 3.1953125 C5.78269191 4.70932032 5.78269191 4.70932032 8.703125 5.5 C10.73647709 4.21810412 12.73393654 2.87843192 14.703125 1.5 C21.33808264 -2.0017832 29.39566718 -2.17988302 36.54296875 -0.2890625 C43.11391736 2.11117551 48.10482362 6.32691095 52.703125 11.5 C52.703125 12.16 52.703125 12.82 52.703125 13.5 C53.3321875 13.2834375 53.96125 13.066875 54.609375 12.84375 C64.1104203 9.75304852 72.64766824 9.52611294 81.9921875 13.46484375 C92.1070382 18.62654591 97.86818242 25.90041623 101.703125 36.5 C104.32300623 44.94369365 103.19083926 54.49799898 99.703125 62.5 C94.79258458 71.80096129 87.93651405 78.52266349 77.8671875 81.85546875 C71.84369479 83.08247653 65.82281703 82.79731297 59.703125 82.5 C59.41953125 83.10714844 59.1359375 83.71429687 58.84375 84.33984375 C56.13613764 89.46761648 51.94816675 92.31456594 46.703125 94.5 C39.75334239 96.46019509 33.4943964 95.4063218 26.703125 93.5 C26.5175 94.180625 26.331875 94.86125 26.140625 95.5625 C22.75703266 102.47679738 16.77969627 106.78609844 9.703125 109.5 C1.73819876 111.95708905 -6.61894729 111.13280441 -14.11328125 107.69140625 C-20.24785045 104.34427994 -24.18255305 99.74242409 -27.296875 93.5 C-27.296875 92.84 -27.296875 92.18 -27.296875 91.5 C-28.1425 91.54640625 -28.988125 91.5928125 -29.859375 91.640625 C-37.09096971 91.8707212 -42.29089925 91.67387764 -48.296875 87.5 C-49.8746875 86.448125 -49.8746875 86.448125 -51.484375 85.375 C-56.6669899 80.82959185 -59.82520638 73.24389788 -60.5 66.45703125 C-60.68242453 58.11110878 -58.52131557 51.10738072 -53.296875 44.5 C-52.36875 43.860625 -51.440625 43.22125 -50.484375 42.5625 C-49.7625 41.881875 -49.040625 41.20125 -48.296875 40.5 C-48.39352498 37.62552374 -48.39352498 37.62552374 -48.88671875 35.609375 C-50.59403676 26.82888237 -49.45081981 17.78221651 -44.85546875 10.0859375 C-34.64514766 -4.08058688 -15.40546624 -10.06071264 0 0 Z " fill="#0D9DDA" transform="translate(874.296875,461.5)"/>
<path d="M0 0 C2.03150645 1.44609143 3.87779739 2.98126324 5.734375 4.64453125 C6.33894531 5.14597656 6.94351563 5.64742187 7.56640625 6.1640625 C16.61036262 14.26224566 20.16197406 25.57202908 20.90821838 37.39993286 C20.9629926 40.19594695 20.96009097 42.9848867 20.9296875 45.78125 C20.9268576 46.78670364 20.92402771 47.79215729 20.92111206 48.82807922 C20.91003987 51.99619146 20.88496057 55.16400646 20.859375 58.33203125 C20.84932841 60.49804275 20.84020552 62.66405875 20.83203125 64.83007812 C20.81014325 70.10166156 20.77679792 75.37307516 20.734375 80.64453125 C14.11824047 80.72122443 7.50222254 80.77339828 0.88574219 80.80932617 C-1.36039514 80.82431977 -3.60650366 80.84472145 -5.85253906 80.87084961 C-9.09968215 80.90765056 -12.34643485 80.92435241 -15.59375 80.9375 C-17.07575897 80.96072578 -17.07575897 80.96072578 -18.58770752 80.98442078 C-32.35364133 80.98766971 -44.22739257 77.01094091 -54.4140625 67.65625 C-62.24639386 59.14643851 -65.8514988 48.68847241 -65.703125 37.26953125 C-65.69482666 36.43953613 -65.68652832 35.60954102 -65.67797852 34.75439453 C-65.31942665 21.68575338 -59.8559049 12.77545312 -50.515625 3.89453125 C-36.75808006 -7.65965688 -15.38836236 -9.20648576 0 0 Z " fill="#1AB9FF" transform="translate(172.265625,5.35546875)"/>
<path d="M0 0 C6.45540644 -0.07680101 12.91069274 -0.12891097 19.36645508 -0.16479492 C21.55725507 -0.17977282 23.74802565 -0.20016228 25.9387207 -0.22631836 C44.75059694 -0.44511099 60.33128774 -0.25307436 74.8125 13.25 C84.15947297 23.05936739 86.62180483 34.64428974 86.3125 47.765625 C85.712047 59.02411879 79.8199435 68.60003165 71.8125 76.25 C60.67813768 85.70477207 48.05631002 87.12752834 34 86 C23.07303266 83.83804937 13.90296396 77.20668048 7.46484375 68.25390625 C1.02897201 58.35124493 -0.31300792 49.09328804 -0.1953125 37.40234375 C-0.1924826 36.32747208 -0.18965271 35.2526004 -0.18673706 34.14515686 C-0.17562274 30.74248698 -0.15053447 27.34008911 -0.125 23.9375 C-0.11495889 21.61784237 -0.10583503 19.29818057 -0.09765625 16.97851562 C-0.07571212 11.31891903 -0.04232265 5.65947896 0 0 Z " fill="#FCC003" transform="translate(213,319)"/>
<path d="M0 0 C1.61230751 0.00424484 1.61230751 0.00424484 3.25718689 0.00857544 C6.65985677 0.01968976 10.06225464 0.04477803 13.46484375 0.0703125 C15.78450138 0.08035361 18.10416318 0.08947747 20.42382812 0.09765625 C26.08342472 0.11960038 31.74286479 0.15298985 37.40234375 0.1953125 C37.50439522 7.3993713 37.5740811 14.60324126 37.62207031 21.80786133 C37.64209205 24.2548723 37.66931773 26.70183599 37.70410156 29.14868164 C37.75303538 32.68127157 37.77540791 36.21322479 37.79296875 39.74609375 C37.81361389 40.82675613 37.83425903 41.90741852 37.85552979 43.02082825 C37.85907224 55.21790327 33.62580759 65.35321408 25.4375 74.35546875 C16.40556718 83.09341461 5.57040719 86.46269314 -6.74682617 86.44189453 C-18.52323784 86.23476815 -28.25850017 81.4764592 -36.84765625 73.5078125 C-45.74802995 64.06693028 -49.17006527 53.13069236 -48.91015625 40.37890625 C-47.72617531 28.31710044 -42.37049559 18.11475712 -33.640625 9.828125 C-23.31488426 1.57542972 -12.84486364 -0.12931219 0 0 Z " fill="#E3066A" transform="translate(48.59765625,212.8046875)"/>
<path d="M0 0 C8.19939564 6.58741616 13.82010408 16.30230428 15.18041992 26.79931641 C15.31457851 29.15763103 15.34685658 31.48582202 15.31640625 33.84765625 C15.30883301 34.67692627 15.30125977 35.50619629 15.29345703 36.3605957 C15.01381309 46.80641951 11.77361344 54.64757893 4.87890625 62.47265625 C4.35425781 63.09011719 3.82960938 63.70757812 3.2890625 64.34375 C-3.06813832 71.2992756 -12.2414071 76.00954208 -21.71627808 76.64735413 C-24.79975598 76.70338381 -27.87708963 76.69745943 -30.9609375 76.66796875 C-32.08303116 76.66513885 -33.20512482 76.66230896 -34.36122131 76.65939331 C-37.92712293 76.648244 -41.49276869 76.62314876 -45.05859375 76.59765625 C-47.48372032 76.58761968 -49.90885084 76.57849501 -52.33398438 76.5703125 C-58.26310738 76.54832184 -64.19208228 76.51489652 -70.12109375 76.47265625 C-70.22314522 69.26859745 -70.2928311 62.06472749 -70.34082031 54.86010742 C-70.36084205 52.41309645 -70.38806773 49.96613276 -70.42285156 47.51928711 C-70.47178538 43.98669718 -70.49415791 40.45474396 -70.51171875 36.921875 C-70.53236389 35.84121262 -70.55300903 34.76055023 -70.57427979 33.6471405 C-70.57777013 21.6294608 -66.47747651 11.40181197 -58.34375 2.53515625 C-41.81261494 -13.15082876 -17.91867571 -12.90276649 0 0 Z " fill="#41B658" transform="translate(390.12109375,115.52734375)"/>
<path d="M0 0 C2.1504976 1.90292339 3.40844001 3.55960802 5 6 C5 6.66 5 7.32 5 8 C5.66 8 6.32 8 7 8 C7.20625 7.443125 7.4125 6.88625 7.625 6.3125 C10.58959326 1.32659316 15.25668024 -1.69401214 20.671875 -3.4921875 C29.16769177 -5.3453019 37.50568905 -4.51528895 45 0 C50.20803462 4.25010859 52.51279764 9.56244183 54 16 C54.37159662 19.87459431 54.35170209 23.70824825 54.29296875 27.59765625 C54.28872391 28.67252792 54.28447906 29.7473996 54.28010559 30.85484314 C54.26343339 34.25765998 54.22580223 37.65986488 54.1875 41.0625 C54.17243837 43.38215285 54.15875256 45.70181507 54.14648438 48.02148438 C54.11356737 53.68122213 54.06186451 59.34050764 54 65 C50.04 65 46.08 65 42 65 C41.9906543 63.65365479 41.98130859 62.30730957 41.97167969 60.92016602 C41.93160847 55.89347043 41.8658021 50.86737588 41.79248047 45.84106445 C41.76436996 43.67154703 41.74310641 41.50192909 41.72900391 39.33227539 C41.70743691 36.20146587 41.66071557 33.07185247 41.609375 29.94140625 C41.60814636 28.98166397 41.60691772 28.02192169 41.60565186 27.03309631 C41.47145933 20.77028742 40.50538633 15.31738114 37 10 C32.35800137 7.10969897 28.40901831 6.33573459 23 7 C17.80644602 8.48954703 14.80122709 10.69469693 12.0625 15.375 C8.80791266 21.61939469 8.82351587 28.23423355 8.68359375 35.1171875 C8.66281265 35.97434357 8.64203156 36.83149963 8.62062073 37.71463013 C8.55558739 40.43467714 8.49645659 43.15481517 8.4375 45.875 C8.39427076 47.72657166 8.3506551 49.57813434 8.30664062 51.4296875 C8.19995379 55.95303331 8.09855806 60.47647007 8 65 C4.04 65 0.08 65 -4 65 C-4.01401855 62.9271875 -4.01401855 62.9271875 -4.02832031 60.8125 C-4.0683434 55.66097371 -4.13413701 50.51003688 -4.20751953 45.35888672 C-4.23565772 43.13402914 -4.25690765 40.90907293 -4.27099609 38.68408203 C-4.29252432 35.47637697 -4.33922678 32.26984897 -4.390625 29.0625 C-4.39185364 28.07572266 -4.39308228 27.08894531 -4.39434814 26.07226562 C-4.52213709 19.97807721 -5.35584436 15.02710138 -9 10 C-13.29957366 6.9425254 -16.79594957 6.45220522 -22 7 C-27.69876097 8.76858099 -30.62965927 11.08893209 -34 16 C-36.29058909 21.30913242 -36.34187971 26.30812307 -36.4140625 31.9921875 C-36.43342865 32.93812775 -36.4527948 33.88406799 -36.4727478 34.8586731 C-36.53227049 37.86402522 -36.57881946 40.86941621 -36.625 43.875 C-36.66320492 45.91928704 -36.70225811 47.96355842 -36.7421875 50.0078125 C-36.83794954 55.0050803 -36.92208114 60.00242342 -37 65 C-40.96 65 -44.92 65 -49 65 C-49.33 42.89 -49.66 20.78 -50 -2 C-46.04 -2 -42.08 -2 -38 -2 C-37.67 0.31 -37.34 2.62 -37 5 C-36.5875 4.60167969 -36.175 4.20335937 -35.75 3.79296875 C-25.63376771 -5.48777114 -12.08990921 -7.24952509 0 0 Z " fill="#000000" transform="translate(732,496)"/>
<path d="M0 0 C0.721875 0.5775 1.44375 1.155 2.1875 1.75 C1.54205571 5.23539917 0.08615603 7.77819057 -1.8125 10.75 C-5.28436333 10.30201763 -8.1063602 9.21561585 -11.25 7.75 C-18.81557186 4.30429401 -26.57831458 3.58770096 -34.5625 6 C-38.15961856 7.35202042 -40.69900626 8.40363491 -42.8125 11.75 C-43.99104817 16.06859608 -44.08599771 19.65600916 -43 24 C-37.85663527 30.46594423 -29.40383374 32.26080704 -21.8125 34.6875 C-13.14385684 37.46342886 -3.71826503 40.50831475 1.1875 48.75 C4.89027444 56.15554888 5.38580278 64.03716118 3.68359375 72.15234375 C1.07950629 79.90508412 -2.8452431 83.46210139 -9.875 87.0625 C-20.6297802 92.22967687 -33.43363777 92.38430059 -44.875 89.125 C-50.44885368 87.15858969 -55.15255444 84.3623609 -59.8125 80.75 C-59.02866433 76.88857796 -57.38439568 74.73671756 -54.8125 71.75 C-50.97860796 73.18770951 -47.39686131 74.94830545 -43.77734375 76.84765625 C-36.82431382 80.04079723 -26.37361336 80.07187216 -19.08984375 77.9609375 C-15.85185518 76.37523095 -13.18379994 74.44743861 -10.8125 71.75 C-9.09395688 66.59437064 -8.54840177 60.759225 -10.6953125 55.6484375 C-15.79078131 48.72226133 -24.88669247 46.95865096 -32.7109375 44.54296875 C-42.77850647 41.40279837 -50.53876728 38.24271889 -55.8125 28.75 C-57.98048741 22.24603778 -58.12031164 13.56713886 -55.25 7.25 C-50.99232821 0.24882844 -44.44436571 -3.83705843 -36.6015625 -5.8046875 C-24.28103864 -7.77182997 -10.68558883 -6.95805784 0 0 Z " fill="#000000" transform="translate(1065.8125,472.25)"/>
<path d="M0 0 C5.70724716 4.81945315 8.47070595 10.34961786 10.8125 17.375 C10.8125 23.315 10.8125 29.255 10.8125 35.375 C-5.0275 35.375 -20.8675 35.375 -37.1875 35.375 C-34.82803066 46.31371406 -34.82803066 46.31371406 -27.4375 53.3984375 C-20.01510852 56.66069827 -12.82645152 56.17140487 -5.3125 53.5 C-2.1858682 52.26940148 0.82715316 50.91627209 3.8125 49.375 C8.83245485 54.76226862 8.83245485 54.76226862 8.74609375 57.4140625 C6.79905396 61.50366071 1.80745261 62.76449916 -2.1875 64.375 C-12.16485505 67.76451957 -23.5290001 67.68216887 -33.1875 63.375 C-40.62269013 59.23253693 -45.23534935 53.02297774 -48.5 45.25 C-51.36788305 33.25703453 -51.25607157 20.55149562 -45.3125 9.4375 C-40.88372615 3.05485534 -35.10922134 -2.40216504 -27.36328125 -4.30859375 C-17.3082479 -5.77081584 -8.96415381 -4.56996076 0 0 Z M-31 9.0625 C-35.97923856 13.72415614 -37.08354357 18.75126143 -38.1875 25.375 C-25.6475 25.375 -13.1075 25.375 -0.1875 25.375 C-1.20539723 17.23182217 -1.84839286 13.90491326 -7.375 8.0625 C-15.38061544 3.25913074 -23.59548179 3.27238408 -31 9.0625 Z " fill="#000000" transform="translate(1589.1875,496.625)"/>
<path d="M0 0 C6.49702009 5.12986316 9.86083796 11.64647682 11.84765625 19.59375 C11.84765625 24.87375 11.84765625 30.15375 11.84765625 35.59375 C-4.32234375 35.59375 -20.49234375 35.59375 -37.15234375 35.59375 C-33.4127587 47.15467939 -33.4127587 47.15467939 -25.02734375 54.46875 C-16.07335656 57.70536442 -7.52007079 55.30972603 0.84765625 51.59375 C2.18680937 50.93885219 3.52241329 50.27635774 4.84765625 49.59375 C5.71422741 50.68820838 6.56558349 51.79472781 7.41015625 52.90625 C7.88582031 53.52113281 8.36148437 54.13601563 8.8515625 54.76953125 C9.18027344 55.37152344 9.50898437 55.97351563 9.84765625 56.59375 C8.84765625 59.59375 8.84765625 59.59375 6.87890625 60.91015625 C-4.16253789 66.34568199 -15.37061868 68.68913449 -27.52734375 65.34375 C-36.00292736 62.41041405 -42.37164217 57.00021671 -46.484375 49.00390625 C-50.55883165 38.50822111 -51.00769891 25.39199222 -47.12890625 14.734375 C-43.15254182 6.01818416 -38.14298255 0.41955375 -29.15234375 -3.40625 C-19.38310856 -5.80279151 -8.56980325 -5.5991455 0 0 Z M-30.02734375 8.96875 C-30.72859375 9.835 -31.42984375 10.70125 -32.15234375 11.59375 C-32.70921875 12.233125 -33.26609375 12.8725 -33.83984375 13.53125 C-36.35519114 17.48393876 -37.15234375 20.93538686 -37.15234375 25.59375 C-24.61234375 25.59375 -12.07234375 25.59375 0.84765625 25.59375 C-0.82204219 15.93879167 -0.82204219 15.93879167 -6.15234375 8.59375 C-13.79088013 3.71808848 -22.84645797 3.03671392 -30.02734375 8.96875 Z " fill="#000000" transform="translate(1232.15234375,496.40625)"/>
<path d="M0 0 C4.70042561 5.11516905 7.21085711 11.42280417 7.33032227 18.3347168 C7.3602401 19.86596443 7.3602401 19.86596443 7.39076233 21.42814636 C7.40747482 22.52822525 7.42418732 23.62830414 7.44140625 24.76171875 C7.46218735 25.8894722 7.48296844 27.01722565 7.50437927 28.17915344 C7.56982847 31.7860396 7.62873844 35.39299929 7.6875 39 C7.73068961 41.44336702 7.77430404 43.88672656 7.81835938 46.33007812 C7.9255052 52.32414316 8.02678591 58.31828224 8.125 64.3125 C4.495 64.3125 0.865 64.3125 -2.875 64.3125 C-3.535 62.3325 -4.195 60.3525 -4.875 58.3125 C-5.3596875 58.72242188 -5.844375 59.13234375 -6.34375 59.5546875 C-14.34243311 65.98439815 -21.69970693 67.1979392 -31.875 66.3125 C-38.58692068 65.23475121 -42.25120458 62.52719867 -46.5625 57.34765625 C-49.97107769 52.06233192 -49.4267152 45.36582594 -48.875 39.3125 C-47.27071987 33.71127052 -44.01523617 29.19497785 -38.875 26.3125 C-30.4288372 22.97591668 -21.9393287 22.14972256 -12.9375 22.25 C-12.15826172 22.25451172 -11.37902344 22.25902344 -10.57617188 22.26367188 C-8.67574732 22.27533092 -6.77536294 22.29326123 -4.875 22.3125 C-5.53927933 17.20647233 -6.0491208 13.3501431 -9.3125 9.25 C-14.78980515 5.10862294 -21.29083512 5.74793352 -27.875 6.3125 C-30.91593451 7.16381296 -33.73135674 8.19770882 -36.6328125 9.4375 C-38.875 10.3125 -38.875 10.3125 -41.875 10.3125 C-43.5 7.5625 -43.5 7.5625 -44.875 4.3125 C-44.29296875 2.24609375 -44.29296875 2.24609375 -42.875 0.3125 C-40.44921875 -0.91796875 -40.44921875 -0.91796875 -37.5625 -1.875 C-36.61761719 -2.19855469 -35.67273437 -2.52210938 -34.69921875 -2.85546875 C-23.21719718 -6.238139 -10.49504646 -6.16013596 0 0 Z M-33.875 36.5625 C-36.38060133 40.00770183 -36.875 42.057307 -36.875 46.3125 C-35.73309719 50.1188427 -34.71640413 52.52209006 -31.8125 55.25 C-25.97111331 57.362842 -20.16528225 57.2299709 -14.5 54.625 C-9.85531184 51.97490575 -6.87691267 48.24825021 -4.875 43.3125 C-4.63389241 40.26235072 -4.63389241 40.26235072 -4.75 37.0625 C-4.76804687 35.98484375 -4.78609375 34.9071875 -4.8046875 33.796875 C-4.82789063 32.97703125 -4.85109375 32.1571875 -4.875 31.3125 C-20.21852092 30.49206109 -20.21852092 30.49206109 -33.875 36.5625 Z " fill="#000000" transform="translate(1127.875,496.6875)"/>
<path d="M0 0 C8.56878695 7.06275773 11.84435957 16.11103111 13.03125 26.94140625 C13.40530186 36.65116904 11.04975208 46.82180888 4.75 54.375 C-1.78771192 61.20174761 -8.4771637 64.87685645 -18.01171875 65.578125 C-28.64668582 65.74851166 -37.3894384 63.96559331 -45.28515625 56.43359375 C-50.04898293 51.46226827 -52.76221624 47.09567836 -54.25 40.375 C-54.476875 39.405625 -54.70375 38.43625 -54.9375 37.4375 C-56.10781282 25.96843432 -54.9999667 14.87464772 -47.97265625 5.34375 C-36.23175119 -8.07442721 -14.65321312 -9.95312589 0 0 Z M-36.77734375 9.98828125 C-42.98594835 18.10445712 -43.22511825 27.56396367 -42.25 37.375 C-40.70013791 44.63243807 -37.44460788 49.33011906 -31.25 53.375 C-26.6545814 56.10741106 -21.44520869 56.00856204 -16.25 55.375 C-8.97905072 53.15332105 -4.99862226 48.63105524 -1.4375 42 C1.14467248 34.29800278 1.16215062 23.69722265 -1.9375 16.1875 C-5.01648252 10.5156901 -9.10712746 6.49708324 -15.25 4.375 C-23.37479928 3.43531941 -30.89829472 3.77844174 -36.77734375 9.98828125 Z " fill="#000000" transform="translate(657.25,497.625)"/>
<path d="M0 0 C7.68811463 6.3213387 12.94293288 13.22571602 14.03564453 23.38769531 C14.89558507 35.78270038 13.57048742 46.69504142 5.4296875 56.59765625 C-1.34895784 63.78564008 -9.79066469 66.32266026 -19.5625 66.75 C-29.36821717 66.39979582 -38.23292369 63.60439187 -45.3125 56.66796875 C-53.53072576 46.34382264 -54.24668408 33.96073546 -53.1875 21.3125 C-51.29128849 12.38793931 -46.93026923 4.41844759 -39.1796875 -0.62109375 C-26.9542752 -7.16528504 -12.07882622 -6.39467271 0 0 Z M-36.0625 12.25 C-40.89906556 19.22034448 -41.93762265 26.96738549 -41.1875 35.3125 C-39.66464196 42.73643295 -37.34874714 48.87570533 -31.1875 53.625 C-25.47558468 56.83795237 -19.38733406 57.19746503 -13 55.8515625 C-8.07863349 54.26703162 -4.78601328 51.85296271 -2.1875 47.3125 C2.59101011 37.48913659 3.38304701 27.98539285 -0.1484375 17.60546875 C-2.47589973 12.46930209 -5.58770821 9.28492246 -10.375 6.375 C-20.01682772 3.68793326 -29.16649501 4.49199438 -36.0625 12.25 Z " fill="#000000" transform="translate(1410.1875,496.6875)"/>
<path d="M0 0 C0.55945312 0.44988281 1.11890625 0.89976562 1.6953125 1.36328125 C0.57079523 4.33521975 -0.52762541 6.69768812 -2.3046875 9.36328125 C-7.94997506 7.52528065 -7.94997506 7.52528065 -10.60546875 6.3125 C-13.79632089 5.19039136 -16.42686282 5.06261942 -19.8046875 5.05078125 C-20.908125 5.03402344 -22.0115625 5.01726562 -23.1484375 5 C-26.65544331 5.4036529 -28.52116404 6.22016989 -31.3046875 8.36328125 C-32.49178146 11.77617638 -32.63681494 13.54243396 -31.27734375 16.90234375 C-28.62102834 20.21616298 -25.69828179 20.85885588 -21.7421875 21.86328125 C-12.37059665 24.53078302 -4.04417639 27.03176511 1.6953125 35.36328125 C4.28515573 40.5429677 3.29014211 48.43883252 1.6328125 53.80078125 C-3.47383099 60.55472909 -8.93208481 63.89009603 -17.3046875 65.36328125 C-26.57884962 66.34237168 -36.8021336 65.17759369 -44.5546875 59.67578125 C-45.4621875 58.91265625 -46.3696875 58.14953125 -47.3046875 57.36328125 C-45.9846875 55.05328125 -44.6646875 52.74328125 -43.3046875 50.36328125 C-39.38901025 50.36328125 -38.12371196 50.75886767 -34.7421875 52.36328125 C-27.98972708 55.16600116 -21.63736336 55.5911092 -14.7421875 53.05078125 C-12.08469211 51.43234957 -12.08469211 51.43234957 -10.3046875 48.36328125 C-9.74936085 43.57847204 -9.74936085 43.57847204 -11.7109375 39.359375 C-15.50275716 36.44127282 -19.6519831 35.29411424 -24.1796875 33.86328125 C-30.15929144 31.95711929 -35.2645953 30.15527491 -40.3046875 26.36328125 C-40.8821875 25.93015625 -41.4596875 25.49703125 -42.0546875 25.05078125 C-45.72339327 20.09802845 -45.61305367 14.58340546 -44.83984375 8.7265625 C-43.73777935 3.85978176 -41.30637232 1.1646291 -37.4921875 -1.88671875 C-26.03171767 -8.1787414 -10.78149322 -7.65668755 0 0 Z " fill="#000000" transform="translate(1299.3046875,497.63671875)"/>
<path d="M0 0 C-0.66 2.97 -1.32 5.94 -2 9 C-2.88042969 8.96519531 -3.76085937 8.93039062 -4.66796875 8.89453125 C-6.41013672 8.85392578 -6.41013672 8.85392578 -8.1875 8.8125 C-9.33605469 8.77769531 -10.48460937 8.74289062 -11.66796875 8.70703125 C-15.31820512 9.02797818 -17.11689462 9.78142163 -20 12 C-22.17759206 16.68182293 -22.33788402 20.70307212 -23 26 C-17.39 26 -11.78 26 -6 26 C-6 28.97 -6 31.94 -6 35 C-11.61 35 -17.22 35 -23 35 C-23 54.14 -23 73.28 -23 93 C-26.96 93 -30.92 93 -35 93 C-35 73.86 -35 54.72 -35 35 C-38.63 35 -42.26 35 -46 35 C-46 32.36 -46 29.72 -46 27 C-42.37 26.67 -38.74 26.34 -35 26 C-35.0825 24.39125 -35.165 22.7825 -35.25 21.125 C-35.24082845 14.0170451 -33.62203682 7.92169817 -28.8125 2.5625 C-19.84238242 -2.42089865 -9.69530188 -4.19256297 0 0 Z " fill="#000000" transform="translate(558,468)"/>
<path d="M0 0 C-0.99 2.97 -1.98 5.94 -3 9 C-3.80824219 8.96519531 -4.61648438 8.93039062 -5.44921875 8.89453125 C-7.05216797 8.85392578 -7.05216797 8.85392578 -8.6875 8.8125 C-9.74324219 8.77769531 -10.79898437 8.74289062 -11.88671875 8.70703125 C-15.44101094 9.0415004 -17.19709749 9.81560137 -20 12 C-22.02871609 14.96217442 -22.34571109 17.71234042 -22.625 21.25 C-22.74875 22.8175 -22.8725 24.385 -23 26 C-17.72 26 -12.44 26 -7 26 C-7 28.97 -7 31.94 -7 35 C-12.28 35 -17.56 35 -23 35 C-23 54.14 -23 73.28 -23 93 C-26.96 93 -30.92 93 -35 93 C-35 73.86 -35 54.72 -35 35 C-38.96 35 -42.92 35 -47 35 C-47 32.36 -47 29.72 -47 27 C-43.04 26.67 -39.08 26.34 -35 26 C-35.0825 24.02 -35.165 22.04 -35.25 20 C-35.23510191 13.14687675 -34.21935071 8.61829042 -29.64453125 3.4765625 C-21.69477032 -3.89774657 -9.65185467 -3.43177055 0 0 Z " fill="#000000" transform="translate(1357,468)"/>
<path d="M0 0 C-0.61754259 1.31602523 -1.24428742 2.62773556 -1.875 3.9375 C-2.39707031 5.03384766 -2.39707031 5.03384766 -2.9296875 6.15234375 C-4 8 -4 8 -6 9 C-8.0234375 8.2578125 -8.0234375 8.2578125 -10.375 7.125 C-17.1792101 3.87081256 -23.13148016 3.04841903 -30.5625 5 C-35.79976698 6.89471092 -38.36632252 10.21474193 -41 15 C-44.46893024 23.19928965 -44.0597556 32.88114239 -40.83984375 41.1015625 C-38.8010338 45.71022128 -37.00094279 48.84903188 -32.34765625 51.26953125 C-25.35606186 53.44495247 -17.44798296 53.04081052 -10.8125 50 C-10.13832031 49.62875 -9.46414063 49.2575 -8.76953125 48.875 C-7 48 -7 48 -4 48 C-0.94375732 53.37898711 -0.94375732 53.37898711 -1.1875 56.0703125 C-2.50323507 59.19518328 -4.7964368 59.78061052 -7.76953125 61.1171875 C-17.43074333 64.94106478 -27.80395536 65.46440975 -37.6875 62.02734375 C-45.65383562 58.48824532 -50.47230815 52.93168933 -54 45 C-55.6764662 39.43848072 -56.35756887 34.41833787 -56.3125 28.625 C-56.30831055 27.88403076 -56.30412109 27.14306152 -56.29980469 26.37963867 C-56.07401516 15.38440942 -52.83135905 7.53072859 -44.875 -0.1875 C-31.77349224 -11.32910741 -13.72791867 -8.5401847 0 0 Z " fill="#000000" transform="translate(1533,499)"/>
<path d="M0 0 C-0.33 3.63 -0.66 7.26 -1 11 C-1.88042969 11.09796875 -2.76085938 11.1959375 -3.66796875 11.296875 C-4.82941406 11.44640625 -5.99085937 11.5959375 -7.1875 11.75 C-8.33605469 11.88921875 -9.48460937 12.0284375 -10.66796875 12.171875 C-15.04792027 13.26044443 -17.54883167 14.82346268 -20.08055115 18.6206665 C-23.15392828 24.24968684 -23.60091467 29.06322116 -23.609375 35.40625 C-23.62591125 36.3715564 -23.64244751 37.33686279 -23.65948486 38.3314209 C-23.70772464 41.38768021 -23.72928248 44.44344281 -23.75 47.5 C-23.77817975 49.583358 -23.80810996 51.6666931 -23.83984375 53.75 C-23.91347724 58.8332924 -23.96319847 63.91631294 -24 69 C-28.29 69 -32.58 69 -37 69 C-37 46.89 -37 24.78 -37 2 C-33.37 2 -29.74 2 -26 2 C-25.34 3.98 -24.68 5.96 -24 8 C-23.57589844 7.59007812 -23.15179687 7.18015625 -22.71484375 6.7578125 C-15.63628076 0.25486892 -9.35219753 -0.25622459 0 0 Z " fill="#000000" transform="translate(1474,492)"/>
<path d="M0 0 C3.96 0 7.92 0 12 0 C12 30.69 12 61.38 12 93 C8.04 93 4.08 93 0 93 C0 62.31 0 31.62 0 0 Z " fill="#000000" transform="translate(1155,468)"/>
<path d="M0 0 C0 3.63 0 7.26 0 11 C-1.670625 11.0825 -3.34125 11.165 -5.0625 11.25 C-10.52321578 11.77641862 -13.68783591 12.5678694 -18 16 C-21.06993146 20.65653212 -23.08757889 25.59482417 -23.20532227 31.19604492 C-23.22526749 32.03668991 -23.24521271 32.8773349 -23.26576233 33.74345398 C-23.29083107 35.09827629 -23.29083107 35.09827629 -23.31640625 36.48046875 C-23.33718735 37.40845779 -23.35796844 38.33644684 -23.37937927 39.29255676 C-23.44477323 42.2574624 -23.50371262 45.22245672 -23.5625 48.1875 C-23.60569487 50.1972748 -23.64930947 52.20704063 -23.69335938 54.21679688 C-23.80044427 59.14444032 -23.90174045 64.07217299 -24 69 C-27.96 69 -31.92 69 -36 69 C-36.33 46.89 -36.66 24.78 -37 2 C-33.04 2 -29.08 2 -25 2 C-24.67 4.31 -24.34 6.62 -24 9 C-23.49210938 8.51789063 -22.98421875 8.03578125 -22.4609375 7.5390625 C-15.04314287 0.73247193 -9.93411542 -0.26848961 0 0 Z " fill="#000000" transform="translate(599,492)"/>
</svg>
