<?xml version="1.0" encoding="utf-8"?>
<!-- Generator: Adobe Illustrator 24.0.0, SVG Export Plug-In . SVG Version: 6.00 Build 0)  -->
<svg version="1.1" id="Layer_1" xmlns="http://www.w3.org/2000/svg" xmlns:xlink="http://www.w3.org/1999/xlink" x="0px" y="0px"
	 viewBox="0 0 64 64" style="enable-background:new 0 0 64 64;" xml:space="preserve">
<style type="text/css">
	.st0{fill:#FFFFFF;}
</style>
<g>
	<path class="st0" d="M34.5,51.3l-4.4-10.4h-21L4.7,51.3H1.2l16.9-38.9h3.1L38,51.3H34.5z M10.4,37.9h18.4l-9.2-21.5L10.4,37.9z"/>
	<path class="st0" d="M62.8,23.9v27.4h-3.3V46c-0.8,1.8-2,3.2-3.6,4.2c-1.6,1-3.6,1.4-5.8,1.4c-2.4,0-4.6-0.6-6.4-1.7
		c-1.8-1.1-3.3-2.8-4.3-4.9c-1-2.1-1.5-4.6-1.5-7.5c0-2.8,0.5-5.3,1.5-7.5c1-2.2,2.4-3.8,4.3-5c1.8-1.2,4-1.8,6.4-1.8
		c2.2,0,4.1,0.5,5.8,1.4c1.6,0.9,2.9,2.3,3.7,4.2v-4.9H62.8z M57.2,45.7c1.6-2,2.3-4.7,2.3-8.3c0-3.6-0.8-6.4-2.3-8.4
		c-1.6-2-3.8-3-6.7-3c-2.9,0-5.1,1-6.7,3c-1.6,2-2.4,4.8-2.4,8.4c0,3.5,0.8,6.3,2.4,8.2c1.6,1.9,3.9,2.9,6.8,2.9
		C53.4,48.7,55.6,47.7,57.2,45.7z"/>
</g>
</svg>
