<?xml version="1.0" encoding="utf-8"?>
<!-- Generator: Adobe Illustrator 23.0.6, SVG Export Plug-In . SVG Version: 6.00 Build 0)  -->
<svg version="1.1" id="Layer_1" xmlns="http://www.w3.org/2000/svg" xmlns:xlink="http://www.w3.org/1999/xlink" x="0px" y="0px"
	 viewBox="0 0 64 64" style="enable-background:new 0 0 64 64;" xml:space="preserve">
<style type="text/css">
	.st0{fill:#FFFFFF;}
</style>
<g>
	<path class="st0" d="M58.4,6.2c0-1.9-1.6-3.4-3.4-3.4c0,0,0,0,0,0L7.9,0.6C6,0.6,4.4,2.2,4.4,4L0.8,59.9c0,1.9,1.6,3.5,3.5,3.5
		c0,0,0,0,0,0l55.5-2.1c1.9,0,3.4-1.6,3.4-3.5L58.4,6.2z M59.8,58.3L4.2,60.4c-0.3,0-0.5-0.2-0.5-0.4L7.4,4.1c0-0.3,0.2-0.5,0.4-0.5
		L55,5.8c0.3,0,0.5,0.2,0.5,0.5l4.8,51.6C60.2,58.1,60,58.3,59.8,58.3z"/>
	<path class="st0" d="M46.1,17.9l0.2,3.3c0.1,0.8,0.7,1.4,1.5,1.4c0,0,0.1,0,0.1,0c0.8-0.1,1.4-0.8,1.4-1.6l-0.5-6.6c0,0,0,0,0-0.1
		c0-0.1,0-0.1,0-0.2c0,0,0-0.1,0-0.1c0-0.1,0-0.1-0.1-0.2c0,0,0-0.1,0-0.1c0-0.1-0.1-0.1-0.1-0.2c0,0,0,0,0-0.1
		c-0.1-0.1-0.1-0.1-0.2-0.2c0,0,0,0,0,0c-0.1-0.1-0.1-0.1-0.2-0.2c0,0,0,0,0,0c-0.1,0-0.2-0.1-0.2-0.1c0,0,0,0,0,0
		c-0.1,0-0.1,0-0.2-0.1c0,0-0.1,0-0.1,0c0,0-0.1,0-0.1,0l-6.6-0.2c-0.8,0-1.5,0.6-1.5,1.5c0,0.8,0.6,1.5,1.5,1.5l3.2,0.1l-8.9,8.9
		c-0.6,0.6-0.6,1.5,0,2.1c0.3,0.3,0.7,0.4,1.1,0.4s0.8-0.1,1.1-0.4L46.1,17.9z"/>
	<path class="st0" d="M19.7,16.1l2.8,0.1c0,0,0,0,0,0c0.8,0,1.5-0.6,1.5-1.5c0-0.8-0.6-1.5-1.5-1.5L16,13c0,0,0,0,0,0c0,0,0,0,0,0
		l0,0c0,0,0,0-0.1,0c-0.6,0-1.1,0.4-1.3,0.9c0,0,0,0,0,0.1c0,0.1-0.1,0.1-0.1,0.2c0,0,0,0.1,0,0.1c0,0.1,0,0.1,0,0.2l-0.4,6.6
		c0,0.8,0.6,1.5,1.4,1.6c0,0,0.1,0,0.1,0c0.8,0,1.5-0.6,1.5-1.4l0.2-3.3l9,9c0.3,0.3,0.7,0.4,1.1,0.4s0.8-0.1,1.1-0.4
		c0.6-0.6,0.6-1.5,0-2.1L19.7,16.1z"/>
	<path class="st0" d="M25.3,35.4l-8.5,8.5l0.2-2.6c0-0.8-0.6-1.5-1.4-1.6c-0.8-0.1-1.5,0.6-1.6,1.4l-0.4,6.6c0,0,0,0,0,0
		c0,0,0,0,0,0c0,0,0,0.1,0,0.1c0,0.1,0,0.1,0,0.2c0,0,0,0.1,0,0.1c0,0,0,0.1,0,0.1c0,0,0,0.1,0.1,0.1c0,0,0,0.1,0.1,0.1
		c0,0,0.1,0.1,0.1,0.1c0,0,0.1,0.1,0.1,0.1c0,0,0.1,0.1,0.1,0.1c0,0,0.1,0.1,0.1,0.1c0,0,0.1,0.1,0.1,0.1c0,0,0.1,0,0.1,0.1
		c0,0,0.1,0,0.1,0.1c0,0,0.1,0,0.1,0c0.1,0,0.1,0,0.2,0c0,0,0.1,0,0.1,0c0,0,0.1,0,0.1,0c0,0,0,0,0,0h6.6c0.8,0,1.5-0.7,1.5-1.5
		s-0.7-1.5-1.5-1.5h-3.1l8.8-8.8c0.6-0.6,0.6-1.5,0-2.1S25.9,34.8,25.3,35.4z"/>
	<path class="st0" d="M50.7,49c0-0.1,0-0.1,0.1-0.2c0,0,0-0.1,0-0.1c0-0.1,0-0.1,0-0.2c0,0,0-0.1,0-0.1c0,0,0-0.1,0-0.1c0,0,0,0,0,0
		c0,0,0,0,0,0l-0.6-6.6c-0.1-0.8-0.8-1.4-1.6-1.4c-0.8,0.1-1.4,0.8-1.4,1.6l0.2,2.6L39,36c-0.6-0.6-1.5-0.6-2.1,0s-0.6,1.5,0,2.1
		l9,9l-3.3,0.2c-0.8,0.1-1.5,0.8-1.4,1.6c0.1,0.8,0.7,1.4,1.5,1.4c0,0,0.1,0,0.1,0l6.6-0.4c0,0,0,0,0,0c0,0,0,0,0,0c0,0,0.1,0,0.1,0
		c0.1,0,0.1,0,0.2,0c0,0,0.1,0,0.1,0c0,0,0.1,0,0.1-0.1c0,0,0.1,0,0.1-0.1c0,0,0.1-0.1,0.1-0.1c0,0,0.1-0.1,0.1-0.1
		c0,0,0.1-0.1,0.1-0.1c0,0,0-0.1,0.1-0.1c0,0,0.1-0.1,0.1-0.1C50.7,49.1,50.7,49,50.7,49z"/>
</g>
</svg>
