<svg version="1.1" id="Layer_1" xmlns="http://www.w3.org/2000/svg" xmlns:xlink="http://www.w3.org/1999/xlink" x="0px" y="0px"
	 viewBox="0 0 64 64" style="enable-background:new 0 0 64 64;" xml:space="preserve">
<style type="text/css">
	.st0{fill:url(#SVGID_1_);}
	.st1{fill:url(#SVGID_2_);}
</style>
<g>
	<linearGradient id="SVGID_1_" gradientUnits="userSpaceOnUse" x1="0.4749" y1="26.9745" x2="49.923" y2="26.9745">
		<stop  offset="7.689312e-07" style="stop-color:#E85C1B"/>
		<stop  offset="1" style="stop-color:#E54720"/>
	</linearGradient>
	<path class="st0" d="M49.9,24.9c0-11.3-11.1-20.5-24.7-20.5S0.5,13.6,0.5,24.9c0,6.2,3.5,12.2,9.3,16c-0.5,1.5-1.9,2.8-3,3.8
		c-1.1,1.1-1.9,1.9-1.8,3c0.1,0.6,0.4,1.1,0.9,1.4c0.5,0.3,1.1,0.4,2,0.4c3,0,8-1.8,10.9-4.8c2.1,0.5,4.2,0.7,6.4,0.7
		C38.8,45.4,49.9,36.2,49.9,24.9z M18.8,41.7c-0.1,0-0.3-0.1-0.4,0c-0.4,0-0.9,0.2-1.2,0.5c-2,2.5-5.6,3.9-7.9,4.3
		c1.5-1.4,3.3-3.4,3.7-6.1c0.1-0.6-0.2-1.1-0.7-1.4c-5.5-3.3-8.8-8.6-8.8-14.1c0-9.7,9.8-17.6,21.8-17.6S47,15.2,47,24.9
		c0,9.7-9.8,17.6-21.8,17.6C23,42.5,20.8,42.2,18.8,41.7z"/>
	<linearGradient id="SVGID_2_" gradientUnits="userSpaceOnUse" x1="23.1563" y1="39.2952" x2="63.5251" y2="39.2952">
		<stop  offset="7.689312e-07" style="stop-color:#E85C1B"/>
		<stop  offset="1" style="stop-color:#E54720"/>
	</linearGradient>
	<path class="st1" d="M54.9,50.7c5.3-3.1,8.6-9.1,8.7-15.6c0-6.8-3.5-12.8-9.6-15.9c-0.5-0.3-1.1-0.2-1.6,0.2
		c-0.5,0.4-0.6,1-0.5,1.5c1.7,6.1,0.5,11.9-3.3,16.8C43.5,44.1,34.3,48,24.7,47.7c-0.6,0-1.2,0.3-1.4,0.9s-0.1,1.2,0.4,1.6
		c0.3,0.3,8.2,7.4,20.7,4.6c3.6,3.3,7.9,4.8,10.9,4.8c1.1,0,2-0.2,2.6-0.5c0.4-0.2,0.7-0.7,0.8-1.1c0.1-0.9-0.4-1.5-1.1-2.3
		C56.5,54.4,55.1,52.8,54.9,50.7z M45.8,52.1c-0.3-0.3-0.7-0.4-1-0.4c-0.1,0-0.2,0-0.4,0c-6.6,1.7-11.9,0.3-15.1-1.3
		c8.8-0.9,16.8-4.9,21.6-11c3.7-4.6,5.2-10.1,4.5-15.8c3.3,2.8,5.3,6.9,5.2,11.5c0,5.7-3.1,11-7.9,13.4c-0.5,0.2-0.8,0.7-0.8,1.2
		c-0.1,3,1.4,5.4,2.7,6.9C52.4,56.4,48.8,55.2,45.8,52.1z"/>
</g>
</svg>
