<svg version="1.1" id="Layer_1" xmlns="http://www.w3.org/2000/svg" xmlns:xlink="http://www.w3.org/1999/xlink" x="0px" y="0px"
	 viewBox="0 0 64 64" style="enable-background:new 0 0 64 64;" xml:space="preserve">
<style type="text/css">
	.st0{fill:url(#SVGID_1_);}
	.st1{fill:url(#SVGID_2_);}
</style>
<g>
	<linearGradient id="SVGID_1_" gradientUnits="userSpaceOnUse" x1="2.4067" y1="30.665" x2="53.184" y2="30.665">
		<stop  offset="7.689312e-07" style="stop-color:#E85C1B"/>
		<stop  offset="1" style="stop-color:#E54720"/>
	</linearGradient>
	<path class="st0" d="M52.6,34.9c0,0,0.1-0.1,0.1-0.1c0.6-0.6,0.6-1.5,0-2.1L23.1,3c-0.6-0.6-1.5-0.6-2.1,0c-0.6,0.6-0.6,1.5,0,2.1
		l4.4,4.4L3.4,31.5c-0.6,0.6-1,1.5-1,2.4c0,0.9,0.4,1.8,1,2.4L25,57.8c0.7,0.7,1.5,1,2.4,1c0.9,0,1.7-0.3,2.4-1L52.6,34.9L52.6,34.9
		z M27.6,55.7c-0.1,0.1-0.4,0.1-0.5,0L5.5,34.1c-0.1-0.1-0.1-0.2-0.1-0.3s0-0.2,0.1-0.3l21.9-21.9l22.1,22.1L27.6,55.7z"/>
	<linearGradient id="SVGID_2_" gradientUnits="userSpaceOnUse" x1="49.0467" y1="50.3374" x2="61.5933" y2="50.3374">
		<stop  offset="7.689312e-07" style="stop-color:#E85C1B"/>
		<stop  offset="1" style="stop-color:#E54720"/>
	</linearGradient>
	<path class="st1" d="M56.6,41.3l-1.3-2.1L54,41.3c-0.7,1.2-7.1,12.2-4.2,17.4c0.7,1.2,2.2,2.7,5.5,2.7c3.3,0,4.9-1.5,5.6-2.7
		C63.8,53.5,57.3,42.6,56.6,41.3z M58.2,57.3c-0.2,0.3-0.7,1.2-2.9,1.2c-2.2,0-2.7-0.9-2.8-1.2c-1.3-2.3,0.7-7.9,2.9-12.1
		C57.4,49.3,59.5,54.9,58.2,57.3z"/>
</g>
</svg>
