<svg version="1.1" id="Layer_1" xmlns="http://www.w3.org/2000/svg" xmlns:xlink="http://www.w3.org/1999/xlink" x="0px" y="0px"
	 viewBox="0 0 64 64" style="enable-background:new 0 0 64 64;" xml:space="preserve">
<style type="text/css">
	.st0{fill:url(#SVGID_1_);}
	.st1{fill:url(#SVGID_2_);}
	.st2{fill:url(#SVGID_3_);}
	.st3{fill:url(#SVGID_4_);}
	.st4{fill:url(#SVGID_5_);}
	.st5{fill:url(#SVGID_6_);}
</style>
<g>
	<linearGradient id="SVGID_1_" gradientUnits="userSpaceOnUse" x1="0.3418" y1="54.0986" x2="50.9976" y2="54.0986">
		<stop  offset="7.689312e-07" style="stop-color:#E85C1B"/>
		<stop  offset="1" style="stop-color:#E54720"/>
	</linearGradient>
	<path class="st0" d="M44.6,47.7c-1.7,0-3.3,0.7-4.5,1.9c-0.9,0.9-1.4,1.9-1.7,3H1.8c-0.8,0-1.5,0.7-1.5,1.5s0.7,1.5,1.5,1.5h36.6
		c0.3,1.1,0.8,2.2,1.7,3c1.2,1.2,2.8,1.9,4.5,1.9s3.3-0.7,4.5-1.9c2.5-2.5,2.5-6.6,0-9.1C47.9,48.3,46.3,47.7,44.6,47.7z M47,56.5
		c-1.3,1.3-3.5,1.3-4.7,0c-0.7-0.7-1-1.6-1-2.4c0,0,0,0,0,0s0,0,0,0c0-0.9,0.3-1.8,1-2.4c0.6-0.6,1.5-1,2.4-1s1.7,0.4,2.4,1
		C48.3,53,48.3,55.2,47,56.5z"/>
	<linearGradient id="SVGID_2_" gradientUnits="userSpaceOnUse" x1="54.1387" y1="9.9014" x2="63.6582" y2="9.9014">
		<stop  offset="7.689312e-07" style="stop-color:#E85C1B"/>
		<stop  offset="1" style="stop-color:#E54720"/>
	</linearGradient>
	<path class="st1" d="M55.6,11.4h6.5c0.8,0,1.5-0.7,1.5-1.5S63,8.4,62.2,8.4h-6.5c-0.8,0-1.5,0.7-1.5,1.5S54.8,11.4,55.6,11.4z"/>
	<linearGradient id="SVGID_3_" gradientUnits="userSpaceOnUse" x1="0.3418" y1="9.9011" x2="52.4028" y2="9.9011">
		<stop  offset="7.689312e-07" style="stop-color:#E85C1B"/>
		<stop  offset="1" style="stop-color:#E54720"/>
	</linearGradient>
	<path class="st2" d="M1.8,11.4h38c0.3,1.1,0.8,2.2,1.7,3c1.2,1.2,2.8,1.9,4.5,1.9c1.7,0,3.3-0.7,4.5-1.9v0c2.5-2.5,2.5-6.6,0-9.1
		c-1.2-1.2-2.8-1.9-4.5-1.9c-1.7,0-3.3,0.7-4.5,1.9c-0.9,0.9-1.4,1.9-1.7,3h-38C1,8.4,0.3,9.1,0.3,9.9S1,11.4,1.8,11.4z M46,6.5
		c0.9,0,1.7,0.4,2.4,1c1.3,1.3,1.3,3.5,0,4.9c-1.3,1.3-3.5,1.3-4.7,0c-0.7-0.7-1-1.6-1-2.4c0,0,0,0,0,0s0,0,0,0c0-0.9,0.3-1.8,1-2.4
		C44.3,6.8,45.2,6.5,46,6.5z"/>
	<linearGradient id="SVGID_4_" gradientUnits="userSpaceOnUse" x1="27.5098" y1="32" x2="63.6582" y2="32">
		<stop  offset="7.689312e-07" style="stop-color:#E85C1B"/>
		<stop  offset="1" style="stop-color:#E54720"/>
	</linearGradient>
	<path class="st3" d="M62.2,30.5H29c-0.8,0-1.5,0.7-1.5,1.5s0.7,1.5,1.5,1.5h33.1c0.8,0,1.5-0.7,1.5-1.5S63,30.5,62.2,30.5z"/>
	<linearGradient id="SVGID_5_" gradientUnits="userSpaceOnUse" x1="0.3418" y1="32.0002" x2="25.4225" y2="32.0002">
		<stop  offset="7.689312e-07" style="stop-color:#E85C1B"/>
		<stop  offset="1" style="stop-color:#E54720"/>
	</linearGradient>
	<path class="st4" d="M1.8,33.5h11.1c0.3,1.1,0.8,2.2,1.7,3c1.2,1.2,2.8,1.9,4.5,1.9c1.7,0,3.3-0.7,4.5-1.9c2.5-2.5,2.5-6.6,0-9.1
		c-1.2-1.2-2.8-1.9-4.5-1.9c-1.7,0-3.3,0.7-4.5,1.9c-0.9,0.9-1.4,1.9-1.7,3H1.8c-0.8,0-1.5,0.7-1.5,1.5S1,33.5,1.8,33.5z M16.7,29.6
		c0.6-0.6,1.5-1,2.4-1c0.9,0,1.7,0.4,2.4,1c1.3,1.3,1.3,3.5,0,4.9c0,0,0,0,0,0c-1.3,1.3-3.5,1.3-4.7,0
		C15.4,33.1,15.4,30.9,16.7,29.6z"/>
	<linearGradient id="SVGID_6_" gradientUnits="userSpaceOnUse" x1="53.3906" y1="54.0986" x2="63.6582" y2="54.0986">
		<stop  offset="7.689312e-07" style="stop-color:#E85C1B"/>
		<stop  offset="1" style="stop-color:#E54720"/>
	</linearGradient>
	<path class="st5" d="M62.2,52.6h-7.3c-0.8,0-1.5,0.7-1.5,1.5s0.7,1.5,1.5,1.5h7.3c0.8,0,1.5-0.7,1.5-1.5S63,52.6,62.2,52.6z"/>
</g>
</svg>
