<svg version="1.1" id="Layer_1" xmlns="http://www.w3.org/2000/svg" xmlns:xlink="http://www.w3.org/1999/xlink" x="0px" y="0px"
	 viewBox="0 0 64 64" style="enable-background:new 0 0 64 64;" xml:space="preserve">
<style type="text/css">
	.st0{fill:url(#SVGID_1_);}
	.st1{fill:url(#SVGID_2_);}
	.st2{fill:url(#SVGID_3_);}
	.st3{fill:url(#SVGID_4_);}
</style>
<g>
	
		<linearGradient id="SVGID_1_" gradientUnits="userSpaceOnUse" x1="12.5698" y1="9.8" x2="18.9072" y2="9.8" gradientTransform="matrix(1 0 0 -1 0 66)">
		<stop  offset="7.689312e-07" style="stop-color:#E85C1B"/>
		<stop  offset="1" style="stop-color:#E54720"/>
	</linearGradient>
	<path class="st0" d="M15.7,59.4c1.7,0,3.2-1.4,3.2-3.2S17.5,53,15.7,53c-1.7,0-3.2,1.4-3.2,3.2S14,59.4,15.7,59.4z M15.7,55.1
		c0.6,0,1.2,0.5,1.2,1.2s-0.5,1.2-1.2,1.2c-0.6,0-1.2-0.5-1.2-1.2S15.1,55.1,15.7,55.1z"/>
	
		<linearGradient id="SVGID_2_" gradientUnits="userSpaceOnUse" x1="34.084" y1="13.2" x2="40.4229" y2="13.2" gradientTransform="matrix(1 0 0 -1 0 66)">
		<stop  offset="7.689312e-07" style="stop-color:#E85C1B"/>
		<stop  offset="1" style="stop-color:#E54720"/>
	</linearGradient>
	<path class="st1" d="M37.3,56c1.7,0,3.2-1.4,3.2-3.2c0-1.7-1.4-3.2-3.2-3.2c-1.7,0-3.2,1.4-3.2,3.2S35.5,56,37.3,56z M37.3,51.7
		c0.6,0,1.2,0.5,1.2,1.2c0,0.6-0.5,1.2-1.2,1.2c-0.6,0-1.2-0.5-1.2-1.2S36.6,51.7,37.3,51.7z"/>
	
		<linearGradient id="SVGID_3_" gradientUnits="userSpaceOnUse" x1="35.7678" y1="59.7" x2="38.7391" y2="59.7" gradientTransform="matrix(1 0 0 -1 0 66)">
		<stop  offset="7.689312e-07" style="stop-color:#E85C1B"/>
		<stop  offset="1" style="stop-color:#E54720"/>
	</linearGradient>
	<path class="st2" d="M37.3,7.8c0.8,0,1.5-0.7,1.5-1.5s-0.7-1.5-1.5-1.5s-1.5,0.7-1.5,1.5C35.8,7.2,36.4,7.8,37.3,7.8z"/>
	
		<linearGradient id="SVGID_4_" gradientUnits="userSpaceOnUse" x1="5" y1="33.95" x2="59.002" y2="33.95" gradientTransform="matrix(1 0 0 -1 0 66)">
		<stop  offset="7.689312e-07" style="stop-color:#E85C1B"/>
		<stop  offset="1" style="stop-color:#E54720"/>
	</linearGradient>
	<path class="st3" d="M55.9,0.5H18.6c-1.7,0-3.1,1.4-3.1,3.1v21.6H8.1c-1.7,0-3.1,1.4-3.1,3.1v32.3c0,1.7,1.4,3,3.1,3h15.4
		c1.7,0,3.1-1.4,3.1-3v-0.3h29.5c1.7,0,3.1-1.4,3.1-3.1V3.5C59,1.8,57.6,0.5,55.9,0.5z M23.5,60.5L23.5,60.5H8l0.1-32.3l15.4,0.1
		V60.5z M55.9,57.2H26.5v-29c0-1.7-1.4-3.1-3.1-3.1h-4.9l0.1-21.7L56,3.5L55.9,57.2z"/>
</g>
</svg>
