<svg version="1.1" id="Layer_1" xmlns="http://www.w3.org/2000/svg" xmlns:xlink="http://www.w3.org/1999/xlink" x="0px" y="0px"
	 viewBox="0 0 64 64" style="enable-background:new 0 0 64 64;" xml:space="preserve">
<style type="text/css">
	.st0{fill:url(#SVGID_1_);}
	.st1{fill:url(#SVGID_2_);}
	.st2{fill:url(#SVGID_3_);}
	.st3{fill:url(#SVGID_4_);}
	.st4{fill:url(#SVGID_5_);}
	.st5{fill:url(#SVGID_6_);}
	.st6{fill:url(#SVGID_7_);}
	.st7{fill:url(#SVGID_8_);}
	.st8{fill:url(#SVGID_9_);}
	.st9{fill:url(#SVGID_10_);}
	.st10{fill:url(#SVGID_11_);}
	.st11{fill:url(#SVGID_12_);}
	.st12{fill:url(#SVGID_13_);}
	.st13{fill:url(#SVGID_14_);}
	.st14{fill:url(#SVGID_15_);}
	.st15{fill:url(#SVGID_16_);}
	.st16{fill:url(#SVGID_17_);}
</style>
<g>
	
		<linearGradient id="SVGID_1_" gradientUnits="userSpaceOnUse" x1="15.5338" y1="33.9759" x2="48.4664" y2="33.9759" gradientTransform="matrix(1 0 0 -1 0 66)">
		<stop  offset="7.689312e-07" style="stop-color:#E85C1B"/>
		<stop  offset="1" style="stop-color:#E54720"/>
	</linearGradient>
	<path class="st0" d="M44.5,18.1l1.1,2.6c0.3,0.8,1.2,1.1,2,0.8c0.8-0.3,1.1-1.2,0.8-2L46.9,16c-0.2-0.6-0.8-0.9-1.4-0.9h-27
		c-0.6,0-1.1,0.4-1.4,0.9l-1.5,3.5c-0.3,0.8,0,1.6,0.8,2c0.2,0.1,0.4,0.1,0.6,0.1c0.6,0,1.1-0.3,1.4-0.9l1.1-2.6h11v27.2
		c-1.1,0.3-2,0.8-2.1,0.9c-0.7,0.4-1,1.3-0.5,2s1.3,1,2.1,0.5c0.4-0.2,1.4-0.7,2.1-0.7c0.8,0,1.8,0.5,2.1,0.7
		c0.2,0.2,0.5,0.2,0.8,0.2c0.5,0,1-0.2,1.3-0.7c0.4-0.7,0.2-1.6-0.5-2.1c-0.1-0.1-1-0.6-2.2-0.9V18.1H44.5z"/>
	
		<linearGradient id="SVGID_2_" gradientUnits="userSpaceOnUse" x1="56.5645" y1="6.15" x2="63.0645" y2="6.15" gradientTransform="matrix(1 0 0 -1 0 66)">
		<stop  offset="7.689312e-07" style="stop-color:#E85C1B"/>
		<stop  offset="1" style="stop-color:#E54720"/>
	</linearGradient>
	<polygon class="st1" points="60.1,60.1 56.6,60.1 56.6,63.1 63.1,63.1 63.1,56.6 60.1,56.6 	"/>
	
		<linearGradient id="SVGID_3_" gradientUnits="userSpaceOnUse" x1="41.8262" y1="4.4" x2="51.6514" y2="4.4" gradientTransform="matrix(1 0 0 -1 0 66)">
		<stop  offset="7.689312e-07" style="stop-color:#E85C1B"/>
		<stop  offset="1" style="stop-color:#E54720"/>
	</linearGradient>
	<rect x="41.8" y="60.1" class="st2" width="9.8" height="3"/>
	
		<linearGradient id="SVGID_4_" gradientUnits="userSpaceOnUse" x1="27.0874" y1="4.4" x2="36.9131" y2="4.4" gradientTransform="matrix(1 0 0 -1 0 66)">
		<stop  offset="7.689312e-07" style="stop-color:#E85C1B"/>
		<stop  offset="1" style="stop-color:#E54720"/>
	</linearGradient>
	<rect x="27.1" y="60.1" class="st3" width="9.8" height="3"/>
	
		<linearGradient id="SVGID_5_" gradientUnits="userSpaceOnUse" x1="12.3486" y1="4.4" x2="22.1743" y2="4.4" gradientTransform="matrix(1 0 0 -1 0 66)">
		<stop  offset="7.689312e-07" style="stop-color:#E85C1B"/>
		<stop  offset="1" style="stop-color:#E54720"/>
	</linearGradient>
	<rect x="12.3" y="60.1" class="st4" width="9.8" height="3"/>
	
		<linearGradient id="SVGID_6_" gradientUnits="userSpaceOnUse" x1="0.936" y1="6.15" x2="7.436" y2="6.15" gradientTransform="matrix(1 0 0 -1 0 66)">
		<stop  offset="7.689312e-07" style="stop-color:#E85C1B"/>
		<stop  offset="1" style="stop-color:#E54720"/>
	</linearGradient>
	<polygon class="st5" points="3.9,56.6 0.9,56.6 0.9,63.1 7.4,63.1 7.4,60.1 3.9,60.1 	"/>
	
		<linearGradient id="SVGID_7_" gradientUnits="userSpaceOnUse" x1="0.936" y1="48.8" x2="3.936" y2="48.8" gradientTransform="matrix(1 0 0 -1 0 66)">
		<stop  offset="7.689312e-07" style="stop-color:#E85C1B"/>
		<stop  offset="1" style="stop-color:#E54720"/>
	</linearGradient>
	<rect x="0.9" y="12.3" class="st6" width="3" height="9.8"/>
	
		<linearGradient id="SVGID_8_" gradientUnits="userSpaceOnUse" x1="0.936" y1="19.3" x2="3.936" y2="19.3" gradientTransform="matrix(1 0 0 -1 0 66)">
		<stop  offset="7.689312e-07" style="stop-color:#E85C1B"/>
		<stop  offset="1" style="stop-color:#E54720"/>
	</linearGradient>
	<rect x="0.9" y="41.8" class="st7" width="3" height="9.8"/>
	
		<linearGradient id="SVGID_9_" gradientUnits="userSpaceOnUse" x1="0.936" y1="34" x2="3.936" y2="34" gradientTransform="matrix(1 0 0 -1 0 66)">
		<stop  offset="7.689312e-07" style="stop-color:#E85C1B"/>
		<stop  offset="1" style="stop-color:#E54720"/>
	</linearGradient>
	<rect x="0.9" y="27.1" class="st8" width="3" height="9.8"/>
	
		<linearGradient id="SVGID_10_" gradientUnits="userSpaceOnUse" x1="0.936" y1="61.85" x2="7.436" y2="61.85" gradientTransform="matrix(1 0 0 -1 0 66)">
		<stop  offset="7.689312e-07" style="stop-color:#E85C1B"/>
		<stop  offset="1" style="stop-color:#E54720"/>
	</linearGradient>
	<polygon class="st9" points="0.9,7.4 3.9,7.4 3.9,3.9 7.4,3.9 7.4,0.9 0.9,0.9 	"/>
	
		<linearGradient id="SVGID_11_" gradientUnits="userSpaceOnUse" x1="12.3486" y1="63.6" x2="22.1743" y2="63.6" gradientTransform="matrix(1 0 0 -1 0 66)">
		<stop  offset="7.689312e-07" style="stop-color:#E85C1B"/>
		<stop  offset="1" style="stop-color:#E54720"/>
	</linearGradient>
	<rect x="12.3" y="0.9" class="st10" width="9.8" height="3"/>
	
		<linearGradient id="SVGID_12_" gradientUnits="userSpaceOnUse" x1="41.8252" y1="63.6" x2="51.6514" y2="63.6" gradientTransform="matrix(1 0 0 -1 0 66)">
		<stop  offset="7.689312e-07" style="stop-color:#E85C1B"/>
		<stop  offset="1" style="stop-color:#E54720"/>
	</linearGradient>
	<rect x="41.8" y="0.9" class="st11" width="9.8" height="3"/>
	
		<linearGradient id="SVGID_13_" gradientUnits="userSpaceOnUse" x1="27.0869" y1="63.6" x2="36.9131" y2="63.6" gradientTransform="matrix(1 0 0 -1 0 66)">
		<stop  offset="7.689312e-07" style="stop-color:#E85C1B"/>
		<stop  offset="1" style="stop-color:#E54720"/>
	</linearGradient>
	<rect x="27.1" y="0.9" class="st12" width="9.8" height="3"/>
	
		<linearGradient id="SVGID_14_" gradientUnits="userSpaceOnUse" x1="56.5645" y1="61.85" x2="63.0645" y2="61.85" gradientTransform="matrix(1 0 0 -1 0 66)">
		<stop  offset="7.689312e-07" style="stop-color:#E85C1B"/>
		<stop  offset="1" style="stop-color:#E54720"/>
	</linearGradient>
	<polygon class="st13" points="56.6,0.9 56.6,3.9 60.1,3.9 60.1,7.4 63.1,7.4 63.1,0.9 	"/>
	
		<linearGradient id="SVGID_15_" gradientUnits="userSpaceOnUse" x1="60.0645" y1="19.3" x2="63.0645" y2="19.3" gradientTransform="matrix(1 0 0 -1 0 66)">
		<stop  offset="7.689312e-07" style="stop-color:#E85C1B"/>
		<stop  offset="1" style="stop-color:#E54720"/>
	</linearGradient>
	<rect x="60.1" y="41.8" class="st14" width="3" height="9.8"/>
	
		<linearGradient id="SVGID_16_" gradientUnits="userSpaceOnUse" x1="60.0645" y1="48.8" x2="63.0645" y2="48.8" gradientTransform="matrix(1 0 0 -1 0 66)">
		<stop  offset="7.689312e-07" style="stop-color:#E85C1B"/>
		<stop  offset="1" style="stop-color:#E54720"/>
	</linearGradient>
	<rect x="60.1" y="12.3" class="st15" width="3" height="9.8"/>
	
		<linearGradient id="SVGID_17_" gradientUnits="userSpaceOnUse" x1="60.0645" y1="34" x2="63.0645" y2="34" gradientTransform="matrix(1 0 0 -1 0 66)">
		<stop  offset="7.689312e-07" style="stop-color:#E85C1B"/>
		<stop  offset="1" style="stop-color:#E54720"/>
	</linearGradient>
	<rect x="60.1" y="27.1" class="st16" width="3" height="9.8"/>
</g>
</svg>
