
<svg version="1.1" id="Layer_1" xmlns="http://www.w3.org/2000/svg" xmlns:xlink="http://www.w3.org/1999/xlink" x="0px" y="0px"
	 viewBox="0 0 64 64" style="enable-background:new 0 0 64 64;" xml:space="preserve">
<style type="text/css">
	.st0{fill:url(#SVGID_1_);}
	.st1{fill:url(#SVGID_2_);}
	.st2{fill:url(#SVGID_3_);}
</style>
<g>
	<linearGradient id="SVGID_1_" gradientUnits="userSpaceOnUse" x1="0.7654" y1="32" x2="63.2346" y2="32">
		<stop  offset="7.689312e-07" style="stop-color:#E85C1B"/>
		<stop  offset="1" style="stop-color:#E54720"/>
	</linearGradient>
	<path class="st0" d="M58.2,4.9H5.8c-2.8,0-5,2.2-5,5v44.3c0,2.8,2.2,5,5,5h52.5c2.8,0,5-2.2,5-5V9.9C63.2,7.1,61,4.9,58.2,4.9z
		 M60.2,54.1c0,1.1-0.9,2-2,2H5.8c-1.1,0-2-0.9-2-2V9.9c0-1.1,0.9-2,2-2h52.5c1.1,0,2,0.9,2,2V54.1z"/>
	<linearGradient id="SVGID_2_" gradientUnits="userSpaceOnUse" x1="22.5264" y1="20.4072" x2="41.4736" y2="20.4072">
		<stop  offset="7.689312e-07" style="stop-color:#E85C1B"/>
		<stop  offset="1" style="stop-color:#E54720"/>
	</linearGradient>
	<path class="st1" d="M24,21.9H40c0.8,0,1.5-0.7,1.5-1.5s-0.7-1.5-1.5-1.5H24c-0.8,0-1.5,0.7-1.5,1.5S23.2,21.9,24,21.9z"/>
	<linearGradient id="SVGID_3_" gradientUnits="userSpaceOnUse" x1="18.2773" y1="35.1472" x2="45.7227" y2="35.1472">
		<stop  offset="7.689312e-07" style="stop-color:#E85C1B"/>
		<stop  offset="1" style="stop-color:#E54720"/>
	</linearGradient>
	<path class="st2" d="M42.2,25.2H21.8c-1.9,0-3.5,1.6-3.5,3.5v12.9c0,1.9,1.6,3.5,3.5,3.5h20.4c1.9,0,3.5-1.6,3.5-3.5V28.7
		C45.7,26.8,44.2,25.2,42.2,25.2z M42.7,41.6c0,0.3-0.2,0.5-0.5,0.5H21.8c-0.3,0-0.5-0.2-0.5-0.5V28.7c0-0.3,0.2-0.5,0.5-0.5h20.4
		c0.3,0,0.5,0.2,0.5,0.5V41.6z"/>
</g>
</svg>
