
<svg version="1.1" id="Layer_1" xmlns="http://www.w3.org/2000/svg" xmlns:xlink="http://www.w3.org/1999/xlink" x="0px" y="0px"
	 viewBox="0 0 64 64" style="enable-background:new 0 0 64 64;" xml:space="preserve">
<style type="text/css">
	.st0{fill:url(#SVGID_1_);}
	.st1{fill:url(#SVGID_2_);}
	.st2{fill:url(#SVGID_3_);}
</style>
<g>
	<linearGradient id="SVGID_1_" gradientUnits="userSpaceOnUse" x1="0.2069" y1="25.4793" x2="63.7931" y2="25.4793">
		<stop  offset="7.689312e-07" style="stop-color:#E85C1B"/>
		<stop  offset="1" style="stop-color:#E54720"/>
	</linearGradient>
	<path class="st0" d="M1.7,27.2l28.6,14.9c0.7,0.3,1.2,0.4,1.8,0.4c0.6,0,1.2-0.2,1.9-0.5l28.6-14.9c0.8-0.5,1.3-1.5,1.3-2.6
		c0-1-0.6-1.9-1.4-2.4c0,0,0,0,0,0L33.8,8.8c-1.1-0.5-2.6-0.5-3.6,0L1.8,22.2c-0.9,0.4-1.5,1.3-1.6,2.4C0.2,25.7,0.8,26.7,1.7,27.2z
		 M31.5,11.5c0.2-0.1,0.8-0.1,1.1,0l28.1,13.2L32.6,39.4c-0.5,0.2-0.5,0.2-1,0L3.4,24.7L31.5,11.5z"/>
	<linearGradient id="SVGID_2_" gradientUnits="userSpaceOnUse" x1="0.2073" y1="39.9062" x2="63.7934" y2="39.9062">
		<stop  offset="7.689312e-07" style="stop-color:#E85C1B"/>
		<stop  offset="1" style="stop-color:#E54720"/>
	</linearGradient>
	<path class="st1" d="M61.6,30.7L32,46.1L2.4,30.7c-0.7-0.4-1.6-0.1-2,0.6C0,32,0.3,32.9,1,33.3l30.3,15.8c0.1,0,0.1,0.1,0.2,0.1
		c0,0,0.1,0,0.1,0c0.1,0,0.3,0.1,0.4,0.1c0,0,0,0,0,0s0,0,0,0c0.1,0,0.3,0,0.4-0.1c0,0,0.1,0,0.1,0c0.1,0,0.1,0,0.2-0.1L63,33.3
		c0.7-0.4,1-1.3,0.6-2C63.2,30.6,62.3,30.3,61.6,30.7z"/>
	<linearGradient id="SVGID_3_" gradientUnits="userSpaceOnUse" x1="0.2073" y1="46.1843" x2="63.7934" y2="46.1843">
		<stop  offset="7.689312e-07" style="stop-color:#E85C1B"/>
		<stop  offset="1" style="stop-color:#E54720"/>
	</linearGradient>
	<path class="st2" d="M61.6,36.9L32,52.4L2.4,36.9c-0.7-0.4-1.6-0.1-2,0.6s-0.1,1.6,0.6,2l30.3,15.8c0.1,0,0.1,0.1,0.2,0.1
		c0,0,0.1,0,0.1,0c0.1,0,0.3,0.1,0.4,0.1c0,0,0,0,0,0s0,0,0,0c0.1,0,0.3,0,0.4-0.1c0,0,0.1,0,0.1,0c0.1,0,0.1,0,0.2-0.1L63,39.6
		c0.7-0.4,1-1.3,0.6-2C63.2,36.8,62.3,36.6,61.6,36.9z"/>
</g>
</svg>
