
<svg version="1.1" id="Layer_1" xmlns="http://www.w3.org/2000/svg" xmlns:xlink="http://www.w3.org/1999/xlink" x="0px" y="0px"
	 viewBox="0 0 64 64" style="enable-background:new 0 0 64 64;" xml:space="preserve">
<style type="text/css">
	.st0{fill:url(#SVGID_1_);}
	.st1{fill:url(#SVGID_2_);}
</style>
<g>
	
		<linearGradient id="SVGID_1_" gradientUnits="userSpaceOnUse" x1="22.6455" y1="33.967" x2="62.6804" y2="33.967" gradientTransform="matrix(1 0 0 -1 0 66)">
		<stop  offset="7.689312e-07" style="stop-color:#E85C1B"/>
		<stop  offset="1" style="stop-color:#E54720"/>
	</linearGradient>
	<path class="st0" d="M62.4,31.1L54.7,20c-0.5-0.7-1.4-0.8-2.1-0.4c-0.7,0.5-0.8,1.4-0.4,2.1l6.1,8.8H24.1c-0.8,0-1.5,0.7-1.5,1.5
		s0.7,1.5,1.5,1.5h34.2l-6.1,8.8c-0.5,0.7-0.3,1.6,0.4,2.1c0.3,0.2,0.6,0.3,0.9,0.3c0.5,0,0.9-0.2,1.2-0.6L62.4,33
		C62.8,32.3,62.8,31.7,62.4,31.1z"/>
	
		<linearGradient id="SVGID_2_" gradientUnits="userSpaceOnUse" x1="1.3" y1="34" x2="46.9524" y2="34" gradientTransform="matrix(1 0 0 -1 0 66)">
		<stop  offset="7.689312e-07" style="stop-color:#E85C1B"/>
		<stop  offset="1" style="stop-color:#E54720"/>
	</linearGradient>
	<path class="st1" d="M45.5,39.5c-0.8,0-1.5,0.7-1.5,1.5v17.7H4.3V5.3H44v15.8c0,0.8,0.7,1.5,1.5,1.5s1.5-0.7,1.5-1.5V3.8
		c0-0.8-0.7-1.5-1.5-1.5H2.8C2,2.3,1.3,3,1.3,3.8v56.4c0,0.8,0.7,1.5,1.5,1.5h42.7c0.8,0,1.5-0.7,1.5-1.5V41
		C47,40.2,46.3,39.5,45.5,39.5z"/>
</g>
</svg>
