
<svg version="1.1" id="Layer_1" xmlns="http://www.w3.org/2000/svg" xmlns:xlink="http://www.w3.org/1999/xlink" x="0px" y="0px"
	 viewBox="0 0 64 64" style="enable-background:new 0 0 64 64;" xml:space="preserve">
<style type="text/css">
	.st0{fill:url(#SVGID_1_);}
	.st1{fill:url(#SVGID_2_);}
	.st2{fill:url(#SVGID_3_);}
	.st3{fill:url(#SVGID_4_);}
</style>
<g>
	<linearGradient id="SVGID_1_" gradientUnits="userSpaceOnUse" x1="0.8743" y1="32" x2="63.1257" y2="32">
		<stop  offset="7.689312e-07" style="stop-color:#E85C1B"/>
		<stop  offset="1" style="stop-color:#E54720"/>
	</linearGradient>
	<path class="st0" d="M32,0.9C14.8,0.9,0.9,14.8,0.9,32s14,31.1,31.1,31.1c17.2,0,31.1-14,31.1-31.1S49.2,0.9,32,0.9z M32,60.1
		C16.5,60.1,3.9,47.5,3.9,32S16.5,3.9,32,3.9c15.5,0,28.1,12.6,28.1,28.1S47.5,60.1,32,60.1z"/>
	<linearGradient id="SVGID_2_" gradientUnits="userSpaceOnUse" x1="15.6272" y1="19.5356" x2="48.3728" y2="19.5356">
		<stop  offset="7.689312e-07" style="stop-color:#E85C1B"/>
		<stop  offset="1" style="stop-color:#E54720"/>
	</linearGradient>
	<path class="st1" d="M46.9,18H17.1c-0.8,0-1.5,0.7-1.5,1.5s0.7,1.5,1.5,1.5h29.7c0.8,0,1.5-0.7,1.5-1.5S47.7,18,46.9,18z"/>
	<linearGradient id="SVGID_3_" gradientUnits="userSpaceOnUse" x1="15.6272" y1="31.9399" x2="48.3728" y2="31.9399">
		<stop  offset="7.689312e-07" style="stop-color:#E85C1B"/>
		<stop  offset="1" style="stop-color:#E54720"/>
	</linearGradient>
	<path class="st2" d="M46.9,30.4H17.1c-0.8,0-1.5,0.7-1.5,1.5c0,0.8,0.7,1.5,1.5,1.5h29.7c0.8,0,1.5-0.7,1.5-1.5
		C48.4,31.1,47.7,30.4,46.9,30.4z"/>
	<linearGradient id="SVGID_4_" gradientUnits="userSpaceOnUse" x1="15.6272" y1="44.4644" x2="48.3728" y2="44.4644">
		<stop  offset="7.689312e-07" style="stop-color:#E85C1B"/>
		<stop  offset="1" style="stop-color:#E54720"/>
	</linearGradient>
	<path class="st3" d="M46.9,43H17.1c-0.8,0-1.5,0.7-1.5,1.5s0.7,1.5,1.5,1.5h29.7c0.8,0,1.5-0.7,1.5-1.5S47.7,43,46.9,43z"/>
</g>
</svg>
