
<svg version="1.1" id="Layer_1" xmlns="http://www.w3.org/2000/svg" xmlns:xlink="http://www.w3.org/1999/xlink" x="0px" y="0px"
	 viewBox="0 0 64 64" style="enable-background:new 0 0 64 64;" xml:space="preserve">
<style type="text/css">
	.st0{fill:url(#SVGID_1_);}
	.st1{fill:url(#SVGID_2_);}
	.st2{fill:url(#SVGID_3_);}
</style>
<g>
	<linearGradient id="SVGID_1_" gradientUnits="userSpaceOnUse" x1="0.2939" y1="32" x2="63.7061" y2="32">
		<stop  offset="7.689312e-07" style="stop-color:#E85C1B"/>
		<stop  offset="1" style="stop-color:#E54720"/>
	</linearGradient>
	<path class="st0" d="M60.2,7.7H3.8c-1.9,0-3.5,1.6-3.5,3.5v41.6c0,1.9,1.6,3.5,3.5,3.5h56.4c1.9,0,3.5-1.6,3.5-3.5V11.2
		C63.7,9.3,62.1,7.7,60.2,7.7z M3.3,52.8V11.2c0-0.3,0.2-0.5,0.5-0.5h26.7v42.6H3.8C3.5,53.3,3.3,53.1,3.3,52.8z M60.7,52.8
		c0,0.3-0.2,0.5-0.5,0.5H33.5V10.7h26.7c0.3,0,0.5,0.2,0.5,0.5V52.8z"/>
	<linearGradient id="SVGID_2_" gradientUnits="userSpaceOnUse" x1="40.4473" y1="32.0552" x2="54.251" y2="32.0552">
		<stop  offset="7.689312e-07" style="stop-color:#E85C1B"/>
		<stop  offset="1" style="stop-color:#E54720"/>
	</linearGradient>
	<path class="st1" d="M53.8,31C53.8,31,53.8,31,53.8,31L43,20.2c-0.6-0.6-1.5-0.6-2.1,0c-0.6,0.6-0.6,1.5,0,2.1l9.7,9.7l-9.7,9.7
		c-0.6,0.6-0.6,1.5,0,2.1c0.3,0.3,0.7,0.4,1.1,0.4s0.8-0.1,1.1-0.4l10.7-10.7c0,0,0,0,0.1,0c0.3-0.3,0.4-0.7,0.4-1.1
		C54.3,31.7,54.1,31.3,53.8,31z"/>
	<linearGradient id="SVGID_3_" gradientUnits="userSpaceOnUse" x1="10.1948" y1="32.0552" x2="23.998" y2="32.0552">
		<stop  offset="7.689312e-07" style="stop-color:#E85C1B"/>
		<stop  offset="1" style="stop-color:#E54720"/>
	</linearGradient>
	<path class="st2" d="M13.8,32.1l9.7-9.7c0.6-0.6,0.6-1.5,0-2.1c-0.6-0.6-1.5-0.6-2.1,0L10.7,30.9c0,0,0,0-0.1,0
		c-0.3,0.3-0.4,0.7-0.4,1.1c0,0.4,0.1,0.8,0.4,1.1c0,0,0,0,0.1,0l10.7,10.7c0.3,0.3,0.7,0.4,1.1,0.4s0.8-0.1,1.1-0.4
		c0.6-0.6,0.6-1.5,0-2.1L13.8,32.1z"/>
</g>
</svg>
