
<svg version="1.1" id="Layer_1" xmlns="http://www.w3.org/2000/svg" xmlns:xlink="http://www.w3.org/1999/xlink" x="0px" y="0px"
	 viewBox="0 0 64 64" style="enable-background:new 0 0 64 64;" xml:space="preserve">
<style type="text/css">
	.st0{fill:url(#SVGID_1_);}
	.st1{fill:url(#SVGID_2_);}
</style>
<g>
	<linearGradient id="SVGID_1_" gradientUnits="userSpaceOnUse" x1="3.127" y1="28.5557" x2="48.5898" y2="28.5557">
		<stop  offset="7.689312e-07" style="stop-color:#E85C1B"/>
		<stop  offset="1" style="stop-color:#E54720"/>
	</linearGradient>
	<path class="st0" d="M11.6,53.1H7.4c-0.7,0-1.3-0.6-1.3-1.3V5.2C6.1,4.5,6.7,4,7.4,4h36.9c0.7,0,1.3,0.6,1.3,1.3
		c0,0.8,0.7,1.5,1.5,1.5s1.5-0.7,1.5-1.5c0-2.4-1.9-4.3-4.3-4.3H7.4C5,1,3.1,2.9,3.1,5.2v46.6c0,2.4,1.9,4.3,4.3,4.3h4.1
		c0.8,0,1.5-0.7,1.5-1.5S12.4,53.1,11.6,53.1z"/>
	<linearGradient id="SVGID_2_" gradientUnits="userSpaceOnUse" x1="15.4102" y1="35.4451" x2="60.873" y2="35.4451">
		<stop  offset="7.689312e-07" style="stop-color:#E85C1B"/>
		<stop  offset="1" style="stop-color:#E54720"/>
	</linearGradient>
	<path class="st1" d="M60.9,21.6c0-0.2,0-0.4-0.1-0.5c0,0,0,0,0,0c-0.1-0.2-0.2-0.4-0.3-0.5c0,0,0,0,0,0L48.2,8.3c0,0,0,0,0,0l0,0
		c0,0,0,0,0,0C48,8.2,47.8,8.1,47.7,8c0,0,0,0,0,0c-0.2-0.1-0.4-0.1-0.5-0.1c0,0,0,0,0,0c0,0,0,0,0,0c0,0,0,0,0,0l-27.4,0
		c-2.4,0-4.3,1.9-4.3,4.3v46.6c0,2.4,1.9,4.3,4.3,4.3h36.9c2.4,0,4.3-1.9,4.3-4.3L60.9,21.6C60.9,21.6,60.9,21.6,60.9,21.6
		C60.9,21.6,60.9,21.6,60.9,21.6z M48.6,13l7.1,7.1h-7.1V13z M56.6,60H19.7c-0.7,0-1.3-0.6-1.3-1.3V12.1c0-0.7,0.6-1.3,1.3-1.3
		l25.9,0v9.5c0,1.5,1.2,2.7,2.7,2.7h9.6v35.7C57.9,59.5,57.3,60,56.6,60z"/>
</g>
</svg>
