<svg version="1.1" id="Layer_1" xmlns="http://www.w3.org/2000/svg" xmlns:xlink="http://www.w3.org/1999/xlink" x="0px" y="0px"
	 viewBox="0 0 64 64" style="enable-background:new 0 0 64 64;" xml:space="preserve">
<style type="text/css">
	.st0{fill:url(#SVGID_1_);}
	.st1{fill:url(#SVGID_2_);}
	.st2{fill:url(#SVGID_3_);}
	.st3{fill:url(#SVGID_4_);}
</style>
<g>
	<linearGradient id="SVGID_1_" gradientUnits="userSpaceOnUse" x1="0.3496" y1="32" x2="63.6504" y2="32">
		<stop  offset="7.689312e-07" style="stop-color:#E85C1B"/>
		<stop  offset="1" style="stop-color:#E54720"/>
	</linearGradient>
	<path class="st0" d="M60.2,7.7H3.8c-1.9,0-3.5,1.6-3.5,3.5v41.6c0,1.9,1.6,3.5,3.5,3.5h56.3c1.9,0,3.5-1.6,3.5-3.5V11.2
		C63.7,9.3,62.1,7.7,60.2,7.7z M3.3,52.8V11.2c0-0.3,0.2-0.5,0.5-0.5h40.4v42.6H3.8C3.6,53.3,3.3,53.1,3.3,52.8z M60.7,52.8
		c0,0.3-0.2,0.5-0.5,0.5H47.2V10.7h12.9c0.3,0,0.5,0.2,0.5,0.5V52.8z"/>
	<linearGradient id="SVGID_2_" gradientUnits="userSpaceOnUse" x1="49.1592" y1="16.7026" x2="59.0098" y2="16.7026">
		<stop  offset="7.689312e-07" style="stop-color:#E85C1B"/>
		<stop  offset="1" style="stop-color:#E54720"/>
	</linearGradient>
	<path class="st1" d="M57.5,15.2h-6.9c-0.8,0-1.5,0.7-1.5,1.5s0.7,1.5,1.5,1.5h6.9c0.8,0,1.5-0.7,1.5-1.5S58.3,15.2,57.5,15.2z"/>
	<linearGradient id="SVGID_3_" gradientUnits="userSpaceOnUse" x1="49.1592" y1="23.376" x2="59.0098" y2="23.376">
		<stop  offset="7.689312e-07" style="stop-color:#E85C1B"/>
		<stop  offset="1" style="stop-color:#E54720"/>
	</linearGradient>
	<path class="st2" d="M57.5,21.9h-6.9c-0.8,0-1.5,0.7-1.5,1.5s0.7,1.5,1.5,1.5h6.9c0.8,0,1.5-0.7,1.5-1.5S58.3,21.9,57.5,21.9z"/>
	<linearGradient id="SVGID_4_" gradientUnits="userSpaceOnUse" x1="49.1592" y1="30.2271" x2="59.0098" y2="30.2271">
		<stop  offset="7.689312e-07" style="stop-color:#E85C1B"/>
		<stop  offset="1" style="stop-color:#E54720"/>
	</linearGradient>
	<path class="st3" d="M57.5,28.7h-6.9c-0.8,0-1.5,0.7-1.5,1.5s0.7,1.5,1.5,1.5h6.9c0.8,0,1.5-0.7,1.5-1.5S58.3,28.7,57.5,28.7z"/>
</g>
</svg>
