<svg version="1.1" id="Layer_1" xmlns="http://www.w3.org/2000/svg" xmlns:xlink="http://www.w3.org/1999/xlink" x="0px" y="0px"
	 viewBox="0 0 64 64" style="enable-background:new 0 0 64 64;" xml:space="preserve">
<style type="text/css">
	.st0{fill:url(#SVGID_1_);}
	.st1{fill:url(#SVGID_2_);}
</style>
<g>
	<linearGradient id="SVGID_1_" gradientUnits="userSpaceOnUse" x1="0.6421" y1="32" x2="63.3574" y2="32">
		<stop  offset="7.689312e-07" style="stop-color:#E85C1B"/>
		<stop  offset="1" style="stop-color:#E54720"/>
	</linearGradient>
	<path class="st0" d="M60.9,5.1H3.1c-1.4,0-2.5,1.1-2.5,2.5v48.8c0,1.4,1.1,2.5,2.5,2.5h57.7c1.4,0,2.5-1.1,2.5-2.5V7.6
		C63.4,6.2,62.2,5.1,60.9,5.1z M60.4,8.1v3.6H3.6V8.1H60.4z M3.6,55.9V14.7h56.7v41.2H3.6z"/>
	<linearGradient id="SVGID_2_" gradientUnits="userSpaceOnUse" x1="17.7163" y1="35.2063" x2="46.2833" y2="35.2063">
		<stop  offset="7.689312e-07" style="stop-color:#E85C1B"/>
		<stop  offset="1" style="stop-color:#E54720"/>
	</linearGradient>
	<path class="st1" d="M36.1,37.9c-0.5-0.5-1.4-0.6-2-0.1c-1.5,1.2-3.3,1.9-5.2,1.9c-4.5,0-8.2-3.7-8.2-8.2c0-4.5,3.7-8.2,8.2-8.2
		s8.2,3.7,8.2,8.2c0,1.1-0.2,2.3-0.7,3.3c-0.3,0.8,0,1.6,0.8,2c0.8,0.3,1.6,0,2-0.8c0.6-1.4,0.9-2.9,0.9-4.5c0-6.2-5-11.2-11.2-11.2
		c-6.2,0-11.2,5-11.2,11.2c0,6.2,5,11.2,11.2,11.2c2.1,0,4.2-0.6,6-1.8l8.8,8.9c0.3,0.3,0.7,0.4,1.1,0.4c0.4,0,0.8-0.1,1.1-0.4
		c0.6-0.6,0.6-1.5,0-2.1L36.1,37.9z"/>
</g>
</svg>
