<svg version="1.1" id="Layer_1" xmlns="http://www.w3.org/2000/svg" xmlns:xlink="http://www.w3.org/1999/xlink" x="0px" y="0px"
	 viewBox="0 0 64 64" style="enable-background:new 0 0 64 64;" xml:space="preserve">
<style type="text/css">
	.st0{fill:url(#SVGID_1_);}
	.st1{fill:url(#SVGID_2_);}
	.st2{fill:url(#SVGID_3_);}
</style>
<g>
	<linearGradient id="SVGID_1_" gradientUnits="userSpaceOnUse" x1="1.0713" y1="32.0002" x2="62.9287" y2="32.0002">
		<stop  offset="7.689312e-07" style="stop-color:#E85C1B"/>
		<stop  offset="1" style="stop-color:#E54720"/>
	</linearGradient>
	<path class="st0" d="M59.4,0.8H4.6c-1.9,0-3.5,1.6-3.5,3.5v55.4c0,1.9,1.6,3.5,3.5,3.5h54.9c1.9,0,3.5-1.6,3.5-3.5V4.3
		C62.9,2.4,61.4,0.8,59.4,0.8z M59.9,59.7c0,0.3-0.2,0.5-0.5,0.5H4.6c-0.3,0-0.5-0.2-0.5-0.5V4.3c0-0.3,0.2-0.5,0.5-0.5h54.9
		c0.3,0,0.5,0.2,0.5,0.5V59.7z"/>
	<linearGradient id="SVGID_2_" gradientUnits="userSpaceOnUse" x1="34.9383" y1="19.9114" x2="53.7658" y2="19.9114">
		<stop  offset="7.689312e-07" style="stop-color:#E85C1B"/>
		<stop  offset="1" style="stop-color:#E54720"/>
	</linearGradient>
	<path class="st1" d="M52.1,10.1L43.5,11c-0.8,0.1-1.4,0.8-1.3,1.6c0.1,0.8,0.8,1.4,1.6,1.3l4.6-0.5l-13,13.7
		c-0.6,0.6-0.5,1.6,0.1,2.1c0.3,0.3,0.7,0.4,1,0.4c0.4,0,0.8-0.2,1.1-0.5l12.9-13.5l-0.4,4.8c-0.1,0.8,0.5,1.6,1.4,1.6
		c0,0,0.1,0,0.1,0c0.8,0,1.4-0.6,1.5-1.4l0.8-9.1c0-0.4-0.1-0.9-0.4-1.2C53,10.2,52.6,10,52.1,10.1z"/>
	<linearGradient id="SVGID_3_" gradientUnits="userSpaceOnUse" x1="11.9859" y1="44.0878" x2="30.8121" y2="44.0878">
		<stop  offset="7.689312e-07" style="stop-color:#E85C1B"/>
		<stop  offset="1" style="stop-color:#E54720"/>
	</linearGradient>
	<path class="st2" d="M28.2,34.7L15.4,48.3l0.4-4.8c0.1-0.8-0.5-1.6-1.4-1.6c-0.8-0.1-1.6,0.5-1.6,1.4L12,52.3
		c0,0.4,0.1,0.9,0.4,1.2c0.3,0.3,0.7,0.4,1.1,0.4c0.1,0,0.1,0,0.2,0l8.6-0.9c0.8-0.1,1.4-0.8,1.3-1.6c-0.1-0.8-0.8-1.4-1.6-1.3
		l-4.6,0.5l13-13.7c0.6-0.6,0.5-1.6-0.1-2.1C29.7,34.1,28.8,34.1,28.2,34.7z"/>
</g>
</svg>
