<svg version="1.1" id="Layer_1" xmlns="http://www.w3.org/2000/svg" xmlns:xlink="http://www.w3.org/1999/xlink" x="0px" y="0px"
	 viewBox="0 0 64 64" style="enable-background:new 0 0 64 64;" xml:space="preserve">
<style type="text/css">
	.st0{fill:url(#SVGID_1_);}
</style>
<linearGradient id="SVGID_1_" gradientUnits="userSpaceOnUse" x1="0.8" y1="34" x2="63.2" y2="34" gradientTransform="matrix(1 0 0 -1 0 66)">
	<stop  offset="7.689312e-07" style="stop-color:#E85C1B"/>
	<stop  offset="1" style="stop-color:#E54720"/>
</linearGradient>
<path class="st0" d="M52.5,40.3c-3.7,0-7,1.9-8.9,4.8l-16.4-8.4c0.5-1.5,0.8-3,0.8-4.6c0-1.5-0.3-3-0.7-4.3l16.9-7.9
	c2,2.4,5,4,8.3,4c5.9,0,10.7-4.8,10.7-10.8S58.4,2.2,52.5,2.2S41.8,7,41.8,13c0,1.5,0.3,2.9,0.8,4.2L26,25c-2.4-4-6.7-6.7-11.7-6.7
	C6.9,18.3,0.8,24.4,0.8,32s6.1,13.7,13.6,13.7c4.8,0,9.1-2.6,11.5-6.4l16.4,8.4c-0.3,1-0.5,2.1-0.5,3.3c0,5.9,4.8,10.8,10.7,10.8
	S63.2,57,63.2,51C63.2,45.1,58.4,40.3,52.5,40.3z M52.5,5.2c4.2,0,7.7,3.5,7.7,7.8s-3.5,7.8-7.7,7.8s-7.7-3.5-7.7-7.8
	S48.3,5.2,52.5,5.2z M14.4,42.7C8.5,42.7,3.8,37.9,3.8,32s4.8-10.7,10.6-10.7S25.1,26.1,25.1,32S20.3,42.7,14.4,42.7z M52.5,58.8
	c-4.2,0-7.7-3.5-7.7-7.8s3.5-7.8,7.7-7.8s7.7,3.5,7.7,7.8S56.8,58.8,52.5,58.8z"/>
</svg>
