<?xml version="1.0" encoding="utf-8"?>
<!-- Generator: Adobe Illustrator 24.2.3, SVG Export Plug-In . SVG Version: 6.00 Build 0)  -->
<svg version="1.1" id="Layer_1" xmlns="http://www.w3.org/2000/svg" xmlns:xlink="http://www.w3.org/1999/xlink" x="0px" y="0px"
	 viewBox="0 0 64 64" style="enable-background:new 0 0 64 64;" xml:space="preserve">
<style type="text/css">
	.st0{fill:#FFFFFF;}
</style>
<g>
	<path class="st0" d="M61.6,5.9H2.1c-0.8,0-1.5,0.7-1.5,1.5v50.2c0,0.8,0.7,1.5,1.5,1.5h59.5c0.8,0,1.5-0.7,1.5-1.5V7.4
		C63.1,6.5,62.4,5.9,61.6,5.9z M60.1,56.1H3.6V8.9h56.5V56.1z"/>
	<path class="st0" d="M19.9,45.8c5.8,0,9.1-6.1,11.8-11.1c0.3-0.6,0.6-1.2,0.9-1.7c0.2-0.4,0.5-0.9,0.7-1.3
		c2.6-4.7,5.2-9.5,10.3-9.5c0.8,0,1.5-0.7,1.5-1.5s-0.7-1.5-1.5-1.5c-6.9,0-10.2,6.1-13,11c-0.2,0.4-0.5,0.9-0.7,1.3
		c-0.3,0.6-0.6,1.1-1,1.7c-2.4,4.5-5.2,9.5-9.2,9.5c-0.8,0-1.5,0.7-1.5,1.5S19.1,45.8,19.9,45.8z"/>
</g>
</svg>
