<svg version="1.1" id="Layer_1" xmlns="http://www.w3.org/2000/svg" x="0" y="0" viewBox="0 0 1000 1000" xml:space="preserve">
  <style>
    .st0{fill:#e4e6e7}.st2{fill:#cacdcf}
  </style>
  <path class="st0" d="M388.4 588.9S-92.2 432.4 109.7 126.1c120.1-182.2 341.1-39.5 365.5-20.9C570.7 178 991 594.9 677.1 832.8 456.7 999.9 388.4 588.9 388.4 588.9z"/>
  <path class="st2" d="M121 167.6c78.2-111 256.8-22.6 357.4-13.5 140.7 12.7 275.1-5.1 400.8 115 41 39.1 88.1 115.5 72.9 169.3-54.5 192.6-209.8 135-349.3 218.7S334.3 1052.2 118.5 908c-135.2-90.3 1.7-255.1 26.1-342.1 35.3-126.2-108-278.5-23.6-398.3z"/>
</svg>
