<svg version="1.1" id="Layer_1" xmlns="http://www.w3.org/2000/svg" x="0" y="0" viewBox="0 0 1000 1000" xml:space="preserve">
  <style>
    .st0{fill:#e4e6e7}.st2{fill:#cacdcf}
  </style>
  <g id="shape15">
    <g id="Group_117">
      <path id="alexandru-zdrobau-juESZxMhtXk-unsplash" class="st0" d="M814.3 178.8c-1.6 0-3.5-.4-4.4 1.5v.4-.4c-3.1-.4-3.1 0-3.8.4-1.3 0-2.8-.7-3.8 1.5-.6-1.5-.6-1.5-1.6-.7s-1.6 1.1-1.9-.4c0-.4-.6-.4-.9-.7-1.4-.4-2.8-.3-4.1.4h-.3c-.9.4-1.6-.4-2.2-.4-1.3-.4-2.5-.4-3.8-.7-.9 0-.9-.4-.3-1.1.6-.7 2.2-.7 2.5-2.2-2.1.3-4.2.8-6.3 1.5-3.8 1.1-7.4 2.6-11 4.4-.9.4-2.2.7-3.1 1.1-.6.4-.9 0-.6-.7.6-.4.9-.7 1.6-.7.9 0 .9-.7.6-1.1 0-1.8-3.5.4-2.8-1.8h-.6c-.6.4-.9.7-1.6.7-1.2.8-2.7 1.1-4.1.7h.3c.9-.4 1.6-.7 1.6-1.5-1.3.4-2.2-.4-3.1.7-.9.4-2.2.7-3.1 1.1h-.9c-.6-.4-1.9.4-2.2-.4-.3.5-.8.7-1.3.7-1.7-.3-3.4.2-4.7 1.5-4.1 1.5-8.2 2.2-12.2 3.7-2.5 1.1-5.2 1.9-7.8 2.2-5.6 1-11 2.6-16.3 4.8-1.6.4-2.8 1.1-4.4 1.5-.3 0-.6.4-1.3.4-2.2-.4-4.5 0-6.6 1.1-1.2.7-2.5 1.1-3.8 1.5-4.1.7-8.2 2.6-12.2 3.7l-3.8 1.1c-2.4 1-4.8 1.7-7.2 2.2h-.6c-1.3 0-2.8.7-3.5-.7-.2-.6-.9-.9-1.4-.6-.2.1-.4.3-.5.6-.3.7-1.3 1.1-2.2 1.5 0-.4-.3-.4-.3-.7.8-2.3 2.9-3.7 5-3.3.8.2 1.7.1 2.5-.4-.3.4-.3 1.1-.9 1.1-.3 0-.9 0-.6.4 0 .4.6.4.6.4 1.3-.7 3.1-1.1 3.8-2.6.3-.7.3-1.1 1.3-1.1.6 0 .9-.4 1.3-1.1.9-.7 1.9-.4 2.8-.7 1.6 0 1.9-1.5 2.2-1.8.6-1.1-1.3-.4-1.6-1.1 1.9-.7 3.8-.4 5.6-1.1.6.4 1.3.4 1.9.7.9 0 1.9.7 2.5 0 .9-1.5 2.5-1.1 3.8-1.5.3 0 .3-.4.6-.4 1.9.4 2.8-1.8 4.7-1.5.3 0 .3-.7-.3-1.1-.6-.5-1.5-.6-2.2-.4 0-.4-.3-.4-.3-.7.8-1.1 1.9-1.7 3.1-1.5.9.7 1.9.4 2.8.4h2.2c0 1.1-1.3 1.1-1.6 2.2 1 .3 2-.2 2.5-1.1.3-.7.3-1.5 1.6-1.8.3.7 0 2.2 1.6 1.8 1.6-.4 3.5-.7 3.1-2.9.6.4 1.3 1.1 1.6 0 .3-1.1.9-1.5 1.9-.4.3.4.9 0 .6-.4-.9-1.5.9-.7 1.3-1.5.3 0 .9-.4 1.3-.4.6.7 1.3.4 1.9 0 1.6-.4 2.8-1.1 4.4-1.5 1.3-.4 2.2-1.1 1.9-2.2-.3-1.1-1.6-.7-2.5-.4-.2 0-.3.2-.3.4-.6-1.1-1.9 0-2.5-.7-1.3-1.5-2.2-.4-2.5.7-.6.7-1.4 1.2-2.2 1.5-.9 0-1.7.3-2.5.7-2 .8-4.2 1-6.3.7.3-.4.6-.4 1.3-.7 5-1.8 9.7-4 14.8-5.9 2.7-.9 5.3-2.1 7.8-3.3.3 0 .6-.4.9-.4 3.8-.7 6.6-3.7 10.4-4.8.3 0 .9-.7.6-1.1-1.9-.4-1.3-1.5-.6-2.9.3-.7 0-1.1-.6-1.8-1.3-.7-2.2.4-3.5.4-.2 0-.3-.2-.3-.4.3-1.5-1.6-.4-1.6-1.1.6-.4.9-.4 1.3-1.1.3-.4.3-.4.3-.7.9-1.1 1.9-2.2 1.3-3.7 1.9-2.2 4.4-3.7 6-5.9.3-.7 1.3-1.1 2.2-1.5 2.2-.4 4.1-1.8 5.3-3.9.3-.4.9-.7 1.3-1.5 2.5-2.4 4.8-5.1 6.9-8.1.6-.7.9-1.5 1.6-2.2.9-1.1 1.3-1.5 0-2.2-1.3-.7-1.3-1.5.3-2.2.6-.4 1.6-.7.9-1.5-.9-1.8-1.3-1.8-2.8 0-.6-1.1.3-2.6-.3-3.7-1.3-2.6.3-5.5-.3-8.1-.3-1.1-.6-1.5-1.9-1.1-.5.3-1.2.2-1.6-.4-.6-.4 0-.7.3-1.1 1.6-1.1 1.9-2.2 0-2.9-.7-.4-.9-1.4-.6-2.2.3-1.1-.3-1.1-1.3-.7-.7.2-1.5.4-2.2.7-1.6.7-3.3 1.1-5 1.5-1.8.3-3.6.8-5.3 1.5-2.6 1.5-5.3 2.5-8.2 2.9.3-.4-1.6.4-.6-.7l.9-1.1c.8-1.6 2.2-2.7 3.8-2.9 3.1-.7 6-2.2 9.1-3.3 1.9-.7 3.5-4 2.2-4.8-1.6-.7-.9-1.5-.6-2.6.3-.7.9-1.1.6-1.8-.9-1.8.6-2.6 2.2-3.3.9-.4 1.3-.7.9-1.8-.3-1.8-1.6-2.9-4.1-2.6 2.1-.9 3.2-3.7 2.4-6.2 0-.2-.1-.3-.2-.4-.3-1.1-.6-2.2-2.5-1.1-.6.2-1.3-.1-1.6-.7 0-.7.6-.7 1.3-.7.9 0 1.9 0 1.6-1.5-.3-.7.6-1.1 1.3-1.5.6-.4 1.6-1.1.9-1.8s-1.6-.4-2.2 0c-.6-.1-1.3.1-1.9.4-.3-.4-.9-.4-1.3-.7-1.3-1.1-3.1-1.5-3.8-3.3h.3c1.9-.7 4.1 0 5.6-1.5 1.3-1.1 3.5-1.1 4.4-2.9.3-.3.6-.4.9-.4.9 0 1.9.4.9-1.1.2-.4.4-.8.6-1.1.9-.7 1.9 0 3.1-1.1.3-.4.3 1.1 1.3 1.1.3-1.8 2.2-1.5 3.1-2.2 1-.6 2.1-.8 3.1-.4 1.9 0 2.5-1.8 3.5-2.6.6-.4 0-1.1-.3-1.5-.3-.4-.6-.4-1.3 0-.9.4-1.3 1.1-2.5 1.5a5.9 5.9 0 0 1 3.8-2.6c.6 0 1.3-.4.9-1.1 0-.7-.6-.7-1.3-.4-.3.4-.9.7-1.3 0v-.4c.6-.4 1.6-.4 1.6-1.1s-.9-.7-1.6-.4c-.4 0-.9-.1-1.3-.4-.9 1.1-2.5.7-3.5 1.5-1.9 1-3.9 1.5-6 1.5-.9.4-2.5 1.5-3.8.4l-.6.4c-.3 1.5-2.5 1.8-2.8 3.3-.1.4-.4.6-.7.5-.1 0-.1-.1-.2-.1-.3-1.5-1.6-.7-2.5-.4-.9 0-2.5 1.5-2.8-.4 0-.4-.3 0-.6 0-.9.4-1.3 0-1.9 0-.9 0-1.9-2.2-2.8 0 0 .4-.6.4-.9.4-1.3-.2-2.5-.2-3.8 0-3.6.2-7.1 1.2-10.4 2.9-1.6.2-3.2.6-4.7 1.1h-.6c-3.2.3-6.4 1.2-9.4 2.6.6-.7 1.9-1.1 1.6-2.2 1.3-.7 3.1 0 3.8-1.8.3-.7.6.7 1.3 0-.3-2.2-.3-2.2-3.1-1.1-.9.3-1.8.8-2.5 1.5-2.2 0-4.4 1.5-6.6 1.5-.3 0-.6.3-.6.7-.4.7-.9 1.2-1.6 1.5-3 1-6 2.3-8.8 4h-.3c-4.7 2.6-9.7 4-14.4 6.2-4.7 1.8-9.4 4-14.1 6.2-.9.4-1.9 1.1-2.8.7-1.8-.1-3.5.4-5 1.5-2.5 1.4-5 2.6-7.5 3.7-2.3.7-4.7 1.5-6.9 2.6-.6 0-.6.4-.6.7-.9.3-1.7.7-2.5 1.1-6 2.6-12.2 5.1-18.2 7.7-.6-.7 2.2-1.8.3-2.6-.9-.4-1.3-.4-1.9.4-.9 0-.6-1.1-1.6-1.1.3-.7.9-.7 1.6-.7 1.7-.4 3.3-1.2 4.7-2.2.6-.4 2.2-1.5 2.5-.7.6 1.1 1.3.4 1.6 0 2.4-1.7 4.9-3.1 7.5-4 .9 0 1.9-.4 2.5.4-.9-1.5-.6-1.8 1.3-2.2s3.1-2.6 5.3-2.6c.7 0 1.3-.3 1.9-.7 1.9-2.2 5.3-1.8 7.2-4h.3c.6 0 .9 0 .9-.4s-.3-.7-.6-.7c-1.6-.4-2.2.7-2.8 1.8-.6-.4-1.6-.7 0-1.5.3 0 .3-.4.3-.7.6-.7 1.3-1.8 2.8-1.5.8-.1 1.5-.4 2.2-.7.6 0 .9-.4 1.6-.4.6.4 1.6-.4 1.9.4.3.7-.9.7-1.3 1.5-.3.4-.9.4-.9.7 2.8 0 2.8 0 3.5-2.2.3-1.1.9-1.1 1.3-.4.9 1.5 2.2.7 3.5 0 1.6-1.1 2.2-2.9 4.4-3.3.3-.7 1.3-1.1 1.9-1.5 2.9-.3 5.6-1.6 7.8-3.7.9-.7.6-1.5-.6-1.8-.6-.1-1.3.1-1.9.4-.9 0-2.2.7-3.1.4-1.9-1.1-2.2 0-2.5 1.1-.3.7 0 1.5-1.3 1.5-1.4.1-2.8.6-4.1 1.5-1.5.7-3.1 1.2-4.7 1.5-1.3-1.5-1.9.4-2.8.7-.6 0-.6 1.5-.9 1.8-1.3 1.1-.3-.7-1.6-.7-2.3.4-4.5 1.6-6.3 3.3v.4l-.6.7c-.3 0-.3 0-.6-.4s.3-1.1-.6-1.1c-.6 0-.9.7-1.3 1.1-.3.7-.3 1.5-1.3 1.5-.3-.4-.9-1.1-1.6-.4-1.6 1.5-4.7 1.5-5.3 4-.3-.4-.3-.7-.6-.7-.9.4-2.5 0-2.2 1.8 0 .4-.6.4-.6.4h-1.4c-2.2.9-4.6 1.3-6.9 1.1-.6.4-1.9 0-1.6 1.5.3 1.8-.3 2.6-2.5 2.2-.7-.1-1.5.1-2.2.4-1.6 0-3.5-1.1-3.8 1.5h-.3c-1.9.4-3.5 1.1-5.3 1.5-.6 0-.9-.7-1.6 0-.6.7.6.7.6 1.5-.5.1-1.1.2-1.6.4-.9-.4-1.3-.4-.9.4 0 1.1-.6 1.8-1.3 2.9-.9-.4-.3-1.1-.6-1.5s-.3-1.1-1.3-1.1c-.6 0-.6.7-.9 1.1-.3 1.1-.9 1.1-1.6.7-2.2-.7-3.1-.4-3.8 1.8-.9.7-1.3 1.8 0 1.8 2.2 0 .9.7.3 1.5-1.3 0-1.9-.4-1.9-1.5s-.6-1.5-1.6-1.8c-.6 0-1.6.4-1.3.7.6 1.1-.6 1.1-.9 1.8-2.2.7-4.4 1.2-6.6 1.5-.5-.4-1.1-.4-1.6 0-.6.4-2.2.4-1.6 1.1.9 1.8-.9 1.1-1.6 1.5-.6 0-1.3.4-1.9 0-1.3-.4-2.8 0-3.8 1.1-1.2 1.9-3 3.1-5 3.3-.3.7-.3 1.5.6 1.1 2.5-.7 2.2 1.1 2.8 2.2-.9.4-2.5 1.5-2.8.7-.6-1.5-3.1-.7-3.8-2.6-.3-1.1-1.6-1.5-2.8 0-1 .6-2 1.1-3.1 1.5-2.5.4-4.4 1.8-6.9 2.2-.2 0-.5-.2-.6-.4l-1.9 1.1c-.9 1.1-2.8.7-3.5 1.8 0 .7-.9 1.1-1.6 1.1-1.3 0-3.1-.7-3.5 1.5-.3.4-.8.6-1.3.7-2.2 1.1-2.5 1.5-.6 2.6 0 .4 0 .7-.3.7-.2 0-.3.2-.3.4-.3-.4-.6-.7-.9-.7-.9-.4-1.9-.4-2.8 0-1.6.7-3.1 1.1-4.7 1.8h-.6c-.6 0-1.1.3-1.6.7-.7.1-1.3.3-1.9.7-.3 0-.6.4-.9.4l-4.4 1.1c-4.7 2.2-10 2.9-14.8 5.5-1.1.7-2.4.7-3.5 0-.2 0-.3-.2-.3-.4 0-.4 0-.4-.3-.7-1.9-.4-.6-.7 0-1.5.3 0 .3 0 .6-.4.6 0 .9-.4 1.6-.4.6-.4 1.6-.4 2.2-.7h.3c.9-.4 1.9-.4 2.5-.7 1-.1 1.9.1 2.8.4h1.9c.9-.4 2.2-.4 3.1-.7 2.6-1.4 5.4-2.7 8.2-3.7.9.4 1.3-.7 1.9-1.1.3-.4.6-.4.9-.7.8-.3 1.6-.8 2.2-1.5 1.3-1.1 2.6-1.9 4.1-2.6h.9c.7.7 1.8.7 2.5 0 .5-.3 1-.6 1.6-.7 2.2.4 2.8-.7 3.1-2.2h.6c2.5.1 4.9-.8 6.9-2.6h.3c2.9-.4 5.7-1.7 8.2-3.7.4-.5 1-.7 1.6-.7.3 0 .9-.4 1.3-.4 1.3-.7 2.2-1.5 3.5-1.1.6-.4 1.3-.4 1.3-1.1 0-.7-.9 0-1.3-.4-.6-.4-1.3-.4-.9-1.1 1.3-.7 2.8-1.1 4.1-1.8.6 0 .9.4 1.6.4.3 1.8 1.9.7 2.8.4 2.2-.7 4.4-1.8 6.6-2.6.3 0 .9-.4.9-.7-.3-.7-.9-.7-1.9-.7-.3 0-.6.4-.6 0 .3 0 .3 0 .6-.4s1.3-1.1 1.3-1.8c0-.4-.9-.4-1.6 0-1.9 1.1-4.4 1.8-6.3 2.9-.6 0-1.3.4-1.3-.4.6-.7.9-.7 1.9-.4.5 0 1-.3 1.3-.7 0-.4.3-.7 0-.7-.4-.4-.9-.4-1.3 0-3.5 1.5-6.9 2.6-10.4 4.4-.6.4-1.6.4-2.2.7-.6 0-.9.4-1.6.4-1.9 1.1-4.1 1.1-5.6 2.6-.9.4-1.9.4-2.8.7-1.4.9-2.9 1.4-4.4 1.5-1.1.1-2.2.5-3.1 1.1-.3 0-.6.4-1.3.4h-.9c-.3 0-.6.3-.6.7l-.6.7c-.9.7-2.8 0-2.2 2.2 0 .7 1.3.4 1.6.7l-.3.4c-.5.3-1 .4-1.6.4-.6-.7-1.3-2.2-2.5-1.5l-6.6 2.2c-.6.4-1.6.4-1.9 1.1 0 .4-.6.4-.9.4-1-.5-2.1-.2-2.8.7-2.4 1.9-5.1 3.2-7.8 4-.9.4-1.6-.4-2.5.4-.9 1.1-1.3.4-1.3-.4 0-.4.3-1.1-.6-1.1 0 0-.6 0-.6.4s-.6 1.1 0 1.5c.3.4.6.7 0 1.1-2.3 1.4-4.7 2.3-7.2 2.9-.9 0-1.9.4-2.2-.7 0-.7-.6-.4-1.3 0-.6.4-1.9.4-1.9 1.1 0 .7.9.4 1.3.4.3.4 1.6-.4 1.3.7-.9.7-2.2.7-3.1 1.5-1.9.7-3.8 1.8-5.6 2.6-2.8.4-3.1 0-3.5-2.2 0-.4-.3-.4-.9-.4-.6.4-1.3.4-1.6.7l-2.8 1.1c-.6.7-.6 1.5.6 1.5h3.5c-1.3 1.1-3.1 1.1-3.8 2.2-1.9 0-2.2 1.5-3.1 2.6-.2.3-.6.4-.8.1l-.1-.1c-.9-.7-.6-2.2-1.9-2.6-.6 0-1.3-1.1-1.9-.7-.9.7.3 1.5.3 1.8 0 .4.3.7.6 1.1.3 1.1-.3 1.8-1.6 2.2-1.6.7-3.1 1.1-4.7 1.8-2.2.9-4.6 1.4-6.9 1.5 1.6-1.1 1.9-1.5 1.3-1.8-.9-.4-1.6.4-2.2.7-.6.7-.6 1.1 0 1.5-2.2.7-4.4 1.2-6.6 1.5-1.4.8-2.9 1.3-4.4 1.5-1.3 0-1.9 0-.6-1.5-.5-.1-1.1 0-1.6.4-1.3 1.1-2.8.7-4.1 1.5-.9.4-.9 2.6-2.8 1.5l-.3.4c-.3 1.1-.9 1.1-1.6.4-.3-.4-.3-.4-.6 0-1.5 1-3.3 1.6-5 1.5-.6 0-1.6.4-.6 1.1 1.3.7 1.6 1.8 3.1 2.2l.3.4c-1.6 1.5-3.7 2.1-5.6 1.5-1.4-.8-3.1-.7-4.4.4-.3.4-1.3.7-1.6.4-1.9-1.1-3.5.4-5 1.5-.6.4-1.3 1.5-2.2.4-.5-.3-1.2-.1-1.6.4-1.7 1.9-3.9 3.2-6.3 3.7-.7-.4-1.5-.1-1.9.7-.3.7.3 1.1.9 1.8.3.7.9.4 1.6.4 1-.5 2.1-.6 3.1-.4-1.3.7-2.5 1.5-.9 2.6.6.4 0 1.1-.6 1.5-.6.4-1.6.7-2.2 1.1-1.1.5-2.3.9-3.5 1.1.3-.7 1.3-1.1 0-1.5-1.3-.7-.3-1.1.6-1.1.6 0 .9.4 1.6.4.3 0 .6.4.9.4.3-.4 0-.7 0-1.1 0-1.8-1.6-2.6-2.8-3.7-.6-.4-1.4-.3-1.9.4-.9.7-1.8 1.2-2.8 1.5-1.6.7-3.1 0-4.7 1.5-.6.6-1.2 1.1-1.9 1.5-1.3.7-3.1.7-4.1 1.5-2.7 1.8-5.5 3.3-8.5 4.4-2.5.7-5 1.8-7.5 2.6-2.9.7-5.6 1.9-8.2 3.7-2 1.2-4.1 2-6.3 2.6-1.6.4-2.9 1.6-3.5 3.3-.6 2.6-1.6 1.1-2.5.7-.6-.4-1.6-1.1-1.9-.7-1.3 1.5-3.1 1.5-4.7 2.2-1.6 1.2-3.4 1.8-5.3 1.8-1.9-.4-1.6.7-1.9 1.5-.6 1.1.3 1.5 1.3 1.5.3 0 .9-.4.9.4-.3.4-.9.4-1.3.7-.3.4-.3.4-.3.7.2.3.6.4.8.1l.1-.1c1.3-1.5 2.8-1.1 4.4-1.5.9-.7 2.2-.7 3.1-1.5s.9 0 .6.7c-1.9 1.1-1.9 1.1 0 1.8v.4h-.5c-.6 0-.6.4-1.3.7-.9 0-1.6.7-2.2.7-1.3.4-2.2.7-3.5 1.1-.6.4-1.6.7-1.9.4-.6-.7-1.3-.4-2.2 0-.6.4-1.6.4-2.5.7.3-1.1 2.2-2.2 0-2.2h-3.5c-1.9.7-3.8.4-5.3 1.5-1.7 1-3.5 1.7-5.3 2.2-.3 0-.6.4-.9.4-1.9.7-3.5 2.6-5.6 2.2-.6 0-1.9.4-2.2 1.5-.6 1.1.6 1.1 1.3 1.5.9.7-.6.7-.3 1.1-1.9.7-.3 2.2-.9 3.3v.7c-.3 1.1-1.6 1.5-2.2 2.2-3.1.8-6.1 2.2-8.8 4-5.3 3.3-11.3 5.1-17 8.4-2.8 1.5-6 2.9-8.8 4.4-.8.4-1.7.8-2.5 1.1-2.4 1.2-4.9 2.1-7.5 2.6h-.3c-2.9 2.2-6.1 3.8-9.4 4.8-2.7.6-5.3 1.9-7.5 3.7-.6.6-1.4.9-2.2.7-3.2.6-6.3 1.8-9.1 3.7l-6.6 3.3c-.5.4-1.1.4-1.6 0-.9-.4-1.3 0-1.9.7-1.2 2.3-3.4 3.6-5.6 3.3-.8 0-1.5.3-2.2.7-.9 1-2.2 1.7-3.5 1.8-3.7.3-7.4 1.6-10.7 3.7-3.1 1.5-3.8 1.5-4.4-1.5 0-.4 0-1.1-.9-.7-.7 0-1.3.4-1.6 1.1-.3 1.1 0 1.8.9 2.6.9.7.6 1.1-.3 1.8-2.9 1.3-5.8 2.4-8.8 3.3-1.3.4-.6-.4-.3-1.1.6-1.5.3-1.8-1.3-1.8-.7.2-1.5.2-2.2 0-2.5-.7-1.6 1.5-2.2 2.2-.6 1.1 0 1.5.9 1.5 1.6.4 2.2 1.1.9 1.8-2 1.7-4.1 3.2-6.3 4.4-2.2 1.1-4.7.7-6.6 2.6-.3.4-1.6 1.1-2.2.7-1.8-.7-3.8-.7-5.6 0-2.8 1.1-5.8 1.5-8.8 1.5-.6 0-1.9 0-1.3 1.1.3.4-.6 1.1-1.6 1.1-2.2-.4-2.2-.4-2.5 1.8 0 .4.3 1.1-.6 1.5-.6.4-.9-.4-1.3-.7-.6-.7-1.6-2.2-2.2.4 0 .4-.3.4-.6.4-1.8-.1-3.6.5-5 1.8-2.2 1.6-4.5 2.9-6.9 4-1.9.7-3.8 1.1-5.6 1.8-2.6.9-5.1 2.1-7.5 3.3-3.8 1.9-7.7 3.5-11.6 4.8-4.3 1.7-8.4 4.1-12.2 7-1.6.6-3.1 1.7-4.1 3.3-1.5.9-2.7 2.2-3.8 3.7-1.8 2.8-4.6 4.5-7.5 4.8-1.6 0-3.1 1.2-3.8 2.9-.8 1.5-1.7 2.9-2.8 4-1.6 1.3-3 2.9-4.1 4.8-.4.8-1.1 1.3-1.9 1.5-.6 0-1.2.5-1.6 1.1-1.6 3.3-3.6 6.2-6 8.8-.6.7-.3 1.5.3 1.8 1.3 1.1 1.3 1.8-.6 2.6-1.9 1.1-2.2 1.5-.9 2.9.3.4.6 1.1.9 1.5.3.4.3.7 1.3.4 1.6 0 1.6-1.5 2.5-2.6-.2 2.7.1 5.5.9 8.1.9 2.6-1.6 5.9.3 8.4-.6 2.2.3 3 2.8 2.2.6-.3 1.4-.2 1.9.4.3.4 0 .7-.3 1.5l-.9 1.1c-1.6 1.5-1.6 2.2 0 2.9 1.9.7 1.6 2.2 1.9 3.3.6 1.8.3 2.2 2.5 1.1 2.8-1.1 5.6-2.1 8.5-2.9 2.4-.3 4.8-.8 7.2-1.5-2.2 3.1-4.6 5.9-7.2 8.4-.9.7-.3 1.1.3 1.8 1.6 1.8 1.3 2.6-1.6 3.3-.3 0-1.3 0-.9.7-.2 1.6.6 3.1 1.9 3.7 1.3.4 1.6-1.1 2.5-1.5.6 1.8-.9 3.3-.3 5.1.6 1.9.6 4 0 5.9-.9 1.4-1 3.2-.3 4.8.3.4 0 1.1-.3 1.5-.3.4-.6 1.1 0 1.5.6.4.9 1.1 1.9.4.5-.4 1.1-.4 1.6 0 1.3.7 1.3 1.5-.9 2.9-1.9 1.1-1.6 2.2-.3 2.9 1.6 1.1 1.3 2.6.9 4-.3 1.5.6 1.5 1.6 1.5 1.3-.4 2.2-.4 3.5-.7 2.2-1.1 4.7-.4 6.6-1.5 4.4.2 8.8-.7 12.9-2.6 2.2-1 4.5-1.6 6.9-1.8 1.6.2 3.2-.5 4.4-1.8.7-.7 1.6-1.1 2.5-1.1 2-.1 4-.3 6-.7 1.6-.1 3.2-.9 4.4-2.2 1-1.6 2.7-2.3 4.4-1.8 1.4.3 2.8.1 4.1-.4.6 0 1.3-1.1 1.9-.7 2.7.6 5.4.2 7.8-1.1 1.9-1.1 3.5 0 5-.4 3.1 0 6.3-.7 9.1-.7 1.8 0 3.5-.5 5-1.5 2-1 4.1-1.7 6.3-1.8.3 0 .6 0 .6.4.9 1.1 2.2.7 3.5 0 2.5-.8 5-1.3 7.5-1.5 2.6-.6 5.2-.9 7.8-.7.9 0 .9-.7.9-1.5 0-1.1-.6-.4-1.3-.4-1.5.2-3.1-.1-4.4-1.1 1.5-.7 3.1-1.1 4.7-1.1.8 0 1.5-.4 1.9-1.1.8-1.4 2-2.3 3.5-2.6.3 0 .9 0 .9.4s-.3 1.1-.6 1.1c-2.2.4-2.2 1.8-2.8 2.9-.7 1.1-.6 1.8 1.3 1.8 1.3 0 2.2 1.5 3.5.7 2.2-1.5 4.4-.4 6.6-.7-.6.4-1.6.7-2.2 1.1-.3 0-.9.4-.6.7.9 1.1-.6 1.5-.9 1.8-1.9 1.5-4.4 1.1-6.3 1.8-5.2 1.7-10.4 3.8-15.4 6.2-7.8 4-15.7 8.4-23.9 12.5-3.1 1.5-6 2.9-9.1 4.8-1.6.6-3.1 1.6-4.4 2.9-.6.4-.9.4-1.6.7-4.1 1.7-8.1 3.8-11.9 6.2-5.7 2.6-11.2 5.9-16.3 9.9-6.6 3.8-12.6 8.8-17.9 14.7-.9 1.2-2 2.2-3.1 2.9-2.2 1.8-4.7 3.3-5 6.2-.7.4-1.3.9-1.9 1.5-.9 1.1-1.6 1.8-1.3 2.9-.3.4-.3.4 0 .7h.3l.3.4v.7c-.3.7-.3 1.1.6 1.1.6 0 .6.4.6.7.6 2.6 2.5 3.3 5.3 2.9.6 0 1.3-.4 1.9.4.3.4 1.3 0 1.9 0 3.5-.1 6.9-.6 10.4-1.5 2.2-.7 4.4-1.1 6.3-1.8 4.1-1.1 8.2-.7 12.6-1.5-.9.7-1.3 1.5-.9 2.2-.4 1.6-1.7 2.7-3.1 2.6-2.2-.4-2.5.7-2.5 2.2 0 .7 0 1.5.9 1.8.6 0 .6.7.3 1.1-1.3 1.5 1.6 2.9-.6 4.8 1.6 1.1-.3 2.9.6 4.4.5.6.6 1.6.1 2.2-.1.1-.2.3-.4.4-1 .7-2.2.7-3.1 0-.8-.7-1.9-1-2.8-.7 1.9 1.1 3.8 2.2 3.5 4.4 0 .7.6.7.9 1.1.3.4.9.4.9.7.5 2.3 1.1 4.5 1.9 6.6-.3.4 0 .7 0 1.1-3.5 1.1-6.9 1.8-10.4 2.9-5 1.5-9.7 4-15.1 5.1-3.9.8-7.7 2.1-11.3 4-1.3 1-2.6 1.7-4.1 2.2-7.5 2.2-15.1 4-22.3 6.6-8.6 3.1-16.7 7.7-24.2 13.6-1.8.4-3.6.4-5.3 0-1.2-.3-2.4-.2-3.5.4-.9.4-1.6 1.5 0 2.2.6.4 1.6.7 1.3 1.5-.6 2.2.9 2.2 2.2 2.6-.6 1.1-2.2 1.1-2.8 2.2-1.3.4-1.3 1.8-.3 1.8 1.9 0 3.5 1.8 5.3 1.5 2.2-.9 4.6-1.3 6.9-1.1.6 0 1.3 0 1.6.7 2.2 2.9 2.8 3.3 6 2.6 2.5-.7 4.4-2.6 6.9-3.3.9.2 1.8-.1 2.5-.7 2.5-1 5-1.7 7.5-2.2-1.9 1.8-3.1 4-5 3.7-1.3-.3-2.7.1-3.8 1.1l-7.5 4.4c-.9-.7-1.6-1.1-1.9.4-.3 1.5-1.3 2.2-2.5 2.9-.9.7-3.1.4-2.5 2.9-.3 0-.3 0-.6-.4 0-.7-.3-1.5-1.3-1.1.3-1.1.3-2.2-1.3-1.1-1.3.7-2.5 1.8-3.5-1.1-.3 1.5.6 2.9.3 4v.7c.3 1.8-.9 2.6-2.8 2.6.9-.4 1.9-.7 1.3-2.2-.6-1.5-1.6-.4-2.5-.4-.6 0-.9.4-1.3 1.1-1.9.4-3.8.7-4.7 2.9-.6 1.1-2.2.4-2.5 1.5-1.7.7-3.5 1.2-5.3 1.5l.3 1.8c-.3.4 0 .7 0 1.1-.3.4-.6.7-.9.7-.9.4-1.6.7-1.3 1.8.5.8 1.4 1.1 2.2.7 1.6-.4 2.8-1.1 4.4-1.5.7-.2 1.5 0 2.2.4.3-2.2 1.6-.4 2.5-.4.6-1.5-.6-1.8-.9-2.6.7.1 1.5-.1 2.2-.4 2.8-1.6 6-2.4 9.1-2.2.9.4 0 2.2 1.6 2.2 1.3 0-.3-1.5.9-1.5.6 1.2 1.7 1.9 2.8 1.8 0 .4-.9.7-.6 1.5.3.4.9 0 1.3 0 1.3-.7 2.2-1.1 3.5-1.8 2.2-.7 4.4-1.5 6.3-2.2 1.6-.7 3.1-.7 4.4-2.2.3 0 .3-.4.6-.4 1.6 1.8 4.2 1.8 5.8-.1.1-.1.1-.2.2-.2.3-.3.6-.4.9-.4.9 1.1 1.6 0 2.2-.7.3-.4.6-1.5 1.3-1.1 2.2.7 3.1-1.1 4.7-1.8.9 0 1.9 0 2.2-1.1.6-1.8 1.6-1.8 3.1-1.1 1.2.8 2.8.3 3.4-1.1.6-1.5-.9-1.1-1.3-1.8 1.9-1.1 3.9-1.9 6-2.6.9-.4 2.2-1.1 3.1-1.5.9-.7 1.9 0 2.8 0 3.5.4 6.9-1.3 9.1-4.4.3-.9 1.1-1.4 1.9-1.1 1 .6 2.1.6 3.1 0 2.1-.7 4.3-.4 6.3.7-.3.7-.6.4-.9.7-6.6 3.7-14.1 5.9-20.7 9.5-4.4 2.2-8.8 3.7-13.2 5.5-3.8 1.8-7.5 4-11.3 5.5-3.4 1.2-6.7 3-9.7 5.1h1.3c5.2-1.6 10.3-3.6 15.4-5.9 5-2.6 10.7-4.4 16-6.6 3.1-1.1 5.6-3.7 9.4-3.3.9-.1 1.7-.4 2.5-.7 5.3-3.3 11.3-5.1 17-8.1 2.7-1.1 5.4-1.9 8.2-2.6.6.4.9-.4 1.6 0v1.1c.6 1.5-.6 2.2-.9 3.3-2.3 1.4-4.7 2.5-7.2 3.3-1.1.3-2.2.8-3.1 1.5-.9.7-1.6 1.5-.6 2.6-2.2 1.1-4.7-.4-6.9.7.9 1.1 1.9.4 2.5 1.1-.4.6-1 1.1-1.6 1.5-.3 0-.3 0-.6-.4-.2-.8-.7-1.4-1.3-1.8-.6-.4-1.9 0-1.3.7.9 1.5-.3 1.8-.6 2.6-.3.4-.6 1.1-.9 1.5-1.7-.3-3.4-.1-5 .7v.4-.4c-1.6-1.5 1.3-1.5.6-2.6-1.6 0-2.5.7-2.2 2.9-2.8-1.5-2.8-1.5-4.1 1.1 0 .4-.3.4-.6.4-1.3.4-2.5.4-2.8 2.2-1.3.4-2.8.4-3.8 1.8-.6-.4-1.3.4-1.9.7-.6 0-1.3.4-.9 1.1.3.7.9.7 1.6.7 1.9-.7 3.8-.7 5-2.6 1.3.7 2.2 0 3.1-.7 1.2 0 2.3-.3 3.5-.7h.3c1.3.7 1.6-.4 2.2-1.1.3-.4.6-1.5 1.3-1.1.3.7 0 1.5.6 1.8.6-.4 1.6-.7 2.2-1.1h.3c1.9.4 2.2-1.1 2.5-2.6.6.7 1.6 1.8 1.9 0 0-.4.3-.7.9-.7 1.3.1 2.5-.5 3.5-1.5.7-.5 1.4-.7 2.2-.7.3 0 2.5.4.6-1.5-.3-.4.3-.4.6-.4 1.4.7 3 .7 4.4 0 2.2 1.5 2.8 1.5 3.5-1.5 0-.7.6-.7.9-.7 1.6-.4 2.5.4 3.1 2.6.3-1.8.6-2.2 1.6-2.6 1.3-.4.6-1.1.3-2.2 1.6-1.1 4.1 0 5.3-2.2.3-.4 1.3-.7 1.3-1.5-.3-.7-1.3-.7-1.9-.7-.3 0-.6 0-.6-.7 1.9-2.2 4.4-1.5 6.6-2.2.6.4 2.2.7.6 1.8-.3.4-.6.4 0 .7.3.3.6.4.9.4.7-.3 1.3-1 1.6-1.8.6.6 1 1.4 1.3 2.2.5 2.4 1.8 4.4 3.5 5.9.4.5 1 .7 1.6.7 3.8.7 7.2 1.8 11 2.2 5.9.8 11.8.3 17.6-1.5 3.8-1.1 7.5-2.6 11.3-3.7 2.5-.7 4.7-1.8 7.2-2.6 3.7-.8 7.4-2.1 11-3.7h.6c3.7-.5 7.3-1.7 10.7-3.7.6-.4.9-1.5 1.6-1.1 2.2.8 4.6.3 6.6-1.1.3-.4 1.3 0 1.6-.7.6-1.1 1.3-2.9 3.5-1.5.3.4 1.3.4 1.9.4 2.9-.8 5.8-1.4 8.8-1.8.6 0 .9 0 .9-.7-.3-1.5.9-1.1 1.6-1.1h1.9c-1.3.7-2.6 1.6-3.8 2.6-1.6.8-3 1.7-4.4 2.9-3.3 1.2-6.3 3.5-8.5 6.6-4.7 1.6-8.8 5.1-11.6 9.9-3.8 1.1-6.3 4.8-10.4 5.5-.2 0-.3.2-.3.4.9 2.2-.9 1.8-1.9 2.2-1 .3-2 .8-2.8 1.5-3 2.2-6.3 3.7-9.7 4.4-5.3 2.2-11.3 3.3-16.6 5.5-1.5.7-3.1 1.1-4.7 1.5-2.4.4-4.7 1.3-6.9 2.6-1.6 1.2-3.3 2.2-5 2.9-5.7 1.4-11.4 3.3-17 5.5-1.4.9-3.1 1.3-4.7 1.1-1.6-.4-3.3 0-4.7 1.1-1.3 1-2.8 1.6-4.4 1.8-5.9 1.1-11.7 2.9-17.3 5.5-1.9.7-3.7 1.7-5.3 2.9.9 0 1.3.4 1.9 0 3.1-.7 6.3-1.1 9.4-1.8 2.5-.4 5-.4 7.5-.7 6-1.5 11.9-2.9 17.6-4.4.6.4 2.2-.4 2.5 1.1.3 1.1-1.3 1.1-1.9 1.5l-.9 1.1c.9.4 1.6.7 2.5 1.1.6 0 1.3 0 1.3.7.1.5-.2 1-.7 1.1h-.3c-1.8 1-3.4 2.4-4.7 4-1.3.4-2.2 1.5-3.8 1.5-1.3-1.1-2.2-.4-3.1 0-3 1.7-6.2 3.1-9.4 4-2.9 1-5.5 2.9-7.5 5.5 1.5 1.5 3.5 2.1 5.3 1.5 3.1-1.1 6.6-1.8 10-2.9 1.6-.7 2.8-2.2 4.7-1.8 1 .3 2.1 0 2.8-.7h.3c1.1 3.4 4.3 5.1 7.2 4 1.3 0 2.8.7 4.1-.4 1-.5 2.1-.2 2.8.7 2.3 1.8 5.2 2.2 7.8 1.1 3.2-1 6.4-1.6 9.7-1.8 3.8-.7 7.5-1.1 11-2.2 6.6-2.2 13.5-1.8 20.1-4.4 1.3-.4 2.5-.4 3.8-.7-6.2 2.8-12.6 4.9-19.1 6.2-6.6 1.8-12.9 3.3-19.5 5.1-6.3 1.8-13.2 2.2-19.8 4.4 2.6 1.2 5.5 1.3 8.2.4 5.5-1.5 11-2.6 16.6-3.3h.3c1.9 0 3.5-1.8 5.6-.4-1.3.8-2.7 1.4-4.1 1.8-1.9-.7-3.1.4-4.7 1.5 1 .4 2.1.4 3.1 0 1.3-.4 2.5 1.8 3.5.4 1.1-1 2.4-1.6 3.8-1.8 1.3 0 2.5.7 3.5-.7.3 1.1 2.2 1.1 1.3 2.2-.6.7-.6 2.2-1.9 1.8-.3 0-.6.3-.6.7 0 .4.3.7.6 1.1.3.4.6 0 .9-.4.3-1.5 1.3-.7 1.9-.7 1.2.5 2.5.2 3.5-.7.3 1.5-.6 2.2-.9 3.7.7-.4 1.4-.6 2.2-.7l.6.7c.3.4-.3 1.5.9 1.5.6 0 .6-.7.3-1.5-.3-.7.3-.7.6-.4.6.4.9.4 1.3 0h2.8v.4h-.3c-1.6.4-1.6 2.2-3.1 3.3-.6.4.3 1.5 1.3 1.1.2 0 .3.2.3.4v.4c-.6 1.8-2.8.4-3.8 1.8-.9-.4-1.3-1.8-2.5-1.1-.6-2.6-.6-2.6-3.1-1.5-.2 0-.3-.2-.3-.4-.3-.7 1.3-.7.9-1.8-1.7-.7-3.5-1.1-5.3-1.1 0 1.5-1.3 1.1-1.9 1.8 1.6-1.1 1.3 2.2 2.8 1.5.6.9 1.6 1.3 2.5 1.1.9 0 0 .7.3 1.1-.9 0-1.9.4-2.5 0-.9-.9-2.2-.9-3.1 0-1.4.1-2.7-.1-4.1-.4-3-.4-6.1.3-8.8 1.8-.6.4-1.6 1.1-2.5-.4-.6-.4-1.4-.3-1.9.4-.3.5-.8.7-1.3.7-2.8.2-5.6 1.3-7.8 3.3-.3.4-.9.7-.6 1.5.3.7.6.7 1.3.7h1.9c.6 0 .9.4 1.3 1.1.3 1.5-1.3 1.8-.9 2.9-.3-.4-.9-.4-1.3-.7-1.3-1.1-2.5-1.5-3.5-.4-.7.7-1.6 1.1-2.5 1.1-1.3.4-2.5.4-2.5 2.2 0 .7-.6.4-.9 0-.3-.4-.3-1.1-.6-1.5 2.4-1.5 4.5-3.5 6.3-5.9-1.9-.7-2.5 1.1-3.5 1.1-2.2 0-4.7-.4-5.3 2.9l-.3.4c-2.2.4-4.1 1.8-6.6.7-1.6.7-3.1 1.1-4.7 1.8-.8-.9-2.1-.9-2.9.1-.1.1-.2.2-.2.3-.6.7-1.9.7-1.6 2.2-.3 0-.9.4-1.3.4-.9.4-1.9 1.1-2.8.7-.9-.4-1.9-.1-2.5.7-.6.7-.9 1.8-1.9.4-.2-.3-.6-.4-.8-.1l-.1.1c-.6.4.3.7.3.7.3 1.1 1.3 2.6 0 3.7.7-.1 1.5.1 2.2.4-.6.4-.9.7-1.3.7.3.7 1.3-.4 1.3.4-.1.6-.3 1.1-.6 1.5-.9-.7-1.6 1.8-2.5.4-.6-1.5-1.6-1.1-2.5-1.1-5.9.5-11.7 2.7-16.6 6.6-1.7 1.8-4 2.6-6.3 2.2-.5-.1-1 .2-1.3.7 1.3 0 2.8-.4 4.1-.4.9 0 1.3-.4 1.6 1.1.3 1.8 1.3 2.6 3.1 1.5.9-.4 2.5-1.8 2.5 1.1 0 .4.6 1.1.9 1.5-2.2 1.1-4.7 1.1-7.2 2.2 2 .3 3.7 1.9 4.4 4 .3 2.6 2.5 4.4 3.5 6.2 1.6 3.7 3.5.7 5.3 1.5h.3c-1.9 1.1-3.1 2.2-3.5 4.4v.4-.4c-.6-.4-1.6.7-2.2 0-.3-1.1-1.3-1.1-2.2-1.1-.3 0-.6.3-.6.7 0 .7.9.4 1.3.7 0 .7-1.3.7-1.3 1.5-.3 0-.3.4-.6.4-.3-.4-.6-1.1-1.3-1.1-1.6-.4-1.6-1.1-.9-2.2.3-.4.9-.7.6-1.1-.4-.4-.9-.4-1.3 0-1.3 1.1-3.1 1.5-4.7 2.6-.3.4-1.3.4-.9 1.5.3 1.1 1.3 0 1.9.4l-.9 1.1c-.3.4-.9.7-.3 1.1.3.4.9.7 1.3.4.6-.7 1.9-1.1.9-2.6 1.3.4 3.1-2.2 3.5 1.5-.3 0-.6.4-1.3.4-1.9.4-1.6 2.6-2.8 3.7-.3 0-.3 0-.6.4h-2.2c.9-1.8.9-1.8-.9-2.2-.6-.7-1.6-2.2-2.2-1.5-.9 1.1-2.8 1.1-3.1 2.9-1.6.4-3.1 1.8-4.4 1.5-3.5-1.1-5-.7-6.3 2.6 1.3.4 1.9-1.5 2.8-.7 1.9 2.2 3.5.4 5 .7-.8.3-1.5.8-2.2 1.5-1.3 2-3.2 3.3-5.3 3.7-.9.4-1.9 1.5-2.5-.7-.5-.4-1.1-.4-1.6 0-1.6 1.8-3.8 2.6-5.3 4.4-.6.7-2.5.4-1.9 1.8.6 1.5 1.9 0 3.1.4.3 0 .6-.4.9-.4 2.2-.7 4.4-1.5 6.9-2.2 0 .4.3.4.3.7-2.2 1.5-4.1 3.3-6.3 4.8-.3.4-1.6 0-1.3 1.1.3.7.9.4 1.6.4h1.3c4.4-2.1 9.1-3.1 13.8-2.9.4-.1.8-.2 1.3-.4 0-1.8 1.3-1.1 1.6-.7.7.5 1.5.6 2.2.4 2.5.4 4.7-1.5 7.2-.4.6 0 .9-.4 1.6 0 1.3 1.5 2.5.7 3.8 0 .3 0 .9-.4 1.3-.4 2.8-.4 5.3-.7 8.2-1.1 1.3 0 3.5-.4 3.8-2.6 0-.4.3-.7.6-.7 2.2 0 4.4-1.5 6.6-1.5.3.4-.3 1.1.9 1.1 1.9 0 3.1 0 3.8-2.2 2.8-.7 5.6-1.1 8.5-1.1 1.9 0 3.8 1.1 5.3-.4.2 0 .5.2.6.4 1.3.7 2.2-.4 3.5 0 .3 0 .9-.4.6-1.1-.3-.7-.9-.4-1.3 0-.9 1.5-2.5.4-3.8.7-.9.4-.9-.7-.9-1.1 0-.7.3-1.1 1.3-.7.9.5 2 .2 2.5-.7 0-2.9 1.9-1.8 3.1-1.8 1.4.1 2.8-.1 4.1-.7 2.1-1.3 4.3-2.3 6.6-2.9l.6.7c-.6.7 0 1.1.6 1.1s1.6-.7 1.3-1.5c-.3-1.1-.9 0-1.6 0-.3-1.5.9-1.1 1.3-1.5 3-.4 5.9-1.2 8.8-2.2 1.3 1.1 1.3 1.8-.3 2.2-1.8.1-3.5.7-5 1.8-.3.7-1.3 1.1-.3 1.8.6.4.9 0 1.3-.4.3-.4 1.3-.4 1.6-.4 2.5-.7 5.3 0 7.5-1.8.9-.7 1.3-1.1 0-1.8 0-.7.9-1.1.6-1.8-1.6-1.8.6-1.5.9-2.2.6 0 .9.4 1.6 0 5.3-2.6 11-4 16.3-6.2-1.3.7-2.4 1.9-3.1 3.3-.3.8-.9 1.3-1.6 1.5-3.5 1.5-3.5 1.5-2.5 5.5v.4c-.6 1.5-.9 2.9-2.8 2.6-.6 0-1.1.5-1.3 1.1.3 2.2-1.3 2.9-2.5 3.7-.6.4-2.2.4-1.6 2.2 0 .4-.1.8-.3 1.1-2.5 2.2-5.3 4-7.8 6.6-1.8 1.3-3.4 2.9-4.7 4.8-1.9 1.1-2.5 3.7-3.5 5.9 1.9-1 3.7-2.4 5.3-4l.3-.4c1.3-.4 1.9-1.8 2.8-2.6.6 0 .9-.7 1.3-1.1 1.6-2.1 3.6-3.7 6-4.4 1.8.7 3.7.4 5.3-.7.3-.4.9-.7 1.3-.4.6.7 0 1.1-.3 1.8-.6 1.1-1.9 1.8-1.9 3.3-.6.3-1.2.4-1.9.4-1.6 0-6 3.3-6 4.8.3 3.7-1.9 4-3.8 5.1-1.3.7-2.8.7-3.1 2.6-.6 3.7-3.1 5.5-5.6 7.3-2 .6-3.3 2.7-3.1 5.1.1 2.1-.9 4-2.5 4.8-.6.4-1.3.7-.9 1.5.6 1.1.3 2.6.3 4-2.2 2.6-2.5 6.2-4.4 8.8-.3.4 0 1.5-.3 1.8-.3 2.2 0 5.1-1.9 6.6-4.1 2.9-5 8.1-7.5 12.5-.9 1.5-1.3 3.3-2.5 4.4-1.3 1.1-1.6 3.2-.6 4.8 1.5 2.2 1.6 5.3.3 7.7l-.9 3.3c-.6 1.8-.6 4.4-2.5 5.5-1.3.4-1.3 1.8-2.2 2.6-2 1.9-3.6 4.3-4.7 7-.3.7 1.3 3.3-1.6 2.6 0 .3-.1.5-.3.7-2.2 1.8-1.3 5.1-1.9 7.7-.3 1.8.6 1.8 1.6 1.5.5 0 1-.3 1.3-.7 1.8-1.2 4-.7 5.3 1.1l.6.4c.9-1.1 1.9-.4 3.1 0 1.5.4 2.8 1.5 3.8 2.9 1.6 2.4 4 3.8 6.6 4 .6 1.1.6 1.1 2.2.7.6 0 1.6-.7 1.9.4.6 1.8 2.2 3.3 1.9 5.1-.6 3.3 2.2 3.7 3.8 4.8 1.3.7.6-1.5 1.3-2.2.2-.2.4-.3.6-.4 1.7-1 3.3-2.2 4.7-3.7 1.6-1.3 3.4-2.3 5.3-2.9 1.9-.4 3.8-.4 5-2.2.4-.5 1-.6 1.5-.1l.1.1c1 1 1.8 2.2 2.2 3.7.3 1.5 1.7 2.4 3 2 .2 0 .3-.1.4-.2 1.3.4 2.5-.4 3.5 1.1.2.3.6.4.8.1l.1-.1c1.3-3.3 3.1-2.6 5.6-1.5.9 1.1 1.6 2.5 1.9 4 .9 2.6 3.5 2.9 6 .7-1.9.7-2.8-.7-3.8-.7 0-2.2 1.3-1.5 2.5-1.8.6-.4 2.5 2.6 2.2-.7 0-.4.6-.4.9-.7.6 0 .6.4.6.7 1.6 3.3 2.5 3.7 5.6 2.6 1.2-.5 2.5-.6 3.8-.4 1.3.7 3.1-.4 3.1-1.8 0-2.2.9-2.6 2.2-2.9.3.7 1.6.4 1.9 1.5.3 2.6 1.6 1.1 2.8.7.3 0 .6-1.1.9-.7 1.9 1.8 2.5-.4 3.1-1.1.6-.7 1.6-1.5 1.6-2.6 0-.4-.3-.4-.6-.4-1.1-.2-2.2.4-2.8 1.5-.3 0-.3.7-.3.7-.3.4-.6.7-1.3.4-1.3-.7-2.8-.7-3.8-2.2-.3-.4-.6-.7 0-1.1 1.3.7 2.5-.7 3.8-.4 1.6.4 2.8-.7 4.4-.7.3.4.6.4.6 0 0-1.8.9-1.5 1.9-1.8 1-.2 2.1-.2 3.1 0 1.3 0 1.6 1.1.6 1.8-1.2.8-1.7 2.5-1.3 4 0 .4-.9.4-.3 1.1.4.4.9.4 1.3 0 1.6-1.8 3.8-1.5 5.6-2.6 1.3.4 1.6-.4 1.9-1.5 0 2.2.6 2.9 1.9 1.5.5 0 1 .3 1.3.7.3.4.9.7 1.3 1.1.3.4.9.7 1.3 0 .9-2.2 2.8-1.8 4.4-2.2 1.3 1.8 1.9 2.2 2.8.4-.6-1.1 0-1.5.9-1.8 1.2-.1 2.3-1 2.8-2.2.6-.7 0-1.5-.3-1.8 0-.4-.3-.7-.3-1.1.9-.7 0-1.8 0-2.6 1.1-.9 2.5-1 3.8-.4h.3c.3.4.3.7.3 1.5-.9 2.2-.9 2.2 1.6 2.2h1.4c-.3.4-.3 1.1-.6 1.5-.3 1.1.3 1.5.6 2.2 1.3-1.5 2.2.7 3.5 0 .6-.4.6-1.5 1.3-1.8-.3 2.6 1.6 3.7 3.1 5.1 1.3 1.4 3 2.2 4.7 2.2 2.5 1.1 5.2 1.5 7.8 1.1 1.7-.2 3.4-.2 5 0 3.5.4 7.1.4 10.7 0 3.5-.4 6.9-.3 10.4.4-3.3 2.3-6.8 4.2-10.4 5.9 0-.4 1.3-.7.6-1.1-.3-.4-.9.4-1.6.4-.9.4-.6.7-.3 1.1-2.3.6-4.5 1.6-6.6 2.9-.9.6-1.9.8-2.8.7-.6 0-1.3 0-1.6-.7 0-.4 0-1.1-1.3-1.1-1.9 0-3.8.4-5.6 1.1-5.7 1.5-11.1 4.5-15.7 8.8-.6.7-1.3.7-2.2 1.1-1.6.7-3.5 0-5 1.8 1.9-.4 3.5-.7 4.7-1.1.6 0 1.3-.4 1.9 0-.6.7.6 1.1.3 1.5-.3.7-1.3.7-1.9.7-.9 0-1.8.5-2.2 1.5 1.6-.2 3.2-.6 4.7-1.1 1.9-.7 1.9.4 2.2 1.5.3 1.1-.9 1.1-1.6 1.5-2.2.7-4.7 1.8-6.9 2.6 1.8-.3 3.6-.8 5.3-1.5.6-.4 1.3-.7 1.6 0 .3.7 1.3 1.1 1.6 1.8l-6.6 2.2c-.3 0-.9 0-.6.7 0 .7.6.4.9 0 1.9-.7 3.5-1.1 5.3-1.8 1.3-.4 2.2-.7 1.9.7 0 .4.3.7.6 1.1.9 1.1 2.5 1.8 3.1 2.9 1.6 2 4 3 6.3 2.6 6.5.7 13 .4 19.5-.7.6.4 1.3-.4 1.6 0h-.3c-.3 0-.9.4-1.3.4-1.5.8-2.6 2.5-2.8 4.4 0 .7-.6 1.1 0 1.8.6.2 1.4.1 1.9-.4.3.1.7-.1.9-.4.6.4 1.3-.4 1.9-.4.8.1 1.7-.1 2.5-.4.6.4.9 1.5 2.5.7h1.9c1.9.7 3.8-.7 5.3-.7h.3c-.3 1.1.6 1.5 1.6 2.2-1.4 1-2.9 1.7-4.4 2.2-.9.4-1.6.7-1.6 1.8-1.6 1.8-4.1 2.6-6.3 4.8 1.1-.2 2.1-.4 3.1-.7 1.3.4 2.2.7.3 1.8-.3 0-.6.3-.6.7 0 .4.6.4.9.4h1.3c0 .4-.6.7 0 .7 1.8 0 3.6-.4 5.3-1.1.3 1.5-.6 2.9.9 4 .3.4 0 1.1-.9 1.5-.3 0-.6.4-.3.7.9.4.9 1.1.6 1.8-.3.7 0 .7.6.7 1.6-.4 1.6 1.1 2.5 1.5-.9.7-.3 2.2-1.3 2.9-1.3.4-.6 1.1-.6 1.5 0 .4.6.4 0 .7-1.3 1.1 0 1.1.6 1.5.7.3 1.5.1 2.2-.4 1.3-.4 2.2-.4 3.5-.7.3.4 1.3-.7 1.6 0 .3.4-.3 1.1-.6 1.5-.3 0-.3.4-.6.4-.6.7-.9 1.8.6 1.5h2.8c-.3 1.2-1 2.1-1.9 2.6-1 .4-1.9 1.2-2.5 2.2-.6.3-1.1.7-1.6 1.1-.6.4-1.9.7-1.3 1.8.6.8 1.6 1.1 2.5.7 2.5.7 5 .8 7.5.4 1.4.4 2.9.4 4.4 0 .6 0 1.3-.4 1.6 0 .6.7 1.6.4 2.2.7 1.9.4 4.4-1.5 5.6.7h.6c2.5-.7 5-1.1 7.5-1.1 3-.8 6-1.4 9.1-1.8 2.4-.2 4.9-.7 7.2-1.5.9-.4 2.2-.4 3.1-.7 5-1.5 10-1.8 15.1-3.7 1.9-.1 3.8-.6 5.6-1.5 4.4-1.1 8.5-2.9 12.9-4 3.6-.7 7.2-1.8 10.7-3.3 4.7-1.5 9.7-2.6 14.4-4.4 5.3-1.8 10.7-3.3 16-4.8 1.5-.7 3.1-1.2 4.7-1.5 4.1-.5 8.1-1.7 11.9-3.3 1 .2 2 .1 2.8-.4 4.4-1.5 8.8-2.9 13.5-4 1.9-.4 3.8-1.1 5.6-1.5 1.4-.3 2.8-.8 4.1-1.5h.6c1.3.7 2.8.4 3.8-.7.3-.4.9-.4 1.3-.7.3 0 .3-.4.6-.4s.3 0 .6-.4c1.6-.7 3.3-1.1 5-1.5 1.3 0 2.5-.7 3.8-.7 1 .2 2.1.2 3.1 0 1.6-.9 3.3-1.4 5-1.5.9 0 .9-.7 1.3-1.5 2.5-1.1 5.3-1.1 7.8-2.2h.6c.9 1.1 1.6-.4 2.2-.7.3 1.1-.3 2.2.3 3.3.7 1.3.8 3 .3 4.4 0 1.4.2 2.7.6 4-.3.4-.6.4-.9.7h-.3c-1.7-.1-3.3.4-4.7 1.5-1.6.7-2.8 0-4.4.4-5.7.6-11.3 2-16.6 4.4-.9.4-1.9.7-2.8.7-2.8.2-5.6.9-8.2 2.2-.6 0-1.3.4-1.9.4-4.5.8-8.9 1.9-13.2 3.3-.9-.9-2.2-.9-3.1 0-1.6.7-3.8.4-5 1.8-.2.3-.6.4-.8.1l-.1-.1c-.9-.7-1.6-.4-2.5.4-.3.5-.8.7-1.3.7-1.8-.1-3.5.4-5 1.5-.9.4-1.6.4-2.5.7-2.4.7-4.8 1.2-7.2 1.5-2.2.4-4.4 1.1-6.6 1.5h-.3c-1.3.2-2.6.6-3.8 1.1-.3 0-.9.4-.6 1.1.2.3.6.4.8.1l.1-.1c.6 0 .9-.4 1.6 0 1.4.8 2.9 1.1 4.4.7 1.6-.7 2.8-1.8 4.4-1.1 1.6 0 3.1-.5 4.4-1.5v-.4c-1.9-1.5.6-1.1.9-1.8h1.3c2.8.1 5.6-.5 8.2-1.8 1.2-.7 2.5-.9 3.8-.7-.6.7-1.6.7-2.2 1.5l2.8-1.1c.6-.4 1.3-.4 1.9 0 1.5.7 3.2.1 4.1-1.5.3-1.1 1.6-1.1 2.2-1.1.9 0-.6.7.3 1.1 1.6-1.8 4.1-1.5 6.3-2.2.9-.4 1.9-.7 3.1-1.1-.8 1-1.6 1.8-2.5 2.6 1.6 0 2.8.7 3.8-.4 1-.7 2-1.2 3.1-1.5.6.8 1.6 1.1 2.5.7 1.9-.4 1.6-1.8 2.5-2.6.8-.8 1.8-1.3 2.8-1.5 1.2-.1 2.4-.6 3.5-1.5l2.8-1.1c.3.4 1.6-.4 1.6.7 0 .7-.6 1.1-.9 1.5l4.7-1.1c.6-.4 1.9-.4 1.9-1.1 0-.7-1.3 0-1.6-.4v-.7c1.9.7 2.5-1.5 4.4-1.5 1.3.4 2.2-.4 3.5-.7s2.2-.4 1.3 1.1c-.3.4-.3.7 0 .7.3.4.6-.4.9-.4 1.6-.7 1.9-2.2 3.5-2.6 2.1 1 4.4.5 6-1.5.3-.4.9-.7 1.3-.4.3 0 .3.4.3.7-.9 1.5.3.7.9.7 1.3 0 1.3 1.1 1.3 1.8 0 2.2 1.3 1.5 2.5.7 2-1 4.1-1.6 6.3-1.8.6 0 1.3-.4 1.9-.4 3-1.6 6.2-2.8 9.4-3.7.5-.1.9-.3 1.3-.7.8-1.1 1.9-1.6 3.1-1.5 1.3-.4 2.5-.7 3.5-1.1 2.5-.4 4.7-2.2 7.2-2.6 2.5-.5 4.8-1.6 6.9-3.3 2.5-.6 5-.9 7.5-1.1 1.6-.4 2.5-1.5 4.1-1.8.4-.1.9.1 1.3.4.6 1.1.6 1.1 1.9 1.1h1.3c0 1.1 0 1.8-1.6 1.5-1.3-.4-4.1 1.8-4.7 3.3 2.5-1.5 5.3-1.5 7.5-2.9 2.1-1 4.3-1.7 6.6-2.2.6 0 1.9-.4 1.6-.7-.6-1.1.3-.7.6-.7.9-.1 1.7-.3 2.5-.7 3.3-1.5 6.8-2.2 10.4-2.2.3 0 .3-.4.6-.4 1.6-.4 3.1-1.1 4.7-1.5L635 879c4.5-.8 8.9-2.1 13.2-3.7.6-.3 1.2-.4 1.9-.4 2.3.5 4.7.2 6.9-.7 1.8-.7 3.7-1.2 5.6-1.5 2-.3 4-.8 6-1.5l14.1-5.5c11.6-4.8 23.2-8.8 34.5-14.7 4.7-2.6 9.4-4.4 14.1-7 6.9-3.7 13.5-7.7 20.1-11.7.7-.5 1.4-.9 2.2-1.1 2.2-.6 4.3-1.5 6.3-2.6 2.8-.7 5-2.9 7.8-3.7 1.1-.3 2.2-.8 3.1-1.5.9-.8 1.8-1.4 2.8-1.8 4.1-1.5 8.1-3.3 11.9-5.5 2-.7 4-1.6 6-2.6 2.7-2 5.5-3.6 8.5-4.8 1.8-.8 3.4-1.7 5-2.9 2.1-.9 4.1-2.1 6-3.7.9-.7 2.2-.4 2.8-1.5 1.4-2 3.1-3.6 5-4.8 3.6-2.7 7.7-4.4 11.9-4.8 1.3 0 2.2-.7 2.2-1.8 0-1.5.9-1.8 2.2-2.6 2.2-1.1 4.1-2.2 6-3.3 2.8-1.5 5.6-2.6 8.5-4 1.7-.6 3.2-1.5 4.7-2.6.3 0 .6-.4.3-.7-.6-.7 0-1.5.6-2.2 1-.3 2-.8 2.8-1.5 0-.2-.1-.4-.3-.4l-2.8 1.1c-1.3 0-1.3-.4-.9-.4.6-1.1.9-2.2 2.2-2.9 1-.2 1.9-.9 2.5-1.8 1.3-.4 2.5-1.1 3.5-2.2l2.8-1.1c3.3-1.1 6.4-2.6 9.4-4.4h.3c3.1-1.1 6.3-1.8 9.4-2.9 4.4-1.5 8.5-3.7 12.9-4.8 3.2-.8 6.4-2.1 9.4-3.7 1.1-.8 2.2-1.4 3.5-1.8 6.3-1.8 12.6-3.7 18.8-6.2 7.2-2.8 14.1-6.5 20.7-11 1.4-.5 2.9-.6 4.4-.4 1 .4 2.1.1 2.8-.7.6-.4 1.3-1.1 0-1.5-.6 0-1.3-.4-.9-.7.6-1.5-.6-1.5-1.6-1.5.6-.7 1.9-1.1 2.5-1.8.9-.4.9-1.5.3-1.5-1.6 0-2.8-1.1-4.4-.7-1.8.9-3.7 1.3-5.6 1.1-.6 0-.9 0-1.3-.4-1.6-1.8-2.2-1.8-4.7-1.1-1.9 1-3.9 1.9-6 2.6-.8.1-1.5.3-2.2.7-2.2.9-4.4 1.6-6.6 2.2 1.9-1.5 2.8-2.9 4.4-2.9 1.1.1 2.2-.3 3.1-1.1 2.3-1.1 4.5-2.3 6.6-3.7.6.4 1.3.7 1.6-.4.3-1.1 1.3-1.5 2.2-2.2.9-.4 2.8-.4 2.2-2.2h.4c0 .4 0 1.1.9.7-.3.7-.3 1.5.9.7.9-.7 2.2-1.5 2.8.4.3-1.1-.3-1.8 0-2.9v-.8c0-1.5.9-1.8 2.5-1.8-.6.4-1.6.7-1.3 1.5s1.3 0 1.9 0c.5 0 1-.3 1.3-.7 1.5-.1 3-.9 4.1-2.2.3-.7 1.6-.4 2.2-1.1 1.6-.4 3.1-1.1 4.7-1.5 0-.4-.3-.7-.3-1.5.3-.4 0-.4 0-.7.3-.4.3-.4.6-.4.6-.4 1.3-.7 1.3-1.5-.5-.6-1.3-.7-1.9-.4-1.3.4-2.5 1.1-3.8 1.5-.5.2-1.1.2-1.6 0-.3 1.5-1.3.4-1.9.4-.6 1.1.3 1.1.6 1.8-.6-.1-1.3.1-1.9.4-2.4 1.3-4.9 2-7.5 2.2-.6 0 0-1.5-1.3-1.1-.9 0 .3 1.1-.6 1.1-.5-.8-1.3-1.2-2.2-1.1 0-.4.9-.7.6-1.1-.3-.4-.6 0-.9 0-.9.4-1.9 1.1-2.8 1.5-1.9.7-3.8 1.5-5.3 2.2-1.4.2-2.7.9-3.8 1.8-.3 0-.3 0-.6.4-1.6-1-3.7-.8-5 .7-.3.3-.6.4-.9.4-.9-.7-1.3.4-1.9.7-.3.4-.6 1.1-1.3.7-1.6-.4-2.8 1.1-4.1 1.5-.7 0-1.3.3-1.9.7-.6 1.5-1.3 1.5-2.5 1.1-1.1-.4-2.2.1-2.8 1.1-.6 1.1.9.7.9 1.1-1.6.9-3.3 1.6-5 2.2-.9.3-1.7.7-2.5 1.1-.7.4-1.5.4-2.2 0-2.9 0-5.7 1.3-7.8 3.7-.2.7-.9 1-1.5.8h-.1c-1-.2-2-.1-2.8.4-1.7.7-3.6.7-5.3 0 .3-.7.6-.4.9-.4 5.6-2.9 11.9-5.1 17.6-8.1 3.8-1.8 7.5-3.3 11.3-4.8 3.2-1.7 6.4-3.2 9.7-4.4 2.9-1.2 5.7-2.7 8.5-4.4-.6 0-.9 0-1.3.4-4.4 1.3-8.7 3-12.9 5.1-4.4 2.2-8.9 4-13.5 5.5-2.5 1.6-5.3 2.6-8.2 2.9-.7.1-1.3.4-1.9.7-4.7 2.6-9.7 4.4-14.4 6.6-2.3.9-4.6 1.7-6.9 2.2-.3 0-.9.4-1.3 0v-.7c-.3-.7.6-1.5.9-2.2 2-1.2 4.1-2.2 6.3-2.9l2.8-1.1c.9-.4 1.3-1.1.6-1.8 1.9-1.1 4.1 0 6-1.1-.6-.7-1.6 0-1.9-.4.5-.3.9-.7 1.3-1.1h.6c0 .6.4 1.1.9 1.1.6 0 1.6 0 1.3-.7-.6-1.1.3-1.1.6-1.8l.9-1.1c1.4 0 2.8-.3 4.1-.7v.4c1.3.7-.9 1.1-.6 1.8 1.3 0 2.2-.7 2.2-2.2 2.2.7 2.2.7 3.5-1.1 0-.4 0-.4.3-.4.9-.4 2.2-.4 2.5-1.8 1.2-.1 2.2-.6 3.1-1.5.6 0 .9-.4 1.6-.7.3 0 .9-.4.9-.7-.3-.4-.6-.4-1.3-.4-1.6.7-3.1.7-4.4 2.2-.9-.3-1.9-.1-2.5.7-1 .1-1.9.3-2.8.7h-.3c-.9-.4-1.3.4-1.9.7-.3.4-.6 1.1-1.3 1.1-.3-.4 0-1.1-.3-1.5-.6.4-1.2.7-1.9.7h-.3c-1-.1-1.9.7-2.2 1.8-.6-.4-1.3-1.1-1.6.4 0 .4-.3.7-.9.7-1.1-.2-2.2.4-2.8 1.5-.3.4-1.6.4-1.9.7-.3 0-1.9 0-.6 1.1.3.4-.3.4-.6.4-1.1-.4-2.4-.3-3.5.4-1.6-.7-2.2-.7-2.8 1.1 0 .4-.3.4-.9.7-1.3.4-1.9 0-2.5-1.5-.2.9-.8 1.6-1.6 1.8-.9.4-.6.7-.3 1.5-1.3 1.1-3.1.4-4.4 1.8-.3.4-1.3.4-1.3 1.1 0 .4.9.4 1.3.4.3 0 .6 0 .6.4-1.7 1.2-3.7 1.8-5.6 1.8-.3-.4-1.9-.4-.3-1.1.3-.4.3-.4 0-.7-.3 0-.6-.4-.9 0-.6.4-1.1.9-1.6 1.5-.6.7.3.7.9.7.6.4-.3.4 0 .7-.3 0-.3.4-.6.4-.3-.7-1.3-.4-1.3-1.1s0-1.5-.9-1.5c-1.3 0-.6 1.1-1.3 1.5-1.3.4-2.7.7-4.1.7-1.6-.4-1.3.7-1.6 1.5-.2 0-.5.2-.6.4h-.9c-1.5-.6-3.1 0-4.1 1.5-.3.4-.9 1.5-1.9 1.1-.3 0-.6 0-.6.4s.3.4.6.4h.9c.9 1.5.9 1.5-.9 2.6-.3-.4-.3-1.5-1.6-.7-1.3-.3-2.7-.4-4.1-.4-.3-.1-.7.1-.9.4-1.6.2-3.2.7-4.7 1.5-2.5 1.8-5.6 2.2-7.8 4 .3 1.5-.6 2.2-3.1 2.9 1.9-.7 1.9-.7 2.2-1.5-3 0-5.9.4-8.8 1.1 1.6-.8 3.1-1.9 4.4-3.3.9-1.1 2.2-1.1 3.1-1.8.3.7.9.7 1.9.4 1.3-.1 2.5-.7 3.5-1.8 2.5.4 4.1-1.8 6.6-2.2 1.6-.4 3.1-1.8 4.7-2.2.9-.7 2.2-.4 3.5-1.5-.9 0-1.6-.4-2.2-.4 1.2-.9 2.6-1.6 4.1-1.8.9-.4 0 .4.3.4-.3 0-.6.4-.3.4.5.3 1 .5 1.6.4 1.5-.8 3.1-1.4 4.7-1.8.3 0 .6 0 .6-.4s-.3-.4-.6-.4c-.3-.4-.6.4-.9 0l.3-.4c.3-.4 1.3-.4.9-1.1-.3-.4-.9 0-1.3.4l-5.6 2.2c.3-.4.6-.4.9-1.1.3-.4.6-.7 0-.4-.9 0-1.7.3-2.5.7-1.6.5-3.2 1.3-4.7 2.2-1.3.3-2.6.8-3.8 1.5-.3 0-.6 0-.6.4-3.3.8-6.5 2.3-9.4 4.4.6.7 1.3-.4 2.2-.4.6 0 1.3-.7 2.5-.7-5.6 3.7-11.8 6.2-18.2 7.3 4.1-2.6 8.5-3.3 12.2-5.9-1.7.1-3.4.6-5 1.5-1.6 1-3.3 1.7-5 2.2-3.8 1.5-7.8 2.9-11.6 4.4-4.1 1.5-7.8 3.7-11.9 4.8-.9.4-1.3 1.5-2.5 1.5-.9-1.1.9-1.1.9-1.8.9-.4 1.9-1.5 3.1-1.5.3 0 1.3.4.9-.4 0-.4-.3-1.1-1.3-.7-.8.3-1.7.4-2.5.4-1.5 0-3 .4-4.4 1.1h-.3c-1.1 0-2.1.3-3.1.7-.6.4-1.6.7-.3 1.1.9.4.9.7 0 1.1-3.1 1.1-6.3 2.2-9.1 2.9-1.9.4-3.8 1.1-6 1.5 4.5-3 9.4-5.2 14.4-6.6-.6-.3-1.2-.4-1.9-.4-2.4.4-4.8 1-7.2 1.8-2.9 1.1-6 1.5-9.1 1.1-.3 0-.6.4-.6-.4.2-.2.4-.3.6-.4.6.4.6-.4.9-.4 3.1-1.5 6.2-3.2 9.1-5.1 2.5-1.5 5-2.6 7.2-4 1.3-.5 2.6-1.3 3.8-2.2 2.8-1 5.4-2.8 7.5-5.1 4-1.2 7.5-3.9 10-7.7 3.1-1.1 5.6-3.7 8.8-4.4l.3-.4c-.6-1.5.9-1.1 1.6-1.5.9-.4 1.6-.7 2.5-1.1 2.6-1.6 5.3-2.8 8.2-3.7 4.7-1.8 9.4-2.9 14.1-5.1 1.2-.7 2.5-1.1 3.8-1.5 2-.5 4-1.3 6-2.2 1.4-1 2.9-1.7 4.4-2.2 4.7-1.8 9.7-2.9 14.4-5.1 1.3-.8 2.7-1.1 4.1-1.1 1.3.1 2.6-.3 3.8-1.1 1.2-.7 2.5-1.1 3.8-1.5 5-1.3 9.9-3 14.8-5.1 1.6-.6 3.2-1.3 4.7-2.2h-1.6c-2.7.8-5.4 1.4-8.2 1.8-2.1.2-4.2.6-6.3 1.1-5 1.5-10 2.9-14.8 4.4-.6-.4-1.9.4-1.9-.4-.3-.7.9-.7 1.6-1.1.3-.4.6-.4.9-.7-.6 0-1.3-.4-1.9-.4-.3 0-.9 0-.9-.4s.3-.7.9-.7c1.4-.9 2.8-1.9 4.1-2.9 1-.6 2-1 3.1-1.1.9.7 1.9 0 2.5-.4 2.5-1.4 5.1-2.5 7.8-3.3 2.5-.8 4.7-2.3 6.6-4.4-1.3-1-2.9-1.2-4.4-.7-2.8 1.1-5.6 1.8-8.5 2.9-1.2.7-2.5 1.1-3.8 1.5-.8 0-1.5.3-2.2.7h-.3c-1.1-2.4-3.6-3.4-5.6-2.2-1.3 0-2.5-.4-3.5.7-.8.4-1.8.3-2.5-.4-2.1-1.1-4.5-1.1-6.6 0-2.7.9-5.4 1.7-8.2 2.2l-9.4 2.2c-5.6 1.8-11.3 2.2-17 4.4-.9.4-2.2.4-3.1.7 5.1-2.6 10.5-4.4 16-5.5 5.3-1.8 11-3.3 16.3-5.1s11-2.6 16.6-4.4c-2.3-.6-4.7-.5-6.9.4-4.7 1.1-9.1 2.9-13.8 3.7h-.3c-1.6 0-3.1 1.5-4.7.7 1.1-.8 2.2-1.3 3.5-1.5 1.4.3 2.8-.3 3.8-1.5-.9-.2-1.9-.2-2.8 0-.9.4-1.9-1.1-2.8 0-1 .6-2 1.1-3.1 1.5-.9 0-2.2-.4-2.8.7 0-.7-1.9-.4-.9-1.5.3-.4.6-1.5 1.6-1.5.2 0 .5-.2.6-.4 0-.4-.3-.4-.3-.7-.3 0-.6 0-.6.4-.3 1.1-1.3.7-1.6.7-1-.1-2 .1-2.8.7-.3-1.1.6-1.5 1.3-2.6-.6.2-1.3.4-1.9.7-.3 0-.3-.4-.6-.4-.3-.4.3-1.1-.6-.7-.6 0-.6.4-.3 1.1.3.4-.3.4-.6.4-.2-.3-.6-.4-.8-.1l-.1.1c-.7-.1-1.5.1-2.2.4v-.4h.3c1.3-.4 1.6-1.8 2.5-2.2.6-.4-.3-1.1-.9-.7h-.3c.6-1.1 2.5-.4 3.1-1.5.6.4.9 1.1 1.9.7.3 1.8.3 1.8 2.5.7h.3c0 .7-.9.7-.6 1.1 1.4.3 2.9.4 4.4.4 0-.7 1.3-.7 1.6-1.5-1.6.7-.9-1.5-2.2-.7-.3-.7-1.3-.7-1.9-.7-.6 0 0-.4-.3-.7.6 0 1.6-.4 2.2 0 .8.6 1.9.5 2.5-.4 1.1-.2 2.3-.2 3.5 0 2.6 0 5.2-.8 7.5-2.2.7-.6 1.5-.6 2.2 0 .3.4.9.4 1.6-.4.3-.4.6-.7.9-.7 2.4-.2 4.7-1.2 6.6-2.9.3-.4.6-.4.6-1.1 0-.4-.6-.4-.9-.4-.5-.1-1.1.1-1.6.4-.6 0-.9 0-.9-.7-.3-.7.9-1.5.9-2.2.3 0 .6.4.9.4.8.7 2 .7 2.8 0 .6-.7 1.3-.7 2.2-1.1.9-.4 2.2-.4 2.2-1.8 0-.4.6-.4.6 0s.3.7.3 1.1c-1.9 1.2-3.7 2.6-5.3 4.4 1.6.4 2.2-.7 2.8-1.1 1.9-.4 3.8 0 4.4-2.2h.3c1.8-.8 3.7-1.1 5.6-1.1 1.3-.4 2.5-1.1 3.8-1.5.9.6 2.1.5 2.8-.4.6-.4 1.6-.7 1.6-1.5.3 0 .6-.4.9-.4.7-.4 1.4-.7 2.2-.7.9.4 1.6-.4 2.2-.7.6-.7.9-1.1 1.6-.4.3.4.6 0 .9 0 .3-.4-.3-.4-.3-.7 0-.7-.9-1.5.3-2.6h-1.3c.6-.4.9-.4 1.3-.7-.3-.4-.9.4-.9-.4 0-.4.6-1.1.6-1.1.6.4 1.6-1.5 1.9-.4.3 1.1 1.3.7 2.2.7 5-.7 9.8-2.5 14.1-5.5 1.5-1.4 3.4-2.2 5.3-2.2.3 0 .9 0 .9-.7-1.3 0-2.2.4-3.5.4-.6 0-1.3.4-1.3-.7-.3-1.1-.9-1.8-2.5-.7-.6.4-2.2 1.5-1.9-.7 0-.4-.3-.7-.6-1.1 1.9-1.1 4.1-1.1 6-2.2-1.4 0-2.7-.9-3.5-2.2 0-1.8-1.9-2.6-2.5-4-1.3-2.2-2.8-.4-4.4-.7h-.3c1.4-.5 2.6-1.7 3.1-3.3v-.3.4c.6.4 1.3-.7 1.9 0 .3.7.9.7 1.6.4.3 0 .6-.3.6-.7 0-.7-.6 0-.9-.4 0-.4.9-.4.9-1.1.3 0 .3 0 .6-.4.3.4.6.7.9.7 1.3 0 1.3.7.6 1.5-.3.4-.9.4-.6.7 0 .4.6.4.9 0 1.3-.5 2.6-1.3 3.8-2.2.3-.4 1.3-.4.9-1.1-.3-.7-.9 0-1.3 0 .3-.4.6-.4.6-.7.3-.4.6-.4.3-.7-.2-.3-.6-.4-.8-.1l-.1.1c-.6.4-1.6 1.1-.9 1.8-.9 0-2.8 1.8-2.8-.7.3 0 .6-.4.9-.4 1.6-.4 1.6-1.8 2.5-2.6.3 0 .3 0 .6-.4.6.1 1.3-.1 1.9-.4-.9 1.5-.9 1.5.6 1.5.3.7.9 1.5 1.6.7.9-.7 2.5-1.1 2.8-2.2 1.3-.4 2.5-1.5 3.8-1.1 2.8.4 4.1 0 5.3-2.2-.9-.4-1.9 1.1-2.2.7-1.3-1.5-2.8 0-4.1 0 .6-.4 1.3-.4 1.9-1.1 1.3-1.4 3-2.4 4.7-2.9.6-.4 1.6-1.1 2.2.4 0 .4.9 0 1.3-.4 1.6-1.5 3.5-2.2 4.7-3.3.6-.4 2.2-.4 1.6-1.5-.3-.7-1.6 0-2.5 0-.3 0-.3.4-.6.4-1.9.7-3.8 1.1-5.6 1.8 0-.2-.1-.4-.3-.4 1.9-1.1 3.5-2.6 5.3-3.7.3-.4 1.3 0 .9-.7 0-.7-.9-.4-1.3-.4s-.9.1-1.3.4c-3.7 1.8-7.6 3-11.6 3.3-.3.1-.7.2-.9.4 0 1.5-.9.7-1.3.7-.6-.4-1.3 0-1.9 0-2.2 0-4.1 1.5-6 .7-.3 0-.9.4-1.3 0-1-.6-2.2-.5-3.1.4-.3 0-.6.4-.9.4-2.2.4-4.4 1.1-6.6 1.5-.9 0-2.8.4-3.1 2.2 0 .4-.3.4-.6.4-1.9.3-3.8.8-5.6 1.5 0-.4.3-.7-.6-.7-1.6 0-2.5.4-3.1 1.8-2.4.7-4.8 1.2-7.2 1.5-1.6 0-3.1-.7-4.4.7h-.3c-.9-.4-1.9.4-2.8.4-.3 0-.9.4-.6.7.2.3.6.4.8.1l.1-.1c.9-1.1 2.2-.4 3.1-.7.6-.4.9.4.9.7 0 .7-.3.7-.9.7-.9-.4-1.9.4-1.9.7 0 2.2-1.6 1.5-2.8 1.5-1.2-.1-2.4.1-3.5.7-1.8 1-3.7 1.9-5.6 2.6-.3 0-.3-.4-.6-.4.6-.7 0-.7-.6-.7s-1.3.4-1.3 1.1.6 0 1.3 0c.3 1.1-.9.7-1.3 1.1-2.5.5-4.9 1.3-7.2 2.2-.9-.7-.9-1.1.3-1.5 1.4-.3 2.8-.8 4.1-1.5.3-.4.9-.7.3-1.1-.3-.4-.6 0-.9.4-.4.3-.8.4-1.3.4-2.2.2-4.3.8-6.3 1.8-.9.7-.9.7 0 1.1 0 .4-.9.7-.6 1.1 1.3 1.1-.6 1.1-.9 1.5h-1.3c-4.4 2.2-9.4 3.7-13.8 5.5 1.1-.5 2.1-1.4 2.8-2.6.3-.7.9-1.1 1.6-1.1 2.8-1.1 2.8-1.5 2.2-4 .6-1.1.9-2.2 2.5-1.8.5 0 .9-.5.9-1.1 0-1.5 1.3-1.8 2.2-2.6.6-.4 1.9-.4 1.3-1.5 0-.4 0-.4.3-.7 2.2-1.8 4.7-3.3 6.9-5.1 1.5-1 2.9-2.2 4.1-3.7 1.9-1.1 2.2-2.6 3.1-4-1.7.9-3.3 2-4.7 3.3-.2 0-.3.2-.3.4-1.3.4-1.6 1.5-2.5 1.8-.5 0-1 .3-1.3.7-1.6 1.5-3.4 2.7-5.3 3.3-1.6 0-3.1-.4-4.4 1.1-.4.3-.8.4-1.3.4-.6-.4 0-.7.3-1.1.6-.7 1.6-1.5 1.9-2.6.5-.3 1-.4 1.6-.4 1.3 0 5.3-2.6 5-3.7-.3-2.2 1.6-2.9 3.5-3.7.9-.4 2.5-.7 2.8-1.8 1.2-2.4 2.9-4.3 5-5.5 1.5-.4 2.7-1.8 2.8-3.7 0-1.6.9-2.9 2.2-3.3.6-.4.9-.4.6-1.1-.3-.7 0-1.8 0-2.6 1.9-1.8 2.5-4.4 4.1-6.2.3-.4.3-.7.3-1.5.6-1.5.3-3.7 1.9-4.8 3.5-2.2 4.7-5.9 6.9-8.8.7-1.2 1.6-2.3 2.5-3.3 1.3-1.1 1.6-2.2.9-3.3-1.1-1.5-1.1-3.7 0-5.1l.9-2.2c.6-1.5.6-2.9 2.2-4 1.3-.4 1.3-1.5 1.9-2.2 1.7-1.4 3.2-3.2 4.4-5.1.3-.7-.9-2.2 1.3-1.8 0-.2.1-.4.3-.4 1.9-1.5 1.3-3.7 1.9-5.1.3-1.5-.3-1.5-1.3-1.1-.3 0-.6.4-1.3.7-1.4 1-3.2.9-4.4-.4h-.8c-.9.7-1.6.4-2.5.4-1.1 0-2.2-.7-2.8-1.8-1.4-1.5-3.2-2.3-5-2.2-.3-.7-.6-.7-1.6-.4-.6 0-1.3.4-1.6 0-.3-1.1-1.6-1.8-1.3-3.3.6-2.6-1.6-2.2-2.8-2.9-.9-.4-.6 1.1-1.3 1.5-.2.2-.4.3-.6.4-1.5.8-2.8 1.7-4.1 2.9-1.4 1.2-3 1.9-4.7 2.2-1.5.2-2.9.8-4.1 1.8-.3.4-.9.7-1.3.4l-1.9-2.2c-.6-1.1-1.3-1.5-2.8-1.1-.9-.4-2.2.4-2.8-.4-.2-.2-.4-.2-.6 0-1 1.9-3.1 2.5-4.7 1.5.9-1.8 2.5-2.6 3.5-4.4 1.6.4 2.2 0 2.8-1.5.6-1.8 2.5-2.2 4.1-2.9.9-.4 1.9-.4 1.9-1.8 0-1.1.3-1.5.9-.4.3.4.6.4.6 0 1-1.8 2.4-3.2 4.1-4 .9-.7 2.2-1.5 2.2-2.9.6-.4.6-1.8 1.6-1.5 4.1.4 4.7-4.4 7.2-5.9.9-.7 1.9-2.2 3.1-3.3.7-.3 1.3-1 1.6-1.8 1.3-1.8 3.5-2.6 4.4-4.8.6-.4 1.9-1.1 1.3-2.2-.6-1.5-1.3 0-2.2 0-1.9 0-2.8 1.8-4.1 2.9-4.4 2.9-7.5 6.6-11.6 9.9-2 2.1-4.4 3.7-6.9 4.8-1.3.4-1.9.7-1.9 2.2-.9 1.1-1.8 2.1-2.8 2.9-2.5 2.2-5.6 3.3-7.5 6.2-2.5.4-3.8 2.9-6 4.4-1.2.3-2.4.8-3.5 1.5-.6.4-1.3 1.8-1.9.7s.6-1.5 1.3-2.2c.3-.4.9-.4 1.3-.7.6-.7 1.9-1.1 1.6-2.6 1.3-1.4 2.8-2.7 4.4-3.7 1.6-1.1 3.8-2.6 3.8-4.8 0-4 2.8-6.6 3.1-10.6.3-2.2 2.2-3.7 2.5-5.9 2.3-5.2 4.3-10.6 6-16.1.5-.7.7-1.6.6-2.6-.9-4 .9-8.1 0-12.5-.4-.8-.2-1.9.3-2.6.2-.3.4-.7.3-1.1.3-3.7-2.2-5.9-4.4-8.1-1.5-2.1-3.6-3.5-6-4-3-1.9-6.3-2.8-9.7-2.6-2 .1-4-.1-6-.7-4.2-1-8.5-1.5-12.9-1.5-4.2.3-8.5-.3-12.6-1.8 3.6-3.2 7.6-5.6 11.9-7.3 0 .7-1.6.7-.6 1.5.6.4 1.3-.4 1.9-.4.9-.4.6-1.1.3-1.5 2.7-.7 5.4-1.8 7.8-3.3 1-.6 2.1-.8 3.1-.7.9 0 1.6 0 1.9 1.5 0 .4 0 1.5 1.6 1.8 2.5.7 4.4-.7 6.6-1.1 6.8-1.6 13.2-5.4 18.2-11 .6-.7 1.6-.7 2.5-1.1 1.9-.7 4.4.4 6-2.2-2.2.4-4.1.7-5.6 1.1-.6 0-1.6.4-2.2 0 .6-1.1-.9-1.5-.6-2.2.5-.8 1.4-1.1 2.2-.7 1.3.4 1.9-.4 2.5-1.8-2.2.4-3.8.4-5.6.7-2.2.7-2.5-1.1-2.8-2.6-.6-1.5.9-1.5 1.6-1.8 2.8-1.1 5.3-2.2 8.2-3.3-2.2-.1-4.3.4-6.3 1.5-.6.4-1.6.7-1.9-.4-.3-1.1-1.6-1.8-1.9-2.9 2.5-.7 5-1.5 7.8-2.2.3 0 .9 0 .9-.7-.3-1.1-.6-.4-1.3-.4-2.2.7-4.1 1.5-6.3 2.2-1.3.4-2.5 1.1-2.5-1.5 0-.7-.6-1.1-.9-1.8-1.4-1.6-2.8-3.3-4.1-5.1-1.7-3.1-4.7-4.9-7.8-4.8-7.9-1.8-15.9-2.3-23.9-1.5-.6-.7-1.3 0-1.9-.4.2 0 .3-.2.3-.4.3-.4.9-.4 1.3-.7 1.8-1.2 3.1-3.3 3.3-5.7 0-.7.9-1.8 0-2.6-.6-.7-1.6 0-2.2.4-.4-.1-.9.1-1.3.4-.7-.3-1.5-.1-2.2.4-.9-.4-1.9-.4-2.8 0-.9-.7-1.6-2.6-2.8-1.5-.8.1-1.7-.1-2.5-.4-2.5-1.5-4.4.4-6.6.4H797c0-1.5-.7-2.8-1.9-3.3 1.5-1.2 3.2-2 5-2.6.9-.4 1.9-1.1 1.9-2.2 1.9-2.2 4.7-3.3 7.2-5.9-1.3 0-2.6.2-3.8.7-1.6-.7-2.5-1.1-.6-2.6.3-.4.9-.4.6-1.1 0-.7-.9-.7-1.3-.7h-1.6c0-.4.6-1.1 0-.7-2.2.4-4.4-.4-6.3.7-.6-1.8.3-4.4-1.6-6.2-.3-.4 0-1.8.9-2.2.3-.4.9-.7 0-1.1-1.3-.7-1.3-1.5-.9-2.6.3-1.1-.3-1.1-.9-1.1-1.9.4-1.9-1.5-3.1-2.6.9-1.1 0-3.3 1.3-4 1.3-.7.6-1.5.6-2.2 0-.4-.6-.7-.3-1.5 1.6-1.5 0-1.8-.9-2.2-.9-.4-2-.3-2.8.4-1.3 0-2.8.4-4.1.4-.6-.7-1.6.7-1.9-.4-.3-.7 0-1.5.9-2.2.3 0 .6-.3.6-.7.6-1.1.9-2.2-1.3-2.6-.9 0-2.2-.4-3.5-.4-.1-1.6.9-3 2.2-3.3 1.3-.3 2.4-1.4 2.8-2.9l1.9-1.1c.6-.7 2.2-1.1 1.3-2.6-.6-1.3-1.9-2-3.1-1.5-2.9-1.3-6-2-9.1-1.8-1.7-.5-3.6-.6-5.3-.4-.6 0-1.3.4-1.9-.4-.6-1.1-1.9-.7-2.8-1.1-.6-.4-1.3-.4-1.9 0 .3-.4.3-.4.6-.4.6 0 .6-.7.6-1.5 0-.7-.6-.4-1.3-.7-.6 0-1.3.7-1.9 0 1.7-.2 3.3-.8 4.7-1.8.3 0 .3 0 .6-.4.7.4 1.3.9 1.9 1.5 2.8 1 5.8.9 8.5-.4.2-.3.6-.4.8-.1l.1.1c.9 1.1 2.2.7 3.5.4.3 0 1.3 0 1.6.4 1.6 2.2 2.8 1.1 4.1 0 1.1-.7 2.3-1.3 3.5-1.8.6 0 1.3.4 1.9.4.6 1.1 3.1-.4 2.8 2.6 0 .4.3.4.6.4 3.1-.4 6.6 0 8.8-3.3.3-.7 1.3-1.1 1.9-1.8-.4.1-.9-.1-1.3-.4-3.2-2-7.1-2-10.4 0-3.4-1.5-7.3-.7-10 2.2 0-.3-.1-.5-.3-.7.7-.6.9-1.7.4-2.5 0 0 0-.1-.1-.1-.9-1.1-1.3-.4-2.2 0-.6.4-.9 0-.9-.7-.2-.7-.7-1.2-1.3-1.5.3-.4.9-.4 1.3-.7.6-.4.6-.7.6-1.5 0-.7-.6-.4-.9-.4-.6 0-.6 0 .3-.7.6-.4.3-1.5 1.3-1.5.6 1.3 2 1.8 3.1 1.1 1-.9 2.2-1.4 3.5-1.5v.4c-.9.6-1.5 1.7-1.6 2.9.9-.6 1.8-1.1 2.8-1.5.8.5 1.8.3 2.5-.4.8-1 1.8-1.6 2.8-1.8.9-.4.9-.7.3-1.5.3-.4 1.3-.7 1.3-1.5 2.5-.4 3.5-2.6 5-4 .4-.5.8-.8 1.3-1.1 0-1.1.3-2.6 1.6-2.6 1.9 0 1.3-.7 1.3-1.8v-1.1c0-.4.9-.7.3-.7-.3 0-1.3-.7-1.6-.4-.9 1.5-2.8 1.1-4.1 1.8-2.8 1.5-6.3 1.5-9.1 2.6-.6.4-1.9 0-1.6-.4.3-1.5-1.3-1.1-1.3-.7-.3 1.5-1.6-.7-1.9.4-.3 1.1-.9 0-1.3.4-.3-.7-.3-1.1-.6-1.8 1.3-1.5 3.1-.4 4.4-1.5 8.1-2.7 16-6.4 23.5-11 2-.9 3.9-2 5.6-3.3 1.6-.4 3.5-1.1 5-1.5 1.2.2 2.5-.2 3.5-1.1.6-.4.9-.7.6-1.1-.9-.7-1.6-1.5-1.6-2.6.6-.4 1.6-.7 1.9-1.8-2.8-.2-5.5.2-8.2 1.1-1.9.7-4.1 1.5-5.3-.4-.5-.4-1.1-.4-1.6 0-1.6.2-3.1.8-4.4 1.8-3.1 1.8-6.9 2.9-10 4.4-1 .5-2.1.7-3.1.7.6-1.1 1.9-1.8 2.5-2.9-1.2 0-2.3.3-3.5.7-2.2 1.1-4.5 1.9-6.9 2.6-1.6 0-2.8.7-4.1.7-.6-.2-1.4-.1-1.9.4-.6.4-.9 0-.9-.4.7-.4 1.4-.7 2.2-.7 1.3 0 1.3-.7 1.3-1.5.9-.4.9-1.5 1.9-1.8 1.3 0 1.6-.7 2.2-1.8h.6c1.6-1.1 3.3-1.9 5-2.6.6-.4 0-.7-.3-1.1 3.5-1.1 7.2-1.8 9.1-5.5 1.8-.7 3.5-2 4.7-3.7.3-.7.9-.7 1.6-.7h.3c.6 0 .9-.4 1.6-.7 2.3-1.2 4.4-2.8 6.3-4.8v-.1c.3-.7 1.3-.7 1.9-1.1 2.5-1.3 4.9-3 6.9-5.1.3-.4.6-.4.3-1.1-2.8.7-5.5 2.1-7.8 4-6 4.8-13.2 8.1-19.5 12.5-2.5 1.8-5.6 3.3-8.5 5.1-3.6 2.2-7.2 4.1-11 5.9-2.3 1.1-4.5 2.5-6.6 4-2.2 1.5-4.7 2.2-6.9 3.7-3.1 2.3-6.7 3.6-10.4 3.7-2.7-.3-5.4.2-7.8 1.5-.8-.2-1.7-.1-2.5.4-3.4 1.2-6.8 2.7-10 4.4-2.9 1.1-5.8 2.4-8.5 4-.3 0-.3.4-.6.4-.7-.1-1.5.1-2.2.4-2.4 1.2-4.7 2.6-6.9 4.1-4.1 1.8-8.5 2.6-12.6 4.4.6-.7 1.6-.7 2.5-1.5-2.4 1.1-5 1.8-7.5 2.2-1.8.2-3.6.5-5.3 1.1v-.4c0-.4-1.3-.4-.6-.7.6-.7 1.3-1.8 2.5-1.5.9-.4 1.9-.7 1.9-1.5 0-.4-.3-.4-.6-.7-.9 0-1.6.4-1.6 1.1-.3 0-.3.4-.9.4-.3 0-.3-.4-.3-.7 0-.4-.3-1.1.3-1.1 1.9-.5 3.8-1.3 5.6-2.2.7-.4 1.4-.7 2.2-.7.3-1.5-1.3-1.8-1.9-2.9.5-.3.9-.7 1.3-1.1.4-.8 1.2-1.1 1.9-.7.9.7 2.8.7.9 2.6-.3.4 0 .7.3 1.1 1.6-.4.6 1.1 1.6 1.5v.3H706c.3.7.6 1.5 1.6 1.1.6-.4 1.6 0 1.9-.7 1.5.2 3.1-.5 4.1-1.8.3-.4.6-.7 1.3-.4 1.6.7 3.1-.4 4.7-1.1.6-.4.9-.7.6-1.1-.3-.7-.9 0-1.3 0-1.6.4-3.1.7-3.8-1.1-.3-.7-.9-1.1-1.9-.4-.6.7-1.6.4-2.5.7-1.6.4-1.9-.4-1.3-1.5.3-.4.9-1.1.6-1.5-.6-1.1-.3-1.8.6-2.2 1.9-.7 3.1-3.3 5.6-2.6 0 .7-1.6.7-.9 1.5.6.7 1.3 0 1.9-.4.6.4 0 .7.3 1.1.3.4 1.3.4 1.3-.4s.6-1.5-.3-1.8c-.6 0-1.3-.4-1.9-.4.3-1.1.3-1.1-1.9-1.5.3-.7.9-1.1.3-1.8.9-1.1.9.7 1.6 0 .9 1.5 2.2 1.1 3.8.4 0 .7.3 1.1 1.3.7.9-.2 1.8.1 2.5.7 0 .4-.9 1.1.3 1.1 1 .1 2 .5 2.8 1.1.3 0 .6.4.9.4.6-1.5 2.2-1.5 3.1-2.6.6-1.1 1.3-1.5 2.2-1.1.6 0 .9.4 1.6 0 1.3-.4 2.8-1.1 3.1.7 0 .4.3.4.6.4s.6-.4.3-.7c-.3-.7.6-.7.9-1.5 1.6-1.5 3.6-2.3 5.6-2.2.3 0 .3-.4.6-.4.9-1.1 2.2 0 3.1-.7.6 0 .9-.7 1.9-1.1 0 1.1-1.3 1.8-.3 2.9h-.4c-.3.4-1.3 0-1.3.7.3 1.1 2.2 1.8 3.5 1.5.9-.4 1.3-.7.9-1.5-.6-1.1-2.5-2.2-.6-4 .3-.4-.6-.4-.3-.7 2.2 1.1 2.8.7 5-1.1 1-.9 2.4-.9 3.5 0l-2.8 1.1c.9 0 1.9 0 1.9.7 0 2.2 2.2 1.5 3.8 1.8-.6-.7-.3-1.5-.6-2.2 0-.3-.1-.5-.3-.7-.6-1.1 0-1.5.9-1.8.3.4-.6.7 0 1.5 3.8-1.8 3.8-1.8 3.5-2.6-.9 0-.9 1.1-2.2 1.1.4-.8.7-1.7.9-2.6.9.7 2.5 1.1 2.5.4.6-1.1 3.5-1.5 2.5-3.3 0-1.1-1.6-.7-1.9-1.5 0 0-.6 0-.6-.4.9-.4.9-1.8 2.5-2.2 1.6-.4 3.5-.4 4.4-1.8.3-.4.9-.4 1.3-.7.3-.4.6-.7.3-.7-.3-.4-.6 0-.9.4-.3-1.5-.3-1.5-1.3-1.5-1.3-.7-2.2 1.1-3.5.4-.9-1.1-2.2-.4-3.5-.7-1.6 0-1.6-.4-.3-1.5.3.7 1.3.7 2.2.7.6 0 1.1-.5 1.3-1.1 0-.4 0-1.1-.3-1.1s-1.3-.4-1.6.4h-.3c0-.4 0-1.1.6-1.1.3 0 .9 0 .6-.4-1.3-1.1 0-1.5.6-2.2 1.1-.6 1.7-1.9 1.6-3.3.2 0 .5-.2.6-.4.6.4 1.6-.7 2.2 0 0 .7.6 1.1 1.6.4.6-.3 1.2-.8 1.6-1.5 0-.4 0-1.1-.6-1.1-.3-.4-.3-.7.3-.7.6-.4 1.3-.4 1.9-.7h.9c1.6-.4 3.1.7 4.4-.7 1-1 2-1.9 3.1-2.7.9-.7-.3-1.5 1.3-1.8.9.4-.6 1.5 0 1.8-.9 1.5.6.7 1.3 1.1.7-.4 1.4-.7 2.2-.7 1.1-.4 2.2-1 3.1-1.8 1.6-1.1 0-1.8-.3-2.6 0 0-.3-.4.3-.7.6.4.9 1.1 2.2.7.6 0 1.3.4 1.6-.4.9-.4 1.9-.4 2.8-.7.3.7.3 1.8 1.6 1.1h.9c2.2.4 2.5-.7 2.8-2.2.3-.4.9-.7 1.3-1.1 3.1-1.5 5.3-3.7 5.3-5.5 1.2.1 2.3.3 3.5.7.3-.7 0-1.1-.3-1.5-.6-.4-.3-.7.6-1.1 1.3-.4 3.1-1.1 2.2-2.6-.3-.7.9-.7.9-1.5-.9-.4-1.9-.7-2.8.4-.3.4-.9.7-1.3.4-.3-.4-.6-.4-.6 0-.4 1-1.3 1.6-2.2 1.5-2.7.3-5.5.8-8.2 1.5-.3 0-.9.4-1.3-.4-.6-1.5-.6-1.5-1.9 0-.2 0-.3.2-.3.4h-.3c-.9 0-1.6-.7-2.5 0-.4.3-.8.4-1.3.4h-.9c-.6 0-1.3-.4-1.9-.4-1.9-.4-3.8-.3-5.6.4-1.1.3-2.3.4-3.5.4-1.5-.1-2.9.4-4.1 1.5-.6.4-.9.7-1.6 1.1l-4.7 1.1c.6-1.5-.9-1.1-1.9-1.1-.3-.7.6-.7.9-1.5l.9-1.1c1.3-.4 1.6-1.5 2.2-2.2 2.2-.7 3.1-2.2 2.8-4 1.3-1.1.6-2.6 1.9-3.7.3 0-.3-.7-.6-.4-1.6.4-3.1-.7-4.7 0-.3 0-.9 0-.9-.4.3-1.5-.6-1.8-1.9-1.8-.3 0-.6-.4-.9-.4.6-.7 1.6-1.5 2.2-2.2.9-.7 2.2-1.1 2.2-2.2s.9-1.1 1.6-1.1c.4.1.9-.1 1.3-.4 3.2-1.1 6.3-2.7 9.1-4.8.3.4-.6 1.1-.3 1.8.3-.7 1.3 0 1.3-1.1 0-.4.3-.7.9-.7 1.7-.5 3.4-1.5 4.7-2.9.6-.7 1.9-1.8 2.5-1.5 1.6.7 2.2-.4 3.1-1.1.3-.4.6-.7 1.3-.4.3.4.6 0 .6-.4s0-.7-.6-.4c-.7.1-1.3-.3-1.6-1.1.6-.4.9-1.1 1.6-1.8 1.3-.7 2.5-1.1 3.1-2.2l.3-.4c.9-.4.9-1.8 2.2-1.5 1.3-.7 1.6-2.6 3.5-1.5h.3c.6-1.1 1.3-.7 2.2-.4 2.2.4 3.8-1.1 3.5-2.9 0-.7-.6-1.5 0-2.6-3.7-5.7-4-6.4-5.3-6.4z"/>
    </g>
  </g>
  <g id="shape15_00000045618031696904216510000016631424873910523283_">
    <g id="Group_117_00000121968469799295107180000001757039215269000125_">
      <path id="alexandru-zdrobau-juESZxMhtXk-unsplash_00000091737860096417183090000007947309053583689385_" class="st2" d="M819.3 147.1c-1.6 0-3.5-.4-4.4 1.5v.4-.4c-3.1-.4-3.1 0-3.8.4-1.3 0-2.8-.7-3.8 1.5-.6-1.5-.6-1.5-1.6-.7s-1.6 1.1-1.9-.4c0-.4-.6-.4-.9-.7-1.4-.4-2.8-.3-4.1.4h-.3c-.9.4-1.6-.4-2.2-.4-1.3-.4-2.5-.4-3.8-.7-.9 0-.9-.4-.3-1.1.6-.7 2.2-.7 2.5-2.2-2.1.3-4.2.8-6.3 1.5-3.8 1.1-7.4 2.6-11 4.4-.9.4-2.2.7-3.1 1.1-.6.4-.9 0-.6-.7.6-.4.9-.7 1.6-.7.9 0 .9-.7.6-1.1 0-1.8-3.5.4-2.8-1.8h-.6c-.6.4-.9.7-1.6.7-1.2.8-2.7 1.1-4.1.7h.3c.9-.4 1.6-.7 1.6-1.5-1.3.4-2.2-.4-3.1.7-.9.4-2.2.7-3.1 1.1h-.9c-.6-.4-1.9.4-2.2-.4-.3.5-.8.7-1.3.7-1.7-.3-3.4.2-4.7 1.5-4.1 1.5-8.2 2.2-12.2 3.7-2.5 1.1-5.2 1.9-7.8 2.2-5.6 1-11 2.6-16.3 4.8-1.6.4-2.8 1.1-4.4 1.5-.3 0-.6.4-1.3.4-2.2-.4-4.5 0-6.6 1.1-1.2.7-2.5 1.1-3.8 1.5-4.1.7-8.2 2.6-12.2 3.7l-3.8 1.1c-2.4 1-4.8 1.7-7.2 2.2h-.6c-1.3 0-2.8.7-3.5-.7-.2-.6-.9-.9-1.4-.6-.2.1-.4.3-.5.6-.3.7-1.3 1.1-2.2 1.5 0-.4-.3-.4-.3-.7.8-2.3 2.9-3.7 5-3.3.8.2 1.7.1 2.5-.4-.3.4-.3 1.1-.9 1.1-.3 0-.9 0-.6.4 0 .4.6.4.6.4 1.3-.7 3.1-1.1 3.8-2.6.3-.7.3-1.1 1.3-1.1.6 0 .9-.4 1.3-1.1.9-.7 1.9-.4 2.8-.7 1.6 0 1.9-1.5 2.2-1.8.6-1.1-1.3-.4-1.6-1.1 1.9-.7 3.8-.4 5.6-1.1.6.4 1.3.4 1.9.7.9 0 1.9.7 2.5 0 .9-1.5 2.5-1.1 3.8-1.5.3 0 .3-.4.6-.4 1.9.4 2.8-1.8 4.7-1.5.3 0 .3-.7-.3-1.1-.6-.5-1.5-.6-2.2-.4 0-.4-.3-.4-.3-.7.8-1.1 1.9-1.7 3.1-1.5.9.7 1.9.4 2.8.4h2.2c0 1.1-1.3 1.1-1.6 2.2 1 .3 2-.2 2.5-1.1.3-.7.3-1.5 1.6-1.8.3.7 0 2.2 1.6 1.8 1.6-.4 3.5-.7 3.1-2.9.6.4 1.3 1.1 1.6 0 .3-1.1.9-1.5 1.9-.4.3.4.9 0 .6-.4-.9-1.5.9-.7 1.3-1.5.3 0 .9-.4 1.3-.4.6.7 1.3.4 1.9 0 1.6-.4 2.8-1.1 4.4-1.5 1.3-.4 2.2-1.1 1.9-2.2-.3-1.1-1.6-.7-2.5-.4-.2 0-.3.2-.3.4-.6-1.1-1.9 0-2.5-.7-1.3-1.5-2.2-.4-2.5.7-.6.7-1.4 1.2-2.2 1.5-.9 0-1.7.3-2.5.7-2 .8-4.2 1-6.3.7.3-.4.6-.4 1.3-.7 5-1.8 9.7-4 14.8-5.9 2.7-.9 5.3-2.1 7.8-3.3.3 0 .6-.4.9-.4 3.8-.7 6.6-3.7 10.4-4.8.3 0 .9-.7.6-1.1-1.9-.4-1.3-1.5-.6-2.9.3-.7 0-1.1-.6-1.8-1.3-.7-2.2.4-3.5.4-.2 0-.3-.2-.3-.4.3-1.5-1.6-.4-1.6-1.1.6-.4.9-.4 1.3-1.1.3-.4.3-.4.3-.7.9-1.1 1.9-2.2 1.3-3.7 1.9-2.2 4.4-3.7 6-5.9.3-.7 1.3-1.1 2.2-1.5 2.2-.4 4.1-1.8 5.3-3.9.3-.4.9-.7 1.3-1.5 2.5-2.4 4.8-5.1 6.9-8.1.6-.7.9-1.5 1.6-2.2.9-1.1 1.3-1.5 0-2.2-1.3-.7-1.3-1.5.3-2.2.6-.4 1.6-.7.9-1.5-.9-1.8-1.3-1.8-2.8 0-.6-1.1.3-2.6-.3-3.7-1.3-2.6.3-5.5-.3-8.1-.3-1.1-.6-1.5-1.9-1.1-.5.3-1.2.2-1.6-.4-.6-.4 0-.7.3-1.1 1.6-1.1 1.9-2.2 0-2.9-.7-.4-.9-1.4-.6-2.2.3-1.1-.3-1.1-1.3-.7-.7.2-1.5.4-2.2.7-1.6.7-3.3 1.1-5 1.5-1.8.3-3.6.8-5.3 1.5-2.6 1.5-5.3 2.5-8.2 2.9.3-.4-1.6.4-.6-.7l.9-1.1c.8-1.6 2.2-2.7 3.8-2.9 3.1-.7 6-2.2 9.1-3.3 1.9-.7 3.5-4 2.2-4.8-1.6-.7-.9-1.5-.6-2.6.3-.7.9-1.1.6-1.8-.9-1.8.6-2.6 2.2-3.3.9-.4 1.3-.7.9-1.8-.3-1.8-1.6-2.9-4.1-2.6 2.1-.9 3.2-3.7 2.4-6.2 0-.2-.1-.3-.2-.4-.3-1.1-.6-2.2-2.5-1.1-.6.2-1.3-.1-1.6-.7 0-.7.6-.7 1.3-.7.9 0 1.9 0 1.6-1.5-.3-.7.6-1.1 1.3-1.5s1.6-1.1.9-1.8c-.6-.7-1.6-.4-2.2 0-.6-.1-1.3.1-1.9.4-.3-.4-.9-.4-1.3-.7-1.3-1.1-3.1-1.5-3.8-3.3h.3c1.9-.7 4.1 0 5.6-1.5 1.3-1.1 3.5-1.1 4.4-2.9.3-.3.6-.4.9-.4.9 0 1.9.4.9-1.1.2-.4.4-.8.6-1.1.9-.7 1.9 0 3.1-1.1.3-.4.3 1.1 1.3 1.1.3-1.8 2.2-1.5 3.1-2.2 1-.6 2.1-.8 3.1-.4 1.9 0 2.5-1.8 3.5-2.6.6-.4 0-1.1-.3-1.5-.3-.4-.6-.4-1.3 0-.9.4-1.3 1.1-2.5 1.5a5.9 5.9 0 0 1 3.8-2.6c.6 0 1.3-.4.9-1.1 0-.7-.6-.7-1.3-.4-.3.4-.9.7-1.3 0V21c.6-.4 1.6-.4 1.6-1.1s-.9-.7-1.6-.4c-.4 0-.9-.1-1.3-.4-.9 1.1-2.5.7-3.5 1.5-1.9 1-3.9 1.5-6 1.5-.9.4-2.5 1.5-3.8.4l-.6.4c-.3 1.5-2.5 1.8-2.8 3.3-.1.4-.4.6-.7.5-.1 0-.1-.1-.2-.1-.3-1.5-1.6-.7-2.5-.4-.9 0-2.5 1.5-2.8-.4 0-.4-.3 0-.6 0-.9.4-1.3 0-1.9 0-.9 0-1.9-2.2-2.8 0 0 .4-.6.4-.9.4-1.3-.2-2.5-.2-3.8 0-3.6.2-7.1 1.2-10.4 2.9-1.6.2-3.2.6-4.7 1.1h-.6c-3.2.3-6.4 1.2-9.4 2.6.6-.7 1.9-1.1 1.6-2.2 1.3-.7 3.1 0 3.8-1.8.3-.7.6.7 1.3 0-.3-2.2-.3-2.2-3.1-1.1-.9.3-1.8.8-2.5 1.5-2.2 0-4.4 1.5-6.6 1.5-.3 0-.6.3-.6.7-.4.7-.9 1.2-1.6 1.5-3 1-6 2.3-8.8 4h-.3c-4.7 2.6-9.7 4-14.4 6.2-4.7 1.8-9.4 4-14.1 6.2-.9.4-1.9 1.1-2.8.7-1.8-.1-3.5.4-5 1.5-2.5 1.4-5 2.6-7.5 3.7-2.3.7-4.7 1.5-6.9 2.6-.6 0-.6.4-.6.7-.9.3-1.7.7-2.5 1.1-6 2.6-12.2 5.1-18.2 7.7-.6-.7 2.2-1.8.3-2.6-.9-.4-1.3-.4-1.9.4-.9 0-.6-1.1-1.6-1.1.3-.7.9-.7 1.6-.7 1.7-.4 3.3-1.2 4.7-2.2.6-.4 2.2-1.5 2.5-.7.6 1.1 1.3.4 1.6 0 2.4-1.7 4.9-3.1 7.5-4 .9 0 1.9-.4 2.5.4-.9-1.5-.6-1.8 1.3-2.2 1.9-.4 3.1-2.6 5.3-2.6.7 0 1.3-.3 1.9-.7 1.9-2.2 5.3-1.8 7.2-4h.3c.6 0 .9 0 .9-.4s-.3-.7-.6-.7c-1.6-.4-2.2.7-2.8 1.8-.6-.4-1.6-.7 0-1.5.3 0 .3-.4.3-.7.6-.7 1.3-1.8 2.8-1.5.8-.1 1.5-.4 2.2-.7.6 0 .9-.4 1.6-.4.6.4 1.6-.4 1.9.4.3.7-.9.7-1.3 1.5-.3.4-.9.4-.9.7 2.8 0 2.8 0 3.5-2.2.3-1.1.9-1.1 1.3-.4.9 1.5 2.2.7 3.5 0 1.6-1.1 2.2-2.9 4.4-3.3.3-.7 1.3-1.1 1.9-1.5 2.9-.3 5.6-1.6 7.8-3.7.9-.7.6-1.5-.6-1.8-.6-.1-1.3.1-1.9.4-.9 0-2.2.7-3.1.4-1.9-1.1-2.2 0-2.5 1.1-.3.7 0 1.5-1.3 1.5-1.4.1-2.8.6-4.1 1.5-1.5.7-3.1 1.2-4.7 1.5-1.3-1.5-1.9.4-2.8.7-.6 0-.6 1.5-.9 1.8-1.3 1.1-.3-.7-1.6-.7-2.3.4-4.5 1.6-6.3 3.3v.4l-.6.7c-.3 0-.3 0-.6-.4s.3-1.1-.6-1.1c-.6 0-.9.7-1.3 1.1-.3.7-.3 1.5-1.3 1.5-.3-.4-.9-1.1-1.6-.4-1.6 1.5-4.7 1.5-5.3 4-.3-.4-.3-.7-.6-.7-.9.4-2.5 0-2.2 1.8 0 .4-.6.4-.6.4h-1.4c-2.2.9-4.6 1.3-6.9 1.1-.6.4-1.9 0-1.6 1.5.3 1.8-.3 2.6-2.5 2.2-.7-.1-1.5.1-2.2.4-1.6 0-3.5-1.1-3.8 1.5h-.3c-1.9.4-3.5 1.1-5.3 1.5-.6 0-.9-.7-1.6 0s.6.7.6 1.5c-.5.1-1.1.2-1.6.4-.9-.4-1.3-.4-.9.4 0 1.1-.6 1.8-1.3 2.9-.9-.4-.3-1.1-.6-1.5s-.3-1.1-1.3-1.1c-.6 0-.6.7-.9 1.1-.3 1.1-.9 1.1-1.6.7-2.2-.7-3.1-.4-3.8 1.8-.9.7-1.3 1.8 0 1.8 2.2 0 .9.7.3 1.5-1.3 0-1.9-.4-1.9-1.5s-.6-1.5-1.6-1.8c-.6 0-1.6.4-1.3.7.6 1.1-.6 1.1-.9 1.8-2.2.7-4.4 1.2-6.6 1.5-.5-.4-1.1-.4-1.6 0-.6.4-2.2.4-1.6 1.1.9 1.8-.9 1.1-1.6 1.5-.6 0-1.3.4-1.9 0-1.3-.4-2.8 0-3.8 1.1-1.2 1.9-3 3.1-5 3.3-.3.7-.3 1.5.6 1.1 2.5-.7 2.2 1.1 2.8 2.2-.9.4-2.5 1.5-2.8.7-.6-1.5-3.1-.7-3.8-2.6-.3-1.1-1.6-1.5-2.8 0-1 .6-2 1.1-3.1 1.5-2.5.4-4.4 1.8-6.9 2.2-.2 0-.5-.2-.6-.4l-1.9 1.1c-.9 1.1-2.8.7-3.5 1.8 0 .7-.9 1.1-1.6 1.1-1.3 0-3.1-.7-3.5 1.5-.3.4-.8.6-1.3.7-2.2 1.1-2.5 1.5-.6 2.6 0 .4 0 .7-.3.7-.2 0-.3.2-.3.4-.3-.4-.6-.7-.9-.7-.9-.4-1.9-.4-2.8 0-1.6.7-3.1 1.1-4.7 1.8h-.6c-.6 0-1.1.3-1.6.7-.7.1-1.3.3-1.9.7-.3 0-.6.4-.9.4l-4.4 1.1c-4.7 2.2-10 2.9-14.8 5.5-1.1.7-2.4.7-3.5 0-.2 0-.3-.2-.3-.4 0-.4 0-.4-.3-.7-1.9-.4-.6-.7 0-1.5.3 0 .3 0 .6-.4.6 0 .9-.4 1.6-.4.6-.4 1.6-.4 2.2-.7h.3c.9-.4 1.9-.4 2.5-.7 1-.1 1.9.1 2.8.4h1.9c.9-.4 2.2-.4 3.1-.7 2.6-1.4 5.4-2.7 8.2-3.7.9.4 1.3-.7 1.9-1.1.3-.4.6-.4.9-.7.8-.3 1.6-.8 2.2-1.5 1.3-1.1 2.6-1.9 4.1-2.6h.9c.7.7 1.8.7 2.5 0 .5-.3 1-.6 1.6-.7 2.2.4 2.8-.7 3.1-2.2h.6c2.5.1 4.9-.8 6.9-2.6h.3c2.9-.4 5.7-1.7 8.2-3.7.4-.5 1-.7 1.6-.7.3 0 .9-.4 1.3-.4 1.3-.7 2.2-1.5 3.5-1.1.6-.4 1.3-.4 1.3-1.1s-.9 0-1.3-.4c-.6-.4-1.3-.4-.9-1.1 1.3-.7 2.8-1.1 4.1-1.8.6 0 .9.4 1.6.4.3 1.8 1.9.7 2.8.4 2.2-.7 4.4-1.8 6.6-2.6.3 0 .9-.4.9-.7-.3-.7-.9-.7-1.9-.7-.3 0-.6.4-.6 0 .3 0 .3 0 .6-.4s1.3-1.1 1.3-1.8c0-.4-.9-.4-1.6 0-1.9 1.1-4.4 1.8-6.3 2.9-.6 0-1.3.4-1.3-.4.6-.7.9-.7 1.9-.4.5 0 1-.3 1.3-.7 0-.4.3-.7 0-.7-.4-.4-.9-.4-1.3 0-3.5 1.5-6.9 2.6-10.4 4.4-.6.4-1.6.4-2.2.7-.6 0-.9.4-1.6.4-1.9 1.1-4.1 1.1-5.6 2.6-.9.4-1.9.4-2.8.7-1.4.9-2.9 1.4-4.4 1.5-1.1.1-2.2.5-3.1 1.1-.3 0-.6.4-1.3.4h-.9c-.3 0-.6.3-.6.7l-.6.7c-.9.7-2.8 0-2.2 2.2 0 .7 1.3.4 1.6.7l-.3.4c-.5.3-1 .4-1.6.4-.6-.7-1.3-2.2-2.5-1.5l-6.6 2.2c-.6.4-1.6.4-1.9 1.1 0 .4-.6.4-.9.4-1-.5-2.1-.2-2.8.7-2.4 1.9-5.1 3.2-7.8 4-.9.4-1.6-.4-2.5.4-.9 1.1-1.3.4-1.3-.4 0-.4.3-1.1-.6-1.1 0 0-.6 0-.6.4s-.6 1.1 0 1.5c.3.4.6.7 0 1.1-2.3 1.4-4.7 2.3-7.2 2.9-.9 0-1.9.4-2.2-.7 0-.7-.6-.4-1.3 0-.6.4-1.9.4-1.9 1.1 0 .7.9.4 1.3.4.3.4 1.6-.4 1.3.7-.9.7-2.2.7-3.1 1.5-1.9.7-3.8 1.8-5.6 2.6-2.8.4-3.1 0-3.5-2.2 0-.4-.3-.4-.9-.4-.6.4-1.3.4-1.6.7l-2.8 1.1c-.6.7-.6 1.5.6 1.5h3.5c-1.3 1.1-3.1 1.1-3.8 2.2-1.9 0-2.2 1.5-3.1 2.6-.2.3-.6.4-.8.1l-.1-.1c-.9-.7-.6-2.2-1.9-2.6-.6 0-1.3-1.1-1.9-.7-.9.7.3 1.5.3 1.8s.3.7.6 1.1c.3 1.1-.3 1.8-1.6 2.2-1.6.7-3.1 1.1-4.7 1.8-2.2.9-4.6 1.4-6.9 1.5 1.6-1.1 1.9-1.5 1.3-1.8-.9-.4-1.6.4-2.2.7-.6.7-.6 1.1 0 1.5-2.2.7-4.4 1.2-6.6 1.5-1.4.8-2.9 1.3-4.4 1.5-1.3 0-1.9 0-.6-1.5-.5-.1-1.1 0-1.6.4-1.3 1.1-2.8.7-4.1 1.5-.9.4-.9 2.6-2.8 1.5l-.3.4c-.3 1.1-.9 1.1-1.6.4-.3-.4-.3-.4-.6 0-1.5 1-3.3 1.6-5 1.5-.6 0-1.6.4-.6 1.1 1.3.7 1.6 1.8 3.1 2.2l.3.4c-1.6 1.5-3.7 2.1-5.6 1.5-1.4-.8-3.1-.7-4.4.4-.3.4-1.3.7-1.6.4-1.9-1.1-3.5.4-5 1.5-.6.4-1.3 1.5-2.2.4-.5-.3-1.2-.1-1.6.4-1.7 1.9-3.9 3.2-6.3 3.7-.7-.4-1.5-.1-1.9.7-.3.7.3 1.1.9 1.8.3.7.9.4 1.6.4 1-.5 2.1-.6 3.1-.4-1.3.7-2.5 1.5-.9 2.6.6.4 0 1.1-.6 1.5-.6.4-1.6.7-2.2 1.1-1.1.5-2.3.9-3.5 1.1.3-.7 1.3-1.1 0-1.5-1.3-.7-.3-1.1.6-1.1.6 0 .9.4 1.6.4.3 0 .6.4.9.4.3-.4 0-.7 0-1.1 0-1.8-1.6-2.6-2.8-3.7-.6-.4-1.4-.3-1.9.4-.9.7-1.8 1.2-2.8 1.5-1.6.7-3.1 0-4.7 1.5-.6.6-1.2 1.1-1.9 1.5-1.3.7-3.1.7-4.1 1.5-2.7 1.8-5.5 3.3-8.5 4.4-2.5.7-5 1.8-7.5 2.6-2.9.7-5.6 1.9-8.2 3.7-2 1.2-4.1 2-6.3 2.6-1.6.4-2.9 1.6-3.5 3.3-.6 2.6-1.6 1.1-2.5.7-.6-.4-1.6-1.1-1.9-.7-1.3 1.5-3.1 1.5-4.7 2.2-1.6 1.2-3.4 1.8-5.3 1.8-1.9-.4-1.6.7-1.9 1.5-.6 1.1.3 1.5 1.3 1.5.3 0 .9-.4.9.4-.3.4-.9.4-1.3.7-.3.4-.3.4-.3.7.2.3.6.4.8.1l.1-.1c1.3-1.5 2.8-1.1 4.4-1.5.9-.7 2.2-.7 3.1-1.5s.9 0 .6.7c-1.9 1.1-1.9 1.1 0 1.8v.4h-.5c-.6 0-.6.4-1.3.7-.9 0-1.6.7-2.2.7-1.3.4-2.2.7-3.5 1.1-.6.4-1.6.7-1.9.4-.6-.7-1.3-.4-2.2 0-.6.4-1.6.4-2.5.7.3-1.1 2.2-2.2 0-2.2h-3.5c-1.9.7-3.8.4-5.3 1.5-1.7 1-3.5 1.7-5.3 2.2-.3 0-.6.4-.9.4-1.9.7-3.5 2.6-5.6 2.2-.6 0-1.9.4-2.2 1.5-.6 1.1.6 1.1 1.3 1.5.9.7-.6.7-.3 1.1-1.9.7-.3 2.2-.9 3.3v.7c-.3 1.1-1.6 1.5-2.2 2.2-3.1.8-6.1 2.2-8.8 4-5.3 3.3-11.3 5.1-17 8.4-2.8 1.5-6 2.9-8.8 4.4-.8.4-1.7.8-2.5 1.1-2.4 1.2-4.9 2.1-7.5 2.6h-.3c-2.9 2.2-6.1 3.8-9.4 4.8-2.7.6-5.3 1.9-7.5 3.7-.6.6-1.4.9-2.2.7-3.2.6-6.3 1.8-9.1 3.7l-6.6 3.3c-.5.4-1.1.4-1.6 0-.9-.4-1.3 0-1.9.7-1.2 2.3-3.4 3.6-5.6 3.3-.8 0-1.5.3-2.2.7-.9 1-2.2 1.7-3.5 1.8-3.7.3-7.4 1.6-10.7 3.7-3.1 1.5-3.8 1.5-4.4-1.5 0-.4 0-1.1-.9-.7-.7 0-1.3.4-1.6 1.1-.3 1.1 0 1.8.9 2.6.9.7.6 1.1-.3 1.8-2.9 1.3-5.8 2.4-8.8 3.3-1.3.4-.6-.4-.3-1.1.6-1.5.3-1.8-1.3-1.8-.7.2-1.5.2-2.2 0-2.5-.7-1.6 1.5-2.2 2.2-.6 1.1 0 1.5.9 1.5 1.6.4 2.2 1.1.9 1.8-2 1.7-4.1 3.2-6.3 4.4-2.2 1.1-4.7.7-6.6 2.6-.3.4-1.6 1.1-2.2.7-1.8-.7-3.8-.7-5.6 0-2.8 1.1-5.8 1.5-8.8 1.5-.6 0-1.9 0-1.3 1.1.3.4-.6 1.1-1.6 1.1-2.2-.4-2.2-.4-2.5 1.8 0 .4.3 1.1-.6 1.5-.6.4-.9-.4-1.3-.7-.6-.7-1.6-2.2-2.2.4 0 .4-.3.4-.6.4-1.8-.1-3.6.5-5 1.8-2.2 1.6-4.5 2.9-6.9 4-1.9.7-3.8 1.1-5.6 1.8-2.6.9-5.1 2.1-7.5 3.3-3.8 1.9-7.7 3.5-11.6 4.8-4.3 1.7-8.4 4.1-12.2 7-1.6.6-3.1 1.7-4.1 3.3-1.5.9-2.7 2.2-3.8 3.7-1.8 2.8-4.6 4.5-7.5 4.8-1.6 0-3.1 1.2-3.8 2.9-.8 1.5-1.7 2.9-2.8 4-1.6 1.3-3 2.9-4.1 4.8-.4.8-1.1 1.3-1.9 1.5-.6 0-1.2.5-1.6 1.1-1.6 3.3-3.6 6.2-6 8.8-.6.7-.3 1.5.3 1.8 1.3 1.1 1.3 1.8-.6 2.6-1.9 1.1-2.2 1.5-.9 2.9.3.4.6 1.1.9 1.5s.3.7 1.3.4c1.6 0 1.6-1.5 2.5-2.6-.2 2.7.1 5.5.9 8.1.9 2.6-1.6 5.9.3 8.4-.6 2.2.3 3 2.8 2.2.6-.3 1.4-.2 1.9.4.3.4 0 .7-.3 1.5l-.9 1.1c-1.6 1.5-1.6 2.2 0 2.9 1.9.7 1.6 2.2 1.9 3.3.6 1.8.3 2.2 2.5 1.1 2.8-1.1 5.6-2.1 8.5-2.9 2.4-.3 4.8-.8 7.2-1.5-2.2 3.1-4.6 5.9-7.2 8.4-.9.7-.3 1.1.3 1.8 1.6 1.8 1.3 2.6-1.6 3.3-.3 0-1.3 0-.9.7-.2 1.6.6 3.1 1.9 3.7 1.3.4 1.6-1.1 2.5-1.5.6 1.8-.9 3.3-.3 5.1.6 1.9.6 4 0 5.9-.9 1.4-1 3.2-.3 4.8.3.4 0 1.1-.3 1.5-.3.4-.6 1.1 0 1.5s.9 1.1 1.9.4c.5-.4 1.1-.4 1.6 0 1.3.7 1.3 1.5-.9 2.9-1.9 1.1-1.6 2.2-.3 2.9 1.6 1.1 1.3 2.6.9 4-.3 1.5.6 1.5 1.6 1.5 1.3-.4 2.2-.4 3.5-.7 2.2-1.1 4.7-.4 6.6-1.5 4.4.2 8.8-.7 12.9-2.6 2.2-1 4.5-1.6 6.9-1.8 1.6.2 3.2-.5 4.4-1.8.7-.7 1.6-1.1 2.5-1.1 2-.1 4-.3 6-.7 1.6-.1 3.2-.9 4.4-2.2 1-1.6 2.7-2.3 4.4-1.8 1.4.3 2.8.1 4.1-.4.6 0 1.3-1.1 1.9-.7 2.7.6 5.4.2 7.8-1.1 1.9-1.1 3.5 0 5-.4 3.1 0 6.3-.7 9.1-.7 1.8 0 3.5-.5 5-1.5 2-1 4.1-1.7 6.3-1.8.3 0 .6 0 .6.4.9 1.1 2.2.7 3.5 0 2.5-.8 5-1.3 7.5-1.5 2.6-.6 5.2-.9 7.8-.7.9 0 .9-.7.9-1.5 0-1.1-.6-.4-1.3-.4-1.5.2-3.1-.1-4.4-1.1 1.5-.7 3.1-1.1 4.7-1.1.8 0 1.5-.4 1.9-1.1.8-1.4 2-2.3 3.5-2.6.3 0 .9 0 .9.4s-.3 1.1-.6 1.1c-2.2.4-2.2 1.8-2.8 2.9s-.6 1.8 1.3 1.8c1.3 0 2.2 1.5 3.5.7 2.2-1.5 4.4-.4 6.6-.7-.6.4-1.6.7-2.2 1.1-.3 0-.9.4-.6.7.9 1.1-.6 1.5-.9 1.8-1.9 1.5-4.4 1.1-6.3 1.8-5.2 1.7-10.4 3.8-15.4 6.2-7.8 4-15.7 8.4-23.9 12.5-3.1 1.5-6 2.9-9.1 4.8-1.6.6-3.1 1.6-4.4 2.9-.6.4-.9.4-1.6.7-4.1 1.7-8.1 3.8-11.9 6.2-5.7 2.6-11.2 5.9-16.3 9.9-6.6 3.8-12.6 8.8-17.9 14.7-.9 1.2-2 2.2-3.1 2.9-2.2 1.8-4.7 3.3-5 6.2-.7.4-1.3.9-1.9 1.5-.9 1.1-1.6 1.8-1.3 2.9-.3.4-.3.4 0 .7h.3l.3.4v.7c-.3.7-.3 1.1.6 1.1.6 0 .6.4.6.7.6 2.6 2.5 3.3 5.3 2.9.6 0 1.3-.4 1.9.4.3.4 1.3 0 1.9 0 3.5-.1 6.9-.6 10.4-1.5 2.2-.7 4.4-1.1 6.3-1.8 4.1-1.1 8.2-.7 12.6-1.5-.9.7-1.3 1.5-.9 2.2-.4 1.6-1.7 2.7-3.1 2.6-2.2-.4-2.5.7-2.5 2.2 0 .7 0 1.5.9 1.8.6 0 .6.7.3 1.1-1.3 1.5 1.6 2.9-.6 4.8 1.6 1.1-.3 2.9.6 4.4.5.6.6 1.6.1 2.2-.1.1-.2.3-.4.4-1 .7-2.2.7-3.1 0-.8-.7-1.9-1-2.8-.7 1.9 1.1 3.8 2.2 3.5 4.4 0 .7.6.7.9 1.1.3.4.9.4.9.7.5 2.3 1.1 4.5 1.9 6.6-.3.4 0 .7 0 1.1-3.5 1.1-6.9 1.8-10.4 2.9-5 1.5-9.7 4-15.1 5.1-3.9.8-7.7 2.1-11.3 4-1.3 1-2.6 1.7-4.1 2.2-7.5 2.2-15.1 4-22.3 6.6-8.6 3.1-16.7 7.7-24.2 13.6-1.8.4-3.6.4-5.3 0-1.2-.3-2.4-.2-3.5.4-.9.4-1.6 1.5 0 2.2.6.4 1.6.7 1.3 1.5-.6 2.2.9 2.2 2.2 2.6-.6 1.1-2.2 1.1-2.8 2.2-1.3.4-1.3 1.8-.3 1.8 1.9 0 3.5 1.8 5.3 1.5 2.2-.9 4.6-1.3 6.9-1.1.6 0 1.3 0 1.6.7 2.2 2.9 2.8 3.3 6 2.6 2.5-.7 4.4-2.6 6.9-3.3.9.2 1.8-.1 2.5-.7 2.5-1 5-1.7 7.5-2.2-1.9 1.8-3.1 4-5 3.7-1.3-.3-2.7.1-3.8 1.1l-7.5 4.4c-.9-.7-1.6-1.1-1.9.4-.3 1.5-1.3 2.2-2.5 2.9-.9.7-3.1.4-2.5 2.9-.3 0-.3 0-.6-.4 0-.7-.3-1.5-1.3-1.1.3-1.1.3-2.2-1.3-1.1-1.3.7-2.5 1.8-3.5-1.1-.3 1.5.6 2.9.3 4v.7c.3 1.8-.9 2.6-2.8 2.6.9-.4 1.9-.7 1.3-2.2-.6-1.5-1.6-.4-2.5-.4-.6 0-.9.4-1.3 1.1-1.9.4-3.8.7-4.7 2.9-.6 1.1-2.2.4-2.5 1.5-1.7.7-3.5 1.2-5.3 1.5l.3 1.8c-.3.4 0 .7 0 1.1-.3.4-.6.7-.9.7-.9.4-1.6.7-1.3 1.8.5.8 1.4 1.1 2.2.7 1.6-.4 2.8-1.1 4.4-1.5.7-.2 1.5 0 2.2.4.3-2.2 1.6-.4 2.5-.4.6-1.5-.6-1.8-.9-2.6.7.1 1.5-.1 2.2-.4 2.8-1.6 6-2.4 9.1-2.2.9.4 0 2.2 1.6 2.2 1.3 0-.3-1.5.9-1.5.6 1.2 1.7 1.9 2.8 1.8 0 .4-.9.7-.6 1.5.3.4.9 0 1.3 0 1.3-.7 2.2-1.1 3.5-1.8 2.2-.7 4.4-1.5 6.3-2.2 1.6-.7 3.1-.7 4.4-2.2.3 0 .3-.4.6-.4 1.6 1.8 4.2 1.8 5.8-.1.1-.1.1-.2.2-.2.3-.3.6-.4.9-.4.9 1.1 1.6 0 2.2-.7.3-.4.6-1.5 1.3-1.1 2.2.7 3.1-1.1 4.7-1.8.9 0 1.9 0 2.2-1.1.6-1.8 1.6-1.8 3.1-1.1 1.2.8 2.8.3 3.4-1.1.6-1.5-.9-1.1-1.3-1.8 1.9-1.1 3.9-1.9 6-2.6.9-.4 2.2-1.1 3.1-1.5.9-.7 1.9 0 2.8 0 3.5.4 6.9-1.3 9.1-4.4.3-.9 1.1-1.4 1.9-1.1 1 .6 2.1.6 3.1 0 2.1-.7 4.3-.4 6.3.7-.3.7-.6.4-.9.7-6.6 3.7-14.1 5.9-20.7 9.5-4.4 2.2-8.8 3.7-13.2 5.5-3.8 1.8-7.5 4-11.3 5.5-3.4 1.2-6.7 3-9.7 5.1h1.3c5.2-1.6 10.3-3.6 15.4-5.9 5-2.6 10.7-4.4 16-6.6 3.1-1.1 5.6-3.7 9.4-3.3.9-.1 1.7-.4 2.5-.7 5.3-3.3 11.3-5.1 17-8.1 2.7-1.1 5.4-1.9 8.2-2.6.6.4.9-.4 1.6 0v1.1c.6 1.5-.6 2.2-.9 3.3-2.3 1.4-4.7 2.5-7.2 3.3-1.1.3-2.2.8-3.1 1.5-.9.7-1.6 1.5-.6 2.6-2.2 1.1-4.7-.4-6.9.7.9 1.1 1.9.4 2.5 1.1-.4.6-1 1.1-1.6 1.5-.3 0-.3 0-.6-.4-.2-.8-.7-1.4-1.3-1.8-.6-.4-1.9 0-1.3.7.9 1.5-.3 1.8-.6 2.6-.3.4-.6 1.1-.9 1.5-1.7-.3-3.4-.1-5 .7v.4-.4c-1.6-1.5 1.3-1.5.6-2.6-1.6 0-2.5.7-2.2 2.9-2.8-1.5-2.8-1.5-4.1 1.1 0 .4-.3.4-.6.4-1.3.4-2.5.4-2.8 2.2-1.3.4-2.8.4-3.8 1.8-.6-.4-1.3.4-1.9.7-.6 0-1.3.4-.9 1.1.3.7.9.7 1.6.7 1.9-.7 3.8-.7 5-2.6 1.3.7 2.2 0 3.1-.7 1.2 0 2.3-.3 3.5-.7h.3c1.3.7 1.6-.4 2.2-1.1.3-.4.6-1.5 1.3-1.1.3.7 0 1.5.6 1.8.6-.4 1.6-.7 2.2-1.1h.3c1.9.4 2.2-1.1 2.5-2.6.6.7 1.6 1.8 1.9 0 0-.4.3-.7.9-.7 1.3.1 2.5-.5 3.5-1.5.7-.5 1.4-.7 2.2-.7.3 0 2.5.4.6-1.5-.3-.4.3-.4.6-.4 1.4.7 3 .7 4.4 0 2.2 1.5 2.8 1.5 3.5-1.5 0-.7.6-.7.9-.7 1.6-.4 2.5.4 3.1 2.6.3-1.8.6-2.2 1.6-2.6 1.3-.4.6-1.1.3-2.2 1.6-1.1 4.1 0 5.3-2.2.3-.4 1.3-.7 1.3-1.5-.3-.7-1.3-.7-1.9-.7-.3 0-.6 0-.6-.7 1.9-2.2 4.4-1.5 6.6-2.2.6.4 2.2.7.6 1.8-.3.4-.6.4 0 .7.3.3.6.4.9.4.7-.3 1.3-1 1.6-1.8.6.6 1 1.4 1.3 2.2.5 2.4 1.8 4.4 3.5 5.9.4.5 1 .7 1.6.7 3.8.7 7.2 1.8 11 2.2 5.9.8 11.8.3 17.6-1.5 3.8-1.1 7.5-2.6 11.3-3.7 2.5-.7 4.7-1.8 7.2-2.6 3.7-.8 7.4-2.1 11-3.7h.6c3.7-.5 7.3-1.7 10.7-3.7.6-.4.9-1.5 1.6-1.1 2.2.8 4.6.3 6.6-1.1.3-.4 1.3 0 1.6-.7.6-1.1 1.3-2.9 3.5-1.5.3.4 1.3.4 1.9.4 2.9-.8 5.8-1.4 8.8-1.8.6 0 .9 0 .9-.7-.3-1.5.9-1.1 1.6-1.1h1.9c-1.3.7-2.6 1.6-3.8 2.6-1.6.8-3 1.7-4.4 2.9-3.3 1.2-6.3 3.5-8.5 6.6-4.7 1.6-8.8 5.1-11.6 9.9-3.8 1.1-6.3 4.8-10.4 5.5-.2 0-.3.2-.3.4.9 2.2-.9 1.8-1.9 2.2-1 .3-2 .8-2.8 1.5-3 2.2-6.3 3.7-9.7 4.4-5.3 2.2-11.3 3.3-16.6 5.5-1.5.7-3.1 1.1-4.7 1.5-2.4.4-4.7 1.3-6.9 2.6-1.6 1.2-3.3 2.2-5 2.9-5.7 1.4-11.4 3.3-17 5.5-1.4.9-3.1 1.3-4.7 1.1-1.6-.4-3.3 0-4.7 1.1-1.3 1-2.8 1.6-4.4 1.8-5.9 1.1-11.7 2.9-17.3 5.5-1.9.7-3.7 1.7-5.3 2.9.9 0 1.3.4 1.9 0 3.1-.7 6.3-1.1 9.4-1.8 2.5-.4 5-.4 7.5-.7 6-1.5 11.9-2.9 17.6-4.4.6.4 2.2-.4 2.5 1.1.3 1.1-1.3 1.1-1.9 1.5l-.9 1.1c.9.4 1.6.7 2.5 1.1.6 0 1.3 0 1.3.7.1.5-.2 1-.7 1.1h-.3c-1.8 1-3.4 2.4-4.7 4-1.3.4-2.2 1.5-3.8 1.5-1.3-1.1-2.2-.4-3.1 0-3 1.7-6.2 3.1-9.4 4-2.9 1-5.5 2.9-7.5 5.5 1.5 1.5 3.5 2.1 5.3 1.5 3.1-1.1 6.6-1.8 10-2.9 1.6-.7 2.8-2.2 4.7-1.8 1 .3 2.1 0 2.8-.7h.3c1.1 3.4 4.3 5.1 7.2 4 1.3 0 2.8.7 4.1-.4 1-.5 2.1-.2 2.8.7 2.3 1.8 5.2 2.2 7.8 1.1 3.2-1 6.4-1.6 9.7-1.8 3.8-.7 7.5-1.1 11-2.2 6.6-2.2 13.5-1.8 20.1-4.4 1.3-.4 2.5-.4 3.8-.7-6.2 2.8-12.6 4.9-19.1 6.2-6.6 1.8-12.9 3.3-19.5 5.1-6.3 1.8-13.2 2.2-19.8 4.4 2.6 1.2 5.5 1.3 8.2.4 5.5-1.5 11-2.6 16.6-3.3h.3c1.9 0 3.5-1.8 5.6-.4-1.3.8-2.7 1.4-4.1 1.8-1.9-.7-3.1.4-4.7 1.5 1 .4 2.1.4 3.1 0 1.3-.4 2.5 1.8 3.5.4 1.1-1 2.4-1.6 3.8-1.8 1.3 0 2.5.7 3.5-.7.3 1.1 2.2 1.1 1.3 2.2-.6.7-.6 2.2-1.9 1.8-.3 0-.6.3-.6.7 0 .4.3.7.6 1.1.3.4.6 0 .9-.4.3-1.5 1.3-.7 1.9-.7 1.2.5 2.5.2 3.5-.7.3 1.5-.6 2.2-.9 3.7.7-.4 1.4-.6 2.2-.7l.6.7c.3.4-.3 1.5.9 1.5.6 0 .6-.7.3-1.5s.3-.7.6-.4c.6.4.9.4 1.3 0h2.8v.4h-.3c-1.6.4-1.6 2.2-3.1 3.3-.6.4.3 1.5 1.3 1.1.2 0 .3.2.3.4v.4c-.6 1.8-2.8.4-3.8 1.8-.9-.4-1.3-1.8-2.5-1.1-.6-2.6-.6-2.6-3.1-1.5-.2 0-.3-.2-.3-.4-.3-.7 1.3-.7.9-1.8-1.7-.7-3.5-1.1-5.3-1.1 0 1.5-1.3 1.1-1.9 1.8 1.6-1.1 1.3 2.2 2.8 1.5.6.9 1.6 1.3 2.5 1.1.9 0 0 .7.3 1.1-.9 0-1.9.4-2.5 0-.9-.9-2.2-.9-3.1 0-1.4.1-2.7-.1-4.1-.4-3-.4-6.1.3-8.8 1.8-.6.4-1.6 1.1-2.5-.4-.6-.4-1.4-.3-1.9.4-.3.5-.8.7-1.3.7-2.8.2-5.6 1.3-7.8 3.3-.3.4-.9.7-.6 1.5.3.7.6.7 1.3.7h1.9c.6 0 .9.4 1.3 1.1.3 1.5-1.3 1.8-.9 2.9-.3-.4-.9-.4-1.3-.7-1.3-1.1-2.5-1.5-3.5-.4-.7.7-1.6 1.1-2.5 1.1-1.3.4-2.5.4-2.5 2.2 0 .7-.6.4-.9 0-.3-.4-.3-1.1-.6-1.5 2.4-1.5 4.5-3.5 6.3-5.9-1.9-.7-2.5 1.1-3.5 1.1-2.2 0-4.7-.4-5.3 2.9l-.3.4c-2.2.4-4.1 1.8-6.6.7-1.6.7-3.1 1.1-4.7 1.8-.8-.9-2.1-.9-2.9.1-.1.1-.2.2-.2.3-.6.7-1.9.7-1.6 2.2-.3 0-.9.4-1.3.4-.9.4-1.9 1.1-2.8.7-.9-.4-1.9-.1-2.5.7-.6.7-.9 1.8-1.9.4-.2-.3-.6-.4-.8-.1l-.1.1c-.6.4.3.7.3.7.3 1.1 1.3 2.6 0 3.7.7-.1 1.5.1 2.2.4-.6.4-.9.7-1.3.7.3.7 1.3-.4 1.3.4-.1.6-.3 1.1-.6 1.5-.9-.7-1.6 1.8-2.5.4-.6-1.5-1.6-1.1-2.5-1.1-5.9.5-11.7 2.7-16.6 6.6-1.7 1.8-4 2.6-6.3 2.2-.5-.1-1 .2-1.3.7 1.3 0 2.8-.4 4.1-.4.9 0 1.3-.4 1.6 1.1.3 1.8 1.3 2.6 3.1 1.5.9-.4 2.5-1.8 2.5 1.1 0 .4.6 1.1.9 1.5-2.2 1.1-4.7 1.1-7.2 2.2 2 .3 3.7 1.9 4.4 4 .3 2.6 2.5 4.4 3.5 6.2 1.6 3.7 3.5.7 5.3 1.5h.3c-1.9 1.1-3.1 2.2-3.5 4.4v.4-.4c-.6-.4-1.6.7-2.2 0-.3-1.1-1.3-1.1-2.2-1.1-.3 0-.6.3-.6.7 0 .7.9.4 1.3.7 0 .7-1.3.7-1.3 1.5-.3 0-.3.4-.6.4-.3-.4-.6-1.1-1.3-1.1-1.6-.4-1.6-1.1-.9-2.2.3-.4.9-.7.6-1.1-.4-.4-.9-.4-1.3 0-1.3 1.1-3.1 1.5-4.7 2.6-.3.4-1.3.4-.9 1.5s1.3 0 1.9.4l-.9 1.1c-.3.4-.9.7-.3 1.1.3.4.9.7 1.3.4.6-.7 1.9-1.1.9-2.6 1.3.4 3.1-2.2 3.5 1.5-.3 0-.6.4-1.3.4-1.9.4-1.6 2.6-2.8 3.7-.3 0-.3 0-.6.4H103c.9-1.8.9-1.8-.9-2.2-.6-.7-1.6-2.2-2.2-1.5-.9 1.1-2.8 1.1-3.1 2.9-1.6.4-3.1 1.8-4.4 1.5-3.5-1.1-5-.7-6.3 2.6 1.3.4 1.9-1.5 2.8-.7 1.9 2.2 3.5.4 5 .7-.8.3-1.5.8-2.2 1.5-1.3 2-3.2 3.3-5.3 3.7-.9.4-1.9 1.5-2.5-.7-.5-.4-1.1-.4-1.6 0-1.6 1.8-3.8 2.6-5.3 4.4-.6.7-2.5.4-1.9 1.8s1.9 0 3.1.4c.3 0 .6-.4.9-.4 2.2-.7 4.4-1.5 6.9-2.2 0 .4.3.4.3.7-2.2 1.5-4.1 3.3-6.3 4.8-.3.4-1.6 0-1.3 1.1.3.7.9.4 1.6.4h1.3c4.4-2.1 9.1-3.1 13.8-2.9.4-.1.8-.2 1.3-.4 0-1.8 1.3-1.1 1.6-.7.7.5 1.5.6 2.2.4 2.5.4 4.7-1.5 7.2-.4.6 0 .9-.4 1.6 0 1.3 1.5 2.5.7 3.8 0 .3 0 .9-.4 1.3-.4 2.8-.4 5.3-.7 8.2-1.1 1.3 0 3.5-.4 3.8-2.6 0-.4.3-.7.6-.7 2.2 0 4.4-1.5 6.6-1.5.3.4-.3 1.1.9 1.1 1.9 0 3.1 0 3.8-2.2 2.8-.7 5.6-1.1 8.5-1.1 1.9 0 3.8 1.1 5.3-.4.2 0 .5.2.6.4 1.3.7 2.2-.4 3.5 0 .3 0 .9-.4.6-1.1-.3-.7-.9-.4-1.3 0-.9 1.5-2.5.4-3.8.7-.9.4-.9-.7-.9-1.1 0-.7.3-1.1 1.3-.7.9.5 2 .2 2.5-.7 0-2.9 1.9-1.8 3.1-1.8 1.4.1 2.8-.1 4.1-.7 2.1-1.3 4.3-2.3 6.6-2.9l.6.7c-.6.7 0 1.1.6 1.1s1.6-.7 1.3-1.5c-.3-1.1-.9 0-1.6 0-.3-1.5.9-1.1 1.3-1.5 3-.4 5.9-1.2 8.8-2.2 1.3 1.1 1.3 1.8-.3 2.2-1.8.1-3.5.7-5 1.8-.3.7-1.3 1.1-.3 1.8.6.4.9 0 1.3-.4.3-.4 1.3-.4 1.6-.4 2.5-.7 5.3 0 7.5-1.8.9-.7 1.3-1.1 0-1.8 0-.7.9-1.1.6-1.8-1.6-1.8.6-1.5.9-2.2.6 0 .9.4 1.6 0 5.3-2.6 11-4 16.3-6.2-1.3.7-2.4 1.9-3.1 3.3-.3.8-.9 1.3-1.6 1.5-3.5 1.5-3.5 1.5-2.5 5.5v.4c-.6 1.5-.9 2.9-2.8 2.6-.6 0-1.1.5-1.3 1.1.3 2.2-1.3 2.9-2.5 3.7-.6.4-2.2.4-1.6 2.2 0 .4-.1.8-.3 1.1-2.5 2.2-5.3 4-7.8 6.6-1.8 1.3-3.4 2.9-4.7 4.8-1.9 1.1-2.5 3.7-3.5 5.9 1.9-1 3.7-2.4 5.3-4l.3-.4c1.3-.4 1.9-1.8 2.8-2.6.6 0 .9-.7 1.3-1.1 1.6-2.1 3.6-3.7 6-4.4 1.8.7 3.7.4 5.3-.7.3-.4.9-.7 1.3-.4.6.7 0 1.1-.3 1.8-.6 1.1-1.9 1.8-1.9 3.3-.6.3-1.2.4-1.9.4-1.6 0-6 3.3-6 4.8.3 3.7-1.9 4-3.8 5.1-1.3.7-2.8.7-3.1 2.6-.6 3.7-3.1 5.5-5.6 7.3-2 .6-3.3 2.7-3.1 5.1.1 2.1-.9 4-2.5 4.8-.6.4-1.3.7-.9 1.5.6 1.1.3 2.6.3 4-2.2 2.6-2.5 6.2-4.4 8.8-.3.4 0 1.5-.3 1.8-.3 2.2 0 5.1-1.9 6.6-4.1 2.9-5 8.1-7.5 12.5-.9 1.5-1.3 3.3-2.5 4.4-1.3 1.1-1.6 3.2-.6 4.8 1.5 2.2 1.6 5.3.3 7.7l-.9 3.3c-.6 1.8-.6 4.4-2.5 5.5-1.3.4-1.3 1.8-2.2 2.6-2 1.9-3.6 4.3-4.7 7-.3.7 1.3 3.3-1.6 2.6 0 .3-.1.5-.3.7-2.2 1.8-1.3 5.1-1.9 7.7-.3 1.8.6 1.8 1.6 1.5.5 0 1-.3 1.3-.7 1.8-1.2 4-.7 5.3 1.1l.6.4c.9-1.1 1.9-.4 3.1 0 1.5.4 2.8 1.5 3.8 2.9 1.6 2.4 4 3.8 6.6 4 .6 1.1.6 1.1 2.2.7.6 0 1.6-.7 1.9.4.6 1.8 2.2 3.3 1.9 5.1-.6 3.3 2.2 3.7 3.8 4.8 1.3.7.6-1.5 1.3-2.2.2-.2.4-.3.6-.4 1.7-1 3.3-2.2 4.7-3.7 1.6-1.3 3.4-2.3 5.3-2.9 1.9-.4 3.8-.4 5-2.2.4-.5 1-.6 1.5-.1l.1.1c1 1 1.8 2.2 2.2 3.7.3 1.5 1.7 2.4 3 2 .2 0 .3-.1.4-.2 1.3.4 2.5-.4 3.5 1.1.2.3.6.4.8.1l.1-.1c1.3-3.3 3.1-2.6 5.6-1.5.9 1.1 1.6 2.5 1.9 4 .9 2.6 3.5 2.9 6 .7-1.9.7-2.8-.7-3.8-.7 0-2.2 1.3-1.5 2.5-1.8.6-.4 2.5 2.6 2.2-.7 0-.4.6-.4.9-.7.6 0 .6.4.6.7 1.6 3.3 2.5 3.7 5.6 2.6 1.2-.5 2.5-.6 3.8-.4 1.3.7 3.1-.4 3.1-1.8 0-2.2.9-2.6 2.2-2.9.3.7 1.6.4 1.9 1.5.3 2.6 1.6 1.1 2.8.7.3 0 .6-1.1.9-.7 1.9 1.8 2.5-.4 3.1-1.1.6-.7 1.6-1.5 1.6-2.6 0-.4-.3-.4-.6-.4-1.1-.2-2.2.4-2.8 1.5-.3 0-.3.7-.3.7-.3.4-.6.7-1.3.4-1.3-.7-2.8-.7-3.8-2.2-.3-.4-.6-.7 0-1.1 1.3.7 2.5-.7 3.8-.4 1.6.4 2.8-.7 4.4-.7.3.4.6.4.6 0 0-1.8.9-1.5 1.9-1.8 1-.2 2.1-.2 3.1 0 1.3 0 1.6 1.1.6 1.8-1.2.8-1.7 2.5-1.3 4 0 .4-.9.4-.3 1.1.4.4.9.4 1.3 0 1.6-1.8 3.8-1.5 5.6-2.6 1.3.4 1.6-.4 1.9-1.5 0 2.2.6 2.9 1.9 1.5.5 0 1 .3 1.3.7.3.4.9.7 1.3 1.1s.9.7 1.3 0c.9-2.2 2.8-1.8 4.4-2.2 1.3 1.8 1.9 2.2 2.8.4-.6-1.1 0-1.5.9-1.8 1.2-.1 2.3-1 2.8-2.2.6-.7 0-1.5-.3-1.8 0-.4-.3-.7-.3-1.1.9-.7 0-1.8 0-2.6 1.1-.9 2.5-1 3.8-.4h.3c.3.4.3.7.3 1.5-.9 2.2-.9 2.2 1.6 2.2h1.4c-.3.4-.3 1.1-.6 1.5-.3 1.1.3 1.5.6 2.2 1.3-1.5 2.2.7 3.5 0 .6-.4.6-1.5 1.3-1.8-.3 2.6 1.6 3.7 3.1 5.1 1.3 1.4 3 2.2 4.7 2.2 2.5 1.1 5.2 1.5 7.8 1.1 1.7-.2 3.4-.2 5 0 3.5.4 7.1.4 10.7 0 3.5-.4 6.9-.3 10.4.4-3.3 2.3-6.8 4.2-10.4 5.9 0-.4 1.3-.7.6-1.1-.3-.4-.9.4-1.6.4-.9.4-.6.7-.3 1.1-2.3.6-4.5 1.6-6.6 2.9-.9.6-1.9.8-2.8.7-.6 0-1.3 0-1.6-.7 0-.4 0-1.1-1.3-1.1-1.9 0-3.8.4-5.6 1.1-5.7 1.5-11.1 4.5-15.7 8.8-.6.7-1.3.7-2.2 1.1-1.6.7-3.5 0-5 1.8 1.9-.4 3.5-.7 4.7-1.1.6 0 1.3-.4 1.9 0-.6.7.6 1.1.3 1.5-.3.7-1.3.7-1.9.7-.9 0-1.8.5-2.2 1.5 1.6-.2 3.2-.6 4.7-1.1 1.9-.7 1.9.4 2.2 1.5.3 1.1-.9 1.1-1.6 1.5-2.2.7-4.7 1.8-6.9 2.6 1.8-.3 3.6-.8 5.3-1.5.6-.4 1.3-.7 1.6 0 .3.7 1.3 1.1 1.6 1.8l-6.6 2.2c-.3 0-.9 0-.6.7 0 .7.6.4.9 0 1.9-.7 3.5-1.1 5.3-1.8 1.3-.4 2.2-.7 1.9.7 0 .4.3.7.6 1.1.9 1.1 2.5 1.8 3.1 2.9 1.6 2 4 3 6.3 2.6 6.5.7 13 .4 19.5-.7.6.4 1.3-.4 1.6 0h-.3c-.3 0-.9.4-1.3.4-1.5.8-2.6 2.5-2.8 4.4 0 .7-.6 1.1 0 1.8.6.2 1.4.1 1.9-.4.3.1.7-.1.9-.4.6.4 1.3-.4 1.9-.4.8.1 1.7-.1 2.5-.4.6.4.9 1.5 2.5.7h1.9c1.9.7 3.8-.7 5.3-.7h.3c-.3 1.1.6 1.5 1.6 2.2-1.4 1-2.9 1.7-4.4 2.2-.9.4-1.6.7-1.6 1.8-1.6 1.8-4.1 2.6-6.3 4.8 1.1-.2 2.1-.4 3.1-.7 1.3.4 2.2.7.3 1.8-.3 0-.6.3-.6.7 0 .4.6.4.9.4h1.3c0 .4-.6.7 0 .7 1.8 0 3.6-.4 5.3-1.1.3 1.5-.6 2.9.9 4 .3.4 0 1.1-.9 1.5-.3 0-.6.4-.3.7.9.4.9 1.1.6 1.8-.3.7 0 .7.6.7 1.6-.4 1.6 1.1 2.5 1.5-.9.7-.3 2.2-1.3 2.9-1.3.4-.6 1.1-.6 1.5 0 .4.6.4 0 .7-1.3 1.1 0 1.1.6 1.5.7.3 1.5.1 2.2-.4 1.3-.4 2.2-.4 3.5-.7.3.4 1.3-.7 1.6 0 .3.4-.3 1.1-.6 1.5-.3 0-.3.4-.6.4-.6.7-.9 1.8.6 1.5h2.8c-.3 1.2-1 2.1-1.9 2.6-1 .4-1.9 1.2-2.5 2.2-.6.3-1.1.7-1.6 1.1-.6.4-1.9.7-1.3 1.8.6.8 1.6 1.1 2.5.7 2.5.7 5 .8 7.5.4 1.4.4 2.9.4 4.4 0 .6 0 1.3-.4 1.6 0 .6.7 1.6.4 2.2.7 1.9.4 4.4-1.5 5.6.7h.6c2.5-.7 5-1.1 7.5-1.1 3-.8 6-1.4 9.1-1.8 2.4-.2 4.9-.7 7.2-1.5.9-.4 2.2-.4 3.1-.7 5-1.5 10-1.8 15.1-3.7 1.9-.1 3.8-.6 5.6-1.5 4.4-1.1 8.5-2.9 12.9-4 3.6-.7 7.2-1.8 10.7-3.3 4.7-1.5 9.7-2.6 14.4-4.4 5.3-1.8 10.7-3.3 16-4.8 1.5-.7 3.1-1.2 4.7-1.5 4.1-.5 8.1-1.7 11.9-3.3 1 .2 2 .1 2.8-.4 4.4-1.5 8.8-2.9 13.5-4 1.9-.4 3.8-1.1 5.6-1.5 1.4-.3 2.8-.8 4.1-1.5h.6c1.3.7 2.8.4 3.8-.7.3-.4.9-.4 1.3-.7.3 0 .3-.4.6-.4s.3 0 .6-.4c1.6-.7 3.3-1.1 5-1.5 1.3 0 2.5-.7 3.8-.7 1 .2 2.1.2 3.1 0 1.6-.9 3.3-1.4 5-1.5.9 0 .9-.7 1.3-1.5 2.5-1.1 5.3-1.1 7.8-2.2h.6c.9 1.1 1.6-.4 2.2-.7.3 1.1-.3 2.2.3 3.3.7 1.3.8 3 .3 4.4 0 1.4.2 2.7.6 4-.3.4-.6.4-.9.7h-.3c-1.7-.1-3.3.4-4.7 1.5-1.6.7-2.8 0-4.4.4-5.7.6-11.3 2-16.6 4.4-.9.4-1.9.7-2.8.7-2.8.2-5.6.9-8.2 2.2-.6 0-1.3.4-1.9.4-4.5.8-8.9 1.9-13.2 3.3-.9-.9-2.2-.9-3.1 0-1.6.7-3.8.4-5 1.8-.2.3-.6.4-.8.1l-.1-.1c-.9-.7-1.6-.4-2.5.4-.3.5-.8.7-1.3.7-1.8-.1-3.5.4-5 1.5-.9.4-1.6.4-2.5.7-2.4.7-4.8 1.2-7.2 1.5-2.2.4-4.4 1.1-6.6 1.5h-.3c-1.3.2-2.6.6-3.8 1.1-.3 0-.9.4-.6 1.1.2.3.6.4.8.1l.1-.1c.6 0 .9-.4 1.6 0 1.4.8 2.9 1.1 4.4.7 1.6-.7 2.8-1.8 4.4-1.1 1.6 0 3.1-.5 4.4-1.5v-.2c-1.9-1.5.6-1.1.9-1.8h1.3c2.8.1 5.6-.5 8.2-1.8 1.2-.7 2.5-.9 3.8-.7-.6.7-1.6.7-2.2 1.5l2.8-1.1c.6-.4 1.3-.4 1.9 0 1.5.7 3.2.1 4.1-1.5.3-1.1 1.6-1.1 2.2-1.1.9 0-.6.7.3 1.1 1.6-1.8 4.1-1.5 6.3-2.2.9-.4 1.9-.7 3.1-1.1-.8 1-1.6 1.8-2.5 2.6 1.6 0 2.8.7 3.8-.4 1-.7 2-1.2 3.1-1.5.6.8 1.6 1.1 2.5.7 1.9-.4 1.6-1.8 2.5-2.6.8-.8 1.8-1.3 2.8-1.5 1.2-.1 2.4-.6 3.5-1.5l2.8-1.1c.3.4 1.6-.4 1.6.7 0 .7-.6 1.1-.9 1.5l4.7-1.1c.6-.4 1.9-.4 1.9-1.1s-1.3 0-1.6-.4v-.6c1.9.7 2.5-1.5 4.4-1.5 1.3.4 2.2-.4 3.5-.7 1.3-.4 2.2-.4 1.3 1.1-.3.4-.3.7 0 .7.3.4.6-.4.9-.4 1.6-.7 1.9-2.2 3.5-2.6 2.1 1 4.4.5 6-1.5.3-.4.9-.7 1.3-.4.3 0 .3.4.3.7-.9 1.5.3.7.9.7 1.3 0 1.3 1.1 1.3 1.8 0 2.2 1.3 1.5 2.5.7 2-1 4.1-1.6 6.3-1.8.6 0 1.3-.4 1.9-.4 3-1.6 6.2-2.8 9.4-3.7.5-.1.9-.3 1.3-.7.8-1.1 1.9-1.6 3.1-1.5 1.3-.4 2.5-.7 3.5-1.1 2.5-.4 4.7-2.2 7.2-2.6 2.5-.5 4.8-1.6 6.9-3.3 2.5-.6 5-.9 7.5-1.1 1.6-.4 2.5-1.5 4.1-1.8.4-.1.9.1 1.3.4.6 1.1.6 1.1 1.9 1.1h1.3c0 1.1 0 1.8-1.6 1.5-1.3-.4-4.1 1.8-4.7 3.3 2.5-1.5 5.3-1.5 7.5-2.9 2.1-1 4.3-1.7 6.6-2.2.6 0 1.9-.4 1.6-.7-.6-1.1.3-.7.6-.7.9-.1 1.7-.3 2.5-.7 3.3-1.5 6.8-2.2 10.4-2.2.3 0 .3-.4.6-.4 1.6-.4 3.1-1.1 4.7-1.5l17.6-4.4c4.5-.8 8.9-2.1 13.2-3.7.6-.3 1.2-.4 1.9-.4 2.3.5 4.7.2 6.9-.7 1.8-.7 3.7-1.2 5.6-1.5 2-.3 4-.8 6-1.5l14.1-5.5c11.6-4.8 23.2-8.8 34.5-14.7 4.7-2.6 9.4-4.4 14.1-7 6.9-3.7 13.5-7.7 20.1-11.7.7-.5 1.4-.9 2.2-1.1 2.2-.6 4.3-1.5 6.3-2.6 2.8-.7 5-2.9 7.8-3.7 1.1-.3 2.2-.8 3.1-1.5.9-.8 1.8-1.4 2.8-1.8 4.1-1.5 8.1-3.3 11.9-5.5 2-.7 4-1.6 6-2.6 2.7-2 5.5-3.6 8.5-4.8 1.8-.8 3.4-1.7 5-2.9 2.1-.9 4.1-2.1 6-3.7.9-.7 2.2-.4 2.8-1.5 1.4-2 3.1-3.6 5-4.8 3.6-2.7 7.7-4.4 11.9-4.8 1.3 0 2.2-.7 2.2-1.8 0-1.5.9-1.8 2.2-2.6 2.2-1.1 4.1-2.2 6-3.3 2.8-1.5 5.6-2.6 8.5-4 1.7-.6 3.2-1.5 4.7-2.6.3 0 .6-.4.3-.7-.6-.7 0-1.5.6-2.2 1-.3 2-.8 2.8-1.5 0-.2-.1-.4-.3-.4l-2.8 1.1c-1.3 0-1.3-.4-.9-.4.6-1.1.9-2.2 2.2-2.9 1-.2 1.9-.9 2.5-1.8 1.3-.4 2.5-1.1 3.5-2.2l2.8-1.1c3.3-1.1 6.4-2.6 9.4-4.4h.3c3.1-1.1 6.3-1.8 9.4-2.9 4.4-1.5 8.5-3.7 12.9-4.8 3.2-.8 6.4-2.1 9.4-3.7 1.1-.8 2.2-1.4 3.5-1.8 6.3-1.8 12.6-3.7 18.8-6.2 7.2-2.8 14.1-6.5 20.7-11 1.4-.5 2.9-.6 4.4-.4 1 .4 2.1.1 2.8-.7.6-.4 1.3-1.1 0-1.5-.6 0-1.3-.4-.9-.7.6-1.5-.6-1.5-1.6-1.5.6-.7 1.9-1.1 2.5-1.8.9-.4.9-1.5.3-1.5-1.6 0-2.8-1.1-4.4-.7-1.8.9-3.7 1.3-5.6 1.1-.6 0-.9 0-1.3-.4-1.6-1.8-2.2-1.8-4.7-1.1-1.9 1-3.9 1.9-6 2.6-.8.1-1.5.3-2.2.7-2.2.9-4.4 1.6-6.6 2.2 1.9-1.5 2.8-2.9 4.4-2.9 1.1.1 2.2-.3 3.1-1.1 2.3-1.1 4.5-2.3 6.6-3.7.6.4 1.3.7 1.6-.4s1.3-1.5 2.2-2.2c.9-.4 2.8-.4 2.2-2.2h.4c0 .4 0 1.1.9.7-.3.7-.3 1.5.9.7.9-.7 2.2-1.5 2.8.4.3-1.1-.3-1.8 0-2.9v-.8c0-1.5.9-1.8 2.5-1.8-.6.4-1.6.7-1.3 1.5.3.7 1.3 0 1.9 0 .5 0 1-.3 1.3-.7 1.5-.1 3-.9 4.1-2.2.3-.7 1.6-.4 2.2-1.1 1.6-.4 3.1-1.1 4.7-1.5 0-.4-.3-.7-.3-1.5.3-.4 0-.4 0-.7.3-.4.3-.4.6-.4.6-.4 1.3-.7 1.3-1.5-.5-.6-1.3-.7-1.9-.4-1.3.4-2.5 1.1-3.8 1.5-.5.2-1.1.2-1.6 0-.3 1.5-1.3.4-1.9.4-.6 1.1.3 1.1.6 1.8-.6-.1-1.3.1-1.9.4-2.4 1.3-4.9 2-7.5 2.2-.6 0 0-1.5-1.3-1.1-.9 0 .3 1.1-.6 1.1-.5-.8-1.3-1.2-2.2-1.1 0-.4.9-.7.6-1.1s-.6 0-.9 0c-.9.4-1.9 1.1-2.8 1.5-1.9.7-3.8 1.5-5.3 2.2-1.4.2-2.7.9-3.8 1.8-.3 0-.3 0-.6.4-1.6-1-3.7-.8-5 .7-.3.3-.6.4-.9.4-.9-.7-1.3.4-1.9.7-.3.4-.6 1.1-1.3.7-1.6-.4-2.8 1.1-4.1 1.5-.7 0-1.3.3-1.9.7-.6 1.5-1.3 1.5-2.5 1.1-1.1-.4-2.2.1-2.8 1.1-.6 1.1.9.7.9 1.1-1.6.9-3.3 1.6-5 2.2-.9.3-1.7.7-2.5 1.1-.7.4-1.5.4-2.2 0-2.9 0-5.7 1.3-7.8 3.7-.2.7-.9 1-1.5.8h-.1c-1-.2-2-.1-2.8.4-1.7.7-3.6.7-5.3 0 .3-.7.6-.4.9-.4 5.6-2.9 11.9-5.1 17.6-8.1 3.8-1.8 7.5-3.3 11.3-4.8 3.2-1.7 6.4-3.2 9.7-4.4 2.9-1.2 5.7-2.7 8.5-4.4-.6 0-.9 0-1.3.4-4.4 1.3-8.7 3-12.9 5.1-4.4 2.2-8.9 4-13.5 5.5-2.5 1.6-5.3 2.6-8.2 2.9-.7.1-1.3.4-1.9.7-4.7 2.6-9.7 4.4-14.4 6.6-2.3.9-4.6 1.7-6.9 2.2-.3 0-.9.4-1.3 0v-.7c-.3-.7.6-1.5.9-2.2 2-1.2 4.1-2.2 6.3-2.9l2.8-1.1c.9-.4 1.3-1.1.6-1.8 1.9-1.1 4.1 0 6-1.1-.6-.7-1.6 0-1.9-.4.5-.3.9-.7 1.3-1.1h.6c0 .6.4 1.1.9 1.1.6 0 1.6 0 1.3-.7-.6-1.1.3-1.1.6-1.8l.9-1.1c1.4 0 2.8-.3 4.1-.7v.4c1.3.7-.9 1.1-.6 1.8 1.3 0 2.2-.7 2.2-2.2 2.2.7 2.2.7 3.5-1.1 0-.4 0-.4.3-.4.9-.4 2.2-.4 2.5-1.8 1.2-.1 2.2-.6 3.1-1.5.6 0 .9-.4 1.6-.7.3 0 .9-.4.9-.7-.3-.4-.6-.4-1.3-.4-1.6.7-3.1.7-4.4 2.2-.9-.3-1.9-.1-2.5.7-1 .1-1.9.3-2.8.7h-.3c-.9-.4-1.3.4-1.9.7-.3.4-.6 1.1-1.3 1.1-.3-.4 0-1.1-.3-1.5-.6.4-1.2.7-1.9.7h-.3c-1-.1-1.9.7-2.2 1.8-.6-.4-1.3-1.1-1.6.4 0 .4-.3.7-.9.7-1.1-.2-2.2.4-2.8 1.5-.3.4-1.6.4-1.9.7-.3 0-1.9 0-.6 1.1.3.4-.3.4-.6.4-1.1-.4-2.4-.3-3.5.4-1.6-.7-2.2-.7-2.8 1.1 0 .4-.3.4-.9.7-1.3.4-1.9 0-2.5-1.5-.2.9-.8 1.6-1.6 1.8-.9.4-.6.7-.3 1.5-1.3 1.1-3.1.4-4.4 1.8-.3.4-1.3.4-1.3 1.1 0 .4.9.4 1.3.4s.6 0 .6.4c-1.7 1.2-3.7 1.8-5.6 1.8-.3-.4-1.9-.4-.3-1.1.3-.4.3-.4 0-.7-.3 0-.6-.4-.9 0-.6.4-1.1.9-1.6 1.5-.6.7.3.7.9.7.6.4-.3.4 0 .7-.3 0-.3.4-.6.4-.3-.7-1.3-.4-1.3-1.1 0-.7 0-1.5-.9-1.5-1.3 0-.6 1.1-1.3 1.5-1.3.4-2.7.7-4.1.7-1.6-.4-1.3.7-1.6 1.5-.2 0-.5.2-.6.4h-.9c-1.5-.6-3.1 0-4.1 1.5-.3.4-.9 1.5-1.9 1.1-.3 0-.6 0-.6.4s.3.4.6.4h.9c.9 1.5.9 1.5-.9 2.6-.3-.4-.3-1.5-1.6-.7-1.3-.3-2.7-.4-4.1-.4-.3-.1-.7.1-.9.4-1.6.2-3.2.7-4.7 1.5-2.5 1.8-5.6 2.2-7.8 4 .3 1.5-.6 2.2-3.1 2.9 1.9-.7 1.9-.7 2.2-1.5-3 0-5.9.4-8.8 1.1 1.6-.8 3.1-1.9 4.4-3.3.9-1.1 2.2-1.1 3.1-1.8.3.7.9.7 1.9.4 1.3-.1 2.5-.7 3.5-1.8 2.5.4 4.1-1.8 6.6-2.2 1.6-.4 3.1-1.8 4.7-2.2.9-.7 2.2-.4 3.5-1.5-.9 0-1.6-.4-2.2-.4 1.2-.9 2.6-1.6 4.1-1.8.9-.4 0 .4.3.4-.3 0-.6.4-.3.4.5.3 1 .5 1.6.4 1.5-.8 3.1-1.4 4.7-1.8.3 0 .6 0 .6-.4s-.3-.4-.6-.4c-.3-.4-.6.4-.9 0l.3-.4c.3-.4 1.3-.4.9-1.1-.3-.4-.9 0-1.3.4l-5.6 2.2c.3-.4.6-.4.9-1.1.3-.4.6-.7 0-.4-.9 0-1.7.3-2.5.7-1.6.5-3.2 1.3-4.7 2.2-1.3.3-2.6.8-3.8 1.5-.3 0-.6 0-.6.4-3.3.8-6.5 2.3-9.4 4.4.6.7 1.3-.4 2.2-.4.6 0 1.3-.7 2.5-.7-5.6 3.7-11.8 6.2-18.2 7.3 4.1-2.6 8.5-3.3 12.2-5.9-1.7.1-3.4.6-5 1.5-1.6 1-3.3 1.7-5 2.2-3.8 1.5-7.8 2.9-11.6 4.4-4.1 1.5-7.8 3.7-11.9 4.8-.9.4-1.3 1.5-2.5 1.5-.9-1.1.9-1.1.9-1.8.9-.4 1.9-1.5 3.1-1.5.3 0 1.3.4.9-.4 0-.4-.3-1.1-1.3-.7-.8.3-1.7.4-2.5.4-1.5 0-3 .4-4.4 1.1h-.3c-1.1 0-2.1.3-3.1.7-.6.4-1.6.7-.3 1.1.9.4.9.7 0 1.1-3.1 1.1-6.3 2.2-9.1 2.9-1.9.4-3.8 1.1-6 1.5 4.5-3 9.4-5.2 14.4-6.6-.6-.3-1.2-.4-1.9-.4-2.4.4-4.8 1-7.2 1.8-2.9 1.1-6 1.5-9.1 1.1-.3 0-.6.4-.6-.4.2-.2.4-.3.6-.4.6.4.6-.4.9-.4 3.1-1.5 6.2-3.2 9.1-5.1 2.5-1.5 5-2.6 7.2-4 1.3-.5 2.6-1.3 3.8-2.2 2.8-1 5.4-2.8 7.5-5.1 4-1.2 7.5-3.9 10-7.7 3.1-1.1 5.6-3.7 8.8-4.4l.3-.4c-.6-1.5.9-1.1 1.6-1.5.9-.4 1.6-.7 2.5-1.1 2.6-1.6 5.3-2.8 8.2-3.7 4.7-1.8 9.4-2.9 14.1-5.1 1.2-.7 2.5-1.1 3.8-1.5 2-.5 4-1.3 6-2.2 1.4-1 2.9-1.7 4.4-2.2 4.7-1.8 9.7-2.9 14.4-5.1 1.3-.8 2.7-1.1 4.1-1.1 1.3.1 2.6-.3 3.8-1.1 1.2-.7 2.5-1.1 3.8-1.5 5-1.3 9.9-3 14.8-5.1 1.6-.6 3.2-1.3 4.7-2.2H897c-2.7.8-5.4 1.4-8.2 1.8-2.1.2-4.2.6-6.3 1.1-5 1.5-10 2.9-14.8 4.4-.6-.4-1.9.4-1.9-.4-.3-.7.9-.7 1.6-1.1.3-.4.6-.4.9-.7-.6 0-1.3-.4-1.9-.4-.3 0-.9 0-.9-.4s.3-.7.9-.7c1.4-.9 2.8-1.9 4.1-2.9 1-.6 2-1 3.1-1.1.9.7 1.9 0 2.5-.4 2.5-1.4 5.1-2.5 7.8-3.3 2.5-.8 4.7-2.3 6.6-4.4-1.3-1-2.9-1.2-4.4-.7-2.8 1.1-5.6 1.8-8.5 2.9-1.2.7-2.5 1.1-3.8 1.5-.8 0-1.5.3-2.2.7h-.3c-1.1-2.4-3.6-3.4-5.6-2.2-1.3 0-2.5-.4-3.5.7-.8.4-1.8.3-2.5-.4-2.1-1.1-4.5-1.1-6.6 0-2.7.9-5.4 1.7-8.2 2.2l-9.4 2.2c-5.6 1.8-11.3 2.2-17 4.4-.9.4-2.2.4-3.1.7 5.1-2.6 10.5-4.4 16-5.5 5.3-1.8 11-3.3 16.3-5.1s11-2.6 16.6-4.4c-2.3-.6-4.7-.5-6.9.4-4.7 1.1-9.1 2.9-13.8 3.7h-.3c-1.6 0-3.1 1.5-4.7.7 1.1-.8 2.2-1.3 3.5-1.5 1.4.3 2.8-.3 3.8-1.5-.9-.2-1.9-.2-2.8 0-.9.4-1.9-1.1-2.8 0-1 .6-2 1.1-3.1 1.5-.9 0-2.2-.4-2.8.7 0-.7-1.9-.4-.9-1.5.3-.4.6-1.5 1.6-1.5.2 0 .5-.2.6-.4 0-.4-.3-.4-.3-.7-.3 0-.6 0-.6.4-.3 1.1-1.3.7-1.6.7-1-.1-2 .1-2.8.7-.3-1.1.6-1.5 1.3-2.6-.6.2-1.3.4-1.9.7-.3 0-.3-.4-.6-.4-.3-.4.3-1.1-.6-.7-.6 0-.6.4-.3 1.1.3.4-.3.4-.6.4-.2-.3-.6-.4-.8-.1l-.1.1c-.7-.1-1.5.1-2.2.4v-.4h.3c1.3-.4 1.6-1.8 2.5-2.2.6-.4-.3-1.1-.9-.7h-.3c.6-1.1 2.5-.4 3.1-1.5.6.4.9 1.1 1.9.7.3 1.8.3 1.8 2.5.7h.3c0 .7-.9.7-.6 1.1 1.4.3 2.9.4 4.4.4 0-.7 1.3-.7 1.6-1.5-1.6.7-.9-1.5-2.2-.7-.3-.7-1.3-.7-1.9-.7-.6 0 0-.4-.3-.7.6 0 1.6-.4 2.2 0 .8.6 1.9.5 2.5-.4 1.1-.2 2.3-.2 3.5 0 2.6 0 5.2-.8 7.5-2.2.7-.6 1.5-.6 2.2 0 .3.4.9.4 1.6-.4.3-.4.6-.7.9-.7 2.4-.2 4.7-1.2 6.6-2.9.3-.4.6-.4.6-1.1 0-.4-.6-.4-.9-.4-.5-.1-1.1.1-1.6.4-.6 0-.9 0-.9-.7-.3-.7.9-1.5.9-2.2.3 0 .6.4.9.4.8.7 2 .7 2.8 0 .6-.7 1.3-.7 2.2-1.1.9-.4 2.2-.4 2.2-1.8 0-.4.6-.4.6 0s.3.7.3 1.1c-1.9 1.2-3.7 2.6-5.3 4.4 1.6.4 2.2-.7 2.8-1.1 1.9-.4 3.8 0 4.4-2.2h.3c1.8-.8 3.7-1.1 5.6-1.1 1.3-.4 2.5-1.1 3.8-1.5.9.6 2.1.5 2.8-.4.6-.4 1.6-.7 1.6-1.5.3 0 .6-.4.9-.4.7-.4 1.4-.7 2.2-.7.9.4 1.6-.4 2.2-.7.6-.7.9-1.1 1.6-.4.3.4.6 0 .9 0 .3-.4-.3-.4-.3-.7 0-.7-.9-1.5.3-2.6h-1.3c.6-.4.9-.4 1.3-.7-.3-.4-.9.4-.9-.4 0-.4.6-1.1.6-1.1.6.4 1.6-1.5 1.9-.4.3 1.1 1.3.7 2.2.7 5-.7 9.8-2.5 14.1-5.5 1.5-1.4 3.4-2.2 5.3-2.2.3 0 .9 0 .9-.7-1.3 0-2.2.4-3.5.4-.6 0-1.3.4-1.3-.7-.3-1.1-.9-1.8-2.5-.7-.6.4-2.2 1.5-1.9-.7 0-.4-.3-.7-.6-1.1 1.9-1.1 4.1-1.1 6-2.2-1.4 0-2.7-.9-3.5-2.2 0-1.8-1.9-2.6-2.5-4-1.3-2.2-2.8-.4-4.4-.7h-.3c1.4-.5 2.6-1.7 3.1-3.3v-.4.4c.6.4 1.3-.7 1.9 0 .3.7.9.7 1.6.4.3 0 .6-.3.6-.7 0-.7-.6 0-.9-.4 0-.4.9-.4.9-1.1.3 0 .3 0 .6-.4.3.4.6.7.9.7 1.3 0 1.3.7.6 1.5-.3.4-.9.4-.6.7 0 .4.6.4.9 0 1.3-.5 2.6-1.3 3.8-2.2.3-.4 1.3-.4.9-1.1s-.9 0-1.3 0c.3-.4.6-.4.6-.7.3-.4.6-.4.3-.7-.2-.3-.6-.4-.8-.1l-.1.1c-.6.4-1.6 1.1-.9 1.8-.9 0-2.8 1.8-2.8-.7.3 0 .6-.4.9-.4 1.6-.4 1.6-1.8 2.5-2.6.3 0 .3 0 .6-.4.6.1 1.3-.1 1.9-.4-.9 1.5-.9 1.5.6 1.5.3.7.9 1.5 1.6.7.9-.7 2.5-1.1 2.8-2.2 1.3-.4 2.5-1.5 3.8-1.1 2.8.4 4.1 0 5.3-2.2-.9-.4-1.9 1.1-2.2.7-1.3-1.5-2.8 0-4.1 0 .6-.4 1.3-.4 1.9-1.1 1.3-1.4 3-2.4 4.7-2.9.6-.4 1.6-1.1 2.2.4 0 .4.9 0 1.3-.4 1.6-1.5 3.5-2.2 4.7-3.3.6-.4 2.2-.4 1.6-1.5-.3-.7-1.6 0-2.5 0-.3 0-.3.4-.6.4-1.9.7-3.8 1.1-5.6 1.8 0-.2-.1-.4-.3-.4 1.9-1.1 3.5-2.6 5.3-3.7.3-.4 1.3 0 .9-.7 0-.7-.9-.4-1.3-.4s-.9.1-1.3.4c-3.7 1.8-7.6 3-11.6 3.3-.3.1-.7.2-.9.4 0 1.5-.9.7-1.3.7-.6-.4-1.3 0-1.9 0-2.2 0-4.1 1.5-6 .7-.3 0-.9.4-1.3 0-1-.6-2.2-.5-3.1.4-.3 0-.6.4-.9.4-2.2.4-4.4 1.1-6.6 1.5-.9 0-2.8.4-3.1 2.2 0 .4-.3.4-.6.4-1.9.3-3.8.8-5.6 1.5 0-.4.3-.7-.6-.7-1.6 0-2.5.4-3.1 1.8-2.4.7-4.8 1.2-7.2 1.5-1.6 0-3.1-.7-4.4.7h-.3c-.9-.4-1.9.4-2.8.4-.3 0-.9.4-.6.7.2.3.6.4.8.1l.1-.1c.9-1.1 2.2-.4 3.1-.7.6-.4.9.4.9.7 0 .7-.3.7-.9.7-.9-.4-1.9.4-1.9.7 0 2.2-1.6 1.5-2.8 1.5-1.2-.1-2.4.1-3.5.7-1.8 1-3.7 1.9-5.6 2.6-.3 0-.3-.4-.6-.4.6-.7 0-.7-.6-.7s-1.3.4-1.3 1.1.6 0 1.3 0c.3 1.1-.9.7-1.3 1.1-2.5.5-4.9 1.3-7.2 2.2-.9-.7-.9-1.1.3-1.5 1.4-.3 2.8-.8 4.1-1.5.3-.4.9-.7.3-1.1-.3-.4-.6 0-.9.4-.4.3-.8.4-1.3.4-2.2.2-4.3.8-6.3 1.8-.9.7-.9.7 0 1.1 0 .4-.9.7-.6 1.1 1.3 1.1-.6 1.1-.9 1.5h-.8c-4.4 2.2-9.4 3.7-13.8 5.5 1.1-.5 2.1-1.4 2.8-2.6.3-.7.9-1.1 1.6-1.1 2.8-1.1 2.8-1.5 2.2-4 .6-1.1.9-2.2 2.5-1.8.5 0 .9-.5.9-1.1 0-1.5 1.3-1.8 2.2-2.6.6-.4 1.9-.4 1.3-1.5 0-.4 0-.4.3-.7 2.2-1.8 4.7-3.3 6.9-5.1 1.5-1 2.9-2.2 4.1-3.7 1.9-1.1 2.2-2.6 3.1-4-1.7.9-3.3 2-4.7 3.3-.2 0-.3.2-.3.4-1.3.4-1.6 1.5-2.5 1.8-.5 0-1 .3-1.3.7-1.6 1.5-3.4 2.7-5.3 3.3-1.6 0-3.1-.4-4.4 1.1-.4.3-.8.4-1.3.4-.6-.4 0-.7.3-1.1.6-.7 1.6-1.5 1.9-2.6.5-.3 1-.4 1.6-.4 1.3 0 5.3-2.6 5-3.7-.3-2.2 1.6-2.9 3.5-3.7.9-.4 2.5-.7 2.8-1.8 1.2-2.4 2.9-4.3 5-5.5 1.5-.4 2.7-1.8 2.8-3.7 0-1.6.9-2.9 2.2-3.3.6-.4.9-.4.6-1.1-.3-.7 0-1.8 0-2.6 1.9-1.8 2.5-4.4 4.1-6.2.3-.4.3-.7.3-1.5.6-1.5.3-3.7 1.9-4.8 3.5-2.2 4.7-5.9 6.9-8.8.7-1.2 1.6-2.3 2.5-3.3 1.3-1.1 1.6-2.2.9-3.3-1.1-1.5-1.1-3.7 0-5.1l.9-2.2c.6-1.5.6-2.9 2.2-4 1.3-.4 1.3-1.5 1.9-2.2 1.7-1.4 3.2-3.2 4.4-5.1.3-.7-.9-2.2 1.3-1.8 0-.2.1-.4.3-.4 1.9-1.5 1.3-3.7 1.9-5.1.3-1.5-.3-1.5-1.3-1.1-.3 0-.6.4-1.3.7-1.4 1-3.2.9-4.4-.4h-.8c-.9.7-1.6.4-2.5.4-1.1 0-2.2-.7-2.8-1.8-1.4-1.5-3.2-2.3-5-2.2-.3-.7-.6-.7-1.6-.4-.6 0-1.3.4-1.6 0-.3-1.1-1.6-1.8-1.3-3.3.6-2.6-1.6-2.2-2.8-2.9-.9-.4-.6 1.1-1.3 1.5-.2.2-.4.3-.6.4-1.5.8-2.8 1.7-4.1 2.9-1.4 1.2-3 1.9-4.7 2.2-1.5.2-2.9.8-4.1 1.8-.3.4-.9.7-1.3.4l-1.9-2.2c-.6-1.1-1.3-1.5-2.8-1.1-.9-.4-2.2.4-2.8-.4-.2-.2-.4-.2-.6 0-1 1.9-3.1 2.5-4.7 1.5.9-1.8 2.5-2.6 3.5-4.4 1.6.4 2.2 0 2.8-1.5.6-1.8 2.5-2.2 4.1-2.9.9-.4 1.9-.4 1.9-1.8 0-1.1.3-1.5.9-.4.3.4.6.4.6 0 1-1.8 2.4-3.2 4.1-4 .9-.7 2.2-1.5 2.2-2.9.6-.4.6-1.8 1.6-1.5 4.1.4 4.7-4.4 7.2-5.9.9-.7 1.9-2.2 3.1-3.3.7-.3 1.3-1 1.6-1.8 1.3-1.8 3.5-2.6 4.4-4.8.6-.4 1.9-1.1 1.3-2.2-.6-1.5-1.3 0-2.2 0-1.9 0-2.8 1.8-4.1 2.9-4.4 2.9-7.5 6.6-11.6 9.9-2 2.1-4.4 3.7-6.9 4.8-1.3.4-1.9.7-1.9 2.2-.9 1.1-1.8 2.1-2.8 2.9-2.5 2.2-5.6 3.3-7.5 6.2-2.5.4-3.8 2.9-6 4.4-1.2.3-2.4.8-3.5 1.5-.6.4-1.3 1.8-1.9.7-.6-1.1.6-1.5 1.3-2.2.3-.4.9-.4 1.3-.7.6-.7 1.9-1.1 1.6-2.6 1.3-1.4 2.8-2.7 4.4-3.7 1.6-1.1 3.8-2.6 3.8-4.8 0-4 2.8-6.6 3.1-10.6.3-2.2 2.2-3.7 2.5-5.9 2.3-5.2 4.3-10.6 6-16.1.5-.7.7-1.6.6-2.6-.9-4 .9-8.1 0-12.5-.4-.8-.2-1.9.3-2.6.2-.3.4-.7.3-1.1.3-3.7-2.2-5.9-4.4-8.1-1.5-2.1-3.6-3.5-6-4-3-1.9-6.3-2.8-9.7-2.6-2 .1-4-.1-6-.7-4.2-1-8.5-1.5-12.9-1.5-4.2.3-8.5-.3-12.6-1.8 3.6-3.2 7.6-5.6 11.9-7.3 0 .7-1.6.7-.6 1.5.6.4 1.3-.4 1.9-.4.9-.4.6-1.1.3-1.5 2.7-.7 5.4-1.8 7.8-3.3 1-.6 2.1-.8 3.1-.7.9 0 1.6 0 1.9 1.5 0 .4 0 1.5 1.6 1.8 2.5.7 4.4-.7 6.6-1.1 6.8-1.6 13.2-5.4 18.2-11 .6-.7 1.6-.7 2.5-1.1 1.9-.7 4.4.4 6-2.2-2.2.4-4.1.7-5.6 1.1-.6 0-1.6.4-2.2 0 .6-1.1-.9-1.5-.6-2.2.5-.8 1.4-1.1 2.2-.7 1.3.4 1.9-.4 2.5-1.8-2.2.4-3.8.4-5.6.7-2.2.7-2.5-1.1-2.8-2.6-.6-1.5.9-1.5 1.6-1.8 2.8-1.1 5.3-2.2 8.2-3.3-2.2-.1-4.3.4-6.3 1.5-.6.4-1.6.7-1.9-.4-.3-1.1-1.6-1.8-1.9-2.9 2.5-.7 5-1.5 7.8-2.2.3 0 .9 0 .9-.7-.3-1.1-.6-.4-1.3-.4-2.2.7-4.1 1.5-6.3 2.2-1.3.4-2.5 1.1-2.5-1.5 0-.7-.6-1.1-.9-1.8-1.4-1.6-2.8-3.3-4.1-5.1-1.7-3.1-4.7-4.9-7.8-4.8-7.9-1.8-15.9-2.3-23.9-1.5-.6-.7-1.3 0-1.9-.4.2 0 .3-.2.3-.4.3-.4.9-.4 1.3-.7 1.8-1.2 3.1-3.3 3.3-5.7 0-.7.9-1.8 0-2.6-.6-.7-1.6 0-2.2.4-.4-.1-.9.1-1.3.4-.7-.3-1.5-.1-2.2.4-.9-.4-1.9-.4-2.8 0-.9-.7-1.6-2.6-2.8-1.5-.8.1-1.7-.1-2.5-.4-2.5-1.5-4.4.4-6.6.4h-.3c0-1.5-.7-2.8-1.9-3.3 1.5-1.2 3.2-2 5-2.6.9-.4 1.9-1.1 1.9-2.2 1.9-2.2 4.7-3.3 7.2-5.9-1.3 0-2.6.2-3.8.7-1.6-.7-2.5-1.1-.6-2.6.3-.4.9-.4.6-1.1 0-.7-.9-.7-1.3-.7h-1.6c0-.4.6-1.1 0-.7-2.2.4-4.4-.4-6.3.7-.6-1.8.3-4.4-1.6-6.2-.3-.4 0-1.8.9-2.2.3-.4.9-.7 0-1.1-1.3-.7-1.3-1.5-.9-2.6s-.3-1.1-.9-1.1c-1.9.4-1.9-1.5-3.1-2.6.9-1.1 0-3.3 1.3-4 1.3-.7.6-1.5.6-2.2 0-.4-.6-.7-.3-1.5 1.6-1.5 0-1.8-.9-2.2-.9-.4-2-.3-2.8.4-1.3 0-2.8.4-4.1.4-.6-.7-1.6.7-1.9-.4-.3-.7 0-1.5.9-2.2.3 0 .6-.3.6-.7.6-1.1.9-2.2-1.3-2.6-.9 0-2.2-.4-3.5-.4-.1-1.6.9-3 2.2-3.3 1.3-.3 2.4-1.4 2.8-2.9l1.9-1.1c.6-.7 2.2-1.1 1.3-2.6-.6-1.3-1.9-2-3.1-1.5-2.9-1.3-6-2-9.1-1.8-1.7-.5-3.6-.6-5.3-.4-.6 0-1.3.4-1.9-.4-.6-1.1-1.9-.7-2.8-1.1-.6-.4-1.3-.4-1.9 0 .3-.4.3-.4.6-.4.6 0 .6-.7.6-1.5s-.6-.4-1.3-.7c-.6 0-1.3.7-1.9 0 1.7-.2 3.3-.8 4.7-1.8.3 0 .3 0 .6-.4.7.4 1.3.9 1.9 1.5 2.8 1 5.8.9 8.5-.4.2-.3.6-.4.8-.1l.1.1c.9 1.1 2.2.7 3.5.4.3 0 1.3 0 1.6.4 1.6 2.2 2.8 1.1 4.1 0 1.1-.7 2.3-1.3 3.5-1.8.6 0 1.3.4 1.9.4.6 1.1 3.1-.4 2.8 2.6 0 .4.3.4.6.4 3.1-.4 6.6 0 8.8-3.3.3-.7 1.3-1.1 1.9-1.8-.4.1-.9-.1-1.3-.4-3.2-2-7.1-2-10.4 0-3.4-1.5-7.3-.7-10 2.2 0-.3-.1-.5-.3-.7.7-.6.9-1.7.4-2.5 0 0 0-.1-.1-.1-.9-1.1-1.3-.4-2.2 0-.6.4-.9 0-.9-.7-.2-.7-.7-1.2-1.3-1.5.3-.4.9-.4 1.3-.7.6-.4.6-.7.6-1.5s-.6-.4-.9-.4c-.6 0-.6 0 .3-.7.6-.4.3-1.5 1.3-1.5.6 1.3 2 1.8 3.1 1.1 1-.9 2.2-1.4 3.5-1.5v.4c-.9.6-1.5 1.7-1.6 2.9.9-.6 1.8-1.1 2.8-1.5.8.5 1.8.3 2.5-.4.8-1 1.8-1.6 2.8-1.8.9-.4.9-.7.3-1.5.3-.4 1.3-.7 1.3-1.5 2.5-.4 3.5-2.6 5-4 .4-.5.8-.8 1.3-1.1 0-1.1.3-2.6 1.6-2.6 1.9 0 1.3-.7 1.3-1.8V261c0-.4.9-.7.3-.7-.3 0-1.3-.7-1.6-.4-.9 1.5-2.8 1.1-4.1 1.8-2.8 1.5-6.3 1.5-9.1 2.6-.6.4-1.9 0-1.6-.4.3-1.5-1.3-1.1-1.3-.7-.3 1.5-1.6-.7-1.9.4-.3 1.1-.9 0-1.3.4-.3-.7-.3-1.1-.6-1.8 1.3-1.5 3.1-.4 4.4-1.5 8.1-2.7 16-6.4 23.5-11 2-.9 3.9-2 5.6-3.3 1.6-.4 3.5-1.1 5-1.5 1.2.2 2.5-.2 3.5-1.1.6-.4.9-.7.6-1.1-.9-.7-1.6-1.5-1.6-2.6.6-.4 1.6-.7 1.9-1.8-2.8-.2-5.5.2-8.2 1.1-1.9.7-4.1 1.5-5.3-.4-.5-.4-1.1-.4-1.6 0-1.6.2-3.1.8-4.4 1.8-3.1 1.8-6.9 2.9-10 4.4-1 .5-2.1.7-3.1.7.6-1.1 1.9-1.8 2.5-2.9-1.2 0-2.3.3-3.5.7-2.2 1.1-4.5 1.9-6.9 2.6-1.6 0-2.8.7-4.1.7-.6-.2-1.4-.1-1.9.4-.6.4-.9 0-.9-.4.7-.4 1.4-.7 2.2-.7 1.3 0 1.3-.7 1.3-1.5.9-.4.9-1.5 1.9-1.8 1.3 0 1.6-.7 2.2-1.8h.6c1.6-1.1 3.3-1.9 5-2.6.6-.4 0-.7-.3-1.1 3.5-1.1 7.2-1.8 9.1-5.5 1.8-.7 3.5-2 4.7-3.7.3-.7.9-.7 1.6-.7h.3c.6 0 .9-.4 1.6-.7 2.3-1.2 4.4-2.8 6.3-4.8v-.1c.3-.7 1.3-.7 1.9-1.1 2.5-1.3 4.9-3 6.9-5.1.3-.4.6-.4.3-1.1-2.8.7-5.5 2.1-7.8 4-6 4.8-13.2 8.1-19.5 12.5-2.5 1.8-5.6 3.3-8.5 5.1-3.6 2.2-7.2 4.1-11 5.9-2.3 1.1-4.5 2.5-6.6 4-2.2 1.5-4.7 2.2-6.9 3.7-3.1 2.3-6.7 3.6-10.4 3.7-2.7-.3-5.4.2-7.8 1.5-.8-.2-1.7-.1-2.5.4-3.4 1.2-6.8 2.7-10 4.4-2.9 1.1-5.8 2.4-8.5 4-.3 0-.3.4-.6.4-.7-.1-1.5.1-2.2.4-2.4 1.2-4.7 2.6-6.9 4.1-4.1 1.8-8.5 2.6-12.6 4.4.6-.7 1.6-.7 2.5-1.5-2.4 1.1-5 1.8-7.5 2.2-1.8.2-3.6.5-5.3 1.1v-.4c0-.4-1.3-.4-.6-.7.6-.7 1.3-1.8 2.5-1.5.9-.4 1.9-.7 1.9-1.5 0-.4-.3-.4-.6-.7-.9 0-1.6.4-1.6 1.1-.3 0-.3.4-.9.4-.3 0-.3-.4-.3-.7s-.3-1.1.3-1.1c1.9-.5 3.8-1.3 5.6-2.2.7-.4 1.4-.7 2.2-.7.3-1.5-1.3-1.8-1.9-2.9.5-.3.9-.7 1.3-1.1.4-.8 1.2-1.1 1.9-.7.9.7 2.8.7.9 2.6-.3.4 0 .7.3 1.1 1.6-.4.6 1.1 1.6 1.5v.3H711c.3.7.6 1.5 1.6 1.1.6-.4 1.6 0 1.9-.7 1.5.2 3.1-.5 4.1-1.8.3-.4.6-.7 1.3-.4 1.6.7 3.1-.4 4.7-1.1.6-.4.9-.7.6-1.1-.3-.7-.9 0-1.3 0-1.6.4-3.1.7-3.8-1.1-.3-.7-.9-1.1-1.9-.4-.6.7-1.6.4-2.5.7-1.6.4-1.9-.4-1.3-1.5.3-.4.9-1.1.6-1.5-.6-1.1-.3-1.8.6-2.2 1.9-.7 3.1-3.3 5.6-2.6 0 .7-1.6.7-.9 1.5.6.7 1.3 0 1.9-.4.6.4 0 .7.3 1.1.3.4 1.3.4 1.3-.4s.6-1.5-.3-1.8c-.6 0-1.3-.4-1.9-.4.3-1.1.3-1.1-1.9-1.5.3-.7.9-1.1.3-1.8.9-1.1.9.7 1.6 0 .9 1.5 2.2 1.1 3.8.4 0 .7.3 1.1 1.3.7.9-.2 1.8.1 2.5.7 0 .4-.9 1.1.3 1.1 1 .1 2 .5 2.8 1.1.3 0 .6.4.9.4.6-1.5 2.2-1.5 3.1-2.6.6-1.1 1.3-1.5 2.2-1.1.6 0 .9.4 1.6 0 1.3-.4 2.8-1.1 3.1.7 0 .4.3.4.6.4s.6-.4.3-.7c-.3-.7.6-.7.9-1.5 1.6-1.5 3.6-2.3 5.6-2.2.3 0 .3-.4.6-.4.9-1.1 2.2 0 3.1-.7.6 0 .9-.7 1.9-1.1 0 1.1-1.3 1.8-.3 2.9h-.4c-.3.4-1.3 0-1.3.7.3 1.1 2.2 1.8 3.5 1.5.9-.4 1.3-.7.9-1.5-.6-1.1-2.5-2.2-.6-4 .3-.4-.6-.4-.3-.7 2.2 1.1 2.8.7 5-1.1 1-.9 2.4-.9 3.5 0l-2.8 1.1c.9 0 1.9 0 1.9.7 0 2.2 2.2 1.5 3.8 1.8-.6-.7-.3-1.5-.6-2.2 0-.3-.1-.5-.3-.7-.6-1.1 0-1.5.9-1.8.3.4-.6.7 0 1.5 3.8-1.8 3.8-1.8 3.5-2.6-.9 0-.9 1.1-2.2 1.1.4-.8.7-1.7.9-2.6.9.7 2.5 1.1 2.5.4.6-1.1 3.5-1.5 2.5-3.3 0-1.1-1.6-.7-1.9-1.5 0 0-.6 0-.6-.4.9-.4.9-1.8 2.5-2.2 1.6-.4 3.5-.4 4.4-1.8.3-.4.9-.4 1.3-.7s.6-.7.3-.7c-.3-.4-.6 0-.9.4-.3-1.5-.3-1.5-1.3-1.5-1.3-.7-2.2 1.1-3.5.4-.9-1.1-2.2-.4-3.5-.7-1.6 0-1.6-.4-.3-1.5.3.7 1.3.7 2.2.7.6 0 1.1-.5 1.3-1.1 0-.4 0-1.1-.3-1.1s-1.3-.4-1.6.4h-.3c0-.4 0-1.1.6-1.1.3 0 .9 0 .6-.4-1.3-1.1 0-1.5.6-2.2 1.1-.6 1.7-1.9 1.6-3.3.2 0 .5-.2.6-.4.6.4 1.6-.7 2.2 0 0 .7.6 1.1 1.6.4.6-.3 1.2-.8 1.6-1.5 0-.4 0-1.1-.6-1.1-.3-.4-.3-.7.3-.7.6-.4 1.3-.4 1.9-.7h.9c1.6-.4 3.1.7 4.4-.7 1-1 2-1.9 3.1-2.7.9-.7-.3-1.5 1.3-1.8.9.4-.6 1.5 0 1.8-.9 1.5.6.7 1.3 1.1.7-.4 1.4-.7 2.2-.7 1.1-.4 2.2-1 3.1-1.8 1.6-1.1 0-1.8-.3-2.6 0 0-.3-.4.3-.7.6.4.9 1.1 2.2.7.6 0 1.3.4 1.6-.4.9-.4 1.9-.4 2.8-.7.3.7.3 1.8 1.6 1.1h.9c2.2.4 2.5-.7 2.8-2.2.3-.4.9-.7 1.3-1.1 3.1-1.5 5.3-3.7 5.3-5.5 1.2.1 2.3.3 3.5.7.3-.7 0-1.1-.3-1.5-.6-.4-.3-.7.6-1.1 1.3-.4 3.1-1.1 2.2-2.6-.3-.7.9-.7.9-1.5-.9-.4-1.9-.7-2.8.4-.3.4-.9.7-1.3.4s-.6-.4-.6 0c-.4 1-1.3 1.6-2.2 1.5-2.7.3-5.5.8-8.2 1.5-.3 0-.9.4-1.3-.4-.6-1.5-.6-1.5-1.9 0-.2 0-.3.2-.3.4h-.3c-.9 0-1.6-.7-2.5 0-.4.3-.8.4-1.3.4h-.9c-.6 0-1.3-.4-1.9-.4-1.9-.4-3.8-.3-5.6.4-1.1.3-2.3.4-3.5.4-1.5-.1-2.9.4-4.1 1.5-.6.4-.9.7-1.6 1.1l-4.7 1.1c.6-1.5-.9-1.1-1.9-1.1-.3-.7.6-.7.9-1.5l.9-1.1c1.3-.4 1.6-1.5 2.2-2.2 2.2-.7 3.1-2.2 2.8-4 1.3-1.1.6-2.6 1.9-3.7.3 0-.3-.7-.6-.4-1.6.4-3.1-.7-4.7 0-.3 0-.9 0-.9-.4.3-1.5-.6-1.8-1.9-1.8-.3 0-.6-.4-.9-.4.6-.7 1.6-1.5 2.2-2.2.9-.7 2.2-1.1 2.2-2.2s.9-1.1 1.6-1.1c.4.1.9-.1 1.3-.4 3.2-1.1 6.3-2.7 9.1-4.8.3.4-.6 1.1-.3 1.8.3-.7 1.3 0 1.3-1.1 0-.4.3-.7.9-.7 1.7-.5 3.4-1.5 4.7-2.9.6-.7 1.9-1.8 2.5-1.5 1.6.7 2.2-.4 3.1-1.1.3-.4.6-.7 1.3-.4.3.4.6 0 .6-.4s0-.7-.6-.4c-.7.1-1.3-.3-1.6-1.1.6-.4.9-1.1 1.6-1.8 1.3-.7 2.5-1.1 3.1-2.2l.3-.4c.9-.4.9-1.8 2.2-1.5 1.3-.7 1.6-2.6 3.5-1.5h.3c.6-1.1 1.3-.7 2.2-.4 2.2.4 3.8-1.1 3.5-2.9 0-.7-.6-1.5 0-2.6-3.8-5.5-4.1-6.2-5.3-6.2z"/>
    </g>
  </g>
</svg>
