<svg version="1.1" id="Layer_1" xmlns="http://www.w3.org/2000/svg" x="0" y="0" viewBox="0 0 1000 1000" xml:space="preserve">
  <style>.st0{fill:#e4e6e7}.st2{fill:#cacdcf}</style>
    <path class="st0" d="m480.3 911.4-2.9-12.5 32.7 18.3-11.5 18.3-12.6-27-5.7 2.9L487 946l-117.4 25 110.7-59.6zm76 42.3 21.2 11.5-24.1 4.8 2.9-16.3zm-254-6.7 11.5-13.5 12.5 21.2-24-7.7zm184.7-1 5.8-1-4.8 6.7-1-5.7zm11.5-10.6 3.9 7.7-9.6 1.9 5.7-9.6zm18.3 1 4.8-8.6 9.6 10.6-14.4-2zm-103.9-25 38.5-7.7-12.5 24.1-26-16.4zm-125.1-11.6 8.7-5.8 2.9 14.4-11.6-8.6zm29.9-27.9 28.3-5.5-1.4-5.1 5.8-1 3.9 2.9 1-2.9 15.4-2.9.7 4.1 13.5-2.6 3.2-4.4-17.3 2.9-7.7-42.3v-1.9l2.9 1.9h.4l-4.8-9.6-1.4 9.6-4.8 25-17.5-21.1 4.8-3.8H336l-4.8-4.8 15.4 2.9-3.8 1.9H360l-13.5-1.9 13.6-10.2-1-2-22.2-10.9 15.6-2.3-6.3-12.6-15.8 7.7-.2.5-.3-.2-5 2.4-.4 4.5 2.9-1-4.8 10.6 1.9-9.6-11.5 1.9 18.3 18.3-13.5-2.9-1-5.8-1 5.8-7-1.2 5.4 9.7 1.5-8.6h1.9l1.9 16.4h-1l19.3 34.7-31.7-30.8-.8-22-12.7-2.1 1-9.6 7.9-.8-5.5-10.1-2.4 10.8-1 1-1.5-10.8-13.9 14.6-10.5-10-24.2-.6 2.9-4.8-9.6-1.6v3.5h-85.6v-38.5l64.5 22.1v8.7l19.2 3.5-.9-7.3 15.4 4.8-2.9 4.8 6.7 1.9 1-4.8-4.8-1.9 4.8-5.8L232 768l1 5.8-14.4-4.8 23.1-47.1 1.3 1.3-21.8-38.2-3.6 44.9 3.6-44.9-2.1-3.6-26.5-1.9-13.5-13.5 4.8-10.6h-8l4.1 4.8-7.7 15.4v-45.2H157v-57.7l-11.5-20.2 11.5-42.7V382.2l47.3-47.3 7.5-27.7 47.3-27.1 67.9-67.9-9.4-8.9 24.1-23.1 12.9 23.1h1.4l8.7-9.6.4 9.6h35.7L436 183h4.8l4.8-2.9v3.8l-2.1-.4-40 19.7h43.7l-1.7-19.2 7.7 2.9 1.5 16.4h3.3l-2.9-7.7h2V187l23.7 6.7 6.2-1.9 1.5 4 12 3.4-.3-11.5-13.1 4-7.7-26.9 16.1-4.3-25.8-26.5 49-20.2v8l10.6.7-1.7 5 13.2-4 1.9 2.9 1-3.9 4.8-1.9 5.1 82.7H589l1 1 14.4-5.8-1.9 4.8 2.1.4 3.1-6.5-3.3 1.3 12.4-28.5-28.2-15 22.6 20.4h-4.8v-1h-1l1 1-46.2 1.9 1.9-2.9 18.3-6.7-9.6-3.8L581 151l-12.2-6.4 36.9-32.5-36.9-4 37.5-35.6 12.5 3.8 32.7 40.4-18.3-1.9 6.7-3.9-2.9-3.8-6.7 7.7h2.9l-7.7 4.8 4.8-4.8-19.8-2.2 14.5 38.2 7.3-16.8 15.4 46.3 49.1 6.3 5.7-43.1 45.2 27.9-27.4 25.6 3.4 1.4-7.7 7.7h-2.9l.2-2.6-2.3 2.1 2.1.5v3.8l2.9-3.8 4.8 1-30.1 63.1 17.4 29.9 22.3 3.3-3.8 2.9 4.8 3.8-16.1 2.1 19.3 33 19 9.1-13.5-2.9-3.9-3.5 1.9 3.2 2.1.3 29.8 30.8v6.9l-16.5-11.6 9.9 16.9 6.6-1.7v12.9l38.5 65.9L770 613.7V636l-8.3 8.5L742 717l-53 29.8-2.6-1.3-55.1 51.3 2.1-17.9-9.5 5.5-33 33.6h-30.2l-18 6.7 40.4 3.8-4.8 7.7 15.4 7.7-2.9-14.4 30.8 2.9-42.3 41.4-1-1.9 1.9-25-13.5 11.5-26.9-32.7-1-1h2.9l-1 1 1.9-1h-1L554 818h-20.3l3.3 8.7-12.5 4.8 5.4-12.2-33.8 7.5.5 5.7-1.6-5.5-8.9 2-2 1.6 25 6.7-12.5 4.8-3.8-4.8 1.9 5.8-22.1 7.7-2.9-8.7 14.4-11.5-2.3-.6-15.1 3.3 2.9 8.8-1.9 1-6.3-8.6-4.3.9 2.5-3.5-7.3-10 11.5 2.9-2.2-6.7h-11.2l2.9 3.8-14.3-3.8h-23.5l11.9 31.7-4.8 1 1-6.7-13.3 3.6 6.2 4.5 6.1-1.5v5.8l6.7-1.9-1.9-4.8 26.9-4.8-27.7 14.6 3.6 2.7-8.8 2.2-.8 10.3-6.5-8.4-1.4.4-53.3 27.3-4.2 5.8-.9-3.2-19.3 9.9-17.3-34.7zm82.7-14.4.7-1.9-1.6.3.9 1.6zm22.1-.8v-.1h-.1l.1.1zm-20.2-6.9.6.7.3-1-.9.3zm-11.9-16.3-.7-13.6-23-3.7.4.8 23.3 16.5zm73.7-7.9.4-.6-.7-.2.3.8zm-97-8.5-.4-.8-.9-.2 1.3 1zm-1.3-1v-1h-1.9l1.9 1zm161.6-1-1.2-1.9h-16.1l11.4-7.3-7.7-11.9-16.1 6.6-1.1-16.1-9.9 13.2 8.1-2.9 1 19.2H490l-5.2-13.8-10.9 14.7h1.7l14.4-1 .4 1h5.3v-1l10.6-1-2.6 1.9 23.7.3zm-139.6 0-26-12.8-.5 3.2 4.8 9.6h21.7zM360.1 803l1.2-.9-2.2-1.1 1 2zm-55.3-10.2 8.1-.8-8.6-8.6.5 9.4zm47.7-5 34.1-5-.9-14.9-18.7-2.7-20.7 10 6.2 12.6zm54.9-.5-.8-2.9-2.9.5 3.7 2.4zm-.9-3.3-1.5-5.6-6.6 1.2 8.1 4.4zm-145.8-1-3.6-3.4 11.5-11.5-10.4-18.2-5 30.7 7.5 2.4zm41-2.1-4.3-4.3.7-3.1-1.8 2 1.1 1.1-.7 3.2 5 1.1zm94.8-.7v-.6h-1l1 .6zm2-.7-1.9-1v1h1.9zm-127-6.7 18.7 4.9-1-6.9-.4-.7v1.8l-11.7-11.7-8.5 7.8 2.9 4.8zm132.6 2.1-.8-3h10.6l-16.4-6.7v5.8l-3.1-9.4-1.2.9.8 10.8 3.9.7.5-1 .6 1.2 5.1.7zm-101.8-5.5v-.4l-.3.3.3.1zm-12.8-.7-.7-3.4v2.7l.7.7zm350.3-.1 43.1-24.9-12.7-6.3-30.4 30.9v.3zm-351-.4v-.2.2zm100.7-20.4-5.4-13.8-1-.2v10.5l6.4 3.5zm48.6-12.5-.1-1 2.1-.9.4-1.7-2.4 1.6v-5.7l-4.1 3.2 4.1 4.5zm35.4-9.6-.6-13.7-7.1.6 1 2.5h-.5l4.3 5.8-2.6 1.1 5.5 3.7zm-136.6-26-9.1 18.2 8.6-.2 2.4-15.1 5.7 14.9 9.6-.2 13.7-27.9-6.5-5.3-12.8-6.4 1-1.9 2.1.4-1.7-1.4-.5 1-5.8-1 4.8 2.9-1.9 3.9h-4.8l1.9-6.7v-4.8l.6.2-2.5-2.1-5 14.4 5-.9-1 6.7-5.8-.6-1.3 3.7 3.3 8.2zm123.7 17 2-1.7h-3.5v.7l1.5 1zm-7.1-2.9-.2-.6h1.9l3.8-1.2v-.8l13.5-5.1-.1-1.6h-9.6v-14.4L436 701.2l16.3 11.8-.9-3.6 6.7-2.9 1 4.8-6.6 1.9h.8l-.4.2.6.4zM173.3 642l8.5-25.9-8.5-14.8V642zM614 393.8l2.1-.5-2.1-3.4v3.9zm133.7-25.9V364l-1.7 1 1.7 2.9zM563 366.8v-7.4l-4.4-1.5.6 1.2-2.2 3.7 2.1 4h3.9zm74.1-40.4v-2.5l-2.4.4 2.4 2.1zm-3.6-3.3 3.6-20.2v-8.3l.6-.6-1.1-1.3-7.2-1v27.7l4.1 3.7zm-89.7-17.9 33.7 14.4.2-1.9h-4l-1-6.7 5.4 1.2.5-6.5-6.9-2.4 1 7.7-18.3-3.8 1.5-3-3.6-1.2-8.5 2.2zm-52 2 12.5-10.6-10.6-9.6-1.9 20.2zm79.9-3.9v-5.6l-10.1 2.7 10.1 2.9zm7.3-3.7.3-4-7.4 2 7.1 2zm49.2-18.7 1.1-.4 11.6-10-.5 6.3 15.9-5.3 2.2 2.2 9.8-9.5-11.9 3.5-2.4-2.2.4 2.2L639 259l2.8-5-1.9-1.8.2-.4-5.1-.5 4.9 4.7-12.2 24.3.5.6zm-47.9-16.1 17.1 6.3 3.7-22-.6.2-1-1.9 1.8.5 1.1-6.2h9.6v-7.8l-13.9.9-3.6 7.6 3.1 8-8.4 3.2-2.1 4.4-5.8-6.7 7.8-16-23.2 1.5 19.2-14.4 9.1 2.4 6.3-13 5.8 5.8-4.4 9.3 4.4 1.2v-4.7l6.7 6.5 11.6 3.1-7.8.5 7.6 7.3 11.8-5 10.9 3 9.3-17.5 6.1 21.8 6.2 1.7 7.9-15.8-4.8-12.5 8.7 1-1 5.8 2.9-4.8-1.9-1 1-5.8 4.8-1-3.8 7.7 10.1 1.5 1.4-10.2-7.6.9 1.9-3.9-5.8-2.9 6.7 1-1 1.9 5.6 2.8.5-3.8-5.2-.9 1.9-3.9 3.8.8 1.4-10.5-5.2 9.7-7.7-1-1 3.9-1 7.7-11.5 1.9-3.8-10.6-5.8 11.5-3.8 6.7-3.6-15.6-33.9-1.7 4.8-3.9H613l13.5-10.6-15.1 5.9-1.2 7 1.8-1.4-1-1h1.9l-1 1 1 2.9H610l-.8 4.8h1l-1 1.9V209l-6-.9-1.4 1.1-1.3 2.7-.9-.9-14.5 11.5-24.1-6.7-5.8 2.9-1-4.8 6.7 1.9 16.8-6.7H554l.3 4.8-9.6-2.7v11.1l.2.2 10.4-3.8.7 14.7 4.3 4.2 5.6-.6-3.4 2.7 16.4 16.1 1.4-.5v9.5zm-72.4 2.1 2.2-1.1-2.4.5.2.6zm165.4-7.6 6.2-6h-5.2l-1 6zm4.2-11.8 6.8 11.7 3.7-1.2-10.6-25 1.9-9.6-2.9 5.8 1 3.8-2.2 13.8 2.3.7zm-175.3-24.6 7.9-5.7v-10.1l-7.9 15.8zm207-5.2 1.9-8.7-3.2-.5-6 5.6 7.3 3.6zM540.9 210l-.4-1H537l3.9 1zm-2.5-6.7-4.3-11.5 10.6-11.5-21.2-16.4 10.6 27.9-10.7 11.5h15zm-23.8 0-2.6-.7-.2.7h2.8zm-3.6-1-9.6-2.6v2.6h9.6zm-45.2-6.8-8.7-4.8v4.8h8.7zm55.8-7.6-.1-1.5-.5.9.6.6zm-5.2-5.5 4.9-1.8-.7-18.8-3.5-2.9-4.2 12.5.3-15.7-3.2-2.6 3.3-1.2.1-6.3-6.3 5.6-8.7-6.7V157l.3 2.5 13.2-3.5v21.7l4.5 4.7zm7.2-18.6-2.9-8.7v6.7l2.9 2zm-2.9-8.7-.7-4.5-.7 2.1 1.4 2.4zm-.2-6 10.8-4.5-5.5-8.2 17-1.4-2.9-7.7-14 5.3-1.3 3.9h.3l-.4.4-4 12.2zm-7.5-12.2.7-.2.1-4.4-1.8.7 1 3.9zm34.6 737.9 3.8-2.9h4.8l-1-3.9 11.5-9.6 11.5 13.5-3.9 31.7-26.7-28.8zM262.8 895l9.6-4.8v8.7l-9.6-3.9zm-5.8-.9 5.8 1-6.7 3.8.9-4.8zm226.1-10.6 35.6-11.5-1.9 26-33.7-14.5zm-339.6-27 125.1 3.9-11.6 33.7-113.5-37.6zm130.9 3.9h-5.8l3.8-12.5 20.2 31.7-20.2 10.6 2-29.8zm158.7 2.9 10.6 10.6-12.5 9.6 1.9-20.2zm110.7 7.7 10.6-7.7 1 4.8-3.8 3.9-7.8-1zm-257.9-33.7 1.6.3-26.6-20.5 16.4-18.3 28.9 28.9.5 13.5 14.9 2.8-13.6 22.1-22.1-28.8zm155.9 17.3 9.6 1.9-3.8 5.8-5.8-7.7zm-91.4 5.8-6.7-3.9 12.5-1.9-1 5.8h-4.8zm144.3-17.3 1.9-1 9.6 12.5-4.8 3.8-6.7-15.3zm-283.8-16.4 36.6 12.5-23.1 14.4-13.5-26.9zm308.8 15.4 2.9-5.8-5.8 2.9-7.7-1.9 15.4-5.8-1.9 4.8 14.4-8.7 8.7 24.1-26-9.6zm63.5-13.5 5.8-8.7 1.9 9.6-7.7-.9zm-43.5-2.5-2.7 1 2.7-1zm88.7-5.2 8.7-3.8v6.7l-8.7-2.9zm-268.4-5 2.8.6-2.8-.6zM252.2 795l3.8 13.5-16.4 2.9 12.6-16.4zm250.2 3.8 2.9 3.8-4.8 3.9 1.9-7.7zM234 787.3l8.7 1-7.7 9.6-1-10.6zm96.2-3.9 9.6 3.8-12.5 1.9 2.9-5.7zm-171.3-83.7 13.5-24.1-1 68.3-12.5-44.2zm-33.7-30.8 23.1-7.7 10.6 38.5-11.5 23.1-22.2-53.9zm211.7 30.8 2.9-5.8-1 8.7-1.9-2.9zm3.9-11.5h1.9l-2.9 5.8 1-5.8zm1.9 0 3.9-6.7 7.7-1 1 9.6-12.6-1.9zm0-14.5 1 1-1-1zm-202.1-39.4 16.4-3.8v5.8l15.4 15.4v1.9l-24.1 7.7-7.7-27zm629.2-245.2 3.8 2.7-3.8 1v-3.7zm11.6-5 9.6 1.9-3.8 5.8-5.8-7.7zm59.6-80.8 31.7 45.2-74 17.3 42.3-62.5zm-4.8 29.8h4.8v-4.8l-4.8 4.8zM740 315.8l6.7-1.9-9.6-4.8 17.3-2.9-24.1-2.9 56.8-42.3-15.4 75-31.7-20.2zm-4.8-3.8-3.8-1.9 4.8-1-1 2.9 4.8 3.8-5.8 1 1-4.8zm1-2.9v-1l1 1h-1zm7.7-24.1 1-1.9h-1v1l-41.4-21.2 3.8-1.9 19.2 3.9-6.7-8.7 17.3-6.7 11.5 36.6-3.7-1.1zm-47.2-25 15.4-13.5 6.7 9.6-12.5 4.8-9.6-.9zm101.1-15.4h7.7l-1-4.8-9.6 2.9 2.9 1.9h-9.6l6.7-1.9-50-35.6 51-12.5 7.7 9.6 9.6 52-15.4-11.6zm-173.2-11.5 25-1.9-13.5 4.8-11.5-2.9zm-18.3-15.4 2.9-6.7-1.9 8.7-1-2zm53.9-2.9 9.6-1 1.9 2.9-11.5-1.9zM613 204.2h5.8l-3.9 3.8-1.9-3.8zm190.5 0-1.9-11.5-5.8 1.9-3.8-4.8 29.8-11.5-15.4 28.9-2.9-3zm-477.2-54.8 13.5-6.7 9.6 50-23.1-43.3zm127 37.5-1-7.7 3.9 7.7h-2.9zm303.1-8.7 15.4-11.5L768 185l-11.6-6.8zm-312.7-23.1 8.7 22.1-6.7 2.9-2-25zm162.6 20.2 1 1.9-1-1.9zM560.1 159l10.6 4.8-8.7 10.6-8.7 2.9 6.8-18.3zm85.7 0 5.8-16.4-1 17.3-4.8-.9zm-180-21.2 16.4 16.4-4.8 4.8-11.6-21.2zm41.4 13.5 2.9 1.9-11.5 3.9 8.6-5.8zM402.3 90.7l58.7 48.1-76 2.9 17.3-51zm123.2 45.2.3.5-.8.1.5-.6zm208.8-14.4 16.4 8.7-11.5 4.8-4.9-13.5zm-198.2-9.7h10.6l-2.9 10.6-2.9 1-4.8-11.6zm189.5 2h12.5l-11.5 3.8-1-3.8zM455.2 98.4l8.7 15.4-4.8 1.9-3.9-17.3zm201.1-7.7 27.9 4.8-15.4 12.5-12.5-17.3zm-37.5-14.4-7.7-8.7-4.8 4.8-5.8-1.9 21.2-26 1 33.7-3.9-1.9zm-53.9.9 6.7-17.3 6.7 18.3-13.4-1zm-130.8-26 26.9-9.6-6.7 18.3-20.2-8.7zm83.7-11.5 17.3-1-7.7 9.6-9.6-8.6zm-12.5-2.9 10.6-5.8-7.7 8.7-2.9-2.9z"/>
    <path class="st2" d="m504.5 907.5-2.9-12.5 32.7 18.3-11.5 18.3-12.5-26.9-5.8 2.8 6.7 34.7-117.4 25 110.7-59.7zm76 42.4 21.2 11.5-24.1 4.8 2.9-16.3zm-254-6.8 11.5-13.5 12.5 21.2-24-7.7zm184.8-.9 5.8-1-4.8 6.7-1-5.7zm11.5-10.6 3.9 7.7-9.6 1.9 5.7-9.6zm18.3.9 4.8-8.6 9.6 10.6-14.4-2zm-103.9-25 38.5-7.7-12.5 24.1-26-16.4zM312.1 896l8.7-5.8 2.9 14.4-11.6-8.6zm29.8-27.9 28.3-5.5-1.4-5.1 5.8-1 3.9 2.9 1-2.9 15.4-2.9.7 4.1 13.5-2.6 3.2-4.4-17.3 2.9-7.7-42.3v-1.9l2.9 1.9h.4l-4.8-9.6-1.4 9.6-4.8 25-17.3-21.2 4.8-3.8h-6.7l-4.8-4.8 15.4 2.9-3.8 1.9h17.3l-13.5-1.9 13.6-10.2-1-2-22.2-10.9L377 784l-6.3-12.6-15.8 7.7-.2.5-.3-.2-5 2.4-.4 4.5 2.9-1-4.8 10.6 1.9-9.6-11.5 1.9 18.3 18.3-13.5-2.9-1-5.8-1 5.8-7-1.2 5.4 9.7 1.5-8.6h1.9l1.9 16.4h-1l19.3 34.7-31.7-30.8-.8-22-12.7-2.1 1-9.6 7.9-.8-5.5-10.1-2.4 10.8-1 1-1.5-10.8-14.1 14.8-10.5-10-24.2-.6 2.9-4.8-9.6-1.6v3.5h-85.6V743l64.5 22.1v8.7l19.2 3.5-.9-7.3 15.4 4.8-2.9 4.8 6.7 1.9 1-4.8-4.8-1.9 4.8-5.8-21.2-4.8 1 5.8-14.4-4.8 23.1-47.1 1.3 1.3-21.8-38.1-3.6 44.9 3.6-44.9-2.1-3.6-26.5-1.9-13.5-13.5 4.8-10.6h-8l4.1 4.8-7.7 15.4v-45.2h-15.4V569l-11.5-20.2 11.5-42.7V378.4l47.3-47.3 7.5-27.7 47.3-27.1 67.9-67.9-9.4-8.9 24.1-23.1 12.9 23.1h1.4l8.7-9.6.4 9.6H425l35.1-20.2h4.8l4.8-2.9v3.8l-2.1-.4-40 19.7h43.7l-1.7-19.2 7.7 2.9 1.5 16.4h3.3l-2.9-7.7h2v-8.6l23.7 6.7 6.2-1.9 1.5 4 12 3.4-.3-11.5-13.1 4-7.7-26.9 16.1-4.3-25.6-26.6 49-20.2v8l10.6.7-1.7 5 13.2-4 1.9 2.9 1-3.9 4.8-1.9 5.1 82.7h35.3l1 1 14.4-5.8-1.9 4.8 2.1.4 3.1-6.5-3.3 1.3 12.4-28.5-28.2-15 22.6 20.4h-4.8v-1h-1l1 1-46.2 1.9 1.9-2.9 18.3-6.7-9.6-3.9 10.3-12.8-12.2-6.4 36.9-32.5-36.9-4 37.5-35.6 12.5 3.8 32.7 40.4-18.3-1.9 6.7-3.9-2.9-3.8-6.7 7.7h2.9l-7.7 4.8 4.8-4.8-19.8-2.2 14.5 38.2 7.3-16.8 15.4 46.3 49.1 6.3 5.7-43.1 45.2 27.9-27.5 25.6 3.4 1.4-7.7 7.7h-2.9l.2-2.6-2.3 2.1 2.1.5v3.8l2.9-3.8 4.8 1-30 63 17.4 29.9 22.3 3.3-3.8 2.9 4.8 3.8-16.1 2.1 19.3 33 19 9.1-13.5-2.9-3.9-3.5 1.9 3.2 2.1.3 29.8 30.8v6.9l-16.5-11.6 9.9 16.9 6.6-1.7v12.9l38.5 65.9-38.5 142.2v22.3l-8.3 8.5-19.6 72.4-53.1 30-2.6-1.3-55.1 51.3 2.1-17.9-9.5 5.5-33 33.6H585l-18 6.7 40.4 3.8-4.8 7.7 15.4 7.7-2.9-14.4 30.8 2.9-42.3 41.4-1-1.9 1.9-25-13.5 11.5-26.9-32.7-1-1h2.9l-1 1 1.9-1h-1l12.2-6.7H558l3.3 8.7-12.5 4.8 5.4-12.2-33.8 7.5.5 5.7-1.6-5.5-8.9 2-2 1.6 25 6.7-12.5 4.8-3.8-4.8 1.9 5.8-22.1 7.7-2.9-8.7 14.4-11.5-2.3-.6-15.1 3.3 2.9 8.8-1.9 1-6.3-8.6-4.3.9 2.5-3.5-7.3-10 11.5 2.9-2.2-6.7h-11.2l2.9 3.8-14.3-3.8h-23.5l11.9 31.7-4.8 1 1-6.7-13.3 3.6 6.2 4.5 6.1-1.5v5.8l6.7-1.9-1.9-4.8 26.9-4.8-27.7 14.6 3.6 2.7-8.8 2.2-.8 10.3-6.5-8.4-1.4.4-53.3 27.3-4.2 5.8-.9-3.2-19.3 9.9-17.4-34.7zm82.8-14.4.7-1.9-1.6.3.9 1.6zm22.1-.9v-.1h-.1l.1.1zm-20.2-6.8.6.7.3-1-.9.3zm-11.9-16.3-.7-13.6-23-3.7.4.8 23.3 16.5zm73.7-8 .4-.6-.7-.2.3.8zm-97-8.5-.4-.8-.9-.2 1.3 1zm-1.4-.9v-1h-1.9l1.9 1zm161.7-1-1.2-1.9h-16.1l11.4-7.3-7.7-11.9-16.1 6.6-1.1-16.1-9.9 13.2 8.1-2.9 1 19.2h-5.8l-5.2-13.8-11.1 14.9h1.7l14.4-1 .4 1h5.3v-1l10.6-1-2.6 1.9 23.9.1zm-139.7 0-26-12.8-.5 3.2 4.8 9.6H412zm-27.7-12.1 1.2-.9-2.2-1.1 1 2zM329 789l8.1-.8-8.6-8.6.5 9.4zm47.8-5 34.1-5-.9-14.9-18.7-2.7-20.7 10 6.2 12.6zm54.9-.5-.8-2.9-2.9.5 3.7 2.4zm-.9-3.3-1.5-5.6-6.6 1.2 8.1 4.4zm-145.9-1-3.6-3.4 11.5-11.5-10.4-18.3-5 30.7 7.5 2.5zm41.1-2.1-4.3-4.3.7-3.1-1.8 2 1.1 1.1-.7 3.2 5 1.1zm94.8-.8v-.6h-1l1 .6zm1.9-.6-1.9-1v1h1.9zm-127-6.7 18.7 4.9-1-6.9-.4-.7v1.8l-11.7-11.7-8.5 7.8 2.9 4.8zm132.7 2-.8-3h10.6l-16.4-6.7v5.8l-3.1-9.4-1.2.9.8 10.8 3.9.7.5-1 .6 1.2 5.1.7zm-101.9-5.5v-.4l-.3.3.3.1zm-12.7-.6-.7-3.4v2.7l.7.7zm350.3-.1 43.1-24.9-12.7-6.3-30.4 30.9v.3zm-351-.4v-.2.2zM413.8 744l-5.4-13.8-1-.2v10.5l6.4 3.5zm48.5-12.5-.1-1 2.1-.9.4-1.7-2.4 1.6v-5.7l-4.1 3.2 4.1 4.5zm35.5-9.7-.6-13.7-7.1.6 1 2.5h-.5l4.3 5.8-2.6 1.1 5.5 3.7zm-136.6-25.9-9.1 18.2 8.6-.2 2.4-15.1 5.7 14.9 9.6-.2 13.7-27.9-6.5-5.3-12.8-6.4 1-1.9 2.1.4-1.7-1.4-.5 1-5.8-1 4.8 2.9-1.9 3.9H366l1.9-6.7V666l.6.2-2.5-2.1-5 14.4 5-.9-1 6.7-5.8-.6-1.3 3.7 3.3 8.5zm123.6 17 2-1.7h-3.5v.7l1.5 1zm-7.1-2.9-.2-.6h1.9l3.8-1.2v-.8l13.5-5.1-.1-1.6H487v-14.4l-26.9 11.1 16.3 11.8-.9-3.6 6.7-2.9 1 4.8-6.6 1.9h.8l-.4.2.7.4zm-280.1-71.9 8.5-25.9-8.5-14.8v40.7zm440.7-248.2 2.1-.5-2.1-3.4v3.9zM772 364v-3.9l-1.7 1 1.7 2.9zm-184.7-1v-7.4l-4.4-1.5.6 1.2-2.2 3.7 2.1 4h3.9zm74.1-40.4V320l-2.4.4 2.4 2.2zm-3.7-3.3 3.6-20.2v-8.3l.6-.6-1.1-1.3-7.2-1v27.7l4.1 3.7zM568 301.4l33.7 14.4.2-1.9h-4l-1-6.7 5.4 1.2.5-6.5-6.9-2.4 1 7.7-18.3-3.8 1.5-3-3.6-1.2-8.5 2.2zm-51.9 1.9 12.5-10.6-10.6-9.6-1.9 20.2zm79.8-3.8v-5.6l-10.1 2.7 10.1 2.9zm7.4-3.7.3-4-7.4 2 7.1 2zm49.2-18.7 1.1-.4 11.6-10-.5 6.3 15.9-5.3 2.2 2.2 9.8-9.5-11.9 3.5-2.4-2.2.4 2.2-15.4-8.7 2.8-5-1.9-1.8.2-.4-5.1-.5 4.9 4.7-12.2 24.3.5.6zM604.6 261l17.1 6.3 3.7-22-.6.2-1-1.9 1.8.5 1.1-6.2h9.6v-7.8l-13.9.9-3.6 7.6 3.1 8-8.4 3.2-2.1 4.4-5.8-6.7 7.8-16-23.2 1.5 19.2-14.4 9.1 2.4 6.3-13 5.8 5.8-4.4 9.3 4.4 1.2v-4.7l6.7 6.5 11.6 3.1-7.8.5 7.6 7.3 11.8-5 10.9 3 9.3-17.5 6.1 21.8 6.2 1.7 7.9-15.8-4.8-12.5 8.7 1-1 5.8 2.9-4.8-1.9-1 1-5.8 4.8-1-3.8 7.7 10.1 1.5 1.4-10.2-7.6.9 1.9-3.9-5.8-2.9 6.7 1-1 1.9 5.6 2.8.5-3.8-5.2-.9 1.9-3.9 3.8.8 1.4-10.5-5.2 9.7-7.7-1-1 3.9-1 7.7L694 210l-3.8-10.6-5.8 11.5-3.8 6.7L677 202l-33.9-1.7 4.8-3.9h-10.5l13.5-10.6-15.1 5.9-1.2 7 1.8-1.4-1-1h1.9l-1 1 1 2.9h-3.1l-.8 4.8h1l-1 1.9V205l-6-.9-1.4 1.1-1.3 2.7-.9-.9-14.5 11.5-24.1-6.7-5.8 2.9-1-4.8 6.7 1.9 16.8-6.7H578l.3 4.8-9.6-2.7v11.1l.2.2 10.4-3.8.7 14.7 4.3 4.2 5.6-.6-3.4 2.7 16.4 16.1 1.4-.5.3 9.7zm-72.4 2.1 2.2-1.1-2.4.5.2.6zm165.3-7.6 6.2-6h-5.2l-1 6zm4.3-11.8 6.8 11.7 3.7-1.2-10.6-25 1.9-9.6-2.9 5.8 1 3.8-2.2 13.8 2.3.7zm-175.4-24.6 7.9-5.7v-10.1l-7.9 15.8zm207.1-5.2 1.9-8.7-3.2-.5-6 5.6 7.3 3.6zm-168.3-7.7-.4-1h-3.5l3.9 1zm-2.5-6.8-4.3-11.5 10.6-11.5-21.2-16.4 10.6 27.9-10.7 11.5h15zm-23.9 0-2.6-.7-.2.7h2.8zm-3.5-1-9.6-2.6v2.6h9.6zm-45.2-6.7-8.7-4.8v4.8h8.7zm55.8-7.7-.1-1.5-.5.9.6.6zm-5.2-5.4 4.9-1.8-.7-18.8-3.5-2.9-4.2 12.5.3-15.7-3.2-2.6 3.3-1.2.1-6.3-6.3 5.6-8.7-6.7v12.5l.3 2.5 13.2-3.5V174l4.5 4.6zm7.1-18.6-2.9-8.7v6.7l2.9 2zm-2.9-8.7-.7-4.5-.7 2.1 1.4 2.4zm-.2-6.1 10.8-4.5-5.5-8.2 17-1.4-2.9-7.7-14 5.3-1.3 3.9h.3l-.4.4-4 12.2zm-7.5-12.2.7-.2.1-4.4-1.7.7.9 3.9zm34.7 738 3.8-2.9h4.8l-1-3.9 11.5-9.6 11.5 13.5-3.9 31.7-26.7-28.8zm-284.8 20.2 9.6-4.8v8.7l-9.6-3.9zm-5.8-1 5.8 1-6.7 3.8.9-4.8zm226.1-10.5 35.6-11.5-1.9 26-33.7-14.5zm-339.6-27 125.1 3.9-11.6 33.7-113.5-37.6zm130.8 3.8h-5.8l3.8-12.5 20.2 31.7-20.2 10.6 2-29.8zm158.8 2.9L468 870l-12.5 9.6 1.9-20.2zm110.6 7.7 10.6-7.7 1 4.8-3.8 3.9-7.8-1zm-257.8-33.7 1.6.3-26.6-20.5 16.4-18.3 28.9 28.9.5 13.5 14.9 2.8-13.5 22.1-22.2-28.8zM466 850.8l9.6 1.9-3.8 5.8-5.8-7.7zm-91.4 5.8-6.7-3.9 12.5-1.9-1 5.8h-4.8zM519 839.2l1.9-1 9.6 12.5-4.8 3.8-6.7-15.3zm-283.9-16.3 36.6 12.5-23.1 14.4-13.5-26.9zM544 838.3l2.9-5.8-5.8 2.9-7.7-1.9 15.4-5.8-1.9 4.8 14.4-8.7 8.7 24.1-26-9.6zm63.5-13.5 5.8-8.7 1.9 9.6-7.7-.9zm-43.5-2.5-2.7 1 2.7-1zm88.7-5.2 8.7-3.8v6.7l-8.7-2.9zM384.2 812l2.8.6-2.8-.6zm-107.7-20.9 3.8 13.5-16.4 2.9 12.6-16.4zm250.2 3.9 2.9 3.8-4.8 3.9 1.9-7.7zm-268.5-11.6 8.7 1-7.7 9.6-1-10.6zm96.2-3.8 9.6 3.8-12.5 1.9 2.9-5.7zm-171.2-83.7 13.5-24.1-1 68.3-12.5-44.2zm-33.7-30.8 23.1-7.7 10.6 38.5-11.6 23.1-22.1-53.9zm211.7 30.8 2.9-5.8-1 8.7-1.9-2.9zm3.8-11.6h1.9l-2.9 5.8 1-5.8zm1.9 0 3.9-6.7 7.7-1 1 9.6-12.6-1.9zm0-14.4 1 1-1-1zm-202-39.5 16.4-3.8v5.8l15.4 15.4v1.9l-24.1 7.7-7.7-27zm629.2-245.1 3.8 2.7-3.8 1v-3.7zm11.6-5 9.6 1.9-3.8 5.8-5.8-7.7zm59.6-80.8 31.7 45.2-74 17.3 42.3-62.5zm-4.8 29.8h4.8v-4.8l-4.8 4.8zM764.3 312l6.7-1.9-9.6-4.8 17.3-2.9-24.1-2.9 56.8-42.3-15.4 75-31.7-20.2zm-4.8-3.9-3.8-1.9 4.8-1-1 2.9 4.8 3.8-5.8 1 1-4.8zm.9-2.9v-1l1 1h-1zm7.7-24 1-1.9h-1v1l-41.4-21.2 3.8-1.9 19.2 3.9-6.7-8.7 17.3-6.7 11.5 36.6-3.7-1.1zm-47.1-25 15.4-13.5 6.7 9.6-12.5 4.8-9.6-.9zm101-15.4h7.7l-1-4.8-9.6 2.9 2.9 1.9h-9.6l6.7-1.9-50-35.6 51-12.5 7.7 9.6 9.6 52-15.4-11.6zm-173.2-11.6 25-1.9-13.5 4.8-11.5-2.9zm-18.2-15.3 2.9-6.7-1.9 8.7-1-2zm53.8-2.9 9.6-1 1.9 2.9-11.5-1.9zm-47.1-10.6h5.8l-3.9 3.8-1.9-3.8zm190.5 0-1.9-11.5-5.8 1.9-3.8-4.8 29.8-11.5-15.4 28.9-2.9-3zm-477.2-54.9 13.5-6.7 9.6 50-23.1-43.3zm127 37.6-1-7.7 3.9 7.7h-2.9zm303.1-8.7 15.4-11.5-3.8 18.3-11.6-6.8zM468 151.3l8.7 22.1-6.7 2.9-2-25zm162.6 20.2 1 1.9-1-1.9zm-46.2-16.3L595 160l-8.7 10.6-8.7 2.9 6.8-18.3zm85.6 0 5.8-16.4-1 17.3-4.8-.9zM490.1 134l16.4 16.4-4.8 4.8-11.6-21.2zm41.4 13.5 2.9 1.9-11.5 3.9 8.6-5.8zM426.6 86.9l58.7 48.1-76 2.9 17.3-51zm123.1 45.2.3.5-.8.1.5-.6zm208.8-14.5 16.4 8.7-11.5 4.8-4.9-13.5zM560.3 108h10.6l-2.9 10.6-2.9 1-4.8-11.6zm189.6 1.9h12.5l-11.5 3.8-1-3.8zM479.5 94.6l8.7 15.4-4.8 1.9-3.9-17.3zm201.1-7.7 27.9 4.8-15.4 12.5-12.5-17.3zm-37.5-14.5-7.7-8.7-4.8 4.8-5.8-1.9 21.2-26 1 33.7-3.9-1.9zm-53.9 1 6.7-17.3 6.7 18.3-13.4-1zm-130.9-26 26.9-9.6-6.7 18.3-20.2-8.7zM542 35.9l17.3-1-7.7 9.6-9.6-8.6zM529.5 33l10.6-5.8-7.7 8.7-2.9-2.9z"/>
</svg>