<?xml version="1.0" encoding="utf-8"?>
<!-- Generator: Adobe Illustrator 25.1.0, SVG Export Plug-In . SVG Version: 6.00 Build 0)  -->
<svg version="1.1" id="Layer_1" xmlns="http://www.w3.org/2000/svg" xmlns:xlink="http://www.w3.org/1999/xlink" x="0px" y="0px"
	 viewBox="0 0 1000 1000" style="enable-background:new 0 0 1000 1000;" xml:space="preserve">
<style type="text/css">
	.st0{fill:#e4e6e7;}
	.st1{fill:#cacdcf;}
</style>
	<path class="st0" d="M839.9,575.5c-240.3-52.5-322.5-27.5-416.3-60c-42-14.6-71.5-67.4-61.7-135.8L386,212.5
		c9.8-68.4,52.7-107.5,97.5-112.9c108.1-13,315.6,21.4,416.3,60c41.9,16,71.5,67.4,61.7,135.8l-24.1,167.2
		C927.6,531,883.3,585,839.9,575.5z"/>
	<path class="st1" d="M800.9,738c-351.4-24.1-462.8,25.7-602.4,0C136,726.5,83.4,660.8,83.4,566.3V335.4c0-94.4,52.7-155.6,115.2-171.7
		c150.6-38.7,451.7-32.5,602.4,0C863.6,177.3,916,241,916,335.4v230.9C916,660.8,864.3,742.4,800.9,738z"/>
	<path class="st1" d="M373.5,913.2c-115.8-46.7-148.2-122.5-130.4-190s181.6-1.7,181.6-1.7S255.6,778.2,373.5,913.2z"/>
	<path class="st1" d="M271.3,138.7c0,0-216.3-12.5-199.3,225.3C39.5,276.7,59.1,117.2,271.3,138.7z"/>
	<path class="st1" d="M927.1,600.4c-5.5,55.4-24.9,145.4-121.8,149.5C896.7,792.8,943.7,697.3,927.1,600.4z"/>
</svg>
