<?xml version="1.0" encoding="utf-8"?>
<svg version="1.1" id="Layer_1" xmlns="http://www.w3.org/2000/svg" xmlns:xlink="http://www.w3.org/1999/xlink" x="0px" y="0px"
	 viewBox="0 0 1100 1100" style="enable-background:new 0 0 1100 1100;" xml:space="preserve">
<style type="text/css">.st0{fill:#E4E6E7;}.st2{fill:#CACDCF;}</style>
<g>
	<path class="st2" d="M991.9,547.7c0,106.7-76.8,195.4-178.2,213.9c-30.6,83.1-110.4,142.3-204,142.3c-75.4,0-141.8-38.4-180.8-96.7
                            c-42.2,26.8-92.3,42.4-146,42.4C132.3,849.6,10.3,727.5,10.3,577c0-88.5,42.2-167.2,107.6-217c-13.4-22.3-21.1-48.3-21.1-76.2
                            c0-81.8,66.3-148.1,148.1-148.1c15.8,0,31,2.5,45.3,7.1c53.4-76.3,142-126.2,242.2-126.2c163.5,0,296,132.5,296,296
                            c0,8.2-0.3,16.2-1,24.2C921.9,360.4,991.9,445.9,991.9,547.7z"/>
    <path class="st0" d="M609.7,903.9c-12.7,0-25.1-1.1-37.2-3.2c27.9,51,82,85.6,144.3,85.6c90.7,0,164.2-73.5,164.2-164.2 c0-27.2-6.6-52.9-18.4-75.6c-15.4,6.8-31.8,12-48.9,15.1C783.1,844.6,703.3,903.9,609.7,903.9z" />
	
</g>
</svg>
