<?xml version="1.0" encoding="utf-8"?>
<svg version="1.1" id="Layer_1" xmlns="http://www.w3.org/2000/svg" xmlns:xlink="http://www.w3.org/1999/xlink" x="0px" y="0px"
	 viewBox="0 0 1100 1100" style="enable-background:new 0 0 1100 1100;" xml:space="preserve">
<style type="text/css">.st0{fill:#E4E6E7;}.st2{fill:#CACDCF;}</style>
<g>
	<path class="st2" d="M985,535c-11.2,161-212.8,338-582.2,322C-48.1,837.4,27.9,571.5,67.2,450.1c25.7-79.5,177.4-409.7,343-403.4
                            c79.6,3,90.4,82,197.5,142.5C732.8,259.9,997.6,354.2,985,535z"/>
	  <g class="st0">
			<path class="st1" d="M402.8,857c-113.4-4.9-193.5-25.4-249.2-55.3c67.7,105.5,210.3,293,474.7,38.8
				C561.9,854.3,486.6,860.6,402.8,857z"/>
			<path class="st1" d="M607.7,189.2c70.4,39.8,185.2,87.1,269.7,153.1c-1.6-86.3-30.7-157-77.7-202.1
				C727.4,70.8,621.2,83.4,518,117.1C540,140.3,566.8,166.1,607.7,189.2z"/>
			<path class="st1" d="M67.2,450.1c12.2-37.6,52.5-131.3,109.2-219c-50.1,3-87.6,1.6-119.9,37.4c-54.9,61-44.4,172-14.4,277.2
				C48.4,509.7,58.6,476.5,67.2,450.1z"/>
		</g>
</g>
</svg>
