<?xml version="1.0" encoding="utf-8"?>
<svg version="1.1" id="Layer_1" xmlns="http://www.w3.org/2000/svg" xmlns:xlink="http://www.w3.org/1999/xlink" x="0px" y="0px"
	 viewBox="0 0 1100 1100" style="enable-background:new 0 0 1100 1100;" xml:space="preserve">
<style type="text/css">.st0{fill:#E4E6E7;}.st2{fill:#CACDCF;}</style>
<g>
	<path class="st2" d="M961.2,414.1c-5.4,236.8-111.2,301.1-225.3,308C621.7,729,535.7,542,426.3,530.6
                                        C286.8,516,292.2,637.8,175.7,636.3c-85.6-1.1-150.6-93.5-116.5-233.7C87.6,286.1,411.1-33.6,759.6,77.7
                                        C906,124.4,964.9,246.6,961.2,414.1z"/>
    <g class="st0">
			<path class="st1" d="M51.1,450.8c-32,47.9-47,86.2-37.9,105.1c6.6,13.6,23.9,11.8,55.3,8C54,533.9,47.1,495.6,51.1,450.8z"/>
			<path class="st1" d="M697.5,18.7C638.1,18.5,574.1,35.9,510,64.5C589,49,673.5,50.2,759.6,77.7C906,124.4,964.9,246.6,961.2,414.1
				c-0.4,17.3-1.3,33.7-2.8,49.2c11.8-27.7,20-56.6,24.2-86C982.6,377.3,1047.7,19.4,697.5,18.7z"/>
			<path class="st1" d="M426.3,530.6c-66.8-7-100.4,17.3-130,44.4c44.9,10.5,95.9,26.7,153.8,51.4c59.9,25.5,115.9,38.7,167.5,42
				C554.5,614.2,495,537.7,426.3,530.6z"/>
		</g>
</g>
</svg>
