<?xml version="1.0" encoding="utf-8"?>
<svg version="1.1" id="Layer_1" xmlns="http://www.w3.org/2000/svg" xmlns:xlink="http://www.w3.org/1999/xlink" x="0px" y="0px"
	 viewBox="0 0 1100 1100" style="enable-background:new 0 0 1100 1100;" xml:space="preserve">
<style type="text/css">.st0{fill:#E4E6E7;}.st2{fill:#CACDCF;}</style>
<g>
	<path class="st0" d="M11.8,535.2c14.4,86.8,99.5,109,135.1,131.1c35.5,22.1,254.3,125.6,403.6,139 c149.3,13.4,547.4-73.5,415.4-403.6S530,81,387.8,105.5S-34.8,254.8,11.8,535.2z"/>
	<path class="st2" d="M39.1,323.1C0.8,467.2,120,542.7,158.7,607.8c52.1,87.7,105,324.6,323.4,320.7 c225.6-4.1,499.6-137.4,501.1-321.1c1.5-175.3-106.6-468-452.6-500C190.7,76,67,217.8,39.1,323.1z"/>
</g>
</svg>
