<svg version="1.1" id="Layer_1" xmlns="http://www.w3.org/2000/svg" x="0" y="0" viewBox="0 0 1000 1000" xml:space="preserve">
  <style>
    .st0{fill:#e4e6e7}.st2{fill:#cacdcf}
  </style>
  <path class="st0" d="M34.2 504.2c0-45.7 12.6-59.9 60.8-64.1 45.6-4 91.4-6.6 134.8-23.2 6.8-2.6 14.7-3.9 20.3-8.1 6.1-4.6 14.8-12.8 13.9-17.9-1.1-6.1-10.6-13.4-17.7-15-16-3.6-33-2.6-48.9-6.3-9.1-2.1-19.6-8-24.7-15.4-10.7-15.9.2-33.1 19.3-31.5 8.7.7 17.3 5.1 25.5 8.7 15.6 7 30.2 16.7 46.4 21.1 8.9 2.4 22.5-1.1 29.4-7.2 4.9-4.3 5.1-18.4 2.3-26.3-8.9-25.4-25.3-46.4-48.8-59.8-51.5-29.2-67-74.6-61.8-130.2 2-20.8 16.5-38.9 31.6-40.3 15.7-1.4 33.3 14.8 37.5 36.6 5.7 29.3 9.8 59 14.9 88.4 4.3 25.2 17.5 45.7 37.3 61 6.2 4.8 18.6 8.6 24 5.5 5.3-3 9-16.2 7.1-23.3-7.1-27.7-5.8-54.1 3.5-80.9 7-20.1 3.4-39.8-7.2-58.2-5.2-9-10.7-17.8-15-27.2-7.9-17.3 4.7-38.1 23.6-37.6 4.2.1 11.4 8.5 11.8 13.6 1.8 21.2.7 42.7 2.4 64 .9 11.8 4.9 23.5 8.2 35.1 6.8 23.2 13.5 46.5 21.4 69.3 2.7 7.7 8.1 19.3 13.6 20.1 9.1 1.3 20.5-2.7 28.7-8 7.2-4.6 10.9-14.4 16.9-21.3 16.1-18.6 32.1-19.6 53.4-7.3 8.5 4.9 21 8.2 30 5.9 22.1-5.6 30.3-22.8 20.6-43.6-13.9-29.7-9.6-56.9 5.5-83.8 12.1-21.5 37.6-29.2 62-19.2 19.7 8.1 28.2 27.8 20.8 52.3-7.8 25.7-17.8 50.6-25.6 76.3-5.4 17.7-1.9 33.9 13.9 45.8 13.9 10.5 28.1 11.8 41.6-.2 11.4-10.1 21.6-21.6 33.3-31.4 20.1-16.7 37.1-10.7 42.9 14.2 5.9 25.5-7.9 49.9-36.1 62.4-11.1 5-24.2 6.9-33.7 13.8-8.3 6-18.6 18-17.4 25.7 1.3 8.3 13.7 18.1 23.3 21.3 21.1 7.1 40.6-.7 58.2-13.7 29.9-22.2 59.5-44.8 90.1-65.9 30.3-20.8 64.8-28.6 101.1-24.6 36 4 50.9 32.7 35.7 65.4-4.9 10.6-11.8 16.5-24.2 14.7-12.7-1.9-25.4-3.4-38.2-4.6-57-5.3-106.9 14.9-153.8 44.1-23 14.3-23 33.4-2.3 50.4 5.2 4.3 10.9 7.9 15.8 12.5 13.5 12.9 13.5 32.3.3 45.4-3 3-6.4 5.6-9.7 8.4-28.6 23.6-26.5 45.6 8.3 59.7 15 6.1 34.2 9.2 49.5 5.4 61.4-14.9 107.9 36.4 113.8 84 2.8 22.8 1.8 46.3.3 69.3-1.1 16.7-9.8 30.6-27.1 35.6-16.3 4.7-28-4.7-38.3-15.9-20.2-22-29.1-49.3-34.8-77.6-8.1-39.9-33.2-62.2-70.8-73.4-15.8-4.7-29.6-4.9-41.4 9.2-12 14.3-15.1 30.1-6.2 45.8 10.7 19.1 25.2 36.1 35.8 55.2 10 17.9 19.5 36.7 24.7 56.4 5.8 22.1-5 34.6-27.4 38.8-20 3.7-34.7-7-37.5-27.3-2.8-20.6-4.3-41.4-8.6-61.6-6.4-30.2-28.8-47.8-55.1-46.1-18.5 1.2-26.4 9.1-26.9 27.6-.2 9.1 2.6 18.8.4 27.3-2.2 8.2-7.5 19.1-14.2 21.6-6.7 2.5-20.5-1.1-24.7-6.8-10.3-14-17.1-30.7-24.8-46.5-3.2-6.5-3.9-14.7-8.2-20.2-4.4-5.6-12.1-12.1-18.1-12-6.1.2-16.4 7.5-17.1 12.7-2.5 17.7-6.1 37.3-1 53.6 13.2 41.7 31.4 81.8 46.6 123 5.6 15.2 10 31.2 12.1 47.2 1.7 13.3-5.9 25.8-19.6 26.3-7.9.3-20.9-7.8-23.2-14.9-8.3-25.1-15.7-51.2-18.3-77.4-5.1-51.4-13.3-101.7-34.8-149-5.1-11.3-7.5-27.8-26.1-25.6-13.6 1.6-25.2 17.1-24.8 36.2.2 11.7 3 24.3 8.4 34.6 10.4 20.1 16.6 40.2 15.1 63-.9 14.1-7.3 20.8-20.6 23.3-40.8 7.8-58.7-9.7-50.1-50.4 3.4-16.1 11-31.6 12.3-47.7 1.3-16.3.2-34.3-5.7-49.2-6.5-16.6-19.6-16.3-27.9-.3-10.3 19.9-20.7 40.7-25.5 62.4-12.8 57.7-22.7 116-33.4 174.2-4.8 26-12 50.1-38.4 62.7-28.4 13.4-47.9 3.2-45.9-27.5 1.3-19.7 8.2-40.9 18.4-57.9 43.4-71.6 76.6-147.2 95-228.9 1.7-7.3-2-15.9-3.2-23.9-6.5 5.3-13 10.5-19.3 16-6.9 5.9-12.8 15.6-20.6 17.5-18.8 4.6-32.1-10.1-30.7-29.6 1-13.7 3.6-28.7-.6-40.9-8-23-30-24.7-45.4-5.7-18.5 22.7-35.5 46.7-55.8 67.6-18.4 18.9-38.8 13.4-49.6-10.5-5.6-12.4-5.2-24.5 6.7-32.7 13.6-9.2 28-17.1 42.4-24.9 12.3-6.7 26.7-10.5 37.3-19.1 10.3-8.4 19.9-20.3 24.3-32.6 2.9-8.1-3.9-19.7-6.4-29.7-9.1 3.3-20.6 4.2-26.8 10.4-14.9 15.1-27.5 32.6-40.7 49.3-14.4 18.1-32.4 26.8-55.9 24.8-26-2.2-38.4-14.5-38.4-40.6-.1-6.7-.1-13.4-.1-20.2z"/>
  <path class="st2" d="M39.9 484.4c0-45.7 12.6-59.9 60.8-64.1 45.6-4 91.4-6.6 134.8-23.2 6.8-2.6 14.7-3.9 20.3-8.1 6.1-4.6 14.8-12.8 13.9-17.9-1.1-6.1-10.6-13.4-17.7-15-16-3.6-33-2.6-48.9-6.3-9.1-2.1-19.6-8-24.7-15.4-10.7-15.9.2-33.1 19.3-31.5 8.7.7 17.3 5.1 25.5 8.7 15.6 7 30.2 16.7 46.4 21.1 8.9 2.4 22.5-1.1 29.4-7.2 4.9-4.3 5.1-18.4 2.3-26.3-8.9-25.4-25.3-46.4-48.8-59.8-51.5-29.2-67-74.6-61.8-130.2 2-20.8 16.5-38.9 31.6-40.3 15.7-1.4 33.3 14.8 37.5 36.6 5.7 29.3 9.8 59 14.9 88.4 4.3 25.2 17.5 45.7 37.3 61 6.2 4.8 18.6 8.6 24 5.5 5.3-3 9-16.2 7.1-23.3-7.1-27.7-5.8-54.1 3.5-80.9 7-20.1 3.4-39.8-7.2-58.2-5.2-9-10.7-17.8-15-27.2-7.9-17.3 4.7-38.1 23.6-37.6 4.2.1 11.4 8.5 11.8 13.6 1.8 21.2.7 42.7 2.4 64 .9 11.8 4.9 23.5 8.2 35.1 6.8 23.2 13.5 46.5 21.4 69.3 2.7 7.7 8.1 19.3 13.6 20.1 9.1 1.3 20.5-2.7 28.7-8 7.2-4.6 10.9-14.4 16.9-21.3 16.1-18.6 32.1-19.6 53.4-7.3 8.5 4.9 21 8.2 30 5.9 22.1-5.6 30.3-22.8 20.6-43.6-13.9-29.7-9.6-56.9 5.5-83.8 12.1-21.5 37.6-29.2 62-19.2 19.7 8.1 28.2 27.8 20.8 52.3-7.8 25.7-17.8 50.6-25.6 76.3-5.4 17.7-1.9 33.9 13.9 45.8 13.9 10.5 28.1 11.8 41.6-.2 11.4-10.1 21.6-21.6 33.3-31.4 20.1-16.7 37.1-10.7 42.9 14.2 5.9 25.5-7.9 49.9-36.1 62.4-11.1 5-24.2 6.9-33.7 13.8-8.3 6-18.6 18-17.4 25.7 1.3 8.3 13.7 18.1 23.3 21.3 21.1 7.1 40.6-.7 58.2-13.7 29.9-22.2 59.5-44.8 90.1-65.9 30.3-20.8 64.8-28.6 101.1-24.6 36 4 50.9 32.7 35.7 65.4-4.9 10.6-11.8 16.5-24.2 14.7-12.7-1.9-25.4-3.4-38.2-4.6-57-5.3-106.9 14.9-153.8 44.1-23 14.3-23 33.4-2.3 50.4 5.2 4.3 10.9 7.9 15.8 12.5 13.5 12.9 13.5 32.3.3 45.4-3 3-6.4 5.6-9.7 8.4-28.6 23.6-26.5 45.6 8.3 59.7 15 6.1 34.2 9.2 49.5 5.4 61.4-14.9 107.9 36.4 113.8 84 2.8 22.8 1.8 46.3.3 69.3-1.1 16.7-9.8 30.6-27.1 35.6-16.3 4.7-28-4.7-38.3-15.9-20.2-22-29.1-49.3-34.8-77.6-8.1-39.9-33.2-62.2-70.8-73.4-15.8-4.7-29.6-4.9-41.4 9.2-12 14.3-15.1 30.1-6.2 45.8 10.7 19.1 25.2 36.1 35.8 55.2 10 17.9 19.5 36.7 24.7 56.4 5.8 22.1-5 34.6-27.4 38.8-20 3.7-34.7-7-37.5-27.3-2.8-20.6-4.3-41.4-8.6-61.6-6.4-30.2-28.8-47.8-55.1-46.1-18.5 1.2-26.4 9.1-26.9 27.6-.2 9.1 2.6 18.8.4 27.3-2.2 8.2-7.5 19.1-14.2 21.6-6.7 2.5-20.5-1.1-24.7-6.8-10.3-14-17.1-30.7-24.8-46.5-3.2-6.5-3.9-14.7-8.2-20.2-4.4-5.6-12.1-12.1-18.1-12-6.1.2-16.4 7.5-17.1 12.7-2.5 17.7-6.1 37.3-1 53.6 13.2 41.7 31.4 81.8 46.6 123 5.6 15.2 10 31.2 12.1 47.2 1.7 13.3-5.9 25.8-19.6 26.3-7.9.3-20.9-7.8-23.2-14.9-8.3-25.1-15.7-51.2-18.3-77.4-5.1-51.4-13.3-101.7-34.8-149-5.1-11.3-7.5-27.8-26.1-25.6-13.6 1.6-25.2 17.1-24.8 36.2.2 11.7 3 24.3 8.4 34.6 10.4 20.1 16.6 40.2 15.1 63-.9 14.1-7.3 20.8-20.6 23.3-40.8 7.8-58.7-9.7-50.1-50.4 3.4-16.1 11-31.6 12.3-47.7 1.3-16.3.2-34.3-5.7-49.2-6.5-16.6-19.6-16.3-27.9-.3-10.3 19.9-20.7 40.7-25.5 62.4-12.8 57.7-22.7 116-33.4 174.2-4.8 26-12 50.1-38.4 62.7-28.4 13.4-47.9 3.2-45.9-27.5 1.3-19.7 8.2-40.9 18.4-57.9 43.4-71.6 76.6-147.2 95-228.9 1.7-7.3-2-15.9-3.2-23.9-6.5 5.3-13 10.5-19.3 16-6.9 5.9-12.8 15.6-20.6 17.5-18.8 4.6-32.1-10.1-30.7-29.6 1-13.7 3.6-28.7-.6-40.9-8-23-30-24.7-45.4-5.7-18.5 22.7-35.5 46.7-55.8 67.6-18.4 18.9-38.8 13.4-49.6-10.5-5.6-12.4-5.2-24.5 6.7-32.7 13.6-9.2 28-17.1 42.4-24.9 12.3-6.7 26.7-10.5 37.3-19.1 10.3-8.4 19.9-20.3 24.3-32.6 2.9-8.1-3.9-19.7-6.4-29.7-9.1 3.3-20.6 4.2-26.8 10.4-14.9 15.1-27.5 32.6-40.7 49.3-14.3 18.1-32.3 26.7-55.8 24.7-26-2.2-38.4-14.5-38.4-40.6-.2-6.7-.2-13.4-.2-20.1z"/>
</svg>