<svg version="1.1" id="Layer_1" xmlns="http://www.w3.org/2000/svg" x="0" y="0" viewBox="0 0 1000 1000" xml:space="preserve">
  <style>
    .st0{fill:#e4e6e7}.st2{fill:#cacdcf}
  </style>
  <path class="st0" d="M47 196.1c53.5-75.3 154.2-8.2 248.6-35.4s146.1-107 203.3-107 62.6 60.8 103.4 71.7 112.5-12.7 152.4 8.2c39.9 20.9 29.9 87.1 59 132.5 29 45.4 118.9 54.4 140.6 121.6 21.8 67.1-41.7 162.4-59.9 258.6s75.3 132.5 10.9 203.2-171.5-49-284.9-8.2C507 882 537.9 965.5 452.6 964.6s-124.3-61.7-207.8-125.2S45.2 834 23.4 745.9s79.8-130.7 87.1-237.7S-6.5 271.4 47 196.1z"/>
  <path class="st2" d="M71.2 174.3c53.5-75.3 154.2-8.2 248.6-35.4s146.1-107 203.3-107c57.2 0 62.6 60.8 103.4 71.7 40.8 10.9 112.5-12.7 152.4 8.2s29.9 87.1 59 132.5c29 45.4 118.9 54.4 140.6 121.6s-41.7 162.4-59.9 258.6 75.3 132.5 10.9 203.2-171.5-49-284.9-8.2C531.2 860.3 562 943.8 476.7 942.9c-85.3-.9-124.3-61.7-207.8-125.2s-199.6-5.4-221.4-93.5 79.8-130.7 87.1-237.7C142 379.4 17.7 249.6 71.2 174.3z"/>
  <circle class="st2" cx="911.6" cy="189.3" r="72.4"/>
  <circle class="st2" cx="645.7" cy="888.3" r="42.1"/>
  <circle class="st2" cx="304.8" cy="82.7" r="42.1"/>
</svg>