<?xml version="1.0" encoding="utf-8"?>
<svg version="1.1" id="Layer_1" xmlns="http://www.w3.org/2000/svg" xmlns:xlink="http://www.w3.org/1999/xlink" x="0px" y="0px"
	 viewBox="0 0 1100 1100" style="enable-background:new 0 0 1100 1100;" xml:space="preserve">
<style type="text/css">.st0{fill:#E4E6E7;}.st2{fill:#CACDCF;}</style>
<g>
    <path class="st0" d="M318,440c-52.5-36.7-208.7,60.7-228.3-27.5c-5.1-22.8,3.8-102.7,62.3-173.9c-86.8,84.1-99.7,189.8-93.4,217.7 c22,97.5,197.2-10.1,256,30.4c17.2,11.9,22.9,34,24.3,61.8C340.8,499.4,343,457.5,318,440z"/>
    <path class="st0"   d="M907,470.1c-5.8-47.1-48.6-240.3-245.1-313.8C808.1,231,841.5,385.3,846.3,425 c12.5,102.5-16.2,379.3-294.2,362.5c-180.9-11-211.2-98.6-214.1-184.1c-4.5,109.4-10.5,252.6,239.1,267.5 C888.9,889.5,921,583.4,907,470.1z"/>
    <path  class="st2" d="M552.2,787.5c-330-20-158.9-294.9-234.2-347.5c-52.5-36.7-208.7,60.7-228.3-27.5 c-10-45,34.3-312.9,408.3-296.7C785.5,128.3,840,373.4,846.3,425C858.8,527.5,830.2,804.3,552.2,787.5z"/>
</g>
</svg>
