<svg version="1.1" id="Layer_1" xmlns="http://www.w3.org/2000/svg" x="0" y="0" viewBox="0 0 1000 1000" xml:space="preserve">
  <style>
    .st0{fill:#e4e6e7}.st2{fill:#cacdcf}
  </style>
  <path class="st0" d="M476.6 763.9H366.1l-55.2 95.6 55.2 95.7h110.5l55.2-95.7zm354.6 0H720.8l-55.3 95.6 55.3 95.7h110.4l55.2-95.7zm-529-712.7H191.8l-55.3 95.6 55.3 95.7h110.4l55.2-95.7z"/>
  <path class="st2" d="M478.3 155.8H367.8l-55.2 95.7 55.2 95.6h110.5l55.2-95.6zm176-102H543.9l-55.3 95.6 55.3 95.6h110.4l55.2-95.6zm.9 203.2H544.7l-55.2 95.7 55.2 95.6h110.5l55.2-95.6zM477.4 358.2H367l-55.3 95.7 55.3 95.6h110.4l55.2-95.6zm176.9 101.2H543.9l-55.3 95.7 55.3 95.6h110.4l55.2-95.6zm176.9-101.2H720.8l-55.3 95.7 55.3 95.6h110.4l55.2-95.6zm.9-203.2H721.6l-55.2 95.6 55.2 95.7h110.5l55.2-95.7zm-.9 404.8H720.8l-55.3 95.6 55.3 95.7h110.4l55.2-95.7zM654.3 661H543.9l-55.3 95.6 55.3 95.7h110.4l55.2-95.7zM476.6 560.6H366.1l-55.2 95.7 55.2 95.6h110.5l55.2-95.6zM301.4 256.2H190.9l-55.2 95.6 55.2 95.7h110.5l55.2-95.7zm0 202.4H190.9l-55.2 95.6 55.2 95.7h110.5l55.2-95.7zm0 202.4H190.9l-55.2 95.6 55.2 95.7h110.5l55.2-95.7z"/>
  
</svg>