<svg version="1.1" id="Layer_1" xmlns="http://www.w3.org/2000/svg" x="0" y="0" viewBox="0 0 1000 1000" xml:space="preserve">
  <style>
    .st0{fill:#e4e6e7}.st2{fill:#cacdcf}
  </style>
  <path class="st0" d="M487.5 205.7c21-12.4 47.4-9.6 59.9-32 8.2-14.7 14.9-30.2 24.4-49.5 10.4 6.8 20.2 15.1 31.4 19.8 7 2.9 20.6 3.9 23.8-.2 16.7-20.7 39.4-16.9 60.9-17.8 1.3-.1 6.1 12.3 4.1 16-3.9 7.2-11.6 12.3-17.8 18.5 6.7 5.6 13.1 10.9 20.3 16.9 4.5-4.1 9.5-11.3 16.3-14.2 7.5-3.1 19.4-6.1 24.5-2.4 14 10.1 21 2.7 30.1-6.1 22.1-21.4 44.8-42.2 67.2-63.2 13.6 23 5.7 42.9.1 62.8 1.3 1.1 2.6 2.1 3.9 3.2 12.8-12.9 25.6-25.8 39.1-39.3 1.9 3.4 3.8 7 5.9 10.8 10.4-7.8 20.7-15.7 31.1-23.5.8.6 1.7 1.2 2.5 1.8-4.1 6.7-9 13.1-11.9 20.3-2.3 5.6-2.1 12.2-3.4 20.6 11.5-7 18.4-11.3 25.5-15.6-2.4-4.4-5.4-9.9-8.4-15.2 5.5-8.8 11.1-18.8 17.7-28.1 8.4-11.7 15.5-10.8 21.5 2.3 6 13.2 7.5 25.9-2.7 38.5-17.6 21.9-35.4 43.7-51.3 66.8-6.1 8.8-7.1 21.2-7.8 33.2 16.2-5.6 33.5 1.4 44.9-12.9 1.7-2.1 10.3-1.4 13.6 1 15.4 11 16.8 34 3.4 47.9-7.5 7.7-14.9 14.3-9.4 27.1 7.2 16.9-7.5 26.7-16.1 36.4-11.1 12.6-14.4 20.7 9.5 27.9-11.4 9.1-18.7 16.2-27.2 21.5-27.6 17.6-52.5 37.2-63.1 72.7 6.9-.4 12.3-.9 17.6-1 4.4-.1 9.9-1.3 12.8.8 5.7 4 10.1 10 14.8 15.3 6.9 7.9 7.4-17.9 15.5-2.9 2.3-1.8 4.6-3.5 6.8-5.4 9.1-8 17.7-6.9 24.2 3.1.6.9 1 2.2 1.9 2.8 6.2 4.3 17.8 8.5 17.9 12.8.2 11.4-4.4 22.9-7.6 34.3-1.7 6-4.3 11.8-7.4 20-9.6-3.7-20.2-7.8-30.8-11.9-.4-2.4-.7-4.7-1.1-7.1-8.3 9.1-18.7 17-24.2 27.6-4.6 8.8-3.3 20.7-5 34.4 6.8-1.6 12.5-3 23.3-5.6-5.1 12.8-7.3 25.7-14.3 34.8-18.6 24-39.3 46.4-59.2 69.4-8 9.3-19.2 17.8-4.2 30.6 2.3 2 4.1 7.9 2.8 10.3-11.9 23.6 4.9 55.5-23.6 75.2-18.2-28.4 2-58.5-.5-84.1-29.5 27.6-44.7 65.4-58.3 104.2-2.7-.6-5.5-1.1-8.2-1.7 0-7 .2-13.9-.1-20.9-.3-8.1 13.9-14.7 2.7-24.2-.2-.2 3.2-6.6 5-6.6 18.2-.2 17.7-15.6 20.4-29.4-14.1 11-28.1 22.1-42.2 33.1-1.4 1.1-4 2.4-3.9 3.3 5.6 32.9-29.8 37.3-40.3 61.7-8.6-7.7-15.5-14.2-22.7-20.2-2.1-1.8-5-3.4-7.7-3.5-33.4-1.3-42.4-16-32-51-14.4 16.5-28.8 33.1-43.2 49.6-9.6-5.3-17-9.4-25.1-13.8-2.8 4-4.7 7.2-7.1 9.9-14.1 15.4-28.6 30.3-42.2 46.1-4.5 5.2-6.8 12.2-9.7 18.6-8.8 19.5-20.8 36.1-43.3 46.8-8.1-10.3-15.8-21-24.5-30.8-2.7-3.1-8.9-3-11.9-6-11.4-11.5-22.6-23.4-32.6-36.1-1.5-1.9 2.6-9.9 5.9-13.6 22.7-25.4 45.9-50.3 68.7-75.6 1.5-1.7 1.5-5.2 1.4-7.9-.8-18.1-1.7-36.3-2.7-55.4-19.6 4.6-40.4 14.9-55.9 33.7-13.5 16.4-21.1 17-34.9.4-2-2.4-4.2-6-6.6-6.3-16.1-1.7-33.3-6.3-48.3-2.6-11.5 2.8-20.4 16.4-30.2 25.4-1.6 1.5-1.8 4.6-3.5 5.8-15.4 11.3-31.3 21.7-46.3 33.5-11.6 9.1-20 19.9-39 15.2-8.5-2.1-20.6 11.6-31.4 17.5-11.8 6.4-24.1 11.7-35.9 18.2-12 6.6-23.7 14-37.4 18.8 1.8-2.1 3.6-4.2 6.8-7.9-5.4.9-9.4 1.6-13.1 2.2-1-11.1-2-21.2-3.4-35.8 53.7-21.9 102.8-59.1 146-102.4-5.5-10.3-16.6-21.6-15.9-32.2.8-13.5 10-27.1 17.8-39.3 7.5-11.8 7.3-20.2-5.8-28.7-26.9 22.7-54.1 45.7-83.2 70.3-6.5-4.9-14.1-10.6-21.2-16-7.6 5.2-14.3 12.7-22.3 14.7-23.4 5.6-21.6-16.4-27.9-28.6-3.3-6.3-3-14.5-3.6-17.9 9.6-7.1 18.2-12.2 25.1-19 37.4-36.5 74.5-73.4 111.6-110.2.9-.9 2.2-1.7 2.4-2.8 7.7-39.6 46.5-54.9 66.3-84.9 4.5-6.8 6.7-15.3 11.9-21.4 12.1-14.4 25.7-27.5 37.9-41.8 2.7-3.2 2.1-9.3 3.5-16.4 1.9-2.1 6.5-7.1 11.1-12.1.6 1.8 1.6 4.9 4.3 13.5 5.6-12.2 9.5-20.5 11.5-24.8 8.2-5.1 14.9-7.4 19-12.1 8.6-9.8 16-20.7 23.5-31.4 8.4-11.8 14.2-24.4 34.1-21.9 9.6 1.2 23.2-7.6 30.5-15.8 15.1-17.2 27.2-37.2 40.6-55.9 2.9-4.1 6.2-8 9.3-12 3.5 3 10.2 6.5 9.9 8.8-1 5.8-3.8 13.5-8.3 16-11.7 5.9-17.4 14.3-17.6 30.2z"/>
  <path class="st0" d="M148.4 673c9.1 8.9 29 13.6 13 30.4-3.6 3.8-16.1 4.8-20.2 1.6-17.3-13.5 6.4-20.4 7.2-32zM692 826.2c-5.1 7.1-10.2 14.3-16.8 23.3-4.3-8.1-7.2-13.8-11-21 8.4-2.3 16.2-4.5 24.1-6.7 1.3 1.5 2.5 3 3.7 4.4z"/>
  <path class="st2" d="M463.3 212.1c21-12.4 47.4-9.6 59.9-32 8.2-14.7 14.9-30.2 24.4-49.5 10.4 6.8 20.2 15.1 31.4 19.8 7 2.9 20.6 3.9 23.8-.2 16.7-20.7 39.4-16.9 60.9-17.8 1.3-.1 6.1 12.3 4.1 16-3.9 7.2-11.6 12.3-17.8 18.5 6.7 5.6 13.1 10.9 20.3 16.9 4.5-4.1 9.5-11.3 16.3-14.2 7.5-3.1 19.4-6.1 24.5-2.4 14 10.1 21 2.7 30.1-6.1 22.1-21.4 44.8-42.2 67.2-63.2 13.6 23 5.7 42.9.1 62.8 1.3 1.1 2.6 2.1 3.9 3.2 12.8-12.9 25.6-25.8 39.1-39.3 1.9 3.4 3.8 7 5.9 10.8 10.4-7.8 20.7-15.7 31.1-23.5.8.6 1.7 1.2 2.5 1.8-4.1 6.7-9 13.1-11.9 20.3-2.3 5.6-2.1 12.2-3.4 20.6 11.5-7 18.4-11.3 25.5-15.6-2.4-4.4-5.4-9.9-8.4-15.2 5.5-8.8 11.1-18.8 17.7-28.1C918.9 84 926 84.9 932 98c6 13.2 7.5 25.9-2.7 38.5-17.6 21.9-35.4 43.7-51.3 66.8-6.1 8.8-7.1 21.2-7.8 33.2 16.2-5.6 33.5 1.4 44.9-12.9 1.7-2.1 10.3-1.4 13.6 1 15.4 11 16.8 34 3.4 47.9-7.5 7.7-14.9 14.3-9.4 27.1 7.2 16.9-7.5 26.7-16.1 36.4-11.1 12.6-14.4 20.7 9.5 27.9-11.4 9.1-18.7 16.2-27.2 21.5-27.6 17.6-52.5 37.2-63.1 72.7 6.9-.4 12.3-.9 17.6-1 4.4-.1 9.9-1.3 12.8.8 5.7 4 10.1 10 14.8 15.3 6.9 7.9 7.4-17.9 15.5-2.9 2.3-1.8 4.6-3.5 6.8-5.4 9.1-8 17.7-6.9 24.2 3.1.6.9 1 2.2 1.9 2.8 6.2 4.3 17.8 8.5 17.9 12.8.2 11.4-4.4 22.9-7.6 34.3-1.7 6-4.3 11.8-7.4 20-9.6-3.7-20.2-7.8-30.8-11.9-.4-2.4-.7-4.7-1.1-7.1-8.3 9.1-18.7 17-24.2 27.6-4.6 8.8-3.3 20.7-5 34.4 6.8-1.6 12.5-3 23.3-5.6-5.1 12.8-7.3 25.7-14.3 34.8-18.6 24-39.3 46.4-59.2 69.4-8 9.3-19.2 17.8-4.2 30.6 2.3 2 4.1 7.9 2.8 10.3-11.9 23.6 4.9 55.5-23.6 75.2-18.2-28.4 2-58.5-.5-84.1-29.5 27.6-44.7 65.4-58.3 104.2-2.7-.6-5.5-1.1-8.2-1.7 0-7 .2-13.9-.1-20.9-.3-8.1 13.9-14.7 2.7-24.2-.2-.2 3.2-6.6 5-6.6 18.2-.2 17.7-15.6 20.4-29.4-14.1 11-28.1 22.1-42.2 33.1-1.4 1.1-4 2.4-3.9 3.3 5.6 32.9-29.8 37.3-40.3 61.7-8.6-7.7-15.5-14.2-22.7-20.2-2.1-1.8-5-3.4-7.7-3.5-33.4-1.3-42.4-16-32-51-14.4 16.5-28.8 33.1-43.2 49.6-9.6-5.3-17-9.4-25.1-13.8-2.8 4-4.7 7.2-7.1 9.9-14.1 15.4-28.6 30.3-42.2 46.1-4.5 5.2-6.8 12.2-9.7 18.6-8.8 19.5-20.8 36.1-43.3 46.8-8.1-10.3-15.8-21-24.5-30.8-2.7-3.1-8.9-3-11.9-6-11.4-11.5-22.6-23.4-32.6-36.1-1.5-1.9 2.6-9.9 5.9-13.6 22.7-25.4 45.9-50.3 68.7-75.6 1.5-1.7 1.5-5.2 1.4-7.9-.8-18.1-1.7-36.3-2.7-55.4-19.6 4.6-40.4 14.9-55.9 33.7-13.5 16.4-21.1 17-34.9.4-2-2.4-4.2-6-6.6-6.3-16.1-1.7-33.3-6.3-48.3-2.6-11.5 2.8-20.4 16.4-30.2 25.4-1.6 1.5-1.8 4.6-3.5 5.8-15.4 11.3-31.3 21.7-46.3 33.5-11.6 9.1-20 19.9-39 15.2-8.5-2.1-20.6 11.6-31.4 17.5-11.8 6.4-24.1 11.7-35.9 18.2-12 6.6-23.7 14-37.4 18.8 1.8-2.1 3.6-4.2 6.8-7.9-5.4.9-9.4 1.6-13.1 2.2-1-11.1-2-21.2-3.4-35.8 53.7-21.9 102.8-59.1 146-102.4-5.5-10.3-16.6-21.6-15.9-32.2.8-13.5 10-27.1 17.8-39.3 7.5-11.8 7.3-20.2-5.8-28.7-26.9 22.7-54.1 45.7-83.2 70.3-6.5-4.9-14.1-10.6-21.2-16-7.6 5.2-14.3 12.7-22.3 14.7-23.2 5.5-21.5-16.6-27.8-28.8-3.3-6.3-3-14.5-3.6-17.9 9.6-7.1 18.2-12.2 25.1-19 37.4-36.5 74.5-73.4 111.6-110.2.9-.9 2.2-1.7 2.4-2.8 7.7-39.6 46.5-54.9 66.3-84.9 4.5-6.8 6.7-15.3 11.9-21.4 12.1-14.4 25.7-27.5 37.9-41.8 2.7-3.2 2.1-9.3 3.5-16.4 1.9-2.1 6.5-7.1 11.1-12.1.6 1.8 1.6 4.9 4.3 13.5 5.6-12.2 9.5-20.5 11.5-24.8 8.2-5.1 14.9-7.4 19-12.1 8.6-9.8 16-20.7 23.5-31.4 8.4-11.8 14.2-24.4 34.1-21.9 9.6 1.2 23.2-7.6 30.5-15.8 15.1-17.2 27.2-37.2 40.6-55.9 2.9-4.1 6.2-8 9.3-12 3.5 3 10.2 6.5 9.9 8.8-1 5.8-3.8 13.5-8.3 16-11.7 6.1-17.5 14.5-17.7 30.4z"/>
  <path class="st2" d="M124.3 679.4c9.1 8.9 29 13.6 13 30.4-3.6 3.8-16.1 4.8-20.2 1.6-17.4-13.5 6.3-20.4 7.2-32zm578 153.7c-5.1 7.1-10.2 14.3-16.8 23.3-4.3-8.1-7.2-13.8-11-21 8.4-2.3 16.2-4.5 24.1-6.7 1.2 1.5 2.5 2.9 3.7 4.4z"/>
</svg>