<svg version="1.1" id="Layer_1" xmlns="http://www.w3.org/2000/svg" x="0" y="0" viewBox="0 0 1000 1000" xml:space="preserve">
  <style>
    .st0{fill:#e4e6e7}.st2{fill:#cacdcf}
  </style>
  <path class="st0" d="M690.6 525.9C636.3 555.5 541.2 660.5 567 778.2c37.2 169.6 501.1-88.2 385.9-218.7-78.3-88.6-231.7-50.2-262.3-33.6zM37.7 465.6C45.4 264 229.4 99.7 497.4 99.7s-282.1 115-282.1 258.2 477 90.8 366.4 213.1-112.2 28.9-169.4 62.3C296.4 701 28.6 703.7 37.7 465.6z"/>
  <path class="st2" d="M82.3 453.1C90 251.5 242.3 96.5 510.4 96.5s380 67.7 380 210.8-153.5 128.9-264.2 251.2-91.1 245-148.4 278.5C362.1 904.7 73.2 691.2 82.3 453.1z"/>
  <path class="st2" d="M678.3 529.9c-52 27.5-143.1 124.9-118.4 234.2 35.6 157.4 479.9-81.9 369.6-203-75-82.3-221.9-46.7-251.2-31.2z"/>
</svg>