<svg version="1.1" id="Layer_1" xmlns="http://www.w3.org/2000/svg" x="0" y="0" viewBox="0 0 1000 1000" xml:space="preserve">
  <style>
    .st0{fill:#e4e6e7}.st2{fill:#cacdcf}
  </style>
  <path class="st0" d="m826.9 101.5 3.6 151.1-137.2 26.9 155 20.3L874.9 465l-142.1 94 3.6 10 113-50.4 50.7 58.2-154.2 71.9 173.7-8.7-6.9 163.3-652.6 118.2-44.1-81.6 176.4-92.7-203.5 72.7-37.4-105.3 119.7-55.8-206.4 15.8-24-132.7 274.1-104.7-158.8-9.3-23.2-117.3L258 246.1 97.3 268 86.6 76z"/>
  <path class="st2" d="m855.8 101.5 3.6 151.1-137.1 26.9 155 20.3L903.9 465l-142.2 94 3.7 10 113-50.4 50.6 58.2-154.1 71.9 173.6-8.7-6.8 163.3-652.6 118.2-44.2-81.6 176.5-92.7-203.5 72.7-37.4-105.3 119.7-55.8-206.5 15.8-23.9-132.7 274.1-104.7-158.9-9.3-23.2-117.3L287 246.1 126.2 268 115.5 76zM150.1 926.6l73.3 8.3-29.1-45.9zM910.2 238l20.2 49.2 42.1-49.2z"/>
  <path class="st2" d="m58.5 287.2 35.3 28.4v-28.4z"/>
</svg>