<?xml version="1.0" encoding="utf-8"?>
<!-- Generator: Adobe Illustrator 24.0.0, SVG Export Plug-In . SVG Version: 6.00 Build 0)  -->
<svg version="1.1" id="Layer_1" xmlns="http://www.w3.org/2000/svg" xmlns:xlink="http://www.w3.org/1999/xlink" x="0px" y="0px"
	 viewBox="0 0 64 64" style="enable-background:new 0 0 64 64;" xml:space="preserve">
<style type="text/css">
	.st0{fill:#FFFFFF;}
</style>
<g>
	<path class="st0" d="M50.2,12.7H13.8c-1.9,0-3.5,1.6-3.5,3.5v31.6c0,1.9,1.6,3.5,3.5,3.5h36.4c1.9,0,3.5-1.6,3.5-3.5V16.2
		C53.7,14.3,52.1,12.7,50.2,12.7z M50.7,47.8c0,0.3-0.2,0.5-0.5,0.5H13.8c-0.3,0-0.5-0.2-0.5-0.5V16.2c0-0.3,0.2-0.5,0.5-0.5h36.4
		c0.3,0,0.5,0.2,0.5,0.5V47.8z"/>
	<path class="st0" d="M60.2,17.2h-1.1c-0.8,0-1.5,0.7-1.5,1.5s0.7,1.5,1.5,1.5h1.1c0.2,0,0.4,0.2,0.4,0.4v22.9
		c0,0.2-0.2,0.4-0.4,0.4h-1.1c-0.8,0-1.5,0.7-1.5,1.5s0.7,1.5,1.5,1.5h1.1c1.8,0,3.4-1.5,3.4-3.4V20.5C63.5,18.7,62,17.2,60.2,17.2z
		"/>
	<path class="st0" d="M3.8,20.2h1.1c0.8,0,1.5-0.7,1.5-1.5s-0.7-1.5-1.5-1.5H3.8c-1.8,0-3.4,1.5-3.4,3.4v22.9c0,1.8,1.5,3.4,3.4,3.4
		h1.1c0.8,0,1.5-0.7,1.5-1.5s-0.7-1.5-1.5-1.5H3.8c-0.2,0-0.4-0.2-0.4-0.4V20.5C3.5,20.3,3.6,20.2,3.8,20.2z"/>
	<path class="st0" d="M32,40.8c-1.3,0-2.3,1-2.3,2.3s1,2.3,2.3,2.3s2.3-1,2.3-2.3S33.3,40.8,32,40.8z"/>
	<path class="st0" d="M24.6,41.5c-0.8,0-1.5,0.7-1.5,1.5s0.7,1.5,1.5,1.5s1.5-0.7,1.5-1.5S25.5,41.5,24.6,41.5z"/>
	<path class="st0" d="M39.4,41.5c-0.8,0-1.5,0.7-1.5,1.5s0.7,1.5,1.5,1.5s1.5-0.7,1.5-1.5S40.2,41.5,39.4,41.5z"/>
</g>
</svg>
