<?xml version="1.0" encoding="utf-8"?>
<!-- Generator: Adobe Illustrator 24.1.3, SVG Export Plug-In . SVG Version: 6.00 Build 0)  -->
<svg version="1.1" id="Layer_1" xmlns="http://www.w3.org/2000/svg" xmlns:xlink="http://www.w3.org/1999/xlink" x="0px" y="0px"
	 viewBox="0 0 64 64" style="enable-background:new 0 0 64 64;" xml:space="preserve">
<style type="text/css">
	.st0{fill:#FFFFFF;}
</style>
<g>
	<path class="st0" d="M61.8,5.3H2.2C1.4,5.3,0.7,6,0.7,6.8v50.2c0,0.8,0.7,1.5,1.5,1.5h59.5c0.8,0,1.5-0.7,1.5-1.5V6.8
		C63.3,6,62.6,5.3,61.8,5.3z M46.9,8.3v47.2H36.8V8.3H46.9z M3.7,8.3h30v47.2h-30V8.3z M60.3,55.6H49.9V8.3h10.4V55.6z"/>
	<path class="st0" d="M8,35.4h17.5c0.8,0,1.5-0.7,1.5-1.5s-0.7-1.5-1.5-1.5H8c-0.8,0-1.5,0.7-1.5,1.5S7.2,35.4,8,35.4z"/>
	<path class="st0" d="M25.5,44.6H8c-0.8,0-1.5,0.7-1.5,1.5s0.7,1.5,1.5,1.5h17.5c0.8,0,1.5-0.7,1.5-1.5S26.3,44.6,25.5,44.6z"/>
	<path class="st0" d="M8,41.6h14.2c0.8,0,1.5-0.7,1.5-1.5s-0.7-1.5-1.5-1.5H8c-0.8,0-1.5,0.7-1.5,1.5S7.2,41.6,8,41.6z"/>
</g>
</svg>
