<?xml version="1.0" encoding="utf-8"?>
<!-- Generator: Adobe Illustrator 24.2.3, SVG Export Plug-In . SVG Version: 6.00 Build 0)  -->
<svg version="1.1" id="Layer_1" xmlns="http://www.w3.org/2000/svg" xmlns:xlink="http://www.w3.org/1999/xlink" x="0px" y="0px"
	 viewBox="0 0 64 64" style="enable-background:new 0 0 64 64;" xml:space="preserve">
<style type="text/css">
	.st0{fill:#FFFFFF;}
</style>
<g>
	<path class="st0" d="M63.2,21.5c-0.2-0.4-0.5-0.7-1-0.8C61.5,20.6,43.9,16,35.9,21c-1,0.6-1.9,1.4-2.5,2.3
		c-4-5.3-13.8-6.3-28.1-2.6l-0.5,0.1c-0.2,0-0.3,0.1-0.5,0.2c-0.6,0.2-1,0.8-1,1.4v21c-1.7,0.6-3,2.3-3,4.2c0,2.5,2,4.5,4.5,4.5
		s4.5-2,4.5-4.5c0-2-1.3-3.6-3-4.2v-15c3.5,7,10.2,17.9,17.6,17.9c4.8,0,7.9-2.7,9.6-5.3c1.6,2.3,4.5,5.1,9.3,5.1
		c11.2,0,20-22.4,20.3-23.3C63.4,22.4,63.4,21.9,63.2,21.5z M4.9,49.1c-0.8,0-1.5-0.7-1.5-1.5s0.7-1.5,1.5-1.5s1.5,0.7,1.5,1.5
		S5.7,49.1,4.9,49.1z M42.9,43.1c-5.8,0-7.9-5.7-8-5.9c-0.2-0.6-0.8-1-1.4-1c-0.6,0-1.2,0.4-1.4,1c-0.1,0.2-2,6-8.1,6
		c-6.5,0-13.7-13.2-16.7-19.9c7.5-1.8,22.2-4.2,24.8,3.9c0.2,0.7,0.8,1.1,1.5,1c0.7,0,1.3-0.5,1.4-1.2c0.3-1.5,1.1-2.6,2.5-3.5
		c5.6-3.5,17.9-1.2,22.3-0.3C56.9,30,49.9,43.1,42.9,43.1z"/>
	<path class="st0" d="M23,27c-4-0.2-6.9,3.2-7,3.3c-0.3,0.4-0.4,0.8-0.3,1.3c0,0.2,0.1,0.4,0.2,0.6c0.1,0.2,2.5,4,6.5,4.4
		c0.2,0,0.5,0,0.7,0c2.3,0,4.5-1.1,6.7-3.4c0.5-0.5,0.6-1.3,0.1-1.9C27.9,28.6,25.6,27.1,23,27z M22.7,33.7
		c-1.6-0.2-2.9-1.3-3.6-2.2c0.8-0.7,2.2-1.6,3.8-1.5c1.3,0.1,2.6,0.8,3.8,2.1C25.3,33.3,24,33.9,22.7,33.7z"/>
	<path class="st0" d="M43.3,27.1c-4,0.6-6.2,4.3-6.3,4.5c-0.2,0.4-0.3,0.9-0.1,1.3c0.1,0.2,0.2,0.4,0.3,0.6c0.1,0.1,2.9,3.2,6.7,3.2
		c0.2,0,0.3,0,0.5,0c2.5-0.2,4.8-1.7,6.7-4.6c0.4-0.6,0.3-1.4-0.2-1.9C48.4,27.8,45.9,26.8,43.3,27.1z M44.2,33.7
		c-1.6,0.1-3.1-0.8-4-1.5c0.7-0.8,1.9-1.9,3.5-2.2c1.3-0.2,2.7,0.3,4.1,1.4C46.7,32.9,45.5,33.6,44.2,33.7z"/>
</g>
</svg>
