<?xml version="1.0" encoding="utf-8"?>
<!-- Generator: Adobe Illustrator 25.0.1, SVG Export Plug-In . SVG Version: 6.00 Build 0)  -->
<svg version="1.1" id="Layer_1" xmlns="http://www.w3.org/2000/svg" xmlns:xlink="http://www.w3.org/1999/xlink" x="0px" y="0px"
	 viewBox="0 0 64 64" style="enable-background:new 0 0 64 64;" xml:space="preserve">
<style type="text/css">
	.st0{fill:#FFFFFF;}
</style>
<g>
	<path class="st0" d="M17.9,14.3H7.2c-0.8,0-1.5,0.7-1.5,1.5s0.7,1.5,1.5,1.5h10.7c0.8,0,1.5-0.7,1.5-1.5S18.7,14.3,17.9,14.3z"/>
	<path class="st0" d="M7.2,11.9h7.9c0.8,0,1.5-0.7,1.5-1.5s-0.7-1.5-1.5-1.5H7.2c-0.8,0-1.5,0.7-1.5,1.5S6.4,11.9,7.2,11.9z"/>
	<path class="st0" d="M24.8,9.9V3.4c0-1.7-1.3-3.1-2.9-3.1H3.2c-1.6,0-2.9,1.4-2.9,3.1v19.2c0,1.7,1.3,3.1,2.9,3.1H22
		c1.6,0,2.9-1.4,2.9-3.1v-6l2-2.5c0.5-0.6,0.4-1.3,0-1.9L24.8,9.9z M22.2,15.2c-0.2,0.3-0.3,0.6-0.3,0.9v6.5c0,0,0,0.1,0,0.1H3.4
		c0,0,0-0.1,0-0.1V3.4c0,0,0-0.1,0-0.1h18.5c0,0,0,0.1,0,0.1v7c0,0.3,0.1,0.7,0.3,1l1.6,1.9L22.2,15.2z"/>
	<path class="st0" d="M17.9,52H7.2c-0.8,0-1.5,0.7-1.5,1.5S6.4,55,7.2,55h10.7c0.8,0,1.5-0.7,1.5-1.5S18.7,52,17.9,52z"/>
	<path class="st0" d="M7.2,49.6h7.9c0.8,0,1.5-0.7,1.5-1.5s-0.7-1.5-1.5-1.5H7.2c-0.8,0-1.5,0.7-1.5,1.5S6.4,49.6,7.2,49.6z"/>
	<path class="st0" d="M24.8,47.6v-6.4c0-1.7-1.3-3.1-2.9-3.1H3.2c-1.6,0-2.9,1.4-2.9,3.1v19.2c0,1.7,1.3,3.1,2.9,3.1H22
		c1.6,0,2.9-1.4,2.9-3.1v-6l2-2.5c0.5-0.6,0.4-1.3,0-1.9L24.8,47.6z M22.2,53c-0.2,0.3-0.3,0.6-0.3,0.9v6.5c0,0,0,0.1,0,0.1H3.4
		c0,0,0-0.1,0-0.1V41.2c0,0,0-0.1,0-0.1h18.5c0,0,0,0.1,0,0.1v7c0,0.3,0.1,0.7,0.3,1l1.6,1.9L22.2,53z"/>
	<path class="st0" d="M56.9,33.5H46.2c-0.8,0-1.5,0.7-1.5,1.5s0.7,1.5,1.5,1.5h10.7c0.8,0,1.5-0.7,1.5-1.5S57.8,33.5,56.9,33.5z"/>
	<path class="st0" d="M56.9,28.1H49c-0.8,0-1.5,0.7-1.5,1.5s0.7,1.5,1.5,1.5h7.9c0.8,0,1.5-0.7,1.5-1.5S57.8,28.1,56.9,28.1z"/>
	<path class="st0" d="M60.9,19.6H42.1c-1.6,0-2.9,1.4-2.9,3.1v6l-2,2.5c-0.5,0.6-0.5,1.3,0,1.9l2,2.4v6.4c0,1.7,1.3,3.1,2.9,3.1
		h18.8c1.6,0,2.9-1.4,2.9-3.1V22.7C63.8,21,62.5,19.6,60.9,19.6z M60.8,41.9C60.8,42,60.8,42,60.8,41.9L42.3,42c0,0,0-0.1,0-0.1v-7
		c0-0.3-0.1-0.7-0.3-1l-1.6-1.9l1.6-1.9c0.2-0.3,0.3-0.6,0.3-0.9v-6.5c0,0,0-0.1,0-0.1h18.5c0,0,0,0.1,0,0.1V41.9z"/>
	<path class="st0" d="M35.5,13.2c0-1.8-1.5-3.3-3.3-3.3s-3.3,1.5-3.3,3.3c0,1.3,0.7,2.4,1.8,2.9v13c-1.1,0.5-1.8,1.6-1.8,2.9
		s0.7,2.4,1.8,2.9v12.8c0,0.1,0,0.1,0,0.2c-1.1,0.5-1.8,1.7-1.8,2.9c0,1.8,1.5,3.3,3.3,3.3s3.3-1.5,3.3-3.3c0-1.3-0.7-2.4-1.8-2.9
		c0-0.1,0-0.1,0-0.2V34.9c1.1-0.5,1.8-1.6,1.8-2.9s-0.7-2.4-1.8-2.9v-13C34.8,15.6,35.5,14.5,35.5,13.2z"/>
</g>
</svg>
