<?xml version="1.0" encoding="utf-8"?>
<!-- Generator: Adobe Illustrator 24.0.0, SVG Export Plug-In . SVG Version: 6.00 Build 0)  -->
<svg version="1.1" id="Layer_1" xmlns="http://www.w3.org/2000/svg" xmlns:xlink="http://www.w3.org/1999/xlink" x="0px" y="0px"
	 viewBox="0 0 64 64" style="enable-background:new 0 0 64 64;" xml:space="preserve">
<style type="text/css">
	.st0{fill:#FFFFFF;}
</style>
<g>
	<path class="st0" d="M33.1,30.9L24,9C23.7,8.4,23.2,8,22.6,8H2.1C1.3,8,0.6,8.7,0.6,9.5v45c0,0.8,0.7,1.5,1.5,1.5h20.4
		c0.6,0,1.2-0.4,1.4-0.9l9.1-23C33.2,31.7,33.2,31.3,33.1,30.9z M21.5,53H3.6V11h17.9l8.5,20.5L21.5,53z"/>
	<path class="st0" d="M63.3,30.9L54.2,9C53.9,8.4,53.4,8,52.8,8H33.3c-0.5,0-1,0.3-1.2,0.7c-0.3,0.4-0.3,0.9-0.1,1.4L41,31.7
		l-9.1,22.2c-0.2,0.5-0.1,1,0.1,1.4c0.3,0.4,0.7,0.7,1.2,0.7h19.5c0.6,0,1.2-0.4,1.4-0.9l9.1-23C63.4,31.7,63.4,31.3,63.3,30.9z
		 M51.8,53H35.6L44,32.2c0.2-0.4,0.1-0.8,0-1.1L35.6,11h16.2l8.5,20.5L51.8,53z"/>
</g>
</svg>
