<?xml version="1.0" encoding="utf-8"?>
<!-- Generator: Adobe Illustrator 27.2.0, SVG Export Plug-In . SVG Version: 6.00 Build 0)  -->
<svg version="1.1" id="Layer_1" xmlns="http://www.w3.org/2000/svg" xmlns:xlink="http://www.w3.org/1999/xlink" x="0px" y="0px"
	 viewBox="0 0 64 64" style="enable-background:new 0 0 64 64;" xml:space="preserve">
<style type="text/css">
	.st0{fill:#FFFFFF;}
</style>
<g>
	<path class="st0" d="M61.2,20.1H2.9c-0.8,0-1.5,0.7-1.5,1.5v37.7c0,0.8,0.7,1.5,1.5,1.5h58.4c0.8,0,1.5-0.7,1.5-1.5V21.6
		C62.7,20.8,62.1,20.1,61.2,20.1z M59.7,57.9H4.4V23.1h55.4V57.9z"/>
	<path class="st0" d="M14.6,34.4h34.9c0.8,0,1.5-0.7,1.5-1.5s-0.7-1.5-1.5-1.5H14.6c-0.8,0-1.5,0.7-1.5,1.5S13.8,34.4,14.6,34.4z"/>
	<path class="st0" d="M14.6,42h28.9c0.8,0,1.5-0.7,1.5-1.5S44.4,39,43.5,39H14.6c-0.8,0-1.5,0.7-1.5,1.5S13.8,42,14.6,42z"/>
	<path class="st0" d="M14.6,49.6h31.8c0.8,0,1.5-0.7,1.5-1.5s-0.7-1.5-1.5-1.5H14.6c-0.8,0-1.5,0.7-1.5,1.5S13.8,49.6,14.6,49.6z"/>
	<path class="st0" d="M9.1,14.2c3.3,0,6-2.7,6-6s-2.7-6-6-6s-6,2.7-6,6S5.8,14.2,9.1,14.2z M9.1,5.2c1.7,0,3,1.4,3,3s-1.4,3-3,3
		s-3-1.4-3-3S7.4,5.2,9.1,5.2z"/>
	<circle class="st0" cx="32.9" cy="8.2" r="3.7"/>
	<path class="st0" d="M56.6,12c2,0,3.7-1.7,3.7-3.7s-1.7-3.7-3.7-3.7S53,6.2,53,8.3S54.6,12,56.6,12z"/>
	<path class="st0" d="M19,9.6h6.1c0.8,0,1.5-0.7,1.5-1.5S26,6.6,25.1,6.6H19c-0.8,0-1.5,0.7-1.5,1.5S18.2,9.6,19,9.6z"/>
	<path class="st0" d="M41.1,9.7h7.8c0.8,0,1.5-0.7,1.5-1.5s-0.7-1.5-1.5-1.5h-7.8c-0.8,0-1.5,0.7-1.5,1.5S40.2,9.7,41.1,9.7z"/>
</g>
</svg>
