<?xml version="1.0" encoding="utf-8"?>
<!-- Generator: Adobe Illustrator 24.2.3, SVG Export Plug-In . SVG Version: 6.00 Build 0)  -->
<svg version="1.1" id="Layer_1" xmlns="http://www.w3.org/2000/svg" xmlns:xlink="http://www.w3.org/1999/xlink" x="0px" y="0px"
	 viewBox="0 0 64 64" style="enable-background:new 0 0 64 64;" xml:space="preserve">
<style type="text/css">
	.st0{fill:#FFFFFF;}
</style>
<g>
	<path class="st0" d="M50.3,7.6c-7,0-12.7,5.7-12.7,12.7S43.3,33,50.3,33c7,0,12.7-5.7,12.7-12.7S57.2,7.6,50.3,7.6z M50.3,30
		c-5.3,0-9.7-4.3-9.7-9.7s4.3-9.7,9.7-9.7c5.3,0,9.7,4.3,9.7,9.7S55.6,30,50.3,30z"/>
	<path class="st0" d="M55.1,46.4l-11.6-8.9c-0.5-0.4-1.2-0.4-1.8,0L33.8,43L20.2,30.2c-0.5-0.5-1.3-0.5-1.8-0.2L4.3,39V16.5
		c0-0.3,0.2-0.5,0.5-0.5h30.9c0.3-1.1,0.7-2.1,1.3-3.1H4.8c-2,0-3.6,1.6-3.6,3.6V50c0,2,1.6,3.6,3.6,3.6h49.8c2,0,3.6-1.6,3.6-3.6
		V33.3c-1,0.6-2,1.1-3.1,1.4V46.4z M54.6,50.5H4.8c-0.3,0-0.5-0.2-0.5-0.5v-7.5c0.1,0,0.1-0.1,0.2-0.1L19,33.2L32.6,46
		c0.5,0.5,1.3,0.5,1.9,0.1l8-5.6L55,50.2C54.9,50.4,54.8,50.5,54.6,50.5z"/>
</g>
</svg>
