<?xml version="1.0" encoding="utf-8"?>
<!-- Generator: Adobe Illustrator 24.0.1, SVG Export Plug-In . SVG Version: 6.00 Build 0)  -->
<svg version="1.1" id="Layer_1" xmlns="http://www.w3.org/2000/svg" xmlns:xlink="http://www.w3.org/1999/xlink" x="0px" y="0px"
	 viewBox="0 0 64 64" style="enable-background:new 0 0 64 64;" xml:space="preserve">
<style type="text/css">
	.st0{fill:#FFFFFF;}
</style>
<g>
	<path class="st0" d="M32,6.5C14.7,6.5,0.6,17.9,0.6,32c0,4,2.9,10.2,3.8,12L1.2,55.6c-0.1,0.5,0,1.1,0.4,1.5c0.3,0.3,0.6,0.4,1,0.4
		c0.2,0,0.3,0,0.5-0.1l11.8-4.1c2.3,0.9,11.2,4.1,17.1,4.1C49.3,57.4,63.4,46,63.4,32C63.4,17.9,49.3,6.5,32,6.5z M32,54.4
		c-6,0-16.4-4.1-16.5-4.1c-0.2-0.1-0.4-0.1-0.6-0.1c-0.2,0-0.3,0-0.5,0.1l-9.6,3.4l2.5-9.4c0.1-0.4,0.1-0.7-0.1-1.1
		c-1-2-3.7-7.9-3.7-11.2C3.6,19.6,16.3,9.5,32,9.5S60.4,19.6,60.4,32C60.4,44.4,47.7,54.4,32,54.4z"/>
	<path class="st0" d="M23.8,22.6c-3.4,0-6.2,2.8-6.2,6.2c0,3.4,2.8,6.2,6.2,6.2c0.8,0,1.6-0.2,2.4-0.5c-0.5,1.9-1.4,3.7-2.8,4.7
		c-0.7,0.5-0.8,1.4-0.3,2.1c0.3,0.4,0.7,0.6,1.2,0.6c0.3,0,0.6-0.1,0.9-0.3C30,37.9,30,29.1,30,28.8c0-0.1,0-0.2,0-0.3
		C29.8,25.2,27.1,22.6,23.8,22.6z M23.8,31.9c-1.7,0-3.2-1.4-3.2-3.2s1.4-3.2,3.2-3.2S27,27,27,28.8S25.5,31.9,23.8,31.9z"/>
	<path class="st0" d="M39.5,22.6c-3.4,0-6.2,2.8-6.2,6.2c0,3.4,2.8,6.2,6.2,6.2c0.8,0,1.6-0.2,2.4-0.5c-0.5,1.9-1.4,3.7-2.8,4.7
		c-0.7,0.5-0.8,1.4-0.3,2.1c0.3,0.4,0.7,0.6,1.2,0.6c0.3,0,0.6-0.1,0.9-0.3c4.8-3.7,4.8-12.4,4.8-12.8c0-0.1,0-0.2,0-0.3
		C45.5,25.2,42.8,22.6,39.5,22.6z M39.5,31.9c-1.7,0-3.2-1.4-3.2-3.2s1.4-3.2,3.2-3.2c1.7,0,3.2,1.4,3.2,3.2S41.2,31.9,39.5,31.9z"
		/>
</g>
</svg>
