<?xml version="1.0" encoding="utf-8"?>
<!-- Generator: Adobe Illustrator 26.0.3, SVG Export Plug-In . SVG Version: 6.00 Build 0)  -->
<svg version="1.0" id="Layer_1" xmlns="http://www.w3.org/2000/svg" xmlns:xlink="http://www.w3.org/1999/xlink" x="0px" y="0px"
	 viewBox="0 0 64 64" enable-background="new 0 0 64 64" xml:space="preserve">
<g>
	<path fill="#FFFFFF" d="M37.6,53.5c-1.1,0.3-2.2,0.6-3.4,0.8c-0.8,0.1-1.4,0.9-1.2,1.7c0.1,0.7,0.8,1.3,1.5,1.3c0.1,0,0.2,0,0.2,0
		c1.3-0.2,2.6-0.5,3.8-0.9c0.8-0.2,1.2-1.1,1-1.9C39.2,53.7,38.4,53.3,37.6,53.5z"/>
	<path fill="#FFFFFF" d="M46.6,48.5c-0.9,0.8-1.8,1.5-2.8,2.1c-0.7,0.5-0.9,1.4-0.4,2.1c0.3,0.4,0.8,0.7,1.3,0.7
		c0.3,0,0.6-0.1,0.8-0.2c1.1-0.7,2.1-1.5,3.1-2.4c0.6-0.5,0.7-1.5,0.1-2.1C48.1,48,47.2,47.9,46.6,48.5z"/>
	<path fill="#FFFFFF" d="M8.3,41.1c-0.4-0.7-1.2-1.1-2-0.7c-0.7,0.4-1.1,1.2-0.7,2c0.6,1.2,1.2,2.3,1.9,3.4c0.3,0.4,0.8,0.7,1.2,0.7
		c0.3,0,0.6-0.1,0.8-0.3c0.7-0.5,0.9-1.4,0.4-2.1C9.4,43.1,8.8,42.1,8.3,41.1z"/>
	<path fill="#FFFFFF" d="M54.7,39.4c-0.8-0.3-1.6,0-2,0.8c-0.5,1-1,2.1-1.6,3.1c-0.4,0.7-0.2,1.6,0.5,2.1c0.2,0.2,0.5,0.2,0.8,0.2
		c0.5,0,1-0.2,1.3-0.7c0.7-1.1,1.3-2.2,1.8-3.4C55.8,40.6,55.4,39.7,54.7,39.4z"/>
	<path fill="#FFFFFF" d="M6.2,34.4C6,33.3,5.9,32.1,5.9,31c0-0.8-0.7-1.5-1.6-1.4c-0.8,0-1.5,0.7-1.4,1.6c0,1.3,0.2,2.6,0.4,3.9
		c0.1,0.7,0.8,1.2,1.5,1.2c0.1,0,0.2,0,0.3,0C5.8,36,6.4,35.3,6.2,34.4z"/>
	<path fill="#FFFFFF" d="M4.7,25.2c0.1,0,0.2,0,0.3,0c0.7,0,1.3-0.5,1.5-1.2c0.3-1.1,0.6-2.2,1-3.3c0.3-0.8-0.1-1.6-0.9-1.9
		c-0.8-0.3-1.6,0.1-1.9,0.9c-0.5,1.2-0.8,2.4-1.1,3.7C3.4,24.2,3.9,25,4.7,25.2z"/>
	<path fill="#FFFFFF" d="M50,15.4c0.3,0.4,0.7,0.6,1.2,0.6c0.3,0,0.6-0.1,0.9-0.3c0.7-0.5,0.8-1.4,0.3-2.1c-0.8-1-1.6-2-2.5-2.9
		c-0.6-0.6-1.5-0.6-2.1,0c-0.6,0.6-0.6,1.5,0,2.1C48.5,13.6,49.3,14.4,50,15.4z"/>
	<path fill="#FFFFFF" d="M44.3,8c0.4-0.7,0.1-1.6-0.6-2c-1.1-0.6-2.3-1.2-3.5-1.6c-0.8-0.3-1.6,0.1-1.9,0.9
		c-0.3,0.8,0.1,1.6,0.9,1.9c1.1,0.4,2.1,0.9,3.1,1.5c0.2,0.1,0.5,0.2,0.7,0.2C43.5,8.8,44,8.5,44.3,8z"/>
	<path fill="#FFFFFF" d="M34,4.2c0.1-0.8-0.5-1.6-1.4-1.6c-0.8-0.1-1.6-0.1-2.4-0.1c-0.5,0-1,0.1-1.5,0.1c-0.8,0.1-1.4,0.8-1.4,1.6
		c0.1,0.8,0.8,1.4,1.6,1.4c0.5,0,0.9-0.1,1.4-0.1c0.7,0,1.4,0,2.1,0.1c0,0,0.1,0,0.1,0C33.3,5.6,33.9,5,34,4.2z"/>
	<path fill="#FFFFFF" d="M13.7,18.2c4.1,0,7.5-3.4,7.5-7.5c0-1.2-0.3-2.2-0.7-3.2c0.5-0.2,1.1-0.4,1.6-0.6C22.9,6.7,23.3,5.8,23,5
		c-0.3-0.8-1.1-1.2-1.9-0.9c-0.9,0.3-1.7,0.6-2.6,1c-1.3-1.1-3-1.8-4.9-1.8c-4.1,0-7.5,3.4-7.5,7.5S9.6,18.2,13.7,18.2z M13.7,6.3
		c1.3,0,2.4,0.5,3.2,1.4C17,7.8,17.1,7.9,17.2,8c0.6,0.8,1,1.7,1,2.7c0,2.5-2,4.5-4.5,4.5s-4.5-2-4.5-4.5S11.2,6.3,13.7,6.3z"/>
	<path fill="#FFFFFF" d="M62.7,24c0-4.1-3.4-7.5-7.5-7.5s-7.5,3.4-7.5,7.5c0,4,3.2,7.3,7.1,7.5c0,0.7-0.1,1.4-0.2,2.1
		c-0.1,0.8,0.5,1.6,1.3,1.7c0.1,0,0.1,0,0.2,0c0.7,0,1.4-0.5,1.5-1.3c0.1-1,0.2-2,0.2-3C60.7,29.9,62.7,27.2,62.7,24z M55.2,28.5
		c-2.5,0-4.5-2-4.5-4.5s2-4.5,4.5-4.5c2.5,0,4.5,2,4.5,4.5S57.7,28.5,55.2,28.5z"/>
	<path fill="#FFFFFF" d="M22.7,47.1c-2.6,0-4.9,1.3-6.3,3.4c-0.6-0.4-1.3-0.8-1.8-1.3c-0.6-0.5-1.6-0.4-2.1,0.2
		C12,50,12.1,51,12.8,51.5c0.8,0.7,1.7,1.3,2.6,1.8c-0.1,0.4-0.1,0.8-0.1,1.3c0,4.1,3.4,7.5,7.5,7.5s7.5-3.4,7.5-7.5
		S26.9,47.1,22.7,47.1z M22.7,59c-2.5,0-4.5-2-4.5-4.5c0-2.5,2-4.5,4.5-4.5s4.5,2,4.5,4.5C27.2,57,25.2,59,22.7,59z"/>
</g>
</svg>
