<?xml version="1.0" encoding="utf-8"?>
<!-- Generator: Adobe Illustrator 24.1.0, SVG Export Plug-In . SVG Version: 6.00 Build 0)  -->
<svg version="1.1" id="Layer_1" xmlns="http://www.w3.org/2000/svg" xmlns:xlink="http://www.w3.org/1999/xlink" x="0px" y="0px"
	 viewBox="0 0 64 64" style="enable-background:new 0 0 64 64;" xml:space="preserve">
<style type="text/css">
	.st0{fill:#FFFFFF;}
</style>
<g>
	<path class="st0" d="M18.8,37.7h10.7l2.1,4.9h3.9l-9.4-21.4h-3.9l-9.4,21.4h3.9L18.8,37.7z M24.2,25.6l3.9,8.8h-7.8L24.2,25.6z"/>
	<path class="st0" d="M51.2,42.6V32.1c0-2.1-0.6-3.6-1.8-4.6c-1.2-1-2.8-1.5-4.7-1.5c-2.5,0-4.7,0.8-6.7,2.4l1.5,2.1
		c1.6-1.1,3.2-1.7,4.7-1.7c2.4,0,3.6,1.1,3.6,3.2v0.6h-4.4c-2,0-3.6,0.4-4.8,1.2s-1.8,2-1.8,3.6c0,1.6,0.6,2.9,1.7,3.8
		c1.1,1,2.5,1.4,4.2,1.4c2.3,0,4.1-0.8,5.4-2.4v2.2H51.2z M47.7,36.5c0,1-0.4,1.9-1.2,2.5c-0.8,0.6-1.8,0.9-2.9,0.9
		c-1.1,0-1.9-0.2-2.6-0.6s-0.9-1-0.9-1.8c0-1.5,1.2-2.3,3.7-2.3h3.9V36.5z"/>
</g>
<g>
	<path class="st0" d="M59.7,18.4c-0.4-0.7-1.3-1.1-2-0.7c-0.7,0.4-1.1,1.3-0.7,2c5.1,10.6,3,23.3-5.4,31.7
		c-8.1,8.1-20.5,10.4-31,5.7l1.6-0.7c0.8-0.3,1.1-1.2,0.8-2s-1.2-1.1-2-0.8l-4.8,2.1c-0.4,0.2-0.8,0.5-0.9,1c-0.2,0.4-0.2,0.9,0,1.3
		l2.1,4.8c0.2,0.6,0.8,0.9,1.4,0.9c0.2,0,0.4,0,0.6-0.1c0.8-0.3,1.1-1.2,0.8-2l-0.8-1.8c4,1.8,8.3,2.7,12.6,2.7c8,0,15.9-3.1,21.8-9
		C63,44.2,65.4,30.1,59.7,18.4z"/>
	<path class="st0" d="M12.4,12.1c8.3-8.3,21-10.5,31.7-5.4c0,0,0,0,0.1,0l-2,0.7c-0.8,0.3-1.2,1.1-0.9,1.9c0.2,0.6,0.8,1,1.4,1
		c0.2,0,0.3,0,0.5-0.1L48,8.5c0.9-0.3,1.4-1.3,1.1-2.2l-1.8-4.9c-0.3-0.8-1.1-1.2-1.9-0.9c-0.8,0.3-1.2,1.1-0.9,1.9L45,3.9
		c-11.7-5.5-25.6-3-34.7,6.1C1,19.2-1.4,33.3,4.3,45.1c0.3,0.5,0.8,0.8,1.4,0.8c0.2,0,0.4,0,0.7-0.1c0.7-0.4,1.1-1.3,0.7-2
		C1.9,33.1,4.1,20.4,12.4,12.1z"/>
</g>
</svg>
