<?xml version="1.0" encoding="utf-8"?>
<!-- Generator: Adobe Illustrator 27.5.0, SVG Export Plug-In . SVG Version: 6.00 Build 0)  -->
<svg version="1.1" id="Layer_1" xmlns="http://www.w3.org/2000/svg" xmlns:xlink="http://www.w3.org/1999/xlink" x="0px" y="0px"
	 viewBox="0 0 64 64" style="enable-background:new 0 0 64 64;" xml:space="preserve">
<style type="text/css">
	.st0{fill:#FFFFFF;}
</style>
<g>
	<path class="st0" d="M46.8,15.5H4.3c-0.8,0-1.5,0.7-1.5,1.5v42.8c0,0.8,0.7,1.5,1.5,1.5h42.5c0.8,0,1.5-0.7,1.5-1.5V17
		C48.3,16.1,47.6,15.5,46.8,15.5z M45.3,58.3H5.8V18.5h39.5V58.3z"/>
	<path class="st0" d="M53.2,9.4H10.9c-0.8,0-1.5,0.7-1.5,1.5s0.7,1.5,1.5,1.5h40.7V54c0,0.8,0.7,1.5,1.5,1.5s1.5-0.7,1.5-1.5V10.9
		C54.7,10,54,9.4,53.2,9.4z"/>
	<path class="st0" d="M59.3,3.2h-39c-0.8,0-1.5,0.7-1.5,1.5s0.7,1.5,1.5,1.5h37.5v42.6c0,0.8,0.7,1.5,1.5,1.5s1.5-0.7,1.5-1.5V4.7
		C60.8,3.8,60.1,3.2,59.3,3.2z"/>
	<path class="st0" d="M12.8,27.9h9.5c0.8,0,1.5-0.7,1.5-1.5s-0.7-1.5-1.5-1.5h-9.5c-0.8,0-1.5,0.7-1.5,1.5S12,27.9,12.8,27.9z"/>
	<path class="st0" d="M28.7,27.9h9.5c0.8,0,1.5-0.7,1.5-1.5s-0.7-1.5-1.5-1.5h-9.5c-0.8,0-1.5,0.7-1.5,1.5S27.9,27.9,28.7,27.9z"/>
	<path class="st0" d="M38.1,31.6H12.9c-0.8,0-1.5,0.7-1.5,1.5c0,0.8,0.7,1.5,1.5,1.5h25.2c0.8,0,1.5-0.7,1.5-1.5
		C39.6,32.3,39,31.6,38.1,31.6z"/>
	<path class="st0" d="M30,52.1h-9c-0.8,0-1.5,0.7-1.5,1.5s0.7,1.5,1.5,1.5h9c0.8,0,1.5-0.7,1.5-1.5S30.9,52.1,30,52.1z"/>
	<path class="st0" d="M12.8,48.6h25.4c0.8,0,1.5-0.7,1.5-1.5v-7.5c0-0.8-0.7-1.5-1.5-1.5H12.8c-0.8,0-1.5,0.7-1.5,1.5v7.5
		C11.3,48,12,48.6,12.8,48.6z M14.3,41.2h22.4v4.5H14.3V41.2z"/>
</g>
</svg>
