<?xml version="1.0" encoding="utf-8"?>
<!-- Generator: Adobe Illustrator 24.0.3, SVG Export Plug-In . SVG Version: 6.00 Build 0)  -->
<svg version="1.1" id="Layer_1" xmlns="http://www.w3.org/2000/svg" xmlns:xlink="http://www.w3.org/1999/xlink" x="0px" y="0px"
	 viewBox="0 0 64 64" style="enable-background:new 0 0 64 64;" xml:space="preserve">
<style type="text/css">
	.st0{fill:#FFFFFF;}
</style>
<g>
	<path class="st0" d="M11.2,5.1c-3.9,0-7,3.2-7,7s3.2,7,7,7s7-3.2,7-7S15.1,5.1,11.2,5.1z M11.2,16.1c-2.2,0-4-1.8-4-4
		c0-2.2,1.8-4,4-4c2.2,0,4,1.8,4,4C15.2,14.3,13.4,16.1,11.2,16.1z"/>
	<path class="st0" d="M25.1,13.6h33.2c0.8,0,1.5-0.7,1.5-1.5s-0.7-1.5-1.5-1.5H25.1c-0.8,0-1.5,0.7-1.5,1.5S24.2,13.6,25.1,13.6z"/>
	<path class="st0" d="M11.2,25.7c-3.9,0-7,3.2-7,7s3.2,7,7,7s7-3.2,7-7S15.1,25.7,11.2,25.7z M11.2,36.8c-2.2,0-4-1.8-4-4
		c0-2.2,1.8-4,4-4c2.2,0,4,1.8,4,4C15.2,35,13.4,36.8,11.2,36.8z"/>
	<path class="st0" d="M58.3,31.3H25.1c-0.8,0-1.5,0.7-1.5,1.5c0,0.8,0.7,1.5,1.5,1.5h33.2c0.8,0,1.5-0.7,1.5-1.5
		C59.8,31.9,59.1,31.3,58.3,31.3z"/>
	<path class="st0" d="M11.2,44.9c-3.9,0-7,3.2-7,7s3.2,7,7,7s7-3.2,7-7S15.1,44.9,11.2,44.9z M11.2,55.9c-2.2,0-4-1.8-4-4s1.8-4,4-4
		c2.2,0,4,1.8,4,4S13.4,55.9,11.2,55.9z"/>
	<path class="st0" d="M58.3,50.4H25.1c-0.8,0-1.5,0.7-1.5,1.5s0.7,1.5,1.5,1.5h33.2c0.8,0,1.5-0.7,1.5-1.5S59.1,50.4,58.3,50.4z"/>
</g>
</svg>
