<?xml version="1.0" encoding="utf-8"?>
<!-- Generator: Adobe Illustrator 24.1.2, SVG Export Plug-In . SVG Version: 6.00 Build 0)  -->
<svg version="1.1" id="Layer_1" xmlns="http://www.w3.org/2000/svg" xmlns:xlink="http://www.w3.org/1999/xlink" x="0px" y="0px"
	 viewBox="0 0 64 64" style="enable-background:new 0 0 64 64;" xml:space="preserve">
<style type="text/css">
	.st0{fill:#FFFFFF;}
</style>
<g>
	<path class="st0" d="M62.7,5.7c-0.4-0.3-0.9-0.4-1.3-0.2c-18.9,5.6-39.8,5.6-58.7,0c-0.5-0.1-0.9,0-1.3,0.2C1,6,0.7,6.4,0.7,6.9
		v50.2c0,0.5,0.2,0.9,0.6,1.2c0.4,0.3,0.9,0.4,1.3,0.2c19.2-6.2,39.4-6.2,58.6,0c0.2,0,0.3,0.1,0.5,0.1c0.3,0,0.6-0.1,0.9-0.3
		c0.4-0.3,0.6-0.7,0.6-1.2V6.9C63.3,6.4,63,6,62.7,5.7z M60.3,55.1c-5.5-1.7-11.1-2.8-16.7-3.5c-0.1-0.7-0.7-1.3-1.5-1.3
		c-0.7,0-1.2,0.4-1.4,1c-5.8-0.5-11.6-0.5-17.4,0c-0.2-0.6-0.8-1-1.4-1c-0.8,0-1.4,0.6-1.5,1.3c-5.6,0.7-11.2,1.8-16.7,3.5V8.9
		c5.4,1.5,11,2.5,16.6,3.2v0.2c0,0.8,0.7,1.5,1.5,1.5c0.8,0,1.5-0.6,1.5-1.4c5.7,0.5,11.5,0.5,17.3,0c0,0.8,0.7,1.4,1.5,1.4
		c0.8,0,1.5-0.7,1.5-1.5V12c5.6-0.6,11.2-1.7,16.6-3.2V55.1z"/>
	<path class="st0" d="M51.8,32l-2.6,2.6c-0.6,0.6-0.6,1.5,0,2.1c0.3,0.3,0.7,0.4,1.1,0.4s0.8-0.1,1.1-0.4l3.7-3.7
		c0.6-0.6,0.6-1.5,0-2.1l-3.7-3.7c-0.6-0.6-1.5-0.6-2.1,0c-0.6,0.6-0.6,1.5,0,2.1L51.8,32z"/>
	<path class="st0" d="M14.8,27.2c-0.6-0.6-1.5-0.6-2.1,0L9,30.9c-0.3,0.3-0.4,0.7-0.4,1.1s0.2,0.8,0.4,1.1l3.7,3.7
		c0.3,0.3,0.7,0.4,1.1,0.4s0.8-0.1,1.1-0.4c0.6-0.6,0.6-1.5,0-2.1L12.2,32l2.6-2.6C15.4,28.8,15.4,27.8,14.8,27.2z"/>
	<path class="st0" d="M21.9,23.3c-0.8,0-1.5,0.7-1.5,1.5v1c0,0.8,0.7,1.5,1.5,1.5s1.5-0.7,1.5-1.5v-1C23.4,23.9,22.7,23.3,21.9,23.3
		z"/>
	<path class="st0" d="M21.9,30c-0.8,0-1.5,0.7-1.5,1.5v1c0,0.8,0.7,1.5,1.5,1.5s1.5-0.7,1.5-1.5v-1C23.4,30.7,22.7,30,21.9,30z"/>
	<path class="st0" d="M21.9,16.5c-0.8,0-1.5,0.7-1.5,1.5v1c0,0.8,0.7,1.5,1.5,1.5s1.5-0.7,1.5-1.5v-1C23.4,17.2,22.7,16.5,21.9,16.5
		z"/>
	<path class="st0" d="M21.9,36.8c-0.8,0-1.5,0.7-1.5,1.5v1c0,0.8,0.7,1.5,1.5,1.5s1.5-0.7,1.5-1.5v-1C23.4,37.4,22.7,36.8,21.9,36.8
		z"/>
	<path class="st0" d="M21.9,43.5c-0.8,0-1.5,0.7-1.5,1.5v1c0,0.8,0.7,1.5,1.5,1.5s1.5-0.7,1.5-1.5v-1C23.4,44.2,22.7,43.5,21.9,43.5
		z"/>
	<path class="st0" d="M42.1,16.5c-0.8,0-1.5,0.7-1.5,1.5v1c0,0.8,0.7,1.5,1.5,1.5s1.5-0.7,1.5-1.5v-1C43.6,17.2,43,16.5,42.1,16.5z"
		/>
	<path class="st0" d="M42.1,23.3c-0.8,0-1.5,0.7-1.5,1.5v1c0,0.8,0.7,1.5,1.5,1.5s1.5-0.7,1.5-1.5v-1C43.6,23.9,43,23.3,42.1,23.3z"
		/>
	<path class="st0" d="M42.1,36.8c-0.8,0-1.5,0.7-1.5,1.5v1c0,0.8,0.7,1.5,1.5,1.5s1.5-0.7,1.5-1.5v-1C43.6,37.4,43,36.8,42.1,36.8z"
		/>
	<path class="st0" d="M42.1,30c-0.8,0-1.5,0.7-1.5,1.5v1c0,0.8,0.7,1.5,1.5,1.5s1.5-0.7,1.5-1.5v-1C43.6,30.7,43,30,42.1,30z"/>
	<path class="st0" d="M42.1,43.5c-0.8,0-1.5,0.7-1.5,1.5v1c0,0.8,0.7,1.5,1.5,1.5s1.5-0.7,1.5-1.5v-1C43.6,44.2,43,43.5,42.1,43.5z"
		/>
</g>
</svg>
