<svg version="1.2" xmlns="http://www.w3.org/2000/svg" viewBox="0 0 20 20" width="20" height="20"><style>.a{fill:none}.b{fill:#555;stroke:#fff;stroke-linecap:round;stroke-linejoin:round;stroke-width:.9}.c{fill:#fff}</style><path class="a" d="m0 0h20v20h-20z"/><path class="b" d="m17.5 10q0 0.7-0.1 1.4-0.2 0.8-0.5 1.5-0.2 0.6-0.7 1.3-0.4 0.6-0.9 1.1c-2.9 2.9-7.6 2.9-10.5 0.1-1.1-1.1-1.8-2.4-2.1-3.9-0.3-1.4-0.2-3 0.4-4.3 0.5-1.4 1.5-2.6 2.7-3.4 1.3-0.9 2.8-1.3 4.2-1.3q0.2 0 0.3 0.1 0.1 0 0.2 0.1 0.1 0.2 0.2 0.3 0 0.1 0 0.3-0.2 0.5 0 1.1 0.1 0.5 0.4 1 0.4 0.4 0.9 0.7 0.5 0.2 1.1 0.2 0.1 0 0.2 0.1 0.1 0 0.2 0.1 0.1 0.1 0.1 0.2 0.1 0.1 0.1 0.2 0 0.6 0.2 1.1 0.3 0.5 0.7 0.9 0.5 0.3 1 0.4 0.6 0.2 1.1 0 0.2 0 0.3 0 0.1 0.1 0.3 0.2 0.1 0.1 0.1 0.2 0.1 0.1 0.1 0.3z"/><path fill-rule="evenodd" class="c" d="m12.2 14.2c-0.4 0-0.8-0.3-0.8-0.8 0-0.4 0.4-0.7 0.8-0.7 0.4 0 0.8 0.3 0.8 0.7 0 0.5-0.4 0.8-0.8 0.8z"/><path fill-rule="evenodd" class="c" d="m7.2 13.6c-0.4 0-0.8-0.4-0.8-0.8 0-0.4 0.4-0.8 0.8-0.8 0.4 0 0.8 0.4 0.8 0.8 0 0.4-0.4 0.8-0.8 0.8z"/><path fill-rule="evenodd" class="c" d="m6.6 9.2c-0.5 0-0.8-0.3-0.8-0.8 0-0.4 0.3-0.7 0.8-0.7 0.4 0 0.7 0.3 0.7 0.7 0 0.5-0.3 0.8-0.7 0.8z"/><path fill-rule="evenodd" class="c" d="m10.6 10.5c-0.4 0-0.8-0.4-0.8-0.8 0-0.4 0.4-0.8 0.8-0.8 0.5 0 0.8 0.4 0.8 0.8 0 0.4-0.3 0.8-0.8 0.8z"/></svg>