<svg version="1.2" xmlns="http://www.w3.org/2000/svg" viewBox="0 0 256 256" width="20" height="20">
	<title>cookieadmin_logo_22</title>
	<style>
		.s0 { fill: none } 
		.s1 { fill: none;stroke: #ffffff;stroke-linecap: round;stroke-linejoin: round;stroke-width: 12 } 
		.s2 { fill: #ffffff } 
	</style>
	<path class="s0" d="m0 0h256v256h-256z"/>
	<path class="s1" d="m224 127.4c0 6.3-0.5 12.7-1.7 18.9-1.3 6.2-3.1 12.3-5.5 18.2-2.4 5.9-5.4 11.5-8.9 16.7-3.6 5.3-7.6 10.2-12.1 14.7-36.9 36.9-97.3 37.3-134.7 0.9-13.7-13.4-23.1-30.5-27-49.2-3.9-18.8-2.1-38.3 5.1-56 7.3-17.7 19.7-32.8 35.6-43.5 15.9-10.6 34.7-16.2 53.8-16.1 1.2 0 2.4 0.3 3.5 0.8 1 0.6 2 1.3 2.7 2.3 0.8 0.9 1.3 2 1.6 3.1 0.2 1.2 0.3 2.4 0 3.6-1 4.6-1 9.5 0 14.1 1.1 4.7 3.2 9 6.1 12.7 3 3.8 6.7 6.8 11 8.9 4.3 2.1 8.9 3.2 13.7 3.3q1.6 0 3.1 0.6 1.4 0.6 2.6 1.7 1.1 1.2 1.7 2.6 0.6 1.5 0.6 3.1c0.1 4.8 1.2 9.4 3.3 13.7 2.1 4.3 5.1 8 8.9 11 3.7 2.9 8 5 12.7 6.1 4.6 1 9.5 1 14.1 0 1.2-0.3 2.4-0.2 3.6 0 1.1 0.3 2.2 0.8 3.1 1.6 1 0.7 1.7 1.7 2.3 2.7 0.5 1.1 0.8 2.3 0.8 3.5z"/>
	<path fill-rule="evenodd" class="s2" d="m156 182c-5.5 0-10-4.5-10-10 0-5.5 4.5-10 10-10 5.5 0 10 4.5 10 10 0 5.5-4.5 10-10 10z"/>
	<path fill-rule="evenodd" class="s2" d="m92 174c-5.5 0-10-4.5-10-10 0-5.5 4.5-10 10-10 5.5 0 10 4.5 10 10 0 5.5-4.5 10-10 10z"/>
	<path fill-rule="evenodd" class="s2" d="m84 118c-5.5 0-10-4.5-10-10 0-5.5 4.5-10 10-10 5.5 0 10 4.5 10 10 0 5.5-4.5 10-10 10z"/>
	<path fill-rule="evenodd" class="s2" d="m136 134c-5.5 0-10-4.5-10-10 0-5.5 4.5-10 10-10 5.5 0 10 4.5 10 10 0 5.5-4.5 10-10 10z"/>
</svg>