<?xml version="1.0" encoding="utf-8"?>
<!-- Generator: Adobe Illustrator 25.4.1, SVG Export Plug-In . SVG Version: 6.00 Build 0)  -->
<svg version="1.1" id="Layer_1" xmlns="http://www.w3.org/2000/svg" xmlns:xlink="http://www.w3.org/1999/xlink" x="0px" y="0px"
	 viewBox="0 0 64 64" style="enable-background:new 0 0 64 64;" xml:space="preserve">
<style type="text/css">
	.st0{fill:#FFFFFF;}
</style>
<g>
	<path class="st0" d="M32.2,9.5C32,9,31.5,8.7,30.9,8.7h-9.5c-0.6,0-1.1,0.3-1.3,0.9L1.2,53.3c-0.2,0.4-0.1,1,0.1,1.4
		s0.7,0.7,1.2,0.7h10.4c0.6,0,1.1-0.3,1.3-0.9l3.7-8.6h16.5l3.7,8.6c0.2,0.5,0.7,0.9,1.3,0.9h10.4c0.5,0,0.9-0.2,1.2-0.7
		s0.3-0.9,0.1-1.4L32.2,9.5z M40.4,52.5l-3.7-8.6c-0.2-0.5-0.7-0.9-1.3-0.9H17c-0.6,0-1.1,0.3-1.3,0.9L12,52.5H4.7l17.7-40.9h7.6
		l17.7,40.9H40.4z"/>
	<path class="st0" d="M26.2,21.7C26.2,21.7,26.2,21.7,26.2,21.7c-0.6,0-1.1,0.3-1.3,0.9l-5.5,12.7c-0.2,0.4-0.1,1,0.1,1.4
		c0.3,0.4,0.7,0.7,1.2,0.7h11c0.5,0,0.9-0.2,1.2-0.6c0.3-0.4,0.3-0.9,0.1-1.4l-5.4-12.7C27.3,22,26.8,21.7,26.2,21.7z M22.9,34.4
		l3.3-7.6l3.3,7.6H22.9z"/>
	<path class="st0" d="M62.8,53.3L43.9,9.5c-0.3-0.7-1.2-1.1-1.9-0.8c-0.7,0.3-1.1,1.2-0.8,1.9l18.9,43.8c0.2,0.5,0.8,0.9,1.3,0.9
		c0.2,0,0.4,0,0.6-0.1C62.8,54.9,63.1,54.1,62.8,53.3z"/>
</g>
</svg>
