<?xml version="1.0" encoding="utf-8"?>
<!-- Generator: Adobe Illustrator 27.9.0, SVG Export Plug-In . SVG Version: 6.00 Build 0)  -->
<svg version="1.1" id="Layer_1" xmlns="http://www.w3.org/2000/svg" xmlns:xlink="http://www.w3.org/1999/xlink" x="0px" y="0px"
	 viewBox="0 0 64 64" style="enable-background:new 0 0 64 64;" xml:space="preserve">
<style type="text/css">
	.st0{fill:#FFFFFF;}
</style>
<g>
	<path class="st0" d="M20.2,51.7c-0.3,0-0.6-0.1-0.9-0.3c-0.5-0.3-0.7-0.9-0.6-1.5l2.1-12.4l-9-8.8c-0.4-0.4-0.6-1-0.4-1.5
		c0.2-0.5,0.6-0.9,1.2-1l12.5-1.8l5.6-11.3c0.3-0.5,0.8-0.8,1.3-0.8l0,0c0.6,0,1.1,0.3,1.3,0.8l5.6,11.3l12.5,1.8
		c0.6,0.1,1,0.5,1.2,1s0,1.1-0.4,1.5l-9,8.8L45.3,50c0.1,0.6-0.1,1.1-0.6,1.5c-0.5,0.3-1.1,0.4-1.6,0.1L32,45.7l-11.1,5.9
		C20.6,51.7,20.4,51.7,20.2,51.7z M16.1,28.7l7.4,7.2c0.4,0.3,0.5,0.8,0.4,1.3l-1.7,10.2l9.1-4.8c0.4-0.2,1-0.2,1.4,0l9.1,4.8
		l-1.7-10.2c-0.1-0.5,0.1-1,0.4-1.3l7.4-7.2l-10.2-1.5c-0.5-0.1-0.9-0.4-1.1-0.8L32,17.2l-4.6,9.3c-0.2,0.4-0.6,0.7-1.1,0.8
		L16.1,28.7z"/>
</g>
<g>
	<path class="st0" d="M62.3,37.9H50.6c-0.8,0-1.5-0.7-1.5-1.5s0.7-1.5,1.5-1.5h11.7c0.8,0,1.5,0.7,1.5,1.5S63.1,37.9,62.3,37.9z"/>
</g>
<g>
	<path class="st0" d="M12.5,37.9H1.7c-0.8,0-1.5-0.7-1.5-1.5s0.7-1.5,1.5-1.5h10.8c0.8,0,1.5,0.7,1.5,1.5S13.3,37.9,12.5,37.9z"/>
</g>
</svg>
