<svg xmlns="http://www.w3.org/2000/svg" xmlns:xlink="http://www.w3.org/1999/xlink" width="22px" height="22px" viewBox="0 0 151.668 151.616"><defs><linearGradient id="b"><stop offset="0" style="stop-color:#0e44ac;stop-opacity:1"/><stop offset="1" style="stop-color:#664ef1;stop-opacity:1"/></linearGradient><linearGradient id="a"><stop offset="0" style="stop-color:#0e44ac;stop-opacity:1"/><stop offset="1" style="stop-color:#664ef1;stop-opacity:1"/></linearGradient><linearGradient xlink:href="#a" id="c" x1="10.148" x2="116.734" y1="62.229" y2="62.229" gradientUnits="userSpaceOnUse"/><linearGradient xlink:href="#b" id="d" x1="11.811" x2="115.07" y1="62.229" y2="62.229" gradientUnits="userSpaceOnUse"/></defs><path d="M64.039 88.243c-8.629.199-42.93 30.806-49.172 24.845-6.242-5.96 22.757-41.633 22.559-50.261-.198-8.63-30.806-42.93-24.845-49.172s41.633 22.757 50.262 22.559 42.93-30.806 49.172-24.845-22.758 41.633-22.56 50.262 30.807 42.93 24.846 49.171c-5.962 6.242-41.633-22.757-50.262-22.559z" style="fill:none;stroke:url(#c);stroke-width:10.9;stroke-dasharray:none;stroke-dashoffset:.8655;stroke-opacity:1" transform="rotate(-44.365 86.218 53.877)"/><path d="M64.039 88.243c-8.629.199-42.93 30.806-49.172 24.845-6.242-5.96 22.757-41.633 22.559-50.261-.198-8.63-30.806-42.93-24.845-49.172s41.633 22.757 50.262 22.559 42.93-30.806 49.172-24.845-22.758 41.633-22.56 50.262 30.807 42.93 24.846 49.171c-5.962 6.242-41.633-22.757-50.262-22.559" style="fill:url(#d);stroke:none;stroke-width:1.431;stroke-dasharray:1.431,2.862;stroke-dashoffset:.7155" transform="matrix(.2651 -.25928 .25928 .2651 92.639 125.492)"/></svg>