<?xml version="1.0" encoding="utf-8"?>
<!-- Generator: Adobe Illustrator 24.2.3, SVG Export Plug-In . SVG Version: 6.00 Build 0)  -->
<svg version="1.1" id="Layer_1" xmlns="http://www.w3.org/2000/svg" xmlns:xlink="http://www.w3.org/1999/xlink" x="0px" y="0px"
	 viewBox="0 0 64 64" style="enable-background:new 0 0 64 64;" xml:space="preserve">
<style type="text/css">
	.st0{fill:#FFFFFF;}
</style>
<g>
	<path class="st0" d="M51.6,20.3H12.4C6,20.3,0.7,25.6,0.7,32c0,6.4,5.2,11.7,11.7,11.7h39.2c6.4,0,11.7-5.2,11.7-11.7
		C63.3,25.6,58,20.3,51.6,20.3z M51.6,40.7H12.4c-4.8,0-8.7-3.9-8.7-8.7c0-4.8,3.9-8.7,8.7-8.7h39.2c4.8,0,8.7,3.9,8.7,8.7
		C60.3,36.8,56.4,40.7,51.6,40.7z"/>
	<path class="st0" d="M39.3,27.4h-26c-2.5,0-4.6,2.1-4.6,4.6c0,2.5,2.1,4.6,4.6,4.6h26c2.5,0,4.6-2.1,4.6-4.6
		C43.9,29.5,41.8,27.4,39.3,27.4z"/>
</g>
</svg>
