<?xml version="1.0" encoding="utf-8"?>
<!-- Generator: Adobe Illustrator 26.0.3, SVG Export Plug-In . SVG Version: 6.00 Build 0)  -->
<svg version="1.1" id="Layer_1" xmlns="http://www.w3.org/2000/svg" xmlns:xlink="http://www.w3.org/1999/xlink" x="0px" y="0px"
	 viewBox="0 0 64 64" style="enable-background:new 0 0 64 64;" xml:space="preserve">
<style type="text/css">
	.st0{fill:#FFFFFF;}
</style>
<g>
	<path class="st0" d="M9.5,35.5c0,0.8,0.7,1.5,1.5,1.5h35.9c0.8,0,1.5-0.7,1.5-1.5S47.7,34,46.9,34H11C10.2,34,9.5,34.6,9.5,35.5z"
		/>
	<path class="st0" d="M42.3,45.8H11c-0.8,0-1.5,0.7-1.5,1.5s0.7,1.5,1.5,1.5h31.2c0.8,0,1.5-0.7,1.5-1.5S43.1,45.8,42.3,45.8z"/>
	<path class="st0" d="M11,42.8h26.5c0.8,0,1.5-0.7,1.5-1.5s-0.7-1.5-1.5-1.5H11c-0.8,0-1.5,0.7-1.5,1.5S10.2,42.8,11,42.8z"/>
	<path class="st0" d="M61.8,18.6H49.9l0-2.5c0-3.6-2.9-6.5-6.5-6.5H28.6h-3.2h-7.8c-1.2-1.5-3-2.4-5.1-2.4H2.3c0,0,0,0,0,0
		c-0.8,0-1.5,0.7-1.5,1.5v46.8c0,0.8,0.7,1.5,1.5,1.5h59.5c0.8,0,1.5-0.7,1.5-1.5V20.1C63.3,19.2,62.6,18.6,61.8,18.6z M46.9,16
		l0,2.5H35.1V16c0-1.3-0.4-2.5-1-3.5h9.4C45.3,12.5,46.9,14.1,46.9,16z M25.3,12.5h3.2c1.9,0,3.5,1.6,3.5,3.5v2.5H18.9v-5
		c0-0.4,0-0.7-0.1-1.1H25.3z M60.3,53.9H3.7V10.1h8.7c1.9,0,3.5,1.6,3.5,3.5v6.5c0,0.8,0.7,1.5,1.5,1.5h42.8V53.9z"/>
</g>
</svg>
