<?xml version="1.0" encoding="utf-8"?>
<!-- Generator: Adobe Illustrator 25.2.3, SVG Export Plug-In . SVG Version: 6.00 Build 0)  -->
<svg version="1.1" id="Layer_1" xmlns="http://www.w3.org/2000/svg" xmlns:xlink="http://www.w3.org/1999/xlink" x="0px" y="0px"
	 viewBox="0 0 64 64" style="enable-background:new 0 0 64 64;" xml:space="preserve">
<style type="text/css">
	.st0{fill:#FFFFFF;}
</style>
<g>
	<path class="st0" d="M43.8,40.9c3.6,0,6.4-2.9,6.4-6.4V10c0-3.6-2.9-6.4-6.4-6.4H6.7c-3.6,0-6.4,2.9-6.4,6.4v24.5
		c0,3.6,2.9,6.4,6.4,6.4h4v6.6c0,0.6,0.3,1.1,0.8,1.3c0.2,0.1,0.4,0.2,0.7,0.2c0.3,0,0.7-0.1,0.9-0.3l9.9-7.8H43.8z M21.7,38.3
		l-7.9,6.2v-5c0-0.8-0.7-1.5-1.5-1.5H6.7c-1.9,0-3.5-1.6-3.5-3.5V10c0-1.9,1.6-3.5,3.5-3.5h37.1c1.9,0,3.5,1.6,3.5,3.5v24.5
		c0,1.9-1.6,3.5-3.5,3.5H22.6C22.3,38,21.9,38.1,21.7,38.3z"/>
	<path class="st0" d="M57.3,15c-0.8,0-1.5,0.7-1.5,1.5s0.7,1.5,1.5,1.5c1.9,0,3.5,1.6,3.5,3.5v24.5c0,1.9-1.6,3.5-3.5,3.5h-5.5
		c-0.8,0-1.5,0.7-1.5,1.5v5l-7.9-6.2c-0.3-0.2-0.6-0.3-0.9-0.3H23.8c-0.8,0-1.5,0.7-1.5,1.5s0.7,1.5,1.5,1.5h17.1l9.9,7.8
		c0.3,0.2,0.6,0.3,0.9,0.3c0.2,0,0.4,0,0.7-0.2c0.5-0.2,0.8-0.8,0.8-1.3v-6.6h4c3.6,0,6.4-2.9,6.4-6.4V21.4
		C63.7,17.9,60.8,15,57.3,15z"/>
	<path class="st0" d="M23.8,27.7c-1.7,0-2.9,1.2-2.9,2.9c0,1.7,1.2,2.9,2.9,2.9c1.7,0,2.9-1.2,2.9-2.9
		C26.7,28.9,25.5,27.7,23.8,27.7z"/>
	<path class="st0" d="M24,11.1c-2.2,0-4.2,0.9-5.8,2.5l2.1,1.9c0.9-0.8,2-1.4,3.4-1.4c1.8,0,3,1.1,3,2.6c0,1.3-1,2.2-2.1,3.1
		c-1.4,1.2-2.8,2.5-2.6,4.6h3.4c0-1.8,1.3-3,2.5-4.1c1.3-1.2,2.6-2.3,2.6-4.3C30.4,13,28.1,11.1,24,11.1z"/>
</g>
</svg>
