<?xml version="1.0" encoding="utf-8"?>
<!-- Generator: Adobe Illustrator 26.3.1, SVG Export Plug-In . SVG Version: 6.00 Build 0)  -->
<svg version="1.1" id="Layer_1" xmlns="http://www.w3.org/2000/svg" xmlns:xlink="http://www.w3.org/1999/xlink" x="0px" y="0px"
	 viewBox="0 0 64 64" style="enable-background:new 0 0 64 64;" xml:space="preserve">
<style type="text/css">
	.st0{fill:#FFFFFF;}
</style>
<g>
	<path class="st0" d="M16.5,36.1h13.2l3.1,6.8H36L24.4,17.6h-2.5L10.2,42.9h3.2L16.5,36.1z M17.7,33.4l5.4-11.9l5.4,11.9H17.7z"/>
	<path class="st0" d="M42.6,31.7c-6.6,0-7.3,3.9-7.3,5.6c0,3.5,2.8,5.7,7.1,5.7c2.4,0,4.5-0.8,5.9-2.1v2h2.9v-12
		c0-4.7-2.7-7.3-7.5-7.3c-2.9,0-5.7,1-7.6,2.7l-0.4,0.4l1.6,2.2l0.5-0.5c1.5-1.3,3.6-2.1,5.8-2.1c3.1,0,4.7,1.5,4.7,4.5v0.8H42.6z
		 M42.6,40.4c-2.8,0-4.4-1.2-4.4-3.2c0-0.7,0-3,4.4-3h5.5v2.7C47.2,39.2,45.3,40.4,42.6,40.4z"/>
	<path class="st0" d="M60.2,6.9H3.9c-1.6,0-3,1.3-3,3v44.3c0,1.6,1.3,3,3,3h56.2c1.6,0,3-1.3,3-3V9.8C63.1,8.2,61.8,6.9,60.2,6.9z
		 M60.1,54.1L4,54.1l0-44.3l56.2,0V54.1z"/>
</g>
</svg>
