<?xml version="1.0" encoding="utf-8"?>
<!-- Generator: Adobe Illustrator 24.1.2, SVG Export Plug-In . SVG Version: 6.00 Build 0)  -->
<svg version="1.1" id="Layer_1" xmlns="http://www.w3.org/2000/svg" xmlns:xlink="http://www.w3.org/1999/xlink" x="0px" y="0px"
	 viewBox="0 0 64 64" style="enable-background:new 0 0 64 64;" xml:space="preserve">
<style type="text/css">
	.st0{fill:#FFFFFF;}
</style>
<g>
	<path class="st0" d="M33.5,33.3v-2.6c0-0.8-0.7-1.5-1.5-1.5s-1.5,0.7-1.5,1.5v2.6c0,0.8,0.7,1.5,1.5,1.5S33.5,34.1,33.5,33.3z"/>
	<path class="st0" d="M24.5,26c0.4,0,0.7-0.1,1-0.4l6.3-5.9l6.6,5.7c0.3,0.2,0.6,0.4,1,0.4c0.4,0,0.8-0.2,1.1-0.5
		c0.5-0.6,0.5-1.6-0.2-2.1l-7.6-6.6c-0.1-0.1-0.2-0.2-0.3-0.2c0,0,0,0-0.1,0c-0.2-0.1-0.3-0.1-0.5-0.1c0,0,0,0-0.1,0
		c-0.2,0-0.3,0-0.5,0.1c0,0,0,0-0.1,0c-0.2,0.1-0.3,0.2-0.4,0.3c0,0,0,0,0,0l-7.3,6.9c-0.6,0.6-0.6,1.5-0.1,2.1
		C23.7,25.8,24.1,26,24.5,26z"/>
	<path class="st0" d="M38.4,38.5l-6.3,5.9l-6.6-5.7c-0.6-0.5-1.6-0.5-2.1,0.2c-0.5,0.6-0.5,1.6,0.2,2.1l7.6,6.6c0,0,0,0,0,0
		c0.1,0.1,0.3,0.2,0.4,0.2c0,0,0,0,0.1,0c0.2,0.1,0.3,0.1,0.5,0.1c0,0,0,0,0,0c0,0,0,0,0,0s0,0,0,0c0,0,0,0,0,0c0.2,0,0.3,0,0.5-0.1
		c0,0,0,0,0.1,0c0.2-0.1,0.3-0.2,0.4-0.3c0,0,0,0,0,0l7.3-6.9c0.6-0.6,0.6-1.5,0.1-2.1C40,37.9,39,37.9,38.4,38.5z"/>
	<path class="st0" d="M61.8,5.4H2.2c-0.8,0-1.5,0.7-1.5,1.5v50.2c0,0.8,0.7,1.5,1.5,1.5h59.5c0.8,0,1.5-0.7,1.5-1.5V6.9
		C63.3,6.1,62.6,5.4,61.8,5.4z M60.3,55.6H3.7V8.4h56.5V55.6z"/>
</g>
</svg>
