<?xml version="1.0" encoding="utf-8"?>
<!-- Generator: Adobe Illustrator 25.3.1, SVG Export Plug-In . SVG Version: 6.00 Build 0)  -->
<svg version="1.1" id="Layer_1" xmlns="http://www.w3.org/2000/svg" xmlns:xlink="http://www.w3.org/1999/xlink" x="0px" y="0px"
	 viewBox="0 0 64 64" style="enable-background:new 0 0 64 64;" xml:space="preserve">
<style type="text/css">
	.st0{fill:#FFFFFF;}
</style>
<g>
	<path class="st0" d="M17.1,32.1l8.2-7.2l7.9,10.2c0.3,0.3,0.7,0.5,1.1,0.6c0.4,0,0.8-0.1,1.2-0.4l4.3-4.2l7.1,7.6
		c0.3,0.3,0.7,0.5,1.1,0.5c0.4,0,0.7-0.1,1-0.4c0.6-0.6,0.6-1.5,0.1-2.1l-8.2-8.7c-0.3-0.3-0.7-0.5-1.1-0.5c-0.4,0-0.8,0.1-1.1,0.4
		l-4.2,4.1l-7.8-10.1c-0.3-0.3-0.6-0.5-1-0.6c-0.4,0-0.8,0.1-1.1,0.4l-9.4,8.3c-0.6,0.5-0.7,1.5-0.1,2.1
		C15.5,32.6,16.4,32.6,17.1,32.1z"/>
	<path class="st0" d="M39.7,24.8c3.3,0,6-2.7,6-6s-2.7-6-6-6s-6,2.7-6,6S36.4,24.8,39.7,24.8z M39.7,15.8c1.7,0,3,1.3,3,3
		s-1.3,3-3,3s-3-1.3-3-3S38,15.8,39.7,15.8z"/>
	<path class="st0" d="M57.5,5.6H6.5c-2.1,0-3.9,1.7-3.9,3.9v45.1c0,2.1,1.7,3.9,3.9,3.9h50.9c2.1,0,3.9-1.7,3.9-3.9V9.5
		C61.4,7.3,59.6,5.6,57.5,5.6z M6.5,8.6h50.9c0.5,0,0.9,0.4,0.9,0.9v33.3H5.6V9.5C5.6,9,6.1,8.6,6.5,8.6z M40.1,45.7v9.7H23.9v-9.7
		H40.1z M5.6,54.5v-8.8h15.2v9.7H6.5C6.1,55.4,5.6,55,5.6,54.5z M57.5,55.4H43.1v-9.7h15.2v8.8C58.4,55,57.9,55.4,57.5,55.4z"/>
</g>
</svg>
