<svg version="1.2" xmlns="http://www.w3.org/2000/svg" viewBox="0 0 435 469" width="25" height="27">
	<title>grey-logo</title>
	<style>
		.s0 { fill: #797979;stroke: #000000;stroke-linecap: round;stroke-linejoin: round;stroke-width: .6 } 
		.s1 { fill: #a1a1a1;stroke: #383838;stroke-linecap: round;stroke-linejoin: round;stroke-width: .6 } 
		.s2 { fill: #656565;stroke: #000000;stroke-linecap: round;stroke-linejoin: round;stroke-width: .6 } 
		.s3 { fill: #a1a1a1;stroke: #000000;stroke-linecap: round;stroke-linejoin: round;stroke-width: .6 } 
	</style>
	<g id="layer1">
		<g id="g460">
			<g id="layer10">
				<g id="logo">
					<g id="layer16">
						<path id="path69070" class="s0" d="m105.4 293.8l99.8 61.5-0.3 109.7-9-0.2-9.9-1.8-181.1-108.7z"/>
					</g>
					<g id="layer15">
						<path id="path69602" class="s1" d="m204.3 355.4l200.6-121-1.2 120-182.7 109.7-4.7 1.3-12-0.1z"/>
					</g>
					<g id="layer14">
						<path id="path69703" class="s2" d="m17.5 239.3l98.1-58.6 87.3 51.5 1.2 122.2z"/>
					</g>
					<g id="layer13">
						<path id="path69804" class="s2" d="m217.1 246.1l-0.1-128.1 188.9 115.2-103.6 62.4z"/>
					</g>
					<g id="layer12">
						<path id="path69905" class="s3" d="m15.8 116.9l186.2-110 4.7-1.2 10.3 0.1 0.3 112.6-199.8 119.9z"/>
					</g>
					<g id="layer11">
						<path id="path70006" class="s0" d="m217 5.8l11.6 0.5 13.2 5.6 175.3 106.4-99.6 61.1-100.2-61z"/>
					</g>
				</g>
			</g>
		</g>
	</g>
</svg>