<?xml version="1.0" encoding="utf-8"?>
<!-- Generator: Adobe Illustrator 26.5.0, SVG Export Plug-In . SVG Version: 6.00 Build 0)  -->
<svg version="1.1" id="Layer_1" xmlns="http://www.w3.org/2000/svg" xmlns:xlink="http://www.w3.org/1999/xlink" x="0px" y="0px"
	 viewBox="0 0 64 64" style="enable-background:new 0 0 64 64;" xml:space="preserve">
<style type="text/css">
	.st0{fill:#FFFFFF;}
</style>
<g>
	<path class="st0" d="M16.9,13.5h4.7c1.7,0,3-1.3,3-3s-1.3-3-3-3h-4.7c-1.7,0-3,1.3-3,3S15.2,13.5,16.9,13.5z"/>
	<path class="st0" d="M29.3,13.5H34c1.7,0,3-1.3,3-3s-1.3-3-3-3h-4.7c-1.7,0-3,1.3-3,3S27.6,13.5,29.3,13.5z"/>
	<path class="st0" d="M41.7,13.5h4.7c1.7,0,3-1.3,3-3s-1.3-3-3-3h-4.7c-1.7,0-3,1.3-3,3S40,13.5,41.7,13.5z"/>
	<path class="st0" d="M58.2,17.2H5.1c-0.8,0-1.5,0.7-1.5,1.5v38c0,0.8,0.7,1.5,1.5,1.5h53.1c0.8,0,1.5-0.7,1.5-1.5v-38
		C59.7,17.9,59,17.2,58.2,17.2z M56.7,36.2H42v-16h14.7V36.2z M24.3,36.2v-16H39v16H24.3z M39,39.2v16H24.3v-16H39z M21.3,20.2v16
		H6.6v-16H21.3z M6.6,39.2h14.7v16H6.6V39.2z M42,55.2v-16h14.7v16H42z"/>
</g>
</svg>
