<?xml version="1.0" encoding="utf-8"?>
<!-- Generator: Adobe Illustrator 23.0.6, SVG Export Plug-In . SVG Version: 6.00 Build 0)  -->
<svg version="1.1" id="Layer_1" xmlns="http://www.w3.org/2000/svg" xmlns:xlink="http://www.w3.org/1999/xlink" x="0px" y="0px"
	 viewBox="0 0 64 64" style="enable-background:new 0 0 64 64;" xml:space="preserve">
<style type="text/css">
	.st0{fill:#FFFFFF;}
</style>
<g>
	<path class="st0" d="M55.9,10.8l-33.8-10h-0.2c-1.7,0-3.1,1.5-3.1,3.4v30c0,0.8,0.7,1.5,1.5,1.5s1.5-0.7,1.5-1.5v-30
		c0-0.2,0.1-0.3,0.1-0.3l33.2,9.8c0.3,0.1,0.4,0.1,0.6,0.2V50c-0.1,0.1-0.3,0.2-0.6,0.3l-33.2,9.8c0-0.1-0.1-0.2-0.1-0.3v-9.5
		c0-0.8-0.7-1.5-1.5-1.5s-1.5,0.7-1.5,1.5v9.5c0,1.9,1.4,3.4,3.1,3.4h0.2l33.8-10c1.7-0.5,2.7-1.6,2.7-3V13.5
		C58.6,12.2,57.7,11.3,55.9,10.8z"/>
	<path class="st0" d="M40.1,36.8l-3.4,6.6c-0.4,0.7-0.1,1.6,0.6,2c0.2,0.1,0.5,0.2,0.7,0.2c0.5,0,1.1-0.3,1.3-0.8l6-11.3
		c0.2-0.4,0.2-1,0-1.4s-0.7-0.7-1.1-0.8l-13.2-1.6c-0.8-0.1-1.6,0.5-1.7,1.3c-0.1,0.8,0.5,1.6,1.3,1.7l8.7,1.1
		c-14.4,10.3-23,8.1-26,6.7c-2.9-1.4-4.8-3.9-4.9-6.6c-0.1-2.5,1.3-4.9,3.9-6.4c0.7-0.4,0.9-1.3,0.5-2.1c-0.4-0.7-1.3-0.9-2.1-0.5
		c-3.6,2.1-5.5,5.5-5.4,9.2C5.6,37.7,8,41.2,12,43c1.4,0.7,3.9,1.5,7.4,1.5C24.3,44.6,31.2,42.9,40.1,36.8z"/>
</g>
</svg>
