<?xml version="1.0" encoding="utf-8"?>
<!-- Generator: Adobe Illustrator 24.2.3, SVG Export Plug-In . SVG Version: 6.00 Build 0)  -->
<svg version="1.1" id="Layer_1" xmlns="http://www.w3.org/2000/svg" xmlns:xlink="http://www.w3.org/1999/xlink" x="0px" y="0px"
	 viewBox="0 0 64 64" style="enable-background:new 0 0 64 64;" xml:space="preserve">
<style type="text/css">
	.st0{fill:#FFFFFF;}
</style>
<path class="st0" d="M58.6,5H5C2.5,5,0.5,7,0.5,9.5v37.1c0,2.5,2,4.5,4.5,4.5h20L24.2,55h-1.6c-0.8,0-1.5,0.7-1.5,1.5
	s0.7,1.5,1.5,1.5H41c0.8,0,1.5-0.7,1.5-1.5S41.9,55,41,55h-1.6l-0.8-3.9h20c2.5,0,4.5-2,4.5-4.5V9.5C63.1,7,61.1,5,58.6,5z M5,8
	h53.6c0.8,0,1.5,0.7,1.5,1.5v30.4H3.5V9.5C3.5,8.6,4.2,8,5,8z M36.4,55h-9.1l0.8-3.9h7.6L36.4,55z M58.6,48.1H38.1H25.6H5
	c-0.8,0-1.5-0.7-1.5-1.5v-3.6h56.6v3.6C60.1,47.4,59.5,48.1,58.6,48.1z"/>
</svg>
