<?xml version="1.0" encoding="utf-8"?>
<!-- Generator: Adobe Illustrator 24.0.0, SVG Export Plug-In . SVG Version: 6.00 Build 0)  -->
<svg version="1.1" id="Layer_1" xmlns="http://www.w3.org/2000/svg" xmlns:xlink="http://www.w3.org/1999/xlink" x="0px" y="0px"
	 viewBox="0 0 64 64" style="enable-background:new 0 0 64 64;" xml:space="preserve">
<style type="text/css">
	.st0{fill:#FFFFFF;}
</style>
<g>
	<path class="st0" d="M50.1,61.4c-0.2,0-0.5-0.1-0.7-0.2L32,52l-17.4,9.2c-0.5,0.3-1.1,0.2-1.6-0.1c-0.5-0.3-0.7-0.9-0.6-1.5
		l3.3-19.4L1.6,26.5c-0.4-0.4-0.6-1-0.4-1.5c0.2-0.5,0.6-0.9,1.2-1l19.5-2.8l8.7-17.6c0.3-0.5,0.8-0.8,1.3-0.8s1.1,0.3,1.3,0.8
		l8.7,17.6l19.5,2.8c0.6,0.1,1,0.5,1.2,1c0.2,0.5,0,1.1-0.4,1.5L48.3,40.2l3.3,19.4c0.1,0.6-0.1,1.1-0.6,1.5
		C50.7,61.3,50.4,61.4,50.1,61.4z M5.9,26.5l12.5,12.2c0.4,0.3,0.5,0.8,0.4,1.3l-2.9,17.2L31.3,49c0.4-0.2,1-0.2,1.4,0l15.4,8.1
		L45.2,40c-0.1-0.5,0.1-1,0.4-1.3l12.5-12.2L40.8,24c-0.5-0.1-0.9-0.4-1.1-0.8L32,7.5l-7.7,15.6c-0.2,0.4-0.6,0.7-1.1,0.8L5.9,26.5z
		"/>
</g>
</svg>
