<?xml version="1.0" encoding="utf-8"?>
<!-- Generator: Adobe Illustrator 25.4.1, SVG Export Plug-In . SVG Version: 6.00 Build 0)  -->
<svg version="1.1" id="Warstwa_1" xmlns="http://www.w3.org/2000/svg" xmlns:xlink="http://www.w3.org/1999/xlink" x="0px" y="0px"
	 width="161px" height="21px" viewBox="0 0 161 21" style="enable-background:new 0 0 161 21;" xml:space="preserve">
<style type="text/css">
	.st0{fill:#2D2F7A;}
</style>
<g id="Logo_snow_horizontal_00000147916422978495224490000005528841737374562441_">
	<path id="Path_25663_00000126282172213158504070000003751816366060796300_" class="st0" d="M0,2.707
		c0-0.609,0.494-1.103,1.103-1.103l0,0h8.875c0.482,0,0.873,0.391,0.873,0.873v0.53c0,0.482-0.391,0.873-0.873,0.873H2.594v5.85
		h5.849c0.482,0,0.874,0.391,0.874,0.873l0,0v0.529c0,0.482-0.391,0.873-0.873,0.873c0,0,0,0-0.001,0H2.594v6.008h7.835
		c0.482,0,0.873,0.391,0.874,0.873c0,0,0,0,0,0.001v0.53c0,0.482-0.391,0.873-0.874,0.873l0,0H1.103C0.494,20.291,0,19.797,0,19.188
		l0,0V2.707z"/>
	<path id="Path_25664_00000136375431759307399090000010214091568496731027_" class="st0" d="M16.621,19.49
		c0,0.582-0.291,0.873-0.874,0.873h-0.82c-0.582,0-0.874-0.291-0.874-0.873V1.191c0-0.582,0.291-0.873,0.874-0.873h0.82
		c0.582,0,0.874,0.291,0.874,0.873V19.49z"/>
	<path id="Path_25665_00000159448133085771947830000006377461180566514600_" class="st0" d="M31.223,6.898h-0.635
		c-0.582,0-0.873,0.247-0.874,0.741v0.666c0.002,0.176,0.02,0.352,0.053,0.525h-0.053c-0.198-0.428-0.487-0.808-0.847-1.112
		c-0.386-0.324-0.819-0.587-1.284-0.781c-0.652-0.259-1.35-0.381-2.051-0.357c-3.571,0-5.982,2.542-5.982,7.129
		c0,4.218,2.376,6.974,5.759,6.974c1.812,0,3.784-0.754,4.405-2.276h0.053c-0.028,0.18-0.045,0.361-0.053,0.542v0.674
		c0,0.494,0.291,0.741,0.874,0.741h0.635c0.582,0,0.873-0.291,0.874-0.873V7.771C32.096,7.189,31.805,6.898,31.223,6.898z
		 M25.852,18.459c-2.253,0-3.68-2.117-3.68-4.856c0-2.568,1.03-4.8,3.797-4.8c2.122,0,3.614,1.881,3.614,4.802
		C29.582,16.503,28.072,18.459,25.852,18.459z"/>
	<path id="Path_25666_00000029011115918308878810000013362810777625360008_" class="st0" d="M35.298,19.152
		c-0.204-0.104-0.343-0.302-0.37-0.53c-0.012-0.235,0.053-0.467,0.185-0.661l0.265-0.371c0.121-0.193,0.318-0.328,0.542-0.37
		c0.238-0.004,0.472,0.06,0.675,0.185c0.41,0.254,0.834,0.484,1.27,0.688c0.632,0.282,1.32,0.417,2.012,0.396
		c0.582,0.026,1.158-0.136,1.641-0.463c0.42-0.301,0.659-0.794,0.635-1.31c0.012-0.416-0.181-0.812-0.516-1.059
		c-0.396-0.295-0.827-0.539-1.284-0.729c-0.512-0.221-1.063-0.432-1.654-0.635c-0.581-0.198-1.136-0.464-1.654-0.794
		c-0.501-0.316-0.937-0.725-1.284-1.204c-0.365-0.547-0.545-1.196-0.516-1.853c-0.012-0.583,0.12-1.16,0.384-1.681
		c0.249-0.478,0.607-0.89,1.046-1.204c0.47-0.331,0.994-0.578,1.548-0.729c0.607-0.17,1.235-0.254,1.866-0.251
		c0.788-0.025,1.574,0.101,2.316,0.371c0.479,0.185,0.944,0.406,1.389,0.661c0.214,0.086,0.376,0.267,0.437,0.49
		c0.038,0.235-0.014,0.476-0.146,0.675l-0.238,0.397c-0.247,0.441-0.636,0.538-1.165,0.291c-0.355-0.192-0.722-0.36-1.099-0.502
		c-0.521-0.188-1.073-0.278-1.628-0.265c-0.564-0.019-1.121,0.128-1.601,0.424c-0.429,0.276-0.677,0.761-0.648,1.27
		c-0.01,0.42,0.182,0.818,0.516,1.072c0.392,0.301,0.824,0.546,1.284,0.729c0.512,0.212,1.063,0.424,1.654,0.635
		c0.576,0.205,1.13,0.466,1.654,0.781c0.506,0.304,0.943,0.709,1.283,1.191c0.363,0.553,0.544,1.205,0.516,1.866
		c0.005,0.544-0.113,1.082-0.344,1.575c-0.23,0.486-0.565,0.915-0.98,1.256c-0.451,0.368-0.967,0.646-1.522,0.821
		c-0.638,0.201-1.303,0.299-1.972,0.291c-0.52,0.004-1.039-0.045-1.549-0.146c-0.429-0.086-0.849-0.21-1.256-0.371
		c-0.342-0.136-0.673-0.295-0.993-0.477C35.755,19.477,35.521,19.323,35.298,19.152z"/>
	<path id="Path_25667_00000112619326121509345980000010863846588563669172_" class="st0" d="M57.437,4.224
		c-0.582,0-0.873-0.291-0.873-0.873V2.477c0-0.582,0.291-0.873,0.873-0.873h0.9c0.582,0,0.873,0.291,0.873,0.873V3.35
		c0,0.582-0.291,0.873-0.873,0.873L57.437,4.224L57.437,4.224z M56.59,7.771c0-0.582,0.291-0.873,0.874-0.873h0.82
		c0.582,0,0.874,0.291,0.874,0.873V19.49c0,0.582-0.291,0.873-0.874,0.873h-0.82c-0.582,0-0.874-0.291-0.874-0.873V7.771z"/>
	<path id="Path_25668_00000178886769002573360420000012074080390813509787_" class="st0" d="M72.313,18.901
		c0.167,0.344,0.034,0.758-0.303,0.94c-1.001,0.519-2.115,0.782-3.242,0.766c-4.765,0-6.778-3.582-6.778-7.014
		c0-3.366,2.135-7.014,6.668-7.014c1.071-0.017,2.13,0.227,3.086,0.711c0.347,0.179,0.484,0.604,0.309,0.952l-0.327,0.653
		C71.56,9.232,71.16,9.38,70.815,9.233c-0.603-0.271-1.255-0.417-1.916-0.43c-2.778,0-4.291,1.503-4.291,4.764
		c0,2.787,1.46,4.817,4.344,4.817c0.736-0.005,1.464-0.164,2.135-0.467c0.348-0.15,0.752,0.002,0.915,0.344
		C72.104,18.469,72.215,18.698,72.313,18.901z"/>
	<path id="Path_25669_00000032627202794029584500000012430923526327012002_" class="st0" d="M51.109,19.49
		c0,0.482-0.391,0.873-0.874,0.873l0,0h-0.82c-0.482,0-0.874-0.391-0.874-0.873l0,0V9.121h-1.385c-0.565,0-0.847-0.291-0.847-0.873
		V7.764c0-0.406,0.329-0.735,0.735-0.735h1.551V4.092c0-0.482,0.391-0.873,0.874-0.873l0,0h0.767c0.482,0,0.874,0.391,0.874,0.873
		l0,0V7.03h2.467c0.406,0,0.735,0.329,0.735,0.735v0.483c0,0.582-0.282,0.873-0.847,0.873H51.11L51.109,19.49z"/>
	<path id="Path_25670_00000070116681951445890010000014353524067631435448_" class="st0" d="M98.803,2.707
		c0-0.609,0.494-1.103,1.103-1.103l0,0h8.876c0.482,0,0.873,0.391,0.873,0.873v0.53c0,0.482-0.391,0.873-0.873,0.873h-7.385v5.85
		h5.849c0.482,0,0.873,0.391,0.873,0.873v0.529c0,0.482-0.391,0.873-0.873,0.873l0,0h-5.849v6.008h7.834
		c0.482,0,0.873,0.391,0.873,0.873l0,0v0.53c0,0.482-0.391,0.873-0.873,0.873h-9.325c-0.609,0-1.103-0.494-1.103-1.103l0,0V2.707z"
		/>
	<path id="Path_25671_00000094588989320089469910000006015720709932780955_" class="st0" d="M112.804,7.771
		c0-0.582,0.291-0.873,0.873-0.873h0.741c0.582,0,0.874,0.291,0.873,0.873v1.191c0,0.178-0.018,0.355-0.053,0.53
		c-0.018,0.078-0.027,0.158-0.026,0.238h0.053c0.176-0.416,0.412-0.805,0.701-1.152c0.313-0.384,0.679-0.722,1.085-1.005
		c0.419-0.293,0.872-0.534,1.35-0.715c0.486-0.185,1.002-0.28,1.522-0.278c2.206,0,3.547,1.015,4.023,3.044H124
		c0.192-0.412,0.442-0.796,0.741-1.138c0.318-0.372,0.683-0.701,1.085-0.98c0.416-0.287,0.87-0.514,1.35-0.675
		c0.503-0.169,1.031-0.254,1.562-0.251c1.535,0,2.656,0.428,3.361,1.284c0.706,0.856,1.059,2.139,1.059,3.851v7.775
		c0,0.582-0.291,0.873-0.873,0.873h-0.82c-0.582,0-0.873-0.291-0.873-0.873v-7.22c0.002-0.443-0.029-0.885-0.093-1.323
		c-0.05-0.371-0.167-0.729-0.344-1.059c-0.168-0.3-0.415-0.547-0.715-0.715c-0.372-0.191-0.787-0.282-1.204-0.265
		c-0.585-0.009-1.162,0.142-1.667,0.437c-0.497,0.294-0.925,0.691-1.256,1.165c-0.353,0.503-0.617,1.062-0.781,1.654
		c-0.176,0.611-0.265,1.243-0.265,1.879v5.446c0,0.582-0.282,0.873-0.847,0.873h-0.847c-0.565,0-0.847-0.291-0.847-0.873V12.27
		c0.001-0.425-0.026-0.849-0.08-1.27c-0.043-0.373-0.15-0.736-0.317-1.072c-0.159-0.308-0.402-0.565-0.701-0.741
		c-0.378-0.202-0.803-0.298-1.231-0.278c-0.6-0.01-1.191,0.146-1.708,0.45c-0.501,0.299-0.934,0.7-1.27,1.178
		c-0.352,0.503-0.616,1.062-0.781,1.654c-0.174,0.602-0.263,1.226-0.265,1.853v5.446c0,0.582-0.291,0.873-0.873,0.873h-0.82
		c-0.582,0-0.873-0.291-0.873-0.873L112.804,7.771z"/>
	<path id="Path_25672_00000026133633037356597820000013734099904446296767_" class="st0" d="M153.007,4.224
		c-0.582,0-0.873-0.291-0.873-0.873V2.477c0-0.582,0.291-0.873,0.873-0.873h0.9c0.582,0,0.873,0.291,0.873,0.873V3.35
		c0,0.582-0.291,0.873-0.873,0.873L153.007,4.224L153.007,4.224z M152.161,7.771c0-0.582,0.291-0.873,0.873-0.873h0.82
		c0.582,0,0.873,0.291,0.873,0.873V19.49c0,0.582-0.291,0.873-0.873,0.873h-0.82c-0.582,0-0.873-0.291-0.873-0.873V7.771z"/>
	<path id="Path_25673_00000017484786187155741190000005032498006062797480_" class="st0" d="M161,19.49
		c0,0.582-0.291,0.873-0.873,0.873h-0.82c-0.582,0-0.873-0.291-0.873-0.873V1.191c0-0.582,0.291-0.873,0.873-0.873h0.82
		c0.582,0,0.873,0.291,0.873,0.873V19.49z"/>
	<path id="Path_25674_00000072278418634207953630000001762271726106261127_" class="st0" d="M147.555,6.897h-0.635
		c-0.582,0-0.873,0.247-0.873,0.741v0.666c0.002,0.176,0.02,0.352,0.053,0.525h-0.053c-0.198-0.428-0.487-0.808-0.847-1.112
		c-0.386-0.324-0.819-0.587-1.284-0.781c-0.652-0.259-1.35-0.381-2.051-0.357c-3.571,0-5.982,2.542-5.982,7.129
		c0,4.218,2.376,6.974,5.759,6.974c1.812,0,3.784-0.754,4.405-2.276h0.053c-0.028,0.18-0.045,0.361-0.053,0.542v0.674
		c0,0.494,0.291,0.741,0.873,0.741h0.635c0.582,0,0.873-0.291,0.873-0.873V7.77C148.429,7.188,148.138,6.897,147.555,6.897z
		 M142.184,18.459c-2.253,0-3.68-2.117-3.68-4.856c0-2.568,1.03-4.8,3.797-4.8c2.122,0,3.614,1.881,3.614,4.802
		C145.914,16.502,144.405,18.459,142.184,18.459z"/>
	<g id="Logo_snow_vertical_00000034779629700984351950000000336178371209917078_" transform="translate(292.212 9.805)">
		<path id="Path_25675_00000116954367185104789880000015221468865428290998_" class="st0" d="M-199.398,1.115
			c-0.581-0.754-1.435-1.249-2.378-1.379c-0.145-0.023-0.291-0.034-0.438-0.035h-1.304c-0.223-0.001-0.405,0.179-0.406,0.402v0.002
			l0,0v0.659c0.001,0.223,0.182,0.403,0.405,0.402h0.001h1.075c0.078,0,0.157,0.004,0.234,0.012
			c0.069,0.004,0.137,0.014,0.204,0.029c0.536,0.104,1.01,0.415,1.32,0.864c0.301,0.44,0.429,0.976,0.361,1.505
			c-0.068,0.533-0.335,1.021-0.746,1.368c-0.208,0.176-0.45,0.306-0.712,0.382c-0.297,0.065-0.601,0.094-0.904,0.087h-9.762
			c-0.337-0.004-0.669-0.078-0.977-0.216c-0.481-0.251-0.847-0.678-1.02-1.193c-0.173-0.504-0.156-1.053,0.047-1.545
			c0.312-0.781,1.068-1.293,1.909-1.293h4.506l-1.329,1.464c-0.122,0.134-0.112,0.342,0.022,0.464l0,0l0,0l0.01,0.009l0.433,0.359
			c0.146,0.121,0.363,0.101,0.484-0.045l2.124-2.558c0.206-0.247,0.206-0.607,0-0.854l-2.123-2.557
			c-0.121-0.146-0.338-0.166-0.484-0.045l0,0l-0.434,0.36c-0.139,0.116-0.158,0.323-0.042,0.463l0.009,0.01l1.329,1.464h-4.506
			c-0.463-0.003-0.923,0.075-1.359,0.231c-0.894,0.331-1.624,0.998-2.035,1.859c-0.406,0.876-0.439,1.878-0.092,2.779
			c0.35,0.888,1.036,1.602,1.909,1.988c0.422,0.205,0.884,0.314,1.353,0.32h10.024c0.435,0.006,0.869-0.031,1.296-0.11
			c0.455-0.118,0.883-0.32,1.263-0.596c1.592-1.154,1.948-3.38,0.794-4.973C-199.357,1.17-199.378,1.143-199.398,1.115
			L-199.398,1.115z"/>
	</g>
</g>
</svg>
