<?xml version="1.0" encoding="UTF-8"?>
<svg version="1.1" xmlns="http://www.w3.org/2000/svg" width="353" height="143">
<path d="M0 0 C116.49 0 232.98 0 353 0 C353 47.19 353 94.38 353 143 C236.51 143 120.02 143 0 143 C0 95.81 0 48.62 0 0 Z " fill="#FDFDFD" transform="translate(0,0)"/>
<path d="M0 0 C2.1171875 1.13671875 2.1171875 1.13671875 4.0625 2.375 C4.66320312 2.75269531 5.26390625 3.13039063 5.8828125 3.51953125 C15.86957425 10.93123111 20.81434758 23.37718089 22.79003906 35.27050781 C23.61500478 41.6425548 23.47990222 47.97747774 23.0625 54.375 C22.99160156 55.47714844 22.92070312 56.57929687 22.84765625 57.71484375 C21.20405129 72.95050772 15.98713425 88.31221694 10.0625 102.375 C11.43921875 101.57835938 11.43921875 101.57835938 12.84375 100.765625 C30.86529714 90.375 30.86529714 90.375 34.0625 90.375 C33.78535156 89.84390625 33.50820312 89.3128125 33.22265625 88.765625 C32.67931641 87.70601562 32.67931641 87.70601562 32.125 86.625 C31.58552734 85.58085937 31.58552734 85.58085937 31.03515625 84.515625 C27.47070275 76.67096429 27.73940046 65.43245524 29.8984375 57.1796875 C32.59099513 51.27051739 36.45951234 47.5601881 42.0625 44.375 C42.95388672 43.86646484 42.95388672 43.86646484 43.86328125 43.34765625 C53.86961817 38.69803074 66.95263713 41.00504571 77.0625 44.375 C76.63655412 45.81596586 76.19623367 47.25268712 75.75 48.6875 C75.50636719 49.48800781 75.26273437 50.28851563 75.01171875 51.11328125 C74.02067977 53.47464573 72.98175057 54.71379993 71.0625 56.375 C70.11375 56.045 69.165 55.715 68.1875 55.375 C62.12714263 53.67859165 56.37799427 53.28040271 50.625 56 C46.98525521 59.373422 45.31815292 61.99245679 44.78125 66.99609375 C44.6021985 72.49446689 44.8119719 76.73138843 48.0625 81.375 C51.21838081 84.28432763 53.56999946 84.80997021 57.8125 85.0625 C58.79734375 85.12824219 59.7821875 85.19398437 60.796875 85.26171875 C61.54453125 85.29910156 62.2921875 85.33648437 63.0625 85.375 C63.0625 82.405 63.0625 79.435 63.0625 76.375 C60.0925 76.375 57.1225 76.375 54.0625 76.375 C54.0625 72.745 54.0625 69.115 54.0625 65.375 C61.9825 65.375 69.9025 65.375 78.0625 65.375 C78.0625 75.275 78.0625 85.175 78.0625 95.375 C63.68333493 98.69326886 63.68333493 98.69326886 57.0625 98.8125 C33.847797 99.79131533 12.55596731 115.11703277 -3.2265625 131.29296875 C-6.53553827 133.83430028 -8.80131212 134.25320413 -12.9375 134.375 C-15.375 132.75 -15.375 132.75 -16.9375 130.375 C-17.67295438 125.56495928 -15.50282213 122.49371036 -13.0625 118.5625 C-0.51661811 97.23122641 9.18415971 72.05510067 9.3125 47.125 C9.333125 46.13886719 9.35375 45.15273438 9.375 44.13671875 C9.43138003 33.43860809 6.93685726 24.68856999 0.0625 16.375 C-3.51907372 12.9600111 -6.36311214 12.06891172 -11.1875 11.75 C-20.37243659 12.14772391 -26.05471283 17.29803415 -32.1875 23.6875 C-32.95578125 24.54988281 -33.7240625 25.41226562 -34.515625 26.30078125 C-37.39105209 28.76344542 -39.1857015 29.2310954 -42.9375 29.375 C-45.3125 27.8125 -45.3125 27.8125 -46.9375 25.375 C-47.2845599 22.04863365 -47.33435009 20.06199426 -45.64453125 17.13671875 C-34.15716991 4.55983448 -17.6172886 -7.22218178 0 0 Z " fill="#ABD3FE" transform="translate(210.9375,5.625)"/>
<path d="M0 0 C5.9648095 4.22507339 8.82099124 9.06613438 11 16 C12.37432304 25.03881689 12.50910249 35.10191551 7.53515625 43.0546875 C2.11735716 49.91999017 -3.35515088 52.54903097 -12 54 C-21.47404205 54.9611347 -29.43264397 52.79770707 -37 47 C-42.41034571 41.58965429 -44.35356491 34.81712608 -44.46801758 27.35253906 C-44.45794678 26.59682617 -44.44787598 25.84111328 -44.4375 25.0625 C-44.43065186 24.27198242 -44.42380371 23.48146484 -44.41674805 22.66699219 C-44.25336579 16.73627738 -43.39987341 11.98352779 -40 7 C-39.42185547 6.12988281 -39.42185547 6.12988281 -38.83203125 5.2421875 C-30.91544062 -5.36450675 -11.09205562 -6.12921836 0 0 Z " fill="#221E1F" transform="translate(340,50)"/>
<path d="M0 0 C6.93 0 13.86 0 21 0 C26.445 17.82 26.445 17.82 32 36 C34.47685135 33.52314865 34.75371992 31.77941989 35.62109375 28.3984375 C35.91693359 27.26792969 36.21277344 26.13742188 36.51757812 24.97265625 C36.82115234 23.78542969 37.12472656 22.59820312 37.4375 21.375 C38.03651945 19.04848575 38.63930205 16.72293673 39.24609375 14.3984375 C39.51091553 13.36380371 39.7757373 12.32916992 40.04858398 11.26318359 C41.16225668 7.44348914 42.60297286 3.72540571 44 0 C50.93 0 57.86 0 65 0 C65 18.15 65 36.3 65 55 C60.38 55 55.76 55 51 55 C50.67 42.46 50.34 29.92 50 17 C49.113125 20.3 48.22625 23.6 47.3125 27 C44.76352527 36.41343604 41.97854631 45.71394387 39 55 C34.38 55 29.76 55 25 55 C22.1462234 47.79804013 19.98273933 40.43211786 17.8125 33 C16.554375 28.71 15.29625 24.42 14 20 C13.67 31.22 13.34 42.44 13 54 C8.71 54 4.42 54 0 54 C0 36.18 0 18.36 0 0 Z " fill="#221E1F" transform="translate(50,48)"/>
<path d="M0 0 C-0.42594588 1.44096586 -0.86626633 2.87768712 -1.3125 4.3125 C-1.55613281 5.11300781 -1.79976563 5.91351563 -2.05078125 6.73828125 C-3.04182023 9.09964573 -4.08074943 10.33879993 -6 12 C-6.94875 11.67 -7.8975 11.34 -8.875 11 C-14.93535737 9.30359165 -20.68450573 8.90540271 -26.4375 11.625 C-30.07724479 14.998422 -31.74434708 17.61745679 -32.28125 22.62109375 C-32.4603015 28.11946689 -32.2505281 32.35638843 -29 37 C-25.84411919 39.90932763 -23.49250054 40.43497021 -19.25 40.6875 C-17.77273438 40.78611328 -17.77273438 40.78611328 -16.265625 40.88671875 C-15.51796875 40.92410156 -14.7703125 40.96148437 -14 41 C-14 38.03 -14 35.06 -14 32 C-16.97 32 -19.94 32 -23 32 C-23 28.37 -23 24.74 -23 21 C-15.08 21 -7.16 21 1 21 C1 30.9 1 40.8 1 51 C-6.39500238 52.64333386 -12.17377124 53.36533521 -19.5625 53.375 C-20.55185547 53.39949219 -21.54121094 53.42398438 -22.56054688 53.44921875 C-29.98014988 53.47875931 -35.22750691 52.11286267 -40.98828125 47.359375 C-41.42527344 46.82828125 -41.86226562 46.2971875 -42.3125 45.75 C-42.76238281 45.22921875 -43.21226562 44.7084375 -43.67578125 44.171875 C-47.382971 38.09164639 -48.56049275 32.181479 -48.5 25.125 C-48.49355469 24.33706055 -48.48710937 23.54912109 -48.48046875 22.73730469 C-48.24560563 15.23713628 -46.59326107 9.577938 -41.16796875 4.17578125 C-39.18850169 2.56331597 -37.2179601 1.26086662 -35 0 C-34.40574219 -0.33902344 -33.81148437 -0.67804687 -33.19921875 -1.02734375 C-23.19288183 -5.67696926 -10.10986287 -3.36995429 0 0 Z " fill="#221E1F" transform="translate(288,50)"/>
<path d="M0 0 C27 0 27 0 35 3 C40.53515198 8.77069036 41.36139766 12.09381708 41.27734375 19.8828125 C40.88630927 24.27781977 39.73380812 27.53048817 37 31 C29.79738264 36.73269545 23.91311927 36.08824871 15 36 C15 42.27 15 48.54 15 55 C10.05 55 5.1 55 0 55 C0 36.85 0 18.7 0 0 Z " fill="#1F1B1C" transform="translate(170,48)"/>
<path d="M0 0 C-0.55105909 3.9492568 -1.38935371 7.34920174 -3 11 C-3.53367188 10.855625 -4.06734375 10.71125 -4.6171875 10.5625 C-10.50228763 9.09631589 -15.95009776 8.77265503 -22 9 C-22.15115585 11.36522297 -22.15115585 11.36522297 -21 14 C-18.42268862 15.88008658 -15.57319438 17.15792686 -12.6875 18.5 C-6.56866942 21.38845547 -2.1564819 23.6870362 1 30 C1.55362612 35.91954086 1.58317919 41.0297837 -2 46 C-8.36528627 52.04533802 -15.70536028 53.41606859 -24.2578125 53.26953125 C-29.32733177 52.77124517 -34.10153281 51.3670141 -39 50 C-39 45.71 -39 41.42 -39 37 C-30.27560718 38.92449842 -30.27560718 38.92449842 -27.9609375 39.55859375 C-24.12069235 40.4230314 -19.55052775 40.77526387 -16 39 C-16 37.35 -16 35.7 -16 34 C-17.08539062 33.50371094 -18.17078125 33.00742188 -19.2890625 32.49609375 C-33.74506059 25.70475301 -33.74506059 25.70475301 -38 19 C-39.52802021 14.0045493 -39.79918999 9.66497915 -37.5 4.875 C-28.06643895 -5.97359521 -12.64203132 -5.61868059 0 0 Z " fill="#242021" transform="translate(41,51)"/>
<path d="M0 0 C14.19 0 28.38 0 43 0 C43 3.96 43 7.92 43 12 C38.38 12 33.76 12 29 12 C29 26.19 29 40.38 29 55 C24.05 55 19.1 55 14 55 C14 40.81 14 26.62 14 12 C9.38 12 4.76 12 0 12 C0 8.04 0 4.08 0 0 Z " fill="#201C1D" transform="translate(120,48)"/>
<path d="M0 0 C4.31095268 2.31180759 6.52770426 5.39572969 8 10 C8.86116941 17.25985837 8.57756306 24.02926558 4 30 C-0.24150524 32.82767016 -4.02064595 32.77156125 -9 32 C-13.22662109 29.00614339 -14.97491898 26.03221591 -16 21 C-16.52382524 14.73280519 -16.76504714 9.32299769 -13 4 C-9.24255138 -0.07951564 -5.40652433 -1.22731276 0 0 Z " fill="#F9F9F9" transform="translate(328,59)"/>
<path d="M0 0 C7.35678392 -0.36180905 7.35678392 -0.36180905 10 1.125 C11.47901666 3.89815624 11.38601984 5.91184125 11 9 C10 10.8125 10 10.8125 8 12 C5.31884069 12.53940483 2.7366901 12.77568114 0 13 C0 8.71 0 4.42 0 0 Z " fill="#F1F0F0" transform="translate(185,60)"/>
</svg>
