<?xml version="1.0" encoding="utf-8"?>
<!-- Generator: Adobe Illustrator 24.0.0, SVG Export Plug-In . SVG Version: 6.00 Build 0)  -->
<svg version="1.1" id="Layer_1" xmlns="http://www.w3.org/2000/svg" xmlns:xlink="http://www.w3.org/1999/xlink" x="0px" y="0px"
	 viewBox="0 0 64 64" style="enable-background:new 0 0 64 64;" xml:space="preserve">
<style type="text/css">
	.st0{fill:#FFFFFF;}
</style>
<g>
	<path class="st0" d="M58.3,5.4H5.7c-2.7,0-5,2.2-5,5v43.3c0,2.7,2.2,5,5,5h52.6c2.7,0,5-2.2,5-5V10.4C63.3,7.6,61,5.4,58.3,5.4z
		 M32,36.5c-2.5,0-4.5-2-4.5-4.5c0-2.5,2-4.5,4.5-4.5c2.5,0,4.5,2,4.5,4.5C36.5,34.5,34.5,36.5,32,36.5z M3.7,53.6V10.4
		c0-1.1,0.9-2,2-2h24.8v16.3c-3.4,0.7-6,3.7-6,7.3c0,3.6,2.6,6.6,6,7.3v16.3H5.7C4.6,55.6,3.7,54.7,3.7,53.6z M60.3,53.6
		c0,1.1-0.9,2-2,2H33.5V39.3c3.4-0.7,6-3.7,6-7.3c0-3.6-2.6-6.6-6-7.3V8.4h24.8c1.1,0,2,0.9,2,2V53.6z"/>
	<path class="st0" d="M47,24.8c-0.6-0.6-1.5-0.6-2.1,0c-0.6,0.6-0.6,1.5,0,2.1l5,5l-5,5c-0.6,0.6-0.6,1.5,0,2.1
		c0.3,0.3,0.7,0.4,1.1,0.4s0.8-0.1,1.1-0.4l6.1-6.1c0.6-0.6,0.6-1.5,0-2.1L47,24.8z"/>
	<path class="st0" d="M19.2,24.8c-0.6-0.6-1.5-0.6-2.1,0l-6.1,6.1c-0.6,0.6-0.6,1.5,0,2.1l6.1,6.1c0.3,0.3,0.7,0.4,1.1,0.4
		s0.8-0.1,1.1-0.4c0.6-0.6,0.6-1.5,0-2.1l-5-5l5-5C19.7,26.4,19.7,25.4,19.2,24.8z"/>
</g>
</svg>
