<?xml version="1.0" encoding="utf-8"?>
<!-- Generator: Adobe Illustrator 26.2.1, SVG Export Plug-In . SVG Version: 6.00 Build 0)  -->
<svg version="1.1" id="Layer_1" xmlns="http://www.w3.org/2000/svg" xmlns:xlink="http://www.w3.org/1999/xlink" x="0px" y="0px"
	 viewBox="0 0 64 64" style="enable-background:new 0 0 64 64;" xml:space="preserve">
<style type="text/css">
	.st0{fill:#FFFFFF;}
</style>
<g>
	<path class="st0" d="M45.2,13.3h10c0.8,0,1.5-0.7,1.5-1.5s-0.7-1.5-1.5-1.5h-10c-0.8,0-1.5,0.7-1.5,1.5S44.4,13.3,45.2,13.3z"/>
	<path class="st0" d="M45.2,18.4h7.4c0.8,0,1.5-0.7,1.5-1.5s-0.7-1.5-1.5-1.5h-7.4c-0.8,0-1.5,0.7-1.5,1.5S44.4,18.4,45.2,18.4z"/>
	<path class="st0" d="M59.3,2.8h-18c-1.6,0-3,1.2-3,2.8v17.6c0,1.5,1.3,2.8,3,2.8h5.6l2.3,1.9c0.3,0.2,0.6,0.3,0.9,0.3
		c0.3,0,0.7-0.1,1-0.3l2.3-1.9h6c1.6,0,3-1.2,3-2.8V5.6C62.3,4.1,60.9,2.8,59.3,2.8z M59.3,22.9h-6.5c-0.3,0-0.7,0.1-1,0.3l-1.7,1.4
		l-1.8-1.4c-0.3-0.2-0.6-0.3-0.9-0.3l-6.1,0V5.8l18,0V22.9z"/>
	<path class="st0" d="M9.8,13.3h10c0.8,0,1.5-0.7,1.5-1.5s-0.7-1.5-1.5-1.5h-10c-0.8,0-1.5,0.7-1.5,1.5S9,13.3,9.8,13.3z"/>
	<path class="st0" d="M18.7,16.9c0-0.8-0.7-1.5-1.5-1.5H9.8c-0.8,0-1.5,0.7-1.5,1.5s0.7,1.5,1.5,1.5h7.4
		C18.1,18.4,18.7,17.7,18.7,16.9z"/>
	<path class="st0" d="M14.7,28.2c0.3,0,0.7-0.1,1-0.3l2.3-1.9h6c1.6,0,3-1.2,3-2.8V5.6c0-1.5-1.3-2.8-3-2.8h-18c-1.6,0-3,1.2-3,2.8
		v17.6c0,1.5,1.3,2.8,3,2.8h5.6l2.3,1.9C14,28,14.3,28.2,14.7,28.2z M12,22.9l-6.1,0V5.8l18,0v17.1h-6.5c-0.3,0-0.7,0.1-1,0.3
		l-1.7,1.4l-1.8-1.4C12.6,23.1,12.3,22.9,12,22.9z"/>
	<path class="st0" d="M25.7,53.5c0,0.8,0.7,1.5,1.5,1.5h10c0.8,0,1.5-0.7,1.5-1.5S38.1,52,37.2,52h-10C26.4,52,25.7,52.6,25.7,53.5z
		"/>
	<path class="st0" d="M27.2,46.9c-0.8,0-1.5,0.7-1.5,1.5s0.7,1.5,1.5,1.5h7.4c0.8,0,1.5-0.7,1.5-1.5s-0.7-1.5-1.5-1.5H27.2z"/>
	<path class="st0" d="M41.2,39.3h-5.6l-2.3-1.9c-0.6-0.5-1.4-0.5-1.9,0l-2.3,1.9h-6c-1.6,0-3,1.2-3,2.8v17.6c0,1.5,1.3,2.8,3,2.8h18
		c1.6,0,3-1.2,3-2.8V42.1C44.2,40.6,42.8,39.3,41.2,39.3z M41.2,59.5l-18,0V42.3h6.5c0.3,0,0.7-0.1,1-0.3l1.7-1.4l1.8,1.4
		c0.3,0.2,0.6,0.3,0.9,0.3l6.1,0V59.5z"/>
	<path class="st0" d="M50.2,29.6c-1.2,0-2.3,0.7-2.8,1.7H35.3c-0.5-1-1.6-1.7-2.8-1.7c-1.2,0-2.3,0.7-2.8,1.7H17.8
		c-0.1,0-0.1,0-0.2,0c-0.5-1-1.6-1.7-2.8-1.7c-1.8,0-3.2,1.4-3.2,3.2c0,1.8,1.4,3.2,3.2,3.2c1.2,0,2.3-0.7,2.8-1.7
		c0.1,0,0.1,0,0.2,0h11.9c0.5,1,1.6,1.7,2.8,1.7c1.2,0,2.3-0.7,2.8-1.7h12.1c0.5,1,1.6,1.7,2.8,1.7c1.8,0,3.2-1.4,3.2-3.2
		C53.3,31,51.9,29.6,50.2,29.6z"/>
</g>
</svg>
