<?xml version="1.0" encoding="utf-8"?>
<!-- Generator: Adobe Illustrator 26.0.1, SVG Export Plug-In . SVG Version: 6.00 Build 0)  -->
<svg version="1.1" id="Layer_1" xmlns="http://www.w3.org/2000/svg" xmlns:xlink="http://www.w3.org/1999/xlink" x="0px" y="0px"
	 viewBox="0 0 64 64" style="enable-background:new 0 0 64 64;" xml:space="preserve">
<style type="text/css">
	.st0{fill:#FFFFFF;}
</style>
<g>
	<path class="st0" d="M57.4,29.1c0-0.1-0.1-0.1-0.1-0.2L40.6,12.2c-0.6-0.6-1.5-0.6-2.1,0c-0.6,0.6-0.6,1.5,0,2.1l10.8,10.8
		c-1.1-0.2-2.2-0.3-3.3-0.3c-2.6,0-5.1,0.6-7.3,1.6c0,0,0,0,0,0l-1-1c-0.6-0.6-1.5-0.6-2.1,0c-0.6,0.6-0.6,1.5,0,2.1l0.5,0.5
		c-2.3,1.6-4.2,3.8-5.5,6.3L16.1,19.8c-0.6-0.6-1.5-0.6-2.1,0c-0.6,0.6-0.6,1.5,0,2.1l14.8,14.8c0.1,0.1,0.3,0.2,0.4,0.3
		c-0.5,1.6-0.8,3.4-0.8,5.2c0,1.1,0.1,2.2,0.3,3.3l-2.2-2.2c-0.6-0.6-1.5-0.6-2.1,0s-0.6,1.5,0,2.1l8.7,8.7c0.3,0.4,0.7,0.7,1.1,1.1
		l0.4,0.4c0,0,0.1,0.1,0.1,0.1c3,2.6,7,4.1,11.3,4.1c9.7,0,17.5-7.9,17.5-17.5C63.4,37,61.1,32.3,57.4,29.1z M45.9,56.8
		c-3.7,0-7.1-1.4-9.7-3.7L35.1,52c-2.3-2.6-3.7-6-3.7-9.7c0-8,6.5-14.5,14.5-14.5s14.5,6.5,14.5,14.5S53.9,56.8,45.9,56.8z"/>
	<path class="st0" d="M32.6,23.9c0.4,0,0.8-0.2,1.1-0.4c0.3-0.3,0.4-0.7,0.4-1.1c0-0.4-0.2-0.8-0.4-1.1c-0.1-0.1-0.2-0.1-0.2-0.2
		c-0.1,0-0.2-0.1-0.3-0.1C33,21,32.9,21,32.8,21c-0.5-0.1-1,0.1-1.3,0.4c-0.3,0.3-0.4,0.7-0.4,1.1c0,0.4,0.2,0.8,0.4,1.1
		C31.8,23.8,32.2,23.9,32.6,23.9z"/>
	<path class="st0" d="M27.6,19.6c0.3,0.3,0.7,0.4,1.1,0.4s0.8-0.1,1.1-0.4c0.6-0.6,0.6-1.5,0-2.1L19.2,7c-0.6-0.6-1.5-0.6-2.1,0
		c-0.6,0.6-0.6,1.5,0,2.1L27.6,19.6z"/>
	<path class="st0" d="M5.9,22.8c-0.6-0.6-1.5-0.6-2.1,0c-0.6,0.6-0.6,1.5,0,2.1l15.4,15.4c0.3,0.3,0.7,0.4,1.1,0.4s0.8-0.1,1.1-0.4
		c0.6-0.6,0.6-1.5,0-2.1L5.9,22.8z"/>
	<path class="st0" d="M11.1,18.4c0.4,0,0.8-0.1,1.1-0.4c0.6-0.6,0.6-1.5,0-2.1L3.4,7.2c-0.6-0.6-1.5-0.6-2.1,0
		c-0.6,0.6-0.6,1.5,0,2.1L10,18C10.3,18.3,10.7,18.4,11.1,18.4z"/>
</g>
</svg>
