<svg version="1.1" xmlns="http://www.w3.org/2000/svg" xmlns:xlink="http://www.w3.org/1999/xlink" x="0px" y="0px" 
	viewBox="0 0 1080 540" style="enable-background:new 0 0 1080 540;" xml:space="preserve">
<style type="text/css">
	.st0{fill-rule:evenodd;clip-rule:evenodd;fill:none;stroke:#DDDDDD;stroke-width:4;stroke-miterlimit:10;}
	.st1{fill:none;stroke:#DDDDDD;stroke-width:4;stroke-miterlimit:10;}
</style>
<rect x="3.1" y="2.5" class="st0" width="1073.4" height="534.1"/>
<circle class="st0" cx="370.6" cy="143.8" r="79.5"/>
<path class="st0" d="M3.8,440.7l175-145.9c16.8-14,41.3-13.7,57.7,0.7l145.8,127.7c13.1,11.5,32.9,11.1,45.5-1.1l293.4-274.8
	c17.2-16.6,44.5-16.6,61.7,0l293.7,283.6"/>
<path class="st1" d="M3.1,506.4l182.4-152.2c11.9-9.6,28.9-9.3,40.4,0.6l144.9,124.8c20.4,17.6,50.9,16.9,70.4-1.7l291.8-276.6
	c10.2-9.7,26.3-9.7,36.5-0.1l306.8,289.2"/>
</svg>
