<?xml version="1.0" encoding="utf-8"?>
<!-- Generator: Adobe Illustrator 26.3.1, SVG Export Plug-In . SVG Version: 6.00 Build 0)  -->
<svg version="1.1" id="Layer_1" xmlns="http://www.w3.org/2000/svg" xmlns:xlink="http://www.w3.org/1999/xlink" x="0px" y="0px"
	 viewBox="0 0 64 64" style="enable-background:new 0 0 64 64;" xml:space="preserve">
<style type="text/css">
	.st0{fill:#FFFFFF;}
</style>
<g>
	<path class="st0" d="M18.3,37c-0.6,0-1.1-0.3-1.3-0.8c-0.4-0.7-0.1-1.6,0.7-2l16-7.8l-5.2-10.7l-16,7.8c-0.7,0.4-1.6,0.1-2-0.7
		c-0.4-0.7-0.1-1.6,0.7-2l17.4-8.5c0.7-0.4,1.6-0.1,2,0.7L37,26.3c0.2,0.4,0.2,0.8,0.1,1.1s-0.4,0.7-0.8,0.9L19,36.8
		C18.7,36.9,18.5,37,18.3,37z"/>
</g>
<g>
	<path class="st0" d="M43,24.9c-0.2,0-0.3,0-0.5-0.1c-0.4-0.1-0.7-0.4-0.9-0.8l-6.5-13.4c-0.2-0.4-0.2-0.8-0.1-1.1s0.4-0.7,0.8-0.9
		l17.4-8.5c0.7-0.4,1.6-0.1,2,0.7l6.5,13.4c0.4,0.7,0.1,1.6-0.7,2l-17.4,8.5C43.5,24.9,43.2,24.9,43,24.9z M38.5,10.7l5.2,10.7
		l14.7-7.1L53.1,3.5L38.5,10.7z"/>
</g>
<g>
	<path class="st0" d="M13.7,64c-0.2,0-0.3,0-0.5-0.1c-0.4-0.1-0.7-0.4-0.9-0.8L5.8,49.7c-0.2-0.4-0.2-0.8-0.1-1.1s0.4-0.7,0.8-0.9
		l17.4-8.5c0.7-0.4,1.6-0.1,2,0.7l6.5,13.4c0.4,0.7,0.1,1.6-0.7,2l-17.4,8.5C14.1,63.9,13.9,64,13.7,64z M9.2,49.7l5.2,10.8
		l14.7-7.1l-5.2-10.8L9.2,49.7z"/>
</g>
<g>
	<path class="st0" d="M38.1,52.1c-0.2,0-0.3,0-0.5-0.1c-0.4-0.1-0.7-0.4-0.9-0.8l-6.5-13.4c-0.4-0.7-0.1-1.6,0.7-2l17.4-8.5
		c0.7-0.4,1.6-0.1,2,0.7c0.4,0.7,0.1,1.6-0.7,2l-16,7.8l5.2,10.8l16-7.8c0.7-0.4,1.6-0.1,2,0.7c0.4,0.7,0.1,1.6-0.7,2l-17.4,8.5
		C38.6,52,38.4,52.1,38.1,52.1z"/>
</g>
<g>
	<path class="st0" d="M46.9,35.9c-0.6,0-1.1-0.3-1.3-0.8c-0.4-0.7-0.1-1.6,0.7-2l14.4-7c0.7-0.4,1.6-0.1,2,0.7
		c0.4,0.7,0.1,1.6-0.7,2l-14.4,7C47.4,35.9,47.1,35.9,46.9,35.9z"/>
</g>
<g>
	<path class="st0" d="M47.6,41.5c-0.6,0-1.1-0.3-1.3-0.8c-0.4-0.7-0.1-1.6,0.7-2l4.5-2.2c0.7-0.4,1.6-0.1,2,0.7s0.1,1.6-0.7,2
		l-4.5,2.2C48.1,41.5,47.9,41.5,47.6,41.5z"/>
</g>
<g>
	<path class="st0" d="M56.8,37.1c-0.6,0-1.1-0.3-1.3-0.8c-0.4-0.7-0.1-1.6,0.7-2l2.3-1.1c0.7-0.4,1.6-0.1,2,0.7s0.1,1.6-0.7,2
		l-2.3,1.1C57.2,37,57,37.1,56.8,37.1z"/>
</g>
<g>
	<path class="st0" d="M3.1,32.9c-0.6,0-1.1-0.3-1.3-0.8c-0.4-0.7-0.1-1.6,0.7-2l14.4-7c0.7-0.4,1.6-0.1,2,0.7c0.4,0.7,0.1,1.6-0.7,2
		l-14.4,7C3.5,32.9,3.3,32.9,3.1,32.9z"/>
</g>
<g>
	<path class="st0" d="M13.9,33.4c-0.6,0-1.1-0.3-1.3-0.8c-0.4-0.7-0.1-1.6,0.7-2l8.1-3.9c0.7-0.4,1.6-0.1,2,0.7
		c0.4,0.7,0.1,1.6-0.7,2l-8.1,3.9C14.3,33.4,14.1,33.4,13.9,33.4z"/>
</g>
<g>
	<path class="st0" d="M2.3,39.1c-0.6,0-1.1-0.3-1.3-0.8c-0.4-0.7-0.1-1.6,0.7-2L9,32.6c0.7-0.4,1.6-0.1,2,0.7c0.4,0.7,0.1,1.6-0.7,2
		L3,38.9C2.8,39,2.6,39.1,2.3,39.1z"/>
</g>
<g>
	<path class="st0" d="M10.2,33.1"/>
</g>
<g>
	<path class="st0" d="M10.1,31.2"/>
</g>
<g>
	<path class="st0" d="M9.4,27.3"/>
</g>
</svg>
