<?xml version="1.0" encoding="utf-8"?>
<!-- Generator: Adobe Illustrator 24.0.0, SVG Export Plug-In . SVG Version: 6.00 Build 0)  -->
<svg version="1.1" id="Layer_1" xmlns="http://www.w3.org/2000/svg" xmlns:xlink="http://www.w3.org/1999/xlink" x="0px" y="0px"
	 viewBox="0 0 64 64" style="enable-background:new 0 0 64 64;" xml:space="preserve">
<style type="text/css">
	.st0{fill:#FFFFFF;}
</style>
<g>
	<g>
		<path class="st0" d="M26.3,29H3.5C2.1,29,1,27.8,1,26.5V16.3c0-1.4,1.1-2.5,2.5-2.5h22.8c1.4,0,2.5,1.1,2.5,2.5v10.2
			C28.8,27.8,27.7,29,26.3,29z M4,26h21.8v-9.2H4V26z"/>
	</g>
	<g>
		<path class="st0" d="M60.5,29H37.7c-1.4,0-2.5-1.1-2.5-2.5V16.3c0-1.4,1.1-2.5,2.5-2.5h22.8c1.4,0,2.5,1.1,2.5,2.5v10.2
			C63,27.8,61.9,29,60.5,29z M38.2,26H60v-9.2H38.2V26z"/>
	</g>
	<g>
		<path class="st0" d="M60.5,50.2H3.8c-1.4,0-2.5-1.1-2.5-2.5V37.5c0-1.4,1.1-2.5,2.5-2.5h56.7c1.4,0,2.5,1.1,2.5,2.5v10.2
			C63,49.1,61.9,50.2,60.5,50.2z M4.3,47.2H60V38H4.3V47.2z"/>
	</g>
</g>
</svg>
