<?xml version="1.0" encoding="utf-8"?>
<!-- Generator: Adobe Illustrator 24.2.3, SVG Export Plug-In . SVG Version: 6.00 Build 0)  -->
<svg version="1.1" id="Layer_1" xmlns="http://www.w3.org/2000/svg" xmlns:xlink="http://www.w3.org/1999/xlink" x="0px" y="0px"
	 viewBox="0 0 64 64" style="enable-background:new 0 0 64 64;" xml:space="preserve">
<style type="text/css">
	.st0{fill:#FFFFFF;}
</style>
<g>
	<path class="st0" d="M48.6,16.9H15.4c-0.8,0-1.5,0.7-1.5,1.5s0.7,1.5,1.5,1.5h33.1c0.8,0,1.5-0.7,1.5-1.5S49.4,16.9,48.6,16.9z"/>
	<path class="st0" d="M48.6,33.7H15.4c-0.8,0-1.5,0.7-1.5,1.5s0.7,1.5,1.5,1.5h33.1c0.8,0,1.5-0.7,1.5-1.5S49.4,33.7,48.6,33.7z"/>
	<path class="st0" d="M44.2,28.5c0.8,0,1.5-0.7,1.5-1.5s-0.7-1.5-1.5-1.5H19.8c-0.8,0-1.5,0.7-1.5,1.5s0.7,1.5,1.5,1.5H44.2z"/>
	<path class="st0" d="M59.6,3.6H4.4c-1.9,0-3.5,1.6-3.5,3.5v41.4c0,1.9,1.6,3.5,3.5,3.5h18.4l8.1,8.1c0.3,0.3,0.7,0.4,1.1,0.4
		c0.4,0,0.8-0.1,1.1-0.4l8.1-8.1h18.4c1.9,0,3.5-1.6,3.5-3.5V7.1C63.1,5.1,61.5,3.6,59.6,3.6z M60.1,48.4c0,0.3-0.2,0.5-0.5,0.5h-19
		c-0.4,0-0.8,0.2-1.1,0.4L32,56.8l-7.5-7.4c-0.3-0.3-0.7-0.4-1.1-0.4h-19c-0.3,0-0.5-0.2-0.5-0.5V7.1c0-0.3,0.2-0.5,0.5-0.5h55.1
		c0.3,0,0.5,0.2,0.5,0.5V48.4z"/>
</g>
</svg>
