<?xml version="1.0" encoding="utf-8"?>
<!-- Generator: Adobe Illustrator 24.1.0, SVG Export Plug-In . SVG Version: 6.00 Build 0)  -->
<svg version="1.1" id="Layer_1" xmlns="http://www.w3.org/2000/svg" xmlns:xlink="http://www.w3.org/1999/xlink" x="0px" y="0px"
	 viewBox="0 0 64 64" style="enable-background:new 0 0 64 64;" xml:space="preserve">
<style type="text/css">
	.st0{fill:#FFFFFF;}
</style>
<g>
	<path class="st0" d="M40.7,16.2c0.8,0,1.5-0.7,1.5-1.5V3c0-0.8-0.7-1.5-1.5-1.5S39.2,2.2,39.2,3v11.6
		C39.2,15.5,39.8,16.2,40.7,16.2z"/>
	<path class="st0" d="M60.8,21.8H49.2c-0.8,0-1.5,0.7-1.5,1.5s0.7,1.5,1.5,1.5h11.6c0.8,0,1.5-0.7,1.5-1.5S61.7,21.8,60.8,21.8z"/>
	<path class="st0" d="M46.7,18.7c0.4,0,0.8-0.1,1.1-0.4L56,10c0.6-0.6,0.6-1.5,0-2.1c-0.6-0.6-1.5-0.6-2.1,0l-8.2,8.2
		c-0.6,0.6-0.6,1.5,0,2.1C46,18.6,46.3,18.7,46.7,18.7z"/>
	<path class="st0" d="M47.8,28.3c-0.6-0.6-1.5-0.6-2.1,0c-0.6,0.6-0.6,1.5,0,2.1l8.2,8.2c0.3,0.3,0.7,0.4,1.1,0.4
		c0.4,0,0.8-0.1,1.1-0.4c0.6-0.6,0.6-1.5,0-2.1L47.8,28.3z"/>
	<path class="st0" d="M33.6,18.3c0.3,0.3,0.7,0.4,1.1,0.4c0.4,0,0.8-0.1,1.1-0.4c0.6-0.6,0.6-1.5,0-2.1l-8.2-8.2
		c-0.6-0.6-1.5-0.6-2.1,0c-0.6,0.6-0.6,1.5,0,2.1L33.6,18.3z"/>
	<path class="st0" d="M42.5,21.4c-0.4-0.5-1.1-0.6-1.7-0.3L6.6,38c0,0,0,0-0.1,0c0,0-0.1,0.1-0.1,0.1c0,0-0.1,0.1-0.1,0.1
		c0,0-0.1,0.1-0.1,0.1c0,0-0.1,0.1-0.1,0.1c0,0,0,0,0,0.1c0,0,0,0,0,0.1c0,0-0.1,0.1-0.1,0.1c0,0,0,0.1-0.1,0.1c0,0,0,0.1,0,0.1
		c0,0,0,0.1,0,0.1c0,0,0,0.1,0,0.1c0,0,0,0.1,0,0.1c0,0,0,0.1,0,0.1c0,0,0,0.1,0,0.1c0,0,0,0.1,0,0.1c0,0,0,0.1,0.1,0.1
		c0,0,0,0,0,0.1c0,0,0,0,0,0c0.1,0.1,0.1,0.2,0.2,0.3c0,0,0,0,0,0c0.1,0.1,0.1,0.1,0.2,0.2l7,4.9L2.1,56.9c-0.6,0.6-0.6,1.5,0,2.1
		l3,3c0.3,0.3,0.7,0.4,1.1,0.4S7,62.3,7.2,62l11.3-11.4l4.9,7c0,0,0,0,0,0c0,0.1,0.1,0.1,0.2,0.2c0,0,0.1,0.1,0.1,0.1
		c0.1,0.1,0.1,0.1,0.2,0.1c0,0,0,0,0.1,0c0,0,0,0,0,0c0.1,0,0.1,0,0.2,0.1c0,0,0.1,0,0.1,0c0.1,0,0.2,0,0.3,0c0,0,0,0,0,0
		c0,0,0,0,0,0c0,0,0,0,0,0c0.1,0,0.3,0,0.4-0.1c0,0,0.1,0,0.1-0.1c0.1,0,0.2-0.1,0.3-0.1c0,0,0,0,0,0c0.1-0.1,0.2-0.1,0.2-0.2
		c0,0,0,0,0,0c0.1-0.1,0.1-0.2,0.2-0.3c0,0,0,0,0,0l16.8-34.3C43.1,22.5,43,21.9,42.5,21.4z M6.2,58.8l-0.9-0.9l11.5-11.6
		c0,0,0,0,0-0.1c0,0,0.1-0.1,0.1-0.1c0.1-0.1,0.1-0.2,0.2-0.3c0,0,0,0,0,0c0.1-0.2,0.1-0.3,0.1-0.5c0,0,0,0,0,0c0-0.2,0-0.4-0.1-0.5
		c0,0,0,0,0,0c-0.1-0.2-0.2-0.3-0.3-0.5c0,0,0,0,0,0c0,0,0,0,0,0c-0.1-0.1-0.1-0.1-0.2-0.1l-6.4-4.5l28-13.9L24.4,53.9L20,47.5
		c0-0.1-0.1-0.1-0.2-0.2c0,0,0,0,0,0c0,0,0,0,0,0c-0.1-0.1-0.3-0.2-0.5-0.3c0,0,0,0,0,0c-0.2-0.1-0.4-0.1-0.5-0.1c0,0,0,0,0,0
		c-0.2,0-0.4,0-0.5,0.1c0,0,0,0,0,0c-0.1,0-0.2,0.1-0.3,0.2c-0.1,0-0.1,0.1-0.2,0.2c0,0,0,0,0,0L6.2,58.8z"/>
</g>
</svg>
