<?xml version="1.0" encoding="utf-8"?>
<!-- Generator: Adobe Illustrator 23.0.6, SVG Export Plug-In . SVG Version: 6.00 Build 0)  -->
<svg version="1.1" id="Layer_1" xmlns="http://www.w3.org/2000/svg" xmlns:xlink="http://www.w3.org/1999/xlink" x="0px" y="0px"
	 viewBox="0 0 64 64" style="enable-background:new 0 0 64 64;" xml:space="preserve">
<style type="text/css">
	.st0{fill:#FFFFFF;}
</style>
<g>
	<path class="st0" d="M48.8,12H15.2c-1.9,0-3.5,1.6-3.5,3.5v33c0,1.9,1.6,3.5,3.5,3.5h33.5c1.9,0,3.5-1.6,3.5-3.5v-33
		C52.3,13.6,50.7,12,48.8,12z M15.2,15h33.5c0.3,0,0.5,0.2,0.5,0.5v28.3l-7-7.4c-0.3-0.3-0.7-0.5-1.1-0.5c-0.4,0-0.8,0.1-1.1,0.4
		l-5.2,5l-9.3-12.1c-0.3-0.3-0.6-0.5-1-0.6c-0.4,0-0.8,0.1-1.1,0.4l-8.7,7.7V15.5C14.7,15.3,15,15,15.2,15z M48.8,49H15.2
		c-0.3,0-0.5-0.2-0.5-0.5v-7.9l9.5-8.3l9.4,12.2c0.3,0.3,0.7,0.5,1.1,0.6c0.4,0,0.8-0.1,1.2-0.4l5.3-5.1l8.2,8.7v0.3
		C49.3,48.7,49,49,48.8,49z"/>
	<path class="st0" d="M41.1,30.4c3.7,0,6.8-3,6.8-6.8s-3-6.8-6.8-6.8s-6.8,3-6.8,6.8S37.3,30.4,41.1,30.4z M41.1,19.8
		c2.1,0,3.8,1.7,3.8,3.8s-1.7,3.8-3.8,3.8s-3.8-1.7-3.8-3.8S39,19.8,41.1,19.8z"/>
	<path class="st0" d="M59.5,1.1H37.7c-2,0-3.7,1.6-3.7,3.7c0,0.8,0.7,1.5,1.5,1.5s1.5-0.7,1.5-1.5c0-0.4,0.3-0.7,0.7-0.7h21.8
		c0.4,0,0.7,0.3,0.7,0.7v21.8c0,0.4-0.3,0.7-0.7,0.7c-0.8,0-1.5,0.7-1.5,1.5s0.7,1.5,1.5,1.5c2,0,3.7-1.6,3.7-3.7V4.8
		C63.2,2.8,61.6,1.1,59.5,1.1z"/>
	<path class="st0" d="M28.4,57.7c-0.8,0-1.5,0.7-1.5,1.5c0,0.4-0.3,0.7-0.7,0.7H4.5c-0.4,0-0.7-0.3-0.7-0.7V37.4
		c0-0.4,0.3-0.7,0.7-0.7c0.8,0,1.5-0.7,1.5-1.5s-0.7-1.5-1.5-1.5c-2,0-3.7,1.6-3.7,3.7v21.8c0,2,1.6,3.7,3.7,3.7h21.8
		c2,0,3.7-1.6,3.7-3.7C29.9,58.4,29.3,57.7,28.4,57.7z"/>
</g>
</svg>
