<?xml version="1.0" encoding="utf-8"?>
<!-- Generator: Adobe Illustrator 23.0.6, SVG Export Plug-In . SVG Version: 6.00 Build 0)  -->
<svg version="1.1" id="Layer_1" xmlns="http://www.w3.org/2000/svg" xmlns:xlink="http://www.w3.org/1999/xlink" x="0px" y="0px"
	 viewBox="0 0 64 64" style="enable-background:new 0 0 64 64;" xml:space="preserve">
<style type="text/css">
	.st0{fill:#FFFFFF;}
</style>
<g>
	<path class="st0" d="M32,2c-0.8,0-1.5,0.7-1.5,1.5S31.2,5,32,5c14.9,0,27,12.1,27,27S46.9,59,32,59S5,46.9,5,32
		c0-0.8-0.7-1.5-1.5-1.5S2,31.2,2,32c0,16.5,13.5,30,30,30s30-13.5,30-30S48.5,2,32,2z"/>
	<path class="st0" d="M16.8,24.5H26l-8.8,15.9c-0.2,0.3-0.3,0.7-0.3,1c0,0.5,0.2,0.9,0.6,1.2c0.4,0.3,0.8,0.5,1.3,0.5
		c0.7,0,1.3-0.3,1.7-1l9.8-17.7c0.3-0.5,0.4-1,0.4-1.5c0-0.5-0.1-0.9-0.4-1.1c-0.3-0.3-0.7-0.4-1.2-0.4H16.8c-1.2,0-1.8,0.5-1.8,1.6
		C14.9,24,15.6,24.5,16.8,24.5z"/>
	<path class="st0" d="M41.2,40c-0.9,0-1.7-0.2-2.5-0.5c-0.8-0.3-1.6-0.7-2.4-1.3c-0.2-0.2-0.5-0.3-0.6-0.4c-0.2-0.1-0.4-0.1-0.6-0.1
		c-0.3,0-0.6,0.2-0.9,0.5c-0.3,0.3-0.4,0.7-0.4,1.1c0,0.6,0.2,1,0.7,1.4c0.9,0.7,1.9,1.3,3.1,1.7s2.5,0.6,3.7,0.6
		c1.5,0,2.9-0.3,4.1-0.9c1.2-0.6,2.1-1.4,2.7-2.5c0.6-1.1,1-2.3,1-3.7c0-1.3-0.3-2.5-0.9-3.6s-1.4-1.9-2.4-2.4
		c-1-0.6-2.2-0.9-3.6-0.9c-1.5,0-2.8,0.4-3.8,1.1v-5.8h8.2c1.2,0,1.8-0.5,1.8-1.5s-0.6-1.5-1.8-1.5H36.5c-0.6,0-1.1,0.2-1.4,0.5
		s-0.5,0.8-0.5,1.3v9.6c0,0.4,0.1,0.7,0.4,1c0.3,0.2,0.6,0.4,1,0.4s0.8-0.1,1.2-0.4c0.7-0.5,1.3-0.9,1.9-1.1s1.3-0.3,2.1-0.3
		c1.3,0,2.3,0.4,3,1.1c0.7,0.7,1.1,1.7,1.1,2.9c0,1.2-0.4,2.2-1.1,2.9S42.6,40,41.2,40z"/>
</g>
</svg>
