<?xml version="1.0" encoding="utf-8"?>
<!-- Generator: Adobe Illustrator 24.1.0, SVG Export Plug-In . SVG Version: 6.00 Build 0)  -->
<svg version="1.1" id="Layer_1" xmlns="http://www.w3.org/2000/svg" xmlns:xlink="http://www.w3.org/1999/xlink" x="0px" y="0px"
	 viewBox="0 0 64 64" style="enable-background:new 0 0 64 64;" xml:space="preserve">
<style type="text/css">
	.st0{fill:#FFFFFF;}
</style>
<g>
	<path class="st0" d="M4.4,27.3c0.1,0,0.2,0,0.3,0c0.7,0,1.3-0.5,1.5-1.2c0.1-0.3,0.1-0.6,0.2-0.9c0.2-0.8-0.3-1.6-1.1-1.8
		c-0.8-0.2-1.6,0.3-1.8,1.1c-0.1,0.3-0.2,0.7-0.3,1.1C3,26.3,3.6,27.1,4.4,27.3z"/>
	<path class="st0" d="M14.3,11.8c0.3,0,0.7-0.1,0.9-0.3c0.3-0.2,0.5-0.4,0.8-0.6c0.7-0.5,0.8-1.4,0.3-2.1c-0.5-0.7-1.4-0.8-2.1-0.3
		c-0.3,0.2-0.6,0.4-0.9,0.7c-0.6,0.5-0.7,1.5-0.2,2.1C13.4,11.6,13.9,11.8,14.3,11.8z"/>
	<path class="st0" d="M5.7,34.9c0-0.3-0.1-0.6-0.1-1c-0.1-0.8-0.8-1.5-1.6-1.4c-0.8,0.1-1.4,0.8-1.4,1.6c0,0.4,0.1,0.7,0.1,1.1
		c0.1,0.8,0.7,1.3,1.5,1.3c0.1,0,0.1,0,0.2,0C5.1,36.4,5.7,35.7,5.7,34.9z"/>
	<path class="st0" d="M22.3,7.2c0.2,0,0.3,0,0.5-0.1c0.3-0.1,0.6-0.2,0.9-0.3c0.8-0.3,1.2-1.1,1-1.9c-0.3-0.8-1.1-1.2-1.9-1
		c-0.3,0.1-0.7,0.2-1,0.4c-0.8,0.3-1.2,1.1-0.9,1.9C21.2,6.9,21.7,7.2,22.3,7.2z"/>
	<path class="st0" d="M7.6,42.4c-0.3-0.8-1.2-1.1-2-0.8c-0.8,0.3-1.1,1.2-0.8,2c0.1,0.3,0.3,0.7,0.4,1c0.3,0.5,0.8,0.9,1.4,0.9
		c0.2,0,0.4,0,0.6-0.1c0.7-0.4,1.1-1.2,0.7-2C7.9,43,7.8,42.7,7.6,42.4z"/>
	<path class="st0" d="M9.6,15.1c-0.7-0.5-1.6-0.3-2.1,0.4c-0.2,0.3-0.4,0.6-0.6,0.9c-0.4,0.7-0.2,1.6,0.5,2.1
		c0.2,0.2,0.5,0.2,0.8,0.2c0.5,0,1-0.3,1.3-0.7c0.2-0.3,0.3-0.6,0.5-0.8C10.5,16.5,10.3,15.6,9.6,15.1z"/>
	<path class="st0" d="M32,2.5l-0.5,0c-0.8,0-1.5,0.7-1.5,1.5c0,0.8,0.7,1.5,1.5,1.5c0,0,0,0,0,0l0.5,0c14.6,0,26.5,11.9,26.5,26.5
		c0,14.6-11.9,26.5-26.5,26.5c-7.4,0-14.2-3-19.3-8.4c0,0,0,0,0,0l-0.3-0.3c-0.6-0.6-1.5-0.7-2.1-0.1c-0.6,0.6-0.7,1.5-0.1,2.1
		l0.4,0.4c0,0,0,0,0,0c5.5,5.9,13.4,9.3,21.5,9.3c16.2,0,29.5-13.2,29.5-29.5S48.2,2.5,32,2.5z"/>
	<path class="st0" d="M32,37.3c0.8,0,1.6-0.2,2.3-0.6l9.8,9.8c0.3,0.3,0.7,0.4,1.1,0.4s0.8-0.1,1.1-0.4c0.6-0.6,0.6-1.5,0-2.1
		l-9.7-9.7c0.5-0.8,0.8-1.7,0.8-2.7c0-2.4-1.6-4.4-3.8-5.1V12.2c0-0.8-0.7-1.5-1.5-1.5s-1.5,0.7-1.5,1.5v14.7
		c-2.2,0.7-3.8,2.7-3.8,5.1C26.6,34.9,29,37.3,32,37.3z"/>
</g>
</svg>
