<?xml version="1.0" encoding="utf-8"?>
<!-- Generator: Adobe Illustrator 27.9.0, SVG Export Plug-In . SVG Version: 6.00 Build 0)  -->
<svg version="1.1" id="Layer_1" xmlns="http://www.w3.org/2000/svg" xmlns:xlink="http://www.w3.org/1999/xlink" x="0px" y="0px"
	 viewBox="0 0 64 64" style="enable-background:new 0 0 64 64;" xml:space="preserve">
<style type="text/css">
	.st0{fill:#FFFFFF;}
</style>
<path class="st0" d="M58.8,4.7H5.2c-2.2,0-4.1,1.8-4.1,4.1v46.4c0,2.2,1.8,4.1,4.1,4.1h53.7c2.2,0,4.1-1.8,4.1-4.1V8.8
	C62.9,6.6,61.1,4.7,58.8,4.7z M59.9,30.4H33.5V20.2h26.4V30.4z M30.5,30.4H4.1V20.2h26.4V30.4z M4.1,33.4h26.4v10.3H4.1V33.4z
	 M33.5,33.4h26.4v10.3H33.5V33.4z M5.2,7.7h53.7c0.6,0,1.1,0.5,1.1,1.1v8.4H4.1V8.8C4.1,8.2,4.6,7.7,5.2,7.7z M4.1,55.2v-8.4h26.4
	v9.5H5.2C4.6,56.3,4.1,55.8,4.1,55.2z M58.8,56.3H33.5v-9.5h26.4v8.4C59.9,55.8,59.4,56.3,58.8,56.3z"/>
</svg>
