<?xml version="1.0" encoding="utf-8"?>
<!-- Generator: Adobe Illustrator 24.1.0, SVG Export Plug-In . SVG Version: 6.00 Build 0)  -->
<svg version="1.1" id="Layer_1" xmlns="http://www.w3.org/2000/svg" xmlns:xlink="http://www.w3.org/1999/xlink" x="0px" y="0px"
	 viewBox="0 0 64 64" style="enable-background:new 0 0 64 64;" xml:space="preserve">
<style type="text/css">
	.st0{fill:#FFFFFF;}
</style>
<g>
	<path class="st0" d="M61.8,5.4H2.2c-0.8,0-1.5,0.7-1.5,1.5v50.2c0,0.8,0.7,1.5,1.5,1.5h59.5c0.8,0,1.5-0.7,1.5-1.5V6.9
		C63.3,6.1,62.6,5.4,61.8,5.4z M60.3,37.5h-5V19.9h5V37.5z M3.7,19.9h5v17.6h-5V19.9z M3.7,55.6V40.5h6.5c0.8,0,1.5-0.7,1.5-1.5
		V18.4c0-0.8-0.7-1.5-1.5-1.5H3.7V8.4h56.5v8.5h-6.5c-0.8,0-1.5,0.7-1.5,1.5V39c0,0.8,0.7,1.5,1.5,1.5h6.5v15.1H3.7z"/>
	<path class="st0" d="M32,44.2c-1.3,0-2.4,1.1-2.4,2.4s1.1,2.4,2.4,2.4s2.4-1.1,2.4-2.4S33.3,44.2,32,44.2z M32,47.2
		c-0.3,0-0.6-0.3-0.6-0.6s0.3-0.6,0.6-0.6s0.6,0.3,0.6,0.6S32.3,47.2,32,47.2z"/>
	<circle class="st0" cx="24.1" cy="46.5" r="1.5"/>
	<circle class="st0" cx="39.9" cy="46.5" r="1.5"/>
	<path class="st0" d="M45.5,16.9H18.5c-0.8,0-1.5,0.7-1.5,1.5V39c0,0.8,0.7,1.5,1.5,1.5h26.9c0.8,0,1.5-0.7,1.5-1.5V18.4
		C47,17.6,46.3,16.9,45.5,16.9z M44,37.5H20V19.9H44V37.5z"/>
</g>
</svg>
