<?xml version="1.0" encoding="utf-8"?>
<!-- Generator: Adobe Illustrator 27.2.0, SVG Export Plug-In . SVG Version: 6.00 Build 0)  -->
<svg version="1.1" id="Layer_1" xmlns="http://www.w3.org/2000/svg" xmlns:xlink="http://www.w3.org/1999/xlink" x="0px" y="0px"
	 viewBox="0 0 64 64" style="enable-background:new 0 0 64 64;" xml:space="preserve">
<style type="text/css">
	.st0{fill:#FFFFFF;}
</style>
<g>
	<path class="st0" d="M60.1,5.9H3.9c-0.8,0-1.5,0.7-1.5,1.5v49.2c0,0.8,0.7,1.5,1.5,1.5h56.2c0.8,0,1.5-0.7,1.5-1.5V7.4
		C61.6,6.6,60.9,5.9,60.1,5.9z M58.6,55.1H5.4V8.9h53.2V55.1z"/>
	<path class="st0" d="M11.9,29.6H29c0.8,0,1.5-0.7,1.5-1.5V16c0-0.8-0.7-1.5-1.5-1.5H11.9c-0.8,0-1.5,0.7-1.5,1.5v12.1
		C10.4,28.9,11.1,29.6,11.9,29.6z M13.4,17.5h14.1v9.1H13.4V17.5z"/>
	<path class="st0" d="M35,29.6h17.1c0.8,0,1.5-0.7,1.5-1.5V16c0-0.8-0.7-1.5-1.5-1.5H35c-0.8,0-1.5,0.7-1.5,1.5v12.1
		C33.5,28.9,34.2,29.6,35,29.6z M36.5,17.5h14.1v9.1H36.5V17.5z"/>
	<path class="st0" d="M11.9,49.5H29c0.8,0,1.5-0.7,1.5-1.5V35.9c0-0.8-0.7-1.5-1.5-1.5H11.9c-0.8,0-1.5,0.7-1.5,1.5V48
		C10.4,48.9,11.1,49.5,11.9,49.5z M13.4,37.4h14.1v9.1H13.4V37.4z"/>
	<path class="st0" d="M35,49.5h17.1c0.8,0,1.5-0.7,1.5-1.5V35.9c0-0.8-0.7-1.5-1.5-1.5H35c-0.8,0-1.5,0.7-1.5,1.5V48
		C33.5,48.9,34.2,49.5,35,49.5z M36.5,37.4h14.1v9.1H36.5V37.4z"/>
</g>
</svg>
