<svg version="1.1" id="Layer_1" xmlns="http://www.w3.org/2000/svg" xmlns:xlink="http://www.w3.org/1999/xlink" x="0px" y="0px"
	 viewBox="0 0 24 24" style="enable-background:new 0 0 24 24;" xml:space="preserve">
<style type="text/css">
	.st0{fill-rule:evenodd;clip-rule:evenodd;}
</style>
<path class="st0" d="M12.2,10.3v4h6.6c-0.3,1.7-2,5.1-6.6,5.1c-4,0-7.3-3.3-7.3-7.4c0-4.1,3.3-7.4,7.3-7.4c2.3,0,3.8,1,4.7,1.8
	l3.2-3.1c-2-1.9-4.7-3.1-7.9-3.1C5.8,0.3,0.5,5.5,0.5,12s5.2,11.7,11.7,11.7c6.8,0,11.3-4.8,11.3-11.5c0-0.8-0.1-1.4-0.2-1.9
	L12.2,10.3L12.2,10.3L12.2,10.3z"/>
</svg>
