<svg version="1.2" baseProfile="tiny" id="Layer_1" xmlns="http://www.w3.org/2000/svg" xmlns:xlink="http://www.w3.org/1999/xlink"
	 x="0px" y="0px" viewBox="0 0 24 24" xml:space="preserve">
<g>
	<path d="M4.5,6.9C6,6.9,7.2,6,7.2,4.7C7.1,3.4,6,2.5,4.5,2.5C3,2.5,1.9,3.5,1.9,4.7C1.9,6,3,6.9,4.5,6.9z"/>
	<path d="M17.2,7.8c-1.5,0-2.7,0.6-3.4,1.1V8.3c0-0.2-0.2-0.4-0.4-0.4H8.9C8.7,7.8,8.5,8,8.5,8.3V21c0,0.2,0.2,0.4,0.4,0.4h4
		c0.2,0,0.4-0.2,0.4-0.4v-6.8c0-1,0.8-1.9,1.8-2c0.1,0,0.1,0,0.2,0c0.1,0,0.1,0,0.2,0c1,0.1,1.8,0.9,1.8,2V21c0,0.2,0.2,0.4,0.4,0.4
		h4c0.2,0,0.4-0.2,0.4-0.4v-7.5C22.1,10.7,20.6,7.8,17.2,7.8z"/>
	<path d="M6.7,7.8H2.3C2.1,7.8,1.9,8,1.9,8.3V21c0,0.2,0.2,0.4,0.4,0.4h4.4c0.2,0,0.4-0.2,0.4-0.4V8.3C7.2,8,7,7.8,6.7,7.8z"/>
</g>
</svg>
