<svg version="1.2" baseProfile="tiny" id="Layer_1" xmlns="http://www.w3.org/2000/svg" xmlns:xlink="http://www.w3.org/1999/xlink"
	 x="0px" y="0px" viewBox="0 0 24 24" overflow="visible" xml:space="preserve">
<g>
	<path d="M23.8,10.4c0-5.3-5.3-9.6-11.8-9.6c-6.5,0-11.8,4.3-11.8,9.6c0,4.7,4.2,8.7,9.9,9.5c0.4,0.1,0.9,0.3,1,0.6
		c0.1,0.3,0.1,0.8,0,1.1c0,0-0.1,0.8-0.2,1c-0.1,0.3-0.2,1.2,1,0.6c1.3-0.5,6.8-4,9.3-6.9h0C23,14.4,23.8,12.5,23.8,10.4z M7.8,13.2
		c0,0.1-0.1,0.2-0.2,0.2H4.2h0c-0.1,0-0.1,0-0.2-0.1c0,0,0,0,0,0c0,0,0,0,0,0c0,0-0.1-0.1-0.1-0.2v0V8c0-0.1,0.1-0.2,0.2-0.2h0.8
		c0.1,0,0.2,0.1,0.2,0.2v4.1h2.3c0.1,0,0.2,0.1,0.2,0.2V13.2z M9.8,13.2c0,0.1-0.1,0.2-0.2,0.2H8.7c-0.1,0-0.2-0.1-0.2-0.2V8
		c0-0.1,0.1-0.2,0.2-0.2h0.8c0.1,0,0.2,0.1,0.2,0.2V13.2z M15.5,13.2c0,0.1-0.1,0.2-0.2,0.2h-0.8c0,0,0,0-0.1,0c0,0,0,0,0,0
		c0,0,0,0,0,0c0,0,0,0,0,0c0,0,0,0,0,0c0,0,0,0,0,0c0,0,0,0,0,0c0,0,0,0,0,0c0,0,0,0,0,0c0,0,0,0-0.1-0.1l-2.4-3.2v3.1
		c0,0.1-0.1,0.2-0.2,0.2h-0.8c-0.1,0-0.2-0.1-0.2-0.2V8c0-0.1,0.1-0.2,0.2-0.2h0.8c0,0,0,0,0,0c0,0,0,0,0,0c0,0,0,0,0,0c0,0,0,0,0,0
		c0,0,0,0,0,0c0,0,0,0,0,0c0,0,0,0,0,0c0,0,0,0,0,0c0,0,0,0,0,0c0,0,0,0,0,0c0,0,0,0,0,0c0,0,0,0,0,0c0,0,0,0,0,0c0,0,0,0,0,0
		c0,0,0,0,0,0c0,0,0,0,0,0c0,0,0,0,0,0l0,0c0,0,0,0,0,0l2.4,3.2V8c0-0.1,0.1-0.2,0.2-0.2h0.8c0.1,0,0.2,0.1,0.2,0.2V13.2z M20.1,8.9
		c0,0.1-0.1,0.2-0.2,0.2h-2.3V10h2.3c0.1,0,0.2,0.1,0.2,0.2V11c0,0.1-0.1,0.2-0.2,0.2h-2.3v0.9h2.3c0.1,0,0.2,0.1,0.2,0.2v0.8
		c0,0.1-0.1,0.2-0.2,0.2h-3.3h0c-0.1,0-0.1,0-0.2-0.1c0,0,0,0,0,0c0,0,0,0,0,0c0,0-0.1-0.1-0.1-0.2v0V8v0c0-0.1,0-0.1,0.1-0.2
		c0,0,0,0,0,0c0,0,0,0,0,0c0,0,0.1-0.1,0.2-0.1h0h3.3c0.1,0,0.2,0.1,0.2,0.2V8.9z"/>
</g>
</svg>
