<svg version="1.2" baseProfile="tiny" id="Layer_1" xmlns="http://www.w3.org/2000/svg" xmlns:xlink="http://www.w3.org/1999/xlink"
	 x="0px" y="0px" viewBox="0 0 24 24" xml:space="preserve">
<path d="M12.4,0.7C6.7,0.7,3,4.8,3,8.7c0,3.8,2.1,4.7,2.6,5C6,14,6.3,13.8,6.4,13.4l0.3-1.1c0,0,0.1-0.3-0.1-0.6c-0.3-0.4-1-1-1-2.7
	c0-3,2.3-6.2,6.6-6.2c4.2,0,5.6,2.7,5.6,5c0,2.8-1.3,7-4.2,7c-1.8,0-2.3-1.4-2.3-2c0-0.2,0-0.5,0.1-0.6c0-0.1,0.7-2.4,1-3.2
	c0.5-1.8,0.1-3.3-1.6-3.3c-2.3,0-3.2,3.3-2.2,5.4L6.9,18c0,0-0.2,1.1-0.3,1.8c-0.1,1,0.1,2.5,0.1,3c0,0.3,0,0.5,0.2,0.5
	c0.1,0,0.4-0.2,0.6-0.5c0.3-0.4,1.1-1.6,1.5-2.4c0.3-0.7,0.4-0.7,0.7-2c0.3-1.2,0.8-3,0.8-3s0.9,1.6,3.4,1.6c3.5,0,7.1-3.1,7.1-8.8
	C21,3.6,17,0.7,12.4,0.7z"/>
</svg>
