<?xml version="1.0" encoding="utf-8"?>
<!-- Generator: Adobe Illustrator 27.4.0, SVG Export Plug-In . SVG Version: 6.00 Build 0)  -->
<svg version="1.1" id="Layer_1" xmlns="http://www.w3.org/2000/svg" xmlns:xlink="http://www.w3.org/1999/xlink" x="0px" y="0px"
	 viewBox="0 0 24 24" style="enable-background:new 0 0 24 24;" xml:space="preserve">
<path d="M13.5,19.6c-0.8,0.2-1.6,0.3-2.4,0.3c-4.7,0-9.3-3.8-9.3-9.2c0-5.5,4.6-9.3,9.3-9.3c4.8,0,9.4,3.7,9.4,9.3
	c0,2.8-1.3,5.5-3.5,7.2c0.6,1,1.4,1.7,2.3,1.7c1.1,0,1.5-0.8,1.6-1.5h1.4v0.5c-0.1,1.3-0.9,3.9-4.2,3.9
	C15.7,22.6,14.5,21.2,13.5,19.6L13.5,19.6L13.5,19.6z M12.7,17.9c-0.7-1.4-1.6-2.9-3.3-2.9c-0.3,0-0.7,0-1,0.2l-0.6-1.1
	c0.7-0.6,1.8-1.1,3.2-1.1c2.2,0,3.4,1.1,4.3,2.5c0.5-1.2,0.8-2.8,0.8-4.7c0-4.9-1.5-7.4-5.1-7.4C7.5,3.3,6,5.8,6,10.7
	s1.5,7.4,5.1,7.4C11.6,18.1,12.1,18.1,12.7,17.9L12.7,17.9L12.7,17.9z"/>
</svg>
