<svg version="1.2" baseProfile="tiny" id="Layer_1" xmlns="http://www.w3.org/2000/svg" xmlns:xlink="http://www.w3.org/1999/xlink"
	 x="0px" y="0px" viewBox="0 0 24 24" overflow="visible" xml:space="preserve">

<path d="M22.9,16c-0.2-0.1-0.4-0.2-0.7-0.2c-0.9-0.3-2.1-0.7-2.8-2.7l0.9-0.4c1-0.4,1.5-1.4,1.3-2.4c-0.1-0.4-0.3-0.8-0.7-1.1
	c-0.5-0.4-1.1-0.5-1.6-0.4l-0.2,0c0-0.4,0-0.8,0-1.1c0-0.9-0.2-1.9-0.6-2.7c-0.4-0.8-0.9-1.6-1.5-2.2c-0.7-0.7-1.4-1.2-2.2-1.5
	c-1.7-0.7-3.7-0.8-5.5,0C8.6,1.6,7.8,2.1,7.2,2.8C6.5,3.4,6,4.2,5.6,5C5.3,5.9,5.1,6.8,5.1,7.7c0,0.4,0,0.8,0,1.1l-0.2,0
	c-0.1,0-0.3-0.1-0.4-0.1c0,0,0,0,0,0C4,8.8,3.6,8.9,3.2,9.2c-0.4,0.3-0.6,0.7-0.7,1.1c-0.2,1,0.3,2.1,1.3,2.4l1,0.4
	c-0.7,2-1.9,2.4-2.8,2.7c-0.2,0.1-0.4,0.1-0.7,0.2c-0.9,0.4-0.9,1.1-0.9,1.4c0,0.6,0.3,1.1,0.7,1.4C1.4,19,1.7,19.2,2,19.3
	c0.4,0.1,0.9,0.2,1.3,0.3c0,0.2,0.1,0.3,0.1,0.4c0.2,0.8,0.7,1.1,1.1,1.3c0.3,0.1,0.7,0.2,0.9,0.2c0.2,0,0.4,0,0.7,0l0,0
	c0.2,0,0.5,0,0.8,0c0.4,0,0.7,0,0.9,0.1c0.3,0.1,0.6,0.3,0.9,0.5c1,0.6,2,1.2,3.4,1.2s2.5-0.6,3.4-1.2c0.3-0.2,0.6-0.4,0.9-0.5
	c0.2-0.1,0.5-0.1,0.9-0.1c0.3,0,0.6,0,0.8,0l0,0c0.2,0,0.4,0,0.7,0c0.2,0,0.6,0,0.9-0.2c0.4-0.2,0.9-0.5,1.1-1.3
	c0-0.1,0.1-0.3,0.1-0.4c0.4-0.1,0.9-0.2,1.3-0.3c0.4-0.1,0.6-0.3,0.9-0.4c0.5-0.4,0.7-0.9,0.7-1.4C23.9,17.2,23.8,16.4,22.9,16z
	 M6.4,13c0.1-0.5-0.1-0.9-0.6-1.1l-1.5-0.6C4.1,11.2,4,10.9,4,10.6c0-0.2,0.3-0.3,0.5-0.3l1,0.2c0.1,0,0.1,0,0.2,0
	c0.4,0,0.8-0.4,0.9-0.8c0-0.6,0.1-1.3,0.1-2c0-3.1,2.5-5.5,5.5-5.6c3,0,5.5,2.5,5.5,5.6c0,0.7,0,1.4,0.1,2c0,0.5,0.4,0.8,0.9,0.8
	c0.1,0,0.1,0,0.2,0l1-0.2c0.2,0,0.4,0.1,0.5,0.3c0.1,0.3-0.1,0.6-0.4,0.7l-1.5,0.6c-0.4,0.2-0.7,0.7-0.6,1.1c0.9,3.3,3,3.9,4,4.2
	c0.2,0.1,0.5,0.2,0.5,0.2c0,0.4-1.2,0.6-1.8,0.7c-0.5,0.1-0.8,0.2-0.9,0.3c-0.1,0.1-0.1,0.4-0.2,0.7c0,0.3-0.1,0.7-0.3,0.8
	c-0.1,0.1-0.5,0-0.9,0c-0.3,0-0.6,0-0.9,0c-0.6,0-1.1,0.1-1.5,0.3c-0.4,0.2-0.7,0.4-1.1,0.6c-0.8,0.5-1.7,1-2.6,1
	c-1,0-1.8-0.5-2.6-1c-0.4-0.2-0.7-0.4-1.1-0.6c-0.4-0.2-0.9-0.3-1.5-0.3c-0.3,0-0.6,0-0.9,0c-0.4,0-0.8,0-0.9,0
	c-0.2-0.1-0.3-0.5-0.3-0.8c0-0.3,0-0.5-0.2-0.7c-0.1-0.1-0.4-0.2-0.9-0.3C3.1,18,2,17.8,2,17.5c0-0.1,0.3-0.1,0.5-0.2
	C3.5,16.9,5.6,16.3,6.4,13z"/>
</svg>
