<svg version="1.2" baseProfile="tiny" id="Layer_1" xmlns="http://www.w3.org/2000/svg" xmlns:xlink="http://www.w3.org/1999/xlink"
	 x="0px" y="0px" viewBox="0 0 24 24" xml:space="preserve">
<path d="M21.3,13.3c0.1-0.4,0.1-0.8,0.1-1.3c0-5.2-4.2-9.4-9.4-9.4c-0.4,0-0.9,0-1.3,0.1C9.8,2,8.6,1.6,7.3,1.6
	c-3.2,0-5.7,2.6-5.7,5.7c0,1.3,0.4,2.5,1.1,3.4c-0.1,0.4-0.1,0.8-0.1,1.3c0,5.2,4.2,9.4,9.4,9.4c0.4,0,0.9,0,1.3-0.1
	c1,0.7,2.1,1.1,3.4,1.1c3.2,0,5.7-2.6,5.7-5.7C22.4,15.4,22,14.2,21.3,13.3z M12,17.2c-2.9,0-4.6-1.5-4.6-3c0-0.8,0.8-1,1.1-1
	c0.7,0,1,0.6,1.1,0.9c0.7,1.5,1.5,1.3,2.2,1.4c0.6,0.1,2.1-0.2,2.1-1.3c0-0.1,0.2-0.8-1.1-1.1c-0.8-0.2-2.2-0.5-3.4-0.9
	c-1.1-0.4-1.8-1.3-1.8-2.4c0-0.6,0.3-2.9,4.2-2.9c2.6,0,4,1.3,4,2.5c0,0.3-0.1,0.5-0.3,0.7c-0.2,0.2-0.8,0.5-1.4,0.1
	c-0.2-0.1-0.3-0.3-0.5-0.6c-0.2-0.4-0.5-1-2-1c-1.4,0-1.8,0.7-1.8,0.9c0,0.9,1.8,1.1,2.3,1.3c1.8,0.5,4.1,0.9,4.1,3.2
	C16.3,16.7,13.5,17.2,12,17.2z"/>
</svg>
