<svg version="1.1" id="Layer_1" xmlns="http://www.w3.org/2000/svg" xmlns:xlink="http://www.w3.org/1999/xlink" x="0px" y="0px"
	 viewBox="0 0 24 24" style="enable-background:new 0 0 24 24;" xml:space="preserve">
<style type="text/css">
	.st0{fill-rule:evenodd;clip-rule:evenodd;}
</style>
<g>
	<path class="st0" d="M18.8,10.7C15.1,8.5,9,8.3,5.4,9.4C4.8,9.5,4.2,9.2,4.1,8.6C3.9,8.1,4.2,7.5,4.8,7.3c4.1-1.2,10.9-1,15.2,1.5
		c0.5,0.3,0.7,1,0.4,1.5S19.3,11,18.8,10.7z M18.7,14c-0.3,0.4-0.8,0.6-1.2,0.3c-3.1-1.9-7.8-2.5-11.5-1.3c-0.5,0.1-1-0.1-1.1-0.6
		c-0.1-0.5,0.1-1,0.6-1.1c4.2-1.3,9.4-0.7,13,1.5C18.8,13,19,13.5,18.7,14z M17.3,17.1c-0.2,0.3-0.7,0.4-1,0.2
		c-2.7-1.7-6.1-2-10.2-1.1c-0.4,0.1-0.8-0.2-0.9-0.5c-0.1-0.4,0.2-0.8,0.5-0.9c4.4-1,8.2-0.6,11.2,1.3
		C17.4,16.3,17.5,16.8,17.3,17.1z M12,0.4C5.6,0.4,0.4,5.6,0.4,12c0,6.4,5.2,11.6,11.6,11.6c6.4,0,11.6-5.2,11.6-11.6
		C23.6,5.6,18.4,0.4,12,0.4z"/>
</g>
</svg>
