<svg version="1.2" baseProfile="tiny" id="Layer_1" xmlns="http://www.w3.org/2000/svg" xmlns:xlink="http://www.w3.org/1999/xlink"
	 x="0px" y="0px" viewBox="0 0 24 24" overflow="visible" xml:space="preserve">
<g>
	<path d="M0.2,16.2c0,0.3,0.1,0.5,0.3,0.7C0.8,17,1,17,1.2,17s0.4-0.1,0.5-0.2s0.1-0.3,0.1-0.6V13c0-0.2-0.1-0.4-0.2-0.6
		c-0.2-0.2-0.3-0.2-0.6-0.2c-0.2,0-0.4,0.1-0.6,0.2c-0.2,0.2-0.2,0.3-0.2,0.6C0.2,13,0.2,16.2,0.2,16.2z M2.8,17.5
		c0,0.2,0.1,0.4,0.2,0.5c0.1,0.1,0.3,0.2,0.6,0.2c0.2,0,0.4-0.1,0.6-0.2c0.1-0.1,0.2-0.3,0.2-0.5v-7.4c0-0.2-0.1-0.4-0.2-0.6
		C4,9.4,3.8,9.3,3.6,9.3C3.3,9.3,3.1,9.4,3,9.6c-0.2,0.2-0.2,0.3-0.2,0.6V17.5z M5.3,17.9c0,0.2,0.1,0.4,0.2,0.5
		c0.2,0.1,0.4,0.2,0.6,0.2s0.4-0.1,0.6-0.2c0.1-0.1,0.2-0.3,0.2-0.5v-6.8c0-0.2-0.1-0.4-0.2-0.6c-0.2-0.2-0.3-0.2-0.6-0.2
		c-0.2,0-0.4,0.1-0.6,0.2c-0.2,0.2-0.2,0.4-0.2,0.6V17.9L5.3,17.9z M7.8,17.9c0,0.4,0.3,0.6,0.8,0.6s0.8-0.2,0.8-0.6V7
		c0-0.6-0.2-1-0.6-1C8.6,5.9,8.3,6,8.1,6.2C7.9,6.3,7.8,6.6,7.8,7V17.9L7.8,17.9z M10.3,18.2V6.3c0-0.4,0.1-0.6,0.3-0.7
		c0.5-0.1,1-0.2,1.5-0.2c1.1,0,2.2,0.3,3.1,0.8c1,0.5,1.7,1.2,2.3,2.2c0.6,0.9,0.9,1.9,1,3c0.4-0.2,0.9-0.3,1.4-0.3
		c1,0,1.9,0.4,2.6,1.1c0.7,0.7,1.1,1.6,1.1,2.6s-0.4,1.9-1.1,2.6s-1.6,1.1-2.6,1.1h-9.5c-0.1,0-0.1-0.1-0.1-0.1
		C10.4,18.3,10.3,18.3,10.3,18.2L10.3,18.2z"/>
</g>
</svg>
