<svg version="1.2" baseProfile="tiny" id="Layer_1" xmlns="http://www.w3.org/2000/svg" xmlns:xlink="http://www.w3.org/1999/xlink"
	 x="0px" y="0px" viewBox="0 0 24 24" xml:space="preserve">
<path d="M19.2,18.8C19.1,18.8,19.1,18.8,19.2,18.8c-0.8,0.3-2.4,0.9-3.7,0.9c-0.7,0-1.3-0.2-1.7-0.6
	c-0.6-0.6-0.7-1.5-0.7-1.8V10h4.8c0.1,0,0.2-0.1,0.2-0.2V6.1c0-0.1-0.1-0.2-0.2-0.2h-4.8V0.5c0,0,0-0.1,0-0.1s-0.1,0-0.1,0
	c-0.7,0-2.4,0-3.1,0c-0.1,0-0.1,0.1-0.1,0.2C9.5,3.4,7.9,5.6,4.8,7.1c-0.1,0-0.1,0.1-0.1,0.1v2.6c0,0.1,0.1,0.2,0.2,0.2h3v7.4
	c0,1.2,0.2,2.5,0.6,3.4c0.8,1.9,2.3,2.9,4.4,2.9c3.7,0,5.8-1.2,6.4-1.6c0,0,0.1-0.1,0.1-0.1v-3C19.3,18.8,19.2,18.8,19.2,18.8z"/>
</svg>
