<svg version="1.1" id="Layer_1" xmlns="http://www.w3.org/2000/svg" xmlns:xlink="http://www.w3.org/1999/xlink" x="0px" y="0px"
	 viewBox="0 0 24 24" style="enable-background:new 0 0 24 24;" xml:space="preserve">
<g>
	<path d="M17.9,10.1c-1.4,0-2.5,1.1-2.5,2.5s1.1,2.5,2.5,2.5c1.4,0,2.5-1.1,2.5-2.5S19.3,10.1,17.9,10.1z M17.9,13.4
		c-0.4,0-0.8-0.3-0.8-0.8s0.3-0.8,0.8-0.8c0.4,0,0.8,0.3,0.8,0.8S18.3,13.4,17.9,13.4z"/>
	<path d="M6.1,10.1c-1.4,0-2.5,1.1-2.5,2.5s1.1,2.5,2.5,2.5c1.4,0,2.5-1.1,2.5-2.5S7.5,10.1,6.1,10.1z M6.1,13.4
		c-0.4,0-0.8-0.3-0.8-0.8s0.3-0.8,0.8-0.8c0.4,0,0.8,0.3,0.8,0.8S6.5,13.4,6.1,13.4z"/>
	<path d="M23.8,6.7h-3.3c-2.3-1.6-5.2-2.4-8.5-2.4S5.8,5.1,3.5,6.7H0.2c0.5,0.5,1,1.6,1.2,2.4c-0.8,1-1.2,2.2-1.2,3.5
		c0,3.3,2.7,5.9,5.9,5.9c1.5,0,3-0.6,4-1.6l1.9,2.8l1.9-2.8c1.1,1,2.5,1.6,4,1.6c3.3,0,5.9-2.7,5.9-5.9c0-1.3-0.4-2.5-1.2-3.5
		C22.8,8.3,23.3,7.2,23.8,6.7L23.8,6.7z M6.1,16.6c-2.2,0-4-1.8-4-4s1.8-4,4-4c2.2,0,4,1.8,4,4S8.3,16.6,6.1,16.6z M12,12.6L12,12.6
		c0-2.8-2-5.2-4.7-5.8c1.4-0.5,3-0.7,4.7-0.7s3.3,0.2,4.7,0.7C14,7.4,12,9.8,12,12.6z M17.9,16.6c-2.2,0-4-1.8-4-4s1.8-4,4-4
		c2.2,0,4,1.8,4,4S20.1,16.6,17.9,16.6z"/>
</g>
</svg>
