<svg version="1.2" baseProfile="tiny" id="Layer_1" xmlns="http://www.w3.org/2000/svg" xmlns:xlink="http://www.w3.org/1999/xlink"
	 x="0px" y="0px" viewBox="0 0 24 24" overflow="visible" xml:space="preserve">
<path d="M12.5,0.4c1.3,0,2.5,0,3.8,0c0.1,1.5,0.6,3,1.7,4c1.1,1.1,2.6,1.6,4.1,1.7V10c-1.4,0-2.8-0.3-4.1-0.9
	c-0.6-0.3-1.1-0.6-1.6-0.9c0,2.8,0,5.7,0,8.5c-0.1,1.4-0.5,2.7-1.3,3.8c-1.3,1.9-3.5,3.1-5.7,3.1c-1.4,0.1-2.8-0.3-4-1
	c-2-1.2-3.3-3.3-3.5-5.5c0-0.5,0-1,0-1.4C2.1,13.8,3,12,4.4,10.8c1.6-1.4,3.9-2.1,6-1.7c0,1.4,0,2.9,0,4.3c-1-0.3-2.1-0.2-2.9,0.4
	c-0.6,0.4-1.1,1-1.3,1.7c-0.2,0.5-0.1,1-0.1,1.6c0.2,1.6,1.8,2.9,3.4,2.8c1.1,0,2.1-0.6,2.7-1.6c0.2-0.3,0.4-0.7,0.4-1
	c0.1-1.7,0.1-3.5,0.1-5.2C12.5,8.2,12.5,4.3,12.5,0.4L12.5,0.4z"/>
</svg>
