<svg version="1.2" baseProfile="tiny" id="Layer_1" xmlns="http://www.w3.org/2000/svg" xmlns:xlink="http://www.w3.org/1999/xlink"
	 x="0px" y="0px" viewBox="0 0 24 24" xml:space="preserve">
<path d="M20.2,1.8c-3.5,0-5.4,1.9-6.5,5.7C14.2,7.3,14.8,7,15.4,7c1.2,0,1.6,0.4,1.4,1.8c-0.1,0.8-0.4,2.2-1.4,3.8
	c-1,1.5-1.9,2-2.4,2c-0.6,0-1.1-0.9-1.6-3.3c-0.2-0.7-0.6-2.2-1-5.1C10,3.6,8.7,2.2,6.9,2.4C6.1,2.4,5.2,3.1,3.6,4.5
	c-1.1,1-2.2,1.7-3.3,2.8l1.1,1.4c1.1-0.7,1.7-1,1.8-1c0.8,0,1.5,1.2,2.2,3.8c0.6,2.3,1.3,4.6,1.9,6.9c0.9,2.5,2.1,3.8,3.5,3.8
	c2.2,0,4.9-2,8.1-6.2c3.1-3.9,4.7-7.2,4.8-9.5C23.8,3.4,22.6,1.9,20.2,1.8z"/>
</svg>
