<svg version="1.2" baseProfile="tiny" id="Layer_1" xmlns="http://www.w3.org/2000/svg" xmlns:xlink="http://www.w3.org/1999/xlink"
	 x="0px" y="0px" viewBox="0 0 24 24" overflow="visible" xml:space="preserve">
<g>
	<path d="M0.9,23.1l1.6-5.7c-1-1.7-1.5-3.6-1.5-5.5c0-6.1,5-11,11-11c3,0,5.7,1.2,7.8,3.2c2.1,2.1,3.2,4.9,3.2,7.8c0,6.1-5,11-11,11
		c-1.8,0-3.7-0.5-5.3-1.3C6.8,21.6,0.9,23.1,0.9,23.1z M7,19.6c1.6,0.9,3,1.5,5,1.5c5.1,0,9.2-4.1,9.2-9.2c0-5.1-4.1-9.2-9.2-9.2
		c-5.1,0-9.2,4.1-9.2,9.2c0,2.1,0.6,3.6,1.6,5.2l-0.9,3.4C3.6,20.5,7,19.6,7,19.6z M17.6,14.5c-0.1-0.1-0.3-0.2-0.5-0.3
		c-0.3-0.1-1.6-0.8-1.9-0.9c-0.3-0.1-0.4-0.1-0.6,0.1c-0.2,0.3-0.7,0.9-0.9,1.1c-0.2,0.2-0.3,0.2-0.6,0.1c-0.3-0.1-1.2-0.4-2.2-1.4
		c-0.8-0.7-1.4-1.6-1.5-1.9c-0.2-0.3,0-0.4,0.1-0.6c0.1-0.1,0.3-0.3,0.4-0.5c0.1-0.2,0.2-0.3,0.3-0.5c0.1-0.2,0-0.3,0-0.5
		c-0.1-0.1-0.6-1.5-0.9-2C9.1,6.7,8.8,6.8,8.7,6.8l-0.5,0C8,6.8,7.7,6.9,7.4,7.1s-1,0.9-1,2.3s1,2.7,1.1,2.9c0.1,0.2,1.9,3,4.7,4.2
		c0.7,0.3,1.2,0.5,1.6,0.6c0.7,0.2,1.3,0.2,1.7,0.1c0.5-0.1,1.6-0.7,1.9-1.3C17.7,15.2,17.7,14.6,17.6,14.5z"/>
</g>
</svg>
