<svg version="1.2" baseProfile="tiny" id="Layer_1" xmlns="http://www.w3.org/2000/svg" xmlns:xlink="http://www.w3.org/1999/xlink"
	 x="0px" y="0px" viewBox="0 0 24 24" overflow="visible" xml:space="preserve">
<g>
	<path d="M8.2,5.6C7.9,5.1,7.6,4.9,7.2,4.9H3.9C3.7,4.9,3.5,5,3.4,5.1c-0.1,0.1-0.1,0.3,0,0.5l2.3,3.9c0,0,0,0,0,0l-3.6,6.3
		c-0.1,0.2-0.1,0.3,0,0.5c0.1,0.2,0.2,0.2,0.4,0.2h3.4c0.4,0,0.7-0.2,0.9-0.6c2.3-4.1,3.5-6.3,3.6-6.4L8.2,5.6z"/>
	<path d="M21.9,1.1c0.1-0.2,0.1-0.4,0-0.5c-0.1-0.1-0.2-0.2-0.4-0.2H18c-0.4,0-0.7,0.2-0.9,0.6c-4.8,8.6-7.3,13-7.5,13.3l4.8,8.8
		c0.2,0.4,0.5,0.6,0.9,0.6h3.4c0.2,0,0.4-0.1,0.5-0.2c0.1-0.2,0.1-0.3,0-0.5l-4.7-8.7v0L21.9,1.1z"/>
</g>
</svg>