<svg version="1.2" baseProfile="tiny" id="Layer_1" xmlns="http://www.w3.org/2000/svg" xmlns:xlink="http://www.w3.org/1999/xlink"
	 x="0px" y="0px" viewBox="0 0 24 24" xml:space="preserve">
<path d="M23,6.3c-0.2-1.2-1.2-2.1-2.4-2.3c-1.8-0.4-5.1-0.7-8.7-0.7C8.3,3.3,5,3.6,3.2,4C2,4.2,1,5.1,0.7,6.3
	C0.5,7.7,0.3,9.6,0.3,12c0,2.4,0.2,4.3,0.5,5.7C1,18.9,2,19.8,3.2,20c1.9,0.4,5.2,0.7,8.7,0.7s6.8-0.3,8.7-0.7
	c1.2-0.3,2.2-1.1,2.4-2.3c0.2-1.4,0.5-3.3,0.5-5.7C23.6,9.6,23.3,7.7,23,6.3z M9,15.8V8.2l6.6,3.8L9,15.8z"/>
</svg>
