<?xml version="1.0" encoding="utf-8"?>
<svg version="1.1" id="Layer_1" xmlns="http://www.w3.org/2000/svg" xmlns:xlink="http://www.w3.org/1999/xlink" x="0px" y="0px"
	 viewBox="0 0 1100 1100" style="enable-background:new 0 0 1100 1100;" xml:space="preserve">
<style type="text/css">.st0{fill:#E4E6E7;}.st2{fill:#CACDCF;}</style>
<g>
	  <g class="st0">
			<path d="M43.8,341.7c7.5,3.4,15,7.8,23.7,7.1c-1.6-0.8-3.3-1.5-4.9-2.3c-4.5-2-8.4-6-11.6-10
				c-5.4-6.7-3.6-15.2,4.3-18.7c6.2-2.8,13.2-4.7,20-5.6c13-1.7,23.1-8.1,25.6-20.1c0.9-4.5,1.4-10.3-0.6-13.9
				c-6-10.6-6.8-22.1-7-33.4c-0.4-22.1-4.5-43.5-8.6-65c-1.2-6.1-1-12.6-0.5-18.9c0.9-11.4,11.7-16.7,24.5-18.5
				c4.6-0.6,9.3-0.9,13.9-1.1c3.8-0.1,4.4-1.8,3.3-5c-0.9-2.6-1.7-5.3-2.6-7.9c-1.9-5.6-0.6-9,5.4-10.5c6.8-1.6,13.9-2.7,20.9-3.3
				c15.3-1.3,28.7-7.5,42-14.5c11.3-6,22.7-11.8,34.5-16.6c10.9-4.4,22.1-8.3,33.6-10.7c7-1.5,14.8-0.5,22.1,0.6
				c1.4,0.2,3,1.2,4.4,2.6c-1.8-5.2-3.6-10.4-5.6-15.4c-1.2-3-4.7-6.7-7.6-7.1c-7.6-1.2-15.7-2.2-23.1-0.6c-12,2.6-23.7,6.6-35.1,11.3
				c-12.3,5.1-24.3,11.2-36.1,17.5c-13.9,7.4-27.9,14-43.9,15.4c-7.3,0.6-14.7,1.7-21.8,3.5c-6.2,1.5-7.6,5.1-5.6,11
				c0.9,2.8,1.8,5.6,2.7,8.4c1.2,3.4,0.5,5.2-3.5,5.3c-4.9,0.1-9.7,0.5-14.5,1.1c-13.4,1.9-24.7,7.5-25.6,19.5
				c-0.5,6.6-0.7,13.5,0.5,19.9c4.3,22.7,8.6,45.3,9,68.6c0.2,12,1,24.1,7.3,35.3c2.2,3.8,1.6,10,0.7,14.7
				c-2.6,12.7-13.2,19.4-26.8,21.2c-7.1,0.9-14.4,2.9-20.9,5.9c-8.2,3.8-10.1,12.7-4.5,19.8C35,335.3,39.1,339.5,43.8,341.7z"/>
			<path d="M267.4,136.5c-4.9,1.5-10.4,1.4-15.6,1.1c0,3.5,1.1,7.4,3.4,11.5c1.1,2,4.1,3.9,6.4,4.1c5,0.3,10.3,0.4,14.9-1
				c9.2-2.8,19.6-2.7,27.4-9.6c1.2-1.1,2.9-2,4.4-2.2c16.4-1.7,32.8-4.1,49.2-4.3c9.5-0.1,16.2-2.6,21.8-9.8
				c7.1-9.1,16.1-16.2,26.6-20.5c11.5-4.6,23.7-6.7,34.8,2.1c2.9,2.3,5.9,5,9.4,5.9c3.9,1,8.7,1.6,12.2,0.1
				c14.9-6.3,28.8-15,44.9-18.7c13.6-3.2,27.1-7.3,40.5-11.5c16.2-5.1,32.1-10.9,48.2-16.3c6.7-2.2,13.4-4.2,20.2-6
				c0.3-0.1,0.7-0.1,1-0.1c-1.1-2.6,0-5.4,3-8.5c2.1-2.1,4.3-4,6-6.4c0.9-1.2,1.2-3.6,0.6-4.8c-0.5-0.9-3.1-1.2-4.5-0.9
				c-7.1,1.9-14.1,4-21.1,6.4c-16.8,5.7-33.5,11.8-50.4,17.2c-14,4.5-28,8.8-42.3,12.1c-16.8,3.9-31.3,13.1-46.9,19.7
				c-3.6,1.5-8.7,1-12.8-0.1c-3.6-1-6.8-3.8-9.8-6.2c-11.6-9.3-24.3-7.1-36.4-2.3c-11,4.4-20.4,12-27.8,21.6
				c-5.8,7.6-12.9,10.3-22.8,10.4c-17.2,0.2-34.3,2.8-51.4,4.5c-1.6,0.2-3.4,1.2-4.6,2.3C287.9,133.7,277.1,133.6,267.4,136.5z"/>
			<path d="M620.6,65.1c-0.1,0.7-0.4,1.3-0.7,1.7c-1.6,2.2-3.8,4.1-5.7,6c-4.7,4.7-4.4,8.7,1.2,12.2
				c12.3,7.5,26.1,10.2,39.9,12.6c5.7,1,11.4,1.6,17.1,2.2c3.6,0.4,4.3,2.6,2.6,4.9c-5.6,7.9-4.9,16.5-3.7,25.2
				c0.2,1.7,0.3,3.2,0.2,4.7c6.3-5.4,9.7-12.2,8.4-21.5c-1.3-9.2-2-18.3,3.8-26.6c1.8-2.5,1-4.8-2.7-5.2c-6-0.6-12-1.3-17.9-2.4
				c-14.5-2.6-28.9-5.4-41.7-13.3C621.2,65.5,620.9,65.3,620.6,65.1z"/>
			<path d="M29,535.1c-0.6-8.9,4.6-15,9.8-21.1c2.9-3.4,6.1-6.5,9.2-9.6c7.3-7.3,9.3-16.6,10.3-26.4
				c0.8-7.8,2.7-14.6,9.4-19.8c11.1-8.7,22.3-17.3,32.4-27.1c8.5-8.2,15.7-17.7,22.8-27.2c10-13.4,22.3-23.4,38.4-28.6
				c13.4-4.4,26-10.7,36.9-19.9c4.5-3.8,7.3-8.5,6.6-14.6c-0.2-1.8-1.5-4.3-2.9-4.8c-3.3-1.2-6.9-2.6-10.3-2.9
				c0.4,0.9,0.7,1.8,0.8,2.6c0.8,6.4-2.2,11.4-6.9,15.4c-11.4,9.7-24.5,16.4-38.5,21c-16.8,5.6-29.6,16-40.1,30.2
				c-7.4,10-15,20-23.9,28.7c-10.5,10.3-22.2,19.4-33.8,28.6c-7,5.5-9,12.8-9.8,20.9c-1,10.3-3.1,20.1-10.8,27.8
				c-3.3,3.3-6.7,6.6-9.7,10.1c-5.4,6.4-10.9,12.9-10.3,22.3c0.5,7.2,4.9,9.5,11.5,6.8c4.6-1.9,9.2-3.8,13.9-5.1
				C31.2,541.9,29.3,539.5,29,535.1z"/>
			<path d="M861.8,338.1c-5.2-2.8-10.4-5.6-10.3-13.2c0.1-4.7-1-9.3-1.4-14c-1.8-19.5-2.9-39.1-5.8-58.4
				c-1.6-10.9,2.4-16.6,11.2-21c1.7-0.8,2.5-3.4,4.6-6.3c-3.4,0-5,0.1-6.5,0c-13.6-0.6-26.5,3.2-39.3,6.8c-9.9,2.8-19.6,6.1-29.3,9.4
				c-15.2,5.1-29.9,11.9-45.4,15.4c-28,6.4-56.4,4-84.8,2c-13.4-0.9-26.8-1.3-40.2-1.4c-10.5-0.1-21,1.1-31.5,0.8
				c-4.2-0.1-8.7-0.3-12.5-3c-0.6,0.3-1.1,0.5-1.7,0.8c-2.2,1-3.9,3-6,4.7c4,6.4,10.2,6.6,15.7,6.7c10,0.3,20.1-0.8,30.1-0.7
				c12.8,0.1,25.7,0.4,38.5,1.3c27.1,1.9,54.4,4.1,81.1-1.9c14.8-3.4,29-9.7,43.5-14.6c9.3-3.1,18.6-6.2,28-8.9
				c12.3-3.4,24.6-7,37.6-6.4c1.5,0.1,2.9,0,6.2,0c-1.9,2.8-2.7,5.2-4.4,6c-8.4,4.2-12.3,9.5-10.8,19.9c2.8,18.3,3.8,36.9,5.5,55.4
				c0.4,4.4,1.4,8.9,1.3,13.3c-0.1,7.8,5.7,10.2,11,13.1c4.6,2.6,7.7-1.2,11.1-3.2C859,339.7,860.4,338.9,861.8,338.1z"/>
			<path d="M849.1,427.2c-12.5,9.5-25,19-37.5,28.5c-5.9,4.5-12.3,8.5-15.2,15.7c-0.7,1.7-0.4,3.9-0.5,5.9
				c1.7,0.1,3.4,0.3,5,0.2c3.3-0.2,6.4-0.8,9.3-1.7c0.1-0.8,0.2-1.6,0.5-2.3c3.1-7.6,9.8-11.9,15.9-16.6c13.1-10,26.1-20,39.2-30.1
				c6.7-5.2,13.2-10.9,20.2-15.7c11.2-7.6,23-14.3,34.2-21.9c4.1-2.8,9.3-6,7.6-13.7c-6.5,1.5-12.8,3.2-19.1,4.7
				c0.6,6.1-3.9,8.9-7.5,11.3c-10.7,7.3-22,13.6-32.7,20.8C861.7,416.9,855.6,422.3,849.1,427.2z"/>
			<path d="M40.8,541.2c4.3-0.4,8.6,0.1,13.2,1.9c3.7,1.5,5.9,0.2,6.6-3.9c0.2-1.3,0.5-2.5,0.8-3.8
				C54.4,535.7,47.6,538.5,40.8,541.2z"/>
			<path d="M949.7,300c-10,2.4-19.9,5.3-29.3,9.3c3-0.8,6-1.6,9-2.3c2.7-0.6,5.7-0.4,8.5-0.5c0.2,0.5,0.4,1,0.6,1.4
				c-2.7,3.2-5.3,6.3-8,9.4c-6.6,7.5-13.1,15.1-20.1,22.3c-3.1,3.2-7.5,5.2-10.6,8.5c-8.7,9.2-19.4,15.2-30.8,20.3
				c-4.5,2-9,4.3-13.3,6.9c-1.8,1.1-4.3,3.6-4.1,5.1c0.3,2,2.9,5.1,4.7,5.2c7.7,0.4,15.6,0.6,23.2-0.5c3.4-0.5,6.7-1.2,10.1-1.9
				c-5.4,0.3-10.9,0.1-16.3-0.2c-1.8-0.1-4.6-3.4-4.9-5.5c-0.3-1.6,2.3-4.2,4.3-5.4c4.4-2.7,9.1-5.1,13.9-7.2
				c11.9-5.4,23-11.7,32.2-21.4c3.2-3.4,7.8-5.5,11-8.9c7.2-7.6,14-15.6,21-23.6c2.9-3.3,5.6-6.6,8.4-10c-0.2-0.5-0.4-1-0.6-1.5
				C955.6,299.7,952.5,299.4,949.7,300z"/>
			<path d="M991.2,89.9c-8.2,1.8-16.4,3.5-24.6,5.6c-4.3,1.1-7.2-0.4-6-4.5c1.2-4.2,4.3-8,6.8-11.7
				c1.2-1.7,3.4-2.7,4.5-4.5c1.9-3.1,1.7-5.7-3-5.5c-6.2,0.3-12.5,0.3-18.7,0.8c-20.4,1.8-40,6.8-59,14.1c-14.5,5.5-28.9,11-43.3,16.7
				c-5.4,2.1-10.5,4.9-15.9,7.1c-8.9,3.7-17.7,7.5-26.8,10.7c-4.1,1.5-8.8,1.4-13.2,2.3c-18.7,3.9-37.4,7.7-56,12
				c-9.4,2.2-18.7,4.8-27.8,8.1c-10.5,3.8-20.5,9.2-31.1,12.5c-5,1.6-11.2,0.7-16.5-0.6c-0.2,0-0.3-0.1-0.4-0.1c0,0-0.1,0.1-0.1,0.1
				c-3,2.1-5.9,4.5-8.6,7c-3.7,3.4-3.4,6.6,1.4,7.7c5.1,1.2,11,2,15.8,0.5c10.2-3.1,19.7-8.3,29.7-11.8c8.7-3.1,17.6-5.6,26.6-7.7
				c17.8-4.1,35.7-7.7,53.6-11.4c4.2-0.9,8.6-0.8,12.6-2.2c8.7-3,17.1-6.6,25.6-10.1c5.1-2.1,10-4.7,15.2-6.8
				c13.8-5.4,27.6-10.6,41.4-15.8c18.2-6.9,37-11.7,56.5-13.4c5.9-0.5,11.9-0.5,17.9-0.8c4.5-0.2,4.7,2.3,2.9,5.2
				c-1,1.7-3.2,2.6-4.3,4.2c-2.4,3.6-5.4,7.1-6.5,11.1c-1.1,3.9,1.7,5.3,5.8,4.3c4.2-1,8.4-2,12.5-2.9c0.2-0.1,0.4-0.3,0.6-0.4
				c7.7-4.6,16.4-7.7,24.5-11.8c3.2-1.6,6-4.2,8.9-6.4C991.8,91.1,991.5,90.5,991.2,89.9z"/>
			<path d="M210.8,605.8c9.5,2.4,12.1,7.4,7.5,13.9c3.1-2,6.1-4.3,8.7-6.9c7.6-7.5,5.9-13.5-4.6-16.1
				c-5.6-1.4-11.4-2.7-17-2.5c-17.2,0.6-34.5,1.8-51.7,3c-1.9,0.1-3.8,1.4-5.6,2.3c-4.1,2-6.6,0.9-10.5-2.1c-8.8-7-9.7-14.8-5.5-24.1
				c5.8-13,0-23.5-6.9-33.7c-6.2-9-13.3-17.2-22.5-23.5c-8.7-6-15.8-5-19.7,2.9c0.9,0.5,1.8,1,2.7,1.7c9.7,6.7,17.1,15.3,23.6,24.9
				c7.2,10.7,13.3,21.9,7.3,35.5c-4.3,9.8-3.5,18,5.8,25.5c4.1,3.3,6.7,4.4,11,2.3c1.9-0.9,3.8-2.3,5.8-2.4c18-1.2,36-2.6,54-3.2
				C198.9,603,205,604.3,210.8,605.8z"/>
			<path d="M913.8,419.9c-2.3,0.5-4.7,1.2-7,2c6.6,3.5,10.1,11.5,11.6,19.7c2.8,15.8,0.3,31.4-1.6,47.1
				c-1.8,15.3-5.1,30.6-4.7,45.9c1.1,42.1-9.2,81.1-30,117.2c-12.6,21.8-27.6,42.2-41,63.5c-6.9,11-12.8,22.5-19.1,33.9
				c-5.1,9.3-9.3,19.1-15.3,27.8c-3.5,5-9.4,8.8-14.9,11.9c-8,4.6-16.5,8.3-24.9,12.1c-7.2,3.3-14.6,6.3-21.9,9.4
				c-1,0.4-2.4,0.7-2.9,1.5c-5.8,9.8-18.3,11.2-24.9,20.3c-6.3,8.6-14,16.3-21.8,23.7c-6,5.8-12.6,10.9-19.4,15.6
				c-15,10.4-30.2,20.7-45.7,30.3c-8.9,5.5-18.5,10.2-28.2,14.2c-10.2,4.2-20.7,8.1-31.4,10.5c-16.5,3.7-33.3,2.2-50,0.5
				c-11.2-1.1-22.4-2.9-33.4-5.4c-7.7-1.7-15.3-4.5-22.4-7.9c-18.8-8.9-38-14.2-59.1-11.1c-10.1,1.5-20.4,1.2-30.5,2.7
				c-17,2.5-33.8,6.4-50.8,8.5c-17.3,2.1-34.8,2.9-52.2,4.1c-3.7,0.3-5-2.3-4.6-5.5c1.3-10.6,2.5-21.3,4.2-31.9
				c2.1-12.8,5.6-25.3,3.8-38.6c-1.4-10.7-7.9-16.5-17.2-19.6c-13.7-4.6-27.9-3.3-42.1-2.7c-9.7,0.4-19.4,0.9-29,0.4
				c-5.1-0.3-10.8-1.1-11.9-8.5c-0.2-1.4-4.7-2.1-7.1-3.2c-1.5-0.7-3-1.7-4.5-2.6c1.1-1.6,2.2-3.2,3.4-4.6c0.6-0.7,1.4-1.2,2.2-1.7
				c7.7-4.5,8.2-8.4,2-15.2c-1.1-1.2-2.2-2.6-3.5-3.6c-7.3-6.2-6.2-13.5-3.3-21.3c2.2-6.1,3.8-12.4,5.8-18.5c0.4-1.3,1.1-3,2.2-3.7
				c5.3-3.2,4-7.5,2.1-11.6c-2.5-5.6-5.5-10.9-8.4-16.3c-3.2-5.9-4.4-11.3,1.6-16.3c6.9-5.7,3.8-13.2,3.2-20.2c-0.3-2.9-0.6-5.9-1-8.8
				c-0.7-5.5,0.4-10,2.8-13.9c-1.1,0.7-2.2,1.3-3.2,2c-8.9,5.6-14.9,13.2-13.5,24.7c0.4,3.1,0.7,6.2,1,9.3c0.7,7.4,3.9,15.3-3.4,21.3
				c-6.3,5.3-5,11.1-1.7,17.2c3,5.7,6.1,11.3,8.8,17.2c2,4.3,3.4,8.9-2.2,12.3c-1.1,0.7-1.9,2.5-2.3,3.9c-2.1,6.5-3.7,13.2-6,19.5
				c-3,8.3-4.2,16,3.4,22.5c1.3,1.1,2.4,2.5,3.6,3.8c6.5,7.2,6,11.3-2.1,16.1c-0.8,0.5-1.7,1-2.3,1.8c-1.3,1.6-2.4,3.3-3.6,4.9
				c1.5,0.9,3,2,4.7,2.7c2.6,1.2,7.2,1.9,7.5,3.4c1.2,7.7,7.1,8.7,12.4,8.9c10.1,0.5,20.2,0,30.3-0.4c14.8-0.6,29.6-2,44,2.9
				c9.7,3.3,16.6,9.4,18,20.7c1.8,14-1.8,27.2-4,40.7c-1.8,11.2-3.1,22.4-4.4,33.7c-0.4,3.3,1,6,4.9,5.8c18.2-1.3,36.5-2.1,54.6-4.3
				c17.8-2.2,35.3-6.3,53.1-9c10.5-1.6,21.3-1.3,31.9-2.8c22-3.2,42.1,2.3,61.8,11.7c7.5,3.6,15.4,6.5,23.4,8.4
				c11.5,2.6,23.2,4.5,34.9,5.7c17.4,1.8,35,3.4,52.3-0.5c11.2-2.6,22.2-6.6,32.9-11.1c10.1-4.2,20.1-9.2,29.5-15
				c16.2-10.1,32.1-21,47.8-32c7.1-5,14-10.4,20.3-16.5c8.1-7.9,16.2-16,22.7-25.1c7-9.7,20-11.1,26.1-21.4c0.5-0.9,2-1.2,3.1-1.6
				c7.6-3.3,15.4-6.5,22.9-9.9c8.8-4,17.7-7.9,26-12.8c5.7-3.3,11.9-7.3,15.6-12.6c6.3-9.1,10.6-19.5,16-29.3
				c6.5-12,12.7-24.2,19.9-35.8c14-22.5,29.7-44,42.9-67c21.8-38.1,32.5-79.2,31.3-123.7c-0.4-16.1,3.1-32.3,5-48.4
				c2-16.5,4.6-33,1.7-49.7C935.8,429.3,928.8,416.8,913.8,419.9z"/>
		
		</g> 


 <path class="st2" d="M970.1,109.8c-2.8,2-5.5,4.5-8.5,6c-7.7,3.9-16,6.8-23.4,11.2c-7.9,4.7-15.4,10.3-22.5,16.1
                                    c-10.9,8.9-22.7,15-36.9,16.2c-12.4,1-23.6,5.5-34.7,10.8c-17.6,8.4-34.4,18.7-54,22.8c-18.6,3.9-37,8.8-55.5,13.3
                                    c-16.9,4.1-33.9,7.9-50.5,12.7c-17.3,5.1-34.3,11.5-51.5,16.9c-15.9,4.9-32,9.1-47.9,13.8c-5.3,1.6-10.4,3.8-15.5,6.1
                                    c-2.2,1-3.9,3-6,4.7c4,6.4,10.2,6.6,15.7,6.7c10,0.3,20.1-0.8,30.1-0.7c12.8,0.1,25.7,0.4,38.5,1.3c27.1,1.9,54.4,4.1,81.1-1.9
                                    c14.8-3.4,29-9.7,43.5-14.6c9.3-3.1,18.6-6.2,28-8.9c12.3-3.4,24.6-7,37.6-6.4c1.5,0.1,2.9,0,6.2,0c-1.9,2.8-2.7,5.2-4.4,6
                                    c-8.4,4.2-12.3,9.5-10.8,19.9c2.8,18.3,3.8,36.9,5.5,55.4c0.4,4.4,1.4,8.9,1.3,13.3c-0.1,7.8,5.7,10.2,11,13.1
                                    c4.6,2.6,7.7-1.2,11.1-3.2c10.1-5.8,19.9-11.9,30-17.8c13-7.6,27.2-12.3,41.9-15.7c2.7-0.6,5.7-0.4,8.5-0.5c0.2,0.5,0.4,1,0.6,1.4
                                    c-2.7,3.2-5.3,6.3-8,9.4c-6.6,7.5-13.1,15.1-20.1,22.3c-3.1,3.2-7.5,5.2-10.6,8.5c-8.7,9.2-19.4,15.2-30.8,20.3
                                    c-4.5,2-9,4.3-13.3,6.9c-1.8,1.1-4.3,3.6-4.1,5.1c0.3,2,2.9,5.1,4.7,5.2c7.7,0.4,15.6,0.6,23.2-0.5c9.6-1.4,19-4.2,28.9-6.5
                                    c1.6,7.3-3.4,10.3-7.2,12.9c-10.7,7.3-22,13.6-32.7,20.8c-6.7,4.5-12.9,9.9-19.3,14.9c-12.5,9.5-25,19-37.5,28.5
                                    c-5.9,4.5-12.3,8.5-15.2,15.7c-0.7,1.7-0.4,3.9-0.5,5.9c1.7,0.1,3.4,0.3,5,0.2c15.3-1.1,26.8-9.9,38.2-18.8
                                    c13.4-10.5,26.4-21.4,40.1-31.5c4.5-3.3,10.3-5.4,15.8-6.5c14.4-3,21.1,8.9,23.3,21c2.8,15.8,0.3,31.4-1.6,47.1
                                    c-1.8,15.3-5.1,30.6-4.7,45.9c1.1,42.1-9.2,81.1-30,117.2c-12.6,21.8-27.6,42.2-41,63.5c-6.9,11-12.8,22.5-19.1,33.9
                                    c-5.1,9.3-9.3,19.1-15.3,27.8c-3.5,5-9.4,8.8-14.9,11.9c-8,4.6-16.5,8.3-24.9,12.1c-7.2,3.3-14.6,6.3-21.9,9.4
                                    c-1,0.4-2.4,0.7-2.9,1.5c-5.8,9.8-18.3,11.2-24.9,20.3c-6.3,8.6-14,16.3-21.8,23.7c-6,5.8-12.6,10.9-19.4,15.6
                                    c-15,10.4-30.2,20.7-45.7,30.3c-8.9,5.5-18.5,10.2-28.2,14.2c-10.2,4.2-20.7,8.1-31.4,10.5c-16.5,3.7-33.3,2.2-50,0.5
                                    c-11.2-1.1-22.4-2.9-33.4-5.4c-7.7-1.7-15.3-4.5-22.4-7.9c-18.8-8.9-38-14.2-59.1-11.1c-10.1,1.5-20.4,1.2-30.5,2.7
                                    c-17,2.5-33.8,6.4-50.8,8.5c-17.3,2.1-34.8,2.9-52.2,4.1c-3.7,0.3-5-2.3-4.6-5.5c1.3-10.6,2.5-21.3,4.2-31.9
                                    c2.1-12.8,5.6-25.3,3.8-38.6c-1.4-10.7-7.9-16.5-17.2-19.6c-13.7-4.6-27.9-3.3-42.1-2.7c-9.7,0.4-19.4,0.9-29,0.4
                                    c-5.1-0.3-10.8-1.1-11.9-8.5c-0.2-1.4-4.7-2.1-7.1-3.2c-1.5-0.7-3-1.7-4.5-2.6c1.1-1.6,2.2-3.2,3.4-4.6c0.6-0.7,1.4-1.2,2.2-1.7
                                    c7.7-4.5,8.2-8.4,2-15.2c-1.1-1.2-2.2-2.6-3.5-3.6c-7.3-6.2-6.2-13.5-3.3-21.3c2.2-6.1,3.8-12.4,5.8-18.5c0.4-1.3,1.1-3,2.2-3.7
                                    c5.3-3.2,4-7.5,2.1-11.6c-2.5-5.6-5.5-10.9-8.4-16.3c-3.2-5.9-4.4-11.3,1.6-16.3c6.9-5.7,3.8-13.2,3.2-20.2c-0.3-2.9-0.6-5.9-1-8.8
                                    c-1.4-10.9,4.3-18.1,12.9-23.4c11.2-6.9,22.7-13.2,33.9-19.9c3.6-2.2,7.1-4.8,10.1-7.8c7.6-7.5,5.9-13.5-4.6-16.1
                                    c-5.6-1.4-11.4-2.7-17-2.5c-17.2,0.6-34.5,1.8-51.7,3c-1.9,0.1-3.8,1.4-5.6,2.3c-4.1,2-6.6,0.9-10.5-2.1c-8.8-7-9.7-14.8-5.5-24.1
                                    c5.8-13,0-23.5-6.9-33.7c-6.2-9-13.3-17.2-22.5-23.5c-10.1-6.9-18.1-4.6-21.3,7.3c-0.9,3.4-1.9,6.8-2.6,10.3
                                    c-0.7,3.9-2.8,5.1-6.3,3.7c-11.6-4.6-22.1,0.1-32.4,4.2c-6.2,2.5-10.5,0.4-11-6.5c-0.6-8.9,4.6-15,9.8-21.1c2.9-3.4,6.1-6.5,9.2-9.6
                                    c7.3-7.3,9.3-16.6,10.3-26.4c0.8-7.8,2.7-14.6,9.4-19.8c11.1-8.7,22.3-17.3,32.4-27.1c8.5-8.2,15.7-17.7,22.8-27.2
                                    c10-13.4,22.3-23.4,38.4-28.6c13.4-4.4,26-10.7,36.9-19.9c4.5-3.8,7.3-8.5,6.6-14.6c-0.2-1.8-1.5-4.3-2.9-4.8
                                    c-4.1-1.5-8.6-3.3-12.8-2.9c-10.3,0.9-20.6,2.4-30.8,4.5c-16.6,3.4-33.2,7.4-49.7,11.1c-6.7,1.5-13.4,2.6-20,4.2
                                    c-9.7,2.2-17.8-2.6-25.9-6.2c-4.5-2-8.4-6-11.6-10c-5.4-6.7-3.6-15.2,4.3-18.7c6.2-2.8,13.2-4.7,20-5.6c13-1.7,23.1-8.1,25.6-20.1
                                    c0.9-4.5,1.4-10.3-0.6-13.9c-6-10.6-6.8-22.1-7-33.4c-0.4-22.1-4.5-43.5-8.6-65c-1.2-6.1-1-12.6-0.5-18.9
                                    c0.9-11.4,11.7-16.7,24.5-18.5c4.6-0.6,9.3-0.9,13.9-1.1c3.8-0.1,4.4-1.8,3.3-5c-0.9-2.6-1.7-5.3-2.6-7.9c-1.9-5.6-0.6-9,5.4-10.5
                                    c6.8-1.6,13.9-2.7,20.9-3.3c15.3-1.3,28.7-7.5,42-14.5c11.3-6,22.7-11.8,34.5-16.6c10.9-4.4,22.1-8.3,33.6-10.7
                                    c7-1.5,14.8-0.5,22.1,0.6c2.8,0.4,6.2,3.9,7.3,6.7c4.1,10.1,7.4,20.5,10.6,30.9c0.3,1.1-2.2,4.1-3.8,4.5c-9.1,2.2-18.4,3.8-27.6,5.8
                                    c-15.1,3.2-20.4,14.3-12.8,27.8c1.1,2,4.1,3.9,6.4,4.1c5,0.3,10.3,0.4,14.9-1c9.2-2.8,19.6-2.7,27.4-9.6c1.2-1.1,2.9-2,4.4-2.2
                                    c16.4-1.7,32.8-4.1,49.2-4.3c9.5-0.1,16.2-2.6,21.8-9.8c7.1-9.1,16.1-16.2,26.6-20.5c11.5-4.6,23.7-6.7,34.8,2.1
                                    c2.9,2.3,5.9,5,9.4,5.9c3.9,1,8.7,1.6,12.2,0.1c14.9-6.3,28.8-15,44.9-18.7c13.6-3.2,27.1-7.3,40.5-11.5
                                    c16.2-5.1,32.1-10.9,48.2-16.3c6.7-2.2,13.4-4.2,20.2-6c1.3-0.4,3.8,0,4.3,0.8c0.6,1.1,0.3,3.4-0.6,4.6c-1.6,2.2-3.8,4.1-5.7,6
                                    c-4.7,4.7-4.4,8.7,1.2,12.2c12.3,7.5,26.1,10.2,39.9,12.6c5.7,1,11.4,1.6,17.1,2.2c3.6,0.4,4.3,2.6,2.6,4.9
                                    c-5.6,7.9-4.9,16.5-3.7,25.2c1.4,10.4-3.3,17.4-11.4,23c-3,2.1-5.9,4.5-8.6,7c-3.7,3.4-3.4,6.6,1.4,7.7c5.1,1.2,11,2,15.8,0.5
                                    c10.2-3.1,19.7-8.3,29.7-11.8c8.7-3.1,17.6-5.6,26.6-7.7c17.8-4.1,35.7-7.7,53.6-11.4c4.2-0.9,8.6-0.8,12.6-2.2
                                    c8.7-3,17.1-6.6,25.6-10.1c5.1-2.1,10-4.7,15.2-6.8c13.8-5.4,27.6-10.6,41.4-15.8c18.2-6.9,37-11.7,56.5-13.4
                                    c5.9-0.5,11.9-0.5,17.9-0.8c4.5-0.2,4.7,2.3,2.9,5.2c-1,1.7-3.2,2.6-4.3,4.2c-2.4,3.6-5.4,7.1-6.5,11.1c-1.1,3.9,1.7,5.3,5.8,4.3
                                    c7.8-2,15.7-3.6,23.5-5.3C969.4,108.5,969.8,109.1,970.1,109.8z"/>
                                </g>
</svg>
