<?xml version="1.0" encoding="utf-8"?>
<svg version="1.1" id="Layer_1" xmlns="http://www.w3.org/2000/svg" xmlns:xlink="http://www.w3.org/1999/xlink" x="0px" y="0px"
	 viewBox="0 0 1100 1100" style="enable-background:new 0 0 1100 1100;" xml:space="preserve">
<style type="text/css">.st0{fill:#E4E6E7;}.st2{fill:#CACDCF;}</style>
<g>
	<g class="st0">
		<path class="st1" d="M114,386.7c7.5,9.2,5.8,12.3-4,18.4c-7.1,4.4-14.4,9.4-19.5,15.8c-6.9,8.7-4.9,15.2,4.4,21.4
			c5.5,3.7,11.4,6.9,16.7,11c6.1,4.8,6.6,9,2.4,15.7c-2.8,4.5-5.8,9-9.3,12.9c-2.8,3.2-5.5,5.4-8.2,6.9c0,0,0.1,0,0.1,0
			c11.4,5.4,18.5,4.2,27-5.1c3.4-3.7,6.2-7.9,9-12.1c4-6.2,3.6-10.2-2.3-14.7c-5-3.9-10.7-6.9-16-10.3c-8.9-5.8-10.9-11.9-4.2-20.1
			c4.9-6,11.9-10.7,18.7-14.8c9.4-5.7,11-8.6,3.9-17.2c-12.6-15.1-25.9-29.7-39.3-44.1c-3.9-4.3-5.5-8.2-3.9-14
			c2.6-9.2,4.4-18.7,6.5-28.1c2.7-12.1,6.5-15.4,19.2-15.8c10.5-0.3,21-0.2,31.5,0.1c5.1,0.2,7.4-1,7.5-6.7c0.2-9.4,1.2-18.8,2.6-28
			c0.5-3.3,2.9-7.8,5.6-8.9c15-6,16.2-18.6,16.4-31.8c0.1-4.6,0.9-7.8,5.5-10c1.8-0.8,3.3-3.8,3.7-6c1.1-6.4,1.7-13,2.2-19.5
			c0.3-4.8,9.3-8.5,10.3-8.9c10.5-3.3,12.1-6,12.7-17c0.4-6,1.7-12,3.4-17.7c1.2-4,4.7-5.5,9-4.1c2.9,0.9,5.9,1.8,8.9,2
			c1.9,0.1,5-0.5,5.6-1.8c2.5-5.1,7-5.6,11.6-5.9c6.7-0.4,20-6.6,17.5-21c-0.9-4.9-1.7-9.9-2.8-14.8c-1.1-4.8,1.5-6.1,5.3-5.6
			c11.8,1.5,24,1.9,35.3,5.2c12.3,3.5,23.9,9.4,35.6,14.9c12.2,5.7,24.2,11,38.2,9.7c11.6-1,18.2-5.8,21.1-17.1
			c1.4-5.3,2.2-10.7,2.9-16.1c1.1-8.6,2.7-10,10.8-7.5c7.5,2.2,14.9,5.1,22.5,7.1c6.5,1.7,12.3,0.8,16.9-5.3
			c5.5-7.3,17.8-4.7,20.8,4.3c2.4,7.2,3.6,14.9,5.7,22.2c3.6,12.4,16.4,21.6,29.2,20.8c9.2-0.6,15.8-5.5,19.9-14
			c8.4-17.3,24.3-24,42.6-16.7c9.6,3.8,18.2,10.2,27.1,15.8c9.2,5.8,18,12.4,27.4,18.1c10,6.1,20.2,5.8,30.3-0.7
			c3.8-2.4,8.2-4,12.6-5.3c3.2-1,6.2-0.1,6.5,4.3c1.1,17.4,10.4,30.8,21.5,43.2c7.8,8.6,16.3,16.6,24.1,25.1
			c5.3,5.7,11.9,4.6,18.3,4.6c10.1,0,10.4-0.1,11,9.9c0.7,12.2,5.1,22.2,13.8,30.8c6.5,6.4,12.1,13.9,18.5,20.4
			c7.7,7.9,11.2,16.8,10.2,27.9c-0.4,4.1-2.3,9.6,3.9,11.8c7.8,2.8,15.7,4.2,23-1.2c1.2-0.9,1-3.5,1.5-5.3c0.5-1.5,0.8-3.4,1.3-4.9
			c-5,0.7-10.1-0.6-15.3-2.4c-6.5-2.4-4.5-8.3-4.1-12.6c1.1-11.8-2.6-21.3-10.6-29.7c-6.7-7-12.5-14.9-19.3-21.8
			c-9.1-9.2-13.7-19.9-14.4-32.9c-0.6-10.6-0.9-10.5-11.4-10.5c-6.8,0-13.6,1.2-19.1-4.9c-8.2-9.1-17.1-17.6-25.2-26.7
			c-11.6-13.1-21.3-27.4-22.4-46c-0.3-4.6-3.4-5.6-6.7-4.5c-4.5,1.4-9.2,3.1-13.1,5.7c-10.5,6.9-21.1,7.2-31.6,0.7
			c-9.7-6-18.9-13-28.5-19.3c-9.2-5.9-18.2-12.7-28.2-16.8c-19.1-7.8-35.7-0.6-44.5,17.8c-4.3,9-11.1,14.2-20.8,14.9
			c-13.3,0.9-26.7-8.9-30.5-22.1c-2.2-7.8-3.5-15.9-6-23.6c-3.1-9.6-16-12.3-21.7-4.6c-4.8,6.5-10.9,7.4-17.6,5.6
			c-7.9-2.1-15.6-5.2-23.5-7.5c-8.5-2.6-10.1-1.2-11.3,8c-0.7,5.8-1.6,11.5-3,17.1c-3.1,12-10,17.1-22.1,18.2
			c-14.6,1.3-27.2-4.3-39.9-10.3C321,74.4,308.8,68.1,296,64.4c-11.8-3.5-24.5-3.9-36.9-5.5c-4-0.5-6.7,0.9-5.6,6
			c1.2,5.2,2,10.5,2.9,15.8c2.7,15.4-11.2,22-18.2,22.4c-4.8,0.3-9.5,0.8-12.1,6.3c-0.6,1.3-3.8,2-5.8,1.9c-3.1-0.2-6.3-1.1-9.3-2.1
			c-4.5-1.4-8.2,0.1-9.4,4.4c-1.8,6.1-3.2,12.5-3.6,18.9c-0.7,11.7-2.3,14.5-13.3,18.1c-1.1,0.4-10.4,4.4-10.7,9.5
			c-0.5,7-1.1,13.9-2.3,20.8c-0.4,2.4-2,5.5-3.9,6.4c-4.8,2.3-5.7,5.7-5.7,10.6c-0.2,14.1-1.5,27.5-17.1,33.9c-2.8,1.2-5.3,6-5.8,9.5
			c-1.6,9.9-2.5,19.9-2.8,29.9c-0.1,6.1-2.5,7.3-7.8,7.2c-11-0.3-21.9-0.4-32.9-0.1c-13.2,0.3-17.2,3.9-20,16.8
			c-2.2,10-4.1,20.1-6.8,29.9c-1.7,6.2,0,10.4,4.1,14.9C86.9,355.2,100.8,370.6,114,386.7z"/>
		<path class="st1" d="M965.9,443c5.1-21.3,4-43-0.3-64.4c-0.7-3.5-3.2-7.3-6-9.6c-10.1-8.4-21.2-15.6-30.8-24.5
			c-20.7-19.1-44-32-71.8-35.6c-5.1-0.7-6.9-3.8-7.2-8.5c-0.5-8.1-1-16.3-1.7-24.4c-0.2-2.6-1.1-7.2-1.9-7.2c-3-0.2-6.7,0.3-8.9,2.2
			c-1.9,1.6-2.1,5.3-3,8.1c-0.4,1.5-0.4,3.4-1,4.7c0.2,0,0.5,0,0.7,0c0.8,0,1.6,4.4,1.8,6.8c0.7,7.6,1.1,15.3,1.6,22.9
			c0.3,4.4,1.9,7.3,6.9,8c26.7,3.4,49,15.6,68.8,33.5c9.2,8.3,19.9,15.1,29.5,23c2.6,2.2,5.1,5.7,5.7,9c4.1,20.1,5.2,40.5,0.3,60.5
			c-1.8,7.4-5.8,14.9-10.7,20.6c-14.2,16.5-15.2,34.5-8.9,54.1c4.4,13.7,9,27.4,12.2,41.4c3.6,16.3,0.9,32.2-7.8,46.7
			c-4.8,8.1-9.5,16.3-14.5,24.2c-4.8,7.6-6.7,15.6-5.3,24.4c1.4,9.3-1.8,15.9-10.3,20.5c-8.5,4.6-8.2,5-4.3,13.4c3,6.3,5.7,12.8,9,19
			c2.5,4.8,3.1,9.5,1.2,14.5c-8.9,23.3-27.4,37.5-48.7,51.8c0-8.8,0-15.8,0-23.4c-1.6,0.7-2.4,0.8-2.6,1.2
			c-10.1,15.4-25.7,21.7-42.7,25.9c-6.8,1.7-13.5,3.5-20.2,5.7c-10.8,3.5-12.6,6-12.9,17.5c-0.2,5.7-0.3,11.4,0,17.1
			c0.2,5.5-2.2,8.8-6.6,11.8c-9.4,6.4-20,8.5-31,9.5c-7.6,0.7-15.3,1.1-22.9,1.3c-5.7,0.2-9.8,2.4-11.6,7.8
			c-2.8,8.2-8.6,12.4-16.9,14.7c-16.2,4.5-32.2,9.9-48.3,14.7c-4.5,1.3-6.7,3.4-7.6,8.3c-1.7,9.2-8.4,15.3-16.2,19.6
			c-34.1,19.1-64.5,19.3-97-8c-10.3-8.7-20.5-10.5-32.5-11.1c-18.2-1-36-4.1-52.9-11.4c-18.6-8-32.5-20.1-37.2-41
			c-0.7-3.2-5.7-6.2-9.4-7.8c-4.1-1.8-5.9,2.3-7.6,5.5c-1.9,3.7-4,7.3-6,10.9c-7.3,13.5-15.5,18.1-30.8,16.1
			c-19.9-2.7-39.7-5.7-59.5-9.3c-4.1-0.7-8.7-3.5-11.4-6.7c-11.5-13.5-22.3-27.5-33.6-41.2c-5.6-6.7-10.9-14-17.8-19.2
			c-11-8.3-16.4-18.8-17.8-32c-2.8-25.1-17.1-40.3-40.9-47.5c-6.5-2-12.8-4.3-19.2-6.7c-10.7-4.1-19.2-10.9-25.9-20.3
			c-10.1-14.3-11.4-30.1-8.3-46.4c3.1-16.7-3.8-29.7-13.8-41.5c-4.6-5.4-10.8-9.5-16.7-13.6c-6.6-4.6-13.4-9.5-20.7-12.6
			c-15.4-6.5-21.3-20.4-27.5-33.9c-1.9-4.1-1.1-10.5,0.6-15.1c3.5-9.3,7.8-18.6,13-27.1c3.4-5.5,7.3-9,11.8-10.7
			c-0.9-0.4-1.7-0.7-2.6-1.1c-13.8-5.2-23.6-2.3-31.3,10.3c-5.5,9-9.9,18.9-13.6,28.8c-1.8,4.8-2.6,11.7-0.6,16.1
			c6.4,14.3,12.6,29.2,28.7,36.1c7.7,3.3,14.7,8.5,21.6,13.4c6.2,4.4,12.7,8.8,17.5,14.5C90,609.6,97.2,623.5,94,641.3
			c-3.2,17.4-1.9,34.2,8.7,49.4c7,10.1,15.8,17.3,27,21.7c6.6,2.6,13.2,5.1,20,7.2c24.8,7.7,39.7,23.9,42.6,50.6
			c1.5,14.1,7.2,25.3,18.6,34.1c7.2,5.5,12.7,13.3,18.6,20.5c11.8,14.5,23.1,29.5,35.1,43.9c2.9,3.4,7.6,6.4,11.9,7.1
			c20.6,3.8,41.3,7,62.1,9.9c16,2.2,24.6-2.8,32.2-17.1c2.1-3.9,4.2-7.7,6.2-11.7c1.7-3.4,3.6-7.7,7.9-5.8c3.8,1.7,9,4.9,9.8,8.3
			c4.9,22.3,19.5,35.2,38.9,43.7c17.6,7.7,36.2,11.1,55.2,12.2c12.5,0.7,23.1,2.6,33.9,11.9c33.9,29,65.7,28.8,101.2,8.5
			c8.1-4.7,15.1-11.1,16.9-20.9c1-5.3,3.3-7.5,8-8.9c16.8-5.1,33.5-10.8,50.4-15.6c8.7-2.4,14.7-6.9,17.7-15.6
			c1.9-5.7,6.2-8.2,12.1-8.3c8-0.3,15.9-0.7,23.9-1.4c11.4-1,22.5-3.3,32.3-10.1c4.6-3.2,7.2-6.8,6.9-12.6c-0.3-6.1-0.1-12.1,0-18.2
			c0.3-12.3,2.2-15,13.5-18.7c6.9-2.3,14-4.3,21.1-6c17.7-4.4,34-11.1,44.5-27.5c0.3-0.4,1.1-0.5,2.7-1.3c0,8.1,0,15.6,0,25
			c22.2-15.2,41.5-30.3,50.8-55.2c2-5.3,1.3-10.3-1.3-15.4c-3.4-6.6-6.2-13.5-9.3-20.2c-4.1-9-4.4-9.4,4.4-14.3
			c8.9-4.9,12.3-11.9,10.8-21.9c-1.4-9.4,0.6-18,5.5-26c5.2-8.5,10.1-17.2,15.1-25.8c9-15.5,11.9-32.4,8.1-49.8
			c-3.2-14.9-8.1-29.5-12.7-44.1c-6.5-20.9-5.5-40,9.3-57.6C959.9,458.9,964,450.9,965.9,443z"/>
	</g>
	<path class="st2" d="M860.6,778c0-8.8,0-15.8,0-23.4c-1.6,0.7-2.4,0.8-2.6,1.2c-10.1,15.4-25.7,21.7-42.7,25.9
		c-6.8,1.7-13.5,3.5-20.2,5.7c-10.8,3.5-12.6,6-12.9,17.5c-0.2,5.7-0.3,11.4,0,17.1c0.2,5.5-2.2,8.8-6.6,11.8c-9.4,6.4-20,8.5-31,9.5
		c-7.6,0.7-15.3,1.1-22.9,1.3c-5.7,0.2-9.8,2.4-11.6,7.8c-2.8,8.2-8.6,12.4-16.9,14.7c-16.2,4.5-32.2,9.9-48.3,14.7
		c-4.5,1.3-6.7,3.4-7.6,8.3c-1.7,9.2-8.4,15.3-16.2,19.6c-34.1,19.1-64.5,19.3-97-8c-10.3-8.7-20.5-10.5-32.5-11.1
		c-18.2-1-36-4.1-52.9-11.4c-18.6-8-32.5-20.1-37.2-41c-0.7-3.2-5.7-6.2-9.4-7.8c-4.1-1.8-5.9,2.3-7.6,5.5c-1.9,3.7-4,7.3-6,10.9
		c-7.3,13.5-15.5,18.1-30.8,16.1c-19.9-2.7-39.7-5.7-59.5-9.3c-4.1-0.7-8.7-3.5-11.4-6.7c-11.5-13.5-22.3-27.5-33.6-41.2
		c-5.6-6.7-10.9-14-17.8-19.2c-11-8.3-16.4-18.8-17.8-32c-2.8-25.1-17.1-40.3-40.9-47.5c-6.5-2-12.8-4.3-19.2-6.7
		c-10.7-4.1-19.2-10.9-25.9-20.3c-10.1-14.3-11.4-30.1-8.3-46.4c3.1-16.7-3.8-29.7-13.8-41.5c-4.6-5.4-10.8-9.5-16.7-13.6
		c-6.6-4.6-13.4-9.5-20.7-12.6c-15.4-6.5-21.3-20.4-27.5-33.9c-1.9-4.1-1.1-10.5,0.6-15.1c3.5-9.3,7.8-18.6,13-27.1
		c7.4-11.8,16.8-14.5,30-9.6c6.3,2.3,12.2,5.9,18.3,8.8c11.4,5.4,18.5,4.2,27-5.1c3.4-3.7,6.2-7.9,9-12.1c4-6.2,3.6-10.2-2.3-14.7
		c-5-3.9-10.7-6.9-16-10.3c-8.9-5.8-10.9-11.9-4.2-20.1c4.9-6,11.9-10.7,18.7-14.8c9.4-5.7,11-8.6,3.9-17.2
		c-12.6-15.1-25.9-29.7-39.3-44.1c-3.9-4.3-5.5-8.2-3.9-14c2.6-9.2,4.4-18.7,6.5-28.1c2.7-12.1,6.5-15.4,19.2-15.8
		c10.5-0.3,21-0.2,31.5,0.1c5.1,0.2,7.4-1,7.5-6.7c0.2-9.4,1.2-18.8,2.6-28c0.5-3.3,2.9-7.8,5.6-8.9c15-6,16.2-18.6,16.4-31.8
		c0.1-4.6,0.9-7.8,5.5-10c1.8-0.8,3.3-3.8,3.7-6c1.1-6.4,1.7-13,2.2-19.5c0.3-4.8,9.3-8.5,10.3-8.9c10.5-3.3,12.1-6,12.7-17
		c0.4-6,1.7-12,3.4-17.7c1.2-4,4.7-5.5,9-4.1c2.9,0.9,5.9,1.8,8.9,2c1.9,0.1,5-0.5,5.6-1.8c2.5-5.1,7-5.6,11.6-5.9
		c6.7-0.4,20-6.6,17.5-21c-0.9-4.9-1.7-9.9-2.8-14.8c-1.1-4.8,1.5-6.1,5.3-5.6c11.8,1.5,24,1.9,35.3,5.2c12.3,3.5,23.9,9.4,35.6,14.9
		c12.2,5.7,24.2,11,38.2,9.7c11.6-1,18.2-5.8,21.1-17.1c1.4-5.3,2.2-10.7,2.9-16.1c1.1-8.6,2.7-10,10.8-7.5
		c7.5,2.2,14.9,5.1,22.5,7.1c6.5,1.7,12.3,0.8,16.9-5.3c5.5-7.3,17.8-4.7,20.8,4.3c2.4,7.2,3.6,14.9,5.7,22.2
		c3.6,12.4,16.4,21.6,29.2,20.8c9.2-0.6,15.8-5.5,19.9-14c8.4-17.3,24.3-24,42.6-16.7c9.6,3.8,18.2,10.2,27.1,15.8
		c9.2,5.8,18,12.4,27.4,18.1c10,6.1,20.2,5.8,30.3-0.7c3.8-2.4,8.2-4,12.6-5.3c3.2-1,6.2-0.1,6.5,4.3c1.1,17.4,10.4,30.8,21.5,43.2
		c7.8,8.6,16.3,16.6,24.1,25.1c5.3,5.7,11.9,4.6,18.3,4.6c10.1,0,10.4-0.1,11,9.9c0.7,12.2,5.1,22.2,13.8,30.8
		c6.5,6.4,12.1,13.9,18.5,20.4c7.7,7.9,11.2,16.8,10.2,27.9c-0.4,4.1-2.3,9.6,3.9,11.8c7.8,2.8,15.7,4.2,23-1.2
		c1.2-0.9,1-3.5,1.5-5.3c0.8-2.6,1-6.1,2.8-7.6c2.1-1.7,5.7-2.2,8.6-2c0.8,0,1.6,4.4,1.8,6.8c0.7,7.6,1.1,15.3,1.6,22.9
		c0.3,4.4,1.9,7.3,6.9,8c26.7,3.4,49,15.6,68.8,33.5c9.2,8.3,19.9,15.1,29.5,23c2.6,2.2,5.1,5.7,5.7,9c4.1,20.1,5.2,40.5,0.3,60.5
		c-1.8,7.4-5.8,14.9-10.7,20.6c-14.2,16.5-15.2,34.5-8.9,54.1c4.4,13.7,9,27.4,12.2,41.4c3.6,16.3,0.9,32.2-7.8,46.7
		c-4.8,8.1-9.5,16.3-14.5,24.2c-4.8,7.6-6.7,15.6-5.3,24.4c1.4,9.3-1.8,15.9-10.3,20.5c-8.5,4.6-8.2,5-4.3,13.4c3,6.3,5.7,12.8,9,19
		c2.5,4.8,3.1,9.5,1.2,14.5C900.4,749.5,881.9,763.7,860.6,778z"/>

</g>
</svg>
