<?xml version="1.0" encoding="utf-8"?>
<svg version="1.1" id="Layer_1" xmlns="http://www.w3.org/2000/svg" xmlns:xlink="http://www.w3.org/1999/xlink" x="0px" y="0px"
	 viewBox="0 0 1100 1100" style="enable-background:new 0 0 1100 1100;" xml:space="preserve">
<style type="text/css">.st0{fill:#E4E6E7;}.st2{fill:#CACDCF;}</style>
<g>
     <path class="st2" d="M345.1,140c71.2-115.7,249.2-115.7,320.3,0l147.1,239.1l147.1,239.1c71.2,115.7-17.8,260.4-160.2,260.4H505.3
                            H211.2C68.8,878.6-20.2,733.9,51,618.2l147.1-239.1L345.1,140z"/>
                   
	<g class="st0">
		<path class="st1" d="M198.1,379.1l129.1-210c-50.3,12.2-95.4,45.9-116.5,98.2L116,501.1l-13.6,33.5L198.1,379.1z"/>
		<path class="st1" d="M505.3,878.6H211.2c-101.4,0-175.7-73.4-184.4-157.4l-5.6,13.8C-24.6,848.1,75.8,963.1,202,941.9l260.7-43.8l115.9-19.5
		H505.3z"/>
	</g>
</g>
</svg>
