<svg version="1.1" id="Layer_1" xmlns="http://www.w3.org/2000/svg" x="0" y="0" viewBox="0 0 1000 1000" xml:space="preserve">
  <style>
    .st0{fill:#e4e6e7}.st2{fill:#cacdcf}
  </style>
  <path class="st0" d="m156.6 801.5-11.3-10.9c-2.2-2-5.4-2.9-8.2-2.2l-15.2 3.8c-2.9.7-5.2 2.9-5.9 5.8l-3.9 14.9c-.8 2.9.1 6 2.3 8l11.3 10.9c2.2 2 5.4 2.9 8.2 2.2l15.2-3.8c2.9-.7 5.2-2.9 5.9-5.8l3.9-14.9c.8-2.9.1-6-2.3-8zm660-573.9c-40.3-49.2-11.5-72.8-11.5-72.8l9.3-8c13.4-9.1 28.3-9.9 45.5-12.8 11.7-1.9 23.1-5.6 32.9-11.2l10-5.2c17.5-11.6 15.8-35.3-3.8-47.4l-3.7-2.4c-24.8-15.4-58.4-11.2-73 10l-3.2 4.5-14.5 22.4c-9 14.3-32.1 16.9-47.7 5.5l-20.7-15c-24.3-14.4-55.7-5-61.3 18.4l-2.8 12c-3.1 13.1-21.9 16.8-34 7.1l-49.6-40.9c-15.9-13-40.7-23.2-58.4-14.2-46.3 23.5-45.8 62.9-203.1 64.9-77.8 1-151.2-60-192.8 9.1C97.4 213 107.9 457 107.9 457c-4.2 17.5 3.3 36.4 19.2 49.4l23.5 19.2c13.7 11.8 53.2 30.9 76.8 67.2 31.2 47.6 22.4 60.6 60.8 71.7 38.5 11.1 57.2 31.2 55.7 59.7-1 18.9-26.7 16.2-37.8 40.8-3.8 8.8-5.1 31.7 17 42.3 27.4 13.1 46.7-3.1 51.8-18.3 6.2-20 4.3-46.3 55.8-60.6 2.2-.4 4.4-.7 6.6-1.1l317.6-68.6c20-4.3 35.1-17.7 39.3-35.2l61.5-258.9c.9-2.4 1.6-5.2 2.2-8 18.1-75.8-7.5-87.9-41.3-129z"/>
  <path class="st0" d="M370.8 337.9c-21.3 44.7-46.8 31.4-46.8 31.4l-8.5-4.2c-10.5-6.8-15.8-17.3-23.2-28.9-5-7.9-11.2-14.9-18.1-20.2l-6.8-5.6c-13.6-9-29.4-.2-31.6 17.8l-.5 3.4c-2.9 22.8 10.7 45.8 29.9 49.6l4.1.9 20.1 3.4c12.7 2 21.9 17.9 18.9 32.7l-3.9 19.7c-2.3 22.1 14.2 41.8 32.1 38.5l9.2-1.7c10-1.9 18.5 10.5 15.6 22.3l-12.6 48.8c-4 15.6-3.2 36.8 8.6 46.7 30.9 26 58 13.2 109.1 126.2 25.3 55.9 6.2 128.3 67.2 136.4 54.2 7.3 219.9-77.6 219.9-77.6 13.5-2.5 24.2-13.9 28.1-29.5l5.9-23.1c3.9-13.6 4.6-48.2 22.3-76.8 23.1-37.6 34.9-35.4 30.5-66.7-4.5-31.3 3.6-51.2 23.7-59.2 13.4-5.3 19.6 14.2 40.2 14.4 7.3 0 23.6-6.4 24-25.7.4-24-16.9-32.8-29.1-31.6-15.8 1.9-93.4 61.2-50.6-61-.9-1.5-10.8 36.8-11.8 35.4L689 246c-9.3-13.1-23.3-19.8-36.8-17.2l-198.8 37.5c-2 .1-4.1.5-6.2.9-58.3 11-58.6 33.3-76.4 70.7z"/>
  <path class="st2" d="M816 266c-37.5-57.6-6.4-86.2-6.4-86.2l10-9.7c14.3-11 29.6-12.2 47.3-16 12-2.4 23.9-7 34.3-13.8l10.6-6.4c18.7-14.1 18.6-42.2-.5-56.2l-3.6-2.7c-24.1-17.9-58.7-12.3-75 13.1l-3.6 5.4-16.3 26.8c-10.2 17.1-33.9 20.6-48.9 7.4l-20-17.4c-23.7-16.7-56.4-4.9-63.7 22.9l-3.8 14.2c-4.1 15.6-23.5 20.3-35.1 9l-47.6-47.6C578.5 93.7 553.9 82 535.2 93c-48.8 28.8-51.2 75.4-211.6 80.6-79.3 2.6-149.7-68.5-197 14.2-42.1 73.5-49.2 362.8-49.2 362.8-5.5 20.9.7 43.1 15.9 58.2l22.6 22.4c13.1 13.8 51.9 35.7 73.4 78.4 28.3 55.9 18.4 71.5 56.7 84 38.4 12.5 56 36 52.4 69.8-2.4 22.4-28.3 19.7-41.5 49.1-4.6 10.5-7.5 37.7 14.2 49.9 27 15.1 47.8-4.5 54.1-22.7 7.7-23.8 7.8-55 61.3-72.9 2.3-.5 4.5-.9 6.8-1.4l328.5-87.1c20.7-5.4 37-21.6 42.6-42.4l81.5-308.3c1.1-2.9 2-6.2 2.9-9.5C872.5 328 847.4 314.2 816 266zM183.3 813.5l-16.4-16.1c-3.1-3-7.8-4.2-12-3.2l-22.2 5.7c-4.2 1-7.6 4.3-8.7 8.7l-5.9 22.2c-1.1 4.3.1 8.9 3.3 11.9l16.4 16.1c3.1 3 7.8 4.2 12 3.2l22.2-5.7c4.2-1 7.6-4.3 8.7-8.7l5.9-22.2c1.1-4.3.2-8.8-3.3-11.9zm116-749.6-12-1.7c-4.4-.7-9.2 1.4-11.6 5.2l-6.8 10.2c-2.4 3.8-3.2 9.1-1.4 13.2l5 11.4c2 4.6 6 7.7 10.6 7.8l12 1.7c4.4.7 9.2-1.4 11.6-5.2l6.8-10.2c2.4-3.8 3.2-9.1 1.4-13.2l-5-11.4c-2.4-4.4-6.4-7.5-10.6-7.8z"/>
  <path class="st2" d="m773.6 76.1 6.2 6.3c2.2 2.4 5.9 3.4 9 2.4l8.4-2.3c3.1-.9 5.9-3.4 6.7-6.4l2.3-8.6c.9-3.3 0-6.7-2.6-8.9l-6.2-6.3c-2.2-2.4-5.9-3.4-9-2.4l-8.4 2.3c-3.1.9-5.9 3.4-6.7 6.4l-2.2 8.3c-.9 3.3-.1 6.8 2.5 9.2zM845.4 698l20 19.9c3.1 3 7.8 4.2 12 3.2l27.2-7.2c4.2-1 7.6-4.3 8.7-8.7l7.2-27.2c1.1-4.3-.1-8.9-3.3-11.9l-20-19.9c-3.1-3-7.8-4.2-12-3.2l-27.2 7.2c-4.2 1-7.6 4.3-8.7 8.7l-7.2 27.2c-1.1 4.3.2 8.9 3.3 11.9z"/>
</svg>