<svg version="1.1" id="Layer_1" xmlns="http://www.w3.org/2000/svg" x="0" y="0" viewBox="0 0 1000 1000" xml:space="preserve">
  <style>
    .st0{fill:#e4e6e7}.st2{fill:#cacdcf}
  </style>
  <path class="st0" d="M50.4 110.9c-.5 1.6-1.5 2.7-2.2 4-1.3 2.2-.7 3.6 1.8 3.7 2.5.1 5.2-.2 7.5-1.1 3.1-1.2 5.8-3.2 8.7-4.8 1.6-.8 3.3-1.4 4.9-2.2.2.3.5.6.7.9-3.8 3.7-7.7 7.3-11.5 11 3.4 4.1 8.1 5.1 12.8 2.1 2.7-1.8 5.3-4 7.4-6.5 9.6-11.6 20.4-22.3 31.6-32.5 12.6-11.6 25.9-22.5 41-31.2.8-.4 1.3-1.2 1.9-1.9 2.2-2.6 4.1-5.5 6.7-7.7 3.9-3.3 8.4-6 12.5-9.2 2.1-1.6 3.8-3.7 5.7-5.5-.2-.2-.3-.4-.5-.6-1 .3-2.2.3-3.1.8-3.8 2.1-7.5 4.3-11.2 6.5l-8.4 5.1-.5-.5c.3-1.8.6-3.6 1.1-6.1-2.3 1.4-4.2 2.6-6.1 3.7-1.9 1.2-3.9 2.2-7 1.6 1.3-1.7 2.3-3.1 3.5-4.3 2-2 4.3-3.8 6.3-5.8 2.4-2.5 2.9-5.4 1.5-8.5-6.2-.4-10.3.9-15.9 5-3.9 2.9-7.7 5.9-11.7 8.6-4 2.6-4.1 2.4-7.8-.6-1.3-1.1-2.7-2.1-4.5-.5-7.2 6.3-15.4 11.1-24 15.3-.7.4-1.3 1.3-1.6 2.1-1 2.6-1.3 5.8-3 7.9-3 3.6-6.5 7.1-10.4 9.8-5.1 3.6-10.8 6.5-16.3 9.5-9.7 5.3-19.8 10.2-28.4 17.1-2.6 2-4.9 4.3-7.4 6.4v.5c3.1 1.1 5.4-.5 7.9-2 .9-.5 2.2-.5 3.3-.7.2 1.2.7 2.4.5 3.5-.1.9-.8 1.8-1.4 2.6-.8 1.1-1.9 2-2.4 3.2-.6 1.6-1.6 4-.9 5 .9 1.2 3.5 1.9 5.2 1.7 2.5-.2 4.9-1.3 7.3-2.3 2.2-.8 4.2-2 6.4-3.1zM607.8 149c-.6-3.7-1.8-6.6-6.6-6.3-1.2.1-2.5-.5-3.8-.7-1.8-.2-3.7-.3-4.8-.4-1 2.6-1.8 4.5-2.5 6.5 5.6.8 6.2 1.2 8 5.5 4.1-1.5 7.5 0 10.8 2.3-.2.4-.3.7-.4.9-.4.8-.7 1.7-1.1 2.5.9.3 1.8.7 2.8.7 14.5.5 28.6 3 42.3 7.7 3 1 3.1 1 2.9-2.2 2.3.4 4.6.7 6.8 1.1 2.3.4 4.6 1 7 1.5.2-2.9-3.4-1.7-4.3-3.9 1.3.1 2.4.3 3.5.1.7-.1 1.3-.7 2-1.1-.5-.6-.8-1.5-1.4-1.7-2.3-.8-4.7-1.2-6.9-1.9-1.1-.4-1.9-1.2-3.3-2.1 4 0 7.2.1 10.4 0s6.3-.5 9.6-.7c-3.3-6.6-20.8-9.2-29.4-6 0 .3-.1.6-.1.9-.1 4-.7 4.3-4.8 3.5-8.4-1.6-16.7-3.3-25.1-4.5-3.6-.5-7.3-.1-10.9-.1-.5-.8-.6-1.2-.7-1.6zm35.3 27.1c21 4.5 42.1 9.1 63.4 13.7-8.9-4.6-17.4-9.4-26.3-13.4-5.5-2.4-11.5-4-17.4-5.1-7.1-1.2-13.8.5-19.7 4.8z"/>
  <path class="st0" d="M898 527.5c-.4-1.4-.1-2.9-.1-4.6 1 .6 1.5 1 2 1.3-3.7-5.7-6.2-11.6-6.3-18.3 0-1.4-.3-2.8-.6-4.1-.7-2.5-1.8-3-4.4-2.4-1.4.3-2.8.6-4.4.9-7.1-25.4-16.9-49.7-29.2-72.7.4.5.9 1 1.3 1.4.4-.7 1.2-1.7 1-2.1-1.1-2.2-2.4-4.3-3.7-6.4-.4 1.3-.7 2.2-.8 2.9-2.8-5-5.6-10-8.6-14.8.7 1 1.4 1.9 2.1 2.9 1.4 1.9 2.9 3.7 4.4 5.5.2-.1.4-.3.6-.4-1.9-7.2-5.1-11.2-9-11.1-14.3-22.8-31.1-44-50.1-63.3.9 0 1.9-.1 2.9-.4.8-.2 2-1 2-1.3-.1-.8-.7-1.8-1.5-2.4-1-.7-2.3-1.1-3.5-1.7.5-1.2.9-2.3 1.3-3.5 4.9 3.2 9.8 6.2 14.5 9.3 3.8 2.6 7.6 5.2 11 8.1 2.5 2.2 4.4 4.9 6.6 7.5-.2.1-.4.3-.6.4-3-1.3-4-5.9-8.4-4.8-.2.3-.4.5-.6.8 2.5 2.3 5.1 4.6 7.6 6.9 3.3 2.9 6.6 5.8 9.8 8.8.6.5 1.3 1.7 1.1 2-2 3.3.5 5.2 2.1 7.4 1.3 1.9 2.9 3.8 3.5 5.9.5 1.9 1.3 2.8 3.2 3.2 3.4.7 7 1.2 7.5 5.5.1.5.6 1 1.1 1.4 1.2 1 2.4 1.9 4.1.5-1.6-3.8-3.2-7.7-4.8-11.4-3.6-8.4-8.2-16-18.2-19 1.9-3.2.4-5.2-2-7.2-2.1-1.7-4.6-3.4-5.7-5.6-1.5-3.1-3.9-5.3-6.3-7.6l-8.4-8.4c-8.8-8.7-17.7-17.3-28.3-24.1-5.4-3.4-11-6.3-17.4-7.9-.8 3.5-3.2 4.8-6.1 3-2.7-1.7-5.1-3.7-7.9-5.9-1.3.8-2.7 1-4.2.8-8.5-6.3-17.2-12.3-26.2-17.9 7.6 2 13.9 7.7 22.6 7.3-6-3.2-11.8-6.2-17.8-9.4-.4 2.2-1.7 1.7-3.2 1.1-.8-.3-1.7-.2-2.6-.3 0 .2 0 .5-.1.7-3.6-2.2-7.2-4.4-10.8-6.5-.9-.6-1.9-1.2-2.9-1.7-11.2-6.3-22.7-12.1-34.6-17.4.8.1 1.5.1 2.3.2-1.2-.8-2.1-1.4-3.1-2.1.5-.3.7-.4.8-.4.6 0 1.2 0 1.8.2 6.2 1.8 12.3 3.6 18.5 5.4.6.2 1.7.4 1.9.2.9-1.5 1.7-.8 2.7-.1.9.6 1.9 1.2 3 1.9-.1.2-.4.7-.8 1.5 8.4 3.8 16.8 7.5 25.6 11.5.2-1.4.3-1.9.4-2.7 10.5 5.2 20.7 10.4 31.7 15.9-.6-1.2-1-2-1.2-2.8-.2-.9-.2-1.9-.3-2.9.9.1 2 0 2.7.4 1.5.8 2.9 1.8 4.3 2.7 1.7.9 3.4 1.7 5.1 2.6-.4-1.4-1-2.5-1.9-3.3-4.3-3.8-8.6-7.6-12.9-11.3-6.3-5.4-11.9-11.2-10.2-20.1-17-7.4-28.5-13.8-32.6-18.2 2.7 1.1 4.9 2.2 7.2 3 2.3.8 4.8 1.3 7.2 2v-.4c-1.3-1.1-2.6-2.1-3.8-3.2.4-.5.7-.9 1.1-1.4 13.5 6 27 12 40.5 18.1.3-.3.6-.7.8-1-3.9-4.8-7.9-9.6-11.9-14.5.2-.2.9-.6 1.6-1.1-6.6-5.4-13.8-11.3-17.5-11.6-1.6 3.1 2.3 4.1 3 6.8-.9-.4-1.5-.7-2.1-1-7.9-3.8-15.5-8.1-23.6-11.2-22.6-8.8-45.4-17.2-68.1-25.7-2.6-1-5.7-1.3-5.5-4.9-3.1.5-5.8.9-8.3 1.2-2.5-.9-4.9-1.8-7.3-2.7-.1-.2-.1-.4-.2-.6 4.2-1.3 8.4-2.6 12.5-3.9 3 3.3 6.3 3.9 9.6 1.4-4.7-1.2-8.9-2.3-12.8-3.3.8-.7 2.3-1.5 2.2-2.2-.1-.8-1.3-2-2.3-2.3-3.5-1.1-7-2.4-10.6-2.7-4.7-.4-9.5.2-14.2.3-5.4 0-10.5-.8-14.5-4.8-.6-.6-1.7-.8-2.6-.9-3.1-.3-6.2-.5-9.3-.5-3.4 0-6.7.3-10.1.3-3.2 0-6.3-.5-8.4-3.1-1-1.3-2.1-1.4-3.5-1.3-2 .1-4.1 0-6.5 0 2.5-2.8 4.5-3.2 13-2.6.5-3.1 1.2-3.6 4.5-3.6.9 0 1.9.2 2.8.3l10.8.9c.2 0 .4-.2.5-.4-.3-.6-.7-1.2-1.1-2 6.3 1.4 7.5 1.4 9.8-.8-5.5-.8-10.6-1.5-15.6-2.2.1-1.1.2-2.2.4-4-4.1 2.6-7.8 2-11.5 1.4-2.9-.5-5.4-.5-6.1 2.7-3.7-.7-7.2-1.3-10.6-1.9-3.5-.6-6.9-1.4-9.7-3.8.7-1.2 1.4-2.3 2.4-4 .9 3.4 2.9 3.9 5.4 3.2 3.6-.9 7.3-1.9 11.2-2.9-1-.4-1.9-.9-2.7-1.1-2.7-.4-5.5-.8-8.2-1-3.7-.3-7-1.3-9.2-4.7 7.3.6 7.4.6 8.2-2.2-8-2.9-18-1-20.2 3.6 1.2.6 2.5 1.2 3.7 1.7l-.3.9c-1.7 0-3.4.2-5.1-.1-.6-.1-1.5-1-1.6-1.7-.5-2.9-.7-3.1-4.5-2.2.8 1.1 1.5 2 2.3 3.1-3.5 1.4-7 2.8-10.2 4.1 1.9 1 3.6 1.7 5.1 2.8 1.6 1.2 3.2 1.8 5.2 1.2.7-4.2.8-4.4 2.8-4.2 2.3.2 3.6 2.1 3.5 5.1-.5 0-1.1-.1-1.5.2-.9.6-1.6 1.4-2.5 2.1.7.6 1.4 1.6 2.2 1.8 2.4.5 4.9 1 7.4 1.1 6 .3 12.1.2 18.1.6 2.7.2 5.3 1.3 7.9 1.9-.1.4-.2.7-.2 1.1-5-.2-10.1-.4-15.3-.7-2.4 4.5-7.1 1.8-10.9 2.6 0-1.5 1.1-3.3-1.6-3.1-6.9.5-13.8 1-20.7 1.4-1.6.1-3.6.4-4.9-.3-1.3-.6-1.9-2.4-2.8-3.7-7.1 4.3-15.4 5-19.5 1.7.9-.5 2.2-.9 2.6-1.7.3-.6-.6-1.7-1.1-2.8 8.2.7 16.1.8 24.3-1.1-1.8-1.8-3.8-2-5.9-1.6-2.5.5-5 1.2-7.6 1.5-1.6.2-3.3-.2-4.9-.4v-.9c1.4-.3 2.8-.4 4.1-.8.8-.3 1.4-1 2-1.5-.7-.5-1.4-1.3-2.2-1.4-1.8-.2-3.6-.1-5.3-.1-.9 3.6-.9 3.6-4.8 3.3-1-.1-2.1 0-3.4 0 .5 1.6.9 2.7 1.3 3.7-2.3.7-4.3 1.4-6.4 2-3.2 1-4.4.6-5.1-1.5 6.9-.3 9.7-3.1 8.8-6.6-2.2-.2-4.5-.4-6.8-.6.5-.7 1-1.4 1.5-2.2-6.8-2.6-15.3-1.6-17.7 2.4 1.8.1 3.4.2 4.9.2 1.8 0 3.6-.3 5.4-.3 1.6.1 2.7.8 2.6 2.9h-8.2v5c.2.1.4.2.7.3.8-.9 1.4-1.9 2.3-2.5.7-.5 1.8-.9 2.7-.8.4.1 1.1 1.7.8 2.1-.8 1.1-1.9 2.2-3.2 2.7-1.8.7-3.8.7-6 1.1-.2-.9-.4-1.8-.5-2.5-2.2.1-4.3.6-6.3.2-1.7-.3-2.7-.1-3.9.9-6 5.1-11.9 10.2-18 15.3-.7.6-1.7 1.2-2.6 1.3-6.2 1.1-12.5 1.9-18.6 3.1-16.5 3.2-32.5 7.8-46.6 17-.4.3-1 .7-1.3.6-4.3-.8-7.4 1.5-10.7 3.5-1.6 1-3.5 1.4-5.8-.5 4.9-2.2 9.5-4.2 14.2-6.3-.8-1.7.4-2.7 2-3.4 1.4-.5 2.8-.9 4.1-1.6 1.2-.6 2.2-1.5 3.3-2.3-.1-.2-.3-.4-.4-.6-10 1.4-19.6 4.2-28.9 7.5-.4-1.5-.6-2.9-1.1-4.1-.6-1.5 0-2.2 1.5-2.7 5.1-1.8 10.2-3.7 15.2-5.5 3.2-1.2 6.4-2.3 9-3.3 1.5 1.5 2.6 2.9 4 3.9 1.5 1.1 3.2 2 1.5 4.6 2.3-1.6 2.5-2 2.6-4.9.1-3.6.6-4 4.1-4.1 1-3-2.8-1-3.1-2.9 12.5-2.5 24.6-6.3 36.2-11.3-13.9 1.9-27.4 6.3-42.4 4 7-1.8 13.3-3.3 19.6-4.9 0-.2-.1-.4-.1-.6-3.6-.5-7.6 1.5-11.4-1 1.8-.6 3.2-1 4.8-1.5-1.7-2.7-5.9-1.1-6.8-4.3 3.7-.8 7.4-1.3 10.9-2.3 8.2-2.2 16.2-5.2 25-5 2.5.1 3.9-1.8 5-4-4.8-1-4.8-1-4.1-3.9 8.7.7 15.8-4.2 23.9-6.2-.7-.8-1.3-1.4-2.3-2.5 5-1.4 9.4-3.2 14-4 14.7-2.4 29.5-4.3 44.3-6.5 5.5-.8 10.9-2.1 16.3-3.2-6.7-2.8-6.7-2.8-6.1-6.1 1.9 0 3.9.1 5.9 0 1.9-.1 3.7-.2 5.6-.4v-.8c-15.6-5.3-32-6.9-48.2-9.8 3-2.8 7.2-.6 10.5-2.4-.6-.6-1-1-1.6-1.5 2.4-.5 4.5-1 6.2-1.3-3.2-1.2-6.7-2.4-10-3.9-4.2-1.9-8.3-4.2-12.5.2-.6-.9-1-1.4-1.3-2-1.9-4.1-2.1-4.2-6.5-2.4-2.6 1-5.1 1.7-8.2 1 1.3-2.4 0-3-2.1-3.3-1.6-.2-3.1-.8-4.6-1.2.1-.2.1-.5.2-.7l5.1-2.7c-.1-.3-.1-.6-.2-.9-3.5-.6-6.9-1.5-10.4-1.7-7.8-.5-15.5-.7-23.3-1.1-2.3-.1-4.7-.6-7.1-.9.9-1.9 1.6-3.5 2.4-5.2-2.4-.5-4.2-1.2-6-1.1-17.8 1.4-35.7 2.7-53.4 4.6-17.2 1.8-34.2 4.6-51.4 6.5-15.6 1.7-30.8 4.8-45.6 9.8-11.9 4-23.9 7.8-36.6 8.4-1.5.1-1.9.9-1.6 2.2.1.6.3 1.2.4 2-.9-.1-1.6.1-2-.2-2.1-1.2-4.1-.7-6.2.2-3.7 1.5-7.5 2.9-11.2 4.6-16.7 7.8-31.6 18.1-45.7 29.6-3.6 2.9-7.2 5.7-11.4 6-1 1.6-1.4 3.2-2.5 3.9-7.9 5.4-16.2 10.3-24 15.9-7.3 5.2-13.3 11.6-16.5 19.8-1.1 2.7-1.7 5.7-2.5 8.5.3.1.5.3.8.4 1.4-.8 2.6-1.9 4.1-2.3 1.3-.4 2.8-.1 4.5-.1 1.2-3.6 3.2-5.1 7-4.7-4.1 7.1-3.3 13.7 2.1 19.8 3.2 3.5 3.9 3.6 8.4 1.7 1.4-.6 2.9-1.3 4.6.7-2.8 2.7-5.5 5.4-8 7.9-.7 1.8-1.3 3.4-1.9 5 .2.1.4.2.5.3.6-.6 1.2-1.2 1.9-1.8 3.5-3.3 6.9-6.6 10.5-9.8 1.5-1.3 3.1-.9 3.7 1 .3.8.2 1.8.2 2.7-.2 2.2.1 4.1 2.5 4.8-2.1 3-3.9 5.9-6 8.6-1.9 2.5-4.2 4.7-6.3 7.1-.7.9-1.6 1.9-1.7 3-.6 6-2.9 11.2-7.2 15.4-3.6 3.6-7.6 6.7-11.3 10.1-4.4 4-8.9 8-13.1 12.2-2.7 2.8-2.4 3 .2 5.7-.5.9-1.3 1.7-1.6 2.7-1 3.3-1.9 6.6-2.6 9.9-.3 1.3.5 2.3 2.2 1.5 1.9-.8 2.3.1 2.3 1.6 0 2.9.4 5.8-.1 8.6-.6 4.3 1.7 6.4 5.4 7.8 1.5.6 3.1 1.2 4.7 1.5 3.8.8 7.7 1.3 11.5 2 4.3.8 8.5 1.8 11.6 2.5 1 4.2 1.5 7.4 2.5 10.4 1.7 5.4 1.5 6.4-3 9.5 3.3 1.8 5.2 1.4 7.8-2.1 1.4 1 3.4 1.7 2.4 3.9-3.5 7.6-7.5 15-14.1 20.7-1.8 1.6-3.9 2.9-5.9 4.4-.3-.2-.6-.5-.9-.7l5.1-9-.6-.3c-.4.3-.8.6-1.1.9-3.4 3.8-6.8 7.6-10.1 11.5-5.3 6.2-10.5 12.3-15.8 18.5-.4.5-.7 1.1-.9 1.7-1.7 4.8-3.2 9.7-5 14.5-5.1 13.8-10.6 27.5-11.3 42.5-.2 3.7-1.6 7-4.7 9.6-.5.4-.6 1.2-.8 1.9-.6 2.8-1 5.6-1.9 8.3-1.1 3.4-2.8 6.7-4 10.1-.8 2.4-1.2 4.9.1 7.5 1.4-1.2 2.6-2.6 4.2-3.4 2.2-1.2 3.3-2.4 1.6-4.7-.3-.4 0-1.2.1-2.3 1 .8 1.4 1.2 1.8 1.6.8-.4 1.5-.7 2.2-1 2.7 7.5 1.3 19.4-2.6 22.5-.5-.6-1-1.2-1.7-2-2.5 3.9-3.1 7.8-2.6 11.7 1.6-.4 3-.8 4.7-1.3.1 6.6-.8 12.8 3.6 18.4-3.1.2-4.3 1.6-3.4 4 .7 1.9 2.3 2.7 4.3 2.5.6-.1 1.7-1.3 1.6-1.6-1.5-3.1.4-5.3 1.8-7.7.5-.8 1.7-1.3 2.5-1.9-.7 4.1-1.5 7.7-1.9 11.4-.4 4.6-.4 9.2-.8 13.7-.1 1.5-.9 2.9-1.4 4.4-.1-.1-.2-.1-.4-.2-.6-3.3-1.1-6.7-1.7-10.2-1.8.4-3.3.9-4.8 1.1-4 .5-5.4 1.3-6.2 5.1-.6 3-.6 6.2-.8 9.3-.3 5.6.1 11.3-5.6 15 1.1.8 2 1.4 3.1 2.2-2.2.8-3.9 1.4-5.6 2 2.1 5.4 1.9 10.7 1.4 16.1-.1.6.3 1.3.4 2 .6-.4 1.2-.8 1.8-1.3.4-.3.8-.7 1.3-1 .3.5.9 1 .9 1.5-.1 1.7-.5 3.4-.7 5.1-.2 1.7-.4 3.3-.6 5.5 3-.4 5.4-.8 7.8-1.1 1.4 5.1-3.7 10.2.2 15.4.7-.9 1.1-1.7 1.8-2.3 2.1-1.9 4.1-4 6.4-5.7 1.8-1.3 3.8-1.1 5.8.6-5.1 2.7-6.3 7.1-6.4 11.9 0 .6.5 1.2.8 1.8.5-.5 1.2-1 1.6-1.6.3-.4.1-1 .3-1.4.5-.8 1.2-2.3 1.6-2.3 1.4.1 3.1.6 4.1 1.5.5.4 0 2.2-.5 3.2s-1.7 1.6-2.5 2.5c-1.4 1.5-.7 2.8 1.1 3.5 1.4.6 3.2 1.6 3.4 2.8.5 2.4.4 5 .1 7.4-.1.9-1.3 1.7-2 2.5-.4-.8-.8-1.6-1.3-2.3-.3-.4-.8-.7-1.1-1.1-.3.4-.8.7-1 1.1-.7 1.4-1.3 2.8-1.9 4.1-.6 1.3-1.2 2.6-1.9 4 4.2.4 7.9.7 11.6 1 2.4-4 3.3-4.5 5.6-3.8 1.5 3.2 2.6 5.9 4 8.4 1.9 3.5 1.8 4.7-.7 7.7-1.1 1.4-1.9 3.2-2.4 5-.5 1.6-.3 3.4-.4 4.7 1.9.2 4.1.4 6.2.6 1.7.2 4.4-.7 3.4 2.7 0 .1.3.4.4.6 2.8 3.3 4 7 3.6 10.6.8 1.3 1.5 2.1 1.8 3 1.5 5.5 2.4 11.1 4.3 16.4 1.3 3.7 2.2 7.2 1.7 11.1-.1.8.6 1.7.9 2.5 1.4-1.2 2.3-2.1 2.7-2.5-.2-1.8-.5-3.2-.6-4.6 0-1.5.2-2.9.4-4.4.7-4.6 1.6-9.1 2.3-13.7.3-1.7 0-3.5.1-5.2 0-.7.2-1.4.3-2.1h2.8c1.5 2.4 2.8 4.5 3.9 6.4 2 .4 3.8.7 5.7 1 .4-1.4.2-2.2-1.5-2-2.7.4-3.6-1.1-3.8-3.2-.2-1.7-.3-3.4-.4-5.3 1.4-.7 2.8-1.5 4.3-2.3l.6.6c-1 1.1-1.9 2.3-3 3.5 1.3.6 2.3 1.1 3.8 1.9-1.5.4-2.3.6-3.2.9 1.2 2.5 3.1 2.2 5.5 1.9l.9 3.6c-.2.7-.4 1.4-.8 1.9-1.1 1.6-6.3.9-8-.5-2 4.4-2 4.4.5 6.1.9-.3 1.8-.8 2.7-.8 1.7-.1 2.7-.5 3.4-2.2.4-.9 1.7-1.5 2.8-2.2.2.6.3 1.2.5 1.7-.1.3-.2.6-.4.9-.9 1.8-.4 6.4.9 6.6 2.1.4 1.8 1.6 2 2.8.6 3.6 1.9 7.2 1.2 10.9-.1.5.5 1.2.8 1.7.4.7.9 1.3 1.1 2 1.9 6.9 3.6 13.9 7 20.4.1.2 0 .6 0 .8-1.7-.4-3.2-.7-4.7-1.1-.1.2-.3.4-.4.7l2.1 3.5c2.1-1 4.1-2 6.2-3.1.3.8.7 1.6 1 2.4-1.1.6-2 1.1-2.9 1.6.1.3.2.5.3.8.9.2 1.8.4 2.7.5.6.1 1 .2 1.4.4.2.5.4.9.6 1.4-.1.3-.3.7-.6 1.2-.4.7-.5 1.5-.8 2.8 1.1-.6 1.8-.9 2.6-1.3.8 1.8 1.7 3.7 2.6 5.5 0 .2.1.4.1.6.5 2.2.4 4.4.6 6.6-.2-.2-.5-.4-.7-.6-1.1 1.2-2.3 2.3-3.4 3.5 1.1 1 1.6 1.4 2.3 2 .9-1.3 1.6-3.4 2.5-3.5 1.3-.1 1.9-.6 2.3-1.2 1.4 2.7 2.8 5.5 4.3 8.2-.1.1-.2.2-.4.3-.1.1-.1.3 0 .1l1.4 1.4c4.4 7.9 9 15.7 13.9 23.3-.1.2-.2.3-.3.5.4.3.9.7 1.3 1.1 6.1 9.3 12.6 18.3 19.5 27-2-.6-4-1.2-5.9-1.7l-.7.7c.7 1 1.4 2.7 2.2 2.7 1.5.1 3.2-.7 4.8-1.1-.1-.1-.1-.3-.2-.4 1.8 2.2 3.6 4.5 5.4 6.6-1.4.6-1.8 1.7-1 3.6.7-.8 1.3-1.5 2.1-2.4.9 1.1 1.9 2.2 2.8 3.3-.1.1-.2.2-.3.4.3.2.7.5 1 .7 0 0 0-.1.1-.1C272.2 914.8 381.7 968 504.3 968c82.6 0 159.3-24.2 222.6-65.5-1.1.7-2.2 1.5-3.3 2.2.9.3 1.6.5 2.3.7-.1.3-.1.6-.2.9-1.1-.2-2.3-.4-3.4-.5-10 5.9-20.2 11.9-29.7 17.6 1.3 1.9 2.7 3.7 3.7 5.6 1.1 2.2 2 2.6 4.2 1.3.7-.4 1.3-1 2-1.5-.2 0-.4-.1-.6-.1v-4.5c3.5 2 2.8 5.9 4.4 8.6-.7 1.1-1.4 2.1-2.5 3.6-2-1.5-3.8-2.9-5.9-4.6-1.2 2.5-2.5 4.9-3.9 7.7-.5.1-1.8.3-3 .5 0 .2.1.4.1.7h3.4c-3.1 2.5-2.5 4.3.1 6 .9.6 1.1 2.1 1.6 3.3 1.5-.8 3.1-1.6 4.7-2.4-.1-.2-.1-.5-.2-.7-.7-.2-1.4-.4-2.2-.6-1.4-.2-2-.8-2-2.3 0-3.2 3.3-5.4 6.5-4.3.7.2 1.6.2 2.2-.1 1.9-.7 3.6-1.7 4.8-2.2 1.2 1.3 2.1 2 2.8 2.9.5.6 1 1.6.7 2.2-.3.8-1.1 1.8-2.3.6-.3-.3-1.3 0-1.9.2-1 .2-1.9.5-3 .9.1-1 .1-1.7.1-2.3-.1 0-.2-.1-.4-.1l-.9 2.4c1.6.9 3.1 1.8 4.2 2.4 2-.8 3.6-1.5 5.3-2 2-.6 3-1.5 2.3-3.6-1-.1-1.8-.2-3-.3.4-1 .8-1.8 1.1-2.5-2.1-2.3-3.5-5.6-7.7-3.1-.9-4.5 3-3.9 5.3-5.1-1.1-2.6.3-4.5 2.3-6.3l.9.3c1.2.8 1.8 2.8 3.8 1.6 1.3-.7 2.5-1.7 3.6-2.7 1.2-1.3 2.1-2.7 3.3-4.2.6.5.9.8 1.3 1.1.6.6 1.2 1.2 1.7 1.8-.8.4-1.6.8-2.4 1.1-.9.3-2.3.3-2.6.8-1.6 2.8-2.8 5.8-4.2 8.7l.6.3c1-.7 2-1.3 3.3-2.2.3 2.1 2 3.9-.4 4.9-1.8-.4-3.3-.7-4.9-1-.2-1.1-.5-2.3-.7-3.2.7-1.2 1.2-2.1 1.7-3-.2-.3-.4-.5-.7-.8-1.9.6-3.8 1.2-5.7 1.7 0 .2-.1.4-.1.6 3.7 1.7 2.6 4.9 2.6 8 1.5-.5 2.6-.9 3.5-1.3 1.1.7 2.1 1.4 2.9 2 2.3-1.9 4.2-3.6 5.4-4.6-1.2-3-2-5.3-2.9-7.6.3-.2.6-.4.8-.6 1.8.6 3.6 1.3 5.7 2 .3-.7.8-1.7 1.2-2.6.2 0 .5-.1.7-.1.4.9.7 1.8 1.3 3.3 1.2-.7 2.3-1.4 3.7-2.2-2.9-2-3-2.3-2.4-4.8.1-.6.4-1.4.1-1.8-1.3-2.2-2.8-4.3-4-6.1-.6.4-1.3.9-2.1 1.4 0-.7.1-1.4.1-2.1-.7-.2-1.7-.6-2.6-.9 1.3-1 2.4-1.9 3.5-2.7 1.9 1.1 3.9 2.3 6.1 3.6.7-6.7 1.6-7 8.9-3.2 1.9-1.4 3.6-2.9 3-5.8-2.2.1-4.1.2-6.1.3-1.1.1-2.3.4-2.5-1.3-.2-1.4.1-2.4 1.8-2.6 2.6-.3 5.3-.7 8.5-1.2-.5-.7-1.1-2.3-1.9-2.3-1.7-.2-2.9-.4-3.8-2-.6-1.1-1.5-2.1-2.4-3.3 3.6-2.6 7.1-5.2 10.6-7.9-.1.6.1 1.3.4 2 .4 1 .3 2.1.4 3.8-2-.6-3.4-1-5-1.5-.3 1.2-.7 2.5-1.2 4.3 2.2-2.8 2.8-2.7 4.1.2.6-.1 1.3-.1 1.8-.2.3 1.4.6 2.7.8 3.5 2.2-.6 3.9-1.4 5.6-1.4 3.9.2 4 .3 5.8-3.5-2.4-.8-4.9-1.6-7.3-2.5l-.3.6 1 2c-1.6.2-3 .4-4.9.6 1.6-2.2 2.9-3.9 4-5.5-.2-1-.9-2.1-.5-2.9.4-.9 1.6-1.4 2.6-2.3-.5-.6-1.1-1.1-1.7-1.7.5-.4 1.1-.9 1.6-1.3-.1.5-.2 1.1-.2 1.8l3.4-1.7c.1 1.2.3 2 .1 2.8-.2 1.1-.9 2.2-1 3.3-.1.8.2 1.9.8 2.5 1.3 1.4 2.8 2.5 4.3 3.7.9.8 1.8 1.5 2.8 2.2.2-.1.4-.3.6-.4-.8-2.8-2-5.6-2.4-8.4-.4-2.7.2-5.5.3-8.5-1.2.4-2.1.8-3.1 1.1v-2.9c2.7-2.3 5.4-4.7 8.1-7 .8-.4 1.5-1 1.9-1.7.7-.6 1.4-1.3 2.1-1.9 1.4 3.6-3.3 3.4-4.3 5.7h5c.1.2.1.5.2.7-4-.2-5.3 2.2-6 5.3-.4 1.5-1.1 2.9-1.7 4.3.5.5 1 1.1 1.6 1.8.8-.2 1.7-.6 2.5-.5 1 .2 2 .7 3 1.1-.4.7-.8 1.3-1.1 2-.2.4-.3.9-.5 1.6 1.4.1 2.6.2 3.9.3-.4-2.7-.7-5-1.1-7.4 3.6-3.6 3.6-3.6 4.6-3.1-2.3 2.1-2.3 2.8-.7 3.6 1.1-1 2-1.8 3.1-2.8-.6-1.5-.2-2.6 1.7-3.4.7-.3.9-1.6 1.3-2.5-.2-.1-.5-.2-.7-.3-.7.6-1.4 1.1-2 1.6-1.4-1.6-2.6-3-3.9-4.5 2.7-.3 4.7-.5 6.1-.6 1.6 1.2 2.8 2 4.6 3.3-.3-3.7 2.2-2.2 3.8-2.9-1.3-.5-2.3-1-2.6-1.1.1-1.9.4-3.4.1-4.7-.3-1.6-1.1-3.1.3-4.6.3-.3-.3-1.4-.6-2.7-1.6 1.9-2.9 1.8-4.4.7-.4-.3-1.1-.4-1.7-.5l2.1-2.1c.8.5 1.5 1 2.2 1.5.4-1.2.7-2.1 1-3.1 1.2.5 2 .8 2.9 1.1-.2.2-.3.4-.5.5.4 1 .6 2.4 1.3 3 1.5 1.1 3 .4 4.5-1-2.6-.1-3.1-1.4-2.8-3.4.2-1.4 0-2.8 0-4.6-2.5 1.5-4.5 2.8-6.6 4 0-.1-.1-.1-.1-.2.8-.8 1.6-1.7 2.4-2.5 1.2-.5 1.7-1 1.5-1.6 1.8-1.9 3.6-3.8 5.3-5.7.3.4.6.7.8 1.1-.5 1.7-1 3.5-1.5 5.3-.7 3.1-.4 3.5 3 4.3 1.5-4 1.6-8 .2-11-.2-.5-.7-.9-1.3-1.2 1.4-1.5 2.7-3 4.1-4.6.1.1.2.2.3.2 1.1-1.2 2.1-2.4 3.5-4 .2 1.3.3 1.9.5 3 .9-.7 1.9-1.5 1.9-1.5-.6-.8-1.3-1.7-2.1-2.6 1-1.1 1.9-2.3 2.8-3.4 1.1-.2 2.2-1.4 3.4-1.8-.1.9-.2 1.5-.3 1.8.9.3 1.8.6 2.5.9.5-.7 1.1-1.4 1.7-2.3-4.4-1-1-3.8-1.6-5.8.5-.7 1.1-1.4 1.6-2.1 0 .3-.1.7-.1 1 .9-1.6 2-2.8 2.4-4 5-6.6 9.8-13.3 14.3-20.2.1.1.2.1.2.2.1-.4.3-.8.4-1.2 5.9-9 11.4-18.3 16.5-27.9h.7c0-.5 0-.9-.1-1.3 6-11.3 11.4-23 16.2-35h1.1c.1-.8.3-1.6.4-2.2-.1-.2-.3-.3-.4-.5 15.6-40.2 24.2-83.6 24.2-128.9 0-11.5-.6-22.9-1.6-34.2.4-2 .2-3.5-.5-4.5-1.8-16.4-4.7-32.5-8.7-48.2 1.8 4.5 4.4 8.8 8.2 12.5.7.7 1.1 2 1.1 3-.3 7.7 2.5 14.7 4.7 22.4 2.1-3.7 1.7-7.1.7-10.4-.8-2-2.1-4.9-2.9-7.9zM744.9 275c-2.1 1.3-2.1 1.3-12.3-2.4 3.5-2.4 8.9-1.3 12.3 2.4zm-21.2-9.4c-2.2-1.2-3.9-2-5.7-3 2.4-2.1 4.6-1.1 5.7 3zm-4.8.1c-5.3 1.1-7 .7-7.5-2 4.4-.6 6.5 0 7.5 2zm-9.1-4.3c-.4 1.8-1.1 2.2-3 1.1-1.6-1-3.1-2.1-5-3.4 3 .8 5.5 1.6 8 2.3zm-346.6-94.6c-2.4 2.7-5.6 2.1-8.5 2.6.2-3.1 2.3-3.7 8.5-2.6zM54.1 498.4c.3-1.6.3-2.8.7-3.9.1-.5.9-.8 1.3-1.2.4.5 1 1 1.1 1.5.1 1.6-.5 2.9-3.1 3.6zm-.7 92.3c-1.5-.4-2.8-.6-4-.9.9-1.2 1.6-2.2 2.5-3.3.6.1 1.4.4 2.7.7-.4 1.1-.8 2.2-1.2 3.5zm4.3-17.5c-1.3 2.2-2.8 4.4-4.5 6.5-.7-4.1 1.5-7.2 3.4-10.6 2.2 1.1 1.9 2.7 1.1 4.1zm650.5 349.6c-.8 0-1.6.1-2.4.1-.6-1.4-1.2-2.6-1.8-4.1 1.5.3 2.8.5 4.2.8v3.2zm6.2-3.4c-.9.7-1.9 1.6-2.9 2.4-.2-.2-.4-.4-.6-.5 1.2-1.2 2.2-2.9 3.6-3.3 1.6-.5 3.3.7 3.2 3.2-1-.6-2-1.2-3.3-1.8zm2.8-2c-.1-3 .4-3.5 2.7-3.8.3-1.4-2.3-3.3.4-4.2 1 1.3 1.9 2.5 2.9 3.8-1.7 1.2-3.7 2.6-6 4.2zm153.7-400.8c5 3.1 3.5 8.2 5.4 12.4-2.6-1.8-5.2-7.8-5.4-12.4zm-16.2-91.3c0 .6-.2 1.3 0 1.8l-.9-1.8h.9zm-4.3 54.7c1.4 2.4 2.8 4.7 4.2 7.1-.2.1-.5.3-.7.4-2.9-1.6-3.2-4.5-4.1-7.2l.6-.3zm-19.8-61.4c2.4 5.2 4.7 10.3 7 15.4-1.6.4-2.3.3-3.1-1.4-1-1.9-1.6-3.9-2.5-5.8-.8-1.5-1.8-2.9-2.7-4.4-.2.1-.5.2-.7.3-.1.4-.3.7-.4 1.1-1.5-.7-.6-2.7 2.4-5.2zm-18-7.2c3.3 1 3.7 4 5 6.4 3.7 6.8 7.6 13.4 10.9 20.3 2 4.2 3 8.8 4.6 13.2.4 1.1 1 2.2 1.8 3.2.7 1 1.7 1.8.1 3.6-2.5-4.1-5.1-7.9-7.1-11.9-3.9-8-7.3-16.2-11.1-24.2-1.6-3.3-3.8-6.2-5.6-9.4-.3-.5-.2-1.2-.3-1.8.5.1 1.1.4 1.7.6zm2.6 261.3c1.4 1.4 1.4 2.9-.3 5.3-1.4-1.7-1.2-3.3.3-5.3zm-.2-182.6c2.8 2.9 6 12.4 5.5 16.3-4.7-1.7-7.3-9.2-5.5-16.3zm2.8 241.6c.3.2.7.4 1 .7-.5.6-1 1.3-1.6 1.9-.1.1-.7-.2-1.1-.3.5-.9 1.1-1.6 1.7-2.3zm.2-11.3c-1.1-2.1-.3-4.6 3-10.2 1.9 3.3.5 8.1-3 10.2zm3-203.1c-.8-.5-1-1.8-1.3-2.6 2-.3 3.4-.5 5.5-.8-.5 1.1-.7 2.3-1.4 2.8-.7.6-2.3 1-2.8.6zM807.5 418c3.1 1.9 5.1 4.2 5.6 7.8-2.6-2.2-6.1-3.5-5.6-7.8zm0 40.9c1.1.6 2.1.9 2.3 1.4.4 1 .4 2.1.4 3.1 0 .2-1.3.6-1.4.6-.5-.8-1.1-1.7-1.4-2.6-.2-.6 0-1.2.1-2.5zm1.5 12.8c1.9 5.3 3.8 10.6 5.7 15.8l-.9.3c-2.5-3.9-5.8-7.5-6.5-12.3-.3-1.5.1-3 1.7-3.8zm-3.1 27.9c1.4-1 4.7.1 5.3 1.6.8 2 1.4 4.1 2.1 6.1-.2.1-.5.2-.7.4-.6-.8-1.5-1.6-1.8-2.5-.8-2.5-1.5-4.9-5.6-3.8.3-1 .3-1.6.7-1.8zm6.1 216.7c-.1.5-.2 1.2-.3 1.9H809v-5.6c.2-.1.4-.1.6-.2.3.7.6 1.4 1 2.1.3.6.9 1.1 1.4 1.8zm-83.2 117.9c-.3 2.6-1.7 3.8-4.2 4.4 1.5-1.6 2.7-2.8 4.2-4.4zm53.6-384.8c-2.2-2.4-4.3-4.3-6-6.5-.4-.5.4-1.9 1-2.9 1.8 3 5.4 5 5 9.4zm.2 321h.4l-1.3 3.9c-.7-.6-1.3-1-1.9-1.5.9-.8 1.8-1.6 2.8-2.4zm-41-358.9c3 1.3 1.9 4.5 3.5 6.9-4.6-2.1-5.7-4.4-3.5-6.9zm8.1 408.4c.4-1.6.8-3.1 1.2-4.6-.4-.5-.8-1-1.1-1.6-.1-.1.8-.9 1-.8.6.2 1.2.7 1.5 1.2 1.2 2.6 1.1 6.1-.2 9.5-2.7-.7-3-1.1-2.4-3.7zm3.4-4.4c.6-.7 1.2-1.4 2-2.2.8 2.2.6 2.6-2 2.2zm2 2.8c1.6-1 3.2-2.1 4.8-3.1l.6.9c-1.6 1-3.3 2-4.9 2.9-.1-.2-.3-.5-.5-.7zm3.5-9.7c-.2-.9-.3-1.5-.5-2.6-1.2 1.3-2.1 2.4-3 3.4-.1-.1-.3-.2-.4-.3.3-.4.5-.8.8-1.3-.4-.4-.8-.7-1.3-1.2.8-1 1.6-1.9 2.7-3.3 1.3 1.5 2.3 2.7 3.3 4 0 0-.9.7-1.6 1.3zm9.1-18.6c.3-1.3 1-2.6 1.4-3.7.1 1.7.5 3.3.2 4.8-.2 1.2-1.3 2.3-2.2 3.9.3-2.1.3-3.6.6-5zm3.4 1.1.9-.3c.3.6 1 1.2.9 1.8-.1 1.2-.5 2.3-2.5 2.3.2-1.3.4-2.5.7-3.8zm4.2-4.7c.7-1.3 1.6-2 3.1-.6-.9 1.2-1.8 2.3-2.9 3.7-1.3-.9-.8-2-.2-3.1zm.2 10.9c.3-.2.5-.3.8-.5 1 .8 1.9 1.7 2.9 2.5l-.5.5c-.7.1-1.4.1-2.4.2-.3-.9-.6-1.8-.8-2.7zm8.4-20.8v-2.9c1 .3 1.8.6 3.1 1-1.2.7-2 1.2-3.1 1.9zm.9-335.1c3.4-.3 6.3 3.2 8 9.5-.2.1-.3.2-.5.3-1.3-1.6-2.6-3.1-3.8-4.7-1.2-1.6-2.4-3.3-3.7-5.1zm1-7.7c2.1-1.4 4.4-.1 6-.2.3 2.1.6 4 1 5.9-2.3-1.9-4.6-3.8-7-5.7zm6.6-2.2c-.5-3.7-3.5-4.1-6.4-4.7-1.6-.3-2.3-1.1-2.7-2.7-.5-1.8-1.9-3.5-3-5.1-1.4-1.9-3.6-3.6-1.8-6.4.2-.3-.4-1.3-.9-1.7l-.4-3.9c8.7 2.6 12.6 9.2 15.7 16.3 1.4 3.2 2.8 6.5 4.2 9.8-1.5 1.2-2.5.4-3.5-.5-.7-.3-1.2-.7-1.2-1.1zm-9.5-102.4c-4-2.3-7.9-4.5-11.8-6.7-.4-.3-.8-.7-1.2-1 4.5-3.7 12.8.4 13 7.7zm-141.3-85.6c5 .9 6.5 2.5 4.8 5l-7.5-2.7c1.1-.1 2.1-.7 2.7-2.3zm-27.5-55.3c-.2-.9-.3-1.7-.5-2.7 2.9-.7 2.6 1.8 4.4 3.4-3.2.3-5.7.8-8.2.5-1-.1-1.8-2-3.1-3.5 3.6-.8 4.1 4.1 7.4 2.3zm-3.9 48c3.4-4.7 11.1-6.3 15.3-3-1.4 3.2-4.5 2.7-7.4 3.4.8.2 1.5.4 2.3.4.8.1 1.6-.1 2.6-.1-1 1.5-1.7 2.5-2 3.2-5.5-1.6-11.1-3.1-16.8-4.5.5-.3 1-.7 1.5-.7 1.5.2 3 .8 4.5 1.3zM592 203.6c-5.8 2.6-11.9 3.9-18.3 3.5 5.4-4.3 11.9-3.6 18.3-3.5zm-20.2 3.5c-4.2 4.3-9.8 2.9-14.6 4.4 1-3 6.4-4.6 14.6-4.4zm-27.8 5.8c-2.2 2.1-4.9 2.6-8.5 2.8 2.7-2.8 5.7-2.5 8.5-2.8zM334.9 204c.2.3.3.5.5.8-1.3 3.8-5.2 4-8.1 5.5-.6-.7-1.1-1.3-1.9-2.4 3.2-1.3 6.4-2.6 9.5-3.9zm-17.3 8c-.4 2.4-1.6 2.9-5.1 2.6.4-2.4 1.5-3 5.1-2.6zM110.7 670.8c-1.3.5-1.8 1.2-1.7 2.6 0 .7-.7 1.5-1.1 2.3-.3-.1-.5-.2-.8-.2l2.4-10.8.9-.3c.5.8 1.5 1.6 1.5 2.5.1 1.3 1 3.1-1.2 3.9zm7.8.3c-1.1-1.5-1.2-2.6-.2-4.7.2.6.4 1.3.6 1.9.6 3 1.3 5.9 2 8.8-.7-2.1-1.2-4.3-2.4-6zm456.3 252.2c-.2-.3-.4-.5-.6-.8 1-.7 2-1.5 2.9-2.2.2.3.5.5.7.8-1 .7-2 1.5-3 2.2zm17.2-4.2c-.6-.8-1.2-1.6-2-2.5.8-.4 1.4-.8 2.2-1.3.2 1.2.4 2.3.6 3.3-.3.2-.5.3-.8.5zm1.9-3.1c-.8-3-.6-3.5 1.7-4 .7 2.3.3 3.3-1.7 4zm6.7.2-.9-.3c.2-1.1.5-2.1.9-3.7.6.7 1.3 1.2 1.2 1.4-.2.9-.8 1.8-1.2 2.6zm0-5.8c1.6-.6 2.7-1 4-1.4-.4 2.1-1.1 2.4-4 1.4zm11.4 13.8c-1.2.1-2.4.9-3.6 1.3-.7.2-1.5.2-2.3.3v-.5c1.5-1 3-2 4.6-3-.1-.1-.2-.3-.3-.4 1.1 0 2.2.1 3.4.1 0 1.2-.1 2-1.8 2.2zm.1-8.3c-2-3-1.5-3.6 3.2-5.6.5 2.8-2.5 3.4-3.2 5.6zm1.2-6.2c-.2-.2-.4-.4-.6-.5.8-1.2 1.6-2.5 2.6-4 .6.6 1 1.1 1.7 1.7-1.4 1.1-2.6 2-3.7 2.8zm9.7-7.9c1.4.3 2.5.6 3.7.8.8.1 1.6.1 2.3.1-.5-.5-1-1.1-1.5-1.6-.1-.1-.1-.2-.4-.7 1.2-.2 2.3-.4 3.7-.7 1-1.9 3.7-2.1 5.9-3.1.2-.1 1.1.5 1.1.7-.1 1.4-.4 2.8-.5 4.1 0 .6.6 1.4.4 1.8-.9 1.6-2.1 3.1-3.6 4.4.3-1.5.7-3 1-4.5-.3-.1-.6-.1-.8-.2-.8 1.7-1.6 3.4-2.7 5.9-.9-1.1-1.5-2.2-2.4-3-2.3-2.1-3.4-1.8-4.7.9-.3.6-.9 1.1-1.5 1.5-.1.1-.8-.7-1.3-1-.5.3-.4.6.5 3.2-.9-.8-1.8-1.5-2.7-2.3.2-2.4 4.2-2.8 3.5-6.3zm11.4 16.5c-.1.2-.2.5-.3.7l-4.2-1.5c2.3-1.4 2.6-1.3 4.5.8zm-5.5-11.3c-1.2 1.4-1.1 3.7-4.4 3.6.5-1.7 1-3.5 1.6-5.4 1.1.7 1.9 1.2 2.8 1.8zm-6.1 8.4c-.8-1.2-1.5-1.9-1.4-2.1.6-.8 1.3-1.6 2.2-2.2.2-.1 1.2.8 1.8 1.2-.8.9-1.5 1.7-2.6 3.1zm4.1-2.2c1.1-.6 2.2-1.2 3.2-1.8.2.3.4.6.5.8-1.1.6-2.1 1.3-3.2 1.9-.1-.3-.3-.6-.5-.9zm2.4 10.1c1.2.1 2.3.2 3.5.2-1.1 1.8-1.7 1.8-3.5-.2zm3.4 6.8c-.2-.1-.5-.2-.7-.2-.1-.7-.4-1.6-.1-1.9.5-.5 1.4-.5 2.2-.7.2.3.3.5.5.8-.6.7-1.3 1.4-1.9 2zm9.9-19.5h-4.4c.7 1 1.1 1.7 1.9 2.9-1.2-.2-2.2-.4-3.1-.5-.4-.1-.9-.4-1.3-.3-1.4.1-2.4-.4-2.3-1.8.1-1.6 1.3-2.3 2.8-2.5 1.6-.2 3.2-.2 4.9-.3.4 0 .8-.3 1.6-.6-.7-1.1-1.3-1.9-1.8-2.9-.6-1.1-1.3-2.3-1.5-3.5-.1-.6.5-1.7 1-2 2.1-1 3.1-2.6 3.3-4.7.2-.1.4-.1.6-.2.8 1.2 1.6 2.4 2.4 3.7-3.2 1.3-3.1 1.3-2.6 4.4.2 1-.2 2.1-.4 3.6.8.9 1.8 2.2 2.9 3.5-1.2 1.1-3.6.9-3.2 3.3-.3-.7-.5-1.4-.8-2.1zm.9 4.3c.8-.4 1.5-.7 2.4-1.1.4.7.7 1.4 1 2-1.9 1.1-2.3 1-3.4-.9zm8.2-9c-.3-2.5-.5-5.1-.7-7.9-.7.1-1.7.3-3 .5.2-1.8 3.5-2.9 1.4-5.1-.8.5-1.7 1-2.7 1.7-.4-1.1-.6-1.8-1-2.8 2.6-1.3 5.2-2.8 7.9-4 .7-.3 2.4.3 2.6.8.3.8-.2 2-.6 2.9-.2.4-.9.6-1.6 1 .5.8.9 1.5 1.3 2.2l-2.1 3c.3.5.7 1 1.2 1.6-.7.3-1.2.5-2.1.9.6 1.3 1 2.7 1.8 3.8.8 1.1.4 1.7-.5 2.2-1 .6-1.8.3-1.9-.8zm5.9 7.5c-1.3-1.3-2.3-2.3-4.2-1.1-.1.1-.5-.3-1.1-.6 1.2-.8 2.1-1.4 3-1.9 1.3.9 2.6 1.9 4.3 3.1 0 1-.7 1.8-2 .5zm38.1-26.2c-.4-1.2-.1-2.6-.1-4 .2 0 .3 0 .5.1.8 1.5 1.5 3 2.6 5.2-1.4-.6-2.8-.8-3-1.3zm1.8-17.8c.2 1.4 1.2 1.1 2.1 1.1 1.7-.1 3.4-.2 5.2-.2.5 2.4-1 3.7-2.6 5-6.3-3.3-7.1-3-7.7 2.7-1.9-1.1-3.6-2.1-5.2-3.1-.9.7-1.9 1.5-3 2.3.7.2 1.6.5 2.2.7 0 .7-.1 1.2-.1 1.8.7-.4 1.3-.9 1.8-1.2 1 1.5 2.3 3.4 3.5 5.3.2.4 0 1.1-.1 1.6-.5 2.1-.4 2.4 2.1 4.1-1.2.7-2.1 1.3-3.2 1.9-.5-1.3-.8-2.1-1.1-2.9-.2 0-.4.1-.6.1-.4.8-.8 1.7-1.1 2.3-1.8-.6-3.4-1.2-4.9-1.8-.2.2-.5.3-.7.5.8 2 1.5 4 2.5 6.6-1.1.9-2.7 2.3-4.7 4-.7-.5-1.5-1-2.5-1.7-.7.3-1.7.6-3 1.1 0-2.7 1-5.5-2.3-6.9 0-.2.1-.4.1-.5 1.6-.5 3.3-1 4.9-1.5.2.2.4.4.6.7-.5.8-.9 1.6-1.5 2.6.2.7.4 1.8.6 2.7 1.4.3 2.6.6 4.2.9 2.1-.8.6-2.4.4-4.2-1.1.7-1.9 1.3-2.8 1.9-.2-.1-.3-.2-.5-.3 1.2-2.5 2.3-5 3.6-7.4.3-.5 1.5-.4 2.2-.7.7-.3 1.4-.6 2.1-1-.5-.5-1-1.1-1.5-1.6-.3-.3-.6-.5-1.1-.9-1 1.3-1.8 2.6-2.8 3.6-.9.9-1.9 1.7-3.1 2.3-1.7 1-2.3-.7-3.3-1.4-.2-.2-.5-.2-.8-.3-1.8 1.5-3 3.1-2 5.4-2 1-5.3.6-4.6 4.4 3.6-2.2 4.8.6 6.6 2.6-.3.6-.6 1.3-.9 2.1 1 .1 1.7.2 2.5.3.6 1.8-.3 2.6-2 3.1-1.4.4-2.8 1.1-4.6 1.7-.9-.5-2.2-1.3-3.6-2.1.3-.7.5-1.4.8-2.1.1 0 .2 0 .3.1 0 .6-.1 1.1-.1 2 .9-.3 1.7-.6 2.6-.7.5-.1 1.4-.4 1.6-.1 1.1 1 1.8.2 2-.5.2-.5-.2-1.4-.6-1.9-.6-.8-1.3-1.4-2.4-2.5-1 .5-2.6 1.3-4.2 1.9-.6.2-1.3.2-1.9.1-2.8-.9-5.6 1-5.6 3.7 0 1.3.6 1.8 1.8 2 .6.1 1.2.3 1.9.5.1.2.1.4.2.6-1.4.7-2.7 1.4-4 2.1-.5-1-.6-2.3-1.4-2.9-2.2-1.5-2.7-3-.1-5.2h-2.9c0-.2-.1-.4-.1-.6 1.1-.2 2.1-.3 2.6-.4 1.2-2.4 2.3-4.6 3.4-6.7 1.8 1.4 3.4 2.6 5.1 3.9.9-1.3 1.5-2.2 2.1-3.1-1.4-2.4-.8-5.7-3.8-7.4v3.8c.2 0 .4 0 .6.1-.6.4-1.1.9-1.7 1.3-1.9 1.1-2.7.7-3.6-1.2-.8-1.7-2.1-3.2-3.2-4.8 8.2-4.9 16.9-10 25.6-15.1 1 .2 1.9.3 2.9.5.1-.3.1-.5.2-.8-.6-.2-1.2-.3-2-.6 2.4-1.6 4.7-3.2 7.1-4.8.8 2.8-3.6 4.2-1.4 7.5.9-2.9 3.3-4.8 2.4-7.8 0-.1.7-.4 1.1-.5.6-.2 1.7-.3 1.7-.5-.1-2.1 1.8-2.7 3.1-3.6.8-.6 1.5-1.3 2.2-1.8.8 1.1 1.7 2 2.3 3.1.7 1.3 1.8 1.5 3.3 1.7.6.1 1.1 1.4 1.6 2-2.8.4-5 .7-7.3 1-1.4 0-1.6.8-1.5 2zm12.3-2.6c1.3-.4 2.4-.7 3.5-1.1 2.2-.8 2.5-.7 2.9 1.7-2.7 1.2-5.5 1-6.4-.6zm4.6-4.8c-1.4-.1-2.9.7-4.8 1.2-.2-.7-.4-1.8-.6-3-.4 0-1 .1-1.5.2-1.2-2.4-1.7-2.5-3.5-.1.4-1.6.7-2.6 1-3.7 1.4.4 2.6.8 4.3 1.3-.1-1.4 0-2.4-.4-3.2-.7-1.7-.3-2.9 1.3-3.8.9-.5 1.7-1.4 2.6-2.1.7.7 1.3 1.3 1.9 2-.9.7-1.9 1.2-2.2 2-.3.7.3 1.6.5 2.5-1 1.3-2.1 2.8-3.5 4.7 1.6-.2 2.8-.4 4.2-.6-.3-.7-.6-1.2-.8-1.7.1-.2.2-.3.3-.5l6.3 2.1c-1.6 3-1.7 2.9-5.1 2.7zm9.1-1.5c-.8-.6-1.6-1.3-2.4-1.9-1.2-1-2.6-2-3.7-3.2-.5-.5-.7-1.5-.7-2.2.1-1 .6-1.9.8-2.8.1-.7 0-1.4-.1-2.4-1.2.6-1.9 1-2.9 1.5-.2-3.7 3.1-4.3 4.9-6.1v3.2c.9-.3 1.6-.6 2.7-1-.1 2.6-.6 5-.3 7.4.3 2.5 1.3 4.8 2.1 7.3-.1-.1-.3.1-.4.2zm.6-7.5c.7-.8 1.2-1.5 1.7-2.1.7.6 1.4 1.1 2.2 1.7-1 1.5-2.2 1.4-3.9.4zm4.4 7.3c.7-.8 1.3-1.6 2-2.3.4.7.8 1.4 1.5 2.5-1.5.1-2.3.2-3 .3l-.5-.5zm7.1 46.9-.9.3c-.6-1-1.4-1.9-1.7-3-.1-.3 1.4-1 2.2-1.5.3.2.5.4.8.7-.2 1.2-.3 2.3-.4 3.5zm.6-9.4c0 .2-1.3.3-2 .6-.5.2-1.3.5-1.3.6 1.1 3.5-1.8 5.7-2.8 9-2.5-3.8 2.5-5.5 1.7-8.7 1.6-1.1 3.3-2.2 4.9-3.3-.3.4-.5 1-.5 1.8zm-1.8-44c2.6.5 2.5 2.1 2.2 3.2-.4 1.2-1.6 2.2-2.7 3.6-1.2-2.7.5-3.5 1.9-4.5-.5-.7-.8-1.4-1.4-2.3zm7.1 1.4c-1.9-.2-3.2-.9-3.1-3.1h4.6c-.6 1.2-1 2.2-1.5 3.1zm-5.9-3.2c-.7-.5-1.4-.9-2.2-1.5.9-.8 1.5-2.1 3.4-1.6.7.2 1.7-.6 2.5-1.1 1-.6 1.8-1.3 3-2.1.3 1.2.6 2 .9 3-3.7-1.1-4.9 2.7-7.6 3.3zm7.6-12.1c-1.5-1.1-2.5-1.8-3.9-2.8-1.1.1-2.9.3-5.2.5 1.1 1.3 2.2 2.5 3.4 3.9.5-.4 1.1-.9 1.7-1.4.2.1.4.2.6.2-.4.7-.6 1.9-1.2 2.1-1.6.7-2 1.7-1.5 3-.9.8-1.7 1.6-2.6 2.4-1.4-.7-1.3-1.3.6-3.1-.8-.4-.8-.4-3.9 2.7.3 2.1.6 4.1.9 6.4-1.2-.1-2.2-.1-3.4-.2.2-.6.3-1 .4-1.4.3-.6.6-1.1.9-1.7-.8-.3-1.7-.8-2.5-1-.7-.1-1.4.2-2.1.4-.5-.6-1-1.1-1.4-1.5.5-1.2 1.1-2.4 1.4-3.7.6-2.6 1.7-4.7 5.2-4.5-.1-.2-.1-.4-.2-.6h-4.3c.9-2 5.3-1.7 3.5-5.3 2.2-2.6 4.4-5.3 6.7-8 .3.1.6.2.8.3-.2 1-.5 2-.7 3h-.6c.4.7.9 1.4 1.3 2.1-1 .8-2.1 1.6-3 2.5-.1.1.5.7.8 1.2.6-.9 1.1-1.5 1.9-2.6.4 1.3.7 2.2 1 3h.4l.6-3.9c.2 0 .5-.1.7-.1.2.7.3 1.3.5 2s.5 1.3.9 1.9c.1.1 1.1-.1 1.1-.2.1-.6.1-1.3 0-1.9-.1-.8-.2-1.6-.3-2.5-.5 0-1.1-.2-1.8-.2-1.3 0-2.4-.4-2.1-1.7.1-.4 1.4-.7 2.3-1.1-.7-.4-1.6-.9-2.5-1.3 0-.2.1-.4.1-.5.7.2 1.6.2 2.2.6 1.3.9 2.4 1 3.8-.6.3 1.1.8 2 .5 2.3-1.2 1.3-.5 2.6-.3 4 .2 1.2 0 2.4-.1 4.1.3.1 1.2.5 2.3 1-1.1.4-3.2-1-2.9 2.2zm2.1-15.3c.1-.2.3-.3.4-.5-.7-.3-1.5-.6-2.5-1-.3.8-.5 1.6-.8 2.6-.7-.5-1.4-.9-2.2-1.5-.4.2-1 .4-1.6.7l-.3-.3c2.1-2.3 4.2-4.6 6.3-6.8 1.6 1.5 1.5 2-.3 2.8-.9.4-1.8.9-2.6 1.4l.6.9c1.7-1.1 3.5-2.1 5.7-3.5 0 1.5.1 2.7 0 3.9-.2 1.7.1 2.8 2.4 2.9-1.3 1.2-2.6 1.8-3.8.8-.8-.3-.9-1.5-1.3-2.4zm4.8 6.1c-.3.9-.5 1.7-.8 2.7-1-.5-1.8-1-2.7-1.5 1.2-2.1 3.1-3 5.1-2.2.7.3 1 1.3 1.5 1.9-.3.2-.6.4-.8.6-.6-.3-1.4-.8-2.3-1.5zm15.6-27.8c-.7-.2-1.4-.5-2.2-.7 0-.3.1-.8.3-1.6-1.7.5-2.9 2.7-4.8.7 1.2-2.4 3.4-1.7 6-1.4-.7-1.2-1.3-2.1-1.9-3.1.6-.3 1.5-.8 2.5-1.3 1.3 1.8-2.5 4.6 1.6 5.5-.6.7-1 1.3-1.5 1.9zm2.7-.8c1-1.6 1.8-3 2.8-4.3.3-.4 1.2-.3 1.9-.5.1.6.5 1.3.2 1.7-.9 1.7-2.1 3.2-4.9 3.1zm21.8 52.9c-1.1.5-2.6.8-2.7 1.2-.3 1.5 1 2 2.5 2 .7 0 1.5.1 2.1.2.1 1.1.2 2 .3 3 .1.7.1 1.5 0 2.2 0 .2-1.2.4-1.3.3-.4-.7-.7-1.5-1-2.3-.3-.8-.4-1.5-.6-2.3-.3.1-.6.1-.8.2-.2 1.5-.5 3-.7 4.6h-.5c-.3-1-.6-1.9-1.2-3.5-.9 1.2-1.4 2-2.2 3-.4-.6-1-1.4-1-1.4 1.1-1 2.3-1.9 3.5-2.9l-1.5-2.4h.7c.1-.6.3-1.1.4-1.7.5-.5 1-1 1.5-1.4.8.4 1.7.8 2.5 1.2zm6.7-105.7c-2.4.2-3.2-1-3.4-3 2.1-.5 3.6.8 3.4 3zm.3-287.7c-.5-.5-1-1-1.3-1.6-.2-.5 0-1.1 0-1.7-2.1.2-2.3-.1-1-4 1.1 1.8 2.3 3.6 3.2 5.5.2.4-.6 1.2-.9 1.8zm-1-26c0-1.4.6-2.3 2-2.2.9 2.5 1.7 4.6 2.5 6.9-2.4-.3-4.4-2.5-4.5-4.7zm11.3 281.9-3.9 3.9c-.6-1.5 1.1-3.7 3.9-3.9zm3 5.9c.5-.7 1-1.5 1.5-2.2.4.3.8.5 1.2.8-.5.7-1 1.5-1.6 2.1-.1 0-.8-.5-1.1-.7zm8.3 98.8c-.9-.1-1.7-.2-2.5-.3.4-.5.9-1.1 1.3-1.6.4.6.8 1.2 1.2 1.9zm4.6-187.5c-1.4-2.7-1-5 .1-7.3 1.8 1.5 1.8 4.4-.1 7.3zm5.1-11.7c-2.4-12.3-.6-24.5.1-36.8 1.5 12.3 1.6 24.6-.1 36.8zm.2-52.6c2.8 1 3.2 3.2 1.4 8.5-1.1-1.3-1.4-2.9-1.4-8.5zm-.9 129.2c-.8-4.5-.3-5.9 2.4-6.1-.1 4.7-.4 5.6-2.4 6.1zm2.9-15.9c-.8-1.2-1.5-2.2-2.2-3.4 1.1-2 2.9-1.3 5.3-1.3-1.1 1.7-2 3-3.1 4.7zm.4-140.1c0-.9-.3-2-.9-2.6-5.1-5.2-7.8-11.4-9.1-18 1.4-.3 2.7-.5 3.9-.8 2.2-.5 3.2-.1 3.8 2 .3 1.1.5 2.4.5 3.5.1 5.8 2.2 10.8 5.4 15.7-.4-.3-.9-.6-1.7-1.1 0 1.5-.3 2.8.1 4 .7 2.6 1.8 5.1 2.6 7.6.9 2.9 1.2 5.7-.6 9-1.8-6.6-4.2-12.7-4-19.3zm8.4-58.5c-1.5-1.4-3-2.9-4.8-4.6.2-.2.6-1 1.3-1.4 1-.7 2.1-.8 2.6.7.6 1.6 1.1 3.2 1.7 4.9-.3 0-.5.2-.8.4zM852 492l-3.3-4.5c2.1-1 3.7.9 3.3 4.5zm5.2 5.5c0 .4-.5 1-.8 1.1-.5.1-1.4-.2-1.5-.5-.3-.9-.6-1.9-.4-2.8.2-.6 1.2-1.1 1.9-1.6.2.2.4.3.6.5.1 1.1.3 2.2.2 3.3zm25 55.7c2.7 1.9 1.8 4.7 2.3 7.2-2.1-2.1-2.3-4.6-2.3-7.2zm8.1 46.8c-1.9-5.3-3-10.5-2.4-16 2.8 2 4.1 10.9 2.4 16zm-1.8-17c-4.2-3.7-2.4-8.4-3.7-12.6 2.9 1.1 3.2 2.3 3.7 12.6zm-16.4-213.1c.1.7 0 1.5.3 2.1 2.1 3.6 4.7 7.1 6.5 10.9 4.4 9.3 8.4 18.9 12.9 28.2 2.3 4.7 5.3 9.1 8.2 13.9 1.9-2 .8-3-.1-4.1-.8-1.1-1.6-2.4-2.1-3.7-1.8-5.1-3-10.5-5.3-15.3-3.8-8-8.4-15.8-12.6-23.6-1.5-2.8-2-6.3-5.8-7.4-.7-.5-1.3-.7-2-1z"/>
  <path class="st0" d="M92.7 214.2c.8-.7 1.8-1.3 2.5-2.2 1-1.2 1.8-2.6 3-4.2-2.2.3-3.9 1-4.8.5-.9-.5-.8-2.4-1.3-4.4-7.7 9-14.9 17.5-22.2 26 .2.3.5.6.7.9 2.1-.4 4.1-.8 6.2-1.4 2.6-.7 2.9-1.5 1.7-3.7-1.1-2.2-.6-3.3 2-3.4 1.8-.1 3.7.4 5.1.6.5-2.2 1-4.4 1.6-6.8-1.3 1.1-2.2 1.9-3.2 2.8l-.8-.8c1.7-1.7 3.3-3.4 5.2-5.3 1.2 3.8 1.6 3.9 4.3 1.4zm496.1-72.7c-1.6-2-.5-3.2 1.3-3.5 2.2-.4 4.6-.5 6.9-.2 2.6.4 5.1 1.5 7.6 2.2 1.6.5 3.1.4 4.8-1.4-8.2-2.9-15.9-5.7-23.9-8.5-1 1-2.3 2.4-3.8 4 1 .4 1.6.5 1.8.8.8 1.2 1.4 2.6 2.1 3.8-1.1.4-2.2 1.1-3.4 1.2-1.4.1-2.9-.5-4.3-.5-1 0-2 .5-2.9.8.1.2.1.5.2.7 4.5-.7 8.7 2.9 13.6.6zm206.6 124.2c-.6 1.8-1 3.3-1.5 4.7-.5 1.5-.2 2.2 1.4 3 2.6 1.2 5.1 2.7 7.3 4.5 2.8 2.2 5.1 4.9 7.8 7.1 2.2 1.8 4.7 3.1 7 4.7.2-.3.5-.5.7-.8-3.9-10.8-14.1-16.2-22.7-23.2zm.8 3c3.3-.2 3.2 2.9 5.1 4.2-2.7.8-4.6-.8-5.1-4.2zM649.7 948.1c1.1.9 2.1 1.8 3.2 2.7-1-3-1.1-3.3-.6-3.7.5.4 1.4 1.3 1.5 1.2.7-.5 1.4-1.1 1.8-1.8 1.5-3.2 2.8-3.5 5.4-1.1 1 .9 1.7 2.2 2.7 3.5 1.3-2.9 2.3-4.9 3.2-6.9.3.1.6.2 1 .3-.4 1.7-.8 3.5-1.2 5.2 1.7-1.5 3.1-3.2 4.1-5.1.3-.5-.5-1.4-.5-2.1.1-1.6.5-3.2.6-4.8 0-.3-1-1-1.3-.9-2.5 1.2-5.7 1.4-6.8 3.6-1.6.3-2.9.6-4.3.8.3.5.3.7.5.8l1.8 1.8c-.9 0-1.8 0-2.7-.1-1.4-.2-2.7-.6-4.3-.9.8 4.2-3.9 4.6-4.1 7.5z"/>
  <path class="st0" d="M681.2 949.5c-1.3-1.5-2.5-3-3.4-4 .2-1.7.6-3 .4-4.1-.6-3.7-.7-3.6 3-5.1-.9-1.4-1.9-2.8-2.8-4.2-.2.1-.5.1-.7.2-.3 2.4-1.5 4.3-3.9 5.4-.7.3-1.3 1.6-1.2 2.4.3 1.4 1 2.7 1.7 4 .6 1.1 1.3 2.1 2.1 3.4-.9.3-1.4.6-1.9.7-1.9.2-3.8.2-5.7.4-1.8.2-3.2 1-3.3 2.9-.1 1.6 1.1 2.2 2.7 2.1.5 0 1 .3 1.5.4 1.1.2 2.2.4 3.7.6-.9-1.4-1.4-2.2-2.2-3.4h5.1c.3.8.6 1.6.9 2.3-.2-3 2.7-2.7 4-4zm8.2-3c1.1-.6 1.6-1.2.6-2.5-.9-1.3-1.4-2.9-2.1-4.4 1-.5 1.7-.7 2.4-1.1-.6-.8-1-1.3-1.4-1.9.9-1.2 1.7-2.4 2.5-3.5-.5-.8-1-1.6-1.5-2.5.8-.5 1.6-.7 1.8-1.2.4-1.1 1-2.5.6-3.4-.2-.6-2.3-1.3-3.1-.9-3.2 1.3-6.2 3.1-9.2 4.6.4 1.2.7 2 1.1 3.3 1.2-.7 2.2-1.4 3.2-1.9 2.4 2.6-1.4 3.8-1.6 5.9 1.5-.3 2.6-.5 3.4-.6.3 3.2.5 6.2.8 9.2.3 1.1 1.3 1.5 2.5.9zm23-774.8c2.3 1.1 4.7 1.9 7.8 1-7.3-4.8-13-11.9-23.2-9.4v3.7c2.9.5 5.8.7 8.4 1.5 2.5.7 4.7 2.1 7 3.2zm121.4 141.2c2.2 3.1 3.2 3.5 7.3 2.3-2-3.1-4-6.2-6.2-9.2-1.1-1.6-2.4-3.2-3.9-4.6-1.8-1.6-3.9-1.6-5.9-.4 3 4.1 5.9 7.9 8.7 11.9zm49.6 168.2c.5-4.5-3.2-15.6-6.4-18.9-2.1 8.2.8 17 6.4 18.9zM778.5 300.7c6.3 4.7 10.8 11.3 19.3 13.3-2.5-5.6-13.6-13.2-19.3-13.3zm113.8 84.5c.2-.4.3-.9.5-1.3.3-.1.5-.2.8-.4 1.1 1.7 2.3 3.3 3.2 5.1 1.1 2.2 1.8 4.6 2.9 6.8 1 1.9 1.7 2.1 3.7 1.6-2.7-5.9-5.4-11.8-8.2-17.8-3.7 2.8-4.7 5.1-2.9 6zm-24.4 60.1c.8 5.6 4.6 9.7 7.6 14.3.3-.1.7-.3 1-.4-2.2-6.1-4.4-12.2-6.6-18.4-1.8 1-2.3 2.6-2 4.5zm-22.8-100.4c-.1.2-.2.5-.3.7 3.9 5 6.7 10.9 12.5 14.4-5.2-7.4-5.5-8.2-5-12.6-2.6-.9-4.9-1.7-7.2-2.5zM570.2 140c-1.9-3.6-12.5-4.8-17.6-2.1 6 .6 11.4 3.9 17.6 2.1zm391.4 431.3c-.7 6.4.5 12.5 2.8 18.6 2-5.9.5-16.2-2.8-18.6zM47.1 136.9c5.1 1.6 10.3-1.4 13.3-7-1.5-.5-3-1.1-4.7-1.8-1.2 4.4-3.3 7.9-8.6 8.8zm66.4 555.9c-.4 0-.7 2.2-.9 2.7 1.6.8 3.2 1.3 3.2 1.8.1 1-.8 2.1-1.4 3.4 4-1.2 2.5 2.4 4.1 3.5 1.7-1.1 1.5-2.5.9-4.1-.6-1.9-.9-3.8-1.3-5.7.2-.2.5-.4.7-.7-1.8-.3-3.6-.9-5.3-.9zM80.8 206.6c-3.6 4.6-9 8-11 14.1 2.3-2 4.3-3.8 6.3-5.5 1.6-1.4 3.3-2.6 4.8-4 1.5-1.6 1.4-2.8-.1-4.6zm772.4 125.6c-2-5.1-4.6-9.9-9.3-13.5.5 6.1 4.9 9.8 9.3 13.5zM121.9 712.5c-.1.4.8.9 1.2 1.4.3-.2.6-.3.9-.5-.5-1.2-.8-2.3-1.4-3.5-.8-1.7-.5-2.8 1.7-3 .2.8.5 1.4.7 2.1 1.2-2.4 0-3.6-1.7-4.3.5-2.3 1-4.4 1.5-6.5-.2-.1-.5-.2-.7-.2-.6 1.2-1.5 2.4-1.6 3.7-.1 2.2-.9 4-2.7 5.3-.8-.3-1.6-.5-2.4-.8-.1.2-.3.5-.4.7.8.6 1.5 1.5 2.4 1.9 1.6.8 3 1.6 2.5 3.7zm657-431.2c1.4 1.7 3.3 2.2 5.2 1.2-1.9-2-3.8-3.9-5.8-5.8-1.4-1.3-2.8-2.7-4.3-3.8-.8-.5-2-.5-3-.7 1.8 1.9 3.5 3.4 5 5.1 1.1 1.3 1.8 2.8 2.9 4zm16-40.3c3.7 3.6 5.4 4.8 8.3 4.6-2.7-2.8-5.6-5.3-8.5-7.8-.5-.4-1-.9-1.5-1.3-1.6-1.2-3.2-2.5-5.4-1.9 2.5 2.2 4.9 4.2 7.1 6.4zm167.4 329.1c-.6-11.9-.9-13.3-4.3-14.6 1.6 4.8-.5 10.3 4.3 14.6zm-81.9 159.7c4.1-2.4 5.8-8 3.5-11.8-3.9 6.5-4.7 9.4-3.5 11.8zM942 493c.2 5.3 3.2 12.4 6.3 14.5-2.3-4.9-.6-11-6.3-14.5zM724.3 215.4c-2.1-5-7.5-5.3-12-8.1 1.8 6.5 7.9 5.9 12 8.1zm-115.1-48.7c-1.4.1-3.2.2-3.4 2.4 6.2-2.8 11.1 3.1 17.1 2.3-2.4-2.7-10.6-5-13.7-4.7zM745 192.5c-2.1-.9-4.2-2.2-6.5-2.6-.8-.1-2 2-2.8 2.8 2.1 1.4 3.7 2.4 5.5 3.6-.6-3.1 2.2-2.1 3.8-3.8zm39.2 38.9c-3.1-4.1-7.4-6.7-12.2-8.6 2.9 4.4 7.1 7.1 12.2 8.6zM843 396.6c2.8 2.3 5.5 4.4 8.1 6.5-.4-2.2-.7-4.4-1.1-6.8-1.9.2-4.6-1.3-7 .3zm18.1-67.1c.4-.7.9-1.4 1.4-2.1 1.5-2.4 1.2-3-1.7-3.7-.3 1.1-.4 2.7-1.1 3.2-.8.6-2.3.1-4.5.1 1.7 1.9 3.1 3.3 4.8 5.1.5-1.3.7-2 1.1-2.6zM70.7 653.3v4.7c1.6-.1 3.2.1 4.6-.3.6-.2 1.3-1.8 1.1-2.3-.9-2.1-2.9-2.3-5.7-2.1zM789 878c-.9.5-2.1 1.5-2.9 1.3-2.3-.6-3 1-4 1.9.9.6 1.7 1.1 2.5 1.7 3.1-.7 4.5-5.1 8.8-3.7-.4-1.3-.6-2.2-1-3.5-1.3.8-2.3 1.7-3.4 2.3zm66.1-479.2c.1 2.6 2.4 5.1 5.3 5.5-1-2.6-1.9-5.2-2.9-8-1.7-.2-2.4.8-2.4 2.5zm46.3 50.5c-.8.5-1.3 1.4-1.5 1.7 2 1.9 3.8 3.6 5.6 5.3.3-.2.6-.4.9-.5-.6-1.9-1.3-3.8-1.9-5.7-.7-1.7-2-1.6-3.1-.8zm-26.6-61.8c-.6-4.2-2.9-6.9-6.6-9.1-.5 4.9 3.5 6.5 6.6 9.1zm11.4-24.5c-1.7-3.8-3.2-7.2-4.8-10.6-.2.1-.5.2-.7.2-.8 4.2 1.2 8.2 5.5 10.4zM42.3 539.2c.8-2.8 1.8-5.5-1-8.2-2.1 2.4-1.7 5.9 1 8.2zm406.4-399c-6-1.7-8.7-1.9-8.5 1.8 3 .2 6 .4 8.5-1.8zM655.5 951c3.9.1 3.7-2.6 5.1-4.2-1-.7-2-1.3-3.3-2.1-.7 2.3-1.2 4.3-1.8 6.3zm236.3-245.3c2.3-.6 2.7-1.6 2.7-7.1-3.1.2-3.7 1.8-2.7 7.1zm-763 31.6c-.4 0-.8-.1-1.2-.1-.9 1.8-1.9 3.6-3 5.6 2.6-.3 5.6 1.5 6.1-2.4-1.7-.3-3.6-.5-1.9-3.1zm653.7-519.1c-.8-2.6-2.7-4.3-4.8-4.3-1 0-2.1.6-3.1 1 .1.3.2.7.3 1 2.5.7 4.9 1.4 7.6 2.3zm110.1 465.1c.9 1.3 1.7 2.5 2.6 3.9 1.2-1.9 2.2-3.5 3.5-5.5-2.7.1-4.8-.7-6.1 1.6zM180.8 821.2c-2.9 1-2.6 3.7-3.7 5.5 2-.6 5.3 2 5.6-2.2-2.8-.9-2.8-.9-1.9-3.3zm458.6 143.4c-1.8 1.2-3.5 2.3-5.3 3.5v.5c.9-.1 1.8-.1 2.6-.4 1.4-.5 2.8-1.4 4.2-1.5 2-.2 2.1-1.1 2.1-2.5-1.4-.1-2.7-.1-4-.2.2.2.3.4.4.6zM826 819.8c-1.2 1.5-2 3.1-3.2 5 3.3.2 4.7-1.5 5.7-3.6.3-.5-.2-1.3-.3-2-.8.2-1.9.2-2.2.6zm-22.5 37.3c-2.3-1-4.5 0-5.9 2.5 1 .5 1.9 1.1 3.1 1.7.3-1.2.6-2.1.9-3.2 1.1.8 1.9 1.3 2.7 1.9.3-.2.6-.5 1-.7-.7-.7-1.1-1.9-1.8-2.2zm-44.7 41.7c-1.3.5-2.6.8-4 1.3 1 1.8 4.3 2.1 7.4.7-.5-2.8-.8-2.9-3.4-2zm125.1-405c.6.4 2.4-.1 3.2-.7.8-.6 1-1.9 1.6-3.2-2.4.4-4.1.6-6.4.9.5 1 .7 2.4 1.6 3zM641.1 957.1c.8-2.5 4.2-3.2 3.7-6.5-5.5 2.3-5.9 3.1-3.7 6.5zM30.2 165.4c-1.3 1-2.2 2.4-3.3 3.6.1.2.2.3.4.5 1.6-.5 3.4-.7 4.8-1.5.6-.4.6-1.8.9-2.7-1 0-2.2-.4-2.8.1zm657.7 786.9c.6.4 1.1.8 1.2.7 2.2-1.4 3.4-.2 4.8 1.3 1.5 1.5 2.3.5 2.4-.6-1.9-1.4-3.5-2.5-4.9-3.6-1 .6-2.1 1.2-3.5 2.2zm118-701.5c3 1.7 2.9 6.1 7.5 7.1-1.4-2.1-2.4-3.5-3.3-4.9-1.6-3-1.8-3.1-4.2-2.2zm119.2 215.5c-.8.6-2 1.1-2.2 1.9-.3 1 .1 2.2.5 3.3.1.4 1.2.6 1.7.5.4-.1.9-.8.9-1.2.1-1.3-.1-2.6-.2-3.9-.2-.2-.4-.4-.7-.6zm-7-15.9c-.2.1-.5.3-.7.4 1 3.1 1.4 6.5 4.8 8.4.3-.2.5-.3.8-.5-1.6-2.8-3.3-5.5-4.9-8.3zm-46.8-19.2c0-1.2 0-2.5-.4-3.6-.2-.6-1.4-.9-2.6-1.6-.1 1.4-.3 2.2-.1 2.8.4 1.1 1 2.1 1.6 3 0 .1 1.5-.4 1.5-.6zM78.2 202.9c3.2-.8 5.2-2.5 6-6-3.6 1-4.7 3.5-6 6zm576.2 748.6c-1 .6-1.9 1.6-2.5 2.5-.2.3.7 1.1 1.6 2.5 1.3-1.6 2.1-2.6 2.9-3.6-.7-.5-1.8-1.6-2-1.4zm300.7-416c-.1 3.1.2 6 2.6 8.3-.5-2.9.5-6.2-2.6-8.3zM433.4 163.1c1.8-2.7 6.2-.1 8-3.8-6.8.5-8.9 1.5-8 3.8zm347.5 46.2c.5.4 1.7.1 2.5.1l.3-.9c-1-1-1.9-2.1-3-2.9-.4-.3-1.5.3-2.3.6.8 1 1.5 2.3 2.5 3.1zm10.6 677.3c.5-1.1 1-2.2 1.7-3.6h-5.3c-.1 2.5 1.4 3.3 3.6 3.6zm-8.3-1.7c.7 1.2 1.1 1.9 1.6 2.7-1.6 1.1-3.5 2.1-2.2 5.3 1.3-1.6 2.7-2.7 3.1-4.1.4-1.4.5-3.4-2.5-3.9zM599.4 156.1c-.2 2.7 1.1 3.4 5.1 2.7-.5-2.5-1.8-3.1-5.1-2.7zm223.2 180.1c.5-3-.9-4.2-3-4.8-.8-.2-1.8.3-2.8.5 2.2 1.6 3.8 2.9 5.8 4.3zm-22.9-19.1c1.5 2.2 2.4 5.1 7.2 4-2.5-1.8-4.5-3.3-6.6-4.8-.3.4-.4.6-.6.8zM744 261.5c1.5-.7 2.7-1.2 4.1-1.8-2-1.2-3.6-2.1-5.1-3l-.6.6c.4 1.3.9 2.5 1.6 4.2zm-94.8-78.1h4.1c0-.6.2-1.6-.1-1.7-1.2-.7-2.5-1.1-4-1.7v3.4zm226.7 162.1c0-3.3-1.5-5.3-4.3-7.2.7 3.1 1.5 5.5 4.3 7.2zM154.1 793.6c.9-.9 1.8-1.8 3-2.9-.6-.5-1.5-1.3-2.3-1.9-2.5 1.4-2.6 3.1-.7 4.8zm654.3-559.4c-2.1-2.1-4.2-4.3-6.2-6.4l-.6.6c1.3 2.8 4 4.4 6.8 5.8zm60.3 100.4c.1-2.5-1.5-4.1-3.9-6 .9 2.8 1.6 4.9 2.4 7.5.4-.5 1.5-1 1.5-1.5zM105.9 708.2v3.6c1.6-.6 2.9-1.1 4.2-1.8.1-.1 0-1.2-.2-1.2-1.3-.3-2.6-.5-4-.6zm51.9 83.5c.1 1.9.1 2.7.2 4 1.7-.9 4.2.3 4.1-2.2 0-.6-2.4-1.1-4.3-1.8zm327-659c-.5 0-.9.8-1.3 1.2.5.4 1 1.1 1.4 1 1.7-.3 3.3-.7 5-1.1-.1-.4-.1-.7-.2-1.1-1.7-.1-3.3-.2-4.9 0zm349.6 673.1c-1.8-1.6-2.8-.7-3.6.7-.7 1.3-1.3 2.6.3 3.5 1.3-1.5 2.3-2.8 3.3-4.2zm81.7-346.6c1.3 1.8 2.5 3.5 3.8 5.2.5-4.2-1.3-6.4-3.8-5.2zM164.5 798.7c1.2 3.4 2.8 4.4 6 3-2.9-.3-3.1-3.8-6-3zm658.1-507.4c-.2.1-.4.2-.7.3l-.3 4.2h4c-1.2-1.8-2.1-3.1-3-4.5zm-84.5 627.8c0 1.6-.3 3.2.1 4.6.2.6 1.8.8 3.5 1.5-1.3-2.5-2.1-4.3-3-6.1h-.6zM620 957.2c2.3-.7 2.8-1.9 1.9-4.7-2.6.6-2.9 1.2-1.9 4.7zm131.2-658.4v-3.7h-2.9c-.9 2.5.5 3.4 2.9 3.7zM112.3 714.9c1.6 3.4 2.8 4 5.7 3-1.8-1.3-3.5-2.5-5.1-3.7-.2.2-.4.5-.6.7zm529.5 234.4c.2.2.5.4.7.6 1.3-1 2.6-2 4.2-3.3-.7-.7-1.2-1.3-1.9-1.9-1.1 1.7-2.1 3.2-3 4.6zm186.1-135.5c0-.7-.7-1.4-1.1-2.1-.3.1-.7.3-1 .4-.3 1.4-.5 2.9-.8 4.4 2.3 0 2.9-1.3 2.9-2.7zm-706-69.1c-.6.9-1.1 1.9-1.7 2.8.9.4 1.9.8 3.4 1.4-.3-1.8-.4-2.9-.6-3.9-.3-.2-.7-.2-1.1-.3zm17.1 13.9c.8-1.4 1.4-2.3 2.3-3.8-1.8-.2-3.2-.4-4.4-.6.7 1.5 1.3 2.7 2.1 4.4zm668.3 85 .6.9c1.9-1.1 3.8-2.3 5.7-3.4-.2-.4-.5-.7-.7-1.1-1.8 1.2-3.7 2.4-5.6 3.6zm-633.2-14.9c-.6.9-1.2 1.8-1.9 2.8.9.5 1.7.9 3.3 1.8-.2-1.9-.2-3-.3-4.1-.3-.3-.7-.4-1.1-.5zM771.3 884c1.9 1.1 3.3 1.3 4.5-.5-.9-.7-1.7-1.3-2.5-2-.6.8-1.2 1.5-2 2.5zm-104.5 76.7c.1-.3.2-.5.3-.8-2.3-2.4-2.6-2.5-5.2-1 1.6.6 3.2 1.2 4.9 1.8zM195.4 844.1c.3.3.6.7.9 1 1.7-1.3 3.3-2.7 5-4-.2-.3-.4-.5-.7-.8-1.7 1.3-3.5 2.6-5.2 3.8zM831 819.2c.3 1.1.5 2.1.8 3.2 1.1-.1 2-.2 2.8-.3l.6-.6c-1.1-1-2.2-1.9-3.3-2.9-.3.3-.6.4-.9.6zM677.6 955.9c1.3 2.3 1.7 2.4 3.9 1.1-.4-.7-.7-1.5-1.1-2.3-1.1.5-1.9.8-2.8 1.2zm-62.2 2c.9 1.1 1.6 2 2.3 2.9.3-.2.7-.4 1-.6-.2-1.2-.5-2.4-.7-3.8-1 .6-1.7 1-2.6 1.5zM173.3 810.1c.1 1.2.2 2.4.2 3.6 1.3-.2 2.3-.3 3.3-.4-1.1-1.3-2-2.4-3-3.5-.1.1-.3.2-.5.3zm603.1 82.4c.2.2.3.4.5.5.9-.1 1.8-.2 3.5-.3-.8-1.3-1.3-2.1-1.7-2.9-.7.9-1.5 1.8-2.3 2.7zM121.2 726.1c.1 1.2.2 2.3.3 3.5 1.2-.2 2.1-.3 3.2-.4-1-1.3-1.9-2.4-2.8-3.5-.3.1-.5.3-.7.4zm542.9 245c-.4.4.1 1.5.1 2.3.3.1.5.2.8.3.7-.8 1.4-1.6 2.2-2.4-.2-.3-.4-.6-.5-.9-.9.2-2 .2-2.6.7zm207.6-237.7c.4.3 1.2.8 1.3.7.7-.8 1.2-1.6 1.8-2.5-.5-.3-.9-.6-1.4-.9-.6.9-1.1 1.8-1.7 2.7zm-245 223.7c.3.1.7.2 1 .4.5-1 1.1-2 1.4-3 .1-.3-.7-.9-1.4-1.7-.4 1.9-.7 3.1-1 4.3zm214.1-162c1.3-.8 2.2-1.3 3.6-2.2-1.5-.5-2.5-.8-3.6-1.1v3.3zm-718.9-70.8c1.5.9 2.6 1.6 4.1 2.5-.8-3-1.5-3.5-4.1-2.5zM665.2 966c-1.4-.1-2.8-.2-4.1-.3 2.1 2.3 2.8 2.3 4.1.3zm212.9-220.5c.4.1 1.1.5 1.3.3.7-.6 1.3-1.4 1.9-2.2-.4-.3-.8-.5-1.1-.8-.7 1-1.4 1.9-2.1 2.7zm-732.6 47.9c-.1.3-.3.6-.4.9 1.2.4 2.4.8 4 1.4-.5-2.6-2-2.6-3.6-2.3zm516.6 158.5c-1.3.7-2.5 1.4-3.8 2.1.2.3.4.7.7 1 1.2-.7 2.5-1.5 3.7-2.2l-.6-.9zm-417.4-74.3c-.3 1.1-.5 2.2-.8 3.3.3.2.6.3.9.5.4-.8 1.1-1.5 1.2-2.3.1-.5-.5-1.1-.8-1.7-.2.1-.4.2-.5.2zM136.4 771.7c.2.7 1.2 1.1 2.1 1.9-.4-1.7-.7-2.8-1.2-4.6-.5 1.2-1.1 2-.9 2.7zm496 177.3c-1.4.5-2.7 1-4.6 1.7 3.3 1.2 4.1.8 4.6-1.7zM93.1 710.3l3.6 1.2c.2-.3.3-.7.5-1-1.1-.5-2.3-1-3.4-1.6-.3.5-.5.9-.7 1.4zm84.5 100.1c.2-.2.4-.4.6-.5-.6-.7-1-1.5-1.7-1.9-.5-.3-1.4.1-2.7.2 1.4 1 2.1 1.5 2.9 2 .2.1.6.1.9.2zm629.7 27.4c-.9 1-1.6 1.8-2.3 2.6 3 .4 3.3 0 2.3-2.6zM597 964.8c.2.3.5.6.7.9 1.2-.8 2.3-1.7 3.5-2.5-.3-.3-.5-.6-.8-.9-1.2.8-2.3 1.6-3.4 2.5zm-510.7-297h.7c.2-1.4.5-2.7.7-4.1-.5 0-.9-.1-1.4-.1v4.2zm589 214.4c-1.2.4-2.1 1.9-3.1 2.9l.5.5c.9-.7 1.7-1.4 2.5-2 1.1.6 1.9 1 2.8 1.5.1-2.4-1.3-3.3-2.7-2.9zm15.9-11.6c.2.9.9 1.7 1.5 2.6.3-.1.5-.2.8-.3l.3-3c-.2-.2-.4-.4-.7-.6-.7.5-2 1.1-1.9 1.3zm-23.4 15.9c.7 0 1.3-.1 2-.1v-2.7c-1.2-.2-2.3-.4-3.6-.7.6 1.3 1 2.3 1.6 3.5zm12.2-8c-2 .2-2.4.7-2.3 3.2 1.9-1.3 3.7-2.6 5.2-3.6-.9-1.1-1.6-2.1-2.5-3.2-2.4.8-.2 2.4-.4 3.6z"/>
  <path class="st2" d="M83.1 120.7c-.5 1.6-1.5 2.7-2.2 4-1.3 2.2-.7 3.6 1.8 3.7 2.5.1 5.2-.2 7.5-1.1 3.1-1.2 5.8-3.2 8.7-4.8 1.6-.8 3.3-1.4 4.9-2.2.2.3.5.6.7.9-3.8 3.7-7.7 7.3-11.5 11 3.4 4.1 8.1 5.1 12.8 2.1 2.7-1.8 5.3-4 7.4-6.5 9.6-11.6 20.4-22.3 31.6-32.5 12.6-11.6 25.9-22.5 41-31.2.8-.4 1.3-1.2 1.9-1.9 2.2-2.6 4.1-5.5 6.7-7.7 3.9-3.3 8.4-6 12.5-9.2 2.1-1.6 3.8-3.7 5.7-5.5-.2-.2-.3-.4-.5-.6-1 .3-2.2.3-3.1.8-3.8 2.1-7.5 4.3-11.2 6.5l-8.4 5.1-.5-.5c.3-1.8.6-3.6 1.1-6.1-2.3 1.4-4.2 2.6-6.1 3.7-1.9 1.2-3.9 2.2-7 1.6 1.3-1.7 2.3-3.1 3.5-4.3 2-2 4.3-3.8 6.3-5.8 2.4-2.5 2.9-5.4 1.5-8.5-6.2-.4-10.3.9-15.9 5-3.9 2.9-7.7 5.9-11.7 8.6-4 2.6-4.1 2.4-7.8-.6-1.3-1.1-2.7-2.1-4.5-.5-7.2 6.3-15.4 11.1-24 15.3-.7.4-1.3 1.3-1.6 2.1-1 2.6-1.3 5.8-3 7.9-3 3.6-6.5 7.1-10.4 9.8C104 83 98.4 85.9 92.8 89c-9.7 5.3-19.8 10.2-28.4 17.1-2.6 2-4.9 4.3-7.4 6.4v.5c3.1 1.1 5.4-.5 7.9-2 .9-.5 2.2-.5 3.3-.7.2 1.2.7 2.4.5 3.5-.1.9-.8 1.8-1.4 2.6-.8 1.1-1.9 2-2.4 3.2-.6 1.6-1.6 4-.9 5 .9 1.2 3.5 1.9 5.2 1.7 2.5-.2 4.9-1.3 7.3-2.3 2.3-.9 4.4-2.2 6.6-3.3zm557.4 38.1c-.6-3.7-1.8-6.6-6.6-6.3-1.2.1-2.5-.5-3.8-.7-1.8-.2-3.7-.3-4.8-.4-1 2.6-1.8 4.5-2.5 6.5 5.6.8 6.2 1.2 8 5.5 4.1-1.5 7.5 0 10.8 2.3-.2.4-.3.7-.4.9-.4.8-.7 1.7-1.1 2.5.9.3 1.8.7 2.8.7 14.5.5 28.6 3 42.3 7.7 3 1 3.1 1 2.9-2.2 2.3.4 4.6.7 6.8 1.1 2.3.4 4.6 1 7 1.5.2-2.9-3.4-1.7-4.3-3.9 1.3.1 2.4.3 3.5.1.7-.1 1.3-.7 2-1.1-.5-.6-.8-1.5-1.4-1.7-2.3-.8-4.7-1.2-6.9-1.9-1.1-.4-1.9-1.2-3.3-2.1 4 0 7.2.1 10.4 0s6.3-.5 9.6-.7c-3.3-6.6-20.8-9.2-29.4-6 0 .3-.1.6-.1.9-.1 4-.7 4.3-4.8 3.5-8.4-1.6-16.7-3.3-25.1-4.5-3.6-.5-7.3-.1-10.9-.1-.5-.8-.6-1.2-.7-1.6zm35.3 27.2c21 4.5 42.1 9.1 63.4 13.7-8.9-4.6-17.4-9.4-26.3-13.4-5.5-2.4-11.5-4-17.4-5.1-7.2-1.3-13.8.5-19.7 4.8z"/>
  <path class="st2" d="M930.7 537.3c-.4-1.4-.1-2.9-.1-4.6 1 .6 1.5 1 2 1.3-3.7-5.7-6.2-11.6-6.3-18.3 0-1.4-.3-2.8-.6-4.1-.7-2.5-1.8-3-4.4-2.4-1.4.3-2.8.6-4.4.9-7.1-25.4-16.9-49.7-29.2-72.7.4.5.9 1 1.3 1.4.4-.7 1.2-1.7 1-2.1-1.1-2.2-2.4-4.3-3.7-6.4-.4 1.3-.7 2.2-.8 2.9-2.8-5-5.6-10-8.6-14.8.7 1 1.4 1.9 2.1 2.9 1.4 1.9 2.9 3.7 4.4 5.5.2-.1.4-.3.6-.4-1.9-7.2-5.1-11.2-9-11.1-14.3-22.8-31.1-44-50.1-63.3.9 0 1.9-.1 2.9-.4.8-.2 2-1 2-1.3-.1-.8-.7-1.8-1.5-2.4-1-.7-2.3-1.1-3.5-1.7.5-1.2.9-2.3 1.3-3.5 4.9 3.2 9.8 6.2 14.5 9.3 3.8 2.6 7.6 5.2 11 8.1 2.5 2.2 4.4 4.9 6.6 7.5-.2.1-.4.3-.6.4-3-1.3-4-5.9-8.4-4.8-.2.3-.4.5-.6.8 2.5 2.3 5.1 4.6 7.6 6.9 3.3 2.9 6.6 5.8 9.8 8.8.6.5 1.3 1.7 1.1 2-2 3.3.5 5.2 2.1 7.4 1.3 1.9 2.9 3.8 3.5 5.9.5 1.9 1.3 2.8 3.2 3.2 3.4.7 7 1.2 7.5 5.5.1.5.6 1 1.1 1.4 1.2 1 2.4 1.9 4.1.5-1.6-3.8-3.2-7.7-4.8-11.4-3.6-8.4-8.2-16-18.2-19 1.9-3.2.4-5.2-2-7.2-2.1-1.7-4.6-3.4-5.7-5.6-1.5-3.1-3.9-5.3-6.3-7.6l-8.4-8.4c-8.8-8.7-17.7-17.3-28.3-24.1-5.4-3.4-11-6.3-17.4-7.9-.8 3.5-3.2 4.8-6.1 3-2.7-1.7-5.1-3.7-7.9-5.9-1.3.8-2.7 1-4.2.8-8.5-6.3-17.2-12.3-26.2-17.9 7.6 2 13.9 7.7 22.6 7.3-6-3.2-11.8-6.2-17.8-9.4-.4 2.2-1.7 1.7-3.2 1.1-.8-.3-1.7-.2-2.6-.3 0 .2 0 .5-.1.7-3.6-2.2-7.2-4.4-10.8-6.5-.9-.6-1.9-1.2-2.9-1.7-11.2-6.3-22.7-12.1-34.6-17.4.8.1 1.5.1 2.3.2-1.2-.8-2.1-1.4-3.1-2.1.5-.3.7-.4.8-.4.6 0 1.2 0 1.8.2 6.2 1.8 12.3 3.6 18.5 5.4.6.2 1.7.4 1.9.2.9-1.5 1.7-.8 2.7-.1.9.6 1.9 1.2 3 1.9-.1.2-.4.7-.8 1.5 8.4 3.8 16.8 7.5 25.6 11.5.2-1.4.3-1.9.4-2.7 10.5 5.2 20.7 10.4 31.7 15.9-.6-1.2-1-2-1.2-2.8-.2-.9-.2-1.9-.3-2.9.9.1 2 0 2.7.4 1.5.8 2.9 1.8 4.3 2.7 1.7.9 3.4 1.7 5.1 2.6-.4-1.4-1-2.5-1.9-3.3-4.3-3.8-8.6-7.6-12.9-11.3-6.3-5.4-11.9-11.2-10.2-20.1-17-7.4-28.5-13.8-32.6-18.2 2.7 1.1 4.9 2.2 7.2 3 2.3.8 4.8 1.3 7.2 2v-.4c-1.3-1.1-2.6-2.1-3.8-3.2.4-.5.7-.9 1.1-1.4 13.5 6 27 12 40.5 18.1.3-.3.6-.7.8-1-3.9-4.8-7.9-9.6-11.9-14.5.2-.2.9-.6 1.6-1.1-6.6-5.4-13.8-11.3-17.5-11.6-1.6 3.1 2.3 4.1 3 6.8-.9-.4-1.5-.7-2.1-1-7.9-3.8-15.5-8.1-23.6-11.2-22.6-8.8-45.4-17.2-68.1-25.7-2.6-1-5.7-1.3-5.5-4.9-3.1.5-5.8.9-8.3 1.2-2.5-.9-4.9-1.8-7.3-2.7-.1-.2-.1-.4-.2-.6 4.2-1.3 8.4-2.6 12.5-3.9 3 3.3 6.3 3.9 9.6 1.4-4.7-1.2-8.9-2.3-12.8-3.3.8-.7 2.3-1.5 2.2-2.2-.1-.8-1.3-2-2.3-2.3-3.5-1.1-7-2.4-10.6-2.7-4.7-.4-9.5.2-14.2.3-5.4 0-10.5-.8-14.5-4.8-.6-.6-1.7-.8-2.6-.9-3.1-.3-6.2-.5-9.3-.5-3.4 0-6.7.3-10.1.3-3.2 0-6.3-.5-8.4-3.1-1-1.3-2.1-1.4-3.5-1.3-2 .1-4.1 0-6.5 0 2.5-2.8 4.5-3.2 13-2.6.5-3.1 1.2-3.6 4.5-3.6.9 0 1.9.2 2.8.3l10.8.9c.2 0 .4-.2.5-.4-.3-.6-.7-1.2-1.1-2 6.3 1.4 7.5 1.4 9.8-.8-5.5-.8-10.6-1.5-15.6-2.2.1-1.1.2-2.2.4-4-4.1 2.6-7.8 2-11.5 1.4-2.9-.5-5.4-.5-6.1 2.7-3.7-.7-7.2-1.3-10.6-1.9-3.5-.6-6.9-1.4-9.7-3.8.7-1.2 1.4-2.3 2.4-4 .9 3.4 2.9 3.9 5.4 3.2 3.6-.9 7.3-1.9 11.2-2.9-1-.4-1.9-.9-2.7-1.1-2.7-.4-5.5-.8-8.2-1-3.7-.3-7-1.3-9.2-4.7 7.3.6 7.4.6 8.2-2.2-8-2.9-18-1-20.2 3.6 1.2.6 2.5 1.2 3.7 1.7l-.3.9c-1.7 0-3.4.2-5.1-.1-.6-.1-1.5-1-1.6-1.7-.5-2.9-.7-3.1-4.5-2.2.8 1.1 1.5 2 2.3 3.1-3.5 1.4-7 2.8-10.2 4.1 1.9 1 3.6 1.7 5.1 2.8 1.6 1.2 3.2 1.8 5.2 1.2.7-4.2.8-4.4 2.8-4.2 2.3.2 3.6 2.1 3.5 5.1-.5 0-1.1-.1-1.5.2-.9.6-1.6 1.4-2.5 2.1.7.6 1.4 1.6 2.2 1.8 2.4.5 4.9 1 7.4 1.1 6 .3 12.1.2 18.1.6 2.7.2 5.3 1.3 7.9 1.9-.1.4-.2.7-.2 1.1-5-.2-10.1-.4-15.3-.7-2.4 4.5-7.1 1.8-10.9 2.6 0-1.5 1.1-3.3-1.6-3.1-6.9.5-13.8 1-20.7 1.4-1.6.1-3.6.4-4.9-.3-1.3-.6-1.9-2.4-2.8-3.7-7.1 4.3-15.4 5-19.5 1.7.9-.5 2.2-.9 2.6-1.7.3-.6-.6-1.7-1.1-2.8 8.2.7 16.1.8 24.3-1.1-1.8-1.8-3.8-2-5.9-1.6-2.5.5-5 1.2-7.6 1.5-1.6.2-3.3-.2-4.9-.4v-.9c1.4-.3 2.8-.4 4.1-.8.8-.3 1.4-1 2-1.5-.7-.5-1.4-1.3-2.2-1.4-1.8-.2-3.6-.1-5.3-.1-.9 3.6-.9 3.6-4.8 3.3-1-.1-2.1 0-3.4 0 .5 1.6.9 2.7 1.3 3.7-2.3.7-4.3 1.4-6.4 2-3.2 1-4.4.6-5.1-1.5 6.9-.3 9.7-3.1 8.8-6.6-2.2-.2-4.5-.4-6.8-.6.5-.7 1-1.4 1.5-2.2-6.8-2.6-15.3-1.6-17.7 2.4 1.8.1 3.4.2 4.9.2 1.8 0 3.6-.3 5.4-.3 1.6.1 2.7.8 2.6 2.9h-8.2v5c.2.1.4.2.7.3.8-.9 1.4-1.9 2.3-2.5.7-.5 1.8-.9 2.7-.8.4.1 1.1 1.7.8 2.1-.8 1.1-1.9 2.2-3.2 2.7-1.8.7-3.8.7-6 1.1-.2-.9-.4-1.8-.5-2.5-2.2.1-4.3.6-6.3.2-1.7-.3-2.7-.1-3.9.9-6 5.1-11.9 10.2-18 15.3-.7.6-1.7 1.2-2.6 1.3-6.2 1.1-12.5 1.9-18.6 3.1-16.5 3.2-32.5 7.8-46.6 17-.4.3-1 .7-1.3.6-4.3-.8-7.4 1.5-10.7 3.5-1.6 1-3.5 1.4-5.8-.5 4.9-2.2 9.5-4.2 14.2-6.3-.8-1.7.4-2.7 2-3.4 1.4-.5 2.8-.9 4.1-1.6 1.2-.6 2.2-1.5 3.3-2.3-.1-.2-.3-.4-.4-.6-10 1.4-19.6 4.2-28.9 7.5-.4-1.5-.6-2.9-1.1-4.1-.6-1.5 0-2.2 1.5-2.7 5.1-1.8 10.2-3.7 15.2-5.5 3.2-1.2 6.4-2.3 9-3.3 1.5 1.5 2.6 2.9 4 3.9 1.5 1.1 3.2 2 1.5 4.6 2.3-1.6 2.5-2 2.6-4.9.1-3.6.6-4 4.1-4.1 1-3-2.8-1-3.1-2.9 12.5-2.5 24.6-6.3 36.2-11.3-13.9 1.9-27.4 6.3-42.4 4 7-1.8 13.3-3.3 19.6-4.9 0-.2-.1-.4-.1-.6-3.6-.5-7.6 1.5-11.4-1 1.8-.6 3.2-1 4.8-1.5-1.7-2.7-5.9-1.1-6.8-4.3 3.7-.8 7.4-1.3 10.9-2.3 8.2-2.2 16.2-5.2 25-5 2.5.1 3.9-1.8 5-4-4.8-1-4.8-1-4.1-3.9 8.7.7 15.8-4.2 23.9-6.2-.7-.8-1.3-1.4-2.3-2.5 5-1.4 9.4-3.2 14-4 14.7-2.4 29.5-4.3 44.3-6.5 5.5-.8 10.9-2.1 16.3-3.2-6.7-2.8-6.7-2.8-6.1-6.1 1.9 0 3.9.1 5.9 0 1.9-.1 3.7-.2 5.6-.4v-.8c-15.6-5.3-32-6.9-48.2-9.8 3-2.8 7.2-.6 10.5-2.4-.6-.6-1-1-1.6-1.5 2.4-.5 4.5-1 6.2-1.3-3.2-1.2-6.7-2.4-10-3.9-4.2-1.9-8.3-4.2-12.5.2-.6-.9-1-1.4-1.3-2-1.9-4.1-2.1-4.2-6.5-2.4-2.6 1-5.1 1.7-8.2 1 1.3-2.4 0-3-2.1-3.3-1.6-.2-3.1-.8-4.6-1.2.1-.2.1-.5.2-.7l5.1-2.7c-.1-.3-.1-.6-.2-.9-3.5-.6-6.9-1.5-10.4-1.7-7.8-.5-15.5-.7-23.3-1.1-2.3-.1-4.7-.6-7.1-.9.9-1.9 1.6-3.5 2.4-5.2-2.4-.5-4.2-1.2-6-1.1-17.8 1.4-35.7 2.7-53.4 4.6-17.2 1.8-34.2 4.6-51.4 6.5-15.6 1.7-30.8 4.8-45.6 9.8-11.9 4-23.9 7.8-36.6 8.4-1.5.1-1.9.9-1.6 2.2.1.6.3 1.2.4 2-.9-.1-1.6.1-2-.2-2.1-1.2-4.1-.7-6.2.2-3.7 1.5-7.5 2.9-11.2 4.6-16.7 7.8-31.6 18.1-45.7 29.6-3.6 2.9-7.2 5.7-11.4 6-1 1.6-1.4 3.2-2.5 3.9-7.9 5.4-16.2 10.3-24 15.9-7.3 5.2-13.3 11.6-16.5 19.8-1.1 2.7-1.7 5.7-2.5 8.5.3.1.5.3.8.4 1.4-.8 2.6-1.9 4.1-2.3 1.3-.4 2.8-.1 4.5-.1 1.2-3.6 3.2-5.1 7-4.7-4.1 7.1-3.3 13.7 2.1 19.8 3.2 3.5 3.9 3.6 8.4 1.7 1.4-.6 2.9-1.3 4.6.7-2.8 2.7-5.5 5.4-8 7.9-.7 1.8-1.3 3.4-1.9 5 .2.1.4.2.5.3.6-.6 1.2-1.2 1.9-1.8 3.5-3.3 6.9-6.6 10.5-9.8 1.5-1.3 3.1-.9 3.7 1 .3.8.2 1.8.2 2.7-.2 2.2.1 4.1 2.5 4.8-2.1 3-3.9 5.9-6 8.6-1.9 2.5-4.2 4.7-6.3 7.1-.7.9-1.6 1.9-1.7 3-.6 6-2.9 11.2-7.2 15.4-3.6 3.6-7.6 6.7-11.3 10.1-4.4 4-8.9 8-13.1 12.2-2.7 2.8-2.4 3 .2 5.7-.5.9-1.3 1.7-1.6 2.7-1 3.3-1.9 6.6-2.6 9.9-.3 1.3.5 2.3 2.2 1.5 1.9-.8 2.3.1 2.3 1.6 0 2.9.4 5.8-.1 8.6-.6 4.3 1.7 6.4 5.4 7.8 1.5.6 3.1 1.2 4.7 1.5 3.8.8 7.7 1.3 11.5 2 4.3.8 8.5 1.8 11.6 2.5 1 4.2 1.5 7.4 2.5 10.4 1.7 5.4 1.5 6.4-3 9.5 3.3 1.8 5.2 1.4 7.8-2.1 1.4 1 3.4 1.7 2.4 3.9-3.5 7.6-7.5 15-14.1 20.7-1.8 1.6-3.9 2.9-5.9 4.4-.3-.2-.6-.5-.9-.7l5.1-9-.6-.3c-.4.3-.8.6-1.1.9-3.4 3.8-6.8 7.6-10.1 11.5-5.3 6.2-10.5 12.3-15.8 18.5-.4.5-.7 1.1-.9 1.7-1.7 4.8-3.2 9.7-5 14.5-5.1 13.8-10.6 27.5-11.3 42.5-.2 3.7-1.6 7-4.7 9.6-.5.4-.6 1.2-.8 1.9-.6 2.8-1 5.6-1.9 8.3-1.1 3.4-2.8 6.7-4 10.1-.8 2.4-1.2 4.9.1 7.5 1.4-1.2 2.6-2.6 4.2-3.4 2.2-1.2 3.3-2.4 1.6-4.7-.3-.4 0-1.2.1-2.3 1 .8 1.4 1.2 1.8 1.6.8-.4 1.5-.7 2.2-1 2.7 7.5 1.3 19.4-2.6 22.5-.5-.6-1-1.2-1.7-2-2.5 3.9-3.1 7.8-2.6 11.7 1.6-.4 3-.8 4.7-1.3.1 6.6-.8 12.8 3.6 18.4-3.1.2-4.3 1.6-3.4 4 .7 1.9 2.3 2.7 4.3 2.5.6-.1 1.7-1.3 1.6-1.6-1.5-3.1.4-5.3 1.8-7.7.5-.8 1.7-1.3 2.5-1.9-.7 4.1-1.5 7.7-1.9 11.4-.4 4.6-.4 9.2-.8 13.7-.1 1.5-.9 2.9-1.4 4.4-.1-.1-.2-.1-.4-.2-.6-3.3-1.1-6.7-1.7-10.2-1.8.4-3.3.9-4.8 1.1-4 .5-5.4 1.3-6.2 5.1-.6 3-.6 6.2-.8 9.3-.3 5.6.1 11.3-5.6 15 1.1.8 2 1.4 3.1 2.2-2.2.8-3.9 1.4-5.6 2 2.1 5.4 1.9 10.7 1.4 16.1-.1.6.3 1.3.4 2 .6-.4 1.2-.8 1.8-1.3.4-.3.8-.7 1.3-1 .3.5.9 1 .9 1.5-.1 1.7-.5 3.4-.7 5.1-.2 1.7-.4 3.3-.6 5.5 3-.4 5.4-.8 7.8-1.1 1.4 5.1-3.7 10.2.2 15.4.7-.9 1.1-1.7 1.8-2.3 2.1-1.9 4.1-4 6.4-5.7 1.8-1.3 3.8-1.1 5.8.6-5.1 2.7-6.3 7.1-6.4 11.9 0 .6.5 1.2.8 1.8.5-.5 1.2-1 1.6-1.6.3-.4.1-1 .3-1.4.5-.8 1.2-2.3 1.6-2.3 1.4.1 3.1.6 4.1 1.5.5.4 0 2.2-.5 3.2s-1.7 1.6-2.5 2.5c-1.4 1.5-.7 2.8 1.1 3.5 1.4.6 3.2 1.6 3.4 2.8.5 2.4.4 5 .1 7.4-.1.9-1.3 1.7-2 2.5-.4-.8-.8-1.6-1.3-2.3-.3-.4-.8-.7-1.1-1.1-.3.4-.8.7-1 1.1-.7 1.4-1.3 2.8-1.9 4.1-.6 1.3-1.2 2.6-1.9 4 4.2.4 7.9.7 11.6 1 2.4-4 3.3-4.5 5.6-3.8 1.5 3.2 2.6 5.9 4 8.4 1.9 3.5 1.8 4.7-.7 7.7-1.1 1.4-1.9 3.2-2.4 5-.5 1.6-.3 3.4-.4 4.7 1.9.2 4.1.4 6.2.6 1.7.2 4.4-.7 3.4 2.7 0 .1.3.4.4.6 2.8 3.3 4 7 3.6 10.6.8 1.3 1.5 2.1 1.8 3 1.5 5.5 2.4 11.1 4.3 16.4 1.3 3.7 2.2 7.2 1.7 11.1-.1.8.6 1.7.9 2.5 1.4-1.2 2.3-2.1 2.7-2.5-.2-1.8-.5-3.2-.6-4.6 0-1.5.2-2.9.4-4.4.7-4.6 1.6-9.1 2.3-13.7.3-1.7 0-3.5.1-5.2 0-.7.2-1.4.3-2.1h2.8c1.5 2.4 2.8 4.5 3.9 6.4 2 .4 3.8.7 5.7 1 .4-1.4.2-2.2-1.5-2-2.7.4-3.6-1.1-3.8-3.2-.2-1.7-.3-3.4-.4-5.3 1.4-.7 2.8-1.5 4.3-2.3l.6.6c-1 1.1-1.9 2.3-3 3.5 1.3.6 2.3 1.1 3.8 1.9-1.5.4-2.3.6-3.2.9 1.2 2.5 3.1 2.2 5.5 1.9l.9 3.6c-.2.7-.4 1.4-.8 1.9-1.1 1.6-6.3.9-8-.5-2 4.4-2 4.4.5 6.1.9-.3 1.8-.8 2.7-.8 1.7-.1 2.7-.5 3.4-2.2.4-.9 1.7-1.5 2.8-2.2.2.6.3 1.2.5 1.7-.1.3-.2.6-.4.9-.9 1.8-.4 6.4.9 6.6 2.1.4 1.8 1.6 2 2.8.6 3.6 1.9 7.2 1.2 10.9-.1.5.5 1.2.8 1.7.4.7.9 1.3 1.1 2 1.9 6.9 3.6 13.9 7 20.4.1.2 0 .6 0 .8-1.7-.4-3.2-.7-4.7-1.1-.1.2-.3.4-.4.7l2.1 3.5c2.1-1 4.1-2 6.2-3.1.3.8.7 1.6 1 2.4-1.1.6-2 1.1-2.9 1.6.1.3.2.5.3.8.9.2 1.8.4 2.7.5.6.1 1 .2 1.4.4.2.5.4.9.6 1.4-.1.3-.3.7-.6 1.2-.4.7-.5 1.5-.8 2.8 1.1-.6 1.8-.9 2.6-1.3.8 1.8 1.7 3.7 2.6 5.5 0 .2.1.4.1.6.5 2.2.4 4.4.6 6.6-.2-.2-.5-.4-.7-.6-1.1 1.2-2.3 2.3-3.4 3.5 1.1 1 1.6 1.4 2.3 2 .9-1.3 1.6-3.4 2.5-3.5 1.3-.1 1.9-.6 2.3-1.2 1.4 2.7 2.8 5.5 4.3 8.2-.1.1-.2.2-.4.3-.1.1-.1.3 0 .1l1.4 1.4c4.4 7.9 9 15.7 13.9 23.3-.1.2-.2.3-.3.5.4.3.9.7 1.3 1.1 6.1 9.3 12.6 18.3 19.5 27-2-.6-4-1.2-5.9-1.7l-.7.7c.7 1 1.4 2.7 2.2 2.7 1.5.1 3.2-.7 4.8-1.1-.1-.1-.1-.3-.2-.4 1.8 2.2 3.6 4.5 5.4 6.6-1.4.6-1.8 1.7-1 3.6.7-.8 1.3-1.5 2.1-2.4.9 1.1 1.9 2.2 2.8 3.3-.1.1-.2.2-.3.4.3.2.7.5 1 .7 0 0 0-.1.1-.1 72.1 83.4 181.5 136.6 304.1 136.6 82.6 0 159.3-24.2 222.6-65.5-1.1.7-2.2 1.5-3.3 2.2.9.3 1.6.5 2.3.7-.1.3-.1.6-.2.9-1.1-.2-2.3-.4-3.4-.5-10 5.9-20.2 11.9-29.7 17.6 1.3 1.9 2.7 3.7 3.7 5.6 1.1 2.2 2 2.6 4.2 1.3.7-.4 1.3-1 2-1.5-.2 0-.4-.1-.6-.1v-4.5c3.5 2 2.8 5.9 4.4 8.6-.7 1.1-1.4 2.1-2.5 3.6-2-1.5-3.8-2.9-5.9-4.6-1.2 2.5-2.5 4.9-3.9 7.7-.5.1-1.8.3-3 .5 0 .2.1.4.1.7h3.4c-3.1 2.5-2.5 4.3.1 6 .9.6 1.1 2.1 1.6 3.3 1.5-.8 3.1-1.6 4.7-2.4-.1-.2-.1-.5-.2-.7-.7-.2-1.4-.4-2.2-.6-1.4-.2-2-.8-2-2.3 0-3.2 3.3-5.4 6.5-4.3.7.2 1.6.2 2.2-.1 1.9-.7 3.6-1.7 4.8-2.2 1.2 1.3 2.1 2 2.8 2.9.5.6 1 1.6.7 2.2-.3.8-1.1 1.8-2.3.6-.3-.3-1.3 0-1.9.2-1 .2-1.9.5-3 .9.1-1 .1-1.7.1-2.3-.1 0-.2-.1-.4-.1l-.9 2.4c1.6.9 3.1 1.8 4.2 2.4 2-.8 3.6-1.5 5.3-2 2-.6 3-1.5 2.3-3.6-1-.1-1.8-.2-3-.3.4-1 .8-1.8 1.1-2.5-2.1-2.3-3.5-5.6-7.7-3.1-.9-4.5 3-3.9 5.3-5.1-1.1-2.6.3-4.5 2.3-6.3l.9.3c1.2.8 1.8 2.8 3.8 1.6 1.3-.7 2.5-1.7 3.6-2.7 1.2-1.3 2.1-2.7 3.3-4.2.6.5.9.8 1.3 1.1.6.6 1.2 1.2 1.7 1.8-.8.4-1.6.8-2.4 1.1-.9.3-2.3.3-2.6.8-1.6 2.8-2.8 5.8-4.2 8.7l.6.3c1-.7 2-1.3 3.3-2.2.3 2.1 2 3.9-.4 4.9-1.8-.4-3.3-.7-4.9-1-.2-1.1-.5-2.3-.7-3.2.7-1.2 1.2-2.1 1.7-3-.2-.3-.4-.5-.7-.8-1.9.6-3.8 1.2-5.7 1.7 0 .2-.1.4-.1.6 3.7 1.7 2.6 4.9 2.6 8 1.5-.5 2.6-.9 3.5-1.3 1.1.7 2.1 1.4 2.9 2 2.3-1.9 4.2-3.6 5.4-4.6-1.2-3-2-5.3-2.9-7.6.3-.2.6-.4.8-.6 1.8.6 3.6 1.3 5.7 2 .3-.7.8-1.7 1.2-2.6.2 0 .5-.1.7-.1.4.9.7 1.8 1.3 3.3 1.2-.7 2.3-1.4 3.7-2.2-2.9-2-3-2.3-2.4-4.8.1-.6.4-1.4.1-1.8-1.3-2.2-2.8-4.3-4-6.1-.6.4-1.3.9-2.1 1.4 0-.7.1-1.4.1-2.1-.7-.2-1.7-.6-2.6-.9 1.3-1 2.4-1.9 3.5-2.7 1.9 1.1 3.9 2.3 6.1 3.6.7-6.7 1.6-7 8.9-3.2 1.9-1.4 3.6-2.9 3-5.8-2.2.1-4.1.2-6.1.3-1.1.1-2.3.4-2.5-1.3-.2-1.4.1-2.4 1.8-2.6 2.6-.3 5.3-.7 8.5-1.2-.5-.7-1.1-2.3-1.9-2.3-1.7-.2-2.9-.4-3.8-2-.6-1.1-1.5-2.1-2.4-3.3 3.6-2.6 7.1-5.2 10.6-7.9-.1.6.1 1.3.4 2 .4 1 .3 2.1.4 3.8-2-.6-3.4-1-5-1.5-.3 1.2-.7 2.5-1.2 4.3 2.2-2.8 2.8-2.7 4.1.2.6-.1 1.3-.1 1.8-.2.3 1.4.6 2.7.8 3.5 2.2-.6 3.9-1.4 5.6-1.4 3.9.2 4 .3 5.8-3.5-2.4-.8-4.9-1.6-7.3-2.5l-.3.6 1 2c-1.6.2-3 .4-4.9.6 1.6-2.2 2.9-3.9 4-5.5-.2-1-.9-2.1-.5-2.9.4-.9 1.6-1.4 2.6-2.3-.5-.6-1.1-1.1-1.7-1.7.5-.4 1.1-.9 1.6-1.3-.1.5-.2 1.1-.2 1.8l3.4-1.7c.1 1.2.3 2 .1 2.8-.2 1.1-.9 2.2-1 3.3-.1.8.2 1.9.8 2.5 1.3 1.4 2.8 2.5 4.3 3.7.9.8 1.8 1.5 2.8 2.2.2-.1.4-.3.6-.4-.8-2.8-2-5.6-2.4-8.4-.4-2.7.2-5.5.3-8.5-1.2.4-2.1.8-3.1 1.1v-2.9c2.7-2.3 5.4-4.7 8.1-7 .8-.4 1.5-1 1.9-1.7.7-.6 1.4-1.3 2.1-1.9 1.4 3.6-3.3 3.4-4.3 5.7h5c.1.2.1.5.2.7-4-.2-5.3 2.2-6 5.3-.4 1.5-1.1 2.9-1.7 4.3.5.5 1 1.1 1.6 1.8.8-.2 1.7-.6 2.5-.5 1 .2 2 .7 3 1.1-.4.7-.8 1.3-1.1 2-.2.4-.3.9-.5 1.6 1.4.1 2.6.2 3.9.3-.4-2.7-.7-5-1.1-7.4 3.6-3.6 3.6-3.6 4.6-3.1-2.3 2.1-2.3 2.8-.7 3.6 1.1-1 2-1.8 3.1-2.8-.6-1.5-.2-2.6 1.7-3.4.7-.3.9-1.6 1.3-2.5-.2-.1-.5-.2-.7-.3-.7.6-1.4 1.1-2 1.6-1.4-1.6-2.6-3-3.9-4.5 2.7-.3 4.7-.5 6.1-.6 1.6 1.2 2.8 2 4.6 3.3-.3-3.7 2.2-2.2 3.8-2.9-1.3-.5-2.3-1-2.6-1.1.1-1.9.4-3.4.1-4.7-.3-1.6-1.1-3.1.3-4.6.3-.3-.3-1.4-.6-2.7-1.6 1.9-2.9 1.8-4.4.7-.4-.3-1.1-.4-1.7-.5l2.1-2.1c.8.5 1.5 1 2.2 1.5.4-1.2.7-2.1 1-3.1 1.2.5 2 .8 2.9 1.1-.2.2-.3.4-.5.5.4 1 .6 2.4 1.3 3 1.5 1.1 3 .4 4.5-1-2.6-.1-3.1-1.4-2.8-3.4.2-1.4 0-2.8 0-4.6-2.5 1.5-4.5 2.8-6.6 4 0-.1-.1-.1-.1-.2.8-.8 1.6-1.7 2.4-2.5 1.2-.5 1.7-1 1.5-1.6 1.8-1.9 3.6-3.8 5.3-5.7.3.4.6.7.8 1.1-.5 1.7-1 3.5-1.5 5.3-.7 3.1-.4 3.5 3 4.3 1.5-4 1.6-8 .2-11-.2-.5-.7-.9-1.3-1.2 1.4-1.5 2.7-3 4.1-4.6.1.1.2.2.3.2 1.1-1.2 2.1-2.4 3.5-4 .2 1.3.3 1.9.5 3 .9-.7 1.9-1.5 1.9-1.5-.6-.8-1.3-1.7-2.1-2.6 1-1.1 1.9-2.3 2.8-3.4 1.1-.2 2.2-1.4 3.4-1.8-.1.9-.2 1.5-.3 1.8.9.3 1.8.6 2.5.9.5-.7 1.1-1.4 1.7-2.3-4.4-1-1-3.8-1.6-5.8.5-.7 1.1-1.4 1.6-2.1 0 .3-.1.7-.1 1 .9-1.6 2-2.8 2.4-4 5-6.6 9.8-13.3 14.3-20.2.1.1.2.1.2.2.1-.4.3-.8.4-1.2 5.9-9 11.4-18.3 16.5-27.9h.7c0-.5 0-.9-.1-1.3 6-11.3 11.4-23 16.2-35h1.1c.1-.8.3-1.6.4-2.2-.1-.2-.3-.3-.4-.5 15.6-40.2 24.2-83.6 24.2-128.9 0-11.5-.6-22.9-1.6-34.2.4-2 .2-3.5-.5-4.5-1.8-16.4-4.7-32.5-8.7-48.2 1.8 4.5 4.4 8.8 8.2 12.5.7.7 1.1 2 1.1 3-.3 7.7 2.5 14.7 4.7 22.4 2.1-3.7 1.7-7.1.7-10.4-.2-1.3-1.5-4.2-2.3-7.2zM777.6 284.9c-2.1 1.3-2.1 1.3-12.3-2.4 3.5-2.4 8.9-1.3 12.3 2.4zm-21.3-9.4c-2.2-1.2-3.9-2-5.7-3 2.5-2.2 4.7-1.1 5.7 3zm-4.7.1c-5.3 1.1-7 .7-7.5-2 4.3-.7 6.5-.1 7.5 2zm-9.1-4.3c-.4 1.8-1.1 2.2-3 1.1-1.6-1-3.1-2.1-5-3.4 3 .8 5.5 1.5 8 2.3zm-346.6-94.7c-2.4 2.7-5.6 2.1-8.5 2.6.2-3 2.2-3.6 8.5-2.6zM86.8 508.2c.3-1.6.3-2.8.7-3.9.1-.5.9-.8 1.3-1.2.4.5 1 1 1.1 1.5.1 1.7-.6 3-3.1 3.6zm-.7 92.3c-1.5-.4-2.8-.6-4-.9.9-1.2 1.6-2.2 2.5-3.3.6.1 1.4.4 2.7.7-.4 1.1-.8 2.3-1.2 3.5zm4.2-17.5c-1.3 2.2-2.8 4.4-4.5 6.5-.7-4.1 1.5-7.2 3.4-10.6 2.3 1.2 2 2.7 1.1 4.1zm650.5 349.6c-.8 0-1.6.1-2.4.1-.6-1.4-1.2-2.6-1.8-4.1 1.5.3 2.8.5 4.2.8v3.2zm6.3-3.4c-.9.7-1.9 1.6-2.9 2.4-.2-.2-.4-.4-.6-.5 1.2-1.2 2.2-2.9 3.6-3.3 1.6-.5 3.3.7 3.2 3.2-1-.6-2.1-1.1-3.3-1.8zm2.8-1.9c-.1-3 .4-3.5 2.7-3.8.3-1.4-2.3-3.3.4-4.2 1 1.3 1.9 2.5 2.9 3.8-1.7 1.2-3.7 2.6-6 4.2zm153.7-400.8c5 3.1 3.5 8.2 5.4 12.4-2.6-1.8-5.2-7.9-5.4-12.4zm-16.2-91.4c0 .6-.2 1.3 0 1.8l-.9-1.8c.2.1.5.1.9 0zm-4.3 54.8c1.4 2.4 2.8 4.7 4.2 7.1-.2.1-.5.3-.7.4-2.9-1.6-3.2-4.5-4.1-7.2l.6-.3zm-19.8-61.4c2.4 5.2 4.7 10.3 7 15.4-1.6.4-2.3.3-3.1-1.4-1-1.9-1.6-3.9-2.5-5.8-.8-1.5-1.8-2.9-2.7-4.4-.2.1-.5.2-.7.3-.1.4-.3.7-.4 1.1-1.6-.7-.7-2.8 2.4-5.2zm-18.1-7.3c3.3 1 3.7 4 5 6.4 3.7 6.8 7.6 13.4 10.9 20.3 2 4.2 3 8.8 4.6 13.2.4 1.1 1 2.2 1.8 3.2.7 1 1.7 1.8.1 3.6-2.5-4.1-5.1-7.9-7.1-11.9-3.9-8-7.3-16.2-11.1-24.2-1.6-3.3-3.8-6.2-5.6-9.4-.3-.5-.2-1.2-.3-1.8.6.2 1.2.4 1.7.6zm2.7 261.3c1.4 1.4 1.4 2.9-.3 5.3-1.4-1.7-1.3-3.3.3-5.3zm-.2-182.5c2.8 2.9 6 12.4 5.5 16.3-4.7-1.7-7.3-9.3-5.5-16.3zm2.7 241.5c.3.2.7.4 1 .7-.5.6-1 1.3-1.6 1.9-.1.1-.7-.2-1.1-.3.6-.8 1.2-1.5 1.7-2.3zm.3-11.3c-1.1-2.1-.3-4.6 3-10.2 1.9 3.3.5 8.1-3 10.2zm3-203c-.8-.5-1-1.8-1.3-2.6 2-.3 3.4-.5 5.5-.8-.5 1.1-.7 2.3-1.4 2.8s-2.3 1-2.8.6zm-13.5-99.4c3.1 1.9 5.1 4.2 5.6 7.8-2.6-2.1-6.1-3.5-5.6-7.8zm0 41c1.1.6 2.1.9 2.3 1.4.4 1 .4 2.1.4 3.1 0 .2-1.3.6-1.4.6-.5-.8-1.1-1.7-1.4-2.6-.2-.6 0-1.3.1-2.5zm1.4 12.7c1.9 5.3 3.8 10.6 5.7 15.8l-.9.3c-2.5-3.9-5.8-7.5-6.5-12.3-.2-1.5.2-2.9 1.7-3.8zm-3.1 28c1.4-1 4.7.1 5.3 1.6.8 2 1.4 4.1 2.1 6.1-.2.1-.5.2-.7.4-.6-.8-1.5-1.6-1.8-2.5-.8-2.5-1.5-4.9-5.6-3.8.4-1 .4-1.6.7-1.8zm6.2 216.6c-.1.5-.2 1.2-.3 1.9h-2.7v-5.6c.2-.1.4-.1.6-.2.3.7.6 1.4 1 2.1.3.7.9 1.2 1.4 1.8zm-83.2 118c-.3 2.6-1.7 3.8-4.2 4.4 1.5-1.6 2.7-2.9 4.2-4.4zm53.6-384.8c-2.2-2.4-4.3-4.3-6-6.5-.4-.5.4-1.9 1-2.9 1.8 3 5.4 5 5 9.4zm.1 321h.4l-1.3 3.9c-.7-.6-1.3-1-1.9-1.5 1-.9 1.9-1.6 2.8-2.4zm-40.9-359c3 1.3 1.9 4.5 3.5 6.9-4.6-2.1-5.7-4.4-3.5-6.9zm8.1 408.4c.4-1.6.8-3.1 1.2-4.6-.4-.5-.8-1-1.1-1.6-.1-.1.8-.9 1-.8.6.2 1.2.7 1.5 1.2 1.2 2.6 1.1 6.1-.2 9.5-2.7-.7-3-1-2.4-3.7zm3.4-4.3c.6-.7 1.2-1.4 2-2.2.8 2.2.6 2.5-2 2.2zm2 2.7c1.6-1 3.2-2.1 4.8-3.1l.6.9c-1.6 1-3.3 2-4.9 2.9-.2-.2-.3-.4-.5-.7zm3.4-9.7c-.2-.9-.3-1.5-.5-2.6-1.2 1.3-2.1 2.4-3 3.4-.1-.1-.3-.2-.4-.3.3-.4.5-.8.8-1.3-.4-.4-.8-.7-1.3-1.2.8-1 1.6-1.9 2.7-3.3 1.3 1.5 2.3 2.7 3.3 4 .1 0-.8.7-1.6 1.3zm9.2-18.5c.3-1.3 1-2.6 1.4-3.7.1 1.7.5 3.3.2 4.8-.2 1.2-1.3 2.3-2.2 3.9.3-2.2.3-3.6.6-5zm3.3 1.1.9-.3c.3.6 1 1.2.9 1.8-.1 1.2-.5 2.3-2.5 2.3.3-1.4.5-2.6.7-3.8zm4.3-4.8c.7-1.3 1.6-2 3.1-.6-.9 1.2-1.8 2.3-2.9 3.7-1.3-.9-.8-2-.2-3.1zm.2 10.9c.3-.2.5-.3.8-.5 1 .8 1.9 1.7 2.9 2.5l-.5.5c-.7.1-1.4.1-2.4.2-.4-.8-.6-1.7-.8-2.7zm8.4-20.8v-2.9c1 .3 1.8.6 3.1 1-1.2.8-2 1.3-3.1 1.9zm.9-335.1c3.4-.3 6.3 3.2 8 9.5-.2.1-.3.2-.5.3-1.3-1.6-2.6-3.1-3.8-4.7-1.2-1.6-2.4-3.3-3.7-5.1zm.9-7.7c2.1-1.4 4.4-.1 6-.2.3 2.1.6 4 1 5.9-2.2-1.9-4.6-3.7-7-5.7zm6.7-2.2c-.5-3.7-3.5-4.1-6.4-4.7-1.6-.3-2.3-1.1-2.7-2.7-.5-1.8-1.9-3.5-3-5.1-1.4-1.9-3.6-3.6-1.8-6.4.2-.3-.4-1.3-.9-1.7l-.4-3.9c8.7 2.6 12.6 9.2 15.7 16.4 1.4 3.2 2.8 6.5 4.2 9.8-1.5 1.2-2.5.4-3.5-.5-.7-.3-1.2-.7-1.2-1.2zm-9.5-102.4c-4-2.3-7.9-4.5-11.8-6.7-.4-.3-.8-.7-1.2-1 4.5-3.6 12.8.5 13 7.7zm-141.4-85.6c5 .9 6.5 2.5 4.8 5l-7.5-2.7c1.2 0 2.1-.6 2.7-2.3zm-27.4-55.2c-.2-.9-.3-1.7-.5-2.7 2.9-.7 2.6 1.8 4.4 3.4-3.2.3-5.7.8-8.2.5-1-.1-1.8-2-3.1-3.5 3.6-.8 4.1 4.1 7.4 2.3zm-4 47.9c3.4-4.7 11.1-6.3 15.3-3-1.4 3.2-4.5 2.7-7.4 3.4.8.2 1.5.4 2.3.4.8.1 1.6-.1 2.6-.1-1 1.5-1.7 2.5-2 3.2-5.5-1.6-11.1-3.1-16.8-4.5.5-.3 1-.7 1.5-.7 1.6.3 3 .9 4.5 1.3zm-18.1-32.6c-5.8 2.6-11.9 3.9-18.3 3.5 5.4-4.2 11.9-3.6 18.3-3.5zm-20.3 3.5c-4.2 4.3-9.8 2.9-14.6 4.4 1.1-3 6.4-4.5 14.6-4.4zm-27.7 5.9c-2.2 2.1-4.9 2.6-8.5 2.8 2.7-2.9 5.7-2.6 8.5-2.8zm-209.1-8.9c.2.3.3.5.5.8-1.3 3.8-5.2 4-8.1 5.5-.6-.7-1.1-1.3-1.9-2.4 3.2-1.3 6.3-2.6 9.5-3.9zm-17.4 8c-.4 2.4-1.6 2.9-5.1 2.6.5-2.5 1.6-3 5.1-2.6zM143.4 680.6c-1.3.5-1.8 1.2-1.7 2.6 0 .7-.7 1.5-1.1 2.3-.3-.1-.5-.2-.8-.2l2.4-10.8.9-.3c.5.8 1.5 1.6 1.5 2.5.1 1.3 1 3.2-1.2 3.9zm7.8.3c-1.1-1.5-1.2-2.6-.2-4.7.2.6.4 1.3.6 1.9.6 3 1.3 5.9 2 8.8-.8-2.1-1.2-4.3-2.4-6zm456.3 252.2c-.2-.3-.4-.5-.6-.8 1-.7 2-1.5 2.9-2.2.2.3.5.5.7.8-1.1.8-2.1 1.5-3 2.2zm17.2-4.2c-.6-.8-1.2-1.6-2-2.5.8-.4 1.4-.8 2.2-1.3.2 1.2.4 2.3.6 3.3-.3.2-.6.4-.8.5zm1.9-3.1c-.8-3-.6-3.5 1.7-4 .7 2.4.3 3.4-1.7 4zm6.7.3-.9-.3c.2-1.1.5-2.1.9-3.7.6.7 1.3 1.2 1.2 1.4-.3.9-.8 1.7-1.2 2.6zm0-5.9c1.6-.6 2.7-1 4-1.4-.4 2.1-1.1 2.4-4 1.4zm11.4 13.8c-1.2.1-2.4.9-3.6 1.3-.7.2-1.5.2-2.3.3v-.5c1.5-1 3-2 4.6-3-.1-.1-.2-.3-.3-.4 1.1 0 2.2.1 3.4.1 0 1.3-.1 2.1-1.8 2.2zm.1-8.2c-2-3-1.5-3.6 3.2-5.6.4 2.8-2.5 3.4-3.2 5.6zm1.2-6.2c-.2-.2-.4-.4-.6-.5.8-1.2 1.6-2.5 2.6-4 .6.6 1 1.1 1.7 1.7-1.5 1-2.6 1.9-3.7 2.8zm9.7-8c1.4.3 2.5.6 3.7.8.8.1 1.6.1 2.3.1-.5-.5-1-1.1-1.5-1.6-.1-.1-.1-.2-.4-.7 1.2-.2 2.3-.4 3.7-.7 1-1.9 3.7-2.1 5.9-3.1.2-.1 1.1.5 1.1.7-.1 1.4-.4 2.8-.5 4.1 0 .6.6 1.4.4 1.8-.9 1.6-2.1 3.1-3.6 4.4.3-1.5.7-3 1-4.5-.3-.1-.6-.1-.8-.2-.8 1.7-1.6 3.4-2.7 5.9-.9-1.1-1.5-2.2-2.4-3-2.3-2.1-3.4-1.8-4.7.9-.3.6-.9 1.1-1.5 1.5-.1.1-.8-.7-1.3-1-.5.3-.4.6.5 3.2-.9-.8-1.8-1.5-2.7-2.3.2-2.4 4.2-2.8 3.5-6.3zm11.4 16.5c-.1.2-.2.5-.3.7l-4.2-1.5c2.3-1.4 2.6-1.3 4.5.8zm-5.5-11.2c-1.2 1.4-1.1 3.7-4.4 3.6.5-1.7 1-3.5 1.6-5.4 1.1.7 1.9 1.2 2.8 1.8zm-6.2 8.3c-.8-1.2-1.5-1.9-1.4-2.1.6-.8 1.3-1.6 2.2-2.2.2-.1 1.2.8 1.8 1.2-.7.9-1.5 1.8-2.6 3.1zm4.2-2.1c1.1-.6 2.2-1.2 3.2-1.8.2.3.4.6.5.8-1.1.6-2.1 1.3-3.2 1.9-.1-.3-.3-.6-.5-.9zm2.3 10.1c1.2.1 2.3.2 3.5.2-1 1.7-1.6 1.7-3.5-.2zm3.5 6.8c-.2-.1-.5-.2-.7-.2-.1-.7-.4-1.6-.1-1.9.5-.5 1.4-.5 2.2-.7.2.3.3.5.5.8-.7.6-1.3 1.3-1.9 2zm9.9-19.5h-4.4c.7 1 1.1 1.7 1.9 2.9-1.2-.2-2.2-.4-3.1-.5-.4-.1-.9-.4-1.3-.3-1.4.1-2.4-.4-2.3-1.8.1-1.6 1.3-2.3 2.8-2.5 1.6-.2 3.2-.2 4.9-.3.4 0 .8-.3 1.6-.6-.7-1.1-1.3-1.9-1.8-2.9-.6-1.1-1.3-2.3-1.5-3.5-.1-.6.5-1.7 1-2 2.1-1 3.1-2.6 3.3-4.7.2-.1.4-.1.6-.2.8 1.2 1.6 2.4 2.4 3.7-3.2 1.3-3.1 1.3-2.6 4.4.2 1-.2 2.1-.4 3.6.8.9 1.8 2.2 2.9 3.5-1.2 1.1-3.6.9-3.2 3.3-.3-.8-.5-1.4-.8-2.1zm.9 4.2c.8-.4 1.5-.7 2.4-1.1.4.7.7 1.4 1 2-2 1.2-2.3 1.1-3.4-.9zm8.1-8.9c-.3-2.5-.5-5.1-.7-7.9-.7.1-1.7.3-3 .5.2-1.8 3.5-2.9 1.4-5.1-.8.5-1.7 1-2.7 1.7-.4-1.1-.6-1.8-1-2.8 2.6-1.3 5.2-2.8 7.9-4 .7-.3 2.4.3 2.6.8.3.8-.2 2-.6 2.9-.2.4-.9.6-1.6 1 .5.8.9 1.5 1.3 2.2l-2.1 3c.3.5.7 1 1.2 1.6-.7.3-1.2.5-2.1.9.6 1.3 1 2.7 1.8 3.8.8 1.1.4 1.7-.5 2.2-.9.6-1.7.2-1.9-.8zm6 7.5c-1.3-1.3-2.3-2.3-4.2-1.1-.1.1-.5-.3-1.1-.6 1.2-.8 2.1-1.4 3-1.9 1.3.9 2.6 1.9 4.3 3.1 0 .9-.7 1.7-2 .5zm38.1-26.3c-.4-1.2-.1-2.6-.1-4 .2 0 .3 0 .5.1.8 1.5 1.5 3 2.6 5.2-1.4-.6-2.9-.8-3-1.3zm1.8-17.7c.2 1.4 1.2 1.1 2.1 1.1 1.7-.1 3.4-.2 5.2-.2.5 2.4-1 3.7-2.6 5-6.3-3.3-7.1-3-7.7 2.7-1.9-1.1-3.6-2.1-5.2-3.1-.9.7-1.9 1.5-3 2.3.7.2 1.6.5 2.2.7 0 .7-.1 1.2-.1 1.8.7-.4 1.3-.9 1.8-1.2 1 1.5 2.3 3.4 3.5 5.3.2.4 0 1.1-.1 1.6-.5 2.1-.4 2.4 2.1 4.1-1.2.7-2.1 1.3-3.2 1.9-.5-1.3-.8-2.1-1.1-2.9-.2 0-.4.1-.6.1-.4.8-.8 1.7-1.1 2.3-1.8-.6-3.4-1.2-4.9-1.8-.2.2-.5.3-.7.5.8 2 1.5 4 2.5 6.6-1.1.9-2.7 2.3-4.7 4-.7-.5-1.5-1-2.5-1.7-.7.3-1.7.6-3 1.1 0-2.7 1-5.5-2.3-6.9 0-.2.1-.4.1-.5 1.6-.5 3.3-1 4.9-1.5.2.2.4.4.6.7-.5.8-.9 1.6-1.5 2.6.2.7.4 1.8.6 2.7 1.4.3 2.6.6 4.2.9 2.1-.8.6-2.4.4-4.2-1.1.7-1.9 1.3-2.8 1.9-.2-.1-.3-.2-.5-.3 1.2-2.5 2.3-5 3.6-7.4.3-.5 1.5-.4 2.2-.7.7-.3 1.4-.6 2.1-1-.5-.5-1-1.1-1.5-1.6-.3-.3-.6-.5-1.1-.9-1 1.3-1.8 2.6-2.8 3.6-.9.9-1.9 1.7-3.1 2.3-1.7 1-2.3-.7-3.3-1.4-.2-.2-.5-.2-.8-.3-1.8 1.5-3 3.1-2 5.4-2 1-5.3.6-4.6 4.4 3.6-2.2 4.8.6 6.6 2.6-.3.6-.6 1.3-.9 2.1 1 .1 1.7.2 2.5.3.6 1.8-.3 2.6-2 3.1-1.4.4-2.8 1.1-4.6 1.7-.9-.5-2.2-1.3-3.6-2.1.3-.7.5-1.4.8-2.1.1 0 .2 0 .3.1 0 .6-.1 1.1-.1 2 .9-.3 1.7-.6 2.6-.7.5-.1 1.4-.4 1.6-.1 1.1 1 1.8.2 2-.5.2-.5-.2-1.4-.6-1.9-.6-.8-1.3-1.4-2.4-2.5-1 .5-2.6 1.3-4.2 1.9-.6.2-1.3.2-1.9.1-2.8-.9-5.6 1-5.6 3.7 0 1.3.6 1.8 1.8 2 .6.1 1.2.3 1.9.5.1.2.1.4.2.6-1.4.7-2.7 1.4-4 2.1-.5-1-.6-2.3-1.4-2.9-2.2-1.5-2.7-3-.1-5.2h-2.9c0-.2-.1-.4-.1-.6 1.1-.2 2.1-.3 2.6-.4 1.2-2.4 2.3-4.6 3.4-6.7 1.8 1.4 3.4 2.6 5.1 3.9.9-1.3 1.5-2.2 2.1-3.1-1.4-2.4-.8-5.7-3.8-7.4v3.8c.2 0 .4 0 .6.1-.6.4-1.1.9-1.7 1.3-1.9 1.1-2.7.7-3.6-1.2-.8-1.7-2.1-3.2-3.2-4.8 8.2-4.9 16.9-10 25.6-15.1 1 .2 1.9.3 2.9.5.1-.3.1-.5.2-.8-.6-.2-1.2-.3-2-.6 2.4-1.6 4.7-3.2 7.1-4.8.8 2.8-3.6 4.2-1.4 7.5.9-2.9 3.3-4.8 2.4-7.8 0-.1.7-.4 1.1-.5.6-.2 1.7-.3 1.7-.5-.1-2.1 1.8-2.7 3.1-3.6.8-.6 1.5-1.3 2.2-1.8.8 1.1 1.7 2 2.3 3.1.7 1.3 1.8 1.5 3.3 1.7.6.1 1.1 1.4 1.6 2-2.8.4-5 .7-7.3 1-1.4-.1-1.7.7-1.5 2zm12.3-2.6c1.3-.4 2.4-.7 3.5-1.1 2.2-.8 2.5-.7 2.9 1.7-2.7 1.2-5.5.9-6.4-.6zm4.6-4.8c-1.4-.1-2.9.7-4.8 1.2-.2-.7-.4-1.8-.6-3-.4 0-1 .1-1.5.2-1.2-2.4-1.7-2.5-3.5-.1.4-1.6.7-2.6 1-3.7 1.4.4 2.6.8 4.3 1.3-.1-1.4 0-2.4-.4-3.2-.7-1.7-.3-2.9 1.3-3.8.9-.5 1.7-1.4 2.6-2.1.7.7 1.3 1.3 1.9 2-.9.7-1.9 1.2-2.2 2-.3.7.3 1.6.5 2.5-1 1.3-2.1 2.8-3.5 4.7 1.6-.2 2.8-.4 4.2-.6-.3-.7-.6-1.2-.8-1.7.1-.2.2-.3.3-.5l6.3 2.1c-1.6 2.9-1.7 2.8-5.1 2.7zm9-1.6c-.8-.6-1.6-1.3-2.4-1.9-1.2-1-2.6-2-3.7-3.2-.5-.5-.7-1.5-.7-2.2.1-1 .6-1.9.8-2.8.1-.7 0-1.4-.1-2.4-1.2.6-1.9 1-2.9 1.5-.2-3.7 3.1-4.3 4.9-6.1v3.2c.9-.3 1.6-.6 2.7-1-.1 2.6-.6 5-.3 7.4.3 2.5 1.3 4.8 2.1 7.3l-.4.2zm.7-7.4c.7-.8 1.2-1.5 1.7-2.1.7.6 1.4 1.1 2.2 1.7-1 1.5-2.2 1.3-3.9.4zm4.4 7.3c.7-.8 1.3-1.6 2-2.3.4.7.8 1.4 1.5 2.5-1.5.1-2.3.2-3 .3l-.5-.5zm7.1 46.8-.9.3c-.6-1-1.4-1.9-1.7-3-.1-.3 1.4-1 2.2-1.5.3.2.5.4.8.7-.2 1.2-.3 2.4-.4 3.5zm.6-9.4c0 .2-1.3.3-2 .6-.5.2-1.3.5-1.3.6 1.1 3.5-1.8 5.7-2.8 9-2.5-3.8 2.5-5.5 1.7-8.7 1.6-1.1 3.3-2.2 4.9-3.3-.4.5-.6 1.1-.5 1.8zm-1.9-44c2.6.5 2.5 2.1 2.2 3.2-.4 1.2-1.6 2.2-2.7 3.6-1.2-2.7.5-3.5 1.9-4.5-.4-.7-.8-1.3-1.4-2.3zm7.2 1.5c-1.9-.2-3.2-.9-3.1-3.1h4.6c-.6 1.2-1.1 2.1-1.5 3.1zm-5.9-3.2c-.7-.5-1.4-.9-2.2-1.5.9-.8 1.5-2.1 3.4-1.6.7.2 1.7-.6 2.5-1.1 1-.6 1.8-1.3 3-2.1.3 1.2.6 2 .9 3-3.8-1.1-4.9 2.7-7.6 3.3zm7.5-12.1c-1.5-1.1-2.5-1.8-3.9-2.8-1.1.1-2.9.3-5.2.5 1.1 1.3 2.2 2.5 3.4 3.9.5-.4 1.1-.9 1.7-1.4.2.1.4.2.6.2-.4.7-.6 1.9-1.2 2.1-1.6.7-2 1.7-1.5 3-.9.8-1.7 1.6-2.6 2.4-1.4-.7-1.3-1.3.6-3.1-.8-.4-.8-.4-3.9 2.7.3 2.1.6 4.1.9 6.4-1.2-.1-2.2-.1-3.4-.2.2-.6.3-1 .4-1.4.3-.6.6-1.1.9-1.7-.8-.3-1.7-.8-2.5-1-.7-.1-1.4.2-2.1.4-.5-.6-1-1.1-1.4-1.5.5-1.2 1.1-2.4 1.4-3.7.6-2.6 1.7-4.7 5.2-4.5-.1-.2-.1-.4-.2-.6h-4.3c.9-2 5.3-1.7 3.5-5.3 2.2-2.6 4.4-5.3 6.7-8 .3.1.6.2.8.3-.2 1-.5 2-.7 3h-.6c.4.7.9 1.4 1.3 2.1-1 .8-2.1 1.6-3 2.5-.1.1.5.7.8 1.2.6-.9 1.1-1.5 1.9-2.6.4 1.3.7 2.2 1 3h.4l.6-3.9c.2 0 .5-.1.7-.1.2.7.3 1.3.5 2s.5 1.3.9 1.9c.1.1 1.1-.1 1.1-.2.1-.6.1-1.3 0-1.9-.1-.8-.2-1.6-.3-2.5-.5 0-1.1-.2-1.8-.2-1.3 0-2.4-.4-2.1-1.7.1-.4 1.4-.7 2.3-1.1-.7-.4-1.6-.9-2.5-1.3 0-.2.1-.4.1-.5.7.2 1.6.2 2.2.6 1.3.9 2.4 1 3.8-.6.3 1.1.8 2 .5 2.3-1.2 1.3-.5 2.6-.3 4 .2 1.2 0 2.4-.1 4.1.3.1 1.2.5 2.3 1-1 .3-3.1-1-2.9 2.2zm2.2-15.3c.1-.2.3-.3.4-.5-.7-.3-1.5-.6-2.5-1-.3.8-.5 1.6-.8 2.6-.7-.5-1.4-.9-2.2-1.5-.4.2-1 .4-1.6.7l-.3-.3c2.1-2.3 4.2-4.6 6.3-6.8 1.6 1.5 1.5 2-.3 2.8-.9.4-1.8.9-2.6 1.4l.6.9c1.7-1.1 3.5-2.1 5.7-3.5 0 1.5.1 2.7 0 3.9-.2 1.7.1 2.8 2.4 2.9-1.3 1.2-2.6 1.8-3.8.8-.8-.4-.9-1.6-1.3-2.4zm4.8 6.1c-.3.9-.5 1.7-.8 2.7-1-.5-1.8-1-2.7-1.5 1.2-2.1 3.1-3 5.1-2.2.7.3 1 1.3 1.5 1.9-.3.2-.6.4-.8.6-.7-.4-1.4-.9-2.3-1.5zm15.6-27.8c-.7-.2-1.4-.5-2.2-.7 0-.3.1-.8.3-1.6-1.7.5-2.9 2.7-4.8.7 1.2-2.4 3.4-1.7 6-1.4-.7-1.2-1.3-2.1-1.9-3.1.6-.3 1.5-.8 2.5-1.3 1.3 1.8-2.5 4.6 1.6 5.5-.6.7-1 1.3-1.5 1.9zm2.6-.9c1-1.6 1.8-3 2.8-4.3.3-.4 1.2-.3 1.9-.5.1.6.5 1.3.2 1.7-.9 1.8-2 3.3-4.9 3.1zm21.8 53c-1.1.5-2.6.8-2.7 1.2-.3 1.5 1 2 2.5 2 .7 0 1.5.1 2.1.2.1 1.1.2 2 .3 3 .1.7.1 1.5 0 2.2 0 .2-1.2.4-1.3.3-.4-.7-.7-1.5-1-2.3-.3-.8-.4-1.5-.6-2.3-.3.1-.6.1-.8.2-.2 1.5-.5 3-.7 4.6h-.5c-.3-1-.6-1.9-1.2-3.5-.9 1.2-1.4 2-2.2 3-.4-.6-1-1.4-1-1.4 1.1-1 2.3-1.9 3.5-2.9l-1.5-2.4h.7c.1-.6.3-1.1.4-1.7.5-.5 1-1 1.5-1.4.9.3 1.8.8 2.5 1.2zm6.8-105.7c-2.4.2-3.2-1-3.4-3 2.1-.6 3.5.8 3.4 3zm.3-287.7c-.5-.5-1-1-1.3-1.6-.2-.5 0-1.1 0-1.7-2.1.2-2.3-.1-1-4 1.1 1.8 2.3 3.6 3.2 5.5.1.3-.6 1.2-.9 1.8zm-1-26.1c0-1.4.6-2.3 2-2.2.9 2.5 1.7 4.6 2.5 6.9-2.4-.3-4.4-2.4-4.5-4.7zm11.3 282-3.9 3.9c-.6-1.5 1.1-3.7 3.9-3.9zm2.9 5.9c.5-.7 1-1.5 1.5-2.2.4.3.8.5 1.2.8-.5.7-1 1.5-1.6 2.1 0-.1-.7-.5-1.1-.7zm8.4 98.8c-.9-.1-1.7-.2-2.5-.3.4-.5.9-1.1 1.3-1.6.4.6.8 1.2 1.2 1.9zm4.6-187.5c-1.4-2.7-1-5 .1-7.3 1.8 1.5 1.8 4.4-.1 7.3zm5.1-11.7c-2.4-12.3-.6-24.5.1-36.8 1.5 12.3 1.5 24.5-.1 36.8zm.2-52.7c2.8 1 3.2 3.2 1.4 8.5-1.2-1.2-1.4-2.9-1.4-8.5zm-1 129.2c-.8-4.5-.3-5.9 2.4-6.1 0 4.8-.3 5.6-2.4 6.1zm3-15.9c-.8-1.2-1.5-2.2-2.2-3.4 1.1-2 2.9-1.3 5.3-1.3-1.2 1.7-2 3.1-3.1 4.7zm.4-140.1c0-.9-.3-2-.9-2.6-5.1-5.2-7.8-11.4-9.1-18 1.4-.3 2.7-.5 3.9-.8 2.2-.5 3.2-.1 3.8 2 .3 1.1.5 2.4.5 3.5.1 5.8 2.2 10.8 5.4 15.7-.4-.3-.9-.6-1.7-1.1 0 1.5-.3 2.8.1 4 .7 2.6 1.8 5.1 2.6 7.6.9 2.9 1.2 5.7-.6 9-1.9-6.6-4.3-12.6-4-19.3zm8.4-58.5c-1.5-1.4-3-2.9-4.8-4.6.2-.2.6-1 1.3-1.4 1-.7 2.1-.8 2.6.7.6 1.6 1.1 3.2 1.7 4.9-.3.1-.5.3-.8.4zm12.5 7-3.3-4.5c2.1-1.1 3.7.8 3.3 4.5zm5.2 5.4c0 .4-.5 1-.8 1.1-.5.1-1.4-.2-1.5-.5-.3-.9-.6-1.9-.4-2.8.2-.6 1.2-1.1 1.9-1.6.2.2.4.3.6.5.1 1.1.3 2.2.2 3.3zm25 55.7c2.7 1.9 1.8 4.7 2.3 7.2-2.1-2-2.3-4.5-2.3-7.2zm8.1 46.9c-1.9-5.3-3-10.5-2.4-16 2.7 2 4.1 10.9 2.4 16zm-1.8-17.1c-4.2-3.7-2.4-8.4-3.7-12.6 2.8 1.1 3.2 2.3 3.7 12.6zm-16.4-213c.1.7 0 1.5.3 2.1 2.1 3.6 4.7 7.1 6.5 10.9 4.4 9.3 8.4 18.9 12.9 28.2 2.3 4.7 5.3 9.1 8.2 13.9 1.9-2 .8-3-.1-4.1-.8-1.1-1.6-2.4-2.1-3.7-1.8-5.1-3-10.5-5.3-15.3-3.8-8-8.4-15.8-12.6-23.6-1.5-2.8-2-6.3-5.8-7.4-.7-.5-1.3-.8-2-1z"/>
  <path class="st2" d="M125.3 224.1c.8-.7 1.8-1.3 2.5-2.2 1-1.2 1.8-2.6 3-4.2-2.2.3-3.9 1-4.8.5-.9-.5-.8-2.4-1.3-4.4-7.7 9-14.9 17.5-22.2 26 .2.3.5.6.7.9 2.1-.4 4.1-.8 6.2-1.4 2.6-.7 2.9-1.5 1.7-3.7-1.1-2.2-.6-3.3 2-3.4 1.8-.1 3.7.4 5.1.6.5-2.2 1-4.4 1.6-6.8-1.3 1.1-2.2 1.9-3.2 2.8l-.8-.8c1.7-1.7 3.3-3.4 5.2-5.3 1.2 3.8 1.6 3.9 4.3 1.4zm496.2-72.7c-1.6-2-.5-3.2 1.3-3.5 2.2-.4 4.6-.5 6.9-.2 2.6.4 5.1 1.5 7.6 2.2 1.6.5 3.1.4 4.8-1.4-8.2-2.9-15.9-5.7-23.9-8.5-1 1-2.3 2.4-3.8 4 1 .4 1.6.5 1.8.8.8 1.2 1.4 2.6 2.1 3.8-1.1.4-2.2 1.1-3.4 1.2-1.4.1-2.9-.5-4.3-.5-1 0-2 .5-2.9.8.1.2.1.5.2.7 4.4-.7 8.7 2.8 13.6.6zM828 275.6c-.6 1.8-1 3.3-1.5 4.7-.5 1.5-.2 2.2 1.4 3 2.6 1.2 5.1 2.7 7.3 4.5 2.8 2.2 5.1 4.9 7.8 7.1 2.2 1.8 4.7 3.1 7 4.7.2-.3.5-.5.7-.8-3.8-10.8-14-16.2-22.7-23.2zm.8 3c3.3-.2 3.2 2.9 5.1 4.2-2.7.8-4.6-.8-5.1-4.2zM682.4 957.9c1.1.9 2.1 1.8 3.2 2.7-1-3-1.1-3.3-.6-3.7.5.5 1.4 1.3 1.5 1.2.7-.5 1.4-1.1 1.8-1.8 1.5-3.2 2.8-3.5 5.4-1.1 1 .9 1.7 2.2 2.7 3.5 1.3-2.9 2.3-4.9 3.2-6.9.3.1.6.2 1 .3-.4 1.7-.8 3.5-1.2 5.2 1.7-1.5 3.1-3.2 4.1-5.1.3-.5-.5-1.4-.5-2.1.1-1.6.5-3.2.6-4.8 0-.3-1-1-1.3-.9-2.5 1.2-5.7 1.4-6.8 3.6-1.6.3-2.9.6-4.3.8.3.5.3.7.5.8l1.8 1.8c-.9 0-1.8 0-2.7-.1-1.4-.2-2.7-.6-4.3-.9.8 4.2-3.9 4.7-4.1 7.5z"/>
  <path class="st2" d="M713.9 959.4c-1.3-1.5-2.5-3-3.4-4 .2-1.7.6-3 .4-4.1-.6-3.7-.7-3.6 3-5.1-.9-1.4-1.9-2.8-2.8-4.2-.2.1-.5.1-.7.2-.3 2.4-1.5 4.3-3.9 5.4-.7.3-1.3 1.6-1.2 2.4.3 1.4 1 2.7 1.7 4 .6 1.1 1.3 2.1 2.1 3.4-.9.3-1.4.6-1.9.7-1.9.2-3.8.2-5.7.4-1.8.2-3.2 1-3.3 2.9-.1 1.6 1.1 2.2 2.7 2.1.5 0 1 .3 1.5.4 1.1.2 2.2.4 3.7.6-.9-1.4-1.4-2.2-2.2-3.4h5.1c.3.8.6 1.6.9 2.3-.2-3 2.6-2.8 4-4zm8.2-3.1c1.1-.6 1.6-1.2.6-2.5-.9-1.3-1.4-2.9-2.1-4.4 1-.5 1.7-.7 2.4-1.1-.6-.8-1-1.3-1.4-1.9.9-1.2 1.7-2.4 2.5-3.5-.5-.8-1-1.6-1.5-2.5.8-.5 1.6-.7 1.8-1.2.4-1.1 1-2.5.6-3.4-.2-.6-2.3-1.3-3.1-.9-3.2 1.3-6.2 3.1-9.2 4.6.4 1.2.7 2 1.1 3.3 1.2-.7 2.2-1.4 3.2-1.9 2.4 2.6-1.4 3.8-1.6 5.9 1.5-.3 2.6-.5 3.4-.6.3 3.2.5 6.2.8 9.2.3 1.2 1.3 1.6 2.5.9zm23-774.8c2.3 1.1 4.7 1.9 7.8 1-7.3-4.8-13-11.9-23.2-9.4v3.7c2.9.5 5.8.7 8.4 1.5 2.5.7 4.7 2.1 7 3.2zm121.4 141.2c2.2 3.1 3.2 3.5 7.3 2.3-2-3.1-4-6.2-6.2-9.2-1.1-1.6-2.4-3.2-3.9-4.6-1.8-1.6-3.9-1.6-5.9-.4 3 4.2 5.9 8 8.7 11.9zm49.6 168.2c.5-4.5-3.2-15.6-6.4-18.9-2.2 8.3.8 17 6.4 18.9zM811.2 310.5c6.3 4.7 10.8 11.3 19.3 13.3-2.5-5.5-13.6-13.2-19.3-13.3zM925 395c.2-.4.3-.9.5-1.3.3-.1.5-.2.8-.4 1.1 1.7 2.3 3.3 3.2 5.1 1.1 2.2 1.8 4.6 2.9 6.8 1 1.9 1.7 2.1 3.7 1.6-2.7-5.9-5.4-11.8-8.2-17.8-3.7 2.8-4.7 5.2-2.9 6zm-24.4 60.1c.8 5.6 4.6 9.7 7.6 14.3.3-.1.7-.3 1-.4-2.2-6.1-4.4-12.2-6.6-18.4-1.8 1-2.3 2.7-2 4.5zm-22.8-100.4c-.1.2-.2.5-.3.7 3.9 5 6.7 10.9 12.5 14.4-5.2-7.4-5.5-8.2-5-12.6-2.6-.8-4.9-1.7-7.2-2.5zM602.9 149.9c-1.9-3.6-12.5-4.8-17.6-2.1 6 .5 11.4 3.9 17.6 2.1zm391.4 431.3c-.7 6.4.5 12.5 2.8 18.6 2-5.9.5-16.3-2.8-18.6zM79.7 146.8c5.1 1.6 10.3-1.4 13.3-7-1.5-.5-3-1.1-4.7-1.8-1.1 4.4-3.2 7.8-8.6 8.8zm66.4 555.9c-.4 0-.7 2.2-.9 2.7 1.6.8 3.2 1.3 3.2 1.8.1 1-.8 2.1-1.4 3.4 4-1.2 2.5 2.4 4.1 3.5 1.7-1.1 1.5-2.5.9-4.1-.6-1.9-.9-3.8-1.3-5.7.2-.2.5-.4.7-.7-1.7-.3-3.5-.9-5.3-.9zm-32.6-486.2c-3.6 4.6-9 8-11 14.1 2.3-2 4.3-3.8 6.3-5.5 1.6-1.4 3.3-2.6 4.8-4 1.5-1.7 1.4-2.9-.1-4.6zm772.4 125.6c-2-5.1-4.6-9.9-9.3-13.5.4 6.1 4.9 9.7 9.3 13.5zM154.6 722.4c-.1.4.8.9 1.2 1.4.3-.2.6-.3.9-.5-.5-1.2-.8-2.3-1.4-3.5-.8-1.7-.5-2.8 1.7-3 .2.8.5 1.4.7 2.1 1.2-2.4 0-3.6-1.7-4.3.5-2.3 1-4.4 1.5-6.5-.2-.1-.5-.2-.7-.2-.6 1.2-1.5 2.4-1.6 3.7-.1 2.2-.9 4-2.7 5.3-.8-.3-1.6-.5-2.4-.8-.1.2-.3.5-.4.7.8.6 1.5 1.5 2.4 1.9 1.6.8 3 1.5 2.5 3.7zm657-431.2c1.4 1.7 3.3 2.2 5.2 1.2-1.9-2-3.8-3.9-5.8-5.8-1.4-1.3-2.8-2.7-4.3-3.8-.8-.5-2-.5-3-.7 1.8 1.9 3.5 3.4 5 5.1 1.1 1.2 1.8 2.7 2.9 4zm16-40.3c3.7 3.6 5.4 4.8 8.3 4.6-2.7-2.8-5.6-5.3-8.5-7.8-.5-.4-1-.9-1.5-1.3-1.6-1.2-3.2-2.5-5.4-1.9 2.4 2.1 4.9 4.1 7.1 6.4zM995 580c-.6-11.9-.9-13.3-4.3-14.6 1.6 4.8-.5 10.3 4.3 14.6zm-81.9 159.7c4.1-2.4 5.8-8 3.5-11.8-3.9 6.4-4.8 9.3-3.5 11.8zm61.5-236.9c.2 5.3 3.2 12.4 6.3 14.5-2.3-4.9-.5-10.9-6.3-14.5zM756.9 225.2c-2.1-5-7.5-5.3-12-8.1 1.9 6.5 8 5.9 12 8.1zm-115-48.6c-1.4.1-3.2.2-3.4 2.4 6.2-2.8 11.1 3.1 17.1 2.3-2.4-2.7-10.7-5-13.7-4.7zm135.7 25.8c-2.1-.9-4.2-2.2-6.5-2.6-.8-.1-2 2-2.8 2.8 2.1 1.4 3.7 2.4 5.5 3.6-.5-3.2 2.2-2.1 3.8-3.8zm39.3 38.8c-3.1-4.1-7.4-6.7-12.2-8.6 2.8 4.5 7.1 7.1 12.2 8.6zm58.7 165.2c2.8 2.3 5.5 4.4 8.1 6.5-.4-2.2-.7-4.4-1.1-6.8-1.9.3-4.6-1.3-7 .3zm18.2-67.1c.4-.7.9-1.4 1.4-2.1 1.5-2.4 1.2-3-1.7-3.7-.3 1.1-.4 2.7-1.1 3.2-.8.6-2.3.1-4.5.1 1.7 1.9 3.1 3.3 4.8 5.1.5-1.2.7-1.9 1.1-2.6zM103.4 663.1v4.7c1.6-.1 3.2.1 4.6-.3.6-.2 1.3-1.8 1.1-2.3-.9-2-2.9-2.2-5.7-2.1zm718.3 224.8c-.9.5-2.1 1.5-2.9 1.3-2.3-.6-3 1-4 1.9.9.6 1.7 1.1 2.5 1.7 3.1-.7 4.5-5.1 8.8-3.7-.4-1.3-.6-2.2-1-3.5-1.3.8-2.3 1.6-3.4 2.3zm66.1-479.2c.1 2.6 2.4 5.1 5.3 5.5-1-2.6-1.9-5.2-2.9-8-1.7-.2-2.4.8-2.4 2.5zm46.2 50.5c-.8.5-1.3 1.4-1.5 1.7 2 1.9 3.8 3.6 5.6 5.3.3-.2.6-.4.9-.5-.6-1.9-1.3-3.8-1.9-5.7-.6-1.7-1.9-1.6-3.1-.8zm-26.5-61.9c-.6-4.2-2.9-6.9-6.6-9.1-.6 5 3.5 6.6 6.6 9.1zm11.3-24.5c-1.7-3.8-3.2-7.2-4.8-10.6-.2.1-.5.2-.7.2-.7 4.2 1.3 8.2 5.5 10.4zM74.9 549c.8-2.8 1.8-5.5-1-8.2-2 2.5-1.6 5.9 1 8.2zm406.5-398.9c-6-1.7-8.7-1.9-8.5 1.8 3 .2 5.9.4 8.5-1.8zm206.8 810.7c3.9.1 3.7-2.6 5.1-4.2-1-.7-2-1.3-3.3-2.1-.7 2.3-1.3 4.3-1.8 6.3zm236.3-245.3c2.3-.6 2.7-1.6 2.7-7.1-3.1.3-3.7 1.9-2.7 7.1zm-763.1 31.6c-.4 0-.8-.1-1.2-.1-.9 1.8-1.9 3.6-3 5.6 2.6-.3 5.6 1.5 6.1-2.4-1.6-.3-3.5-.5-1.9-3.1zM815.2 228c-.8-2.6-2.7-4.3-4.8-4.3-1 0-2.1.6-3.1 1 .1.3.2.7.3 1 2.5.7 4.9 1.5 7.6 2.3zm110.1 465.1c.9 1.3 1.7 2.5 2.6 3.9 1.2-1.9 2.2-3.5 3.5-5.5-2.7.1-4.9-.7-6.1 1.6zM213.4 831c-2.9 1-2.6 3.7-3.7 5.5 2-.6 5.3 2 5.6-2.2-2.7-.8-2.7-.8-1.9-3.3zm458.7 143.4c-1.8 1.2-3.5 2.3-5.3 3.5v.5c.9-.1 1.8-.1 2.6-.4 1.4-.5 2.8-1.4 4.2-1.5 2-.2 2.1-1.1 2.1-2.5-1.4-.1-2.7-.1-4-.2.2.3.3.5.4.6zm186.5-144.7c-1.2 1.5-2 3.1-3.2 5 3.3.2 4.7-1.5 5.7-3.6.3-.5-.2-1.3-.3-2-.7.2-1.8.1-2.2.6zM836.1 867c-2.3-1-4.5 0-5.9 2.5 1 .5 1.9 1.1 3.1 1.7.3-1.2.6-2.1.9-3.2 1.1.8 1.9 1.3 2.7 1.9.3-.2.6-.5 1-.7-.6-.8-1-1.9-1.8-2.2zm-44.7 41.7c-1.3.5-2.6.8-4 1.3 1 1.8 4.3 2.1 7.4.7-.4-2.8-.8-3-3.4-2zm125.2-405c.6.4 2.4-.1 3.2-.7.8-.6 1-1.9 1.6-3.2-2.4.4-4.1.6-6.4.9.5.9.7 2.4 1.6 3zM673.8 967c.8-2.5 4.2-3.2 3.7-6.5-5.5 2.3-5.9 3-3.7 6.5zM62.9 175.2c-1.3 1-2.2 2.4-3.3 3.6.1.2.2.3.4.5 1.6-.5 3.4-.7 4.8-1.5.6-.4.6-1.8.9-2.7-1 0-2.2-.3-2.8.1zm657.7 786.9c.6.4 1.1.8 1.2.7 2.2-1.4 3.4-.2 4.8 1.3 1.5 1.5 2.3.5 2.4-.6-1.9-1.4-3.5-2.5-4.9-3.6-1 .6-2.1 1.3-3.5 2.2zm118-701.5c3 1.7 2.9 6.1 7.5 7.1-1.4-2.1-2.4-3.5-3.3-4.9-1.6-2.9-1.8-3.1-4.2-2.2zm119.2 215.6c-.8.6-2 1.1-2.2 1.9-.3 1 .1 2.2.5 3.3.1.4 1.2.6 1.7.5.4-.1.9-.8.9-1.2.1-1.3-.1-2.6-.2-3.9-.2-.2-.5-.4-.7-.6zm-7-15.9c-.2.1-.5.3-.7.4 1 3.1 1.4 6.5 4.8 8.4.3-.2.5-.3.8-.5-1.7-2.8-3.3-5.6-4.9-8.3zM904 441c0-1.2 0-2.5-.4-3.6-.2-.6-1.4-.9-2.6-1.6-.1 1.4-.3 2.2-.1 2.8.4 1.1 1 2.1 1.6 3 0 .2 1.5-.3 1.5-.6zM110.9 212.8c3.2-.8 5.2-2.5 6-6-3.6 1-4.8 3.5-6 6zm576.2 748.5c-1 .6-1.9 1.6-2.5 2.5-.2.3.7 1.1 1.6 2.5 1.3-1.6 2.1-2.6 2.9-3.6-.7-.4-1.8-1.5-2-1.4zm300.7-416c-.1 3.1.2 6 2.6 8.3-.5-2.8.5-6.1-2.6-8.3zM466.1 173c1.8-2.7 6.2-.1 8-3.8-6.8.5-9 1.5-8 3.8zm347.5 46.2c.5.4 1.7.1 2.5.1l.3-.9c-1-1-1.9-2.1-3-2.9-.4-.3-1.5.3-2.3.6.8 1 1.5 2.2 2.5 3.1zm10.6 677.2c.5-1.1 1-2.2 1.7-3.6h-5.3c-.1 2.6 1.4 3.4 3.6 3.6zm-8.3-1.7c.7 1.2 1.1 1.9 1.6 2.7-1.6 1.1-3.5 2.1-2.2 5.3 1.3-1.6 2.7-2.7 3.1-4.1.4-1.4.5-3.3-2.5-3.9zM632.1 166c-.2 2.7 1.1 3.4 5.1 2.7-.5-2.6-1.8-3.2-5.1-2.7zm223.2 180.1c.5-3-.9-4.2-3-4.8-.8-.2-1.8.3-2.8.5 2.2 1.6 3.8 2.8 5.8 4.3zm-23-19.1c1.5 2.2 2.4 5.1 7.2 4-2.5-1.8-4.5-3.3-6.6-4.8-.2.3-.4.6-.6.8zm-55.7-55.6c1.5-.7 2.7-1.2 4.1-1.8-2-1.2-3.6-2.1-5.1-3l-.6.6c.5 1.2 1 2.5 1.6 4.2zm-94.7-78.1h4.1c0-.6.2-1.6-.1-1.7-1.2-.7-2.5-1.1-4-1.7v3.4zm226.7 162.1c0-3.3-1.5-5.3-4.3-7.2.7 3 1.4 5.4 4.3 7.2zM186.8 803.5c.9-.9 1.8-1.8 3-2.9-.6-.5-1.5-1.3-2.3-1.9-2.5 1.3-2.7 3.1-.7 4.8zm654.3-559.4c-2.1-2.1-4.2-4.3-6.2-6.4l-.6.6c1.3 2.8 4 4.3 6.8 5.8zm60.3 100.3c.1-2.5-1.5-4.1-3.9-6 .9 2.8 1.6 4.9 2.4 7.5.4-.4 1.4-.9 1.5-1.5zM138.6 718v3.6c1.6-.6 2.9-1.1 4.2-1.8.1-.1 0-1.2-.2-1.2-1.3-.3-2.6-.4-4-.6zm51.8 83.6c.1 1.9.1 2.7.2 4 1.7-.9 4.2.3 4.1-2.2.1-.6-2.3-1.1-4.3-1.8zm327.1-659.1c-.5 0-.9.8-1.3 1.2.5.4 1 1.1 1.4 1 1.7-.3 3.3-.7 5-1.1-.1-.4-.1-.7-.2-1.1-1.7 0-3.3-.1-4.9 0zm349.6 673.2c-1.8-1.6-2.8-.7-3.6.7-.7 1.3-1.3 2.6.3 3.5 1.2-1.6 2.3-2.9 3.3-4.2zM948.8 469c1.3 1.8 2.5 3.5 3.8 5.2.5-4.2-1.3-6.4-3.8-5.2zM197.2 808.5c1.2 3.4 2.8 4.4 6 3-2.9-.3-3.1-3.7-6-3zm658.1-507.3c-.2.1-.4.2-.7.3l-.3 4.2h4c-1.2-1.8-2.1-3.2-3-4.5zm-84.5 627.7c0 1.6-.3 3.2.1 4.6.2.6 1.8.8 3.5 1.5-1.3-2.5-2.1-4.3-3-6.1-.2.1-.4 0-.6 0zM652.6 967c2.3-.7 2.8-1.9 1.9-4.7-2.5.7-2.8 1.3-1.9 4.7zm131.3-658.4v-3.7H781c-1 2.6.5 3.4 2.9 3.7zM145 724.8c1.6 3.4 2.8 4 5.7 3-1.8-1.3-3.5-2.5-5.1-3.7-.2.2-.4.4-.6.7zm529.5 234.4c.2.2.5.4.7.6 1.3-1 2.6-2 4.2-3.3-.7-.7-1.2-1.3-1.9-1.9-1.2 1.7-2.1 3.1-3 4.6zm186.1-135.6c0-.7-.7-1.4-1.1-2.1-.3.1-.7.3-1 .4-.3 1.4-.5 2.9-.8 4.4 2.3.1 2.8-1.3 2.9-2.7zm-706-69.1c-.6.9-1.1 1.9-1.7 2.8.9.4 1.9.8 3.4 1.4-.3-1.8-.4-2.9-.6-3.9-.4-.1-.7-.2-1.1-.3zm17.1 14c.8-1.4 1.4-2.3 2.3-3.8-1.8-.2-3.2-.4-4.4-.6.7 1.5 1.3 2.7 2.1 4.4zm668.3 85 .6.9c1.9-1.1 3.8-2.3 5.7-3.4-.2-.4-.5-.7-.7-1.1-1.9 1.2-3.7 2.4-5.6 3.6zm-633.2-15c-.6.9-1.2 1.8-1.9 2.8.9.5 1.7.9 3.3 1.8-.2-1.9-.2-3-.3-4.1-.4-.2-.7-.3-1.1-.5zM804 893.9c1.9 1.1 3.3 1.3 4.5-.5-.9-.7-1.7-1.3-2.5-2-.6.7-1.2 1.5-2 2.5zm-104.6 76.6c.1-.3.2-.5.3-.8-2.3-2.4-2.6-2.5-5.2-1 1.7.6 3.3 1.2 4.9 1.8zM228.1 854c.3.3.6.7.9 1 1.7-1.3 3.3-2.7 5-4-.2-.3-.4-.5-.7-.8-1.7 1.3-3.5 2.5-5.2 3.8zm635.6-24.9c.3 1.1.5 2.1.8 3.2 1.1-.1 2-.2 2.8-.3l.6-.6c-1.1-1-2.2-1.9-3.3-2.9l-.9.6zM710.3 965.8c1.3 2.3 1.7 2.4 3.9 1.1-.4-.7-.7-1.5-1.1-2.3-1.1.4-1.9.7-2.8 1.2zm-62.2 1.9c.9 1.1 1.6 2 2.3 2.9.3-.2.7-.4 1-.6-.2-1.2-.5-2.4-.7-3.8-1 .6-1.7 1-2.6 1.5zM206 820c.1 1.2.2 2.4.2 3.6 1.3-.2 2.3-.3 3.3-.4-1.1-1.3-2-2.4-3-3.5-.1.1-.3.2-.5.3zm603.1 82.4c.2.2.3.4.5.5.9-.1 1.8-.2 3.5-.3-.8-1.3-1.3-2.1-1.7-2.9-.8.9-1.5 1.8-2.3 2.7zM153.8 735.9c.1 1.2.2 2.3.3 3.5 1.2-.2 2.1-.3 3.2-.4-1-1.3-1.9-2.4-2.8-3.5-.2.2-.4.3-.7.4zm543 245.1c-.4.4.1 1.5.1 2.3.3.1.5.2.8.3.7-.8 1.4-1.6 2.2-2.4-.2-.3-.4-.6-.5-.9-.9.1-2 .1-2.6.7zm207.5-237.8c.4.3 1.2.8 1.3.7.7-.8 1.2-1.6 1.8-2.5-.5-.3-.9-.6-1.4-.9-.5 1-1.1 1.9-1.7 2.7zM659.4 967c.3.1.7.2 1 .4.5-1 1.1-2 1.4-3 .1-.3-.7-.9-1.4-1.7-.4 1.8-.7 3.1-1 4.3zm214.1-162.1c1.3-.8 2.2-1.3 3.6-2.2-1.5-.5-2.5-.8-3.6-1.1v3.3zm-718.9-70.7c1.5.9 2.6 1.6 4.1 2.5-.8-3.1-1.5-3.5-4.1-2.5zm543.2 241.7c-1.4-.1-2.8-.2-4.1-.3 2.2 2.3 2.8 2.2 4.1.3zm213-220.5c.4.1 1.1.5 1.3.3.7-.6 1.3-1.4 1.9-2.2-.4-.3-.8-.5-1.1-.8-.8 1-1.4 1.8-2.1 2.7zm-732.6 47.9c-.1.3-.3.6-.4.9 1.2.4 2.4.8 4 1.4-.6-2.7-2-2.6-3.6-2.3zm516.6 158.4c-1.3.7-2.5 1.4-3.8 2.1.2.3.4.7.7 1 1.2-.7 2.5-1.5 3.7-2.2-.2-.2-.4-.5-.6-.9zm-417.5-74.2c-.3 1.1-.5 2.2-.8 3.3.3.2.6.3.9.5.4-.8 1.1-1.5 1.2-2.3.1-.5-.5-1.1-.8-1.7-.1.1-.3.1-.5.2zM169 781.5c.2.7 1.2 1.1 2.1 1.9-.4-1.7-.7-2.8-1.2-4.6-.4 1.2-1 2.1-.9 2.7zm496 177.4c-1.4.5-2.7 1-4.6 1.7 3.4 1.1 4.2.8 4.6-1.7zM125.8 720.1l3.6 1.2c.2-.3.3-.7.5-1-1.1-.5-2.3-1-3.4-1.6-.3.5-.5 1-.7 1.4zm84.5 100.2c.2-.2.4-.4.6-.5-.6-.7-1-1.5-1.7-1.9-.5-.3-1.4.1-2.7.2 1.4 1 2.1 1.5 2.9 2 .2 0 .6.1.9.2zM840 847.7c-.9 1-1.6 1.8-2.3 2.6 3 .4 3.3 0 2.3-2.6zM629.6 974.6c.2.3.5.6.7.9 1.2-.8 2.3-1.7 3.5-2.5-.3-.3-.5-.6-.8-.9-1.1.8-2.2 1.7-3.4 2.5zM119 677.6h.7c.2-1.4.5-2.7.7-4.1-.5 0-.9-.1-1.4-.1v4.2zM707.9 892c-1.2.4-2.1 1.9-3.1 2.9l.5.5c.9-.7 1.7-1.4 2.5-2 1.1.6 1.9 1 2.8 1.5.2-2.3-1.2-3.3-2.7-2.9zm16-11.5c.2.9.9 1.7 1.5 2.6.3-.1.5-.2.8-.3l.3-3c-.2-.2-.4-.4-.7-.6-.7.5-2 1-1.9 1.3zm-23.5 15.8c.7 0 1.3-.1 2-.1v-2.7c-1.2-.2-2.3-.4-3.6-.7.6 1.3 1.1 2.3 1.6 3.5zm12.2-7.9c-2 .2-2.4.7-2.3 3.2 1.9-1.3 3.7-2.6 5.2-3.6-.9-1.1-1.6-2.1-2.5-3.2-2.4.7-.1 2.4-.4 3.6z"/>
</svg>
