<svg version="1.1" id="Layer_1" xmlns="http://www.w3.org/2000/svg" x="0" y="0" viewBox="0 0 1000 1100" xml:space="preserve">
  <style>
    .st0{fill:#e4e6e7}.st2{fill:#cacdcf}
  </style>
  <path class="st0" d="M506.4 244.5c2 4.3 4 8.6 6.3 13.5 2 .1 5.3.4 9.1.6-.3-5.1-.5-10.8 4.6-13.6 3.5-1.9 8.2-3 12.2-2.7 9 .8 12.9 7.8 10.8 17.5 5.3.6 10.6 1.3 15.7 1.9 0-2.7-.9-6.5.3-9.6 1.2-3 4-5.9 6.8-7.7 4-2.6 10.5-1 13.5 2.4 3.3 3.9 3 10.9-.8 16.2-3.7 5.2-7.8 6.3-14.5 3.8.6 3.8 1.1 7.6 1.8 11.7 3.3.2 6.8.5 10.9.8-.3-6.2.6-12.6 7-15.6 3-1.4 7-1.9 10.2-1.1 8.2 1.9 11 10.3 7.5 21.2 6.3-2.4 12.3-2.7 18 1 6.3 4.1 6.6 10 4.5 16.6 15.7-1.7 20.4 2.4 21.9 17.6 5.7 2 10.9 3.8 16.1 5.7l1.3 1.3c1.3 4.8 2.6 9.7 3.9 14.8 3.5.4 8.2 1 12.8 1.5-1.7-8.4-.4-12.8 4.7-15.6 4.9-2.7 11.6-2.3 15.1.9 3.2 2.9 4.1 8.1 2.2 12.4-2.5 5.6-8.1 7.9-17.6 7 .6 2.4 1.5 4.7 1.8 7.1.3 2.3.1 4.7.1 7.5 5.9-1.2 11.3 0 16.1 3.7 3.6 4.7 5.2 10 3.6 16.4 6.2-.2 11.9.5 16.2 5.1 4.4 4.7 5 10.2 2.6 16.7 5.5-1.7 10.8-2.4 14.3 1.8 2.7 3.3 5 7.5 5.7 11.7 1.5 8.7-4 13.2-15.9 14.2.2 3 .4 6.1.6 9.5 3.2.5 6.4.9 10.4 1.5-1.9-5.9-1.1-11.4 3.8-15.2 1.9-1.5 4.9-2.4 7.4-2.4 7 0 13.8 7.2 13.8 13.9 0 7.3-6 11.3-17.5 11.5.3 4.1.5 8.1.8 12.6 6.1-.6 11.8.5 15.6 6.1 3.7 5.4 3.6 11.2.3 17.7 6.7-2.9 12.7-3.7 17.1 2.6 3.6 5.1 4.5 10.8 1.6 16.5-3.2 6.2-9.1 5.7-15.2 4.8.2 4.7.4 9.1.6 13.5 12.4.6 17.3 4.6 17.3 14.4.1 9.7-4.6 13.8-16.7 14.4v10.9c5.4-.2 11.1.1 14.1 5.2 1.9 3.3 3.2 7.5 3.2 11.3-.1 8.9-6 13.3-16.6 13.5v9.6c11.8 1.9 17.2 7.5 16.7 17-.4 8.9-5.3 12.9-17.4 14v10.6c5.3-.4 10.9.3 13.6 5.6 1.8 3.5 2.9 8 2.5 11.9-.9 8.9-7.2 12.4-17.1 10.8-.3 5-.7 10-1 15.2 6.8-2.4 13.3-1.6 16.8 6.7 2.3 5.4.5 12-3.9 15.4-4 3.2-9.2 3.4-13.8.5-5.8-3.6-7.5-8.8-5.3-17-3.6.9-7 1.8-11 2.9-.2 2.4-.3 5.3-.5 8.2 12.1 1.2 17.2 6.9 15.9 17.7-1.1 9.4-6.8 12.9-16.9 11.4-1.4 5.6-1.9 11.4-4.4 16.3-2.8 5.6-9.3 5.6-15.1 5.9-.3 3.9-.7 7.6-1 11.9 5.9-1.2 11.5-.3 14.6 5.3 1.6 2.8 2.7 6.4 2.6 9.6-.3 6.9-6.3 11.1-13.9 10.6-8.9-.6-12.1-5.2-12-17.3-3 .5-6 1.1-9.5 1.7-.3 2.7-.7 5.6-1.1 8.8 5.3.1 11.3-.2 14.1 5.2 1.6 3.2 2.3 7.5 1.7 11.1-1.7 10.3-8.3 13.5-19.7 10.3 2.8 7.3 1 13.5-4.4 18.7-4.1 4-7.7 4.4-15 2 1.7 6.6.7 12.5-4.1 17.3-4.9 4.8-10.5 5.9-17.6 2.2 3.2 6.9 3.6 12.8-2.4 17.4-5.2 4-11.1 4.5-17.4 2.8 1.7 11.3-3.7 21.2-12.1 22.5-7.6 1.2-13-5.2-14.7-17.8-3 .3-5.9.6-9 .9-.6 3.1-1.2 6.4-1.9 9.7 12.5.4 18.1 4.2 17.7 11.9-.4 7.4-8.3 14.4-15.6 13.7-7-.6-10.9-7.3-10-17.3-3.7.5-7.3 1-9.7 1.3-2.9 5.4-4.9 10.9-8.5 15.1-4 4.7-10.2 3.9-16.3 2.4 1.3 5.3 2.1 10.6-2 14.1-3 2.5-7.1 4.6-11 5.1-9.3 1.3-14.1-4.4-14.8-16.4-3.1.3-6.3.6-9.3.9-1 3.7-2.1 7.4-3.1 11 8.6-1.5 14.8 1 17.7 7.1 2.2 4.6 1.2 10.9-2.4 14-4 3.6-10.9 3.6-16.3.1-5.4-3.6-6.5-8.1-3.8-16.3-2.6.7-5 1.7-7.5 1.8-2.6.2-5.2-.5-8.1-.8 1 4.6 1.9 9.7-2.1 12.9-3.2 2.5-7.4 4.7-11.4 5.2-9.8 1.1-14-4.4-13.6-16.3h-12.7c.5 5.1.8 10.8-4.3 13.8-3.4 2-7.7 3.2-11.7 3.2-8.7 0-12.7-5.7-12.5-16.5h-9.7c-1.8 4.4-2.5 9.2-5.3 12.1-2.6 2.7-7.2 4.2-11.1 4.5-9.7.8-13.5-4-14.6-16.8h-11.4c.4 5.2 0 10.6-5 13.3-3.5 1.9-7.9 3.2-11.7 3-9.3-.6-12.7-6.6-11.2-17.1-4.8-.2-9.7-.5-14.5-.7.8 7.9-2.1 14.6-8 17.1-4.6 2-10.9.6-14-3-3.5-4.1-3.7-11.2-.5-16.4 3.2-5.3 7.4-6.4 16-4.2-.8-3.5-1.6-7-2.5-11h-8.5c-1.1 11.1-6.5 16.5-16.3 16-9.6-.5-13.6-5.6-13.4-17.2-4.9-.9-9.7-1.7-14.4-2.5 1.5 8-.7 13.8-6.9 17-4.5 2.3-10.4 1.4-13.7-2-3.5-3.6-3.7-10.5-.4-15.8 3.4-5.6 7.5-6.8 15.3-4.6-.6-3.7-1.2-7.4-1.9-11.6-2.9-.2-6.3-.4-10-.6.6 7.9-2.3 13.7-10.1 15.8-5.6 1.5-11.2.9-15.1-4.1-4.3-5.6-3.2-11.4.5-17.1-16.5 5.8-28.1-3.7-22.5-17.8-6.1 1.3-12 1.7-17-2.5-5.1-4.3-5.6-9.9-4.5-16.4-6.1.8-11.8 0-16.4-4.2-4.9-4.4-5.6-9.8-3.9-15.9-16.2.2-22.7-6.9-19.6-21.7-6.3 1.8-12.2 1.5-16.8-3.4-4.7-4.9-5.2-10.7-2.7-17-11.4 2.8-18.2-1.5-20.1-12.2-1.6-9.3 3.1-13.8 16.2-15.3-.4-3.1-.7-6.3-1.1-9.5-3.2-.4-6.4-.8-10.4-1.4 2.1 5.6 1.3 10.8-3.2 14.6-1.9 1.6-4.7 2.9-7.1 3-7 .5-14.2-6.7-14.5-13.7-.4-7.4 5-11.1 17.6-11.9-.3-2-.6-4-.7-6.1-.1-1.9 0-3.8 0-6.2-6.1.7-11.8-.5-15.7-5.8-3.9-5.2-4.2-10.9-1.2-17.5-6.7 2.8-12.6 2.9-16.8-3.2-3.6-5.3-4.4-11.1-1.3-16.9 3.1-5.8 8.6-6.1 14.9-5.1-.4-3.9-.7-7.5-1.1-11.5-5.8.1-11.4-1.5-14.7-7.4-3.2-5.6-3.1-11.3-.2-17.8-8.1 2.9-14.9 2.4-19.6-4.9-2.6-4.1-2-9.4 1.2-13.4 4-5.1 8.7-6.2 15.9-4.2V611c-5.6 1.9-11.5 2.6-15.2-3.8-3.2-5.5-3.6-11.4 0-16.9 3.8-5.7 9.4-4.8 14.9-3.1v-15.5c-3-.2-6.5.4-9.2-.8-2.7-1.2-5.2-3.9-6.8-6.6-2.9-5.2-1.8-11.9 1.8-15.4 3.9-3.8 9.6-4.1 16.8-.5-2.4-6.1-3.5-12-.6-17.8 3.1-6.3 8.7-7.7 15.5-7 .2-3.8.5-7.4.7-11.5-5.3.4-11 .5-13.9-4.6-1.9-3.4-3-7.9-2.7-11.8.7-9.1 7.4-12.9 17.7-11.2.4-5 .8-10.1 1.2-14.8-2.7-.2-6.7.3-9.6-1.1-3.1-1.5-5.9-4.6-7.5-7.7-2.4-4.5-.3-10.5 3.5-13.2 4.2-3 10.9-2.4 15.9 1.3 4.9 3.7 5.8 7.7 3.1 14.8 3.4-.4 6.9-.7 10.3-1.4.8-.2 1.7-1.9 1.9-2.9.3-2.6.1-5.3.1-8.4-7 .5-13.6-.4-16-8.1-1.9-6.1.2-11.5 4.7-15.9 4.5-4.5 9.7-4.4 15.7-1.3-2.6-6.5-2.8-12.4 1.3-17.8 4.2-5.4 9.7-6.4 15-5.1 1.5-5.5 2.1-11.4 4.8-16.1 3.1-5.4 9.5-5.4 15.2-5.3.7-4.6 1.5-9.1 2.2-13.7-6.3 1.4-13 2.2-16.7-5.2-2.4-4.7-.6-11.3 3.6-15.1 3.6-3.3 8.9-4.2 12.4-2.1 5.8 3.4 8.1 9.7 6.1 17.6 2.2-.7 4.2-1.6 6.3-2 2-.4 4.1-.3 6.3-.4.5-3.8 1-7.9 1.6-11.9-12.1.2-18.2-4.3-17.8-13.2.4-6.9 6.5-11.6 14.2-10.8 8.7 1 11.6 6.2 9.8 17.3 4-.7 8.1-1.4 12.2-2.2.6-3.7 1.3-7.7 2-11.7-8.2.8-14.4-1.8-17-7.2-1.9-4.1-.7-10.2 2.6-13.2 3.9-3.5 11.1-4.2 15.9-1.3 6.3 3.7 5.8 9.4 4 16 2.6-.7 4.6-1.5 6.7-1.9 2.2-.3 4.4-.3 6.9-.4.2-5.6.4-11.3 5.1-15.5 4.5-4.1 10-4.1 16-3.1-.8-6.6.4-12.4 5.5-16.7 5.1-4.3 10.8-4.3 17.4-1.7-2-5.1-3.7-10.2.3-14.1 2.8-2.7 6.7-5.2 10.5-5.9 10-1.9 14.9 3.4 15.6 16 3-.3 6-.5 9.3-.8.8-3.5 1.7-7 2.4-9.7-4.4-1.1-8.8-1.6-12.6-3.4-2.2-1.1-3.9-4.1-4.9-6.6-1.9-4.8-.1-10.3 3.5-13 4.3-3.2 11.3-2.9 16.3.8 4.7 3.4 5.6 7.4 3.1 15.3 2.6-.6 4.9-1.3 7.3-1.6 2.4-.3 4.9-.1 7.4-.1-1.1-10.4 3.9-16.9 13.9-17.7 9.6-.8 14.1 4 15 16.2 3.2-.1 6.3-.3 8.7-.4 2-4.5 3.7-8.5 5.5-12.5.7-.8 1.5-1.5 2.2-2.3 5.5-3.5 11.3-4 18-1.2-2.3-6.6-2.8-12.6 3.5-16.6 5.3-3.3 11.1-3.6 16.5-.4 6 3.5 5.5 9.2 4.5 14.8h14c-.5-4.6-1.4-10.1 3.4-13.1 3.5-2.1 8-3.7 12-3.7 9.4.1 12.6 5.5 11.1 17.1h15.4c-1.4-6-2.1-12.4 5.1-16.2 4.8-2.6 11.6-1.4 16.3 2.5 5.1 4.4 5 9.7 2.3 15.9 7.5-3.2 14-2.9 19.8 2.1zm-423 388V646c3.6-.7 7.2-1.3 10.8-2v-9.3c-4-.8-7.7-1.5-10.8-2.2zm10.4-77.6c-3.8-1-7.2-2-10.3-2.8v12.4c3.2-.6 6.5-1.3 10.3-2.1v-7.5zm-.3 48.1v-8.8c-3.4-.5-6.5-1-9.2-1.5-.2 4.2-.4 8.3-.6 12.1 3.1-.5 6.3-1.1 9.8-1.8zM756 501.3c3.4.4 6.4.7 9 .9.5-4.2.9-8.1 1.4-11.6-3.5.6-6.9 1.3-10.4 1.9v8.8zM469.7 248.1c.7 2.8 1.4 5.9 2.2 9.1h7.6c1-3.6 1.9-6.9 2.7-9.9-4.1.3-8.1.5-12.5.8zM592.3 289c.5 3 1.1 6 1.6 9.1h7.5c.6-3.5 1.2-6.8 1.7-9.9-3.5.3-7 .5-10.8.8zm-344 589.9c-.8 3.7-1.6 7.3-2.3 10.7 3.3-.6 7.1-1.2 10.9-1.9-1-8.7-1-8.7-8.6-8.8zm151.6-630.7c-4.2-.2-7.9-.5-11.5-.7.6 3.3 1.2 6.4 1.8 9.5h8c.6-3.1 1.1-5.9 1.7-8.8zM703.2 797c-3 .6-5.4 1.1-8 1.5-.2 2.7-.3 5.2-.5 7.1 3.8.9 7.1 1.7 10.6 2.6-.6-3.5-1.3-7.2-2.1-11.2zm-59.5 71.2c-.2-1.4-.6-2.9-.7-4.4-.1-1.7 0-3.4 0-5.1-8.8.3-8.4-1.8-9.4 8.6 3.3.2 6.5.5 10.1.9zm-489.8-90c-2.8-.4-5.4-.7-7.8-1.1-.4 4-.8 7.3-1.2 10.5 3.2-.7 6.4-1.4 9.7-2.2-.2-2.3-.4-4.6-.7-7.2zm277.5-521.4h7c.7-3.1 1.4-5.9 2-8.5h-10.9c.7 2.8 1.3 5.5 1.9 8.5zm-297 175.4c-3.6-.8-6.9-1.5-9.8-2.1.4 3.6.9 7 1.3 10.7 2.4-.2 5-.5 7.8-.8.2-2.6.4-5.1.7-7.8zm-21.2 264.7c-2.6-.6-5.1-1.1-7.4-1.6-.6 3.9-1.2 7.6-1.7 11 3.4-.8 6.6-1.5 9.9-2.3-.3-2.3-.6-4.7-.8-7.1zm162.5-399.8c.5-2.7.9-5 1.3-7.2-3.6-.7-7.1-1.3-10.3-1.9.6 3.2 1.1 6.4 1.7 9.7 2.3-.1 4.6-.3 7.3-.6zm225.4 631.7c-.4-2.9-.7-5.7-1-8.5h-7.4c-.5 2.7-1.1 5.2-1.6 7.7 3.4.3 6.5.6 10 .8zm224-518.6c-3.6.5-6.6 1-9.7 1.5.4 2.5.7 4.8 1.1 7.2 2.4.4 4.6.8 7 1.2.5-3.4 1-6.5 1.6-9.9zm-50.4 415.6c3.9.9 6.9 1.5 9.9 2.2-.7-3.4-1.3-6.5-2-9.8-1.9.1-4.1.2-6.5.3-.5 2.4-.9 4.8-1.4 7.3zm-10.3 22.8c-.7-3.4-1.4-6.5-2.2-10.1-2.4.4-4.8.8-7.4 1.2v6.6c3.4.8 6.5 1.5 9.6 2.3zM236 866.7c-.3-2.1-.6-4.4-.9-6.9-2.4-.2-4.7-.5-7-.7-.6 3.2-1.2 6.2-1.8 9.2 3.4-.6 6.3-1.1 9.7-1.6zM105.5 492.4v9c2.7-.4 5.2-.7 7.6-1V493c-2.7-.2-5-.4-7.6-.6zm273.4 435.9c-.7-2.9-1.3-5.4-1.8-7.9h-6.4c-.5 2.7-.9 5.2-1.4 7.9h9.6zm173.7-20.7c3 .2 5.9.5 9.1.7-.4-3.1-.7-5.7-1-8.2h-6.6c-.6 2.5-1 4.6-1.5 7.5zm-10.8-638.8c-3.5.2-6.4.3-9.6.4.6 2.9 1.1 5.2 1.6 7.6h6.3c.5-2.5 1-5 1.7-8zm222.6 395.6v-9.1c-2.8.4-5.2.8-7.6 1.1v6.4c2.7.6 5.1 1.1 7.6 1.6zM173.8 799.2c-2.2-.5-4.1-.9-6.3-1.3-.6 3.2-1.2 6-1.7 8.9 3.2-.3 6-.6 9-.9-.4-2.4-.7-4.3-1-6.7zm562.6-81.5v6.5c2.8.4 5.4.7 7.9 1.1-.4-3.1-.7-5.8-1-8.6-2.1.3-4.3.6-6.9 1zm-115.2-400c.5-2.7 1-5.4 1.5-8.2-3.1.4-5.7.7-8.1 1v6.8c2.3.1 4.4.2 6.6.4zM308.5 907.8c3-.3 5.6-.5 8.5-.7-.4-2.5-.8-4.7-1.2-7h-5.6c-.6 2.6-1.1 5-1.7 7.7zM756.8 534v6.9c2.4.3 4.5.6 6.9.8.2-2.9.4-5.3.5-7.7h-7.4zM194.2 819.4c-2.4-.3-4.7-.5-7.3-.8v8.3c2.7-.6 5.1-1.1 7.3-1.6v-5.9zm134.6-550.3c.6 2.9 1.1 5.3 1.6 7.8h5.6c.5-2.5 1-4.8 1.4-7-2.8-.3-5.5-.6-8.6-.8zm-122.3 578c3-.2 5.7-.4 8.7-.7-.5-2.6-.9-4.8-1.2-6.9-2-.1-3.7-.2-5.6-.4-.6 2.7-1.2 5.1-1.9 8zm489.5-455v5.9c2.3.3 4.4.6 6.8 1 .2-2.7.4-5.1.6-7.7-2.7.3-4.9.5-7.4.8zm-549.2 27.4c2.6-.5 4.8-1 6.7-1.4v-6h-7.2c.2 2.5.3 4.7.5 7.4zm488.4-88c.1 2.3.2 4.2.3 5.9h6.1c.1-2.3.2-4.4.3-6.9-2.3.4-4.3.7-6.7 1zm-380.8-14.2c.4-2.5.7-4.5 1.1-6.9h-7.4c.2 2.4.4 4.6.6 6.9h5.7zM459.6 928c-.6-2.7-1-4.7-1.5-6.6h-5.9c-.3 2.1-.6 4-.9 6.1 2.9.1 5.3.3 8.3.5zm-49-.3c2.8-.2 5.3-.3 8.1-.4-.4-2.3-.8-4.1-1.1-6h-5.7c-.5 2.3-.9 4.2-1.3 6.4zm251.5-576.1h-6.3v6h5.9c.1-2.1.2-3.8.4-6zm19.7 26.3c.2-2.2.4-4.3.6-6.3-2.5.1-4.4.2-6.8.4.2 2.2.4 4.1.6 6.2h3.6c.6-.1 1.2-.2 2-.3zm76 197.3c-.8 5.7.4 6.8 5.8 5.7v-5.7h-5.8zm5.8 40.1c-2.4.6-4.2 1-5.9 1.4v5.2c2.1.2 3.9.3 5.9.5v-7.1zm-657 40.8v7.2c2.2-.5 4-.9 5.9-1.3v-4.7c-1.9-.4-3.6-.7-5.9-1.2zm630.6-182.4v5.2c2 .4 3.8.8 6 1.3v-6.9c-2 .1-3.8.2-6 .4zM234.5 331.6h-5.4v5.5c1.9-.1 3.6-.3 5.4-.4v-5.1zM168 392.3v5.8h5v-5.3c-1.7-.2-3.3-.3-5-.5zm-55.7 148v-5.4H107c.1 1.9.2 3.6.3 5.4h5zM126.4 724c2.5-.2 4.3-.3 6.3-.5v-5.2c-1.7-.2-3.3-.4-4.9-.6-.5 2.2-.9 4.1-1.4 6.3zm448 162.4c2.3-.2 4.1-.3 6.2-.5-.9-3.5-1.2-6.7-5.5-4.6-.3 1.5-.5 3-.7 5.1zm-74.9-614.2c-.3-.5-.7-.9-1-1.4h-6.4c1.5 2 2.5 3.4 3.4 4.7 1.3-1 2.6-2.1 4-3.3zm222.9 466.6h-5.5c.1 1.6.2 2.8.3 4.1 1.9.3 3.4.6 5.2.9v-5zM213.8 352.2c-1.9.1-3.2.2-5 .3.1 1.7.2 3.1.3 4.7 1.7-.1 2.9-.2 4.2-.3.2-1.6.4-2.9.5-4.7zm-20.6 20.6h-4.6v4.7c1.6-.2 3-.3 4.6-.5v-4.2zM107.3 576v4.8c.4.3.8.5 1.1.8 1.3-1.4 2.7-2.8 4-4.2l-.9-1.2c-1.3-.1-2.6-.2-4.2-.2zm-.4 45.4c1.7-.1 3.2-.1 4.7-.2l.9-1.5c-1.4-1.3-2.7-2.6-5-4.8-.3 3.1-.4 4.5-.6 6.5zm452.7-330.1h-4.9v4.1h4.4c.2-1.4.3-2.5.5-4.1zM290.7 881.7v3.9c1.6-.1 2.8-.2 4.1-.4 1-3.7-.7-4.3-4.1-3.5zM370 270.9c1.7 2 2.8 3.3 3.9 4.5 1-1.3 2.1-2.5 3.7-4.5H370zM127.6 474.6c-1.1 4.5.7 5.2 4.2 4.1v-4.1h-4.2zm183.5-182.7c-.3.5-.7 1-1 1.6 1.5.9 3 1.8 4.9 2.9 1.1-5.4-1.4-4.9-3.9-4.5z"/>
  <path class="st0" d="M364.7 243.1c-.7.8-1.5 1.5-2.2 2.3-1.4.5-2.8 1-4.1 1.5-5.2 1.7-11.4-.9-14.5-6-3-4.9-2.3-11.7 1.5-15.2 3.9-3.7 11.5-3.4 16.9.6 5.2 3.9 6.4 8.8 3.5 14.4-.5.8-.8 1.6-1.1 2.4zm141.7 1.4c-.6-1.4-1.2-2.7-1.8-4.1-3.2-7.7.3-14.6 8.3-16.4 6.1-1.4 10.5 0 13 4.1 2.8 4.5 2.4 10.8-.8 14.6-3.4 4-9.5 5.4-14.7 3.4-1.3-.5-2.6-1.1-4-1.6zm304.1 354c0 6.9-5 12-12.1 12.1-7 .1-12.1-5-12.1-12 0-7.2 5.1-11.7 13.4-11.6 6.6 0 10.7 4.4 10.8 11.5zM595.8 932.8c-6.9 0-11.4-4.3-11.4-10.9 0-7 4.8-11.5 12.4-11.5 7 0 12.4 5.3 12.3 12-.1 5.9-5.9 10.4-13.3 10.4zm214.7-374.5c0 6.7-5 11.4-12.2 11.4-7.1 0-12.1-4.7-12-11.5 0-7 4.9-11.2 12.7-11.2 7.1 0 11.5 4.4 11.5 11.3zm-41.2 201.2c.1 7.2-4.6 12.7-10.8 12.8-6.6.1-11.9-5.3-11.9-12.3-.1-6.8 5.1-11.5 12.5-11.5 6.1.1 10.1 4.4 10.2 11zM83 517.3c.1 7.1-4.7 12.6-11 12.7-6.3.1-11.8-5.7-11.9-12.6-.1-6.4 4.8-10.9 12-11 6.4-.2 10.8 4.2 10.9 10.9zm117.9-221.1c.1-7.3 5-11.7 12.8-11.7 6.7 0 10.9 4.3 10.7 11-.2 6.6-6 11.7-13.3 11.6-6.4-.1-10.3-4.2-10.2-10.9zM133 365.3c6.6 0 10.8 4 10.8 10.4 0 6.8-5.9 12.1-13.4 12.1-6.3 0-10.2-4-10.2-10.4-.1-7.7 4.6-12.1 12.8-12.1zm312.9 595.8c-.4 7.6-5.9 13.8-11.7 13.4-6.1-.5-11.6-6.6-11.1-12.5.5-6.7 6.5-11.4 13.9-11 5.7.2 9.2 4.3 8.9 10.1zm353.9-333.3c5.8-.1 9.5 3.6 9.6 9.4.1 7.3-5.2 14-11 14.1-6 .1-11.8-5.8-11.8-11.8 0-6.6 5.6-11.6 13.2-11.7zM669.6 326l-1.3-1.3c-.6-1.6-1.4-3.3-1.9-5-1.5-5.6.6-11.1 5.1-13.5 4.7-2.6 10.4-2 13.7 1.2 3.6 3.6 4.1 10.7 1.1 15.4-2.8 4.4-7.7 5.9-13.3 4.2-1.2-.3-2.3-.6-3.4-1zm39 39.3c-.7-2.4-1.8-4.7-2-7.2-.7-6.2 1.7-10.1 6.9-12 5.7-2 10.7-1 13.4 2.7 3 4.1 2.9 10.3-.2 14.2-3.4 4.3-9.4 5.9-14.4 3.9-1.3-.5-2.5-1.1-3.7-1.6zM60.2 679.6c0-7 4.8-11.4 12.5-11.4 6 0 10.2 4.6 10.1 11.1-.1 6.3-5.6 11.6-12.3 11.6-6.2.1-10.3-4.3-10.3-11.3zm30.6 71.8c-6.4 0-10.5-4.3-10.5-11.2 0-6.9 4.9-11.4 12.6-11.4 6.1 0 10.2 4.4 10.1 11-.1 6.6-5.4 11.6-12.2 11.6zm687-282.9c-6.6 0-10.9-4.6-10.8-11.5.1-6.8 4.8-10.7 12.7-10.6 6 .1 10 4.4 10 10.8-.1 6.4-5.2 11.3-11.9 11.3zM393.9 973.3c-6.6-.1-10.7-4.6-10.5-11.7.1-6.8 4.8-10.5 12.8-10.3 6 .1 9.8 4.4 9.7 10.9-.1 6.5-5.2 11.2-12 11.1zm82.4-21.8c6.4 0 10.4 4.2 10.3 10.8-.1 6.3-5 10.9-11.7 10.8-6.4-.1-10.9-4.7-10.8-11.1 0-6.6 4.5-10.5 12.2-10.5zm180.6-644.9c-6.5 0-11.1-4.4-11.1-10.7-.1-6.6 4.5-10.8 12-10.9 6.4-.1 10.5 4.1 10.6 10.6-.1 6.5-4.8 11-11.5 11zm-434.7-31.1c.3-6.6 5.4-10.6 13-10.2 5.4.3 9 4.5 8.7 10.3-.3 6.2-5.9 10.7-12.7 10.4-5.9-.4-9.3-4.3-9-10.5zm565.7 242.7c0-6.8 4.5-10.7 12-10.7 5.6 0 9.4 4.2 9.3 10.2-.1 6.1-5.3 10.9-11.8 10.9-6 0-9.5-3.8-9.5-10.4zM748.6 376c.1 6.2-5.1 11.2-11.5 11.2-5.9 0-9.7-4-9.8-10.4-.1-6.6 4.2-10.5 11.6-10.7 5.8 0 9.6 3.8 9.7 9.9zm-626.2 20.1c.1 6.3-4.9 11.3-11.3 11.4-5.9.1-9.6-3.9-9.7-10.4-.1-6.9 4.3-11 11.8-10.9 5.4 0 9.1 4 9.2 9.9zm49.5 476c-5.9-.1-10.3-5.3-10.1-11.8.2-5.7 5.2-9.9 11.7-9.7 5.5.1 9.2 4.4 9.1 10.5-.1 6.7-4.4 11.2-10.7 11zM141.8 841c0-6.6 4.3-10.4 11.7-10.4 5.8 0 9.4 4 9.3 10.1-.1 6.3-5.2 11-11.7 10.9-5.9 0-9.3-3.9-9.3-10.6zm40.4 40.1c0-6.2 4-9.8 11.2-9.8 6-.1 10.4 4.3 10.5 10.4.1 5.5-5 9.9-11.5 9.9-6.3 0-10.2-4-10.2-10.5zm133-656.1c5.5.1 9.1 3.9 9.1 9.9 0 6.1-4.9 10.8-11.2 10.7-6-.1-10-4.5-9.9-10.8.2-6.1 4.8-9.9 12-9.8zm463.1 525.2c-5.9.1-10.2-4-10.5-9.8-.2-6 4.1-10 11-10.2 5.8-.2 9.9 3.8 10 9.6 0 5.8-4.5 10.3-10.5 10.4zm-645.4 60.9c6.2 0 9.7 3.5 9.7 9.7 0 5.7-4.5 9.9-10.5 9.9-5.9 0-10.5-4-10.7-9.3-.1-6.3 4.3-10.3 11.5-10.3zM304 941.6c.1 6-4.1 10.3-10.3 10.5-6.2.2-10.5-4-10.5-10.2 0-6 4.5-9.9 11.3-9.9 5.6 0 9.4 3.9 9.5 9.6zm495.3-271.9c6.3 0 9.6 3.3 9.6 9.7 0 5.8-4.3 9.9-10.4 9.9-6 0-10.5-4-10.5-9.3-.1-6.4 4.1-10.2 11.3-10.3zM415.7 205.3c5.8.1 9.2 3.5 9.2 9.1 0 5.9-5.2 10.3-11.7 10.1-5.5-.1-8.9-3.6-8.9-9 0-6.3 4.5-10.3 11.4-10.2zm220 79.8c-5.6 0-9.1-3.2-9.2-8.6-.2-6.5 4.4-10.7 11.4-10.7 5.7.1 9.3 3.6 9.2 9.2-.1 5.7-5.1 10.1-11.4 10.1zm52 576c.1-6.1 4.2-9.7 10.8-9.5 5.2.2 9.8 4.7 9.8 9.7 0 5-5.8 9.6-12.1 9.5-5.4-.1-8.5-3.6-8.5-9.7zM61.6 477.6c.1-6.1 4.1-9.7 10.8-9.6 5.3.1 9.8 4.4 9.9 9.5.1 5.1-5.6 9.6-11.9 9.6-5.4 0-8.9-3.7-8.8-9.5zm515.3 454.9c5.5-.1 10.3 4.4 10.3 9.5 0 4.9-5.9 9.6-12.1 9.5-5.3-.1-8.6-3.5-8.7-9.2.1-6.2 3.7-9.7 10.5-9.8zm-30.6-697.2c0-6.4 3.7-9.6 10.7-9.6 5.3 0 9.9 4.3 10 9.3.1 5.1-5.4 9.6-11.9 9.6-5.6.1-8.8-3.3-8.8-9.3zm-101-20.4c.1-6.1 4.2-9.7 10.9-9.5 5.3.1 9.7 4.6 9.8 9.6 0 5.1-5.5 9.5-12 9.4-5.6 0-8.8-3.5-8.7-9.5zm-92.1 756.8c-5.6 0-8.9-3.5-8.9-9.4.1-6.1 4.1-9.7 10.8-9.7 5.3.1 9.8 4.4 9.9 9.5.1 5.2-5.3 9.5-11.8 9.6zm-130.6-70.2c0 5.7-4.1 9.7-9.9 9.8-5.9 0-9.9-4.1-9.9-10.3 0-5.5 4.8-9.3 11.5-9.2 5 .2 8.3 4 8.3 9.7zM727.5 841c0 5.7-4.1 9.6-10 9.6-6 0-9.9-4-9.9-10.2 0-5.4 4.3-8.9 11.1-9 5.4 0 8.9 3.7 8.8 9.6zm31.7-453.3c5.4.1 8.6 3.5 8.4 9.2-.1 5.5-4 9.2-9.8 9.2-5.9 0-9.5-3.9-9.4-9.9.2-5.6 4-8.6 10.8-8.5zM51 587.8c-5.9-.1-9.5-4-9.4-10 .1-5.5 4.1-8.5 10.8-8.4 5.4.1 8.6 3.6 8.4 9.3-.1 5.4-4.2 9.2-9.8 9.1zm464.8 384c-5.2-.1-9.7-5-9.5-10.4.2-5.1 4.8-8.8 10.5-8.6 4.8.2 8 3.8 8 8.9 0 5.7-4 10.2-9 10.1zm170.5-90.9c0 5.9-3.7 10.1-8.9 10-5.1-.1-9.3-4.4-9.4-9.8-.1-5.3 4-9 9.9-9 5.1-.1 8.4 3.4 8.4 8.8zM60.6 619.3c0 5.2-3 8.9-7.3 9-5.7.1-12.1-5.6-11.9-10.6.1-4 4.9-7.7 10-7.7 5.2-.1 9.2 4 9.2 9.3zm201.3-364.8c0 5.9-4.3 10.9-9.1 10.7-4.9-.1-9-4.3-8.9-9.3 0-5.6 4.2-9.5 10.1-9.5 5 .1 7.9 3 7.9 8.1zm112.5-48.4c5.4 0 9.3 3.8 9.3 9.2 0 5.3-2.9 8.8-7.3 8.9-5.8.1-12-5.4-11.9-10.5.1-4 4.7-7.6 9.9-7.6zM111.6 809.5c-5.5 0-8.9-3.6-8.9-9.4-.1-5 4.1-8.4 10.4-8.5 4.7 0 7.9 3.5 7.9 8.8 0 5.4-3.9 9.2-9.4 9.1zM739 812c4.9 0 7.9 3.2 7.9 8.7 0 5.4-3.8 9.2-9.3 9.2-5.4 0-8.8-3.6-8.9-9.5 0-5.2 3.9-8.4 10.3-8.4zm-81.9 98.5c-5.6.1-9.2-3.6-9.2-9.6 0-4.8 4-8.1 10.2-8.3 4.7-.1 8 3.3 8.2 8.6.1 5.3-3.8 9.2-9.2 9.3zM80.5 719.7c0 5.4-3.8 9.1-9.3 9.1-5.4 0-8.8-3.7-8.9-9.5 0-5.1 4-8.4 10.4-8.4 4.8 0 7.8 3.3 7.8 8.8zm405.9-505.4c0-5.1 4.2-8.3 10.5-8.2 4.9.1 7.7 3.4 7.6 8.9-.1 5.3-4.1 9.1-9.5 9-5.3-.1-8.6-3.8-8.6-9.7zm-403.9 202c0-5 4.2-8.3 10.5-8.3 4.7 0 7.8 3.6 7.8 8.9-.1 5.3-4.1 9.1-9.5 9-5.4 0-8.8-3.7-8.8-9.6zm717.1 52.9c4.5.1 7.1 2.8 6.9 7.4-.2 5.5-4.3 10.5-8.5 10.4-4.3-.1-8.6-4.9-8.5-9.3.2-5 4.5-8.6 10.1-8.5zM50.9 547.6c-4.4-.1-8.6-4.8-8.5-9.3.2-4.9 4.5-8.7 10.1-8.6 4.4.1 7.1 3 6.9 7.5-.2 5.5-4.3 10.5-8.5 10.4zM617.7 247c4.5 0 7.1 2.7 7.1 7.3-.1 5.5-4 10.5-8.3 10.6-4.3 0-8.8-4.6-8.7-9.1 0-5 4.3-8.8 9.9-8.8zM241.3 922.7c-.1 4.7-3.3 7.9-7.9 7.8-4.6-.1-9-4.6-8.9-9.4 0-4.3 3.9-7.5 9-7.4 4.5.1 7.9 3.9 7.8 9zM50.6 667.2c-4.7-.1-7.6-3.1-7.5-8 .1-5 3.8-8.3 9.2-8.1 4.5.1 7.4 3.2 7.3 7.8.1 4.9-3.8 8.4-9 8.3zm715.8 134.2c.1 4.5-1.9 7-5.6 7.1-5 .2-11.3-4.8-11.4-8.9-.1-3.6 4.8-7 10-6.9 4.4 0 6.9 3.3 7 8.7zm60.5-221.8c-.1 4.5-2.2 6.9-5.9 6.8-5.1-.1-11.2-5.3-11.1-9.4.1-3.4 5-6.6 10-6.5 4.5.1 7.1 3.4 7 9.1zm-.3 38.9c.1 4.9-3.4 8.4-8.3 8.4-4.6 0-7.6-3.1-7.8-7.9-.1-4.7 3.6-8 9.2-8.1 4.2 0 6.8 3 6.9 7.6zM321.8 962.2c0 4.7-3.1 7.8-7.8 7.8-4.8 0-8.3-3.4-8.3-8 0-4.4 3.5-7.3 8.8-7.5 4.5 0 7.3 2.9 7.3 7.7zm323.1-40.3c0 4.8-3.1 7.7-8 7.6-4.7-.1-8.1-3.4-8.1-7.8s3.6-7.5 8.8-7.5c4.6-.1 7.3 2.8 7.3 7.7zm145.6-202.4c.1-4.5 3.6-7.3 9-7.2 4.5.1 7.3 3.2 7.1 7.9-.2 4.4-3.5 7.5-7.9 7.5-4.8 0-8.3-3.5-8.2-8.2zm-4.2-302.6c0 4.8-3 7.8-7.7 7.8-4.8 0-8.4-3.4-8.4-7.9 0-4.4 3.5-7.3 8.8-7.4 4.6-.1 7.3 2.7 7.3 7.5zM83.6 780.8c0-4.5 3.5-7.7 8.5-7.8 4.1-.1 7.5 2.9 7.5 6.7.1 4.1-4.6 8.2-9.5 8.3-4.2 0-6.5-2.5-6.5-7.2zM341.3 215c-.1 5-2.5 7.4-7.5 7.3-4.8-.1-7.5-2.6-7.5-6.9 0-4.3 3.6-7.7 8.1-7.7 4.5-.1 7 2.6 6.9 7.3zm216 753.7c-5-.1-9.2-3.1-9.2-6.6.1-3.6 4.6-7.2 8.9-7.1 4.4.1 7.3 3.3 7.2 7.9-.1 3.7-2.5 5.8-6.9 5.8zm-94.9 13.9c0 4.6-1.6 6.8-5.2 6.8-4.5.1-9.9-4.4-9.8-8.2.1-3.1 4.3-6.1 8.7-6.2 4 0 6.2 2.7 6.3 7.6zM280.7 235.7c0 4.5-1.8 6.6-5.4 6.6-4.3 0-9.5-4.3-9.6-7.9-.1-3.2 4.4-6.4 9-6.5 3.7 0 6 2.9 6 7.8zM422 982.9c0 4.4-1.8 6.6-5.5 6.6-4.3-.1-9.5-4.4-9.6-7.9-.1-3.2 4.5-6.4 9-6.4 3.9-.1 6.2 2.8 6.1 7.7zm121.2-767.6c0 4.4-1.8 6.9-5.2 6.9-4.4.1-9.8-4.5-9.7-8.3.1-3.2 4.1-6 8.6-6.1 4.2 0 6.2 2.5 6.3 7.5zm282.7 323.2c0 4.4-1.8 6.8-5.2 6.8-4.5 0-9.8-4.5-9.6-8.3.1-3.2 4.2-6 8.7-6 4-.1 6.1 2.4 6.1 7.5zM51.3 504.6c-4.5-.1-7.3-2.8-7.3-7.2 0-3.8 3.3-6.5 8-6.5 4.1 0 7.1 3.1 7 7.5-.1 3.7-3.3 6.2-7.7 6.2zm27.4-66.8c-.1 2.9-.5 6.1-4.8 6.4-4.2.3-9.8-4.4-9.8-8.2 0-3 3.5-5.6 7.9-5.7 4.2 0 6.6 2.6 6.7 7.5zm747.2 222.3c-.2 2.9-.5 6-4.9 6.2-4.4.1-9.8-4.5-9.7-8.2.1-3 3.7-5.5 8-5.5s6.6 2.5 6.6 7.5zM260.5 942.8c-.3 2.9-.6 6.1-5 6.2-4.4.1-9.8-4.6-9.7-8.3.1-3 3.8-5.5 8.1-5.5 4.2.1 6.6 2.7 6.6 7.6zM152.4 309.4c3.7 0 6.8 3.4 6.7 7.5-.1 3.5-2.4 5.9-5.9 6-4.1.1-8.5-4-8.3-7.8.1-3 3.8-5.7 7.5-5.7zm-13.5 26.1c.1 3.5-3.8 7.3-7.7 7.3-3.3.1-5.9-2.8-6-6.5-.1-3.9 2.9-6.7 7.2-6.8 3.5 0 6.4 2.6 6.5 6zm234.6 653.6c-3.3.1-5.9-2.9-5.9-6.5 0-3.9 3-6.8 7.2-6.8 3.6 0 6.2 2.4 6.3 6 0 3.5-3.7 7.2-7.6 7.3zm-319.2-296c.8 1.1 3 2.9 3.3 5 .6 3.9-4.4 8.7-8.1 8.5-2.9-.2-5.3-3.9-5.2-7.8.1-2.9 4.4-5.9 10-5.7zm730.4 84.6c0 4.9-4.1 9.6-7.7 9.8-3.1.1-5.9-3.6-5.8-7.7 0-3 4.3-6.1 8.3-5.9 2.9.1 5.1 1.5 5.2 3.8zM488.5 981.9c-.1-3.1 3.8-6.1 8.1-6 3 0 5.2 1.3 5.4 4.7.2 4-4.1 8.9-7.9 8.8-3-.1-5.6-3.5-5.6-7.5zM590 235.4c.1-4.5 2.5-6.8 6.9-6.7 4 .1 6.2 2.3 6 6-.2 3.6-3.8 7.1-7.3 7.2-3.4-.1-5.7-2.6-5.6-6.5zm-424.1 60.7c.1-4.6 2.2-6.7 6.9-6.7 3.7 0 5.4 2 5.4 5.5-.1 4-3.3 7.8-6.6 7.7-3.1 0-5.7-3-5.7-6.5zM623 942c0 3.9-2.2 6.1-6.1 6.1-3.8 0-6.7-2.6-6.8-6.2 0-3.5 2.6-6 6.4-5.9 3.8.1 6.6 2.6 6.5 6zM199.2 276.5c-.1 2.5-.8 5.2-4.7 5.1-3.6-.1-8.3-3.7-8.5-6.7-.2-2.7 3.1-5 7.3-5 3.7-.2 5.8 2 5.9 6.6zm524.1 39c0 4-2.4 6.4-6 6.4-4 0-5-2.7-5.2-5.8-.2-3.7 2.3-6.1 6-6.2 4-.1 4.7 2.8 5.2 5.6zM440.9 194.6c0 3.6-1.6 5.6-5.3 5.5-3.7-.1-6.9-2.8-6.6-5.7.4-3.4 2.6-5.2 6-5.3 3.9-.1 5.9 1.9 5.9 5.5zM111.2 350.5c4-.1 6.5 2.1 6.7 5.4.1 3.6-1.4 5.7-5.1 5.9-3.4.2-7.1-2.8-6.9-5.6.2-3.5 2.6-5.1 5.3-5.7zm-39.5 404c3.8.1 5.9 2.1 5.8 5.7-.1 3.6-1.9 5.6-5.6 5.3-3.4-.3-6.1-1.7-6.5-5.5-.2-2.7 3.2-5.6 6.3-5.5zm725.8-311.8c-3.5-.3-5-2.3-4.9-5.6.1-3.4 3.2-5.9 6.8-5.6 3.5.3 5 2.2 4.9 5.6-.3 3.5-3.2 5.9-6.8 5.6zm20.1 60.7c-2.8-.2-4.8-1.8-4.8-5.3 0-3.4 2.9-6.3 6.3-6.2 3.3.2 5.3 1.9 5.4 5.3.2 3.4-2.9 6.2-6.9 6.2zM691.5 295.7c.4-3.6 3.5-5.9 7.1-5.6 3.5.4 4.8 2.5 4.6 5.8-.3 3.4-3.3 5.7-6.9 5.3-3.6-.3-4.7-2.5-4.8-5.5zm46.6 34.8c4 .2 5.3 2.5 5.4 5.9.1 2.9-.7 5-4.1 5.2-3.4.1-7.5-3-7.3-5.9.2-3.6 3.2-4.5 6-5.2zM400.5 196.8c-1.2.9-2.8 2.9-4.7 3.3-3.4.6-7.4-3-7-5.9.4-3.7 3.3-4.8 6.4-4.9 4-.1 4.8 2.9 5.3 7.5zm73.9-7.5c5 .3 6.5 2.3 6.6 5.6.1 2.8-.5 5.1-3.9 5.3-3.3.2-8.1-3.2-7.3-5.6.8-2.4 3.5-4.1 4.6-5.3zm201.7 81c5.5-.1 6.7 2.3 6.8 5.4.1 2.7-.7 5.1-3.9 5.3-3.2.2-8-3.3-7.2-5.7.8-2.3 3.4-4 4.3-5zM37.5 599.9c-1.6 1.4-3 3.7-4.9 4.1-3.1.8-7.4-3-7.2-5.7.2-3.9 3.4-4.5 6.3-4.8 3.8-.3 4.9 2.2 5.8 6.4zm256.3-380.2c-3.1.2-5.2-.7-5.2-4.1 0-3.3 2.4-5.7 5.6-5.6 3.3.1 4.2 2.2 4.2 5 .1 3.2-1.2 5.1-4.6 4.7zm-258.1 339c.4 3.3-1.7 4.4-4.8 4.3-2.9 0-4.9-1.1-4.9-4.4 0-3.3 2.4-5.5 5.7-5.4 3.7.1 4.1 2.5 4 5.5zm787.8 141c.2 3.5-1.6 4.9-4.8 4.8-2.8-.1-5-.8-4.9-4.3.1-3.4 2.2-5.5 5.6-5.5 3.5-.1 3.9 2.3 4.1 5zM213.2 260c-3 .2-5.2-.4-5.3-3.9-.1-3.3 2.2-5.8 5.3-5.8 3.3 0 4.4 1.9 4.4 4.8 0 3.1-.8 5.4-4.4 4.9zm-94.6 581.1c-2.7 2.2-4 4.1-5.8 4.6-2.5.6-6.6-3.1-5.6-5s3.4-3.8 5.4-4.1c1.5-.1 3.3 2.4 6 4.5zm634.6-482.6c-.3-5 1.6-6.8 5-6.3 1.7.2 4.2 1.2 4.7 2.5 1 2.2-3.9 6.7-6.7 6.2-1.4-.2-2.5-1.9-3-2.4zM542.6 982.4c-2.6 2.2-4 4.1-5.7 4.6-2.5.7-6.5-3-5.6-4.9 1-1.9 3.4-3.8 5.4-4.1 1.4-.2 3.2 2.3 5.9 4.4zm-266.9-24.3c.4.4 1.6 1.6 2.9 2.8-2.3 2-4.7 4-7 6-1-1.5-2.8-2.8-3-4.4-.4-3.6 2.1-4.8 7.1-4.4zM52.4 452.3l3.9 3.6c-2.3 2.1-4.5 4.1-6.8 6.2-1.1-1.4-2.9-2.7-3.1-4.3-.5-3.6 1.9-4.9 6-5.5zm74.8 410.9c-.1-5.3 2.2-6.7 5.4-6.2 1.7.3 3.1 1.8 4.7 2.8-2.3 2-4.5 4.3-7 5.9-.5.3-2.6-2-3.1-2.5zm666.3-100.9c-.2-5.2 2.1-6.7 5.3-6.3 1.7.2 3.2 1.7 4.7 2.7-2.2 2.1-4.4 4.3-6.9 6-.4.3-2.5-1.9-3.1-2.4zM583.1 215.1c-2.8 2.2-4.2 4-5.9 4.4-2.6.6-6.6-3-5.6-4.9 1-1.8 3.4-3.6 5.4-3.9 1.5-.1 3.3 2.3 6.1 4.4zM167.7 903.8c-.4-5 1.5-6.8 4.8-6.4 1.8.2 3.4 1.8 5 2.8-2.3 2-4.5 4.2-7 5.8-.4.4-2.3-1.8-2.8-2.2zm-14.4-27.4c1.3 1.2 2.7 2.3 4 3.5-2.2 2.1-4.4 4.2-6.7 6.3-1.1-1.4-2.9-2.7-3.1-4.2-.6-3.6 1.7-4.9 5.8-5.6zM92.8 371.6c1.3 1.2 2.7 2.4 4 3.5-2.3 2.1-4.5 4.1-6.8 6.2-1.1-1.4-3-2.7-3.2-4.3-.5-3.5 2-4.8 6-5.4zM26.3 641.2c-.2-5 1.6-6.7 5.1-6.2 1.7.3 4.1 1.3 4.7 2.6.9 2.1-4.2 6.7-6.9 6.1-1.4-.3-2.5-2.1-2.9-2.5zM361 194.6c-2.9 2.3-4.9 4.9-5.9 4.6-2.1-.7-3.8-3-5.6-4.6 1.8-1.5 3.3-3.8 5.3-4.2 1.3-.2 3.2 2.1 6.2 4.2zm-25.8 782.8c1.3 1.2 2.5 2.4 3.8 3.6-2.3 2.1-4.5 4.1-6.8 6.2-1.1-1.4-2.8-2.8-3.1-4.3-.5-3.7 2.1-4.8 6.1-5.5zm327.5-721.1c-1.6 1.2-3.6 3.8-4.7 3.4-2.2-.7-3.9-2.9-5.7-4.5 1.8-1.5 3.4-3.6 5.4-4.2 2.9-.8 4 1.6 5 5.3zM602 963.1c-1.6 1.2-3.6 3.8-4.6 3.5-2.1-.7-3.8-3-5.6-4.6 1.8-1.4 3.3-3.6 5.3-4.2 2.9-.7 4.1 1.6 4.9 5.3zm-86.3-761.9c-2.1-3.1-4.3-4.9-4.2-6.6 0-1.4 2.7-3.7 4.3-3.8 1.5 0 4.5 2.5 4.4 3.5-.3 2-2.4 3.8-4.5 6.9zM736.6 866c-1-1.5-3.1-3.5-2.8-4.4.8-1.9 2.9-3.1 4.5-4.7 1.2 1.4 3.6 2.8 3.5 4-.2 1.8-2.1 3.4-3.3 5.1h-1.9zM716 885.5c-.6-.9-2.6-2.8-2.2-3.7.7-1.8 2.6-3.8 4.4-4.4 2.3-.7 3.7 1.1 3.6 3.7-.1 3-1.6 4.4-5.8 4.4zM29.7 522.7c-.9-1.5-3-3.5-2.6-4.4.8-1.8 2.8-3.4 4.7-4.3.5-.2 3.5 2.5 3.3 3.4-.4 2-2.2 3.7-3.4 5.5-.7-.1-1.4-.2-2-.2zm167 397.5c-.1 4.3-1.6 5.6-4.5 5.7-2.6 0-4.3-1.5-3.6-3.8.6-1.8 2.7-3.6 4.6-4.3.9-.3 2.8 1.8 3.5 2.4zm647-320.9c-1.7 1.1-3.3 3-5 3.1-1.2.1-2.7-2.1-4-3.3 1.5-1.5 2.8-3.6 4.6-4.4.9-.4 2.9 1.6 4.3 2.5 0 .8 0 1.5.1 2.1zm-612-359.6c-.9-1.4-2.5-2.8-2.6-4.3-.1-2.7 1.8-4.6 4.6-4.1 1.2.2 3.2 2.4 3 3.2-.5 1.9-2.1 3.6-3.2 5.3-.6.1-1.2 0-1.8-.1zM52.4 735.4c.9 1.4 2.9 3 2.6 4-.5 1.8-2.2 3.5-3.9 4.4-.6.3-3.8-2.1-3.6-3 .3-1.9 1.9-3.6 3-5.5.6.1 1.2.1 1.9.1zm787.7-181.7c.9 1.4 2.7 3.1 2.4 4.1-.6 1.7-2.3 3.4-4 4.3-.6.3-3.6-2.3-3.5-3.2.3-1.9 2-3.6 3.1-5.3.7 0 1.4.1 2 .1zm-138 348.4c-1.7 1.2-3.3 2.9-5.2 3.3-.9.2-3.6-2.8-3.3-3.3.8-1.7 2.4-3.5 4.1-4.2.9-.4 2.7 1.4 4.1 2.2.2.7.3 1.3.3 2zM783 376.9c-1.7 1.2-3.3 2.9-5.2 3.5-.8.2-3-1.8-3.3-3-.5-2.7 1.1-4.8 3.9-4.6 1.5.1 2.9 1.5 4.3 2.4.1.5.2 1.1.3 1.7zm35.4 85.9c-1.7-2.7-3.5-4.3-3.4-5.7.1-1.3 2.5-3.5 3.5-3.3 1.6.2 3.8 2.1 3.9 3.5.2 1.3-2 2.9-4 5.5zm24.9 177.1c-1.5 1-3.2 2.9-4.6 2.7-1.5-.2-2.6-2.4-3.9-3.7 1.3-1.2 2.6-3.2 3.9-3.3 1.5-.1 3 1.6 4.6 2.6v1.7zM76.1 397.3c-1.5 1-3.1 3-4.5 2.9-1.4-.1-2.7-2.2-4-3.5 1.2-1.2 2.3-3.3 3.6-3.4 1.5-.1 3.2 1.5 4.8 2.3 0 .6.1 1.1.1 1.7zm15.5 418c1.9 2.6 3.8 4.1 3.8 5.5 0 1.3-2.3 3.6-3.3 3.5-1.5-.2-3.8-1.9-4.1-3.3-.4-1.2 1.7-3 3.6-5.7zM36.8 679.7c-2.8 1.6-4.5 3.4-5.9 3.2-1.4-.2-2.5-2.5-3.7-3.8 1.5-1.1 2.9-2.9 4.4-3 1.2-.2 2.7 1.7 5.2 3.6zM435 1007.5c-1.8-2.1-3.8-3.5-3.8-4.7.1-1.3 2.3-3.6 3.4-3.5 1.5.2 3.5 1.9 4 3.4.3.9-1.8 2.6-3.6 4.8zm323-171.6c1.8 2.3 3.5 3.6 3.8 5.3.2.8-2.3 3.2-3.3 3-1.6-.3-3.7-1.8-4.1-3.2-.3-1 1.8-2.7 3.6-5.1zm-80.5 80.9c1.7 2.4 3.7 3.9 3.5 5.1-.2 1.3-2.5 3.2-3.8 3.2-1.3 0-3.4-2.1-3.5-3.4-.1-1.3 2-2.7 3.8-4.9zM216.7 943c-1.3.8-2.7 2.1-4 2.1-1.1 0-2.2-1.6-3.3-2.5 1.3-1.4 2.4-3.1 4-3.9.5-.3 2.2 1.6 3.4 2.5-.1.6-.1 1.2-.1 1.8zm424-706.6c-1.4.7-2.8 1.9-4.2 1.9-1.1 0-2.1-1.7-3.2-2.6 1.3-1.3 2.5-3 4.1-3.7.6-.3 2.2 1.7 3.3 2.7.1.5 0 1.1 0 1.7zm-243.6 769.5c-1.8-.4-3.8-.5-5.4-1.4-.5-.3-.3-3.1.5-3.8.9-.9 3.7-1.7 4.1-1.2 1.1 1.3 1.5 3.4 2.1 5.1-.5.4-.9.9-1.3 1.3zm80.6.1c-1.8-.4-3.8-.6-5.3-1.5-.5-.3-.2-3.1.6-3.8.9-.9 3.7-1.6 4-1.2 1.1 1.4 1.4 3.4 2 5.1-.5.5-.9.9-1.3 1.4zM783 821.1c-2.4 1.4-3.8 2.8-5.1 2.7-1.1-.1-2-1.9-3.1-3 1.2-1 2.3-2.7 3.7-2.9 1-.2 2.3 1.5 4.5 3.2zM313.8 199.3c-1.6-2-3.4-3.4-3.2-4.3.3-1.3 2-2.8 3.3-3.1.8-.2 3 1.8 2.9 2.7-.1 1.4-1.6 2.7-3 4.7zm509.7 540.9c-2.4 1.4-3.8 2.8-5.1 2.8-1.1-.1-2-1.9-3.1-2.9 1.2-1 2.3-2.7 3.6-2.9 1-.3 2.3 1.4 4.6 3zM293.8 977.7c1.5 2.3 3 3.7 2.8 4.6-.4 1.3-2 2.8-3.3 3.1-.7.2-2.8-1.9-2.8-2.9 0-1.3 1.6-2.5 3.3-4.8zm549.8-459.6c-2.5 1.5-3.9 3-5.1 2.9-1.1-.1-2-1.9-3-3 1.2-1 2.3-2.6 3.6-2.9.9-.2 2.2 1.4 4.5 3zM573.1 982.7c.9-1.2 1.9-2.3 2.8-3.5l1.5.3c.1 1.7.2 3.3.3 5-1.4-.1-2.9-.2-4.3-.3 0-.5-.1-1-.3-1.5zm-16.6-784.6c-1.3-1.5-2.8-2.5-2.7-3.3.1-.9 1.5-2.1 2.5-2.3.6-.1 2.2 1.3 2.2 2 .1 1-1 2-2 3.6zm237.6 199.7c2.2-1.9 3.3-2.8 4.5-3.7.6.8 1.6 1.4 1.8 2.3.2.9-.5 2.7-.6 2.7-1.6-.2-3-.6-5.7-1.3zM31.4 474c1.1 1.7 2.2 2.7 2.2 3.7 0 .7-1.6 2.1-2.2 2-1-.2-2.5-1.4-2.5-2.2-.2-1 1.2-1.9 2.5-3.5zm627.1 465.2v5c-1.2-.2-2.4-.5-3.6-.7.4-1.6.7-3.1 1.1-4.7.8.2 1.6.3 2.5.4zM31.2 716.3c1.2 1.7 2.3 2.6 2.4 3.6.1.7-1.4 2.2-2.1 2.1-1-.2-2.6-1.2-2.7-2-.1-1 1.2-2.1 2.4-3.7zm326.9 286c-1.9 1.2-2.9 2.3-3.8 2.2-.9 0-1.7-1.2-2.6-1.8.8-.9 1.5-2.3 2.4-2.6.9-.1 2 1.1 4 2.2zm258.4-790.9c1.3 1.6 2.5 2.5 2.6 3.5.1.6-1.3 2.1-2 2.1-1-.1-2.5-1-2.7-1.9-.1-.8 1.1-1.9 2.1-3.7zM236.9 962.7c-2.1.8-3.3 1.6-4.3 1.4-.8-.1-1.4-1.4-2-2.2.9-.7 1.9-2 2.8-2 .9 0 1.8 1.3 3.5 2.8zM454 178.3c-.4-1.2-1.4-2.5-1.2-3.6.2-.9 1.5-2.1 2.5-2.4.6-.2 2.2 1.1 2.3 1.8.1.9-.9 2-1.5 2.9-.7.5-1.4.9-2.1 1.3zm-39.2-7.2c1.2 1.6 2.4 2.5 2.5 3.4.1.6-1.4 2.1-2.1 2.1-1-.1-2.6-1.1-2.7-1.9-.2-.8 1.1-1.9 2.3-3.6zM74.9 802.3c-1.1.3-2.3 1-3.3.8-1.1-.2-2-1.3-3-2 .9-1.1 1.5-2.7 2.6-3.1.9-.3 2.3.8 3.5 1.3.1 1 .2 2 .2 3zM55.1 416.9c-1.9 1.1-2.9 2.2-3.9 2.2-.8 0-1.6-1.2-2.4-1.9.8-.9 1.5-2.2 2.5-2.4.9-.2 2 .9 3.8 2.1zm783.6 259c1.3 1.6 2.5 2.4 2.7 3.4.1.6-1.4 2.1-2 2.1-1-.1-2.6-1-2.8-1.9-.2-.8 1.1-1.9 2.1-3.6zM515.4 999c1.4 1.5 2.6 2.3 2.8 3.3.1.6-1.3 2.2-1.9 2.2-1 0-2.6-.9-2.8-1.8-.2-.8 1-1.9 1.9-3.7z"/>
  <path class="st0" d="M631.2 139.4c2 4.3 4 8.6 6.3 13.5 2 .1 5.3.4 9.1.6-.3-5.1-.5-10.8 4.6-13.6 3.5-1.9 8.2-3 12.2-2.7 9 .8 12.9 7.8 10.8 17.5 5.3.6 10.6 1.3 15.7 1.9 0-2.7-.9-6.5.3-9.6 1.2-3 4-5.9 6.8-7.7 4-2.6 10.5-1 13.5 2.4 3.3 3.9 3 10.9-.8 16.2-3.7 5.2-7.8 6.3-14.5 3.8.6 3.8 1.1 7.6 1.8 11.7 3.3.2 6.8.5 10.9.8-.3-6.2.6-12.6 7-15.6 3-1.4 7-1.9 10.2-1.1 8.2 1.9 11 10.3 7.5 21.2 6.3-2.4 12.3-2.7 18 1 6.3 4.1 6.6 10 4.5 16.6 15.7-1.7 20.4 2.4 21.9 17.6 5.7 2 10.9 3.8 16.1 5.7l1.3 1.3c1.3 4.8 2.6 9.7 3.9 14.8 3.5.4 8.2 1 12.8 1.5-1.7-8.4-.4-12.8 4.7-15.6 4.9-2.7 11.6-2.3 15.1.9 3.2 2.9 4.1 8.1 2.2 12.4-2.5 5.6-8.1 7.9-17.6 7 .6 2.4 1.5 4.7 1.8 7.1.3 2.3.1 4.7.1 7.5 5.9-1.2 11.3 0 16.1 3.7 3.6 4.7 5.2 10 3.6 16.4 6.2-.2 11.9.5 16.2 5.1 4.4 4.7 5 10.2 2.6 16.7 5.5-1.7 10.8-2.4 14.3 1.8 2.7 3.3 5 7.5 5.7 11.7 1.5 8.7-4 13.2-15.9 14.2.2 3 .4 6.1.6 9.5 3.2.5 6.4.9 10.4 1.5-1.9-5.9-1.1-11.4 3.8-15.2 1.9-1.5 4.9-2.4 7.4-2.4 7 0 13.8 7.2 13.8 13.9 0 7.3-6 11.3-17.5 11.5.3 4.1.5 8.1.8 12.6 6.1-.6 11.8.5 15.6 6.1 3.7 5.4 3.6 11.2.3 17.7 6.7-2.9 12.7-3.7 17.1 2.6 3.6 5.1 4.5 10.8 1.6 16.5-3.2 6.2-9.1 5.7-15.2 4.8.2 4.7.4 9.1.6 13.5 12.4.6 17.3 4.6 17.3 14.4.1 9.7-4.6 13.8-16.7 14.4v10.9c5.4-.2 11.1.1 14.1 5.2 1.9 3.3 3.2 7.5 3.2 11.3-.1 8.9-6 13.3-16.6 13.5v9.6c11.8 1.9 17.2 7.5 16.7 17-.4 8.9-5.3 12.9-17.4 14v10.6c5.3-.4 10.9.3 13.6 5.6 1.8 3.5 2.9 8 2.5 11.9-.9 8.9-7.2 12.4-17.1 10.8-.3 5-.7 10-1 15.2 6.8-2.4 13.3-1.6 16.8 6.7 2.3 5.4.5 12-3.9 15.4-4 3.2-9.2 3.4-13.8.5-5.8-3.6-7.5-8.8-5.3-17-3.6.9-7 1.8-11 2.9-.2 2.4-.3 5.3-.5 8.2 12.1 1.2 17.2 6.9 15.9 17.7-1.1 9.4-6.8 12.9-16.9 11.4-1.4 5.6-1.9 11.4-4.4 16.3-2.8 5.6-9.3 5.6-15.1 5.9-.3 3.9-.7 7.6-1 11.9 5.9-1.2 11.5-.3 14.6 5.3 1.6 2.8 2.7 6.4 2.6 9.6-.3 6.9-6.3 11.1-13.9 10.6-8.9-.6-12.1-5.2-12-17.3-3 .5-6 1.1-9.5 1.7-.3 2.7-.7 5.6-1.1 8.8 5.3.1 11.3-.2 14.1 5.2 1.6 3.2 2.3 7.5 1.7 11.1-1.7 10.3-8.3 13.5-19.7 10.3 2.8 7.3 1 13.5-4.4 18.7-4.1 4-7.7 4.4-15 2 1.7 6.6.7 12.5-4.1 17.3-4.9 4.8-10.5 5.9-17.6 2.2 3.2 6.9 3.6 12.8-2.4 17.4-5.2 4-11.1 4.5-17.4 2.8 1.7 11.3-3.7 21.2-12.1 22.5-7.6 1.2-13-5.2-14.7-17.8-3 .3-5.9.6-9 .9-.6 3.1-1.2 6.4-1.9 9.7 12.5.4 18.1 4.2 17.7 11.9-.4 7.4-8.3 14.4-15.6 13.7-7-.6-10.9-7.3-10-17.3-3.7.5-7.3 1-9.7 1.3-2.9 5.4-4.9 10.9-8.5 15.1-4 4.7-10.2 3.9-16.3 2.4 1.3 5.3 2.1 10.6-2 14.1-3 2.5-7.1 4.6-11 5.1-9.3 1.3-14.1-4.4-14.8-16.4-3.1.3-6.3.6-9.3.9-1 3.7-2.1 7.4-3.1 11 8.6-1.5 14.8 1 17.7 7.1 2.2 4.6 1.2 10.9-2.4 14-4 3.6-10.9 3.6-16.3.1-5.4-3.6-6.5-8.1-3.8-16.3-2.6.7-5 1.7-7.5 1.8-2.6.2-5.2-.5-8.1-.8 1 4.6 1.9 9.7-2.1 12.9-3.2 2.5-7.4 4.7-11.4 5.2-9.8 1.1-14-4.4-13.6-16.3h-12.7c.5 5.1.8 10.8-4.3 13.8-3.4 2-7.7 3.2-11.7 3.2-8.7 0-12.7-5.7-12.5-16.5h-9.7c-1.8 4.4-2.5 9.2-5.3 12.1-2.6 2.7-7.2 4.2-11.1 4.5-9.7.8-13.5-4-14.6-16.8h-11.4c.4 5.2 0 10.6-5 13.3-3.5 1.9-7.9 3.2-11.7 3-9.3-.6-12.7-6.6-11.2-17.1-4.8-.2-9.7-.5-14.5-.7.8 7.9-2.1 14.6-8 17.1-4.6 2-10.9.6-14-3-3.5-4.1-3.7-11.2-.5-16.4 3.2-5.3 7.4-6.4 16-4.2-.8-3.5-1.6-7-2.5-11h-8.5c-1.1 11.1-6.5 16.5-16.3 16-9.6-.5-13.6-5.6-13.4-17.2-4.9-.9-9.7-1.7-14.4-2.5 1.5 8-.7 13.8-6.9 17-4.5 2.3-10.4 1.4-13.7-2-3.5-3.6-3.7-10.5-.4-15.8 3.4-5.6 7.5-6.8 15.3-4.6-.6-3.7-1.2-7.4-1.9-11.6-2.9-.2-6.3-.4-10-.6.6 7.9-2.3 13.7-10.1 15.8-5.6 1.5-11.2.9-15.1-4.1-4.3-5.6-3.2-11.4.5-17.1-16.5 5.8-28.1-3.7-22.5-17.8-6.1 1.3-12 1.7-17-2.5-5.1-4.3-5.6-9.9-4.5-16.4-6.1.8-11.8 0-16.4-4.2-4.9-4.4-5.6-9.8-3.9-15.9-16.2.2-22.7-6.9-19.6-21.7-6.3 1.8-12.2 1.5-16.8-3.4-4.7-4.9-5.2-10.7-2.7-17-11.4 2.8-18.2-1.5-20.1-12.2-1.6-9.3 3.1-13.8 16.2-15.3-.4-3.1-.7-6.3-1.1-9.5-3.2-.4-6.4-.8-10.4-1.4 2.1 5.6 1.3 10.8-3.2 14.6-1.9 1.6-4.7 2.9-7.1 3-7 .5-14.2-6.7-14.5-13.7-.4-7.4 5-11.1 17.6-11.9-.3-2-.6-4-.7-6.1-.1-1.9 0-3.8 0-6.2-6.1.7-11.8-.5-15.7-5.8-3.9-5.2-4.2-10.9-1.2-17.5-6.7 2.8-12.6 2.9-16.8-3.2-3.6-5.3-4.4-11.1-1.3-16.9 3.1-5.8 8.6-6.1 14.9-5.1-.4-3.9-.7-7.5-1.1-11.5-5.8.1-11.4-1.5-14.7-7.4-3.2-5.6-3.1-11.3-.2-17.8-8.1 2.9-14.9 2.4-19.6-4.9-2.6-4.1-2-9.4 1.2-13.4 4-5.1 8.7-6.2 15.9-4.2v-16.9c-5.6 1.9-11.5 2.6-15.2-3.8-3.2-5.5-3.6-11.4 0-16.9 3.8-5.7 9.4-4.8 14.9-3.1v-15.5c-3-.2-6.5.4-9.2-.8-2.7-1.2-5.2-3.9-6.8-6.6-2.9-5.2-1.8-11.9 1.8-15.4 3.9-3.8 9.6-4.1 16.8-.5-2.4-6.1-3.5-12-.6-17.8 3.1-6.3 8.7-7.7 15.5-7 .2-3.8.5-7.4.7-11.5-5.3.4-11 .5-13.9-4.6-1.9-3.4-3-7.9-2.7-11.8.7-9.1 7.4-12.9 17.7-11.2.4-5 .8-10.1 1.2-14.8-2.7-.2-6.7.3-9.6-1.1-3.1-1.5-5.9-4.6-7.5-7.7-2.4-4.5-.3-10.5 3.5-13.2 4.2-3 10.9-2.4 15.9 1.3 4.9 3.7 5.8 7.7 3.1 14.8 3.4-.4 6.9-.7 10.3-1.4.8-.2 1.7-1.9 1.9-2.9.3-2.6.1-5.3.1-8.4-7 .5-13.6-.4-16-8.1-1.9-6.1.2-11.5 4.7-15.9 4.5-4.5 9.7-4.4 15.7-1.3-2.6-6.5-2.8-12.4 1.3-17.8 4.2-5.4 9.7-6.4 15-5.1 1.5-5.5 2.1-11.4 4.8-16.1 3.1-5.4 9.5-5.4 15.2-5.3.7-4.6 1.5-9.1 2.2-13.7-6.3 1.4-13 2.2-16.7-5.2-2.4-4.7-.6-11.3 3.6-15.1 3.6-3.3 8.9-4.2 12.4-2.1 5.8 3.4 8.1 9.7 6.1 17.6 2.2-.7 4.2-1.6 6.3-2 2-.4 4.1-.3 6.3-.4.5-3.8 1-7.9 1.6-11.9-12.1.2-18.2-4.3-17.8-13.2.4-6.9 6.5-11.6 14.2-10.8 8.7 1 11.6 6.2 9.8 17.3 4-.7 8.1-1.4 12.2-2.2.6-3.7 1.3-7.7 2-11.7-8.2.8-14.4-1.8-17-7.2-1.9-4.1-.7-10.2 2.6-13.2 3.9-3.5 11.1-4.2 15.9-1.3 6.3 3.7 5.8 9.4 4 16 2.6-.7 4.6-1.5 6.7-1.9 2.2-.3 4.4-.3 6.9-.4.2-5.6.4-11.3 5.1-15.5 4.5-4.1 10-4.1 16-3.1-.8-6.6.4-12.4 5.5-16.7 5.1-4.3 10.8-4.3 17.4-1.7-2-5.1-3.7-10.2.3-14.1 2.8-2.7 6.7-5.2 10.5-5.9 10-1.9 14.9 3.4 15.6 16 3-.3 6-.5 9.3-.8.8-3.5 1.7-7 2.4-9.7-4.4-1.1-8.8-1.6-12.6-3.4-2.2-1.1-3.9-4.1-4.9-6.6-1.9-4.8-.1-10.3 3.5-13 4.3-3.2 11.3-2.9 16.3.8 4.7 3.4 5.6 7.4 3.1 15.3 2.6-.6 4.9-1.3 7.3-1.6 2.4-.3 4.9-.1 7.4-.1-1.1-10.4 3.9-16.9 13.9-17.7 9.6-.8 14.1 4 15 16.2 3.2-.1 6.3-.3 8.7-.4 2-4.5 3.7-8.5 5.5-12.5.7-.8 1.5-1.5 2.2-2.3 5.5-3.5 11.3-4 18-1.2-2.3-6.6-2.8-12.6 3.5-16.6 5.3-3.3 11.1-3.6 16.5-.4 6 3.5 5.5 9.2 4.5 14.8h14c-.5-4.6-1.4-10.1 3.4-13.1 3.5-2.1 8-3.7 12-3.7 9.4.1 12.6 5.5 11.1 17.1h15.4c-1.4-6-2.1-12.4 5.1-16.2 4.8-2.6 11.6-1.4 16.3 2.5 5.1 4.4 5 9.7 2.3 15.9 7.5-3.2 14-2.9 19.8 2.1zm-423 388v13.5c3.6-.7 7.2-1.3 10.8-2v-9.3c-4-.8-7.7-1.6-10.8-2.2zm10.4-77.6c-3.8-1-7.2-2-10.3-2.8v12.4c3.2-.6 6.5-1.3 10.3-2.1v-7.5zm-.3 48.1v-8.8c-3.4-.5-6.5-1-9.2-1.5-.2 4.2-.4 8.3-.6 12.1 3.1-.6 6.3-1.2 9.8-1.8zm662.5-101.7c3.4.4 6.4.7 9 .9.5-4.2.9-8.1 1.4-11.6-3.5.6-6.9 1.3-10.4 1.9v8.8zM594.5 143c.7 2.8 1.4 5.9 2.2 9.1h7.6c1-3.6 1.9-6.9 2.7-9.9-4.1.3-8.1.5-12.5.8zm122.6 40.9c.5 3 1.1 6 1.6 9.1h7.5c.6-3.5 1.2-6.8 1.7-9.9-3.5.2-7 .5-10.8.8zm-344 589.8c-.8 3.7-1.6 7.3-2.3 10.7 3.3-.6 7.1-1.2 10.9-1.9-1-8.6-1-8.6-8.6-8.8zm151.6-630.6c-4.2-.2-7.9-.5-11.5-.7.6 3.3 1.2 6.4 1.8 9.5h8c.6-3.1 1.1-6 1.7-8.8zM828 691.9c-3 .6-5.4 1.1-8 1.5-.2 2.7-.3 5.2-.5 7.1 3.8.9 7.1 1.7 10.6 2.6-.7-3.6-1.4-7.3-2.1-11.2zM768.5 763c-.2-1.4-.6-2.9-.7-4.4-.1-1.7 0-3.4 0-5.1-8.8.3-8.4-1.8-9.4 8.6 3.3.3 6.5.6 10.1.9zm-489.8-89.9c-2.8-.4-5.4-.7-7.8-1.1-.4 4-.8 7.3-1.2 10.5 3.2-.7 6.4-1.4 9.7-2.2-.2-2.3-.4-4.6-.7-7.2zm277.5-521.5h7c.7-3.1 1.4-5.9 2-8.5h-10.9c.6 2.9 1.3 5.6 1.9 8.5zM259.1 327.1c-3.6-.8-6.9-1.5-9.8-2.1.4 3.6.9 7 1.3 10.7 2.4-.2 5-.5 7.8-.8.3-2.7.5-5.1.7-7.8zm-21.2 264.7c-2.6-.6-5.1-1.1-7.4-1.6-.6 3.9-1.2 7.6-1.7 11 3.4-.8 6.6-1.5 9.9-2.3-.3-2.4-.5-4.7-.8-7.1zM400.5 192c.5-2.7.9-5 1.3-7.2-3.6-.7-7.1-1.3-10.3-1.9.6 3.2 1.1 6.4 1.7 9.7 2.3-.1 4.6-.4 7.3-.6zm225.3 631.7c-.4-2.9-.7-5.7-1-8.5h-7.4c-.5 2.7-1.1 5.2-1.6 7.7 3.5.3 6.6.5 10 .8zm224.1-518.6c-3.6.5-6.6 1-9.7 1.5.4 2.5.7 4.8 1.1 7.2 2.4.4 4.6.8 7 1.2.5-3.4 1-6.5 1.6-9.9zm-50.4 415.6c3.9.9 6.9 1.5 9.9 2.2-.7-3.4-1.3-6.5-2-9.8-1.9.1-4.1.2-6.5.3-.5 2.4-1 4.8-1.4 7.3zm-10.3 22.7c-.7-3.4-1.4-6.5-2.2-10.1-2.4.4-4.8.8-7.4 1.2v6.6c3.3.9 6.5 1.6 9.6 2.3zm-428.5 18.2c-.3-2.1-.6-4.4-.9-6.9-2.4-.2-4.7-.5-7-.7-.6 3.3-1.2 6.2-1.8 9.2 3.5-.6 6.4-1.1 9.7-1.6zM230.3 387.3v9c2.7-.4 5.2-.7 7.6-1v-7.4c-2.7-.2-5-.4-7.6-.6zm273.3 435.9c-.7-2.9-1.3-5.4-1.8-7.9h-6.4c-.5 2.7-.9 5.2-1.4 7.9h9.6zm173.8-20.7c3 .2 5.9.5 9.1.7-.4-3.1-.7-5.7-1-8.2h-6.6c-.6 2.4-1 4.6-1.5 7.5zm-10.8-638.8c-3.5.2-6.4.3-9.6.4.6 2.9 1.1 5.2 1.6 7.6h6.3c.5-2.6 1-5 1.7-8zm222.6 395.5v-9.1c-2.8.4-5.2.8-7.6 1.1v6.4c2.7.6 5.1 1.1 7.6 1.6zM298.5 694.1c-2.2-.5-4.1-.9-6.3-1.3-.6 3.2-1.2 6-1.7 8.9 3.2-.3 6-.6 9-.9-.4-2.4-.6-4.3-1-6.7zm562.7-81.5v6.5c2.8.4 5.4.7 7.9 1.1-.4-3.1-.7-5.8-1-8.6-2.2.3-4.3.6-6.9 1zM746 212.5c.5-2.7 1-5.4 1.5-8.2-3.1.4-5.7.7-8.1 1v6.8c2.3.2 4.4.3 6.6.4zM433.3 802.7c3-.3 5.6-.5 8.5-.7-.4-2.5-.8-4.7-1.2-7H435c-.6 2.5-1.1 4.9-1.7 7.7zm448.3-373.9v6.9c2.4.3 4.5.6 6.9.8.2-2.9.4-5.3.5-7.7h-7.4zM319 714.3c-2.4-.3-4.7-.5-7.3-.8v8.3c2.7-.6 5.1-1.1 7.3-1.6v-5.9zm134.6-550.4c.6 2.9 1.1 5.3 1.6 7.8h5.6c.5-2.5 1-4.8 1.4-7-2.8-.3-5.5-.5-8.6-.8zM331.3 742c3-.2 5.7-.4 8.7-.7-.5-2.6-.9-4.8-1.2-6.9-2-.1-3.7-.2-5.6-.4-.6 2.6-1.2 5.1-1.9 8zm489.5-455v5.9c2.3.3 4.4.6 6.8 1 .2-2.7.4-5.1.6-7.7-2.7.3-4.9.5-7.4.8zm-549.2 27.4c2.6-.5 4.8-1 6.7-1.4v-6h-7.2c.1 2.4.3 4.6.5 7.4zm488.3-88c.1 2.3.2 4.2.3 5.9h6.1c.1-2.3.2-4.4.3-6.9-2.2.4-4.2.6-6.7 1zm-380.7-14.2c.4-2.5.7-4.5 1.1-6.9h-7.4c.2 2.4.4 4.6.6 6.9h5.7zm205.2 610.6c-.6-2.7-1-4.7-1.5-6.6H577c-.3 2.1-.6 4-.9 6.1 2.9.2 5.3.3 8.3.5zm-49-.2c2.8-.2 5.3-.3 8.1-.4-.4-2.3-.8-4.1-1.1-6h-5.7c-.5 2.3-.9 4.2-1.3 6.4zm251.4-576.1h-6.3v6h5.9c.2-2.1.3-3.9.4-6zm19.8 26.2c.2-2.2.4-4.3.6-6.3-2.5.1-4.4.2-6.8.4.2 2.2.4 4.1.6 6.2h3.6c.6-.1 1.2-.2 2-.3zm76 197.4c-.8 5.7.4 6.8 5.8 5.7v-5.7h-5.8zm5.8 40.1c-2.4.6-4.2 1-5.9 1.4v5.2c2.1.2 3.9.3 5.9.5v-7.1zM231.3 551v7.2c2.2-.5 4-.9 5.9-1.3v-4.7c-1.8-.4-3.5-.8-5.9-1.2zM862 368.5v5.2c2 .4 3.8.8 6 1.3v-6.9c-2 .2-3.8.3-6 .4zM359.3 226.4h-5.4v5.5c1.9-.1 3.6-.3 5.4-.4v-5.1zm-66.5 60.8v5.8h5v-5.3c-1.7-.2-3.3-.4-5-.5zm-55.7 148v-5.4h-5.3c.1 1.9.2 3.6.3 5.4h5zm14.1 183.7c2.5-.2 4.3-.3 6.3-.5v-5.2c-1.7-.2-3.3-.4-4.9-.6-.5 2.2-.9 4-1.4 6.3zm448 162.3c2.3-.2 4.1-.3 6.2-.5-.9-3.5-1.2-6.7-5.5-4.6-.3 1.6-.5 3-.7 5.1zm-74.9-614.1c-.3-.5-.7-.9-1-1.4h-6.4c1.5 2 2.5 3.4 3.4 4.7 1.3-1 2.6-2.2 4-3.3zm222.8 466.6h-5.5c.1 1.6.2 2.8.3 4.1 1.9.3 3.4.6 5.2.9v-5zM338.6 247c-1.9.1-3.2.2-5 .3.1 1.7.2 3.1.3 4.7 1.7-.1 2.9-.2 4.2-.3.2-1.5.3-2.8.5-4.7zM318 267.7h-4.6v4.7c1.6-.2 3-.3 4.6-.5v-4.2zm-85.9 203.1v4.8c.4.3.8.5 1.1.8 1.3-1.4 2.7-2.8 4-4.2l-.9-1.2c-1.3 0-2.6-.1-4.2-.2zm-.4 45.4c1.7-.1 3.2-.1 4.7-.2l.9-1.5c-1.4-1.3-2.7-2.6-5-4.8-.3 3.2-.5 4.6-.6 6.5zm452.7-330h-4.9v4.1h4.4c.1-1.4.3-2.6.5-4.1zM415.5 776.5v3.9c1.6-.1 2.8-.2 4.1-.4 1-3.6-.7-4.2-4.1-3.5zm79.2-610.7c1.7 2 2.8 3.3 3.9 4.5 1-1.3 2.1-2.5 3.7-4.5h-7.6zM252.4 369.4c-1.1 4.5.7 5.2 4.2 4.1v-4.1h-4.2zm183.5-182.6c-.3.5-.7 1-1 1.6 1.5.9 3 1.8 4.9 2.9 1.1-5.4-1.4-5-3.9-4.5z"/>
  <path class="st0" d="M489.5 138c-.7.8-1.5 1.5-2.2 2.3-1.4.5-2.8 1-4.1 1.5-5.2 1.7-11.4-.9-14.5-6-3-4.9-2.3-11.7 1.5-15.2 3.9-3.7 11.5-3.4 16.9.6 5.2 3.9 6.4 8.8 3.5 14.4-.6.8-.8 1.6-1.1 2.4zm141.7 1.4c-.6-1.4-1.2-2.7-1.8-4.1-3.2-7.7.3-14.6 8.3-16.4 6.1-1.4 10.5 0 13 4.1 2.8 4.5 2.4 10.8-.8 14.6-3.4 4-9.5 5.4-14.7 3.4-1.3-.5-2.6-1.1-4-1.6zm304.1 353.9c0 6.9-5 12-12.1 12.1-7 .1-12.1-5-12.1-12 0-7.2 5.1-11.7 13.4-11.6 6.6.1 10.7 4.5 10.8 11.5zM720.6 827.7c-6.9 0-11.4-4.3-11.4-10.9 0-7 4.8-11.5 12.4-11.5 7 0 12.4 5.3 12.3 12-.1 5.8-5.9 10.3-13.3 10.4zm214.7-374.5c0 6.7-5 11.4-12.2 11.4-7.1 0-12.1-4.7-12-11.5 0-7 4.9-11.2 12.7-11.2 7 0 11.5 4.4 11.5 11.3zm-41.2 201.2c.1 7.2-4.6 12.7-10.8 12.8-6.6.1-11.9-5.3-11.9-12.3-.1-6.8 5.1-11.5 12.5-11.5 6.1.1 10.1 4.3 10.2 11zM207.8 412.2c.1 7.1-4.7 12.6-11 12.7-6.3.1-11.8-5.7-11.9-12.6-.1-6.4 4.8-10.9 12-11 6.4-.2 10.8 4.2 10.9 10.9zM325.7 191c.1-7.3 5-11.7 12.8-11.7 6.7 0 10.9 4.3 10.7 11-.2 6.6-6 11.7-13.3 11.6-6.4 0-10.3-4.2-10.2-10.9zm-67.9 69.2c6.6 0 10.8 4 10.8 10.4 0 6.8-5.9 12.1-13.4 12.1-6.3 0-10.2-4-10.2-10.4-.1-7.7 4.6-12.1 12.8-12.1zM570.7 856c-.4 7.6-5.9 13.8-11.7 13.4-6.1-.5-11.6-6.6-11.1-12.5.5-6.7 6.5-11.4 13.9-11 5.6.2 9.2 4.3 8.9 10.1zm353.9-333.3c5.8-.1 9.5 3.6 9.6 9.4.1 7.3-5.2 14-11 14.1-6 .1-11.8-5.8-11.8-11.8 0-6.7 5.6-11.6 13.2-11.7zM794.3 220.9l-1.3-1.3c-.6-1.6-1.4-3.3-1.9-5-1.5-5.6.6-11.1 5.1-13.5 4.7-2.6 10.4-2 13.7 1.2 3.6 3.6 4.1 10.7 1.1 15.4-2.8 4.4-7.7 5.9-13.3 4.2-1.1-.3-2.2-.6-3.4-1zm39.1 39.2s0 .1 0 0c-.7-2.4-1.8-4.7-2-7.2-.7-6.2 1.7-10.1 6.9-12 5.7-2 10.7-1 13.4 2.7 3 4.1 2.9 10.3-.2 14.2-3.4 4.3-9.4 5.9-14.4 3.9-1.3-.5-2.5-1-3.7-1.6zM185 574.5c0-7 4.8-11.4 12.5-11.4 6 0 10.2 4.6 10.1 11.1-.1 6.3-5.6 11.6-12.3 11.6-6.2.1-10.3-4.4-10.3-11.3zm30.6 71.8c-6.4 0-10.5-4.3-10.5-11.2 0-6.9 4.9-11.4 12.6-11.4 6.1 0 10.2 4.4 10.1 11-.1 6.5-5.4 11.5-12.2 11.6zm687-283c-6.6 0-10.9-4.6-10.8-11.5.1-6.8 4.8-10.7 12.7-10.6 6 .1 10 4.4 10 10.8-.1 6.5-5.2 11.3-11.9 11.3zM518.7 868.1c-6.6-.1-10.7-4.6-10.5-11.7.1-6.8 4.8-10.5 12.8-10.3 6 .1 9.8 4.4 9.7 10.9-.2 6.6-5.2 11.3-12 11.1zm82.4-21.7c6.4 0 10.4 4.2 10.3 10.8-.1 6.3-5 10.9-11.7 10.8-6.4-.1-10.9-4.7-10.8-11.1 0-6.7 4.5-10.5 12.2-10.5zm180.6-644.9c-6.5 0-11.1-4.4-11.1-10.7-.1-6.6 4.5-10.8 12-10.9 6.4-.1 10.5 4.1 10.6 10.6-.1 6.5-4.8 11-11.5 11zm-434.8-31.2c.3-6.6 5.4-10.6 13-10.2 5.4.3 9 4.5 8.7 10.3-.3 6.2-5.9 10.7-12.7 10.4-5.8-.3-9.2-4.2-9-10.5zm565.8 242.8c0-6.8 4.5-10.7 12-10.7 5.6 0 9.4 4.2 9.3 10.2-.1 6.1-5.3 10.9-11.8 10.9-6.1 0-9.6-3.9-9.5-10.4zm-39.4-142.2c.1 6.2-5.1 11.2-11.5 11.2-5.9 0-9.7-4-9.8-10.4-.1-6.6 4.2-10.5 11.6-10.7 5.9-.1 9.7 3.8 9.7 9.9zM247.2 291c.1 6.3-4.9 11.3-11.3 11.4-5.9.1-9.6-3.9-9.7-10.4-.1-6.9 4.3-11 11.8-10.9 5.4 0 9.1 4 9.2 9.9zm49.4 476c-5.9-.1-10.3-5.3-10.1-11.8.2-5.7 5.2-9.9 11.7-9.7 5.5.1 9.2 4.4 9.1 10.5 0 6.7-4.4 11.1-10.7 11zm-30-31.1c0-6.6 4.3-10.4 11.7-10.4 5.8 0 9.4 4 9.3 10.1-.1 6.3-5.2 11-11.7 10.9-5.9 0-9.3-4-9.3-10.6zM307 776c0-6.2 4-9.8 11.2-9.8 6-.1 10.4 4.3 10.5 10.4.1 5.5-5 9.9-11.5 9.9-6.3 0-10.2-4.1-10.2-10.5zm133-656.1c5.5.1 9.1 3.9 9.1 9.9 0 6.1-4.9 10.8-11.2 10.7-6-.1-10-4.5-9.9-10.8.2-6.1 4.8-9.9 12-9.8zm463.1 525.2c-5.9.1-10.2-4-10.5-9.8-.2-6 4.1-10 11-10.2 5.8-.2 9.9 3.8 10 9.6 0 5.8-4.5 10.3-10.5 10.4zm-645.4 60.8c6.2 0 9.7 3.5 9.7 9.7 0 5.7-4.5 9.9-10.5 9.9-5.9 0-10.5-4-10.7-9.3-.1-6.2 4.3-10.2 11.5-10.3zm171.1 130.6c.1 6-4.1 10.3-10.3 10.5-6.2.2-10.5-4-10.5-10.2 0-6 4.5-9.9 11.3-9.9 5.6 0 9.4 3.9 9.5 9.6zm495.3-271.9c6.3 0 9.6 3.3 9.6 9.7 0 5.8-4.3 9.9-10.4 9.9-6 0-10.5-4-10.5-9.3-.2-6.4 4.1-10.3 11.3-10.3zM540.5 100.1c5.8.1 9.2 3.5 9.2 9.1 0 5.9-5.2 10.3-11.7 10.1-5.5-.1-8.9-3.6-8.9-9 0-6.3 4.4-10.2 11.4-10.2zm220 79.9c-5.6 0-9.1-3.2-9.2-8.6-.2-6.5 4.4-10.7 11.4-10.7 5.7.1 9.3 3.6 9.2 9.2-.1 5.6-5.1 10-11.4 10.1zm52 576c.1-6.1 4.2-9.7 10.8-9.5 5.2.2 9.8 4.7 9.8 9.7 0 5-5.8 9.6-12.1 9.5-5.4-.1-8.6-3.6-8.5-9.7zM186.4 372.4c.1-6.1 4.1-9.7 10.8-9.6 5.3.1 9.8 4.4 9.9 9.5.1 5.1-5.6 9.6-11.9 9.6-5.5.1-8.9-3.7-8.8-9.5zm515.3 455c5.5-.1 10.3 4.4 10.3 9.5 0 4.9-5.9 9.6-12.1 9.5-5.3-.1-8.6-3.5-8.7-9.2 0-6.3 3.7-9.7 10.5-9.8zm-30.6-697.2c0-6.4 3.7-9.6 10.7-9.6 5.3 0 9.9 4.3 10 9.3.1 5.1-5.4 9.6-11.9 9.6-5.6.1-8.8-3.3-8.8-9.3zm-101-20.4c.1-6.1 4.2-9.7 10.9-9.5 5.3.1 9.7 4.6 9.8 9.6 0 5.1-5.5 9.5-12 9.4-5.6 0-8.8-3.5-8.7-9.5zM478 866.5c-5.6 0-8.9-3.5-8.9-9.4.1-6.1 4.1-9.7 10.8-9.7 5.3.1 9.8 4.4 9.9 9.5.1 5.2-5.3 9.6-11.8 9.6zm-130.6-70.1c0 5.7-4.1 9.7-9.9 9.8-5.9 0-9.9-4.1-9.9-10.3 0-5.5 4.8-9.3 11.5-9.2 5 .2 8.3 4 8.3 9.7zm504.9-60.5c0 5.7-4.1 9.6-10 9.6-6 0-9.9-4-9.9-10.2 0-5.4 4.3-8.9 11.1-9 5.4-.1 8.8 3.7 8.8 9.6zM884 282.6c5.4.1 8.6 3.5 8.4 9.2-.1 5.5-4 9.2-9.8 9.2-5.9 0-9.5-3.9-9.4-9.9.2-5.6 4-8.6 10.8-8.5zM175.8 482.7c-5.9-.1-9.5-4-9.4-10 .1-5.5 4.1-8.5 10.8-8.4 5.4.1 8.6 3.6 8.4 9.3-.1 5.4-4.2 9.2-9.8 9.1zm464.8 384c-5.2-.1-9.7-5-9.5-10.4.2-5.1 4.8-8.8 10.5-8.6 4.8.2 8 3.8 8 8.9 0 5.7-4 10.2-9 10.1zm170.5-90.9c0 5.9-3.7 10.1-8.9 10-5.1-.1-9.3-4.4-9.4-9.8-.1-5.3 4-9 9.9-9 5-.1 8.3 3.4 8.4 8.8zM185.4 514.2c0 5.2-3 8.9-7.3 9-5.7.1-12.1-5.6-11.9-10.6.1-4 4.9-7.7 10-7.7 5.2-.1 9.2 3.9 9.2 9.3zm201.2-364.8c0 5.9-4.3 10.9-9.1 10.7-4.9-.1-9-4.3-8.9-9.3 0-5.6 4.2-9.5 10.1-9.5 5.1 0 8 3 7.9 8.1zM499.2 101c5.4 0 9.3 3.8 9.3 9.2 0 5.3-2.9 8.8-7.3 8.9-5.8.1-12-5.4-11.9-10.5.1-4 4.7-7.6 9.9-7.6zM236.3 704.4c-5.5 0-8.9-3.6-8.9-9.4-.1-5 4.1-8.4 10.4-8.5 4.7 0 7.9 3.5 7.9 8.8 0 5.4-3.8 9.1-9.4 9.1zm627.5 2.4c4.9 0 7.9 3.2 7.9 8.7 0 5.4-3.8 9.2-9.3 9.2-5.4 0-8.8-3.6-8.9-9.5 0-5.1 3.9-8.3 10.3-8.4zm-82 98.6c-5.6.1-9.2-3.6-9.2-9.6 0-4.8 4-8.1 10.2-8.3 4.7-.1 8 3.3 8.2 8.6.1 5.3-3.7 9.2-9.2 9.3zM205.2 614.6c0 5.4-3.8 9.1-9.3 9.1-5.4 0-8.8-3.7-8.9-9.5 0-5.1 4-8.4 10.4-8.4 4.9 0 7.8 3.3 7.8 8.8zm406-505.4c0-5.1 4.2-8.3 10.5-8.2 4.9.1 7.7 3.4 7.6 8.9-.1 5.3-4.1 9.1-9.5 9-5.3-.1-8.6-3.8-8.6-9.7zm-403.9 202c0-5 4.2-8.3 10.5-8.3 4.7 0 7.8 3.6 7.8 8.9-.1 5.3-4.1 9.1-9.5 9-5.5-.1-8.8-3.8-8.8-9.6zm717.1 52.9c4.5.1 7.1 2.8 6.9 7.4-.2 5.5-4.3 10.5-8.5 10.4-4.3-.1-8.6-4.9-8.5-9.3.2-5 4.4-8.6 10.1-8.5zm-748.8 78.4c-4.4-.1-8.6-4.8-8.5-9.3.2-4.9 4.5-8.7 10.1-8.6 4.4.1 7.1 3 6.9 7.5-.1 5.5-4.2 10.5-8.5 10.4zm566.9-300.6c4.5 0 7.1 2.7 7.1 7.3-.1 5.5-4 10.5-8.3 10.6-4.3 0-8.8-4.6-8.7-9.1 0-5 4.3-8.8 9.9-8.8zM366.1 817.6c-.1 4.7-3.3 7.9-7.9 7.8-4.6-.1-9-4.6-8.9-9.4 0-4.3 3.9-7.5 9-7.4 4.5.1 7.9 3.9 7.8 9zM175.4 562.1c-4.7-.1-7.6-3.1-7.5-8 .1-5 3.8-8.3 9.2-8.1 4.5.1 7.4 3.2 7.3 7.8.1 4.8-3.8 8.4-9 8.3zm715.8 134.1c.1 4.5-1.9 7-5.6 7.1-5 .2-11.3-4.8-11.4-8.9-.1-3.6 4.8-7 10-6.9 4.3.1 6.9 3.3 7 8.7zm60.5-221.7c-.1 4.5-2.2 6.9-5.9 6.8-5.1-.1-11.2-5.3-11.1-9.4.1-3.4 5-6.6 10-6.5 4.5 0 7.1 3.4 7 9.1zm-.3 38.9c.1 4.9-3.4 8.4-8.3 8.4-4.6 0-7.6-3.1-7.8-7.9-.1-4.7 3.6-8 9.2-8.1 4.2 0 6.8 2.9 6.9 7.6zM446.6 857c0 4.7-3.1 7.8-7.8 7.8-4.8 0-8.3-3.4-8.3-8 0-4.4 3.5-7.3 8.8-7.5 4.5 0 7.3 3 7.3 7.7zm323.1-40.2c0 4.8-3.1 7.7-8 7.6-4.7-.1-8.1-3.4-8.1-7.8s3.6-7.5 8.8-7.5c4.6-.1 7.3 2.8 7.3 7.7zm145.6-202.4c.1-4.5 3.6-7.3 9-7.2 4.5.1 7.3 3.2 7.1 7.9-.2 4.4-3.5 7.5-7.9 7.5-4.8-.1-8.3-3.6-8.2-8.2zm-4.2-302.6c0 4.8-3 7.8-7.7 7.8-4.8 0-8.4-3.4-8.4-7.9 0-4.4 3.5-7.3 8.8-7.4 4.5-.1 7.3 2.7 7.3 7.5zM208.4 675.7c0-4.5 3.5-7.7 8.5-7.8 4.1-.1 7.5 2.9 7.5 6.7.1 4.1-4.6 8.2-9.5 8.3-4.2 0-6.5-2.5-6.5-7.2zm257.7-565.8c-.1 5-2.5 7.4-7.5 7.3-4.8-.1-7.5-2.6-7.5-6.9 0-4.3 3.6-7.7 8.1-7.7 4.5-.2 7 2.5 6.9 7.3zm216 753.6c-5-.1-9.2-3.1-9.2-6.6.1-3.6 4.6-7.2 8.9-7.1 4.4.1 7.3 3.3 7.2 7.9-.1 3.8-2.6 5.9-6.9 5.8zm-94.9 14c0 4.6-1.6 6.8-5.2 6.8-4.5.1-9.9-4.4-9.8-8.2.1-3.1 4.3-6.1 8.7-6.2 4-.1 6.2 2.7 6.3 7.6zm-181.8-747c0 4.5-1.8 6.6-5.4 6.6-4.3 0-9.5-4.3-9.6-7.9-.1-3.2 4.4-6.4 9-6.5 3.8.1 6.1 2.9 6 7.8zm141.4 747.3c0 4.4-1.8 6.6-5.5 6.6-4.3-.1-9.5-4.4-9.6-7.9-.1-3.2 4.5-6.4 9-6.4 3.9-.1 6.2 2.8 6.1 7.7zM668 110.2c0 4.4-1.8 6.9-5.2 6.9-4.4.1-9.8-4.5-9.7-8.3.1-3.2 4.1-6 8.6-6.1 4.1 0 6.2 2.5 6.3 7.5zm282.7 323.1c0 4.4-1.8 6.8-5.2 6.8-4.5 0-9.8-4.5-9.6-8.3.1-3.2 4.2-6 8.7-6 4 0 6 2.5 6.1 7.5zm-774.6-33.9c-4.5-.1-7.3-2.8-7.3-7.2 0-3.8 3.3-6.5 8-6.5 4.1 0 7.1 3.1 7 7.5-.2 3.8-3.3 6.3-7.7 6.2zm27.4-66.7c-.1 2.9-.5 6.1-4.8 6.4-4.2.3-9.8-4.4-9.8-8.2 0-3 3.5-5.6 7.9-5.7 4.2 0 6.6 2.5 6.7 7.5zM950.7 555c-.2 2.9-.5 6-4.9 6.2-4.4.1-9.8-4.5-9.7-8.2.1-3 3.7-5.5 8-5.5 4.2-.1 6.6 2.4 6.6 7.5zM385.3 837.7c-.3 2.9-.6 6.1-5 6.2-4.4.1-9.8-4.6-9.7-8.3.1-3 3.8-5.5 8.1-5.5 4.2 0 6.5 2.6 6.6 7.6zM277.2 204.2c3.7 0 6.8 3.4 6.7 7.5-.1 3.5-2.4 5.9-5.9 6-4.1.1-8.5-4-8.3-7.8.1-2.9 3.8-5.7 7.5-5.7zm-13.5 26.1c.1 3.5-3.8 7.3-7.7 7.3-3.3.1-5.9-2.8-6-6.5-.1-3.9 2.9-6.7 7.2-6.8 3.5 0 6.4 2.7 6.5 6zm234.6 653.6c-3.3 0-5.9-2.9-5.9-6.5 0-3.9 3-6.8 7.2-6.8 3.6 0 6.2 2.4 6.3 6 0 3.6-3.7 7.3-7.6 7.3zM179.1 588c.8 1.1 3 2.9 3.3 5 .6 3.9-4.4 8.7-8.1 8.5-2.9-.2-5.3-3.9-5.2-7.8.1-2.9 4.4-5.9 10-5.7zm730.3 84.6c0 4.9-4.1 9.6-7.7 9.8-3.1.1-5.9-3.6-5.8-7.7 0-3 4.3-6.1 8.3-5.9 3 .1 5.2 1.5 5.2 3.8zM613.2 876.7c-.1-3.1 3.8-6.1 8.1-6 3 0 5.2 1.3 5.4 4.7.2 4-4.1 8.9-7.9 8.8-2.9 0-5.5-3.4-5.6-7.5zm101.6-746.5c.1-4.5 2.5-6.8 6.9-6.7 4 .1 6.2 2.3 6 6-.2 3.6-3.8 7.1-7.3 7.2-3.4 0-5.7-2.6-5.6-6.5zM290.7 191c.1-4.6 2.2-6.7 6.9-6.7 3.7 0 5.4 2 5.4 5.5-.1 4-3.3 7.8-6.6 7.7-3.1-.1-5.7-3-5.7-6.5zm457.1 645.9c0 3.9-2.2 6.1-6.1 6.1-3.8 0-6.7-2.6-6.8-6.2 0-3.5 2.6-6 6.4-5.9 3.8.1 6.5 2.6 6.5 6zM323.9 171.3c-.1 2.5-.8 5.2-4.7 5.1-3.6-.1-8.3-3.7-8.5-6.7-.2-2.7 3.1-5 7.3-5 3.8-.1 5.9 2 5.9 6.6zM848 210.4c0 4-2.4 6.4-6 6.4-4 0-5-2.7-5.2-5.8-.2-3.7 2.3-6.1 6-6.2 4.1-.1 4.8 2.7 5.2 5.6zM565.7 89.5c0 3.6-1.6 5.6-5.3 5.5-3.7-.1-6.9-2.8-6.6-5.7.4-3.4 2.6-5.2 6-5.3 3.8-.1 5.9 1.9 5.9 5.5zM235.9 245.3c4-.1 6.5 2.1 6.7 5.4.1 3.6-1.4 5.7-5.1 5.9-3.4.2-7.1-2.8-6.9-5.6.3-3.4 2.7-5 5.3-5.7zm-39.4 404.1c3.8.1 5.9 2.1 5.8 5.7-.1 3.6-1.9 5.6-5.6 5.3-3.4-.3-6.1-1.7-6.5-5.5-.3-2.8 3.2-5.6 6.3-5.5zm725.8-311.8c-3.5-.3-5-2.3-4.9-5.6.1-3.4 3.2-5.9 6.8-5.6 3.5.3 5 2.2 4.9 5.6-.3 3.4-3.2 5.8-6.8 5.6zm20.1 60.6c-2.8-.2-4.8-1.8-4.8-5.3 0-3.4 2.9-6.3 6.3-6.2 3.3.2 5.3 1.9 5.4 5.3.1 3.4-2.9 6.3-6.9 6.2zM816.3 190.6c.4-3.6 3.5-5.9 7.1-5.6 3.5.4 4.8 2.5 4.6 5.8-.3 3.4-3.3 5.7-6.9 5.3-3.6-.3-4.8-2.6-4.8-5.5zm46.6 34.8c4 .2 5.3 2.5 5.4 5.9.1 2.9-.7 5-4.1 5.2-3.4.1-7.5-3-7.3-5.9.2-3.7 3.2-4.5 6-5.2zM525.3 91.7c-1.2.9-2.8 2.9-4.7 3.3-3.4.6-7.4-3-7-5.9.4-3.7 3.3-4.8 6.4-4.9 4-.2 4.7 2.8 5.3 7.5zm73.9-7.5c5 .3 6.5 2.3 6.6 5.6.1 2.8-.5 5.1-3.9 5.3-3.3.2-8.1-3.2-7.3-5.6.8-2.4 3.4-4.1 4.6-5.3zm201.7 81c5.5-.1 6.7 2.3 6.8 5.4.1 2.7-.7 5.1-3.9 5.3-3.2.2-8-3.3-7.2-5.7.8-2.3 3.4-4 4.3-5zM162.3 494.8c-1.6 1.4-3 3.7-4.9 4.1-3.1.8-7.4-3-7.2-5.7.2-3.9 3.4-4.5 6.3-4.8 3.8-.3 4.8 2.2 5.8 6.4zm256.3-380.3c-3.1.2-5.2-.7-5.2-4.1 0-3.3 2.4-5.7 5.6-5.6 3.3.1 4.2 2.2 4.2 5 0 3.3-1.3 5.2-4.6 4.7zM160.5 453.6c.4 3.3-1.7 4.4-4.8 4.3-2.9 0-4.9-1.1-4.9-4.4 0-3.3 2.4-5.5 5.7-5.4 3.6.1 4.1 2.4 4 5.5zm787.7 140.9c.2 3.5-1.6 4.9-4.8 4.8-2.8-.1-5-.8-4.9-4.3.1-3.4 2.2-5.5 5.6-5.5 3.6 0 4 2.4 4.1 5zM338 154.9c-3 .2-5.2-.4-5.3-3.9-.1-3.3 2.2-5.8 5.3-5.8 3.3 0 4.4 1.9 4.4 4.8 0 3.1-.8 5.4-4.4 4.9zM243.4 736c-2.7 2.2-4 4.1-5.8 4.6-2.5.6-6.6-3.1-5.6-5s3.4-3.8 5.4-4.1c1.5-.2 3.3 2.3 6 4.5zM878 253.4c-.3-5 1.6-6.8 5-6.3 1.7.2 4.2 1.2 4.7 2.5 1 2.2-3.9 6.7-6.7 6.2-1.4-.2-2.5-2-3-2.4zM667.4 877.3c-2.6 2.2-4 4.1-5.7 4.6-2.5.7-6.5-3-5.6-4.9 1-1.9 3.4-3.8 5.4-4.1 1.4-.2 3.2 2.3 5.9 4.4zm-267-24.4c.4.4 1.6 1.6 2.9 2.8-2.3 2-4.7 4-7 6-1-1.5-2.8-2.8-3-4.4-.3-3.5 2.2-4.7 7.1-4.4zM177.2 347.2l3.9 3.6c-2.3 2.1-4.5 4.1-6.8 6.2-1.1-1.4-2.9-2.7-3.1-4.3-.5-3.6 1.9-4.9 6-5.5zm74.7 410.9c-.1-5.3 2.2-6.7 5.4-6.2 1.7.3 3.1 1.8 4.7 2.8-2.3 2-4.5 4.3-7 5.9-.5.2-2.5-2.1-3.1-2.5zm666.4-100.9c-.2-5.2 2.1-6.7 5.3-6.3 1.7.2 3.2 1.7 4.7 2.7-2.2 2.1-4.4 4.3-6.9 6-.4.3-2.5-1.9-3.1-2.4zM707.9 110c-2.8 2.2-4.2 4-5.9 4.4-2.6.6-6.6-3-5.6-4.9 1-1.8 3.4-3.6 5.4-3.9 1.5-.2 3.3 2.2 6.1 4.4zM292.5 798.7c-.4-5 1.5-6.8 4.8-6.4 1.8.2 3.4 1.8 5 2.8-2.3 2-4.5 4.2-7 5.8-.4.3-2.3-1.8-2.8-2.2zm-14.4-27.4c1.3 1.2 2.7 2.3 4 3.5-2.2 2.1-4.4 4.2-6.7 6.3-1.1-1.4-2.9-2.7-3.1-4.2-.7-3.7 1.7-5 5.8-5.6zm-60.5-504.9c1.3 1.2 2.7 2.4 4 3.5-2.3 2.1-4.5 4.1-6.8 6.2-1.1-1.4-3-2.7-3.2-4.3-.5-3.4 2-4.7 6-5.4zM151 536c-.2-5 1.6-6.7 5.1-6.2 1.7.3 4.1 1.3 4.7 2.6.9 2.1-4.2 6.7-6.9 6.1-1.3-.3-2.4-2-2.9-2.5zM485.8 89.5c-2.9 2.3-4.9 4.9-5.9 4.6-2.1-.7-3.8-3-5.6-4.6 1.8-1.5 3.3-3.8 5.3-4.2 1.3-.2 3.2 2.1 6.2 4.2zM460 872.3c1.3 1.2 2.5 2.4 3.8 3.6-2.3 2.1-4.5 4.1-6.8 6.2-1.1-1.4-2.8-2.8-3.1-4.3-.5-3.8 2.1-4.9 6.1-5.5zm327.4-721.1c-1.6 1.2-3.6 3.8-4.7 3.4-2.2-.7-3.9-2.9-5.7-4.5 1.8-1.5 3.4-3.6 5.4-4.2 2.9-.8 4.1 1.5 5 5.3zM726.8 858c-1.6 1.2-3.6 3.8-4.6 3.5-2.1-.7-3.8-3-5.6-4.6 1.8-1.4 3.3-3.6 5.3-4.2 2.9-.8 4.1 1.5 4.9 5.3zM640.4 96c-2.1-3.1-4.3-4.9-4.2-6.6 0-1.4 2.7-3.7 4.3-3.8 1.5 0 4.5 2.5 4.4 3.5-.3 2.1-2.3 3.9-4.5 6.9zm221 664.8c-1-1.5-3.1-3.5-2.8-4.4.8-1.9 2.9-3.1 4.5-4.7 1.2 1.4 3.6 2.8 3.5 4-.2 1.8-2.1 3.4-3.3 5.1-.6.1-1.3.1-1.9 0zm-20.6 19.6c-.6-.9-2.6-2.8-2.2-3.7.7-1.8 2.6-3.8 4.4-4.4 2.3-.7 3.7 1.1 3.6 3.7-.1 2.9-1.6 4.3-5.8 4.4zM154.4 417.5c-.9-1.5-3-3.5-2.6-4.4.8-1.8 2.8-3.4 4.7-4.3.5-.2 3.5 2.5 3.3 3.4-.4 2-2.2 3.7-3.4 5.5-.6-.1-1.3-.1-2-.2zm167.1 397.6c-.1 4.3-1.6 5.6-4.5 5.7-2.6 0-4.3-1.5-3.6-3.8.6-1.8 2.7-3.6 4.6-4.3.9-.3 2.7 1.8 3.5 2.4zm646.9-320.9c-1.7 1.1-3.3 3-5 3.1-1.2.1-2.7-2.1-4-3.3 1.5-1.5 2.8-3.6 4.6-4.4.9-.4 2.9 1.6 4.3 2.5.1.8.1 1.4.1 2.1zM356.5 134.6c-.9-1.4-2.5-2.8-2.6-4.3-.1-2.7 1.8-4.6 4.6-4.1 1.2.2 3.2 2.4 3 3.2-.5 1.9-2.1 3.6-3.2 5.3-.6 0-1.2 0-1.8-.1zM177.2 630.3c.9 1.4 2.9 3 2.6 4-.5 1.8-2.2 3.5-3.9 4.4-.6.3-3.8-2.1-3.6-3 .3-1.9 1.9-3.6 3-5.5.6 0 1.2.1 1.9.1zm787.7-181.7c.9 1.4 2.7 3.1 2.4 4.1-.6 1.7-2.3 3.4-4 4.3-.6.3-3.6-2.3-3.5-3.2.3-1.9 2-3.6 3.1-5.3.7 0 1.3.1 2 .1zM826.9 797c-1.7 1.2-3.3 2.9-5.2 3.3-.9.2-3.6-2.8-3.3-3.3.8-1.7 2.4-3.5 4.1-4.2.9-.4 2.7 1.4 4.1 2.2.2.6.2 1.3.3 2zm80.9-525.3c-1.7 1.2-3.3 2.9-5.2 3.5-.8.2-3-1.8-3.3-3-.5-2.7 1.1-4.8 3.9-4.6 1.5.1 2.9 1.5 4.3 2.4.1.5.2 1.1.3 1.7zm35.4 86c-1.7-2.7-3.5-4.3-3.4-5.7.1-1.3 2.5-3.5 3.5-3.3 1.6.2 3.8 2.1 3.9 3.5.2 1.3-2 2.9-4 5.5zm24.9 177c-1.5 1-3.2 2.9-4.6 2.7-1.5-.2-2.6-2.4-3.9-3.7 1.3-1.2 2.6-3.2 3.9-3.3 1.5-.1 3 1.6 4.6 2.6v1.7zM200.9 292.2c-1.5 1-3.1 3-4.5 2.9-1.4-.1-2.7-2.2-4-3.5 1.2-1.2 2.3-3.3 3.6-3.4 1.5-.1 3.2 1.5 4.8 2.3 0 .5 0 1.1.1 1.7zm15.4 418c1.9 2.6 3.8 4.1 3.8 5.5 0 1.3-2.3 3.6-3.3 3.5-1.5-.2-3.8-1.9-4.1-3.3-.3-1.3 1.8-3 3.6-5.7zm-54.7-135.6c-2.8 1.6-4.5 3.4-5.9 3.2-1.4-.2-2.5-2.5-3.7-3.8 1.5-1.1 2.9-2.9 4.4-3 1.2-.2 2.7 1.7 5.2 3.6zm398.2 327.7c-1.8-2.1-3.8-3.5-3.8-4.7.1-1.3 2.3-3.6 3.4-3.5 1.5.2 3.5 1.9 4 3.4.3 1-1.9 2.7-3.6 4.8zm322.9-171.5c1.8 2.3 3.5 3.6 3.8 5.3.2.8-2.3 3.2-3.3 3-1.6-.3-3.7-1.8-4.1-3.2-.3-1 1.9-2.8 3.6-5.1zm-80.4 80.8c1.7 2.4 3.7 3.9 3.5 5.1-.2 1.3-2.5 3.2-3.8 3.2-1.3 0-3.4-2.1-3.5-3.4-.1-1.2 1.9-2.6 3.8-4.9zm-460.9 26.2c-1.3.8-2.7 2.1-4 2.1-1.1 0-2.2-1.6-3.3-2.5 1.3-1.4 2.4-3.1 4-3.9.5-.3 2.2 1.6 3.4 2.5 0 .6 0 1.2-.1 1.8zm424.1-706.6c-1.4.7-2.8 1.9-4.2 1.9-1.1 0-2.1-1.7-3.2-2.6 1.3-1.3 2.5-3 4.1-3.7.6-.3 2.2 1.7 3.3 2.7.1.5 0 1.1 0 1.7zM521.9 900.8c-1.8-.4-3.8-.5-5.4-1.4-.5-.3-.3-3.1.5-3.8.9-.9 3.7-1.7 4.1-1.2 1.1 1.3 1.5 3.4 2.1 5.1-.5.4-.9.8-1.3 1.3zm80.6 0c-1.8-.4-3.8-.6-5.3-1.5-.5-.3-.2-3.1.6-3.8.9-.9 3.7-1.6 4-1.2 1.1 1.4 1.4 3.4 2 5.1-.5.5-.9 1-1.3 1.4zm305.3-184.9c-2.4 1.4-3.8 2.8-5.1 2.7-1.1-.1-2-1.9-3.1-3 1.2-1 2.3-2.7 3.7-2.9 1-.2 2.3 1.6 4.5 3.2zM438.6 94.2c-1.6-2-3.4-3.4-3.2-4.3.3-1.3 2-2.8 3.3-3.1.8-.2 3 1.8 2.9 2.7-.1 1.4-1.6 2.6-3 4.7zm509.6 540.9c-2.4 1.4-3.8 2.8-5.1 2.8-1.1-.1-2-1.9-3.1-2.9 1.2-1 2.3-2.7 3.6-2.9 1.1-.3 2.4 1.3 4.6 3zM418.6 872.6c1.5 2.3 3 3.7 2.8 4.6-.4 1.3-2 2.8-3.3 3.1-.7.2-2.8-1.9-2.8-2.9 0-1.3 1.6-2.6 3.3-4.8zm549.8-459.7c-2.5 1.5-3.9 3-5.1 2.9-1.1-.1-2-1.9-3-3 1.2-1 2.3-2.6 3.6-2.9.9-.2 2.2 1.4 4.5 3zM697.9 877.6c.9-1.2 1.9-2.3 2.8-3.5l1.5.3c.1 1.7.2 3.3.3 5-1.4-.1-2.9-.2-4.3-.3 0-.5-.2-1-.3-1.5zM681.3 92.9c-1.3-1.5-2.8-2.5-2.7-3.3.1-.9 1.5-2.1 2.5-2.3.6-.1 2.2 1.3 2.2 2 .1 1-1 2-2 3.6zm237.5 199.8c2.2-1.9 3.3-2.8 4.5-3.7.6.8 1.6 1.4 1.8 2.3.2.9-.5 2.7-.6 2.7-1.5-.2-2.9-.7-5.7-1.3zm-762.7 76.1c1.1 1.7 2.2 2.7 2.2 3.7 0 .7-1.6 2.1-2.2 2-1-.2-2.5-1.4-2.5-2.2-.1-.9 1.3-1.9 2.5-3.5zm627.1 465.3v5c-1.2-.2-2.4-.5-3.6-.7.4-1.6.7-3.1 1.1-4.7.9.2 1.7.3 2.5.4zm-627.3-223c1.2 1.7 2.3 2.6 2.4 3.6.1.7-1.4 2.2-2.1 2.1-1-.2-2.6-1.2-2.7-2 0-.9 1.3-2 2.4-3.7zm327 286.1c-1.9 1.2-2.9 2.3-3.8 2.2-.9 0-1.7-1.2-2.6-1.8.8-.9 1.5-2.3 2.4-2.6.8-.1 2 1.1 4 2.2zm258.4-790.9c1.3 1.6 2.5 2.5 2.6 3.5.1.6-1.3 2.1-2 2.1-1-.1-2.5-1-2.7-1.9-.1-.8 1.1-2 2.1-3.7zM361.7 857.5c-2.1.8-3.3 1.6-4.3 1.4-.8-.1-1.4-1.4-2-2.2.9-.7 1.9-2 2.8-2 .9.1 1.8 1.4 3.5 2.8zM578.8 73.2c-.4-1.2-1.4-2.5-1.2-3.6.2-.9 1.5-2.1 2.5-2.4.6-.2 2.2 1.1 2.3 1.8.1.9-.9 2-1.5 2.9-.7.5-1.4.9-2.1 1.3zM539.5 66c1.2 1.6 2.4 2.5 2.5 3.4.1.6-1.4 2.1-2.1 2.1-1-.1-2.6-1.1-2.7-1.9-.1-.8 1.2-1.9 2.3-3.6zM199.7 697.2c-1.1.3-2.3 1-3.3.8-1.1-.2-2-1.3-3-2 .9-1.1 1.5-2.7 2.6-3.1.9-.3 2.3.8 3.5 1.3.1 1 .2 2 .2 3zm-19.8-385.5c-1.9 1.1-2.9 2.2-3.9 2.2-.8 0-1.6-1.2-2.4-1.9.8-.9 1.5-2.2 2.5-2.4.9-.2 2 1 3.8 2.1zm783.6 259.1c1.3 1.6 2.5 2.4 2.7 3.4.1.6-1.4 2.1-2 2.1-1-.1-2.6-1-2.8-1.9-.2-.8 1-1.9 2.1-3.6zM640.2 893.9c1.4 1.5 2.6 2.3 2.8 3.3.1.6-1.3 2.2-1.9 2.2-1 0-2.6-.9-2.8-1.8-.2-.8 1-2 1.9-3.7z"/>
  <path class="st2" d="M585.9 151.6c2.3 4.8 4.5 9.7 7.1 15.3 2.2.1 6 .4 10.2.7-.4-5.7-.5-12.2 5.2-15.3 4-2.2 9.2-3.4 13.7-3 10.2.9 14.5 8.8 12.1 19.7 5.9.7 11.9 1.5 17.7 2.2 0-3-1-7.4.3-10.8 1.3-3.4 4.5-6.7 7.7-8.7 4.6-3 11.8-1.1 15.2 2.8 3.8 4.4 3.4 12.3-.9 18.3-4.2 5.9-8.8 7.1-16.4 4.3.6 4.3 1.3 8.6 2 13.2 3.7.3 7.7.5 12.3.8-.4-7 .6-14.2 7.9-17.6 3.4-1.6 7.9-2.1 11.5-1.3 9.3 2.1 12.4 11.6 8.4 23.9 7.1-2.7 13.9-3 20.3 1.2 7.1 4.6 7.4 11.3 5.1 18.7 17.8-1.9 23 2.7 24.7 19.9 6.4 2.3 12.3 4.3 18.1 6.4l1.5 1.5c1.5 5.5 2.9 10.9 4.4 16.6 3.9.5 9.2 1.1 14.4 1.7-1.9-9.5-.5-14.4 5.3-17.6 5.5-3.1 13.1-2.6 17 1 3.6 3.3 4.6 9.1 2.5 13.9-2.8 6.3-9.1 8.9-19.8 7.9.7 2.7 1.7 5.3 2 8 .3 2.6.1 5.3.1 8.4 6.6-1.4 12.8 0 18.1 4.2v-.1c4.1 5.4 5.8 11.3 4 18.5 7-.2 13.4.6 18.3 5.7 5 5.3 5.6 11.5 2.9 18.8 6.2-1.9 12.2-2.7 16.1 2.1 3.1 3.7 5.6 8.5 6.4 13.2 1.7 9.8-4.5 14.9-18 16 .2 3.4.5 6.9.7 10.7 3.7.5 7.2 1 11.7 1.7-2.2-6.6-1.3-12.8 4.2-17.2 2.2-1.7 5.5-2.7 8.3-2.7 7.9 0 15.6 8.1 15.6 15.7 0 8.2-6.7 12.7-19.7 13 .3 4.6.6 9.2.9 14.2 6.9-.6 13.3.6 17.5 6.8 4.2 6.1 4.1 12.6.4 19.9 7.5-3.2 14.3-4.2 19.3 2.9 4 5.7 5.1 12.1 1.8 18.6-3.6 7-10.2 6.5-17.1 5.5.2 5.3.5 10.2.7 15.2 14 .7 19.4 5.2 19.5 16.2.1 10.9-5.2 15.5-18.8 16.3v12.3c6.1-.2 12.5.1 15.9 5.9 2.2 3.7 3.6 8.4 3.6 12.7-.1 10-6.7 15-18.7 15.2v10.8c13.2 2.2 19.4 8.4 18.9 19.1-.5 10-5.9 14.5-19.6 15.8v11.9c6-.4 12.3.3 15.4 6.3 2 4 3.3 9 2.8 13.4-1 10-8.1 14-19.3 12.1-.4 5.6-.8 11.3-1.2 17.1 7.6-2.7 15-1.8 19 7.5 2.6 6.1.6 13.5-4.4 17.4-4.5 3.6-10.3 3.8-15.5.6-6.5-4.1-8.4-9.9-6-19.2-4 1.1-7.9 2.1-12.4 3.2-.2 2.7-.4 5.9-.6 9.2 13.7 1.4 19.4 7.8 17.9 20-1.3 10.6-7.6 14.6-19 12.8-1.6 6.3-2.2 12.9-5 18.4-3.2 6.3-10.5 6.3-17.1 6.6-.4 4.4-.7 8.5-1.2 13.4 6.6-1.3 12.9-.4 16.5 6 1.8 3.2 3.1 7.3 2.9 10.8-.4 7.8-7.1 12.5-15.7 12-10-.6-13.7-5.8-13.5-19.5-3.4.6-6.8 1.2-10.8 1.9-.4 3-.8 6.3-1.3 9.9 6 .2 12.8-.3 15.9 5.9 1.8 3.6 2.6 8.5 2 12.5-2 11.6-9.4 15.2-22.2 11.6 3.1 8.2 1.1 15.2-4.9 21.1-4.6 4.5-8.7 5-16.9 2.2 2 7.5.8 14.1-4.6 19.5-5.5 5.4-11.9 6.6-19.9 2.5 3.6 7.7 4 14.4-2.7 19.6-5.8 4.5-12.5 5.1-19.6 3.2 1.9 12.8-4.2 23.9-13.6 25.4-8.6 1.4-14.7-5.9-16.6-20.1-3.3.3-6.7.7-10.1 1-.7 3.5-1.4 7.2-2.1 10.9 14.1.5 20.4 4.8 19.9 13.4-.5 8.4-9.4 16.2-17.6 15.4-7.9-.7-12.3-8.2-11.2-19.5-4.1.5-8.2 1.1-10.9 1.5-3.3 6.1-5.6 12.3-9.6 17-4.5 5.3-11.5 4.4-18.4 2.7 1.5 6 2.4 12-2.3 15.9-3.4 2.9-8 5.2-12.3 5.8-10.4 1.4-15.9-4.9-16.7-18.5-3.5.3-7.1.7-10.5 1-1.2 4.2-2.3 8.3-3.5 12.4 9.7-1.7 16.6 1.1 20 8 2.5 5.2 1.3 12.2-2.7 15.8-4.5 4.1-12.3 4.1-18.3.1-6.1-4.1-7.3-9.1-4.3-18.4-2.9.8-5.7 1.9-8.5 2.1-2.9.2-5.9-.5-9.2-.9 1.1 5.2 2.2 10.9-2.3 14.5-3.6 2.9-8.3 5.3-12.8 5.8-11 1.3-15.8-4.9-15.4-18.4h-14.3c.6 5.7.9 12.2-4.9 15.6-3.8 2.3-8.7 3.7-13.1 3.6-9.8 0-14.3-6.5-14.1-18.7h-10.9c-2 5-2.9 10.4-6 13.6-2.9 3-8.1 4.8-12.5 5.1-10.9.8-15.2-4.5-16.4-18.9h-12.9c.5 5.9 0 12-5.6 15-3.9 2.1-8.9 3.7-13.2 3.4-10.4-.7-14.4-7.5-12.6-19.3-5.4-.3-10.9-.5-16.3-.8 1 8.9-2.4 16.5-9 19.3-5.2 2.3-12.3.7-15.7-3.4-3.9-4.7-4.1-12.6-.5-18.5 3.6-6 8.3-7.2 18.1-4.8-.9-3.9-1.8-7.9-2.8-12.3h-9.6c-1.2 12.5-7.4 18.6-18.4 18.1-10.8-.6-15.3-6.4-15.1-19.4-5.5-1-11-1.9-16.3-2.8 1.7 9-.8 15.6-7.8 19.1-5 2.5-11.7 1.6-15.4-2.3-3.9-4.1-4.2-11.9-.5-17.9 3.8-6.3 8.5-7.6 17.3-5.2-.7-4.1-1.4-8.3-2.2-13-3.3-.2-7.1-.4-11.3-.7.7 8.9-2.6 15.5-11.3 17.8-6.3 1.7-12.6 1-17-4.6-4.9-6.3-3.7-12.8.5-19.3-18.5 6.5-31.7-4.2-25.3-20.1-6.9 1.4-13.5 1.9-19.2-2.8-5.7-4.8-6.3-11.1-5-18.5-6.9.9-13.3 0-18.5-4.7-5.5-4.9-6.3-11.1-4.4-17.9-18.3.2-25.6-7.8-22.1-24.5-7.1 2.1-13.7 1.7-19-3.9-5.3-5.6-5.9-12.1-3-19.2-12.8 3.1-20.5-1.7-22.6-13.8-1.8-10.5 3.5-15.6 18.2-17.2-.4-3.5-.8-7.1-1.3-10.7-3.6-.5-7.2-.9-11.7-1.5 2.3 6.3 1.4 12.2-3.6 16.5-2.1 1.8-5.3 3.2-8 3.4-7.8.5-16-7.5-16.4-15.5-.4-8.3 5.7-12.5 19.8-13.5-.3-2.3-.7-4.5-.8-6.8-.1-2.2 0-4.3 0-7-6.9.8-13.3-.5-17.7-6.5-4.4-5.9-4.7-12.3-1.3-19.7-7.6 3.1-14.2 3.3-18.9-3.6-4.1-6-4.9-12.6-1.4-19.1 3.5-6.6 9.7-6.9 16.8-5.8-.4-4.4-.8-8.4-1.2-12.9-6.6.1-12.8-1.7-16.6-8.3-3.6-6.3-3.5-12.8-.2-20-9.1 3.3-16.8 2.8-22.1-5.5-3-4.6-2.2-10.6 1.4-15.1 4.5-5.7 9.8-7 18-4.7v-19c-6.3 2.2-12.9 3-17.2-4.3-3.7-6.3-4.1-12.9 0-19.1 4.3-6.5 10.5-5.4 16.8-3.5v-17.5c-3.3-.2-7.3.5-10.3-.9-3.1-1.4-5.9-4.4-7.6-7.5-3.3-5.8-2-13.4 2-17.3 4.4-4.2 10.8-4.6 19-.6-2.7-6.9-3.9-13.5-.7-20 3.5-7.1 9.8-8.7 17.5-7.9.3-4.2.5-8.3.8-12.9-6 .4-12.4.5-15.6-5.2-2.1-3.8-3.4-8.9-3.1-13.3.8-10.2 8.3-14.6 19.9-12.6.5-5.7.9-11.4 1.4-16.7-3.1-.3-7.5.4-10.8-1.3-3.4-1.7-6.6-5.2-8.5-8.7-2.7-5-.4-11.8 3.9-14.9 4.7-3.4 12.3-2.7 17.9 1.5 5.5 4.1 6.5 8.7 3.5 16.6 3.9-.5 7.8-.8 11.6-1.6.9-.2 2-2.1 2.1-3.3.3-3 .1-6 .1-9.4-7.9.5-15.3-.4-18-9.2-2.1-6.9.2-13 5.3-17.9 5.1-5 11-5 17.7-1.4-2.9-7.3-3.1-14 1.5-20 4.7-6.1 11-7.2 16.9-5.7 1.7-6.2 2.4-12.8 5.4-18.1 3.5-6.1 10.7-6.1 17.1-5.9.8-5.2 1.7-10.3 2.5-15.5-7.1 1.6-14.6 2.5-18.8-5.9-2.7-5.3-.7-12.7 4.1-17 4.1-3.7 10-4.7 14-2.4 6.6 3.8 9.1 10.9 6.9 19.9 2.5-.8 4.8-1.8 7.1-2.2 2.2-.4 4.6-.3 7.1-.4.6-4.3 1.2-8.9 1.8-13.4-13.6.3-20.6-4.8-20-14.9.4-7.8 7.4-13.1 16-12.2 9.8 1.1 13.1 6.9 11.1 19.5 4.5-.8 9.1-1.6 13.8-2.5.7-4.2 1.5-8.7 2.2-13.2-9.2.9-16.2-2.1-19.1-8.2-2.2-4.6-.8-11.5 3-14.9 4.4-4 12.5-4.7 18-1.5 7.1 4.2 6.6 10.5 4.5 18 2.9-.8 5.2-1.7 7.5-2.1 2.4-.4 5-.3 7.8-.4.3-6.3.5-12.7 5.7-17.4 5.1-4.6 11.3-4.6 18.1-3.5-.9-7.4.4-14 6.2-18.8 5.8-4.8 12.2-4.9 19.6-2-2.3-5.7-4.2-11.5.3-15.9 3.2-3.1 7.6-5.9 11.9-6.7 11.3-2.1 16.8 3.8 17.5 18 3.4-.3 6.8-.6 10.5-.9.9-3.9 1.9-7.9 2.7-10.9-4.9-1.2-9.9-1.8-14.2-3.8-2.5-1.2-4.4-4.6-5.5-7.5-2.1-5.4-.1-11.6 3.9-14.6 4.9-3.7 12.7-3.3 18.4.9 5.3 3.9 6.3 8.3 3.5 17.3 2.9-.7 5.5-1.5 8.2-1.8 2.8-.3 5.6-.1 8.4-.1-1.3-11.7 4.4-19 15.6-19.9 10.8-.9 15.9 4.5 16.9 18.2 3.6-.2 7.2-.3 9.8-.4 2.2-5 4.2-9.5 6.2-14 .8-.9 1.7-1.7 2.5-2.6 6.2-3.9 12.8-4.5 20.3-1.3-2.6-7.5-3.2-14.2 4-18.7 6-3.7 12.5-4.1 18.7-.5 6.8 3.9 6.1 10.4 5 16.7h15.8c-.5-5.2-1.6-11.4 3.8-14.8 3.9-2.4 9-4.2 13.5-4.1 10.6.2 14.2 6.2 12.6 19.2h17.3c-1.6-6.7-2.4-14 5.7-18.3 5.4-2.9 13.1-1.6 18.3 2.9 5.7 4.9 5.7 10.9 2.6 17.9 8.1-3.4 15.3-3 21.9 2.6zM109.1 589v15.2c4-.7 8.1-1.5 12.2-2.2v-10.4c-4.6-1-8.8-1.9-12.2-2.6zm11.7-87.5c-4.2-1.2-8.1-2.2-11.6-3.2v14c3.6-.7 7.3-1.5 11.6-2.3v-8.5zm-.4 54.2v-9.9c-3.8-.6-7.3-1.2-10.4-1.7-.3 4.8-.5 9.3-.7 13.7 3.6-.7 7.3-1.4 11.1-2.1zm746.9-114.6c3.8.4 7.2.8 10.2 1.1.6-4.8 1.1-9.1 1.5-13.1-4 .7-7.8 1.4-11.7 2.1v9.9zM544.6 155.6c.7 3.1 1.6 6.6 2.5 10.3h8.5c1.1-4 2.1-7.8 3-11.1-4.6.3-9.1.6-14 .8zm138.2 46.2c.6 3.4 1.2 6.7 1.8 10.2h8.5c.7-3.9 1.4-7.7 2-11.2-4.1.4-8.1.7-12.3 1zM295 866.7c-.9 4.2-1.8 8.3-2.6 12 3.7-.7 8-1.4 12.3-2.2-1.1-9.7-1.1-9.7-9.7-9.8zm170.9-710.9c-4.8-.3-8.9-.5-12.9-.8.7 3.7 1.3 7.2 2 10.7h9c.6-3.5 1.2-6.7 1.9-9.9zm341.9 618.7c-3.4.7-6.1 1.2-9 1.7-.2 3-.4 5.8-.5 8 4.2 1 8 2 11.9 2.9-.8-4.1-1.6-8.2-2.4-12.6zm-67.1 80.1c-.2-1.6-.6-3.3-.7-4.9-.1-1.9 0-3.9 0-5.8-9.9.3-9.4-2-10.5 9.7 3.5.3 7.1.7 11.2 1zM188.6 753.2c-3.1-.4-6.1-.8-8.8-1.2-.5 4.5-.9 8.2-1.3 11.8 3.7-.8 7.2-1.6 11-2.5-.4-2.5-.6-5.1-.9-8.1zm312.8-587.8h7.9c.8-3.5 1.5-6.6 2.2-9.6h-12.3c.8 3.3 1.4 6.3 2.2 9.6zM166.5 363.2c-4.1-.9-7.7-1.7-11.1-2.4.5 4 1 7.9 1.5 12 2.7-.3 5.6-.5 8.8-.9.3-2.9.5-5.7.8-8.7zm-23.9 298.4c-2.9-.6-5.7-1.2-8.4-1.8-.7 4.4-1.4 8.6-2 12.4 3.8-.9 7.5-1.7 11.2-2.6-.2-2.7-.5-5.3-.8-8zm183.2-450.7c.5-3 1-5.6 1.4-8.1-4.1-.7-8-1.4-11.6-2.1.6 3.6 1.3 7.2 1.9 11 2.7-.3 5.4-.5 8.3-.8zM579.9 923c-.4-3.3-.8-6.4-1.1-9.5h-8.3c-.6 3-1.2 5.8-1.8 8.6 3.8.3 7.3.6 11.2.9zm252.6-584.6c-4.1.6-7.4 1.1-11 1.7.4 2.9.8 5.5 1.2 8.2 2.7.5 5.2.9 7.9 1.4.6-4 1.2-7.5 1.9-11.3zm-56.9 468.5c4.4 1 7.8 1.7 11.2 2.5-.8-3.8-1.5-7.3-2.3-11.1-2.2.1-4.6.2-7.4.3-.4 2.8-1 5.5-1.5 8.3zM764 832.5c-.8-3.8-1.6-7.3-2.5-11.3-2.7.4-5.4.9-8.4 1.3v7.5c3.9.9 7.4 1.7 10.9 2.5zM281 853c-.3-2.4-.6-5-1-7.8-2.7-.3-5.3-.5-7.9-.8-.7 3.7-1.4 7-2 10.3 3.9-.6 7.2-1.1 10.9-1.7zM134 431.1v10.2c3.1-.4 5.8-.8 8.5-1.2v-8.4c-2.9-.2-5.6-.4-8.5-.6zm308.1 491.3c-.8-3.3-1.4-6.1-2.1-8.9h-7.2c-.5 3.1-1 5.9-1.6 8.9h10.9zM638 899.1c3.4.3 6.6.5 10.3.8-.4-3.5-.8-6.4-1.2-9.3h-7.5c-.6 2.8-1 5.2-1.6 8.5zM625.8 179c-3.9.2-7.3.3-10.9.5.7 3.3 1.2 5.8 1.8 8.6h7.1c.6-3 1.2-5.7 2-9.1zm250.9 445.9v-10.2c-3.2.5-5.9.9-8.5 1.3v7.2c3 .6 5.7 1.1 8.5 1.7zm-665.8 152c-2.4-.5-4.7-1-7.1-1.5-.7 3.6-1.3 6.8-2 10 3.6-.4 6.8-.7 10.1-1.1-.3-2.6-.6-4.7-1-7.4zM845.2 685v7.3c3.2.4 6.1.8 8.9 1.2-.4-3.5-.8-6.5-1.2-9.7-2.4.4-4.8.8-7.7 1.2zM715.3 234.1c.6-3.1 1.1-6.1 1.7-9.2-3.5.5-6.4.8-9.1 1.2v7.7c2.6 0 4.9.1 7.4.3zM362.8 899.3c3.4-.3 6.4-.5 9.6-.8-.5-2.8-.9-5.3-1.4-7.9h-6.3c-.6 2.9-1.2 5.6-1.9 8.7zm505.4-421.4v7.7c2.7.3 5.1.6 7.8 1 .2-3.2.4-5.9.6-8.7h-8.4zM233.9 799.7c-2.8-.3-5.3-.6-8.2-.9v9.3c3-.7 5.7-1.3 8.2-1.8v-6.6zm151.8-620.4c.7 3.2 1.2 5.9 1.8 8.8h6.4c.6-2.8 1.1-5.4 1.6-7.9-3.2-.3-6.3-.6-9.8-.9zM247.9 830.9c3.4-.3 6.4-.5 9.8-.8-.5-3-1-5.4-1.4-7.8-2.3-.1-4.2-.3-6.3-.4-.7 3-1.4 5.7-2.1 9zM799.6 318v6.6c2.5.4 5 .7 7.7 1.1.2-3 .4-5.7.6-8.6-2.9.3-5.4.6-8.3.9zm-619.1 30.9c2.9-.6 5.4-1.1 7.6-1.5v-6.8H180c.2 2.7.3 5.2.5 8.3zM731 249.7c.1 2.6.3 4.7.4 6.7h6.9c.1-2.6.2-4.9.4-7.8-2.6.4-4.9.7-7.7 1.1zm-429.1-16c.5-2.8.8-5.1 1.3-7.7h-8.4c.2 2.7.4 5.2.6 7.7h6.5zM533.2 922c-.7-3.1-1.2-5.3-1.6-7.5H525c-.3 2.4-.7 4.5-1 6.9 3.1.2 5.8.4 9.2.6zm-55.3-.2c3.2-.2 6-.3 9.1-.5-.5-2.5-.9-4.6-1.3-6.7h-6.5c-.4 2.5-.8 4.7-1.3 7.2zm283.5-649.5h-7.1v6.8h6.7c.1-2.4.2-4.3.4-6.8zm22.2 29.6c.2-2.4.5-4.8.7-7.1-2.9.2-5 .3-7.7.4.2 2.4.5 4.6.7 6.9h4.1c.7 0 1.3-.1 2.2-.2zm85.7 222.5c-.9 6.5.4 7.7 6.5 6.4v-6.4h-6.5zm6.5 45.2c-2.7.7-4.7 1.1-6.7 1.6v5.8c2.4.2 4.4.4 6.7.6v-8zm-740.6 46v8.1c2.5-.6 4.5-1 6.6-1.5v-5.3c-2.1-.4-4-.8-6.6-1.3zm710.9-205.7v5.9c2.2.5 4.3.9 6.7 1.5v-7.8c-2.2.1-4.2.3-6.7.4zM279.4 249.7h-6.1v6.2c2.2-.2 4.1-.3 6.1-.5v-5.7zm-74.9 68.5v6.5h5.7v-5.9c-2.1-.2-3.8-.4-5.7-.6zm-62.9 166.9v-6h-6c.1 2.1.2 4 .3 6h5.7zm16 207.1c2.8-.2 4.9-.4 7.1-.5v-5.8c-1.9-.3-3.7-.5-5.6-.7-.5 2.3-1 4.4-1.5 7zm504.9 183c2.6-.2 4.7-.4 6.9-.5-1-3.9-1.4-7.6-6.3-5.2-.1 1.7-.3 3.3-.6 5.7zm-84.4-692.3c-.4-.5-.7-1-1.1-1.5h-7.3c1.7 2.3 2.8 3.8 3.9 5.3 1.5-1.3 3-2.6 4.5-3.8zm251.3 525.9h-6.2c.1 1.8.2 3.2.4 4.6 2.1.4 3.8.7 5.8 1v-5.6zM256.1 273c-2.1.1-3.7.2-5.6.3.1 1.9.2 3.5.4 5.3 1.9-.1 3.3-.2 4.8-.3.1-1.8.2-3.3.4-5.3zm-23.2 23.2h-5.2v5.3c1.8-.2 3.3-.4 5.2-.6v-4.7zm-96.9 229v5.4c.4.3.8.6 1.3.9l4.5-4.8c-.4-.4-.7-.9-1.1-1.3-1.4 0-2.8-.1-4.7-.2zm-.4 51.2c1.9-.1 3.6-.2 5.3-.2.3-.6.7-1.1 1-1.7-1.5-1.5-3.1-3-5.7-5.4-.3 3.5-.5 5.1-.6 7.3zm510.3-372.1h-5.5v4.7h4.9c.2-1.6.4-2.9.6-4.7zM342.7 869.8v4.4c1.8-.2 3.2-.3 4.6-.4 1.3-4.2-.7-4.8-4.6-4zm89.4-688.4c2 2.3 3.2 3.7 4.4 5.1 1.2-1.4 2.3-2.8 4.2-5.1h-8.6zM158.9 411c-1.2 5 .8 5.8 4.8 4.7V411h-4.8zm206.9-206c-.4.6-.8 1.2-1.1 1.8 1.7 1 3.4 2 5.6 3.3 1.1-6.1-1.7-5.6-4.5-5.1z"/>
  <path class="st2" d="M426.1 150.1c-.8.9-1.7 1.7-2.5 2.6-1.6.6-3.1 1.2-4.7 1.7-5.9 1.9-12.8-1-16.4-6.8-3.3-5.5-2.6-13.2 1.6-17.2 4.4-4.2 12.9-3.9 19 .7 5.8 4.4 7.2 9.9 3.9 16.3-.2.8-.5 1.8-.9 2.7zm159.8 1.5c-.7-1.5-1.4-3-2-4.6-3.6-8.6.3-16.5 9.3-18.5 6.8-1.6 11.8 0 14.7 4.6 3.1 5 2.7 12.2-.9 16.5-3.8 4.5-10.7 6.1-16.5 3.8-1.5-.6-3.1-1.2-4.6-1.8zm342.8 399c.1 7.8-5.7 13.5-13.6 13.7-7.8.2-13.6-5.6-13.6-13.6 0-8.1 5.8-13.2 15.1-13.1 7.3.1 12 5.1 12.1 13zm-242 376.9c-7.8 0-12.8-4.8-12.9-12.3 0-7.9 5.5-13 14-12.9 7.8 0 14 6 13.9 13.5-.1 6.6-6.6 11.7-15 11.7zm242-422.1c0 7.5-5.7 12.8-13.7 12.9-8 0-13.6-5.3-13.5-13 .1-7.8 5.5-12.6 14.3-12.7 7.9 0 12.9 5 12.9 12.8zm-46.5 226.7c.1 8.1-5.2 14.3-12.2 14.5-7.4.2-13.4-6-13.5-13.9-.1-7.7 5.7-13 14.1-12.9 7.1 0 11.6 4.9 11.6 12.3zm-773.6-273c.1 8-5.3 14.2-12.4 14.4-7.1.1-13.3-6.5-13.4-14.3-.1-7.2 5.4-12.3 13.6-12.4 7.2-.2 12.1 4.8 12.2 12.3zm132.9-249.3c.1-8.2 5.6-13.2 14.4-13.2 7.5 0 12.3 4.9 12.1 12.4-.2 7.4-6.8 13.2-15 13.1-7.2 0-11.6-4.7-11.5-12.3zm-76.5 78c7.5 0 12.1 4.5 12.1 11.7 0 7.6-6.7 13.7-15.1 13.6-7.1 0-11.5-4.6-11.5-11.8 0-8.5 5.3-13.5 14.5-13.5zm352.7 671.6c-.5 8.6-6.6 15.6-13.2 15.1-6.9-.5-13-7.5-12.5-14.1.6-7.5 7.4-12.9 15.7-12.4 6.4.3 10.4 4.8 10 11.4zm398.9-375.7c6.5-.1 10.7 4.1 10.8 10.6.1 8.2-5.9 15.8-12.4 15.8-6.7.1-13.3-6.5-13.3-13.3.1-7.4 6.3-13 14.9-13.1zM769.8 243.5l-1.5-1.5c-.7-1.9-1.6-3.7-2.1-5.6-1.7-6.4.7-12.5 5.8-15.2 5.3-2.9 11.8-2.3 15.4 1.4 4 4.1 4.6 12 1.3 17.3-3.1 4.9-8.7 6.7-15 4.8l-3.9-1.2zm44 44.2s.1.1 0 0c-.8-2.6-2-5.3-2.3-8.1-.8-7 1.9-11.4 7.8-13.5 6.5-2.3 12-1.2 15.1 3 3.3 4.6 3.2 11.6-.2 16-3.8 4.9-10.6 6.7-16.3 4.4-1.4-.5-2.7-1.2-4.1-1.8zM83 642.1c0-7.9 5.4-12.8 14.1-12.9 6.8 0 11.5 5.2 11.4 12.5-.1 7.1-6.4 13.1-13.8 13.1-7.2.2-11.8-4.9-11.7-12.7zm34.4 80.9c-7.3 0-11.8-4.8-11.8-12.6s5.5-12.8 14.2-12.9c6.9 0 11.5 4.9 11.4 12.4-.1 7.4-6.1 13.1-13.8 13.1zm774.4-318.9c-7.4 0-12.3-5.2-12.2-13 .1-7.6 5.5-12.1 14.3-12 6.7.1 11.2 4.9 11.2 12.2.1 7.3-5.7 12.8-13.3 12.8zm-432.7 569c-7.5-.1-12-5.2-11.9-13.1.2-7.6 5.4-11.9 14.4-11.7 6.8.2 11.1 5 10.9 12.3 0 7.4-5.8 12.6-13.4 12.5zm92.9-24.5c7.2 0 11.7 4.8 11.6 12.2-.1 7.2-5.7 12.3-13.2 12.1-7.2-.1-12.3-5.3-12.2-12.5.1-7.5 5.1-11.9 13.8-11.8zm203.6-727c-7.4 0-12.5-4.9-12.6-12.1-.1-7.4 5.1-12.1 13.5-12.2 7.2-.1 11.9 4.6 11.9 11.9 0 7.3-5.2 12.4-12.8 12.4zm-490.1-35.1c.3-7.4 6.1-12 14.7-11.5 6.1.3 10.1 5.1 9.8 11.7-.4 7-6.6 12.1-14.3 11.7-6.7-.4-10.5-4.9-10.2-11.9zm637.7 273.6c0-7.6 5.1-12.1 13.5-12 6.3 0 10.6 4.8 10.4 11.5-.2 6.9-6 12.3-13.3 12.2-6.7.1-10.6-4.3-10.6-11.7zm-44.3-160.2c.1 6.9-5.7 12.6-12.9 12.6-6.7 0-10.9-4.5-11-11.7-.1-7.4 4.7-11.9 13-12 6.5-.2 10.8 4.2 10.9 11.1zM153 322.5c.1 7.1-5.5 12.7-12.7 12.9-6.6.1-10.8-4.4-11-11.7-.1-7.7 4.8-12.4 13.3-12.3 6.2 0 10.3 4.4 10.4 11.1zm55.8 536.6c-6.7-.2-11.6-5.9-11.4-13.3.2-6.4 5.9-11.2 13.2-11 6.2.2 10.4 5 10.3 11.8-.1 7.6-5 12.7-12.1 12.5zm-33.9-35c0-7.5 4.8-11.7 13.2-11.7 6.5 0 10.6 4.5 10.5 11.4-.1 7.1-5.8 12.4-13.2 12.3-6.6-.1-10.5-4.6-10.5-12zm45.5 45.1c0-7 4.5-11 12.6-11.1 6.7-.1 11.7 4.9 11.8 11.7.1 6.2-5.7 11.2-13 11.2-7 0-11.3-4.5-11.4-11.8zm149.9-739.6c6.2.1 10.3 4.4 10.3 11.1 0 6.9-5.5 12.2-12.6 12.1-6.7-.1-11.3-5.1-11.1-12.2.2-6.8 5.4-11.1 13.4-11zm522.1 592.1c-6.6.1-11.5-4.5-11.8-11.1-.3-6.8 4.6-11.3 12.4-11.5 6.6-.2 11.2 4.3 11.2 10.8.1 6.6-5 11.6-11.8 11.8zm-727.5 68.6c7-.1 11 3.9 10.9 10.9-.1 6.5-5 11.2-11.8 11.1-6.7 0-11.9-4.6-12-10.4-.2-7.1 4.8-11.6 12.9-11.6zm192.8 147.1c.1 6.8-4.7 11.6-11.6 11.8-7 .2-11.8-4.5-11.8-11.5 0-6.8 5.1-11.2 12.7-11.2 6.4.1 10.7 4.5 10.7 10.9zm558.4-306.5c7.1 0 10.8 3.8 10.8 10.9-.1 6.6-4.9 11.1-11.7 11.1-6.7 0-11.8-4.5-11.9-10.5-.1-7.1 4.7-11.4 12.8-11.5zM483.6 107.4c6.5.1 10.4 3.9 10.4 10.3 0 6.6-5.8 11.6-13.2 11.4-6.2-.2-10.1-4.1-10-10.1 0-7.2 5-11.7 12.8-11.6zm248 89.9c-6.4 0-10.3-3.6-10.4-9.7-.2-7.3 4.9-12.1 12.9-12 6.4.1 10.5 4.1 10.4 10.3-.1 6.5-5.7 11.4-12.9 11.4zm58.7 649.4c.1-6.9 4.7-11 12.2-10.7 5.8.2 11 5.3 11 10.9 0 5.7-6.5 10.8-13.6 10.7-6.1-.1-9.7-4.1-9.6-10.9zM84.5 414.3c.1-6.9 4.6-10.9 12.2-10.8 6 .1 11.1 5 11.1 10.7.1 5.7-6.3 10.9-13.4 10.8-6.1.1-10-4.1-9.9-10.7zm580.9 512.9c6.2-.1 11.6 5 11.7 10.7 0 5.6-6.6 10.8-13.6 10.7-6-.1-9.7-4-9.8-10.3-.1-7.2 4-11 11.7-11.1zm-34.5-786c0-7.2 4.1-10.9 12-10.8 6 0 11.1 4.9 11.3 10.5.1 5.8-6.1 10.8-13.4 10.9-6.3.1-9.9-3.8-9.9-10.6zm-113.8-23c.1-6.9 4.7-10.9 12.3-10.7 6 .2 11 5.1 11 10.9 0 5.8-6.2 10.7-13.5 10.6-6.3 0-9.9-4-9.8-10.8zM413.2 971.3c-6.3 0-10.1-4-10-10.6.1-6.9 4.6-11 12.2-10.9 5.9.1 11.1 5 11.2 10.7.1 5.8-6 10.8-13.4 10.8zM266 892.2c0 6.4-4.6 11-11.2 11s-11.1-4.6-11.2-11.6c0-6.2 5.4-10.5 12.9-10.3 5.8.2 9.5 4.5 9.5 10.9zM835.2 824c0 6.4-4.6 10.8-11.3 10.9-6.8 0-11.1-4.5-11.1-11.5 0-6.1 4.9-10.1 12.5-10.1 6.1-.1 9.9 4 9.9 10.7zm35.7-511c6.1.1 9.6 3.9 9.5 10.3-.1 6.2-4.5 10.4-11 10.4-6.6 0-10.7-4.4-10.6-11.2.1-6.2 4.4-9.6 12.1-9.5zM72.5 538.6c-6.6-.1-10.7-4.5-10.5-11.3.2-6.1 4.6-9.6 12.2-9.5 6.1.1 9.7 4.1 9.5 10.4-.2 6.3-4.8 10.5-11.2 10.4zm524 432.9c-5.8-.1-10.9-5.7-10.7-11.7.2-5.7 5.4-9.9 11.9-9.7 5.4.2 9 4.2 9 10 0 6.4-4.5 11.4-10.2 11.4zM788.7 869c0 6.7-4.2 11.4-10 11.3-5.8-.1-10.5-5-10.6-11.1-.1-5.9 4.5-10.1 11.2-10.2 5.6-.1 9.4 3.9 9.4 10zM83.4 574.1c0 5.9-3.4 10-8.3 10.1-6.4.1-13.6-6.3-13.4-12 .1-4.5 5.6-8.7 11.3-8.7 5.9 0 10.4 4.6 10.4 10.6zm226.8-411.2c0 6.6-4.8 12.2-10.3 12.1-5.6-.1-10.1-4.9-10.1-10.5 0-6.3 4.8-10.8 11.4-10.7 5.8 0 9.1 3.3 9 9.1zm127-54.6c6.1 0 10.4 4.3 10.5 10.4 0 6-3.2 9.9-8.2 10-6.5.1-13.6-6-13.4-11.8-.1-4.5 5.1-8.6 11.1-8.6zM140.8 788.5c-6.2 0-10-4-10.1-10.6-.1-5.6 4.7-9.5 11.7-9.6 5.3 0 8.9 4 8.9 10 .1 6.1-4.2 10.3-10.5 10.2zm707.4 2.8c5.5 0 8.9 3.6 8.9 9.8 0 6.1-4.3 10.4-10.4 10.4-6.1 0-9.9-4.1-10-10.7-.2-5.9 4.2-9.5 11.5-9.5zm-92.5 111.1c-6.4.1-10.3-4.1-10.4-10.9 0-5.4 4.5-9.1 11.5-9.3 5.3-.2 9.1 3.7 9.2 9.7.2 6-4.1 10.4-10.3 10.5zM105.8 687.3c0 6.1-4.3 10.3-10.5 10.3-6.1 0-10-4.1-10-10.7-.1-5.7 4.6-9.5 11.7-9.5 5.4 0 8.8 3.7 8.8 9.9zm457.5-569.7c0-5.7 4.7-9.3 11.9-9.2 5.5.1 8.7 3.8 8.6 10-.1 6-4.6 10.3-10.7 10.1-6-.1-9.8-4.3-9.8-10.9zM108 345.3c0-5.7 4.7-9.4 11.8-9.3 5.3 0 8.8 4.1 8.8 10-.1 5.9-4.6 10.2-10.7 10.1-6-.1-9.8-4.2-9.9-10.8zm808.4 59.6c5.1.1 8 3.2 7.8 8.4-.2 6.2-4.8 11.9-9.6 11.8-4.8-.1-9.7-5.5-9.6-10.5.3-5.7 5.1-9.8 11.4-9.7zm-844 88.3c-4.9-.1-9.7-5.4-9.6-10.5.2-5.6 5.1-9.8 11.4-9.7 5 .1 8 3.3 7.8 8.5-.2 6.3-4.8 11.9-9.6 11.7zm638.9-338.8c5.1 0 8 3 8 8.2-.1 6.2-4.5 11.9-9.3 11.9-4.9 0-9.9-5.2-9.8-10.2 0-5.6 4.9-9.8 11.1-9.9zM287.1 916.1c-.1 5.3-3.7 8.9-8.9 8.8-5.2-.1-10.1-5.2-10.1-10.6.1-4.8 4.4-8.4 10.1-8.3 5.2 0 9 4.4 8.9 10.1zm-215-288c-5.3-.1-8.5-3.5-8.4-9.1.1-5.6 4.3-9.3 10.3-9.1 5.1.2 8.3 3.6 8.3 8.8 0 5.5-4.3 9.5-10.2 9.4zM879 779.3c.1 5.1-2.1 7.9-6.3 8-5.6.2-12.7-5.4-12.8-10.1-.1-4.1 5.4-7.9 11.3-7.8 4.8.2 7.7 3.9 7.8 9.9zm68.2-250c-.1 5-2.4 7.8-6.6 7.7-5.7-.1-12.7-6-12.5-10.6.1-3.8 5.6-7.4 11.3-7.4 5 .1 7.9 3.9 7.8 10.3zm-.3 43.9c.1 5.5-3.8 9.4-9.4 9.5-5.1 0-8.6-3.5-8.8-8.9-.1-5.3 4.1-9.1 10.4-9.1 4.7 0 7.7 3.3 7.8 8.5zM377.8 960.6c0 5.3-3.5 8.8-8.8 8.8-5.4 0-9.4-3.8-9.4-9 0-4.9 4-8.3 9.9-8.4 5.2-.1 8.3 3.2 8.3 8.6zM742 915.2c0 5.4-3.5 8.7-9 8.6-5.3-.1-9.1-3.8-9.1-8.8 0-5 4-8.4 9.9-8.5 5.2-.1 8.3 3.2 8.2 8.7zm164.2-228.1c.1-5 4-8.2 10.1-8.1 5.1.1 8.3 3.6 8 8.9-.2 4.9-4 8.4-8.9 8.4-5.4 0-9.3-4-9.2-9.2zM901.4 346c0 5.4-3.3 8.7-8.7 8.7-5.4 0-9.4-3.8-9.4-8.9 0-4.9 4-8.3 9.9-8.4 5.1 0 8.2 3.1 8.2 8.6zM109.3 756.2c0-5.1 4-8.7 9.6-8.8 4.6-.1 8.4 3.3 8.5 7.5.1 4.7-5.2 9.3-10.7 9.3-4.8 0-7.4-2.8-7.4-8zm290.5-637.9c-.1 5.7-2.8 8.4-8.4 8.2-5.4-.1-8.5-2.9-8.5-7.8 0-4.8 4.1-8.7 9.2-8.7 5 0 7.8 3 7.7 8.3zm243.5 849.6c-5.6-.1-10.4-3.5-10.3-7.4.1-4.1 5.2-8.1 10-8 4.9.1 8.2 3.7 8.1 8.9-.1 4.2-2.9 6.6-7.8 6.5zm-107 15.8c0 5.2-1.8 7.6-5.8 7.7-5.1.1-11.1-4.9-11-9.2.1-3.4 4.8-6.8 9.8-7 4.4-.2 6.9 2.9 7 8.5zM331.4 141.6c0 5-2 7.5-6.1 7.5-4.9 0-10.7-4.8-10.8-8.9-.1-3.6 5-7.3 10.1-7.3 4.3 0 6.9 3.2 6.8 8.7zM490.8 984c0 5-2.1 7.5-6.2 7.4-4.9-.1-10.7-4.9-10.8-8.9-.1-3.6 5.1-7.2 10.2-7.2 4.3-.1 6.8 3.1 6.8 8.7zm136.6-865.3c0 4.9-2.1 7.7-5.9 7.8-5 .1-11-5.1-10.9-9.3.1-3.6 4.6-6.8 9.7-6.9 4.7-.1 7 2.7 7.1 8.4zM946 483c0 4.9-2.1 7.7-5.9 7.7-5 .1-11-5.1-10.8-9.4.1-3.6 4.7-6.7 9.8-6.8 4.6 0 6.9 2.8 6.9 8.5zM72.9 444.7c-5.1-.1-8.2-3.2-8.2-8.1 0-4.3 3.8-7.3 9-7.4 4.7 0 8 3.6 7.9 8.4-.2 4.4-3.7 7.2-8.7 7.1zm30.9-75.2c-.2 3.3-.6 6.9-5.4 7.2-4.8.3-11.1-5-11.1-9.2 0-3.4 3.9-6.3 8.9-6.4 4.7-.1 7.5 2.8 7.6 8.4zm842.3 250.6c-.2 3.2-.6 6.8-5.5 7-4.9.1-11.1-5.1-11-9.3.1-3.4 4.2-6.2 9.1-6.2 4.7 0 7.3 2.8 7.4 8.5zM308.7 938.8c-.3 3.3-.7 6.9-5.6 7-4.9.1-11.1-5.1-11-9.3.1-3.3 4.3-6.2 9.1-6.2s7.5 2.9 7.5 8.5zM186.9 224.7c4.2 0 7.6 3.9 7.5 8.5-.1 4-2.7 6.7-6.6 6.7-4.6.1-9.6-4.6-9.4-8.8.1-3.3 4.3-6.4 8.5-6.4zm-15.3 29.4c.1 4-4.3 8.2-8.7 8.3-3.7.1-6.7-3.2-6.7-7.3-.1-4.4 3.3-7.6 8.1-7.7 4 0 7.2 3 7.3 6.7zm264.5 736.8c-3.7.1-6.7-3.2-6.7-7.3 0-4.4 3.3-7.7 8.1-7.7 4.1-.1 7 2.7 7.1 6.8.1 4-4.1 8.1-8.5 8.2zM76.3 657.3c.9 1.2 3.4 3.3 3.7 5.6.7 4.4-5 9.8-9.1 9.6-3.3-.2-6-4.3-5.9-8.8.1-3.3 4.9-6.6 11.3-6.4zm823.3 95.4c.1 5.6-4.6 10.8-8.6 11-3.5.2-6.6-4.1-6.6-8.7.1-3.3 4.8-6.9 9.4-6.6 3.3.1 5.7 1.7 5.8 4.3zM565.7 982.8c-.1-3.5 4.3-6.8 9.1-6.8 3.4 0 5.9 1.5 6.1 5.3.3 4.6-4.7 10-8.9 10-3.3-.1-6.2-4-6.3-8.5zm114.5-841.5c.1-5.1 2.8-7.7 7.8-7.6 4.5.1 7 2.6 6.8 6.8-.2 4.1-4.2 8-8.2 8.1-4 0-6.5-2.9-6.4-7.3zm-478.1 68.5c.1-5.2 2.5-7.5 7.8-7.5 4.2 0 6.1 2.2 6.1 6.2-.1 4.5-3.8 8.8-7.4 8.7-3.6-.1-6.5-3.5-6.5-7.4zm515.3 728.1c0 4.4-2.5 6.9-6.8 6.9s-7.6-3-7.6-6.9c-.1-4 2.9-6.7 7.2-6.7 4.1 0 7.2 2.9 7.2 6.7zM239.6 187.6c-.2 2.9-.9 5.8-5.3 5.8-4.1-.1-9.3-4.2-9.6-7.6-.2-3 3.5-5.6 8.2-5.7 4.2-.1 6.6 2.3 6.7 7.5zm590.8 44c0 4.5-2.7 7.2-6.8 7.3-4.5.1-5.6-3-5.8-6.6-.2-4.2 2.6-6.9 6.7-7 4.6-.1 5.3 3.1 5.9 6.3zM512.1 95.4c0 4-1.8 6.3-6 6.2-4.2-.1-7.8-3.1-7.4-6.5.5-3.8 2.9-5.9 6.8-6 4.3 0 6.6 2.2 6.6 6.3zM140.4 271.1c4.5-.2 7.4 2.4 7.5 6.1.2 4-1.6 6.4-5.7 6.7-3.8.2-8-3.1-7.8-6.3.3-4 2.9-5.8 6-6.5zM95.9 726.5c4.3.1 6.6 2.4 6.5 6.5-.1 4.1-2.2 6.3-6.3 6-3.8-.3-6.9-2-7.3-6.2-.3-3.2 3.6-6.4 7.1-6.3zM914.1 375c-3.9-.3-5.7-2.6-5.6-6.3.1-3.8 3.6-6.6 7.6-6.3 3.9.3 5.7 2.5 5.5 6.3-.2 3.9-3.4 6.6-7.5 6.3zm22.7 68.4c-3.2-.2-5.4-2-5.4-5.9 0-3.8 3.2-7.1 7.1-6.9 3.7.2 6 2.2 6.1 6 .1 3.7-3.3 6.8-7.8 6.8zm-142.2-234c.5-4.1 4-6.7 8-6.3 4 .4 5.5 2.9 5.2 6.6-.3 3.8-3.8 6.4-7.8 6-4-.5-5.4-3-5.4-6.3zm52.5 39.2c4.5.2 6 2.8 6.1 6.7.1 3.2-.8 5.7-4.6 5.8-3.8.1-8.5-3.4-8.3-6.6.3-4.2 3.6-5.2 6.8-5.9zM466.6 97.8c-1.3 1-3.1 3.3-5.3 3.7-3.9.7-8.3-3.4-7.9-6.7.5-4.2 3.7-5.4 7.2-5.5 4.5-.1 5.3 3.3 6 8.5zm83.3-8.4c5.7.3 7.3 2.6 7.4 6.3.1 3.1-.6 5.7-4.5 5.9-3.7.2-9.2-3.6-8.2-6.4.9-2.6 3.9-4.4 5.3-5.8zm227.3 91.3c6.2-.1 7.5 2.6 7.7 6.1.1 3.1-.7 5.7-4.5 6-3.6.3-9-3.7-8.1-6.5 1-2.6 3.9-4.5 4.9-5.6zM57.4 552.2c-1.8 1.6-3.4 4.1-5.5 4.7-3.5.9-8.3-3.3-8.1-6.5.3-4.4 3.8-5.1 7.1-5.4 4.1-.3 5.4 2.5 6.5 7.2zm288.8-428.6c-3.5.2-5.8-.8-5.8-4.6 0-3.7 2.7-6.4 6.3-6.4 3.8.1 4.7 2.5 4.8 5.7 0 3.6-1.5 5.8-5.3 5.3zM55.3 505.8c.4 3.7-1.9 4.9-5.4 4.9-3.3 0-5.5-1.2-5.5-4.9s2.7-6.1 6.5-6.1c4 0 4.5 2.7 4.4 6.1zm888 158.9c.2 3.9-1.8 5.5-5.4 5.4-3.1-.1-5.6-.9-5.5-4.8.1-3.8 2.5-6.2 6.3-6.2 4-.1 4.5 2.6 4.6 5.6zM255.4 169.1c-3.4.2-5.9-.4-6-4.4-.1-3.7 2.5-6.5 6-6.6 3.7 0 4.9 2.2 4.9 5.5.1 3.4-.8 6-4.9 5.5zm-106.7 655c-3 2.5-4.5 4.6-6.5 5.1-2.8.7-7.4-3.5-6.3-5.6 1.1-2.1 3.8-4.2 6.1-4.6 1.7-.1 3.7 2.7 6.7 5.1zm715.4-543.9c-.4-5.6 1.8-7.6 5.6-7.1 1.9.3 4.7 1.4 5.3 2.8 1.1 2.5-4.4 7.6-7.5 7-1.6-.3-2.8-2.3-3.4-2.7zM626.7 983.4c-3 2.5-4.5 4.7-6.4 5.2-2.8.8-7.4-3.4-6.3-5.6 1.1-2.1 3.8-4.3 6.1-4.6 1.6-.2 3.6 2.6 6.6 5zM325.8 956c.4.4 1.8 1.8 3.3 3.2-2.6 2.3-5.3 4.5-7.9 6.8-1.2-1.6-3.2-3.2-3.3-4.9-.5-4.2 2.3-5.6 7.9-5.1zM74.1 385.9c1.5 1.3 2.9 2.7 4.4 4-2.5 2.3-5.1 4.6-7.6 7-1.2-1.6-3.3-3.1-3.5-4.8-.6-4.1 2.1-5.6 6.7-6.2zm84.3 463.2c-.1-5.9 2.5-7.5 6.1-7 1.9.3 3.5 2.1 5.3 3.2-2.6 2.3-5 4.8-7.9 6.6-.6.3-2.9-2.4-3.5-2.8zm751.2-113.8c-.2-5.9 2.4-7.5 6-7.1 1.9.2 3.6 2 5.3 3-2.5 2.3-4.9 4.9-7.7 6.8-.6.4-3-2.2-3.6-2.7zM672.4 118.5c-3.1 2.5-4.7 4.6-6.6 5-2.9.7-7.4-3.3-6.3-5.5 1.1-2.1 3.8-4.1 6.1-4.4 1.6-.3 3.6 2.4 6.8 4.9zM204.1 894.8c-.5-5.7 1.7-7.7 5.5-7.2 2 .3 3.8 2.1 5.7 3.2-2.6 2.3-5.1 4.7-7.9 6.6-.5.3-2.8-2.1-3.3-2.6zm-16.2-30.9 4.5 3.9c-2.5 2.4-5 4.7-7.5 7.1-1.2-1.6-3.3-3-3.5-4.7-.8-4.1 1.9-5.6 6.5-6.3zm-68.3-569.1c1.5 1.3 3 2.7 4.5 4-2.6 2.3-5.1 4.7-7.7 7-1.2-1.6-3.3-3.1-3.6-4.8-.4-4 2.3-5.5 6.8-6.2zM44.7 598.7c-.3-5.6 1.9-7.6 5.7-7 1.9.3 4.7 1.4 5.3 2.9 1 2.3-4.7 7.6-7.7 6.9-1.6-.3-2.8-2.3-3.3-2.8zM422 95.4c-3.2 2.6-5.5 5.6-6.7 5.2-2.4-.8-4.3-3.3-6.3-5.2 2-1.7 3.8-4.3 6-4.7 1.5-.3 3.7 2.3 7 4.7zm-29.1 882.4c1.4 1.4 2.9 2.7 4.3 4.1-2.5 2.3-5.1 4.6-7.6 6.9-1.2-1.6-3.2-3.1-3.4-4.9-.7-4.2 2.2-5.4 6.7-6.1zM762 164.9c-1.8 1.4-4 4.3-5.3 3.9-2.4-.8-4.3-3.3-6.5-5.1 2-1.6 3.8-4.1 6.1-4.7 3.4-.9 4.7 1.7 5.7 5.9zm-68.3 796.8c-1.8 1.4-4 4.3-5.2 3.9-2.4-.8-4.2-3.3-6.3-5.2 2-1.6 3.7-4.1 6-4.7 3.2-.9 4.6 1.7 5.5 6zm-97.4-859c-2.4-3.5-4.8-5.5-4.8-7.5 0-1.5 3.1-4.2 4.8-4.3 1.7 0 5.1 2.8 5 4-.2 2.4-2.5 4.4-5 7.8zm249.1 749.4c-1.1-1.7-3.5-3.9-3.1-4.9.9-2.1 3.3-3.5 5.1-5.3 1.4 1.5 4 3.2 3.9 4.5-.2 2-2.4 3.9-3.7 5.8-.7 0-1.5 0-2.2-.1zm-23.2 22.1c-.6-1-2.9-3.1-2.5-4.2.8-2 2.9-4.3 5-4.9 2.6-.8 4.2 1.3 4.1 4.2-.2 3.2-1.9 4.8-6.6 4.9zM48.5 465.1c-1.1-1.7-3.4-4-2.9-5 .9-2 3.2-3.8 5.3-4.8.6-.3 3.9 2.8 3.7 3.8-.5 2.2-2.4 4.1-3.8 6.2-.8 0-1.5-.1-2.3-.2zm188.3 448.2c-.1 4.8-1.9 6.3-5.1 6.4-2.9 0-4.9-1.7-4-4.2.7-2 3.1-4 5.1-4.8 1.1-.5 3.2 1.9 4 2.6zm729.3-361.7c-1.9 1.3-3.7 3.4-5.7 3.5-1.4.1-3-2.4-4.5-3.8 1.7-1.7 3.1-4.1 5.2-5 1.1-.4 3.2 1.8 4.9 2.9 0 .9 0 1.6.1 2.4zM276.2 146.2c-1-1.6-2.9-3.2-2.9-4.8-.1-3 2-5.2 5.2-4.6 1.4.3 3.6 2.7 3.4 3.6-.5 2.2-2.3 4-3.6 6-.7 0-1.4-.1-2.1-.2zM74.1 705c1.1 1.5 3.3 3.4 2.9 4.5-.6 2-2.5 4-4.4 4.9-.7.4-4.2-2.4-4.1-3.4.3-2.2 2.2-4.1 3.4-6.1.8 0 1.5.1 2.2.1zm888-204.8c1 1.6 3.1 3.5 2.7 4.6-.7 2-2.6 3.9-4.5 4.8-.6.3-4.1-2.5-3.9-3.6.4-2.1 2.3-4 3.5-6 .7.1 1.5.1 2.2.2zM806.5 892.9c-1.9 1.3-3.7 3.3-5.8 3.7-1 .2-4-3.2-3.7-3.7.9-1.9 2.7-3.9 4.7-4.7 1.1-.4 3.1 1.6 4.7 2.5 0 .7.1 1.4.1 2.2zm91.2-592.1c-1.9 1.4-3.7 3.3-5.9 3.9-.9.3-3.4-2-3.7-3.4-.6-3 1.2-5.4 4.4-5.2 1.7.1 3.3 1.7 4.9 2.7.1.7.2 1.3.3 2zm39.9 96.9c-1.9-3-4-4.8-3.9-6.4.1-1.4 2.8-3.9 4-3.8 1.7.3 4.3 2.4 4.4 4 .2 1.5-2.2 3.2-4.5 6.2zm28.1 199.6c-1.7 1.1-3.6 3.2-5.1 3-1.6-.2-3-2.7-4.4-4.2 1.5-1.3 2.9-3.6 4.4-3.7 1.6-.1 3.4 1.8 5.2 2.9-.1.7-.1 1.3-.1 2zM100.8 323.8c-1.7 1.2-3.5 3.3-5.1 3.2-1.6-.1-3-2.5-4.6-3.9 1.4-1.4 2.6-3.7 4.1-3.9 1.7-.1 3.6 1.6 5.4 2.6.2.8.2 1.4.2 2zM118.3 795c2.1 2.9 4.3 4.6 4.2 6.2 0 1.4-2.5 4-3.7 3.9-1.7-.2-4.3-2.1-4.6-3.7-.3-1.4 2-3.3 4.1-6.4zM56.6 642.2c-3.2 1.8-5.1 3.9-6.7 3.6-1.6-.3-2.8-2.8-4.2-4.3 1.6-1.2 3.2-3.3 5-3.4 1.4-.2 3 2 5.9 4.1zm448.9 369.5c-2-2.4-4.3-3.9-4.2-5.3.1-1.5 2.6-4.1 3.8-3.9 1.7.2 4 2.2 4.5 3.9.3.9-2.2 2.8-4.1 5.3zm364-193.4c2 2.6 3.9 4.1 4.3 5.9.2.9-2.6 3.6-3.7 3.4-1.8-.3-4.1-2-4.7-3.6-.3-1.1 2.1-3.1 4.1-5.7zm-90.7 91.1c1.9 2.7 4.2 4.4 3.9 5.8-.3 1.5-2.8 3.6-4.3 3.6-1.4 0-3.8-2.4-3.9-3.9-.1-1.4 2.2-3 4.3-5.5zM259.3 939c-1.5.8-3 2.4-4.6 2.3-1.2 0-2.5-1.8-3.7-2.8 1.5-1.5 2.7-3.5 4.5-4.4.6-.3 2.5 1.8 3.8 2.8v2.1zm478-796.6c-1.6.8-3.2 2.2-4.7 2.1-1.2-.1-2.4-1.9-3.6-2.9 1.5-1.5 2.8-3.4 4.7-4.2.6-.3 2.5 1.9 3.8 3-.1.7-.2 1.3-.2 2zm-274.6 867.5c-2.1-.5-4.3-.6-6.1-1.6-.5-.3-.3-3.5.5-4.3 1-1.1 4.1-1.9 4.6-1.4 1.3 1.5 1.6 3.8 2.4 5.8-.5.5-.9 1-1.4 1.5zm90.9.1c-2-.5-4.3-.7-6-1.7-.5-.3-.3-3.4.6-4.3 1-1 4.2-1.8 4.5-1.3 1.2 1.6 1.5 3.8 2.2 5.8-.4.5-.8 1-1.3 1.5zm344.1-208.5c-2.7 1.5-4.3 3.1-5.7 3-1.2-.1-2.3-2.2-3.4-3.4 1.4-1.2 2.6-3 4.2-3.3 1-.1 2.4 1.8 4.9 3.7zM368.8 100.7c-1.8-2.3-3.9-3.8-3.6-4.8.4-1.5 2.2-3.1 3.7-3.5.9-.2 3.3 2 3.3 3-.1 1.5-1.8 2.9-3.4 5.3zm574.5 609.7c-2.7 1.6-4.3 3.2-5.7 3.1-1.2-.1-2.3-2.1-3.4-3.3 1.3-1.2 2.5-3 4.1-3.3 1-.2 2.5 1.6 5 3.5zM346.2 978.1c1.7 2.6 3.4 4.2 3.1 5.2-.5 1.5-2.2 3.1-3.7 3.5-.8.2-3.1-2.1-3.1-3.3.1-1.5 1.9-2.8 3.7-5.4zM966.1 460c-2.8 1.7-4.4 3.3-5.8 3.2-1.2-.1-2.3-2.2-3.4-3.4 1.3-1.2 2.5-2.9 4.1-3.2 1-.2 2.4 1.6 5.1 3.4zm-305 523.7c1.1-1.3 2.1-2.6 3.2-3.9.5.1 1.1.2 1.6.3.1 1.9.2 3.8.4 5.6l-4.8-.3c-.1-.5-.2-1.1-.4-1.7zM642.4 99.3c-1.5-1.7-3.1-2.9-3-3.7.2-1 1.7-2.3 2.9-2.6.7-.2 2.5 1.4 2.5 2.3 0 1-1.3 2.1-2.4 4zm267.8 225.1c2.5-2.1 3.8-3.2 5-4.2.7.8 1.8 1.6 2 2.6.2 1-.5 3.1-.7 3.1-1.6-.2-3.2-.7-6.3-1.5zM50.4 410.3c1.2 1.9 2.4 3 2.4 4.1 0 .8-1.8 2.4-2.5 2.2-1.1-.2-2.8-1.5-2.9-2.5 0-.9 1.6-2 3-3.8zm706.9 524.4v5.6c-1.3-.3-2.7-.5-4-.8.4-1.8.8-3.5 1.3-5.3.9.3 1.8.4 2.7.5zM50.2 683.4c1.3 1.9 2.6 2.9 2.7 4 .1.8-1.6 2.4-2.3 2.3-1.2-.2-2.9-1.3-3-2.3-.2-.9 1.3-2.1 2.6-4zm368.5 322.5c-2.2 1.4-3.3 2.5-4.3 2.5s-1.9-1.3-2.9-2c.9-1 1.7-2.6 2.7-2.9 1-.2 2.3 1.1 4.5 2.4zm291.4-891.6c1.5 1.9 2.8 2.8 3 3.9.1.7-1.5 2.4-2.2 2.4-1.1-.1-2.8-1.2-3-2.1-.3-1 1-2.2 2.2-4.2zm-428 846.9c-2.4.9-3.7 1.8-4.8 1.6-.9-.1-1.5-1.6-2.3-2.5 1.1-.8 2.1-2.3 3.2-2.3 1 0 2 1.5 3.9 3.2zM526.8 77c-.5-1.4-1.5-2.8-1.3-4 .2-1.1 1.7-2.4 2.8-2.7.7-.2 2.5 1.2 2.6 2.1.1 1-1.1 2.2-1.7 3.3-.8.4-1.6.8-2.4 1.3zm-44.2-8.1c1.4 1.8 2.7 2.8 2.8 3.9.1.7-1.6 2.4-2.4 2.3-1.1-.1-2.9-1.2-3.1-2.2-.1-.9 1.4-2.1 2.7-4zM99.5 780.4c-1.2.3-2.6 1.2-3.7.9-1.2-.3-2.3-1.5-3.4-2.3 1-1.2 1.7-3 3-3.5 1-.4 2.6.9 4 1.4 0 1.2.1 2.3.1 3.5zM77.2 345.9c-2.1 1.3-3.2 2.4-4.3 2.4-.9 0-1.8-1.4-2.7-2.2.9-1 1.7-2.5 2.8-2.7.9-.1 2.1 1.2 4.2 2.5zm883.3 292c1.5 1.8 2.8 2.7 3 3.9.1.7-1.5 2.4-2.3 2.4-1.1-.1-2.9-1.2-3.1-2.1-.2-1 1.2-2.3 2.4-4.2zm-364.4 364.3c1.6 1.7 2.9 2.6 3.2 3.7.2.7-1.4 2.5-2.2 2.5-1.1 0-3-1.1-3.2-2-.2-1 1.1-2.3 2.2-4.2z"/>
</svg>