<svg version="1.1" id="Layer_1" xmlns="http://www.w3.org/2000/svg" x="0" y="0" viewBox="0 0 1000 1100" xml:space="preserve">
  <style>
    .st0{fill:#e4e6e7}.st2{fill:#cacdcf}
  </style>
  <path class="st0" d="M560.9 729.9c-2.5-1.2-5-3-7.6-3.5-6.1-1.1-11.7-3.3-16.9-6.8-1.8-1.2-4-1.8-6.1-2.4-.5-.1-1.3.7-1.9 1 .5.6 1 1.3 1.6 1.7.7.4 1.5.5 2.6.9-1.6 2.6-3.3 1.9-5.1 1.1-3.8-1.7-4.4-1.3-5.4 2.8-.3 1.3-1.4 2.5-2.3 3.6-1.3 1.6-1.1 2.6.7 3.8 2.2 1.5 4.2 3.3 6.4 4.9.6.4 1.5.4 2.3.5 4.2.4 8.5.2 12.5 1.3 10.3 2.9 13.3 15.2 5.9 23.1-5.5 5.8-12.7 7.4-20.2 8.1-.6.1-1.2-.6-1.8-.8-1.2-.4-2.5-1.2-3.6-1-3.7.7-6-1.7-8.2-4-.6-.7-1-1.9-.9-2.9.1-2.8-1.6-3.9-3.9-4.6-.1.9-.2 1.7-.5 3.2-1.4-1-2.6-1.7-3.6-2.6-1.4-1.2-2.5-2.8-4-3.8-3.3-2.1-5.9-1.1-6.9 2.8-.8 3.3-1.2 6.8-1.5 10.3-.2 3-1.2 5.1-3.8 6.7-1.5.9-2.9 2.6-3.5 4.3-1 2.7-2.2 4.5-5.3 4.3-.1 1.1-.2 2-.3 2.8-.4 3.3-1.8 4-4.4 2.1-1.3-1-2.3-2.3-3.5-3.4-3.5 4.2-3.6 6.8 2.8 8.6 3.5 1 5.2 2.8 4.8 6-1.1-.5-2.2-.9-3.2-1.3-.5-.3-.9-.5-1.4-.8-3.6-2.6-7.1-5.3-10.7-7.8-1.4-1-2.2-.2-2 1.4.1 1 .6 2.1.7 3.1.1.8.3 2.1-.1 2.5-1.6 1.2-1.1 2.8-1.1 4.4 0 2.5-.2 5-.2 7.4.1 3.5.4 6.9.4 10.4 0 3.1.3 6.2-.3 9.2-1.2 6.6-2.9 13.2-4.4 19.7-.9 4.3 0 8 3.2 11.2 1.1 1.1 1.8 3.4 1.6 5-.4 3.9-1.5 7.6-2.3 11.5-.5 2.2-1.2 4.4-3.7 5-2.4.5-3.8-1.1-5.1-2.9-4.2-5.5-6.3-12-7.5-18.6-1.8-9.5-2.7-19.2-4-28.9-.1-1-.1-2.2.2-3.1 3.6-9.1 1.3-17.4-3.2-25.8-.7 1.3-1.2 2.5-1.9 3.3-.5.5-1.7 1-2.2.7-.5-.3-1-1.6-.9-2.2 1.1-4.5 2.5-8.9 3.7-13.3.3-1.1.7-2.6.3-3.3-.8-1.3-2-2.5-3.4-3.1-.6-.2-2.1 1.1-2.7 2.1-.8 1.4-1.1 3.2-1.8 4.7-.5 1-1.3 1.7-2.5 3.1-.6-2.4-.8-4-1.3-5.4-.3-.7-1.1-1.2-1.6-1.8-.5.7-1.3 1.4-1.3 2.1 0 1.1.3 2.3.8 3.2 1.1 2 1.7 3.8.8 6.1-.3.7-.1 1.7 0 2.6.1 2 .4 3.9.4 5.8 0 .7-.7 1.4-1.2 2.1-.7-.5-1.7-.8-2-1.4-1.2-2.3-1.2-4.7-.1-7.2.4-.7.9-1.7.7-2.4-.8-2.6-1.9-5-3.6-7.7-.6 1.9-1.1 3.9-1.8 5.8-.4 1.1-1.2 2.1-1.9 3-.4.5-1.1.7-1.3 1.2-1.8 3.4-4.2 6.2-7.4 8.3-1 .6-1 3.1-1.2 4.7-.3 2.9-2.4 5.8-4.9 6.1 4.5-14.3 10.7-28.1 11.4-43.3-.3-.1-.6-.3-.9-.4-.7 1.4-1.4 2.8-2 4.2-.6 1.3-1.2 2.6-2 3.7-.4.5-1.2.6-1.9.9-.3-.8-.9-1.6-.8-2.3 0-.7.6-1.4 1.1-2 1.5-2 1.2-3.8-1.1-4.3-2.1-.4-2.4-1.5-2.5-3.2-.1-2.3-.4-4.6-.7-6.9-.4-2.5-1.7-3.3-4-2.7-.6.2-1.2.4-1.7.6-3.6 1.3-3.6 1.3-4.7-2.6-.4.8-.8 1.3-1 1.9-3 6.7-5.9 13.4-8.9 20.1-.6 1.3-.9 2.3.4 3.5.8.8.9 2.3 1.4 3.4-1.3.2-2.8 1-4 .6-1.8-.6-2.9-.1-4.3 1.1-14 12.3-24.9 27.4-35.9 42.3-7.2 9.8-14.5 19.6-21.8 29.4-1.2 1.5-2.6 2.9-3.9 4.3-.3-.2-.5-.4-.8-.6.9-1.7 1.6-3.6 2.7-5.2 6-8.5 11.9-17 18.1-25.2 7.8-10.3 15.7-20.4 23.8-30.5 2.6-3.2 4.5-6.6 5.4-10.7.4-1.8 1.7-3.3 2.6-5 2.1-3.8 4.4-7.6 6.2-11.5 1.4-2.9 2.7-5.2 5.9-6.4 2-.7 3.7-2.5 5.2-4.1 1.4-1.5 1.7-3.6.4-5.7-3.3 1.3-4.7 5.6-9.2 5.4.8-1.4 1.7-2.8 2.4-4.2.5-1.2.8-2.6 1.1-3.9-1.2.6-2.4 1.1-3.5 1.8-.6.4-1.1 1.2-1.6 1.7-1.6 1.5-3.1 1.8-4.6-.2-6.8-9.1-20-7.9-26.6-2.6-3.4 2.7-5.9 2-8.6-2.6 2.2-.7 4.3-1.6 6.5-2.1 3.3-.8 6.8-1.3 10.1-1.9 1.5-.3 2.7-1.1 2.4-3.3-.7.8-1.2 1.4-2.2 2.4-.5-1.3-1.2-2.2-1.3-3.2 0-.3 1.2-.8 2-1.4-1.8-1.6-3.9-2-6.1-1.6.1 1.1.4 2.1.3 3 0 .2-1.4.7-1.5.5-.7-.7-1.1-1.7-1.7-2.7-.8.6-1.9 1.4-2.9 2.1-1.6 1.1-3.2 1.4-5.1.7-1.4-.4-3 0-4.5 0-1.2 0-2.3 0-3.5-.1v-.7c1.7-1.4 3.6-2.6 5.2-4.1 1.4-1.3 2.3-3 .6-4.9-1.7-1.9-5.8-3-7-1.7-.5.6-.6 1.9-.5 2.9.7 7.1-1.2 13.1-6.6 17.6-6.4 5.3-17.9 5.1-24.3-.3-2.5-2.1-4.4-4.5-3.9-8.2.1-.9-.4-1.9-.7-2.8-.6-1.6-1.3-3.1-2-4.7.2-.3.4-.7.6-1-4.1 0-8.1 0-12.2.2s-8.2.6-12.2.9c-.1-.4-.2-.8-.2-1.1.8-.4 1.6-1.1 2.5-1.2 6.4-1.1 12.8-2.3 19.3-3.1 2-.3 3.6-.9 4.7-2.7 3.6-5.8 8.8-8.7 15.5-8.9.9 0 1.8-.4 2.7-.6 1.8-.4 3.8-1.9 4.7 1.3.1.3.7.5 1.1.7 2.1 1.1 4.3 2.3 6.4 3.4.7.3 2 .6 2.2.2.5-.6.9-1.9.6-2.6-.6-1.3-1.7-2.4-2.8-4-.7 1.4-.9 2.2-1.4 2.8-.3.4-1.1.7-1.5.6-.4-.1-1-.8-1-1.3 0-1.5-.5-2-2-2-.7 0-1.8-.8-1.9-1.5-.4-2-1.7-2.3-3.2-2.3-1.9.1-3.8.4-5.6.4-1 0-1.9-.7-2.9-1 .6-.9 1.1-1.8 1.7-2.6.2-.3.5-.4.8-.7-1.7-.8-2.8-.6-3.8 1-.7 1-1 2.3-1.8 3.2-.8.9-1.9 1.7-3 2.2-.5.2-1.6-.3-1.9-.8-.2-.4.2-1.4.6-2 .5-.7 1.4-1 2-1.6 1.7-1.5 1.7-2.7-.4-3.5-1.8-.7-3.9-1.2-5.7-1-6.6.8-13.1 2-19.6 2.8-4.1.5-8.2.6-12.3.7-1.3 0-2.7-.7-4.6-1.3 6.4-5.7 12.3-10.9 18.5-16.4-.7-1.2-2-2.6-2.3-4.3-.2-1 1-2.9 2-3.4 1.4-.7 3.2-.6 4.8-.5.7.1 1.7.9 2 1.6.2.6-.4 1.6-.8 2.2-.5.7-1.1 1.2-1.7 1.8.1.2.1.5.2.7.8 0 1.9.3 2.4-.1 2-1.9 4.1-3.7 4.1-7 0-.7.5-1.9 1-2 3.7-1.1 7.4-1.9 11.3-2.9-1.2-2.7-3.3-4-5.8-4.8-3.5-1.1-7-2.3-10.6-3.3-3.3-.9-5-3.2-6-6.4-.3-1-.6-2.1-1.1-3-.3-.6-.9-1.4-1.2-1.4-.7.1-1.6.6-2 1.2-1.3 2-3.2 2.7-5.1 1.7-1.5-.8-2.2-4.2-1.3-6 1.7-3.2 3.4-3.7 6.3-1.6.5.3 1.1.4 1.6.6.2-.2.5-.3.7-.5-.8-1.5-1.3-3.3-2.4-4.5-2.3-2.6-4.8-4.9-7.2-7.3-1.7-1.7-2.2-3.4-1.2-5.7 1.3-3.3.8-6.4-1.7-9.1-1.9-2.1-3.9-4.1-5.4-6.5-1.4-2-2.5-4.3-3.2-6.6-1-3.3.5-5.2 3.8-5.2 2.3 0 4.6.5 6.9.8 3.1.4 6.1 1.1 9.2 1.3 4.5.3 6.7-1.6 7.7-6.1.5-2.4 1.5-4.8 1.6-7.2.1-1.9-.3-4.2-1.3-5.8-2.3-4.2-2.5-8.1.1-12 2.8-4.1 6.7-5.7 11.4-5.1 3.6.4 6.2 2.7 7 6.5 1 4.9 1 9.8-2.5 14.1 1.7.7 3.9 1.1 2.7 3.9-.1.2.2.7.4.9 4.4 4.1 6.7 9.4 8.2 15.1 4.4-.9 5.3-.4 6.7 3.3-1.1.1-2.2.3-3.3.4.7 2.2 2.8 3.4 5.2 2.3 1.6-.7 2.8-2.4 4.3-3.6.9-.7 2-2 2.8-1.9 2.1.3 3.3-.7 4.7-2 3.5-3.1 8.7-5 13.7-.1 2.8 2.7 5.5 5.5 8.3 8.1 1.2 1.2 3 2.9 4.4 1.3.9-.9 1-3.4.5-4.9-.9-2.5-2.5-4.7-3.8-7-.7-1.3-1.8-2.5-2.2-3.9-.3-1-.1-2.6.5-3.3.4-.5 2.2-.5 2.9 0 1.9 1.1 3.5 2.6 5.2 3.9 1.8 1.5 3.5 3.2 5.5 4.5 1.4.9 3.2 1.2 4.9 1.7.2-.3.4-.5.5-.8-.8-1.6-1.6-3.2-2.3-4.9-.7-1.7-1.3-3.4-1.9-5.1.3-.3.6-.6.9-.8 3.3 2.6 6.5 5.2 10 7.9.6-1.3 1.1-2.4 2-4.1 1.9 2.2 3.5 4.1 5.1 6.1.3.4.3 1.1.7 1.4 1 .7 2.1 1.3 3.1 2 .1-1.1.5-2.2.4-3.3-.3-2.3-.8-4.6-1.2-6.8-.5-2.3.4-4 2.4-5.1 1.6-.9 3.1-1.8 4.7-2.8 3.4-2.3 6.8-4.7 10.3-6.9 1.7-1.1 3.5-1.8 5.2-2.9 4.6-2.8 9.4-5.2 13.5-8.5 4.5-3.7 9.8-4.8 14.7-3.9 3.7.7 4.6-.9 6.1-3 1-1.4 2.1-2.8 3.3-4 2.2-2.3 3.9-2.5 6-.2 2.3 2.6 4.6 1.7 7 1 1.8-.5 3.4-1.6 5.1-2.4 2.6-1.3 4.7-.8 6.9 1.6 1.8 2 .8 3.6-.1 5.6-2.1 4.2-3 8.6-1.3 13.4.5 1.4-.1 3.1-.1 4.7 0 1.4.2 2.7.3 4.1.3 0 .5.1.8.1.6-1.4 1.2-2.7 1.9-4.1.8-1.8 2.2-3 4.1-2.4 1 .3 2.1 1.4 2.6 2.5.8 1.8.1 3.5-1.5 4.6-1 .7-2.1 1.4-3.2 2.1 2.2 1.4 3.8 1.1 4.9-1 .7-1.4 1.3-2.9 2-4.3 1.5-2.9 4.1-4.1 6.8-3.2 2.5.8 3.7 2.9 3.5 6.4-.2 3.1-.6 6.1-.9 9.3 1 .2 1.6.2 2.2.4 1.5.5 2.2 1.3 1 2.9-.5.6-1.1 1.3-1.1 2 0 1 .4 2 .6 2.9.8-.3 1.7-.3 2.2-.8 3.2-3.3 6.3-6.8 9.5-10.1.9-1 2.3-1.4 3.5-2.2.6 1.4 1.5 2.7 1.8 4.2.4 2 .4 4 .6 6.3h6.1c2.8.1 5.3.9 7.4 3.2 2.5 2.7 5.2 2.4 6.3-1.2 1.2-4 1.7-8.3 2-12.5.6-6.7-2.3-12.7-3.8-19-.5-2.1-.9-4.3-1.5-6.8 2.5.2 3.3 1.6 4 3.4.5 1.3 1.4 2.4 2.1 3.6.7 1.3 1.8 2.6 2 4 .5 3.6 1.3 7.4-.6 10.9-.4.7-.2 1.7-.3 2.5.2.2.5.3.7.5.7-.8 1.6-1.5 2-2.4 1-2.6 1.8-5.4 2.7-8 .4-1.1 1-2.1 1.8-3.9 1.2 1.9 1.9 3.1 2.8 4.5.8-.1 1.8-.3 2.8-.4 5-.6 8.7 1.9 9.1 6.3.5 4.9-2.9 9.6-7.5 10.1-2.2.3-4.5.3-6.7.6-3.9.6-6.8 2.2-7.6 6.9-1 6.5-3.8 12.3-7.9 17.4-1.2 1.6-2.6 3.2-3.2 5.1-.6 1.9-1.1 4.3-.6 6.1 1 3.5 2.7 6.7 4.3 10 .8 1.7 2.3 1.2 3.6.7 1.4-.5 3.2-1.9 4.2-1.5 2 .9 3.8 2.6 5.1 4.3.6.8.1 2.6.1 3.9v3.2c.9-.3 2-.5 2.7-1.1 2.1-1.8 4.5-1.7 6.8-1 6.8 1.9 10.5 7.5 10.1 14.9-.3 6.1-4.9 11.4-11.2 11.3-4.6 0-8 1.2-11.4 4.3-3.3 3-5.5 2.4-8.9-.6-1-.9-2.3-2.8-3.6-1.2-1.3 1.6.6 2.8 1.6 3.5 3.2 2.1 6.4 4.3 9.9 5.7 10.7 4.2 20.7 9.5 29.9 16.8 6.1 4.8 9.5 4.4 15.4-.7 4.4-3.8 12.4-2.5 15.7 2.4 3.3 5 4.5 9.9 1.4 15.4-.3.6.3 1.6.4 2.5.1.7.2 1.3.2 1.4-3.7.1-7.2.7-10.6.3-4.2-.4-8.2-2-10.9-5.8-1.4-1.9-2.5-4.1-4-5.9-.9-.9-2.4-1.8-3.7-2.8-.1 0 0 0 0 0zm-258.9-54c-1-2.1-2.1-4.3-3-6.5-1.4-3.5-2.2-7.3-3.9-10.7-2.5-5.1-5.8-9.7-12.3-9-2 .2-5 1.1-5.4 2.4-.8 2.2-.7 5.6.5 7.6 2.3 3.7 5.7 6.8 8.6 10.1 1.1-.6 1.9-1.1 3.1-1.7 0 1.2.3 2 0 2.6-1.1 2.8-.3 4.5 2.6 4.8 3.2.2 6.4.2 9.8.4zm5.9 4.7c-.8 3.7-.8 3.7-4.4 2.6-.1 0-.2-.1-.2-.1-1.7.7-3.6 1.2-5.2 2.1-.5.3-1 2.1-.9 2.1 1.5.9 3 2.1 4.7 2.3 2.8.3 5.6.2 8.4-.1.9-.1 1.9-.8 2.4-1.6.2-.3-.6-1.5-1-2.2l-2.4-3.6c-.5-.3-.9-.8-1.4-1.5zm19.9-41.4c-7.3.2-13.8-3.8-21-2.2 2.3 3 5.1 4.3 8.4 5.2 2.4.7 3.7.9 3.8-1.9 3-.4 6 5.3 8.8-1.1zM398 747.8c1.5-.1 3 .1 4.2-.4 1.9-.8 1.3-2.7.7-4.1-.7-1.6-1.7-.8-2.7 0-.5.3-1.9.2-2 0-.8-2.8-2.2-1.5-3.5-.6-.8.6-1.8 1.1-2.4 1.8-.5.5-.9 1.5-.7 2.2.2.7 1 1.2 1.6 1.9.5-.6 1-1.1 1.4-1.7.2-.3.2-.9.5-1.2.4-.4 1-.9 1.6-1 .3 0 .8.7 1 1.2.2.4.1 1 .3 1.9zm-54.3-109.5c-1.5-1.2-2.6-2.6-4-3-1-.3-2.4.5-3.7.8.4 1.1.4 2.5 1.1 3.2 2.2 1.8 4.1.3 6.6-1zM323 676.9c.2-.4.3-.8.5-1.2-1.3-.9-2.6-1.9-3.8-2.8-.3.1-.5.3-.8.4.1.9-.1 2.3.3 2.5 1.1.6 2.5.8 3.8 1.1zm421.1-485.1c-1 1.8-2.4 3.5-2.9 5.4-1.1 4.5-3 8.4-5.8 12.1-1 1.3-1.5 2.9-2.1 4.4-.1.4.4 1 .7 1.4.4-.4 1-.7 1.3-1.1.3-.5.5-1.1.8-1.9 1.8 1.3 1.2 2.5.6 3.8-1.5 2.7-1.2 3.2 1.8 4.1 1 .3 1.8 1.2 2.6 1.9 1.1 1 1.9.9 2.8-.3 1.2-1.6 2.7-2.9 3.9-4.4.4-.4.4-1.1.5-1.7.5-3 .6-6.2 1.6-9.1 2.6-7.4 11.8-9 17.2-3.2 4 4.3 4.8 9.7 4.9 15.2 0 .4-.5.9-.7 1.3-.4.9-1 1.8-.9 2.6.3 2.8-1.5 4.3-3.3 5.9-.5.4-1.4.6-2.2.5-2.1-.2-2.9 1-3.6 2.7.7.1 1.2.3 2.3.5-.8 1-1.4 1.8-2.1 2.5-.9.9-2.2 1.7-3 2.7-1.7 2.3-1.1 4.3 1.7 5.2 2.4.7 4.9 1.2 7.5 1.6 2.2.3 3.7 1.1 4.7 3.1.6 1.2 1.8 2.3 3 2.8 1.9.9 3.2 1.8 2.9 4.1.8.1 1.4.2 2.1.3 2.4.5 2.9 1.5 1.3 3.4-.8.9-1.8 1.6-2.7 2.4 2.9 2.8 4.8 3 6.4-1.7.9-2.6 2.3-3.7 4.6-3.3-.4.8-.8 1.5-1.1 2.3-.2.3-.4.7-.7 1-2.1 2.5-4.2 4.9-6.3 7.4-.8 1-.3 1.6.9 1.5.8 0 1.5-.3 2.3-.4.6 0 1.6-.1 1.8.2.8 1.2 2 .9 3.2 1 1.8.1 3.6.4 5.4.5 2.5.1 5.1.1 7.6.2 2.3.1 4.6.1 6.7.7 4.8 1.2 9.5 2.8 14.3 4.2 3.1.9 5.9.4 8.4-1.8.9-.7 2.6-1.1 3.7-.9 2.8.5 5.5 1.5 8.3 2.3 1.6.5 3.2 1.1 3.4 3 .3 1.8-1 2.7-2.4 3.6-4.2 2.8-9.1 4-14 4.6-7.1.8-14.2 1-21.4 1.5-.8 0-1.6 0-2.3-.3-6.5-3.1-12.7-1.9-19.1 1 .9.6 1.7 1 2.3 1.6.4.4.6 1.3.4 1.6-.2.4-1.2.7-1.7.5-3.2-1.1-6.4-2.3-9.6-3.4-.8-.3-1.8-.7-2.4-.4-1 .5-2 1.4-2.4 2.3-.2.4.7 1.6 1.4 2.1 1 .7 2.3 1 3.3 1.6.7.4 1.2 1.1 2.2 2-1.8.3-2.9.4-4 .7-.5.2-.9.7-1.4 1.1.5.4.9 1 1.5 1.1.8.1 1.7-.1 2.4-.4 1.5-.7 2.9-1.1 4.5-.3.5.3 1.3.1 1.9.1 1.4 0 2.9-.1 4.3 0 .5 0 1 .6 1.5 1-.4.5-.6 1.2-1.1 1.4-1.8.8-3.5.6-5.3-.3-.5-.3-1.2-.7-1.7-.6-1.9.5-3.8 1.2-5.8 2.3 1.4.5 2.8 1 4.2 1.6.8.4 1.4 1 2.1 1.6.3.3.5.8.8 1 2.4 1.5 4.3 3.4 5.7 5.9.4.7 2.2.9 3.4 1.1 2.1.4 4.1 2.1 4.2 3.9-10.3-4-20.1-9.3-31.2-10.5-.1.2-.2.4-.4.7 1 .6 2 1.1 3 1.7.9.5 1.8 1 2.6 1.6.4.3.4.9.6 1.4-.6.2-1.2.6-1.7.5-.5-.1-1-.5-1.4-.9-1.4-1.2-2.8-1.1-3.2.6-.4 1.5-1.2 1.7-2.5 1.7-1.7 0-3.4 0-5.1.2-1.8.1-2.5 1.1-2.2 2.8.1.4.2.9.3 1.3.7 2.7.7 2.7-2.1 3.3.5.3.9.6 1.4.9 4.8 2.5 9.6 5 14.3 7.5.9.5 1.6.7 2.6-.1.6-.5 1.7-.6 2.6-.8.1 1 .6 2.1.3 2.9-.5 1.3-.2 2.2.6 3.2 8.3 10.9 18.9 19.6 29.3 28.5 6.8 5.8 13.7 11.6 20.5 
    17.5 1.1.9 2 2 3 3.1-.2.2-.3.4-.5.5-1.2-.8-2.6-1.4-3.7-2.3-5.9-4.8-11.9-9.6-17.6-14.5-7.2-6.2-14.2-12.6-21.2-19-2.2-2.1-4.6-3.6-7.6-4.5-1.3-.4-2.3-1.4-3.5-2.2-2.7-1.7-5.4-3.6-8.2-5.2-2-1.1-3.7-2.3-4.4-4.7-.4-1.5-1.6-2.9-2.8-4-1.1-1.1-2.6-1.5-4.2-.6.8 2.5 3.9 3.7 3.5 7-1-.7-1.9-1.4-3-2-.9-.5-1.9-.7-2.8-1 .4.9.7 1.8 1.1 2.6.3.5.8.8 1.2 1.3 1 1.2 1.2 2.4-.4 3.4-7.1 4.5-6.8 14.3-3.2 19.4 1.8 2.6 1.2 4.5-2.3 6.2-.4-1.7-1-3.2-1.2-4.9-.4-2.5-.6-5-.9-7.5-.2-1.2-.6-2.1-2.3-2 .5.6.9 1 1.7 1.8-.9.3-1.7.7-2.4.8-.3 0-.5-.9-.9-1.6-1.3 1.2-1.7 2.8-1.5 4.4.8 0 1.5-.2 2.2-.1.2 0 .5 1 .3 1.1-.6.4-1.3.7-2 1.1.4.7.9 1.4 1.4 2.3.7 1.2.8 2.4.3 3.8-.4 1-.2 2.2-.2 3.3-.1.9-.2 1.7-.2 2.6h-.5c-.9-1.3-1.7-2.7-2.8-4-.9-1.1-2.1-1.8-3.5-.7-1.5 1.1-2.5 4.1-1.6 5.1.4.4 1.4.6 2.1.5 5.2-.2 9.5 1.6 12.5 5.8 3.6 5 2.9 13.4-1.4 17.8-1.7 1.7-3.5 3-6.2 2.4-.6-.1-1.4.2-2.1.4-1.2.4-2.3.8-3.5 1.2-.2-.2-.5-.3-.7-.5-.2 3-.4 6-.5 8.9-.1 3 0 6 .1 9-.3 0-.6.1-.8.1-.3-.6-.7-1.2-.8-1.9-.5-4.8-1-9.5-1.3-14.3-.1-1.5-.5-2.7-1.7-3.6-4.1-3-6-6.9-5.7-11.8 0-.7-.2-1.4-.3-2-.2-1.3-1.2-2.9 1.2-3.4.2-.1.4-.5.5-.7.9-1.5 1.9-3 2.8-4.6.3-.5.5-1.4.3-1.6-.4-.4-1.4-.8-1.9-.6-1 .4-1.9 1.1-3.1 1.9 1 .6 1.6.8 2 1.2.3.3.5.8.4 1.2-.1.3-.7.7-1 .7-1.1-.1-1.5.2-1.6 1.4 0 .5-.7 1.3-1.2 1.3-1.5.2-1.8 1.1-1.8 2.3 0 1.4.1 2.8 0 4.2-.1.7-.6 1.4-.9 2.1-.6-.5-1.2-.9-1.8-1.4-.2-.2-.3-.4-.5-.6-.7 1.2-.5 2 .5 2.8.7.5 1.6.9 2.3 1.5.6.6 1.2 1.5 1.5 2.3.1.4-.3 1.2-.7 1.3-.3.1-1.1-.2-1.4-.6-.5-.4-.7-1.1-1.1-1.6-1-1.3-1.9-1.4-2.6.1-.6 1.3-1.1 2.8-1 4.2.2 4.9.8 9.7 1.1 14.5.2 3 .1 6.1-.1 9.1-.1 1-.7 1.9-1.2 3.3-3.9-5-7.4-9.6-11.1-14.4-.9.4-2 1.3-3.3 1.5-.7.1-2.1-.8-2.4-1.6-.4-1-.3-2.4-.1-3.5.1-.5.8-1.2 1.3-1.4.4-.1 1.1.4 1.6.7.5.4.8.9 1.2 1.4.2 0 .4-.1.5-.1 0-.6.3-1.4 0-1.8-1.3-1.6-2.5-3.2-4.9-3.4-.5 0-1.4-.5-1.4-.9-.6-2.7-1-5.5-1.6-8.5-2.1.8-3.1 2.2-3.8 4-1 2.5-2 5-2.9 7.6-.8 2.4-2.6 3.5-5 4.1-.8.2-1.5.3-2.3.6-.4.2-1.1.6-1.1.8 0 .5.3 1.2.8 1.6 1.4 1 1.8 2.5 1 3.8-.7 1.1-3.2 1.4-4.5.7-2.3-1.4-2.5-2.7-.9-4.7.3-.3.4-.8.5-1.1-.1-.2-.2-.4-.3-.5-1.2.5-2.5.8-3.4 1.6-2 1.5-3.8 3.2-5.7 4.9-1.3 1.2-2.6 1.4-4.3.6-2.4-1.1-4.7-.9-6.8.8-1.6 1.3-3.2 2.6-5 3.7-1.5.9-3.3 1.6-5 2-2.5.6-3.8-.6-3.6-3.1.1-1.7.6-3.3.9-5 .5-2.2 1.1-4.4 1.4-6.7.5-3.3-.8-5-4.1-5.9-1.7-.5-3.5-1.3-5.2-1.5-1.4-.2-3.1 0-4.3.6-3.2 1.5-6.1 1.4-8.8-.7-2.9-2.2-3.8-5.2-3.1-8.6.5-2.6 2.3-4.4 5.1-4.8 3.7-.5 7.2-.2 10.2 2.5.6-1.2 1-2.8 3-1.8.1.1.5-.1.7-.2 3.2-3 7.2-4.4 11.5-5.2-.4-3.3 0-3.9 2.8-4.8.1.8.1 1.6.2 2.4 1.7-.4 2.6-1.9 2-3.7-.5-1.2-1.6-2.2-2.4-3.3-.5-.7-1.4-1.5-1.2-2.2.3-1.5-.4-2.4-1.2-3.5-2.1-2.8-3.2-6.6.6-10 2.1-1.9 4.3-3.7 6.3-5.7.9-.9 2.3-2 1.2-3.2-.7-.7-2.5-.9-3.6-.6-1.9.5-3.5 1.6-5.3 2.4-1 .5-1.9 1.2-3 1.4-.8.2-1.9 0-2.4-.5-.4-.4-.2-1.6.1-2.2.9-1.3 2.1-2.4 3.2-3.6 1.2-1.3 2.6-2.4 3.6-3.8.7-1 1-2.3 1.5-3.5-.2-.1-.4-.3-.6-.4-1.2.5-2.4 1-3.7 1.5-1.3.4-2.5.8-3.8 1.2-.2-.2-.4-.5-.6-.7 2.1-2.3 4.1-4.5 6.3-7-.9-.5-1.7-.9-2.9-1.6 1.7-1.3 3.2-2.4 4.7-3.5.3-.2.8-.2 1.1-.4.6-.7 1.1-1.5 1.6-2.2-.8-.2-1.6-.5-2.4-.4-1.7.1-3.4.4-5.1.6-1.7.2-2.9-.5-3.6-2l-1.8-3.6c-1.5-2.6-3.1-5.2-4.6-7.9-.7-1.3-1.2-2.7-1.8-4-1.8-3.5-3.3-7.2-5.6-10.3-2.5-3.5-3.1-7.4-2.1-11 .7-2.7-.4-3.4-1.9-4.7-1-.8-1.9-1.7-2.8-2.7-1.6-1.7-1.7-3 .1-4.4 2-1.5 1.5-3.3 1.1-5.1-.3-1.3-1-2.6-1.5-3.9-.8-2-.3-3.5 1.5-5 1.5-1.2 2.7-.4 4.1.4 3 1.7 6.2 2.6 9.7 1.6 1-.3 2.3.2 3.5.3 1 .1 2 0 3 0 0-.2.1-.4.1-.6-1-.5-2-1.1-2.9-1.6-1.3-.7-2.1-1.8-1.5-3.1.3-.7 1.2-1.5 1.9-1.8 1.4-.5 2.6.1 3.3 1.3.5.8.9 1.6 1.4 2.5 1.1-1.6 1-2.8-.5-3.7-1-.6-2.1-1.1-3.1-1.7-2.1-1.2-2.8-3.2-2-5.2.7-1.8 2.3-2.6 4.9-2.2 2.2.3 4.5.8 6.8 1.2.2-.7.2-1.2.4-1.6.5-1.1 1.1-1.6 2.2-.6.4.4.9.9 1.4.9.7.1 1.5-.2 2.2-.3-.2-.6-.1-1.3-.5-1.7-2.3-2.5-4.7-4.9-7-7.5-.7-.7-.9-1.8-1.4-2.7 1.1-.4 2.1-.9 3.2-1.1 1.5-.2 3-.1 4.6-.1.1-1.4.2-2.9.3-4.5.2-2.1.9-3.9 2.7-5.3 2.1-1.7 2-3.7-.6-4.7-2.9-1.1-6-1.6-9.1-2.1-4.9-.8-9.4 1-14.1 1.8-1.6.3-3.2.5-5.1.7.2-1.8 1.4-2.4 2.7-2.8 1-.3 1.8-.9 2.7-1.4 1-.5 2-1.2 3-1.3 2.7-.2 5.5-.6 8 1 .5.3 1.2.2 1.8.3.1-.2.3-.3.4-.5-.6-.5-1-1.3-1.7-1.6-1.9-.9-3.9-1.6-5.8-2.4-.8-.3-1.5-.8-2.8-1.5 1.4-.8 2.4-1.3 3.4-1.8-.1-.6-.1-1.3-.2-2.1-.2-3.7 1.8-6.3 5.1-6.4 3.6-.1 6.9 2.6 7 6 .1 1.6 0 3.3.1 4.9.2 2.9 1.3 5.1 4.7 5.9 4.7 1.1 8.8 3.4 12.4 6.6 1.1 1 2.3 2 3.6 2.6 1.4.6 3.1 1 4.5.7 2.6-.6 5.1-1.7 7.6-2.6 1.3-.5 1-1.6.7-2.6-.3-1.1-1.2-2.4-.9-3.1.7-1.4 2.1-2.6 3.4-3.6.6-.4 1.9.1 2.9.1.8.1 1.5.1 2.3.1-.2-.7-.2-1.5-.7-2-1.2-1.6-1-3.4-.4-5.1 1.7-4.9 6-7.3 11.4-6.7 4.5.5 8.1 4.2 7.8 8.8-.2 3.4.5 6 2.6 8.6 2 2.6 1.5 4.2-.9 6.5-.7.7-2.1 1.5-1 2.6s2.1-.3 2.7-1c1.7-2.2 3.5-4.5 4.7-7 3.6-7.6 8-14.7 13.8-21.1 3.8-4.2 3.7-6.8.2-11.3-2.6-3.4-1.2-9.3 2.6-11.4 3.8-2.2 7.5-2.8 11.4-.3.4.3 1.2-.1 1.8-.2.5 0 1-.1 1.1-.1-.1 2.7.1 5.3-.3 7.8-.5 3.1-1.9 5.9-4.8 7.7-1.5.9-3.1 1.6-4.6 2.6-.8 1.2-1.5 2.3-2.3 3.1-.1.1 0 0 0 0zm-52.6 187.3c-1.6.6-3.2 1.3-4.9 1.8-2.7.8-5.5 1.3-8 2.3-3.9 1.6-7.4 3.8-7.2 8.6.1 1.4.6 3.7 1.5 4.1 1.6.7 4.1.8 5.6 0 2.9-1.5 5.3-3.8 7.8-5.8-.4-.8-.7-1.4-1.1-2.3.9 0 1.5-.1 1.9.1 2 .9 3.3.5 3.7-1.7.2-2.2.4-4.6.7-7.1zm3.7-4c2.7.8 2.7.8 1.7 3.4 0 .1-.1.1-.1.2.4 1.3.7 2.7 1.3 3.9.2.4 1.5.8 1.5.8.7-1.1 1.7-2.1 1.9-3.3.4-2 .4-4.1.4-6.2 0-.6-.5-1.4-1-1.9-.2-.2-1.1.4-1.6.6-.9.5-1.8 1-2.8 1.6-.4.2-.7.5-1.3.9zm-29.3-16.8c-.2 5.4-3.5 9.9-2.7 15.3 2.3-1.5 3.4-3.5 4.2-5.9.6-1.7.9-2.7-1.2-2.9-.1-2.1 4.2-4-.3-6.5zm83.2-46c0-1.1.2-2.2-.1-3.1-.5-1.5-1.9-1.1-3-.7-1.2.5-.7 1.2-.2 2 .2.4.1 1.4-.1 1.4-2.1.5-1.2 1.5-.6 2.5.4.6.7 1.4 1.2 1.9.4.4 1.1.7 1.6.6.5-.1 1-.7 1.4-1-.4-.4-.7-.8-1.2-1.1-.2-.2-.7-.2-.9-.4-.3-.3-.6-.8-.6-1.2 0-.2.6-.5 1-.7.4-.2.8-.1 1.5-.2zM666 346.6c-1 1.1-2 1.8-2.4 2.8-.3.7.2 1.8.4 2.7.8-.2 1.8-.2 2.4-.7 1.5-1.4.4-2.8-.4-4.8zm27.3 17.2c-.3-.1-.6-.3-.9-.4-.7.9-1.5 1.8-2.2 2.7l.3.6c.6 0 1.6.2 1.8-.1.5-.9.7-1.9 1-2.8z"/>
  <path class="st2" d="M895.9 639.1c-6.4-3.7-12.4-8.9-19.3-10.7-16-4.1-30.2-11-43.2-21.5-4.5-3.6-10.3-5.6-15.7-7.7-1.3-.5-3.4 1.5-5.2 2.3 1.3 1.6 2.3 3.6 3.9 4.7 1.7 1.2 3.9 1.7 6.6 2.8-4.7 6.6-9.2 4.3-13.6 1.9-9.7-5.4-11.5-4.4-14.7 6.4-1.1 3.5-4.3 6.4-6.9 9.1-3.8 4-3.3 6.8 1 10.2 5.6 4.3 10.4 9.7 15.8 14.2 1.5 1.3 4 1.5 6.1 1.9 10.9 2 22.3 2.3 32.6 6 26.4 9.7 32 42.8 10.7 62-15.6 14.1-35.1 16.7-54.9 17.1-1.5 0-3-1.7-4.7-2.4-3.1-1.3-6.4-3.8-9.4-3.5-10 1-15.5-5.6-20.9-12.2-1.5-1.8-2.1-5.2-1.9-7.8.7-7.4-3.3-10.5-9.4-13-.5 2.3-1 4.3-1.9 8.2-3.5-2.9-6.5-5-9-7.6-3.4-3.5-5.9-8-9.6-10.8-8.3-6.3-15.4-4.1-18.7 5.9-2.8 8.7-4.6 17.7-6 26.8-1.2 7.8-4.2 13.2-11.5 16.9-4.2 2.1-8.3 6.3-10.3 10.7-3.2 6.8-6.7 11.5-14.8 10.3-.5 2.9-.8 5.2-1.3 7.4-1.8 8.7-5.6 10.3-12.1 4.6-3.2-2.8-5.7-6.5-8.5-9.8-10.1 10.2-10.9 17.2 5.7 23.1 9.1 3.3 13.2 8.4 11.5 16.8-2.8-1.4-5.5-2.8-8.2-4.2-1.2-.8-2.3-1.6-3.5-2.5-8.8-7.7-17.5-15.5-26.5-22.9-3.4-2.8-5.6-1-5.5 3.2.1 2.8 1.1 5.5 1.3 8.3.1 2.2.3 5.7-.9 6.5-4.4 3-3.4 7.2-3.8 11.3-.5 6.5-1.6 13-2 19.6-.5 9.1-.5 18.3-1.1 27.4-.5 8.1-.6 16.4-2.6 24.2-4.6 17.2-10.5 34.1-15.6 51.2-3.3 11.1-1.7 21.1 6 30.3 2.6 3.2 3.9 9.3 3.1 13.5-2 10.1-5.5 19.9-8.5 29.7-1.8 5.8-4.2 11.3-10.8 12.3-6.4.9-9.8-3.8-12.9-8.6-10-15.3-14-32.9-15.8-50.6-2.7-25.5-3.2-51.3-4.5-77-.1-2.7.1-5.8 1.3-8.1 11.4-23.2 7.2-45.6-3-68.8-2.2 3.2-3.6 6.2-5.8 8.2-1.4 1.3-4.6 2.2-5.9 1.4-1.4-.8-2.4-4.4-1.8-6.1 4-11.5 8.5-22.8 12.6-34.3 1-2.8 2.4-6.6 1.4-8.8-1.7-3.6-4.9-7.1-8.3-8.8-1.4-.7-5.8 2.6-7.5 5-2.5 3.5-3.5 8.2-5.7 12-1.4 2.5-3.9 4.3-7.1 7.7-1-6.4-1.2-10.6-2.3-14.6-.5-1.9-2.6-3.4-3.9-5.1-1.4 1.7-3.7 3.3-3.9 5.2-.3 2.8.2 6.1 1.4 8.6 2.5 5.4 3.7 10.4.8 16.1-1 1.9-.6 4.5-.6 6.8-.1 5.2.3 10.4-.2 15.5-.2 1.8-2.3 3.5-3.5 5.2-1.7-1.4-4.2-2.4-5-4.1-2.6-6.4-2.2-12.8 1.4-18.9 1.1-1.9 2.7-4.4 2.3-6.2-1.7-6.9-4-13.6-8-21.1-2 5-3.7 10.1-6 14.9-1.4 2.8-3.7 5.2-5.7 7.5-1 1.2-3 1.6-3.8 2.9-5.5 8.5-12.2 15.4-21.3 20.3-2.7 1.5-3.3 7.9-4.1 12.1-1.5 7.5-7.7 14.8-14.3 15 15-36.8 34.2-71.7 39-111.8-.8-.4-1.6-.9-2.4-1.3l-6.3 10.8c-1.9 3.2-3.6 6.6-6 9.4-1 1.3-3.4 1.3-5.1 2-.6-2.1-2-4.3-1.7-6.3.2-1.8 1.9-3.6 3.3-5.2 4.5-5.1 4-9.9-2.1-11.5-5.4-1.4-6-4.4-6-9 .1-6.1 0-12.3-.4-18.4-.4-6.6-3.9-9.1-10.1-7.9-1.6.3-3.1.7-4.7 1.1-9.8 2.6-9.8 2.6-11.9-7.8-1.2 1.9-2.3 3.3-3.1 4.9-9.2 17.1-18.4 34.2-27.7 51.2-1.8 3.4-2.8 5.8.2 9.3 1.9 2.2 2 6.1 2.9 9.3-3.6.4-7.6 2-10.6.8-4.7-1.9-7.7-.9-11.6 1.9-39.5 29.4-71.3 67-103.6 104.1-21.1 24.4-42.3 48.7-63.6 72.9-3.4 3.8-7.4 7.1-11.2 10.6-.6-.6-1.3-1.1-1.9-1.7 2.7-4.4 5.1-9.1 8.3-13.1 17.5-21.1 34.8-42.3 53-62.8 22.6-25.5 45.7-50.5 69.1-75.3 7.5-8 13.1-16.4 16.4-27.1 1.4-4.6 5.3-8.4 8-12.6 6.3-9.7 13.1-19.1 18.9-29.1 4.2-7.3 8.3-13.2 17-15.5 5.4-1.4 10.4-5.7 14.6-9.8 4-3.8 5.3-9.1 2.3-15-9.1 2.8-13.5 13.9-25.4 12.4 2.4-3.5 5.2-6.9 7.2-10.7 1.7-3.1 2.6-6.7 3.8-10.1-3.2 1.3-6.5 2.3-9.5 3.9-1.8.9-3 2.8-4.6 4.1-4.4 3.7-8.7 4.1-12.1-1.4-16-25.5-51.1-24.9-69.5-12.5-9.4 6.4-16.1 4-22.1-8.6 6.1-1.5 11.7-3.3 17.5-4.2 9-1.3 18.1-1.9 27.1-3 4.1-.5 7.4-2.2 7.1-8.3-2 1.9-3.6 3.3-6.4 6-1.2-3.4-2.6-6-2.7-8.6 0-.9 3.3-1.9 5.7-3.2-4.3-4.6-9.9-6.1-15.8-5.5.1 2.9.6 5.5.1 8-.1.7-3.7 1.6-4.1 1.1-1.6-2.1-2.5-4.7-3.9-7.4-2.4 1.4-5.2 3.2-8.2 4.9-4.4 2.6-8.6 2.9-13.6.8-3.5-1.5-7.9-.6-11.8-.9-3.1-.2-6.2-.6-9.3-.9v-1.7c4.9-3.2 9.9-6.1 14.5-9.8 4.1-3.2 6.6-7.4 2.7-12.7-4-5.4-14.7-9.2-18.1-5.9-1.6 1.5-2.1 5-2 7.5.4 18.8-6 34.2-21.2 44.9-18 12.6-48.4 9.8-64-5.9-6.1-6.1-10.7-12.8-8.5-22.5.5-2.3-.5-5-1.2-7.4-1.3-4.3-2.8-8.5-4.2-12.7.6-.9 1.2-1.8 1.9-2.6-10.7-.7-21.4-1.7-32.2-2.1-10.8-.4-21.6-.1-32.4-.1-.1-1-.3-2-.4-3 2.3-1 4.5-2.5 6.8-2.8 17.2-1.6 34.3-3.3 51.6-4.3 5.4-.3 9.7-1.7 13-6.1 10.8-14.5 25.1-21.1 42.8-20.2 2.4.1 4.9-.7 7.3-1.1 4.8-.8 10.4-4.3 12.2 4.3.2.8 1.7 1.4 2.7 2 5.4 3.5 10.7 7 16.3 10.2 1.7 1 5 1.9 5.9 1 1.5-1.5 2.8-4.9 2.2-6.7-1.2-3.6-3.8-6.8-6.5-11.1-2.1 3.6-2.9 5.7-4.2 7-1 1-3 1.7-4.2 1.4-1.1-.3-2.4-2.4-2.3-3.6.3-3.9-.8-5.5-4.9-5.7-1.7-.1-4.6-2.6-4.8-4.3-.7-5.3-3.9-6.5-8.1-6.7-5-.2-10 .3-15-.2-2.6-.3-5-2.2-7.4-3.3l5.1-6.6c.6-.7 1.5-1 2.3-1.6-4.3-2.5-7.2-2.1-10.1 1.8-2 2.6-3.2 5.9-5.4 8.1-2.3 2.3-5.4 4.1-8.4 5.2-1.3.5-4.2-1.1-4.8-2.5-.5-1.1.9-3.8 2.1-5 1.6-1.6 3.9-2.4 5.7-3.8 4.9-3.5 5.1-6.7-.3-9.3-4.6-2.2-10-4-14.9-3.8-17.5.6-34.9 2.6-52.4 3.3-10.8.5-21.8 0-32.6-.7-3.5-.2-6.9-2.5-11.8-4.5 18.2-13.7 34.8-26.2 52.2-39.3-1.5-3.2-4.8-7.3-5.3-11.8-.3-2.7 3.1-7.3 5.9-8.4 3.8-1.5 8.5-.9 12.7-.2 1.9.3 4.3 2.7 4.9 4.7.4 1.5-1.4 4-2.7 5.7-1.3 1.7-3.3 2.9-4.9 4.4.1.6.3 1.3.4 1.9 2.1.1 5 1.3 6.3.2 5.8-4.5 11.7-9 12.3-17.6.1-1.8 1.8-4.8 3.2-5.1 9.9-2 19.9-3.5 30.5-5.3-2.7-7.5-7.8-11.3-14.3-13.9-9.1-3.5-18.1-7.5-27.2-10.9-8.5-3.1-12.5-9.6-14.6-18.1-.7-2.7-1.2-5.6-2.1-8.2-.6-1.5-2-3.9-3-3.8-2 .1-4.4 1.1-5.6 2.6-3.8 4.9-8.9 6.4-13.7 3.4-3.8-2.4-5-11.6-2.2-16.1 5.1-8.2 9.7-8.9 16.8-2.9 1.1 1 2.7 1.4 4.1 2 .7-.4 1.3-.8 2-1.2-1.8-4.2-2.9-8.9-5.5-12.4-5.4-7.3-11.5-14-17.6-20.7-4.3-4.8-5-9.5-2.1-15.4 4.2-8.5 3.5-16.7-2.5-24.4-4.6-5.8-9.3-11.7-12.9-18.2-3.1-5.6-5.6-11.9-7-18.2-1.9-8.9 2.3-13.7 11.1-13 6 .5 12 2.3 18 3.6 8 1.8 15.9 4.2 23.9 5.4 11.8 1.8 18-2.8 21.5-14.4 1.9-6.3 4.9-12.4 5.7-18.8.7-5.1 0-11-2.1-15.6-5.3-11.5-5-21.9 2.9-31.6 8.1-10.2 18.8-13.5 31.2-11 9.3 1.9 15.9 8.4 17.2 18.6 1.7 13.2.6 26-9.4 36.7 4.4 2.2 10 3.8 6.2 10.8-.3.5.3 1.9.9 2.5 10.6 11.8 15.7 26.2 18.4 41.7 11.7-1.3 14.1.1 17 10.2-3 .2-5.8.3-8.7.5 1.3 6 6.6 9.6 13.2 7.2 4.4-1.6 8-5.8 12-8.6 2.5-1.7 5.6-4.8 7.8-4.3 5.5 1.2 8.7-1.2 12.7-4.2 10-7.5 24-11.3 36.1 2.5 6.7 7.7 13.3 15.5 20.2 23 3.1 3.3 7.2 8.2 11.4 4.4 2.5-2.3 3.2-8.9 2.2-12.8-1.8-6.7-5.5-12.8-8.4-19.1-1.7-3.6-4.2-7-5-10.8-.6-2.7.2-6.8 2-8.6 1.3-1.3 5.8-.8 7.8.6 4.7 3.3 8.7 7.5 12.9 11.5 4.5 4.3 8.5 9.3 13.4 13 3.6 2.7 8.3 3.8 12.5 5.6.5-.7 1-1.3 1.6-2-1.7-4.4-3.6-8.8-5.1-13.3-1.5-4.5-2.7-9.2-4-13.7.9-.7 1.7-1.3 2.6-2 8.1 7.5 16.1 15 24.8 23 1.9-3.3 3.5-6 6.1-10.5 4.5 6.3 8.5 11.7 12.3 17.2.8 1.1.7 3 1.6 3.8 2.4 2.2 5.2 3.9 7.8 5.8.6-2.9 1.8-5.7 1.7-8.6-.3-6.1-1.2-12.2-1.9-18.2-.7-6.3 2-10.3 7.3-12.9 4.3-2.1 8.7-4.1 12.9-6.4 9.6-5.3 19-10.9 28.6-16 4.6-2.5 9.6-4.1 14.3-6.5 12.6-6.3 25.9-11.6 37.4-19.7 12.7-8.8 26.9-10.7 39.7-7.1 9.7 2.7 12.3-1.3 16.8-6.6 3-3.5 6.2-6.9 9.7-10 6.3-5.6 10.8-5.9 15.7.7 5.4 7.3 11.9 5.6 18.3 4.2 4.8-1 9.4-3.5 14-5.3 7.2-2.9 12.6-1 17.9 5.7 4.4 5.5 1.4 9.8-1.5 14.6-6.4 10.7-9.6 22.1-6.2 35 1 3.8-.9 8.3-1.1 12.5-.2 3.6 0 7.2 0 10.8.7.2 1.4.3 2.1.5 1.9-3.5 3.9-7 5.7-10.5 2.5-4.7 6.4-7.4 11.2-5.4 2.7 1.1 5.3 4.2 6.4 7 1.8 5-.5 9.2-4.9 11.9-2.9 1.7-5.9 3.3-9 4.9 5.6 4.1 9.9 3.6 13.2-1.6 2.2-3.5 4-7.4 6.2-11 4.6-7.4 11.6-9.9 18.7-7.1 6.4 2.6 9.2 8.5 7.8 17.6-1.3 8-2.9 16-4.4 24.2 2.7.7 4.3.8 5.7 1.4 3.9 1.7 5.6 4 1.9 7.9-1.4 1.5-3.1 3.3-3.4 5.1-.3 2.5.7 5.2 1.1 7.9 2-.5 4.6-.4 6-1.7 9.2-8.1 17.9-16.7 27.1-24.7 2.7-2.3 6.4-3.3 9.6-5 1.3 3.8 3.3 7.5 3.8 11.4.7 5.3.2 10.7.2 16.7 4.9.4 10.5.7 16.1 1.3 7.5.8 13.8 3.5 18.8 9.9 5.9 7.7 13.2 7.4 16.8-1.9 4.1-10.3 6.1-21.5 8-32.5 3-17.5-3.3-34-5.9-50.9-.9-5.8-1.6-11.5-2.5-18.2 6.6 1 8.4 5 9.9 9.9 1.1 3.5 3.2 6.6 4.8 9.9 1.7 3.6 4.3 7.2 4.5 10.9.6 9.7 1.8 19.7-3.9 28.7-1.1 1.7-.9 4.3-1.3 6.6.6.5 1.2 1 1.9 1.5 2-2 4.7-3.6 5.8-6 3.3-6.7 5.8-13.8 8.9-20.6 1.3-2.8 3-5.4 5.6-10 2.7 5.2 4.4 8.5 6.4 12.4 2.2-.2 4.8-.5 7.5-.6 13.3-.6 22.4 6.9 22.7 18.6.3 13-9.7 24.6-21.9 25.1-5.9.2-11.8-.2-17.7.3-10.5.7-18.5 4.4-21.4 16.7-4 17-12.7 31.6-24.4 44.3-3.6 3.9-7.4 8-9.5 12.8-2.1 4.9-3.8 11.1-2.8 16 1.9 9.3 5.8 18.3 9.2 27.3 1.8 4.8 5.8 3.6 9.3 2.7 3.9-1 8.8-4.4 11.4-3 5 2.7 9.4 7.5 12.7 12.5 1.5 2.2-.3 6.8-.6 10.3-.2 2.8-.4 5.6-.6 8.3 2.5-.7 5.4-.8 7.3-2.3 5.9-4.4 12.3-3.5 18.2-1.3 17.5 6.5 26.1 22 23.5 41.3-2.1 16.1-15.3 28.9-31.9 27.5-12.1-1-21.4 1.6-31.1 9-9.3 7.1-15 5.3-23.3-3.5-2.5-2.7-5.5-7.8-9.3-3.8-3.9 4 .9 7.6 3.6 9.6 8 6.2 15.9 12.8 24.8 17.1 27.3 13.3 52.6 29.5 75.2 50.4 15.1 14 24.2 13.6 40.8 1.3 12.4-9.2 33.3-3.9 40.9 9.7 7.7 13.8 9.8 27.1.5 41-.9 1.4.4 4.4.6 6.6.2 1.7.2 3.5.2 3.8-9.7-.4-19 .2-27.9-1.4-11.1-2-21.3-7-27.6-17.5-3.2-5.4-5.6-11.4-9.2-16.5-2.6-3.6-6.5-6.2-9.8-9.3 0 1.1.3 1.3.3 1.3zM224.4 442.2c-2.1-5.8-4.6-11.7-6.4-17.9-2.9-9.6-4.4-19.7-8-29-5.6-14.1-13.4-26.9-30.5-26.4-5.2.1-13.3 1.9-14.8 5.3-2.5 5.7-3 14.7-.2 20 5.4 10.3 13.6 19.1 20.5 28.3 2.9-1.4 5.1-2.4 8.5-4-.2 3.1.3 5.3-.5 6.9-3.5 7.2-1.8 11.9 5.8 13.3 8.2 1.7 16.6 2.4 25.6 3.5zm14.5 13.8c-2.9 9.6-2.9 9.6-12.2 5.9-.2-.1-.5-.3-.6-.2-4.7 1.4-9.6 2.5-14.1 4.6-1.5.7-3 5.3-2.8 5.4 3.8 2.7 7.6 6.1 11.9 7 7.2 1.5 14.8 1.6 22.2 1.6 2.3 0 5.1-1.8 6.7-3.6.6-.7-1.2-4-2.2-5.9-1.8-3.4-3.7-6.7-5.6-10-1-1.6-2-2.9-3.3-4.8zm61.3-105c-19.4-.9-35.5-13-54.8-10.2 5.5 8.4 12.6 12.3 21.1 15.4 6.2 2.3 9.7 3.3 10.4-4.3 7.8-.4 14.4 15.3 23.3-.9zm162.2 301c4 0 7.9.9 11.3-.2 5.3-1.8 4.1-6.8 2.6-10.7-1.6-4.3-4.2-2.4-7-.7-1.3.8-5 .2-5.2-.4-1.6-7.5-5.4-4.4-9-2.2-2.3 1.4-4.9 2.5-6.8 4.3-1.3 1.3-2.6 3.9-2.3 5.6.3 1.9 2.4 3.5 3.7 5.2 1.4-1.4 2.8-2.6 4-4.1.7-.9.7-2.4 1.5-3.1 1.3-1.1 2.9-2.2 4.4-2.3.8 0 1.9 2.1 2.4 3.5.4 1.3.3 2.7.4 5.1zm-120-300.1c-3.8-3.6-6.3-7.4-9.8-8.8-2.7-1.1-6.5.8-9.8 1.3.7 2.9.6 6.6 2.3 8.5 4.9 5.6 10.3 2 17.3-1zm-62.9 97.5c.5-1 1.1-2.1 1.6-3.1-3.2-2.7-6.4-5.4-9.6-8.2l-2.1.9c0 2.3-.8 5.9.2 6.6 2.9 1.9 6.6 2.6 9.9 3.8z"/>
  <path class="st2" d="M464.1 234.9c-.6-4.5-.8-8-1.5-11.3-.7-3.2-2-6.2-3-9.3-.8 0-1.6.1-2.4.1-1 3.2-2.2 6.3-2.8 9.5-1.8 9.1-9.7 13-17.4 8.3-12.6-7.6-14.1-19.4-3.4-29.3 3.9-3.6 3.7-6.3 0-8.9-4.8-3.3-4.3-6.8-2.7-12 1.4-4.6 1.2-10.3-.1-15-3.5-12.7-8-25-11.9-37.5-3.9-12.7-4.1-25.8 4.6-36.2 5.7-6.9 13.8-11.9 21.5-16.5 2.3-1.4 6.8 1.6 10.3 2 15.7 2.2 21.8 12.4 23 27.7.9 12.2 2.7 24.3 4.4 36.4.7 4.6 2.2 9.1 3.4 13.6.7-.2 1.5-.3 2.2-.5 0-10.4-.3-20.7.1-31.1.4-10.2 1.7-20.3 2.6-30.5.8 0 1.7.1 2.5.1 2.2 15.4 5.8 30.8 6.3 46.2.5 15.3-2.1 30.7-3.3 44.9h9c-.3 2.6-.6 5.3-1 7.9-3.2-.5-6.4-1.1-10-1.7-3.7 4.3-8.2 10.1-13.3 15.1-2.5 2.4-6.2 3.7-9.5 4.8-5.8 1.8-7 3.9-4.4 9.7 2 4.7 4.1 9.3-3.2 13.5zm148.5-76.7c-1.2 4.2-1.7 9.4-4.1 13.4-6.1 10.3-13 20.1-19.5 30.2-.7 1.1-1.3 2.5-1.3 3.7 0 6.5-4.6 8.9-9.3 9.2-6.6.4-12.3-6.8-11-13.2.6-3.2 2.4-6.7 4.7-8.9 2.6-2.5 3.4-4.6 1.1-7-8.3-9-4.8-18.8-.7-27.5 3.6-7.7 9-14.6 14.6-21 6.4-7.3 19-4.2 22.4 5.3 1.6 4.7 2 9.9 3.1 15.8zm341 257c9.7-.4 16.3 5.3 20.6 15 2.9 6.6.3 12-3.1 17-6 8.9-19 10.8-28.7 5.3-5.9-3.4-11.7-6.3-12.7-14.2-1.8-12.9 8.4-23 23.9-23.1zm-77.3-8.9c11.6.3 24.3 11.3 24.1 20.8-.1 7.6-10.2 15-19.6 14.5-9.7-.5-16.6-8-16.5-17.7.2-12.1 4.1-17.8 12-17.6zm-845-100.4c7.6.9 13.7 1.5 19.7 2.5 1.1.2 2.2 1.9 2.8 3.1 1.5 3.4 3.2 6.7 3.9 10.3.9 4.6 2.9 11.8.9 13.4-3.1 2.6-9.4 2.9-13.8 1.8-5.5-1.4-11.3-4.3-15.5-8.3-4.1-3.8-6.7-9.6-9.1-15-.5-1.2 1.7-4.8 3.5-5.8 2.7-1.4 6.1-1.6 7.6-2zm134.9 401.7c-.2 7.5-2.6 9.2-6.7 10.3-4.5 1.1-8.7 3.8-13.1 5.5-3.6 1.4-7.2 3.2-10.9 3.5-10.2.8-20.5 1.1-30.8 1.3-3.9.1-4.6-2.6-3.3-5.8.9-2.3 2.2-5.4 4-6.1 8.6-3 17.5-5.4 26.4-7.6 1.2-.3 3.3 1.2 4.3 2.4 1.6 1.9 2.7 6.1 3.9 6 4.4-.3 8.8-1.5 12.9-3 4-1.5 7.9-3.8 13.3-6.5zM226 146.1c8.4.3 19.6 9.1 19.2 14.9-.6 7-11.1 14.3-19.9 13.8-7-.4-14.6-6.8-14.6-12.4 0-7.6 8.4-16.6 15.3-16.3zm84.7 102.1c0 9.4-6.6 13.8-14 8.4-4.4-3.2-8.1-8.3-10.2-13.4-1.2-3 .4-8.3 2.5-11.3 1.2-1.7 6.2-1.5 9-.6 10 3.3 12.7 7.2 12.7 16.9zM66.3 587c1.3-2.6 2.2-4.3 3.3-6.6-1.5-.9-3-1.4-4.1-2.4-1.4-1.3-2.6-2.9-3.9-4.4 1.9-1.8 3.6-4.1 5.8-5 1-.4 4.3 2.1 4.4 3.5.6 5.1 3.4 5.3 6.7 3.8 4.3-1.9 8.7-3.8 12.3-6.7 4.8-3.8 13.4-2.9 15.7 2.8.7 1.6.1 5.2-1.1 6-2.7 1.9-6 2.9-9.2 3.7-8.3 2.2-16.7 4.2-25.1 6.1-1.2.4-2.7-.4-4.8-.8zm34.3-181.5c.2 6.3-7 12.5-14.7 12.7-6.8.1-11.9-4.3-12.1-10.6-.3-7.9 5-13.4 13.2-13.7 7.6-.2 13.5 4.7 13.6 11.6zM439 796.1c-3.3-2.8-8.3-5.5-11.1-9.9-1.4-2.1.6-7.6 2.5-10.7 3.9-6.6 9.9-2.5 14.8-1.5 2.3.5 4.1 3.9 5.9 6.2.8 1 .7 2.6 1.5 3.7 3.3 4.8 1.7 7.8-3.2 9.4-2.9.9-5.7 1.5-10.4 2.8zm61.1 167.5c-3.7-6.5-.4-67.8 4.4-76.8 2.8 24.8-.6 48.1-.4 71.3 0 1.7-2.5 3.5-4 5.5zm-354.4-78.2c-13.5 21.7-34.8 32.3-56 43.1 18.5-14.6 34-33.4 56-43.1zm799.4-307.6c.1 6.6-4.2 11.2-10.6 11.2-7 0-14.4-6-14.3-11.6.1-4.2 7.1-10.4 11.6-10.3 8.8.2 13.2 3.7 13.3 10.7zM454.4 705.7c-.1 8.7-2.3 12.4-7.5 12.4-7.1 0-12.3-4-12.2-9.3.1-5 4.7-10.3 9.1-10.4 7.5-.2 10.6 2 10.6 7.3zM106.3 544.3c2.2.4 4.3.4 6.2 1.2 1.7.7 4.2 2 4.4 3.4.3 1.9-.5 5.1-1.9 6.1-3.5 2.4-7.5 4.4-11.5 5.7-3.5 1.1-7.8 1.1-8.6-4.1-.7-4.5-.4-9.2 4.8-11.1 2.2-.7 4.5-.8 6.6-1.2zm235.5 175.3c-1.2-1.3-4.7-3.5-5.2-6.2-1-5.7 5.2-10 14.5-10.1 1.8 0 4.7 2.4 5.1 4.2.9 4.4-7.2 12-14.4 12.1zm139.6 238.7c-4.8-13.4 5.7-22.1 6-33.7 8.8 5.8 5.5 23-6 33.7zm-54.6-186.5c-4.7 4.1-7.6 8.9-11 9.2-4.5.4-6.7-4.3-6.9-9.4-.3-6.3 3.8-9.1 8.3-8.5 3 .4 5.4 4.8 9.6 8.7zm494.3-467.2c-4.9 5.2-8 9.2-11.9 11.8-.7.5-5.9-4.2-7.2-7.3-1.4-3.5 4.1-9.8 8-9.4 3.2.4 6.1 2.6 11.1 4.9zm-76.8 322.6c8.2 2.3 16.5 4.3 24.5 7 1.7.6 2.7 3.6 4 5.5-2.3.7-5.1 2.7-6.9 1.9-7.7-3.3-15.2-7.3-22.7-11.1.4-1.1.7-2.2 1.1-3.3zm-704-169.6c-5.3-2.9-10.4-4.9-14.7-8.2-1.8-1.3-2.3-5.2-2.3-7.9 0-1.3 3-3.9 3.7-3.6 2.2.9 4 2.8 5.8 4.5 1.8 1.8 3.1 4.7 5.2 5.8 4.2 2 4.3 4.6 2.3 9.4zM435 806.4c1-6.7 5.1-6.8 8.7-6.9 4.5-.2 6.4 2.8 6.4 7.3 0 5.9-5.1 7.2-8.4 7.2-2.3-.1-4.5-4.9-6.7-7.6zm102.6 8.3c.4 2.9 1.4 5.9.9 8.7-.8 4.9-2.3 9.8-3.7 14.6-.4 1.3-1.4 2.4-2.1 3.5-1.3-.9-3.3-1.6-3.9-2.9-.6-1.6-.4-3.8.1-5.5 1.8-6 3.8-11.9 5.7-17.9 1-.2 2-.4 3-.5zM114.9 474.5c-3.4-3.7-5.3-5.8-7.2-7.9 3.5-2.4 6.9-5 10.8-6.7.7-.3 4.7 4.4 4.3 5-1.7 3.1-4.4 5.6-7.9 9.6zM50.3 246.3c2.3-1.3 4.6-3.4 7-3.7 3.9-.6 7 1.9 6.1 6.1-.6 2.8-3.6 5-5.6 7.5-2.6-2.3-5.2-4.6-7.8-6.8.1-1.1.2-2.1.3-3.1zm777.4 178.9c-4.4 3.3-7 6.5-9.8 6.8-2 .2-4.3-3.8-6.4-5.9 2.4-2.3 4.5-5.8 7.3-6.6 1.8-.6 4.6 2.8 8.9 5.7zM651.8 177.5c-4.3 2.8-6.7 5.6-8.8 5.4-2.5-.3-4.7-3.1-7-4.9 2.4-2.7 4.4-6.1 7.3-7.5 1.2-.6 4.4 3.5 8.5 7zM103.9 460.7c-4.8-1.8-9.6-3.5-14.2-5.7-.8-.4-1.3-3.3-.7-4.3.8-1.3 2.8-2.5 4.2-2.4 5.9.6 9.6 4.3 11.9 9.6-.4.9-.8 1.8-1.2 2.8zm280 237.8c-3.3 6.1-6.6 12.3-10.1 18.4-.3.5-2.5.7-2.9.2-.7-.9-1.1-2.4-.9-3.6 1.4-7.6 4.7-13.6 13.9-15zm514.7-175.6c-1.7-2.2-4.9-4.7-4.6-6.5.4-2.3 3.6-5.5 5.8-5.6 2.1-.1 5.8 2.7 6.4 5 1 4.2-2.1 6.1-7.6 7.1zM765.3 254.4c-2.4-3.1-4.8-4.7-4.6-6.1.4-4.4 2.2-8.8 7.3-8.1 1.7.2 4.8 4.4 4.4 5.5-1.3 2.9-4 5.1-7.1 8.7zm-444.5-30.2c2.8 3.7 5.4 6 6.4 8.9.6 1.8-.5 5.8-1.9 6.6-2 1.1-5.4.7-7.5-.4-1-.5-.6-4.4-.2-6.7.5-2.4 1.7-4.6 3.2-8.4zm12.7 464.5c-4.8 3.6-7.6 6.4-10.9 7.9-1 .5-4.9-2.3-5-3.7-.4-5.2 3.5-7.3 7.7-7.7 1.8-.2 3.9 1.6 8.2 3.5zm321.3 106.2c1.2.8 2.3 1.6 3.5 2.5.8 5.6-1.3 9.3-6.9 8.2-1.9-.3-4.2-4.6-4.3-7.1 0-5.7 4.6-3.6 7.7-3.6zm65-87.2c9.4-2.4 10.4-1.7 16.8 10-8.6 1.7-12.5-4.1-16.8-10zM68.1 513.3c-2.4-2.7-5.2-4.5-5.2-6.2.1-1.8 3-5.2 4.4-5 2.8.3 5.4 2.6 8.1 4.1-2.1 2-4.2 4-7.3 7.1zm37.2-42.1c3.1 3 5.1 4.9 7.1 6.8-2.1 2.1-4.3 4.2-6.4 6.3-1.7-2.1-4-4.1-4.7-6.5-.4-1.4 2.1-3.6 4-6.6zm333.8 261.9c-3.6 2.4-6 5.2-8.1 5-1.9-.2-3.4-3.7-5.2-5.8 2.1-1.7 4-4.4 6.2-4.6 1.8-.1 3.9 2.8 7.1 5.4zm-27.2 118.7c2.5 3.1 5.5 5.3 5.2 6.7-.5 2.5-3.1 4.5-4.8 6.7-2-2.2-4.6-4.2-5.8-6.8-.4-.9 2.8-3.5 5.4-6.6zm-59.3-48.5c-1.8-4.6-3.9-7.2-3.4-9.2.6-2.1 3.5-3.6 5.4-5.4 1.3 1.7 3.9 3.7 3.6 5-.7 2.8-2.8 5.2-5.6 9.6zm-55.4-600.2c-2.4 2.6-3.6 4-4.9 5.4-2.3-3.2-4.8-6.3-6.8-9.7-.2-.3 2.4-3.1 2.5-3 2.9 2 5.6 4.4 9.2 7.3zm557.4 69.8c.5-3.1.7-6.4 1.6-9.4.1-.4 3.8-.7 4.5.1 1.6 1.9 3.8 5.2 3.1 6.8-.8 2-4.2 2.8-6.5 4.1-.9-.6-1.8-1.1-2.7-1.6zm-127.9-3.7c2.8-2.2 5-4.8 5.9-4.4 2.6 1.1 4.7 3.5 7 5.4-1.7 1.9-3.9 5.5-4.9 5.2-2.6-.8-4.7-3.4-8-6.2zm-30.3-17c-2.7-3.8-4.7-6.3-6.1-9.2-.1-.3 3.8-3.8 4.5-3.3 2.4 1.4 4.8 3.6 5.8 6.1.5 1-2.2 3.6-4.2 6.4zm-8.3-58.4c-2.4-3-5-5.2-4.7-6.3.7-2.1 3.1-5.1 4.7-5.1 1.9 0 3.8 2.9 5.7 4.5-1.6 1.9-3.1 3.8-5.7 6.9zm108 125.8c-3.5 2.6-5.7 5.4-7.4 5.1-1.9-.4-4.3-3.3-4.6-5.4-.2-1.5 2.8-4.8 4.4-4.8 2-.1 4 2.5 7.6 5.1zM101 438.9c-4.3-1.4-8.5-2.8-14.2-4.7 2.1-2.3 4.4-5.6 5-5.3 3.8 1.9 7.2 4.6 10.7 7l-1.5 3zm748.7 15.6c-3.6 2.2-5.6 4.2-7.7 4.5-1.2.2-4.2-3.2-3.9-3.7 1-2.3 2.7-4.9 4.8-5.7 1.1-.5 3.5 2.4 6.8 4.9zM626.3 176.4v-12.5c.6-.3 1.2-.7 1.8-1 1.8 2.4 5.1 4.9 5 7.3-.1 2.5-3.4 4.8-5.3 7.3-.6-.4-1-.8-1.5-1.1zm-404.2 26.1c1.3 3.3 3 5.5 2.5 7-.6 1.9-3 4.6-4.4 4.5-1.8-.1-3.4-2.8-5.1-4.3 2-2 3.9-4 7-7.2zm673.1 409.4c2 2.3 4.3 4.5 6 7 .7 1.1.1 3.1.1 4.8-1.7-.1-4.3.4-4.8-.5-1.8-3-2.9-6.4-4.2-9.7.9-.5 1.9-1.1 2.9-1.6zm-780.6-155c-2.9-1.1-6.2-1.7-8.5-3.6-1.1-.9-.4-4.3-.5-6.6.7-.3 1.4-.7 2.1-1 2.8 2.8 5.6 5.5 8.4 8.3-.5 1-1 1.9-1.5 2.9zm696.5-249.4c-1.8 2.3-3 4-4.3 5.6-1.3-2.7-3.1-5.2-3.7-8-.3-1.3 1.6-3.2 2.5-4.8 1.7 2.2 3.3 4.4 5.5 7.2zm-450.6-43.6c3.2 3.5 6.5 7 9.7 10.5-.6.6-1.2 1.2-1.8 1.9-6.3-.2-8.2-5.2-9.9-10.4.7-.6 1.4-1.3 2-2zm112 753.7c-1.9-2.9-3.8-5.7-5.7-8.6l1.2-1.8c3 .8 6.4 1.1 8.8 2.8.7.5-1 5-1.7 7.6h-2.6zm415-272.8c-4.5 6.1-6.1 6-11.7-1.3 4.6-3.9 8.4-2.7 11.9 1.6l-.2-.3zM747.3 713c2.2 3.8 4.2 5.7 4.2 7.6 0 1.6-2.3 3.2-3.6 4.8-1.2-1.9-3-3.7-3.5-5.7-.4-1.4 1.2-3.2 2.9-6.7zM55 408.8c5.3-4.5 8.2-3.4 9.7.8.4 1.1-1.1 2.8-1.7 4.2-2.7-1.7-5.3-3.4-8-5zm145.1 293.6c-5.9 1.5-10.1 2.6-15.3 3.9 4.4-8.5 6.3-9.1 15.3-3.9zm519 26.9c-2-2.8-3.9-5.6-5.9-8.5 1.2-.8 2.7-2.5 3.6-2.2 4.6 1.5 4.5 5.4 4.7 9-.8.6-1.6 1.2-2.4 1.7zM59.2 584.5c1.8 2.9 3.7 4.9 3.4 5.8-.8 1.9-2.8 3.3-4.4 5-1.2-1.3-3.7-2.9-3.5-3.8.5-2.1 2.3-3.8 4.5-7zM759.4 184c1.8 2.8 3.9 5.3 3.5 5.7-1.4 1.8-3.5 2.9-5.4 4.3-.8-1.3-2.6-2.9-2.3-3.9.5-1.9 2.2-3.4 4.2-6.1zm-198.1 17.2c-2.2-3.6-4.1-5.4-3.9-6.9.2-1.7 2.3-3.2 3.7-4.8 1.1 1.4 3.1 2.8 3.2 4.3.1 1.7-1.4 3.6-3 7.4zM887.7 645c-1.8-8.7 4.7-5 8.2-5.9l-.2-.2c.5 1.7.9 3.4 1.6 5.9h-9.7c-.1 0 .1.2.1.2z"/>
</svg>