<?xml version="1.0" encoding="utf-8"?>
<!-- Generator: Adobe Illustrator 25.1.0, SVG Export Plug-In . SVG Version: 6.00 Build 0)  -->
<svg version="1.1" id="Layer_1" xmlns="http://www.w3.org/2000/svg" xmlns:xlink="http://www.w3.org/1999/xlink" x="0px" y="0px"
	 viewBox="0 0 1000 1000" style="enable-background:new 0 0 1000 1000;" xml:space="preserve">
<style type="text/css">
	.st0{fill:#e4e6e7;}
	.st1{fill:#cacdcf;}
</style>
<polygon class="st0" points="745.9,575.6 548.1,575.6 449.2,746.9 548.1,918.2 745.9,918.2 844.8,746.9 "/>
<polygon class="st0" points="318,328.8 120.3,328.8 21.4,500.1 120.3,671.4 318,671.4 416.9,500.1 "/>
<polygon class="st0" points="747,83.2 549.3,83.2 450.4,254.5 549.3,425.7 747,425.7 845.9,254.5 "/>
<polygon class="st1" points="383.3,302.8 155.8,302.8 42.1,499.8 155.8,696.8 383.3,696.8 497,499.8 "/>
<polygon class="st1" points="736.2,506.4 508.7,506.4 395,703.3 508.7,900.3 736.2,900.3 849.9,703.3 "/>
<polygon class="st1" points="382.8,709.3 274.9,709.3 220.9,802.8 274.9,896.3 382.8,896.3 436.8,802.8 "/>
<polygon class="st1" points="381.7,102.1 273.7,102.1 219.7,195.6 273.7,289.1 381.7,289.1 435.7,195.6 "/>
<polygon class="st1" points="909.3,406.5 801.3,406.5 747.3,500 801.3,593.5 909.3,593.5 963.3,500 "/>
<polygon class="st1" points="736.2,99.3 508.7,99.3 395,296.3 508.7,493.2 736.2,493.2 849.9,296.3 "/>
</svg>
