<svg version="1.1" id="Layer_1" xmlns="http://www.w3.org/2000/svg" x="0" y="0" viewBox="0 0 1000 1000" xml:space="preserve">
  <style>
    .st0{fill:#e4e6e7}.st2{fill:#cacdcf}
  </style>
  <path class="st0" d="M63.6 878.1c5 49.8 55.7 77.9 94.7 63.5 69.2-25.5 70.1-148.4-9.4-153.7-43.3-3-90.8 35.5-85.3 90.2zM533.5 126c.2 19.6 9.1 37.9 24.1 49.4 26.7 20.9 105.6 21.3 109.2-27.1 2.1-27.7-26.9-46.3-42-64.5-11.6-13.9-24.6-24.1-43.3-19.7-27.4 7-47.1 32.4-48 61.9zm406.1 366.6c3.3 30.9 2.2 61.7-3.1 90.9-40.2 222.6-245.9 360.1-429.3 341.7-140.3-12.9-274.4-112.8-356-265.2-52.6-97.1-78.8-210-63.9-311.2 7-47.3 22.8-90.6 46.4-126.8 38.8-60.2 116.9-55.6 182.1-31.1s149.9 40.9 216.3 53.2c82.5 15.5 165.5 3.4 247.5 34.8 49 18.7 97 54.5 127.5 107.6 17.8 32.4 29 68.9 32.5 106.1z"/>
  <path class="st2" d="M959.5 583.5c-5.1 30-14.7 58.8-28.2 85C828.4 868.8 577 947.2 391.5 884.1c-142.2-47.2-254-175-296.9-339.4-28-104.8-24.2-218 19.1-309.9 20.2-42.9 48.6-79.9 83-108.1 56.8-47.1 136.8-23.3 197.8 16.1s144.5 76 210.1 104.3c81.5 35.3 171 44.6 247.6 94.6 45.7 29.9 85.7 75.7 102.9 133.5 9.4 35 11 72.3 4.4 108.3zM559.6 141.2c3.9 31.4 20.3 58.8 44.2 74.1 42.6 28 156.9 12.1 152.9-66.2-2.2-44.8-47.6-68.6-72.9-94.6-19.4-19.9-40.2-33.6-66.4-22.6-38.3 17-62 61.9-57.8 109.3zm258.2 84.3c2.6 25.9 29 40.6 49.4 33.1 36.1-13.2 36.7-77.5-4.8-80.2-22.6-1.5-47.5 18.5-44.6 47.1z"/>
  <path class="st2" d="M61.1 860.5c5 49.8 55.7 77.9 94.7 63.5 69.2-25.5 70.1-148.4-9.4-153.7-43.3-3-90.8 35.5-85.3 90.2z"/>
  <path class="st2" d="M61.1 860.5c5 49.8 55.7 77.9 94.7 63.5 69.2-25.5 70.1-148.4-9.4-153.7-43.3-3-90.8 35.5-85.3 90.2z"/>
</svg>
