<?xml version="1.0" encoding="utf-8"?>
<svg version="1.1" id="Layer_1" xmlns="http://www.w3.org/2000/svg" xmlns:xlink="http://www.w3.org/1999/xlink" x="0px" y="0px"
	 viewBox="0 0 1100 1100" style="enable-background:new 0 0 1100 1100;" xml:space="preserve">
<style type="text/css">.st0{fill:#E4E6E7;}.st2{fill:#CACDCF;}</style>
<g>
	                         
	  <path class="st0" d="M973.2,451.7l-1.3,0.5L973.2,451.7c-6.4-28.1-21.4-51.4-42.2-65.7c-21-14.5-45.1-18.2-68.2-10.5l-34.9,11.7
                                    c33.7-24.8,50.7-74.3,39.9-122c-13.1-58-62.6-92.1-110.5-76.2l-123,40.9c34.3-24.5,52-74.8,41.1-122.7
                                    c-6.4-28.1-21.4-51.4-42.2-65.7c-21-14.5-45.1-18.2-68.2-10.5L228.4,143.1c-23.1,7.7-42.4,25.9-54.2,51.2s-15,54.7-8.7,82.8
                                    c10.8,47.9,47.2,80.2,86.7,80.2h0.2l-160,53.3c-47.8,15.9-75.9,76-62.8,134s62.6,92.1,110.5,76.2l34.9-11.7
                                    c-33.7,24.8-50.7,74.3-39.9,122c6.4,28.1,21.4,51.4,42.2,65.7c21,14.5,45.1,18.2,68.2,10.5l88.5-29.5c-31.2,25.9-46.5,74.1-36.2,119
                                    c6.4,28.1,21.4,51.4,42.2,65.7c13.9,9.6,29.1,14.5,44.5,14.5c7.9,0,16-1.4,23.7-4l406.5-135.6c47.8-15.9,75.9-76,62.8-134
                                    c-10.2-45.1-43.4-77.1-81.3-80l113.9-37.9C958.2,569.8,986.3,509.7,973.2,451.7z M909.6,582.4l-137.4,45.8l13.7-0.9
                                    c40.9-2.8,78.3,29.7,89.1,77.4c12.7,56.1-14.6,114.3-60.9,129.7L407.5,970c-46.3,15.4-94.3-17.8-107-73.9
                                    c-10.8-47.7,7.7-98.9,43.9-121.8l12.1-7.7L244.8,804c-22.4,7.5-45.7,3.7-66.1-10.1c-20.2-14-34.9-36.5-40.9-63.6
                                    c-11.8-51.9,10.4-105.9,51.5-126l-1-3.3l-49.2,16.4c-46.3,15.4-94.3-17.8-107-73.9s14.6-114.3,60.9-129.7l176.4-58.9l-0.6-3.5
                                    c-44.5,10.8-88.9-22.4-100.8-75.5c-6.2-27.1-3.1-55.4,8.3-80.2c11.6-24.5,30.1-42.3,52.4-49.6L565.4,34c22.4-7.5,45.7-3.7,66.1,10.1
                                    c20.2,14,34.9,36.5,40.9,63.6c12,53.1-12.1,109.2-54.9,127.4l0.8,3.3l139.4-46.5c22.4-7.5,45.7-3.7,66.1,10.1
                                    c20.4,13.8,34.9,36.5,40.9,63.6c11.8,51.9-10.4,105.9-51.5,126l1,3.3l49.2-16.4c22.4-7.5,45.7-3.7,66.1,10.1
                                    c20.2,14,34.9,36.5,40.9,63.6C983.1,508.8,955.9,567,909.6,582.4z" />

      <path class="st2" d="M937,440L937,440c-12.1-53.5-58.2-85.3-102.5-70.6l-46.3,15.4c38.7-18.9,60.7-70.6,49.3-120.6l0,0
                                        c-12.1-53.5-58.2-85.3-102.5-70.6l-131.3,43.7c40.7-17.5,64.2-70.8,52.6-122l0,0C644.2,61.8,598.1,30,553.8,44.7L236.7,150.4
                                        c-44.1,14.7-70.4,70.6-58.2,124.4l0,0c11.6,51.2,54.4,82.5,96.6,72.2l-166.2,55.4C64.7,417.1,38.5,473,50.7,526.8l0,0
                                        c12.1,53.5,58.2,85.3,102.5,70.6l46.3-15.4c-38.7,18.9-60.7,70.6-49.3,120.6l0,0c12.1,53.5,58.2,85.3,102.5,70.6l92.9-31.1
                                        c-34.1,21.5-52.6,69.9-42,116.4l0,0c12.1,53.5,58.2,85.3,102.5,70.6L789,801.4c44.1-14.7,70.4-70.6,58.2-124.4l0,0
                                        c-10.6-46.8-46.8-76.7-85.2-74.1l116.8-39C922.9,549.7,949.1,493.8,937,440z"/>
                            
</g>
</svg>
