<svg version="1.1" id="Layer_1" xmlns="http://www.w3.org/2000/svg" x="0" y="0" viewBox="0 0 1000 1000" xml:space="preserve">
  <style>
    .st0{fill:#e4e6e7}.st2{fill:#cacdcf}
  </style>
  <path class="st0" d="m512.1 40.3-64.7 76.6 34 94.4 98.7 17.7 64.7-76.7-34-94.3zm316.3 56.8-64.7 76.6 34.1 94.4 98.7 17.7 64.7-76.6-34-94.4zM378.5 775.8l-64.7 76.7 34 94.3 98.7 17.8 64.7-76.7-34-94.3zM96 535.2l-64.7 76.6 34 94.4 98.7 17.7 64.7-76.6-34-94.4z"/>
  <path class="st2" d="m412.8 591.6-64.7 76.7 34 94.3 98.7 17.7 64.7-76.6-34-94.4zm33.3-184.2L381.4 484l34 94.4 98.7 17.7 64.7-76.7-34-94.3zM303.5 286.9l-64.7 76.7 34 94.3 98.7 17.7 64.8-76.6-34.1-94.4zm174.8-63.8-64.7 76.6 34.1 94.4 98.7 17.7 64.7-76.7-34-94.3zM335.4 104l-64.7 76.6 34 94.3 98.7 17.8 64.8-76.7-34.1-94.3zM236 655.2l-64.7 76.7 34 94.3L304 844l64.7-76.7-34-94.3zm417.2-493.6-64.7 76.6 34 94.4 98.7 17.7 64.7-76.7-34-94.3zm-32.3 182.6-64.7 76.6 34 94.4 98.7 17.7 64.7-76.7-34-94.3zM762 465.3 697.3 542l34 94.3L830 654l64.7-76.6-34-94.4zm33.7-184L731 358l34 94.3 98.7 17.7 64.7-76.6-34-94.4zm-67.1 366.1L663.9 724l34 94.4 98.7 17.7 64.7-76.7-34-94.3zM128.7 351.5 64 428.1l34 94.4 98.7 17.7 64.7-76.7-34-94.3zm425.1 359.3-64.7 76.6 34 94.4 98.7 17.7 64.7-76.6-34-94.4zm32.9-182.9L522 604.5l34 94.4 98.8 17.7 64.7-76.6-34.1-94.4zm-315.4-55.3-64.7 76.6 34 94.4 98.7 17.7 64.7-76.6-34-94.4z"/>
</svg>