<svg version="1.1" id="Layer_1" xmlns="http://www.w3.org/2000/svg" x="0" y="0" viewBox="0 0 1000 1000" xml:space="preserve">
  <style>
    .st0{fill:#e4e6e7}.st2{fill:#cacdcf}
  </style>
  <path class="st0" d="M754.1 847.4h-3.8c-1.8-3.6-4.2-6.7-7.8-8.7-1.9-1-3.5-2.4-5.4-3.4-8.1-4.4-16.3-8.8-24.4-13.2-11.1-6-21.4-13-29.1-23.2-.7-1-2.1-1.7-3.4-2.1-4.7-1.5-9.2-3.4-13.2-6.3-3.8-2.7-7.4-5.5-11-8.4-4.2-3.4-8.3-6.7-13.4-8.7-11.8-4.8-23.1-10.8-33.4-18.4-1.6-1.2-3-1.4-4.8-.7-5.1 2-9.6.8-13.4-2.9-.6-.6-1.3-1.2-1.9-1.9-1.3-1.5-2.7-1.9-4.7-1.5-5.2 1.1-10.4.6-15.6-.9-2.3-.7-4.6-1.2-6.9-1.8-6.2-1.7-12.4-1.5-18.4.9-2 .8-3.8.8-5.7-.3-1.7-1.1-3.5-1.9-5.4-2.6-5.4-2.2-6.1-1.9-8.5 3.5-.1.2 0 .5.1 1 8.2 4.5 16.5 9.3 26.3 11.5-1.6 3-3.7 3.4-6.2 3-2.7-.5-5.2-.3-6.9 2-3.9-3.6-4.5-3.7-8.5-1.1-.5.3-1 .7-1.6 1-1.4.7-2.6.8-4-.5-1.2-1.1-3.1-1.5-4.7-2s-3.5-.4-4.5-2.6c1.2-.9 2.4-1.7 3.6-2.6 2.4-1.9 2.5-2.9.5-5.3-1.1-1.3-2.4-2.5-3.6-3.9-2.5 1.6-4.9 3.1-7.5 4.7 1.4 1.6 2.5 2.9 3.6 4.1-2.8 5-8.6 6.3-13.4 2.7-1.7-1.2-3.2-1.6-5.2-1.4-5.1.4-10.2.8-15.3 1-9.1.2-18.3.2-27.4.3-1.5 0-3.1.2-4.6.4 0 .3-.1.7-.1 1 1.1.3 2.2.8 3.4 1 2.6.4 5.2.5 7.8 1.1 2 .5 4.1 1.3 5.7 2.4 1.5 1.1 2.7 1.5 4.4.5 1-.6 2.1-1.1 3.1 0 3.2 3.9 7.8 4.6 12.3 5.7 2.3.6 4.5 1.4 6.6 2.6 2.1 1.1 3.6 3 3.9 6.1-1.8 0-3.5.2-5 0-3.2-.6-6.3-1.4-9.5-2.3-4.7-1.4-9.5-2.8-14.4-1.5-4.3 1.2-7.8 1.1-10.6-2.9-2.8 1.5-5.3 2.8-7.9 4-1.1.5-2.5 1.1-3.5.7-5.9-2.3-12.2-2.5-18.4-3.3-2.1-.3-4.4-1.3-6.1 1.1-.3.4-1.2.4-1.8.4-4.7.2-9.5.5-14.2.4-10.8-.3-21.5-.3-31.8 3.5-1 .4-2.3.5-3.2.1-6.6-3.3-13.1-2.5-19.6 0-2.7 1-5.1 3.2-8.3 1.8-.3-.1-.7.1-1.1.2-1.8.6-3.6.9-5.2-.7-.4-.4-1.6-.2-2.4-.1-3.9.9-7.7 2-11.7 2.7-16 2.5-32.1 5-48.2 7.3-14.1 2-28.2 4.3-42 7.8-2.1.5-4.4.7-6.6.6-7.1-.2-14.2-.4-21.3-1-6.2-.5-12.4-1.5-18.6-2.3-2.1-.3-3-1.5-2.9-3.6.1-1.6-.2-3.2-.2-4.9.5-.4.9-.8 1.4-1.2 7.2-5.3 15.3-7.8 24.1-8.4 4.9-.4 9.7-.7 14.6-1.2 2.3-.2 4.5-.9 6.8-1.4-.6-1-1.1-1.4-1.6-1.5-3-.2-6-.4-9-.3-7.5.2-15 .6-22.5.7-2.6 0-5.2 0-6.8-1.1-1.1-2.7-1.9-4.6-2.5-6.5-.3-.9-.7-2.2-.3-2.8 2.1-2.6 3.8-5.7 7.8-6.3 6.8-1 13.5-2.5 20.3-3.6 8.1-1.3 16.3-2.5 24.5-3.7 1.9-.3 3.6-.9 5.5-1.4 0-.3-.1-.5-.1-.8-.7-.1-1.4-.3-2.1-.2-3.1.2-6.2.5-9.3.9-13.6 1.4-27.1 2.6-40.8 1.7-2.3-.2-4.6-.6-6.8-.9.2-3.9 2.1-5.6 5.3-6.2 3.5-.7 7.1-1.6 10.6-2.4 5.4-1.2 10.7-2.4 16.1-3.6 1.2-.3 2.5-.6 3.7-2.2-3.1 0-5.7-.1-8.3 0-5.5.3-11 .8-16.5 1.1-1.6.1-3.4.4-5.1-1 .8-.6 1.4-1.1 2-1.4 5-2.9 10.5-3.9 16.1-4.5 3.6-.4 7.2-.7 10.8-1.1.7-.1 1.3-.6 2-.9-1-.6-1.8-.9-2.7-.8-3.4.3-6.7.5-10.1.9-1.9.3-3.5 0-5.3-1-2.7-1.5-5.6-3-8.6-3.6-5-1-10.1-1.7-15.2-1.9-6.7-.3-13.5-.1-20.3-.1-5.9 0-11.8-.5-17.3-2.8-2.6-1.1-4.9-1.1-7.6-.5-7.3 1.7-14.4 1.3-20.9-3.1-1.5-1-3-1.1-4.6-1-3.2.3-6.2-.6-8.8-2.4-1.9-1.4-3.8-2.9-5.8-4.2-1.7-1.1-1.8-2.4-1.2-4.2 1.7-5.2 5.3-8.7 9.5-11.7 1.1-.8 2.1-1.5 2.7-1.9-2.1-5.9-4-11.1-5.9-16.4-.7-1.9-1.3-3.8-2.2-5.6-.4-.8-1.3-1.7-2.1-1.9-5.1-1.1-10.2-2.3-15.4-3-1.7-.3-2.9-.7-3.5-2.2-1-2.4-2.2-4.8-2.8-7.3-1.4-5.3-2.4-10.7-3.6-16.1-.8-3.5-2.4-6.5-4.8-9.2-1.8-2.1-4-2.8-6.7-2.1-1.6.4-3.1.9-4.7 1.1-1.5.2-3.1.2-3.9-1.8 1.4-2.8 4.9-3.1 6.9-5.6-3.6-8.5-10.6-15.2-13.2-24.3 2.5-2.1 4.9-4.1 7.4-6.2-1.4-1.2-3.1-2-3.4-3.1-.3-1.1 1-2.5 1.8-4.4-1.5.2-2.6.3-3.6.6-1.9.5-3.8 1.2-5.8 1.4-1.1.1-3-.3-3.3-.9-1.1-2.9-2.4-5.9-2.3-8.9 0-3.6 1.4-7.1 2.1-10.6.4-1.7 1.2-3 2.8-3.8 1.3-.7 2.7-1.3 4-2.1 1.8-1.1 3.7-2.1 5.3-3.6.8-.7 1.5-2.3 1.2-3.2-.3-.8-1.9-1.3-3-1.5-1.2-.2-2.5.2-3.7.2-1.3 0-2.6-.1-4.5-.2.8-4.2 1.5-8 2.3-11.7 1.2-5.7 3.6-10.9 7.7-15.2 1-1 1.4-1.9 1-3.3-.8-2.9.2-5.4 1.8-7.8 1.6-2.3 3.3-4.4 4.7-6.8 1.2-2 2.8-4.3 2.7-6.4-.2-3.7 1.8-5.8 4-7.9 1.4-1.4 3.1-2.5 4.8-3.8-.2-.9-.2-1.8-.5-2.8-1.3-4.4-.8-8.7 1.2-12.8 1.4-2.9 3.1-5.8 5.2-8.2 3.9-4.4 8.1-8.5 12.3-12.6 5.1-5 10.5-9.7 14.7-15.5 3-4.1 5.1-8.7 5-13.9 0-1.8.8-2.7 2.2-3.5 8.4-5.2 14.6-12.4 18.9-21.3 2.1-4.3 4.1-8.6 6.3-12.8 1.8-3.4 3.8-6.7 7-9.1 3.5-2.6 6.7-5.6 9.9-8.5 3.1-2.8 5.9-5.7 9-8.5 13.3-11.9 28.3-21.4 43.7-30.3 12.8-7.3 25.5-14.8 38.2-22.3 1.3-.8 2.6-1.7 3.8-2.6-.1-.3-.3-.6-.4-.9-1.1.3-2.3.4-3.3.9-2 .8-3.8 1.9-5.7 2.8-2.4 1.1-4.7 2.3-7.2 3.2-1.8.7-3.7 1-4.8-1.2.1-.3.2-.6.3-.8.3-.4.6-.8 1-1.1 4.7-3.8 10-6.6 15.7-8.6 5-1.7 9.8-3.7 14.7-5.7 1.2-.5 2.4-1.4 3.3-2.4 3.1-3.7 6.9-6.5 11.1-8.9 7.7-4.4 16-6.9 24.5-9.2 7.9-2.2 15.9-4.3 23.6-7.2 12.3-4.7 24.3-9.8 37-13.2 18.7-5.1 37.3-10.3 55.4-17.5 9.2-3.7 18.6-6.5 28.7-6.9 1.1 0 2.2-.5 3.2-1 10.4-5.2 21.4-8.3 32.8-10.5 8.8-1.7 17.7-3.5 26.1-6.8.7-.3 1.4-.8 2.3-1.4-1.8-3.1-4.5-3.6-7.3-3.2-3.8.6-7.6 1.4-11.3 2.6-5.3 1.8-10.5 4.1-15.7 6-1.3.5-2.5 1.7-4.5.6 1-1.2 2.3-2.1 2.6-3.2.8-2.7 2.9-3.6 5.1-4.5 1.8-.8 3.7-1.6 5.5-2.3 9.3-3.6 19.1-4.7 29-5.8 8.1-.9 16.1-2.1 23.9-4.6 1-.3 2.1-.5 3.2-.8.8 1.1 1.4 2 2.2 3.2 9.1-4.3 18.9-5.4 28.6-7.9-.1 1.4-.1 2.3-.2 3.4 12.8-.4 25.4-1.2 38-1.3 12.6-.1 25.2.4 37.9.7 12.5.3 25 .6 37.5 1.8-3.9 3.1-8.3 4.8-13 5.5-6.8 1-13.6 1.7-20.4 2.6-1.4.2-2.7.7-4 1v1c1.6.4 3.2 1 4.9 1.2 1.7.3 3.5.2 5.2.6 2.9.7 5.7 1.7 8.6 2.3 1.4.3 2.9.4 4.3.3 9.5-.5 18.9-1.2 28.4-1.4 10-.2 20 .3 30 .2 4.8 0 9.7-1 14.3 1.5.6.3 1.5.4 2.2.4 5.7.4 11.5.9 17.2 1.1 2.6.1 4.8.5 7.1 1.7 12.2 6.6 24.5 13 37.9 17.1.9.3 2 .8 2.4 1.6 1 1.9 1.8 4 2.9 6.8-2.3-.1-3.9 0-5.4-.4-4.9-1.1-9.7-2.5-14.5-3.6-2.1-.5-4.4-.8-6.4.5.1.4.1.7.3.9 4.5 4 9 7.9 13.4 11.9 3.7 3.4 7.8 6.3 12.8 7.5.6.1 1.2.6 1.9.9-5 4.5-8.9 3.9-12.4-2.1-1.2.4-2.4.9-3.7 1.2-1.4.3-2.9.3-4.4.4-2.2 2 0 4.1.1 5.7-2.1 1.7-4.1 3-5.8 4.6-2.9 2.8-3.1 3.3-.3 6.1 3.1 3.2 6.5 6.2 9.9 9.2 3.7 3.2 7.6 6.1 11.3 9.2.6.5.9 1.3 1.5 2.1-3.4 2.5-6.7 2.6-10.1.8-1.5-.8-2.9-2-4.5-2.8-1.5-.8-3.1-1.6-5-.5.5 2.2 2.2 3.1 3.7 4.2 2.3 1.9 4.9 3.5 7 5.6 1.3 1.2 2.6 3.1 2.7 4.7.2 2.9 1.8 4.4 3.7 6.1 18.3 16.1 36.7 32.1 53.7 49.6 9.5 9.8 18.7 19.9 27.9 29.8.8.9 1.4 1.9 2.1 2.8-.2.2-.3.4-.5.6-1.1-.7-2.3-1.4-3.3-2.1-4.4-3.2-8.5-6.6-13.1-9.5-4.5-2.9-9.4-5.2-14.1-7.7-.6-.3-1.5-.2-3.1-.3 3.2 4.4 5.9 8.2 8.7 11.8 10.8 14 23.4 26.4 35.7 39 13.6 13.9 26.1 28.6 36.4 45.2.6 1 1.5 2.1 2.6 2.6 3.4 1.6 5.8 4.3 7.7 7.4l5.4 9c.2.4.2 1 .4 2.3-5.5-4.1-10.4-7.8-15.2-11.5-19.1-14.9-36.7-31.4-54.6-47.5-2.1-1.9-3.4-3.9-3.2-6.8.1-1.1-.2-2.2-.2-3.3-.5-.2-.8-.5-1.1-.5-6-.9-10.6-4-14.7-8.4-2.8-3-5.8-5.9-8.8-8.7-.5-.5-1.4-.7-2.5-1.2-.4 1.8-.8 3.2-1.1 4.4 3.3 2.7 6.4 5 9.1 7.8 6.2 6.4 12.2 12.9 18.2 19.5 6.7 7.3 13.2 14.7 21.2 20.6 1.1.8 1.8 2 2.6 3.1 2.4 3.3 4.5 7 7.2 10 7.4 8.1 15.2 15.9 22.7 24 3.9 4.1 7.7 8.2 11.3 12.6 4.4 5.3 7.8 11.3 9.8 18 .2.8.2 1.6.4 3.2-10.3-7.5-21.6-8.3-33.2-8-1.1-6.5-4.8-9.5-11-9-.2-.5-.3-.9-.5-1.2-1.2-2.2-1.9-5.4-3.8-6.5-7.1-4.1-13-9.7-19.4-14.7-2.6-2.1-5.4-4.1-8.3-5.7-4.5-2.6-9.4-4-14.7-3.7-1.7.1-2.7.6-2.4 2.5 0 .4.3.8.2 1.1-.4.7-.7 1.7-1.3 1.9-.7.2-2 0-2.3-.5-.4-.7-.2-1.8.1-2.6.3-.7 1.1-1.3 1.7-2-4.9-4.9-9.9-9.2-17.3-8.7-1 .1-2.3-.5-2.9-1.2-1.9-2.5-4.6-3.8-7.3-5.1-2.6-1.3-5.1-2.6-5.6-6.1-.8.9-1.3 1.7-1.7 2.6-.5 1.1-.8 2.4-1.4 3.5-1.9 3.6-3.4 3.7-6.9.3 1.3-.8 2.5-1.5 4.1-2.5-4.6-3.7-8.4-1.7-11.7-.6-1.8-.9-3.1-2-4.3-2-2.8 0-5-1-6.8-3.2-2.4 1.7-4.7 1.9-7.2.5-1.9-1-3.8-.7-5.5 1.6 2.8 1.3 5.4 2.5 8 3.6 16 6.8 32 13.5 47.9 20.5 13.5 5.9 26.5 13 38.5 21.7 1 .7 1.9 1.5 3.4 2.8-1.8.7-3 1.6-3.9 1.4-2.2-.6-4.2-1.8-6.6-2.8-4.7 4.1-10.6 4.7-16.9 4-1.8-.2-3.8 0-5.6.2-2.1.3-3.3-.1-3.9-2.3-.4-1.5-1.2-3.1-3.4-2.9-3.8.3-6.8-1.4-9.5-3.7-1-.9-2.1-1.8-3.2-2.6-3.4-2.6-7.2-3.5-11.3-1.9-1.6.6-2.8.3-4-.9-1.7-1.6-3.6-3.1-5.5-4.5-7.1-5.1-15.4-7-23.8-8.5-2.4-.4-4.8-.7-8-1.2.8 1.1 1 1.7 1.4 2.1 2.5 1.9 4.9 3.9 7.6 5.4 7.2 4.2 15.1 6.6 22.9 9.2 8.2 2.6 16.5 5.2 24 9.4 1.9 1.1 3.8 1.7 6 1.6 1.2 0 2.7.1 3.5.8 3.8 3.4 8.5 4.5 13.3 5.6 2.2.5 4.1.3 6.1-.8 1.4-.8 2.8-2.1 4.7-1.7.3 2.6.6 5 1 7.4 3.5.8 6 0 7.7-2.9.9-1.6 2.2-3 3.3-4.5 1.3-1.8 3.1-2.7 5.4-3 5.8-.8 11 .7 15.4 4.5 3.8 3.4 7.3 7.2 10.9 10.8.2.2 0 .7 0 1.2-3.5 1-6.7.2-9.8-1.3-2.5-1.2-4.8-2.8-7.4-3.6-2.2-.7-4.7-.9-6.9-.6-1.7.2-3.9.7-4.6 2.8 4.9 2.2 9.6 4.3 14.2 6.4 6.3 2.9 12.8 5.2 19.9 4.3 1.6-.2 2.6.5 3.4 1.7 3.4 4.8 8 8.2 13 11.2 3.1 1.9 6.4 3.5 9.4 5.5 4.8 3.2 9.4 6.5 14.1 9.9.5.4.9 1 1.6 2-4.7.3-8.7-.6-12.6-1.5-8.4-2-15.7-6.5-22.9-11-5.7-3.6-11.5-7.1-18-9.2-1-.3-2-.4-3.2-.6-.4 2.9.1 5 1.7 6.7 1.4 1.5 3 3 4.7 4.3 3.5 2.6 7.1 5.1 10.6 7.8 1.1.8 1.9 2.1 2.8 3.2-.1.3-.3.6-.4.8-1 0-2.1.1-3.1 0-3.5-.6-6.9-1.1-10.3-1.9-5.7-1.3-11.5-2.6-17.4-1.7-.5.1-1.2-.2-1.9-.4 0-.9 0-1.6.1-2.3.2-1.4-.5-2.1-1.7-2.5-4-1.5-7.8-1-11.4 1.5 1.2 2.6 3.5 3.7 5.6 5 2.4 1.6 4.9 3 7.3 4.6 3 2.1 3 2.6.2 5.3-.2.1-.1.5-.3.8 1.6 2.5 4.2 4 6.7 5.7 4.4 2.9 9 5.5 13.2 8.5 5.8 4.1 8.9 9.8 7.9 17.1-.3 2.4.1 4.1 2.4 5-.3 1.1-1 2.1-.8 2.7 1.1 2.5-.4 4.2-1.8 5.8 1.2 2.6 2.3 5 3.4 7.3 1.3 2.8-1.1 4.9-1.4 7.8 1.2-.2 2.1-.3 3.1-.5 1.1-.2 2.1-.6 3.5-.9 1 2.3 1.9 4.4 2.8 6.4-3.9 4-3.9 4-4.7 9.8-.2 1.5-.6 2.9-2.5 3.6-.9-1.6-1.9-3.1-2.7-4.6-3.6 1.5-7 2.7-10.2 4.2-2.1.9-2.5 3.3-.8 4.9.9.9 2.1 1.4 2.9 2.3.6.7 1.2 2.1.9 2.5-.5.7-1.8 1.4-2.7 1.3-1.6-.2-3.1-1-4.5-1.7-1.3-.6-2.5-1.8-3.9-2.2-1.2-.3-2.6 0-3.9.1.1 1 .3 2.1.5 3.1 0 .2.2.4.3.7.6 1.9 0 2.9-2.4 3.8-1.9.8-2.8.5-3.6-1.4-.5-1.2-.9-2.5-1.5-4.2-2.2.5-4.3.8-6.3 1.4-5.1 1.5-9.4 4.5-13.8 7.4-1.4.9-2.9 1.8-4.7 2.9-.1-1.1.1-1.7-.2-2.1-.3-.5-.8-.9-1.3-1.4-.4.6-1 1.1-1.1 1.7 0 .8.5 1.7.7 2.5 1 2.8.4 3.9-2.4 4.7-3 .8-5.4-.5-6.5-3.5-.3-.9-.6-1.8-1.1-3.1-2 1.3-3.6 2.5-5.4 3.4-1.7.9-3.5 1.5-5.2 2.3 1.4 2.9 3.7.7 5 1.2-.3 2.8-.6 5.3-.9 8.1-1.9.6-4.1 1.2-4.4 4.1-.2 2-.8 4-1.4 6.6 1.2.7 2.9 1.7 4.6 2.7 2.5 1.6 2.8 2.3 1.4 4.8-.9 1.6-1.8 3.2-2.7 4.9-2.4 0-2.4 0-4.2.9.3.4.5.9.9 1.1 4.2 2.9 7.2 6.9 10.2 10.9 1.8 2.4 1.6 3.2-1 4.7-.7.4-1.5.8-2.4 1.3 1.2 2.3.3 4.1-1 5.6-2.4 2.9-4.8 5.8-7.5 8.3-2.7 2.6-5.7 4.7-8.9 7.3 2.6 2.8 1.2 5.8 0 8.7-1.2 2.9-2.2 5.8-.5 8.9-1 .9-1.9 1.5-2.7 2.3-1.9 2-1.8 3 .1 5 1.2 1.3 2.2 2.7 3.4 4 1.2 1.2 2.5 2.3 4 3.7-1.1 1.3-2 2.4-3 3.5-1.2 1.3-2.8 2.4-3.4 3.9-1.6 3.6-4.2 4.3-7.6 3.7h-.7c-3.2.3-4.4 2.1-3.4 5.2.4 1.2.9 2.3 1.4 3.5-1.1.7-2.1 1.4-3.2 2.1.4.5.6.9.9 1 1.3.5 2.2 1.3 2 2.8-.3 1.5-1.6 1.7-2.8 2-.7.2-1.4.6-2.5 1.1.9.7 1.4 1.1 1.8 1.5.4.5.8 1.1 1.3 2-1.1.2-1.8.5-2.4.5-1.9-.2-3.7-.5-5.6-.7-3.8-.3-6.5.2-7.7 4.7-.5 1.9-1.7 3.3-3.6 4.1-.8.4-1.4.9-2.5 1.5 1 1.7 1.6 3.3 2.7 4.6 1.4 1.6 3.2 2.8 4.7 4.3 1.2 1.2 2.5 2.5 3.3 4 .9 1.7 1.5 3.8.1 5.7-.8 1-3.3.3-5.4-1.4-.7-.5-1.3-1.2-1.9-1.8-1-.8-2-1.6-3.1-2.1-2.4-1.2-4-.7-5.2 1.7-.7 1.5-1.2 3.2-1.8 4.9-4-.7-8.1-1.4-12.1-2.1-5-.8-6.1.1-5.8 5.2 0 .5.1 1 .1 1.5-.4 2.5-.7 4.3-2.2 5.7zm4.4-457.6c-1.8-1.3-2.9-2.5-4.2-3-2.6-1.1-5.4-2.1-8.1-2.7-5.1-1.2-10.2-2.3-14.4-5.9-1.1.6-2.1 1.1-3 1.5.2.4.2.7.4.9 8.4 7.5 15.6 16.2 23.1 24.6 5.3 6 10.9 11.7 17.3 16.6 7.5 5.7 15.8 9.5 25.3 10.5 3.2.3 6.4.4 9.5.6.9 1.8 1.8 3.4 2.7 5.2 2-.9 3.8-1.7 5.2-2.4 4 3.5 7.7 6.6 11.4 9.8 1.6 1.4 3.2 2.8 4.7 4.3 1.4 1.4 2.3 3.7 3.9 4.4 1.8.8 4.1.1 6.2.1 1.7 0 3.2-.3 4.5-1.6-2.4-4-6.7-6.6-7-11.8 2.8-1.3 5.5-1.9 8.4-.9 2.8 1 8.5-1.7 9.6-4.5.1-.2-.1-.5-.3-.9-4 .3-8.1.4-12.1.9-1.1.1-2.2 1.1-3.2 1.8-.7.4-1.3 1-2.1 1.6-2.3-2-4.4-3.9-6.6-5.8-8.8-7.4-18.7-13.3-28.7-19-13-7.3-26.3-13.8-38.3-22.8-.4-.3-1.1-.4-1.6-.6-1 1.9-1.9 3.6-3.2 6.1-1-2.5-3.4-2.7-3.8-4.9 1.1-.6 2.3-1.2 4.4-2.1zm69.7-44.6c-1.3-2.8-2.5-5.3-3.6-7.8-.5-1.2-1.1-2.1-2.7-2.2-1.7-.1-3.4-.4-5.1-.9-1.4-.3-2.6-.9-3.7.8.4 1.9 2.2 2.5 3.6 3.4 1.8 1.2 2.9 2.7 2.4 5-.1.4.1.9.2 1.4 3 .7 5.8 1.5 8.9.3zm20 19.7c-2.7-6.7-9-9.8-12.7-15.6-2 1.3-3.7 2.4-5.4 3.7-1 .7-1.3 1.9-.5 3 .7 1 1.7 1.4 2.9.9.5-.2.9-.4 1.4-.6 3-1.2 3.3-1.1 5.3 1.4 1.4 1.8 2.7 3.6 4.1 5.3 1 1.3 2.5 2.2 4.9 1.9zm-22.5 17.8c0-.3.1-.5.1-.8-2.9-3.7-5.6-7.6-8.6-11.2-1.3-1.6-3-2.9-4.7-4.2-.7-.5-1.7-.6-3.4-1.2 3.2 7.2 6.8 12.9 12.9 16.5 1 .6 2.4.6 3.7.9zM515.6 203.3c4.9.3 9.7.9 14.4 0 1.4-.3 2.8-.9 4.2-1.5.6-.3 1-1.1 1.9-2.3-5-.3-9.3-.7-13.6-.6-2.8 0-5.4 1.2-6.9 4.4zM409.8 758.7l-6-.9c-1.6-.2-3.3-.5-4.2 1.3 2.8 3 6.9 2.7 10.2-.4zm489.9-269.3c1.9 3.7 3.6 4.4 6.7 2.6-1.4-3.4-3.6-4.2-6.7-2.6zm6.8 137.7c-1.8 1.6-3 2.3-3.8 3.3-.8 1-.2 2.9.7 2.6 1.5-.3 3-1.1 4.1-2 .3-.3-.5-1.9-1-3.9zm-71.6-236.5c-2.8-4.3-3.7-4.9-6-4 3.3 5.1 3.3 5.1 6 4zm9.4 69.6c1.3-.6 2.4-1.1 3.4-1.8.4-.3.7-1.1.6-1.5-.1-.5-.8-1.2-1.2-1.2-1.2.1-2.5.3-3.4.9-1.3 1-.5 2.2.6 3.6zm1.7 202.5c-2.5-3.3-3.5-3.6-6.3-2.1 1.9 2.9 2.4 3 6.3 2.1zm30.2-131.1c-.4 1.8.6 2.6 1.8 3 1.4.4 2.7 0 3.5-1.4-1.3-1.9-3-2.1-5.3-1.6zM768.6 252.4c2.1-.2 3.1-1 3.4-2.5.1-.5-.3-1.6-.7-1.7-.5-.2-1.6.1-1.8.6-.6 1-.6 2.1-.9 3.6zm-170.7-55.9c2.3 2.7 3.4 2.6 5.8-.4-2.1.2-3.8.3-5.8.4zm286.7 337.9v1c.8 0 1.5-.1 2.3-.1v-.7c-.8-.1-1.6-.2-2.3-.2z"/>
  <path class="st0" d="M949.9 531.2c-3.6-.2-5.6-2.1-5.8-5.7 0-.6.5-1.5 1-1.7.5-.2 1.6.1 1.9.5.6.9.9 2 1.4 3 .4.8 1 1.6 1.5 2.4v1.5zM296.8 246.6c1.1-1.7 2.1-3.5 3.2-5.2l-.5-.5c-.6.3-1.2.5-1.8.8-5.6 3.1-11 6.5-16.7 9.3-6.6 3.3-13.3 6.4-18.3 12.1-.2.2-.6.3-1.2.5-1-2.2.2-4 1-5.6.9-1.8 2.2-3.3 3.4-4.9.9-1.2 2-2.3 2.5-3.7 1.1-3.2 3.5-4.6 6.2-6 10.8-5.5 21.5-11.2 32.3-16.6 5.4-2.7 11-4.8 17-5.7 3.2-.5 6.5-.4 9.7-.7 1.4-.1 3-.4 4.2-1.1 10-6.5 21-10.5 32.5-13.2 9.2-2.2 18-5.4 26.2-10.1 1.6-.9 3.2-1.9 5.3-.8.6.3 2 0 2.7-.5 5.7-3.9 12.2-5.7 18.9-6.7 1.1-.2 2.3-.5 3.1-1.1 7.2-5.7 15.7-8.2 24.2-10.6 6.9-1.9 13.6-4.3 20-7.5 1.2-.6 2.7-1.1 3.9-.8 4.6 1.3 9 .4 13.3-.9 7.4-2.2 14.7-4.7 22.1-7.1 3.5-1.1 7-2.4 11.1-2.5-.1 4-4 5.4-5.2 8.4 5 1.3 19.9-4.1 24.3-8.8-1.6-2.4-4.6.3-6.7-2.2 6.8-2 13.6-2.4 20.2-3.2 6.8-.9 13.6-.8 20.8-.4-.5 2.3-2 2.8-3.6 3-1.3.2-2.7 0-4.1-.1-1-.1-2-.5-3-.3-1.1.3-2.8.8-3 1.6-.3 1.1.2 2.6.8 3.8.3.6 1.5 1 2.2.9.5-.1 1-1.2 1.2-1.9.5-2.5 1.2-3.1 3.4-1.9 4.7 2.8 9.8 2.7 14.9 2.3 3.4-.2 6.7-.7 10.1-1 .6-.1 1.1.1 1.9.9-1.2.6-2.4 1.6-3.8 1.9-4.1.9-8.3 1.6-12.5 2.4-4.5 1-9 2.1-13.5 3.1-1.1.2-2.3.6-3.2.3-6.1-1.9-12.1-1.2-18.2-.4-5.5.7-10.9 1.9-16.3 2.3-4.3.4-8.7-.1-13-.1-1.2 0-2.5.1-3.5.6-10.4 5.1-21.6 7.8-33 9.6-10.1 1.6-19.8 4.3-28.9 8.8-1.4.7-3.1 1.1-4.7 1-11.4-.1-22 2.8-31.8 8.6-1.4.8-3.3 1.1-4.9 1.3-1.7.2-3.5.1-5.2 0-3.2-.1-6 .5-8 3.6-2.1-2.1-3.9-1-6 .1-8.4 4.4-17 8.5-25.5 12.7-3 1.5-5.9 3.2-8.8 4.7.1.3.1.6.2.9 1-.1 2-.2 2.9-.4 13-3.1 25.6-7.5 38.2-12.2 9.7-3.7 19.5-7.2 29.2-10.7 1.3-.5 2.4-.9 3.8.1.8.6 2.4.5 3.5.3 2.3-.5 4.4-1.8 6.9-1 .4.1 1.2-.4 1.6-.8 3.4-3.4 8.1-3.6 12.6-4.3-.5.6-.9 1.3-1.5 1.7-5.4 3.8-11.2 6.6-17.7 7.9-.7.1-1.6.4-2.2.1-2.7-1.1-4.8.3-7.1 1.1-11.3 4.2-22.4 8.5-33.9 12.2-21 6.7-41.5 14.5-62.1 22.1-9.6 3.5-19.3 6.8-29 10.2-.8.3-1.6.5-2.5.7-.3-.1-.5-.3-.6-.4zM321 232c4.7-1.7 9.4-3.5 14.1-5.2-.1-.2-.2-.5-.3-.7-5.1.3-9.6 2.6-13.8 5.9z"/>
  <path class="st0" d="M550.1 167.5c1 .9 1.6 1.3 2.1 1.9 1.2 1.2 2.4 1.5 4 .8 2.2-.9 4.5-1.6 6.8-2.1 1.1-.3 2.5-.3 3.6.1 4.8 1.6 9.3 1 13.8-1.2 1.8-.9 4.1-1.4 6.1-1.4 17.9-.1 35.8-.3 53.6 0 25.1.5 50.2 1.5 75.2 3.5 1.2.1 2.3.3 3.5.5l.3.9c-1.1.9-2 2.1-3.2 2.7-2.5 1.1-5.1 1.9-7.7 2.8-1.3.4-2.8.5-4 1.1-3.5 1.8-7.1 1.7-10.9 1.6-18.5-.2-37 0-55.5-.1-9-.1-18-.6-26.9-1.2-3.1-.2-5.9-.2-8.6 1.6-.7.5-1.6.7-2.5 1.1-3.1-3.2-6.9-3.1-10.8-2.5-5.2.8-10.4 1.7-15.5 2.6-3.7.7-7.4 1-11.1-.5-3.4-1.4-6.3.2-9.4 1.8-.6-.4-1.2-.7-1.8-1.1-2.6-1.8-5-2.5-8.2-.7-3.8 2.1-8.1 1.9-13.1.4 3.9-2.2 7.3-4 10.4-6 3.3-2.1 6.4-4.3 9.8-6.6zM656.6 139c3.6.8 7.2 2 10.9 2.3 7.8.7 15.7 1 23.6 1.5 6 .4 11.9 1 17.9 1.6.9.1 1.8.5 2.8 1.2-3.7.8-6.7 3.4-11.2 2.2-5.6-1.5-11.7-1.1-17.5-.6-5.9.5-11.7 1.2-17.5 1.8-1.1.1-2.3.3-3.3 0-9-2.1-18.1-1.7-27.2-1.2-8.6.5-17.2 1.2-25.8.1-1.2-.1-2.4-.5-3.8-.8 1.1-3.1 3.4-3.9 5.8-4.4 2.2-.5 4.4-.7 6.6-1.2 1.5-.3 3-.9 4.6-1.3 0-.3.1-.6.1-.9-1.1-.3-2.1-.8-3.2-1-5.9-1.1-11.9-1.4-17.9-1.1-12.3.7-24.3 3.1-36.3 5.4-.4.1-.8.4-1.4.7 1.1 1.9 2.7 1.4 4 1.3 3-.4 5.9-1 8.9-1.4 2.7-.4 5.5-.6 8.2-.8 1.2-.1 2.4.3 3.6.9-3.4 2-7.3 1.7-11 2.4s-7.4 1.1-11.1 1.6c-3.8.5-7.7.9-11.5 1.4-3.7.4-7.4.9-11.2 1 2-2.5 5.6-2.4 7.5-5.2-3.4-2.9-6.1.3-9.3.9-.4-1-.7-1.9-1.1-3 4.6-3 9.4-2.8 14-1.8 2.9.6 5.3.1 7.9-.8 10-3.8 20.3-6.2 31.1-6.1.7 0 1.5-.1 2.2.1 3.6.9 7 .6 10.5-1 1.9-.9 4.4-.7 6.8-1.1.1 1.2.2 2.1.3 3.3.5.1 1.1.2 1.6.3 2.9.6 5.2.3 6.3-3 .5-1.5 1.8-1.4 3.1-1.5 1.6 0 3.2-.2 5-.4 1.1.9 2.4 2.3 3.9 3.3s3.7.6 4.9 2.6c-3.5 2.4-8 .1-11.6 2.7 2.9 1.5 16.2 1.3 24.7-.4v-3.5c6-4.1 18.3-4.3 23.9-.3-2.7 2.1-5.9 2.7-9.1 2.9-3.1.3-6.3.1-9.5.1-.2.4-.2.8-.2 1.2zm-46.1-10.8c-2.4-1.4-4.3-2.6-6.9-4.1 1.2-1.1 2-2 3-2.6 4.3-2.7 9-4.2 14.1-4.5 3.6-.2 7.2-.3 10.9-.3 4.5 0 8.9-.6 13.2-2.2 1-.4 2.3-.6 3.2-.2 5.5 2.6 11.2 1.9 16.9 1.6 4.5-.3 9-.5 13.4-.7.7 0 1.4.2 2.6.5-3.8 3.2-7.8 4.9-12.1 5.5-4 .6-8.2.6-12.3.6-6 .1-12-.4-17.8 1.5-.8.3-2.2.2-2.8-.3-3.9-3.5-8.2-2.6-12.3-1.1-3.4 1.2-6.6 3-9.8 4.5-1.1.5-2.1 1.1-3.3 1.8zM455.9 202c.8 2.2 1.5 3.9 2.2 5.9-21 6.7-41.4 14.3-63.1 17.7.5-.6.9-1.2 1.5-1.6 4.7-3.3 10.1-4.8 15.6-6.3 4.4-1.1 8.7-2.2 13-3.4 3.4-1 6.5-2.6 9.1-5 .8-.7 2-1.3 2.9-1.2 4.7.5 8.9-1.1 12.9-3.1 1.9-.8 3.6-1.8 5.9-3zm-148.6 50.4c2-3.2 4.5-5.8 7.8-7.8 2.6-1.6 4.7-.4 6.8 1.8 6.8-3.4 13.5-6.9 20.5-10.4.8 1.9 1.5 3.4 2.4 5.5-6.5 1.9-12.7 3.7-18.8 5.6-6.1 1.9-12.2 4-18.3 6.1-.1-.3-.2-.5-.4-.8zm53.1-19c4.3-3.8 8.7-6.8 14.3-7.7 1.8-.3 3.5.1 4.3 2.3-.5.5-1 1.2-1.6 1.5-4 2-8 3.9-12.1 5.7-1.7.7-3.3.3-4.9-1.8zm261.6-73c7.9-4.1 16-5.2 24.7-4.1-1.5 3.3-2 3.4-4.7 3.1-2-.2-4.2.1-6.2.5-2.8.6-5.5 1.6-8.3 2.1-1.9.5-3.8.6-5.5-1.6zm-117.8 23.3c.8-4.3 3.4-5.7 6.3-6.4 2.8-.6 5.6-.9 8.5-1.1 1.9-.2 3.8 0 5.8.3-5.6 5.7-13.2 4.9-20.6 7.2zm-17.5 1.4c-5.7 4.4-11.8 4.1-18.4 4.2 5-4.8 14.4-6.9 18.4-4.2zm358.9 288.7c-7.5 2.4-11.1-3.2-16-6.1 3.9-1.5 10 .8 16 6.1zm-100-297c2.7-3.4 7.2-3.5 10.2-.1-2.6 3-6.7 3.1-10.2.1zm-230.7-29.4c.9-5 5-7.8 9.9-6.9-1.2 3.1-5.6 6.2-9.9 6.9zm52.4-21.5c3.8-2.2 8-2.4 12.6-2.9-2.1 2.8-2.1 2.8-12.6 2.9zm-237.5 80.9c2.7-4.2 6.4-4.8 10.3-5.9-1.3 2.9-4.6 4.8-10.3 5.9zm366.3-89.5c5.9-1.4 8.3-.8 9.6 2.5-3.3 0-6.5.7-9.6-2.5zm-138.4 9.1c-.2 3.3-.2 3.4-3.2 5.4-.9-1.1-1.8-2.2-2.8-3.5 1.7-1.7 3.9-1.4 6-1.9zm274.7 577.8c2.7-2.1 4-1.6 6.5 2.3-2.3 1.3-2.5 1.2-6.5-2.3zm-74.3-527.7c2-.4 4-1.1 6.1.4-1.1 2-2.7 2.5-4.7 2.2-.9-.1-1-.4-1.4-2.6zm39.8 246.4c-2.9 1.8-5.6 1.4-8.3.8-6.8-1.5-11.8-5.8-15.9-11.2-1.6-2-3.1-4.1-3.7-6.7 1.6-1.3 2.7-.4 4 .2 1.6.8 3.3 1.3 5.5 2.2.7 2.7 3.4 4.3 6.5 5.7 2.4 1.1 4.8 2.2 7 3.5 2.2 1.3 3.9 2.9 4.9 5.5z"/>
  <path class="st2" d="M784 840.6h-3.8c-1.8-3.6-4.2-6.7-7.8-8.7-1.9-1-3.5-2.4-5.4-3.4-8.1-4.4-16.3-8.8-24.4-13.2-11.1-6-21.4-13-29.1-23.2-.7-1-2.1-1.7-3.4-2.1-4.7-1.5-9.2-3.4-13.2-6.3-3.8-2.7-7.4-5.5-11-8.4-4.2-3.4-8.3-6.7-13.4-8.7-11.8-4.8-23.1-10.8-33.4-18.4-1.6-1.2-3-1.4-4.8-.7-5.1 2-9.6.8-13.4-2.9-.6-.6-1.3-1.2-1.9-1.9-1.3-1.5-2.7-1.9-4.7-1.5-5.2 1.1-10.4.6-15.6-.9-2.3-.7-4.6-1.2-6.9-1.8-6.2-1.7-12.4-1.5-18.4.9-2 .8-3.8.8-5.7-.3-1.7-1.1-3.5-1.9-5.4-2.6-5.4-2.2-6.1-1.9-8.5 3.5-.1.2 0 .5.1 1 8.2 4.5 16.5 9.3 26.3 11.5-1.6 3-3.7 3.4-6.2 3-2.7-.5-5.2-.3-6.9 2-3.9-3.6-4.5-3.7-8.5-1.1-.5.3-1 .7-1.6 1-1.4.7-2.6.8-4-.5-1.2-1.1-3.1-1.5-4.7-2s-3.5-.4-4.5-2.6c1.2-.9 2.4-1.7 3.6-2.6 2.4-1.9 2.5-2.9.5-5.3-1.1-1.3-2.4-2.5-3.6-3.9-2.5 1.6-4.9 3.1-7.5 4.7 1.4 1.6 2.5 2.9 3.6 4.1-2.8 5-8.6 6.3-13.4 2.7-1.7-1.2-3.2-1.6-5.2-1.4-5.1.4-10.2.8-15.3 1-9.1.2-18.3.2-27.4.3-1.5 0-3.1.2-4.6.4 0 .3-.1.7-.1 1 1.1.3 2.2.8 3.4 1 2.6.4 5.2.5 7.8 1.1 2 .5 4.1 1.3 5.7 2.4 1.5 1.1 2.7 1.5 4.4.5 1-.6 2.1-1.1 3.1 0 3.2 3.9 7.8 4.6 12.3 5.7 2.3.6 4.5 1.4 6.6 2.6 2.1 1.1 3.6 3 3.9 6.1-1.8 0-3.5.2-5 0-3.2-.6-6.3-1.4-9.5-2.3-4.7-1.4-9.5-2.8-14.4-1.5-4.3 1.2-7.8 1.1-10.6-2.9-2.8 1.5-5.3 2.8-7.9 4-1.1.5-2.5 1.1-3.5.7-5.9-2.3-12.2-2.5-18.4-3.3-2.1-.3-4.4-1.3-6.1 1.1-.3.4-1.2.4-1.8.4-4.7.2-9.5.5-14.2.4-10.8-.3-21.5-.3-31.8 3.5-1 .4-2.3.5-3.2.1-6.6-3.3-13.1-2.5-19.6 0-2.7 1-5.1 3.2-8.3 1.8-.3-.1-.7.1-1.1.2-1.8.6-3.6.9-5.2-.7-.4-.4-1.6-.2-2.4-.1-3.9.9-7.7 2-11.7 2.7-16 2.5-32.1 5-48.2 7.3-14.1 2-28.2 4.3-42 7.8-2.1.5-4.4.7-6.6.6-7.1-.2-14.2-.4-21.3-1-6.2-.5-12.4-1.5-18.6-2.3-2.1-.3-3-1.5-2.9-3.6.1-1.6-.2-3.2-.2-4.9.5-.4.9-.8 1.4-1.2 7.2-5.3 15.3-7.8 24.1-8.4 4.9-.4 9.7-.7 14.6-1.2 2.3-.2 4.5-.9 6.8-1.4-.6-1-1.1-1.4-1.6-1.5-3-.2-6-.4-9-.3-7.5.2-15 .6-22.5.7-2.6 0-5.2 0-6.8-1.1-1.1-2.7-1.9-4.6-2.5-6.5-.3-.9-.7-2.2-.3-2.8 2.1-2.6 3.8-5.7 7.8-6.3 6.8-1 13.5-2.5 20.3-3.6 8.1-1.3 16.3-2.5 24.5-3.7 1.9-.3 3.6-.9 5.5-1.4 0-.3-.1-.5-.1-.8-.7-.1-1.4-.3-2.1-.2-3.1.2-6.2.5-9.3.9-13.6 1.4-27.1 2.6-40.8 1.7-2.3-.2-4.6-.6-6.8-.9.2-3.9 2.1-5.6 5.3-6.2 3.5-.7 7.1-1.6 10.6-2.4 5.4-1.2 10.7-2.4 16.1-3.6 1.2-.3 2.5-.6 3.7-2.2-3.1 0-5.7-.1-8.3 0-5.5.3-11 .8-16.5 1.1-1.6.1-3.4.4-5.1-1 .8-.6 1.4-1.1 2-1.4 5-2.9 10.5-3.9 16.1-4.5 3.6-.4 7.2-.7 10.8-1.1.7-.1 1.3-.6 2-.9-1-.6-1.8-.9-2.7-.8-3.4.3-6.7.5-10.1.9-1.9.3-3.5 0-5.3-1-2.7-1.5-5.6-3-8.6-3.6-5-1-10.1-1.7-15.2-1.9-6.7-.3-13.5-.1-20.3-.1-5.9 0-11.8-.5-17.3-2.8-2.6-1.1-4.9-1.1-7.6-.5-7.3 1.7-14.4 1.3-20.9-3.1-1.5-1-3-1.1-4.6-1-3.2.3-6.2-.6-8.8-2.4-1.9-1.4-3.8-2.9-5.8-4.2-1.7-1.1-1.8-2.4-1.2-4.2 1.7-5.2 5.3-8.7 9.5-11.7 1.1-.8 2.1-1.5 2.7-1.9-2.1-5.9-4-11.1-5.9-16.4-.7-1.9-1.3-3.8-2.2-5.6-.4-.8-1.3-1.7-2.1-1.9-5.1-1.1-10.2-2.3-15.4-3-1.7-.3-2.9-.7-3.5-2.2-1-2.4-2.2-4.8-2.8-7.3-1.4-5.3-2.4-10.7-3.6-16.1-.8-3.5-2.4-6.5-4.8-9.2-1.8-2.1-4-2.8-6.7-2.1-1.6.4-3.1.9-4.7 1.1-1.5.2-3.1.2-3.9-1.8 1.4-2.8 4.9-3.1 6.9-5.6-3.6-8.5-10.6-15.2-13.2-24.3 2.5-2.1 4.9-4.1 7.4-6.2-1.4-1.2-3.1-2-3.4-3.1-.3-1.1 1-2.5 1.8-4.4-1.5.2-2.6.3-3.6.6-1.9.5-3.8 1.2-5.8 1.4-1.1.1-3-.3-3.3-.9-1.1-2.9-2.4-5.9-2.3-8.9 0-3.6 1.4-7.1 2.1-10.6.4-1.7 1.2-3 2.8-3.8 1.3-.7 2.7-1.3 4-2.1 1.8-1.1 3.7-2.1 5.3-3.6.8-.7 1.5-2.3 1.2-3.2-.3-.8-1.9-1.3-3-1.5-1.2-.2-2.5.2-3.7.2-1.3 0-2.6-.1-4.5-.2.8-4.2 1.5-8 2.3-11.7 1.2-5.7 3.6-10.9 7.7-15.2 1-1 1.4-1.9 1-3.3-.8-2.9.2-5.4 1.8-7.8 1.6-2.3 3.3-4.4 4.7-6.8 1.2-2 2.8-4.3 2.7-6.4-.2-3.7 1.8-5.8 4-7.9 1.4-1.4 3.1-2.5 4.8-3.8-.2-.9-.2-1.8-.5-2.8-1.3-4.4-.8-8.7 1.2-12.8 1.4-2.9 3.1-5.8 5.2-8.2 3.9-4.4 8.1-8.5 12.3-12.6 5.1-5 10.5-9.7 14.7-15.5 3-4.1 5.1-8.7 5-13.9 0-1.8.8-2.7 2.2-3.5 8.4-5.2 14.6-12.4 18.9-21.3 2.1-4.3 4.1-8.6 6.3-12.8 1.8-3.4 3.8-6.7 7-9.1 3.5-2.6 6.7-5.6 9.9-8.5 3.1-2.8 5.9-5.7 9-8.5 13.3-11.9 28.3-21.4 43.7-30.3 12.8-7.3 25.5-14.8 38.2-22.3 1.3-.8 2.6-1.7 3.8-2.6-.1-.3-.3-.6-.4-.9-1.1.3-2.3.4-3.3.9-2 .8-3.8 1.9-5.7 2.8-2.4 1.1-4.7 2.3-7.2 3.2-1.8.7-3.7 1-4.8-1.2.1-.3.2-.6.3-.8.3-.4.6-.8 1-1.1 4.7-3.8 10-6.6 15.7-8.6 5-1.7 9.8-3.7 14.7-5.7 1.2-.5 2.4-1.4 3.3-2.4 3.1-3.7 6.9-6.5 11.1-8.9 7.7-4.4 16-6.9 24.5-9.2 7.9-2.2 15.9-4.3 23.6-7.2 12.3-4.7 24.3-9.8 37-13.2 18.7-5.1 37.3-10.3 55.4-17.5 9.2-3.7 18.6-6.5 28.7-6.9 1.1 0 2.2-.5 3.2-1 10.4-5.2 21.4-8.3 32.8-10.5 8.8-1.7 17.7-3.5 26.1-6.8.7-.3 1.4-.8 2.3-1.4-1.8-3.1-4.5-3.6-7.3-3.2-3.8.6-7.6 1.4-11.3 2.6-5.3 1.8-10.5 4.1-15.7 6-1.3.5-2.5 1.7-4.5.6 1-1.2 2.3-2.1 2.6-3.2.8-2.7 2.9-3.6 5.1-4.5 1.8-.8 3.7-1.6 5.5-2.3 9.3-3.6 19.1-4.7 29-5.8 8.1-.9 16.1-2.1 23.9-4.6 1-.3 2.1-.5 3.2-.8.8 1.1 1.4 2 2.2 3.2 9.1-4.3 18.9-5.4 28.6-7.9-.1 1.4-.1 2.3-.2 3.4 12.8-.4 25.4-1.2 38-1.3 12.6-.1 25.2.4 37.9.7 12.5.3 25 .6 37.5 1.8-3.9 3.1-8.3 4.8-13 5.5-6.8 1-13.6 1.7-20.4 2.6-1.4.2-2.7.7-4 1v1c1.6.4 3.2 1 4.9 1.2 1.7.3 3.5.2 5.2.6 2.9.7 5.7 1.7 8.6 2.3 1.4.3 2.9.4 4.3.3 9.5-.5 18.9-1.2 28.4-1.4 10-.2 20 .3 30 .2 4.8 0 9.7-1 14.3 1.5.6.3 1.5.4 2.2.4 5.7.4 11.5.9 17.2 1.1 2.6.1 4.8.5 7.1 1.7 12.2 6.6 24.5 13 37.9 17.1.9.3 2 .8 2.4 1.6 1 1.9 1.8 4 2.9 6.8-2.3-.1-3.9 0-5.4-.4-4.9-1.1-9.7-2.5-14.5-3.6-2.1-.5-4.4-.8-6.4.5.1.4.1.7.3.9 4.5 4 9 7.9 13.4 11.9 3.7 3.4 7.8 6.3 12.8 7.5.6.1 1.2.6 1.9.9-5 4.5-8.9 3.9-12.4-2.1-1.2.4-2.4.9-3.7 1.2-1.4.3-2.9.3-4.4.4-2.2 2 0 4.1.1 5.7-2.1 1.7-4.1 3-5.8 4.6-2.9 2.8-3.1 3.3-.3 6.1 3.1 3.2 6.5 6.2 9.9 9.2 3.7 3.2 7.6 6.1 11.3 9.2.6.5.9 1.3 1.5 2.1-3.4 2.5-6.7 2.6-10.1.8-1.5-.8-2.9-2-4.5-2.8-1.5-.8-3.1-1.6-5-.5.5 2.2 2.2 3.1 3.7 4.2 2.3 1.9 4.9 3.5 7 5.6 1.3 1.2 2.6 3.1 2.7 4.7.2 2.9 1.8 4.4 3.7 6.1 18.3 16.1 36.7 32.1 53.7 49.6 9.5 9.8 18.7 19.9 27.9 29.8.8.9 1.4 1.9 2.1 2.8-.2.2-.3.4-.5.6-1.1-.7-2.3-1.4-3.3-2.1-4.4-3.2-8.5-6.6-13.1-9.5-4.5-2.9-9.4-5.2-14.1-7.7-.6-.3-1.5-.2-3.1-.3 3.2 4.4 5.9 8.2 8.7 11.8 10.8 14 23.4 26.4 35.7 39 13.6 13.9 26.1 28.6 36.4 45.2.6 1 1.5 2.1 2.6 2.6 3.4 1.6 5.8 4.3 7.7 7.4l5.4 9c.2.4.2 1 .4 2.3-5.5-4.1-10.4-7.8-15.2-11.5-19.1-14.9-36.7-31.4-54.6-47.5-2.1-1.9-3.4-3.9-3.2-6.8.1-1.1-.2-2.2-.2-3.3-.5-.2-.8-.5-1.1-.5-6-.9-10.6-4-14.7-8.4-2.8-3-5.8-5.9-8.8-8.7-.5-.5-1.4-.7-2.5-1.2-.4 1.8-.8 3.2-1.1 4.4 3.3 2.7 6.4 5 9.1 7.8 6.2 6.4 12.2 12.9 18.2 19.5 6.7 7.3 13.2 14.7 21.2 20.6 1.1.8 1.8 2 2.6 3.1 2.4 3.3 4.5 7 7.2 10 7.4 8.1 15.2 15.9 22.7 24 3.9 4.1 7.7 8.2 11.3 12.6 4.4 5.3 7.8 11.3 9.8 18 .2.8.2 1.6.4 3.2-10.3-7.5-21.6-8.3-33.2-8-1.1-6.5-4.8-9.5-11-9-.2-.5-.3-.9-.5-1.2-1.2-2.2-1.9-5.4-3.8-6.5-7.1-4.1-13-9.7-19.4-14.7-2.6-2.1-5.4-4.1-8.3-5.7-4.5-2.6-9.4-4-14.7-3.7-1.7.1-2.7.6-2.4 2.5 0 .4.3.8.2 1.1-.4.7-.7 1.7-1.3 1.9-.7.2-2 0-2.3-.5-.4-.7-.2-1.8.1-2.6.3-.7 1.1-1.3 1.7-2-4.9-4.9-9.9-9.2-17.3-8.7-1 .1-2.3-.5-2.9-1.2-1.9-2.5-4.6-3.8-7.3-5.1-2.6-1.3-5.1-2.6-5.6-6.1-.8.9-1.3 1.7-1.7 2.6-.5 1.1-.8 2.4-1.4 3.5-1.9 3.6-3.4 3.7-6.9.3 1.3-.8 2.5-1.5 4.1-2.5-4.6-3.7-8.4-1.7-11.7-.6-1.8-.9-3.1-2-4.3-2-2.8 0-5-1-6.8-3.2-2.4 1.7-4.7 1.9-7.2.5-1.9-1-3.8-.7-5.5 1.6 2.8 1.3 5.4 2.5 8 3.6 16 6.8 32 13.5 47.9 20.5 13.5 5.9 26.5 13 38.5 21.7 1 .7 1.9 1.5 3.4 2.8-1.8.7-3 1.6-3.9 1.4-2.2-.6-4.2-1.8-6.6-2.8-4.7 4.1-10.6 4.7-16.9 4-1.8-.2-3.8 0-5.6.2-2.1.3-3.3-.1-3.9-2.3-.4-1.5-1.2-3.1-3.4-2.9-3.8.3-6.8-1.4-9.5-3.7-1-.9-2.1-1.8-3.2-2.6-3.4-2.6-7.2-3.5-11.3-1.9-1.6.6-2.8.3-4-.9-1.7-1.6-3.6-3.1-5.5-4.5-7.1-5.1-15.4-7-23.8-8.5-2.4-.4-4.8-.7-8-1.2.8 1.1 1 1.7 1.4 2.1 2.5 1.9 4.9 3.9 7.6 5.4 7.2 4.2 15.1 6.6 22.9 9.2 8.2 2.6 16.5 5.2 24 9.4 1.9 1.1 3.8 1.7 6 1.6 1.2 0 2.7.1 3.5.8 3.8 3.4 8.5 4.5 13.3 5.6 2.2.5 4.1.3 6.1-.8 1.4-.8 2.8-2.1 4.7-1.7.3 2.6.6 5 1 7.4 3.5.8 6 0 7.7-2.9.9-1.6 2.2-3 3.3-4.5 1.3-1.8 3.1-2.7 5.4-3 5.8-.8 11 .7 15.4 4.5 3.8 3.4 7.3 7.2 10.9 10.8.2.2 0 .7 0 1.2-3.5 1-6.7.2-9.8-1.3-2.5-1.2-4.8-2.8-7.4-3.6-2.2-.7-4.7-.9-6.9-.6-1.7.2-3.9.7-4.6 2.8 4.9 2.2 9.6 4.3 14.2 6.4 6.3 2.9 12.8 5.2 19.9 4.3 1.6-.2 2.6.5 3.4 1.7 3.4 4.8 8 8.2 13 11.2 3.1 1.9 6.4 3.5 9.4 5.5 4.8 3.2 9.4 6.5 14.1 9.9.5.4.9 1 1.6 2-4.7.3-8.7-.6-12.6-1.5-8.4-2-15.7-6.5-22.9-11-5.7-3.6-11.5-7.1-18-9.2-1-.3-2-.4-3.2-.6-.4 2.9.1 5 1.7 6.7 1.4 1.5 3 3 4.7 4.3 3.5 2.6 7.1 5.1 10.6 7.8 1.1.8 1.9 2.1 2.8 3.2-.1.3-.3.6-.4.8-1 0-2.1.1-3.1 0-3.5-.6-6.9-1.1-10.3-1.9-5.7-1.3-11.5-2.6-17.4-1.7-.5.1-1.2-.2-1.9-.4 0-.9 0-1.6.1-2.3.2-1.4-.5-2.1-1.7-2.5-4-1.5-7.8-1-11.4 1.5 1.2 2.6 3.5 3.7 5.6 5 2.4 1.6 4.9 3 7.3 4.6 3 2.1 3 2.6.2 5.3-.2.1-.1.5-.3.8 1.6 2.5 4.2 4 6.7 5.7 4.4 2.9 9 5.5 13.2 8.5 5.8 4.1 8.9 9.8 7.9 17.1-.3 2.4.1 4.1 2.4 5-.3 1.1-1 2.1-.8 2.7 1.1 2.5-.4 4.2-1.8 5.8 1.2 2.6 2.3 5 3.4 7.3 1.3 2.8-1.1 4.9-1.4 7.8 1.2-.2 2.1-.3 3.1-.5 1.1-.2 2.1-.6 3.5-.9 1 2.3 1.9 4.4 2.8 6.4-3.9 4-3.9 4-4.7 9.8-.2 1.5-.6 2.9-2.5 3.6-.9-1.6-1.9-3.1-2.7-4.6-3.6 1.5-7 2.7-10.2 4.2-2.1.9-2.5 3.3-.8 4.9.9.9 2.1 1.4 2.9 2.3.6.7 1.2 2.1.9 2.5-.5.7-1.8 1.4-2.7 1.3-1.6-.2-3.1-1-4.5-1.7-1.3-.6-2.5-1.8-3.9-2.2-1.2-.3-2.6 0-3.9.1.1 1 .3 2.1.5 3.1 0 .2.2.4.3.7.6 1.9 0 2.9-2.4 3.8-1.9.8-2.8.5-3.6-1.4-.5-1.2-.9-2.5-1.5-4.2-2.2.5-4.3.8-6.3 1.4-5.1 1.5-9.4 4.5-13.8 7.4-1.4.9-2.9 1.8-4.7 2.9-.1-1.1.1-1.7-.2-2.1-.3-.5-.8-.9-1.3-1.4-.4.6-1 1.1-1.1 1.7 0 .8.5 1.7.7 2.5 1 2.8.4 3.9-2.4 4.7-3 .8-5.4-.5-6.5-3.5-.3-.9-.6-1.8-1.1-3.1-2 1.3-3.6 2.5-5.4 3.4-1.7.9-3.5 1.5-5.2 2.3 1.4 2.9 3.7.7 5 1.2-.3 2.8-.6 5.3-.9 8.1-1.9.6-4.1 1.2-4.4 4.1-.2 2-.8 4-1.4 6.6 1.2.7 2.9 1.7 4.6 2.7 2.5 1.6 2.8 2.3 1.4 4.8-.9 1.6-1.8 3.2-2.7 4.9-2.4 0-2.4 0-4.2.9.3.4.5.9.9 1.1 4.2 2.9 7.2 6.9 10.2 10.9 1.8 2.4 1.6 3.2-1 4.7-.7.4-1.5.8-2.4 1.3 1.2 2.3.3 4.1-1 5.6-2.4 2.9-4.8 5.8-7.5 8.3-2.7 2.6-5.7 4.7-8.9 7.3 2.6 2.8 1.2 5.8 0 8.7-1.2 2.9-2.2 5.8-.5 8.9-1 .9-1.9 1.5-2.7 2.3-1.9 2-1.8 3 .1 5 1.2 1.3 2.2 2.7 3.4 4 1.2 1.2 2.5 2.3 4 3.7-1.1 1.3-2 2.4-3 3.5-1.2 1.3-2.8 2.4-3.4 3.9-1.6 3.6-4.2 4.3-7.6 3.7h-.7c-3.2.3-4.4 2.1-3.4 5.2.4 1.2.9 2.3 1.4 3.5-1.1.7-2.1 1.4-3.2 2.1.4.5.6.9.9 1 1.3.5 2.2 1.3 2 2.8-.3 1.5-1.6 1.7-2.8 2-.7.2-1.4.6-2.5 1.1.9.7 1.4 1.1 1.8 1.5.4.5.8 1.1 1.3 2-1.1.2-1.8.5-2.4.5-1.9-.2-3.7-.5-5.6-.7-3.8-.3-6.5.2-7.7 4.7-.5 1.9-1.7 3.3-3.6 4.1-.8.4-1.4.9-2.5 1.5 1 1.7 1.6 3.3 2.7 4.6 1.4 1.6 3.2 2.8 4.7 4.3 1.2 1.2 2.5 2.5 3.3 4 .9 1.7 1.5 3.8.1 5.7-.8 1-3.3.3-5.4-1.4-.7-.5-1.3-1.2-1.9-1.8-1-.8-2-1.6-3.1-2.1-2.4-1.2-4-.7-5.2 1.7-.7 1.5-1.2 3.2-1.8 4.9-4-.7-8.1-1.4-12.1-2.1-5-.8-6.1.1-5.8 5.2 0 .5.1 1 .1 1.5-.3 2.6-.7 4.3-2.2 5.7zm4.4-457.6c-1.8-1.3-2.9-2.5-4.2-3-2.6-1.1-5.4-2.1-8.1-2.7-5.1-1.2-10.2-2.3-14.4-5.9-1.1.6-2.1 1.1-3 1.5.2.4.2.7.4.9 8.4 7.5 15.6 16.2 23.1 24.6 5.3 6 10.9 11.7 17.3 16.6 7.5 5.7 15.8 9.5 25.3 10.5 3.2.3 6.4.4 9.5.6.9 1.8 1.8 3.4 2.7 5.2 2-.9 3.8-1.7 5.2-2.4 4 3.5 7.7 6.6 11.4 9.8 1.6 1.4 3.2 2.8 4.7 4.3 1.4 1.4 2.3 3.7 3.9 4.4 1.8.8 4.1.1 6.2.1 1.7 0 3.2-.3 4.5-1.6-2.4-4-6.7-6.6-7-11.8 2.8-1.3 5.5-1.9 8.4-.9 2.8 1 8.5-1.7 9.6-4.5.1-.2-.1-.5-.3-.9-4 .3-8.1.4-12.1.9-1.1.1-2.2 1.1-3.2 1.8-.7.4-1.3 1-2.1 1.6-2.3-2-4.4-3.9-6.6-5.8-8.8-7.4-18.7-13.3-28.7-19-13-7.3-26.3-13.8-38.3-22.8-.4-.3-1.1-.4-1.6-.6-1 1.9-1.9 3.6-3.2 6.1-1-2.5-3.4-2.7-3.8-4.9 1.1-.5 2.3-1.1 4.4-2.1zm69.7-44.5c-1.3-2.8-2.5-5.3-3.6-7.8-.5-1.2-1.1-2.1-2.7-2.2-1.7-.1-3.4-.4-5.1-.9-1.4-.3-2.6-.9-3.7.8.4 1.9 2.2 2.5 3.6 3.4 1.8 1.2 2.9 2.7 2.4 5-.1.4.1.9.2 1.4 3 .7 5.8 1.4 8.9.3zm20 19.7c-2.7-6.7-9-9.8-12.7-15.6-2 1.3-3.7 2.4-5.4 3.7-1 .7-1.3 1.9-.5 3 .7 1 1.7 1.4 2.9.9.5-.2.9-.4 1.4-.6 3-1.2 3.3-1.1 5.3 1.4 1.4 1.8 2.7 3.6 4.1 5.3 1.1 1.3 2.5 2.2 4.9 1.9zm-22.5 17.7c0-.3.1-.5.1-.8-2.9-3.7-5.6-7.6-8.6-11.2-1.3-1.6-3-2.9-4.7-4.2-.7-.5-1.7-.6-3.4-1.2 3.2 7.2 6.8 12.9 12.9 16.5 1.1.7 2.5.7 3.7.9zM545.5 196.6c4.9.3 9.7.9 14.4 0 1.4-.3 2.8-.9 4.2-1.5.6-.3 1-1.1 1.9-2.3-5-.3-9.3-.7-13.6-.6-2.8-.1-5.4 1.2-6.9 4.4zM439.7 751.9l-6-.9c-1.6-.2-3.3-.5-4.2 1.3 2.8 3 6.9 2.8 10.2-.4zm490-269.2c1.9 3.7 3.6 4.4 6.7 2.6-1.5-3.4-3.7-4.3-6.7-2.6zm6.7 137.7c-1.8 1.6-3 2.3-3.8 3.3-.8 1-.2 2.9.7 2.6 1.5-.3 3-1.1 4.1-2 .3-.3-.5-2-1-3.9zm-71.6-236.6c-2.8-4.3-3.7-4.9-6-4 3.3 5.1 3.3 5.1 6 4zm9.4 69.7c1.3-.6 2.4-1.1 3.4-1.8.4-.3.7-1.1.6-1.5-.1-.5-.8-1.2-1.2-1.2-1.2.1-2.5.3-3.4.9-1.3.9-.4 2.1.6 3.6zm1.7 202.5c-2.5-3.3-3.5-3.6-6.3-2.1 1.9 2.8 2.4 3 6.3 2.1zm30.2-131.1c-.4 1.8.6 2.6 1.8 3 1.4.4 2.7 0 3.5-1.4-1.3-1.9-3-2.1-5.3-1.6zM798.5 245.6c2.1-.2 3.1-1 3.4-2.5.1-.5-.3-1.6-.7-1.7-.5-.2-1.6.1-1.8.6-.5 1-.6 2.2-.9 3.6zm-170.7-55.8c2.3 2.7 3.4 2.6 5.8-.4-2.1.1-3.8.3-5.8.4zm286.7 337.8v1c.8 0 1.5-.1 2.3-.1v-.7c-.8-.1-1.5-.1-2.3-.2z"/>
  <path class="st2" d="M979.9 524.5c-3.6-.2-5.6-2.1-5.8-5.7 0-.6.5-1.5 1-1.7.5-.2 1.6.1 1.9.5.6.9.9 2 1.4 3 .4.8 1 1.6 1.5 2.4v1.5zM326.7 239.8c1.1-1.7 2.1-3.5 3.2-5.2l-.5-.5c-.6.3-1.2.5-1.8.8-5.6 3.1-11 6.5-16.7 9.3-6.6 3.3-13.3 6.4-18.3 12.1-.2.2-.6.3-1.2.5-1-2.2.2-4 1-5.6.9-1.8 2.2-3.3 3.4-4.9.9-1.2 2-2.3 2.5-3.7 1.1-3.2 3.5-4.6 6.2-6 10.8-5.5 21.5-11.2 32.3-16.6 5.4-2.7 11-4.8 17-5.7 3.2-.5 6.5-.4 9.7-.7 1.4-.1 3-.4 4.2-1.1 10-6.5 21-10.5 32.5-13.2 9.2-2.2 18-5.4 26.2-10.1 1.6-.9 3.2-1.9 5.3-.8.6.3 2 0 2.7-.5 5.7-3.9 12.2-5.7 18.9-6.7 1.1-.2 2.3-.5 3.1-1.1 7.2-5.7 15.7-8.2 24.2-10.6 6.9-1.9 13.6-4.3 20-7.5 1.2-.6 2.7-1.1 3.9-.8 4.6 1.3 9 .4 13.3-.9 7.4-2.2 14.7-4.7 22.1-7.1 3.5-1.1 7-2.4 11.1-2.5-.1 4-4 5.4-5.2 8.4 5 1.3 19.9-4.1 24.3-8.8-1.6-2.4-4.6.3-6.7-2.2 6.8-2 13.6-2.4 20.2-3.2 6.8-.9 13.6-.8 20.8-.4-.5 2.3-2 2.8-3.6 3-1.3.2-2.7 0-4.1-.1-1-.1-2-.5-3-.3-1.1.3-2.8.8-3 1.6-.3 1.1.2 2.6.8 3.8.3.6 1.5 1 2.2.9.5-.1 1-1.2 1.2-1.9.5-2.5 1.2-3.1 3.4-1.9 4.7 2.8 9.8 2.7 14.9 2.3 3.4-.2 6.7-.7 10.1-1 .6-.1 1.1.1 1.9.9-1.2.6-2.4 1.6-3.8 1.9-4.1.9-8.3 1.6-12.5 2.4-4.5 1-9 2.1-13.5 3.1-1.1.2-2.3.6-3.2.3-6.1-1.9-12.1-1.2-18.2-.4-5.5.7-10.9 1.9-16.3 2.3-4.3.4-8.7-.1-13-.1-1.2 0-2.5.1-3.5.6-10.4 5.1-21.6 7.8-33 9.6-10.1 1.6-19.8 4.3-28.9 8.8-1.4.7-3.1 1.1-4.7 1-11.4-.1-22 2.8-31.8 8.6-1.4.8-3.3 1.1-4.9 1.3-1.7.2-3.5.1-5.2 0-3.2-.1-6 .5-8 3.6-2.1-2.1-3.9-1-6 .1-8.4 4.4-17 8.5-25.5 12.7-3 1.5-5.9 3.2-8.8 4.7.1.3.1.6.2.9 1-.1 2-.2 2.9-.4 13-3.1 25.6-7.5 38.2-12.2 9.7-3.7 19.5-7.2 29.2-10.7 1.3-.5 2.4-.9 3.8.1.8.6 2.4.5 3.5.3 2.3-.5 4.4-1.8 6.9-1 .4.1 1.2-.4 1.6-.8 3.4-3.4 8.1-3.6 12.6-4.3-.5.6-.9 1.3-1.5 1.7-5.4 3.8-11.2 6.6-17.7 7.9-.7.1-1.6.4-2.2.1-2.7-1.1-4.8.3-7.1 1.1-11.3 4.2-22.4 8.5-33.9 12.2-21 6.7-41.5 14.5-62.1 22.1-9.6 3.5-19.3 6.8-29 10.2-.8.3-1.6.5-2.5.7-.3 0-.4-.2-.6-.4zm24.2-14.5c4.7-1.7 9.4-3.5 14.1-5.2-.1-.2-.2-.5-.3-.7-5.1.3-9.6 2.6-13.8 5.9z"/>
  <path class="st2" d="M580 160.8c1 .9 1.6 1.3 2.1 1.9 1.2 1.2 2.4 1.5 4 .8 2.2-.9 4.5-1.6 6.8-2.1 1.1-.3 2.5-.3 3.6.1 4.8 1.6 9.3 1 13.8-1.2 1.8-.9 4.1-1.4 6.1-1.4 17.9-.1 35.8-.3 53.6 0 25.1.5 50.2 1.5 75.2 3.5 1.2.1 2.3.3 3.5.5l.3.9c-1.1.9-2 2.1-3.2 2.7-2.5 1.1-5.1 1.9-7.7 2.8-1.3.4-2.8.5-4 1.1-3.5 1.8-7.1 1.7-10.9 1.6-18.5-.2-37 0-55.5-.1-9-.1-18-.6-26.9-1.2-3.1-.2-5.9-.2-8.6 1.6-.7.5-1.6.7-2.5 1.1-3.1-3.2-6.9-3.1-10.8-2.5-5.2.8-10.4 1.7-15.5 2.6-3.7.7-7.4 1-11.1-.5-3.4-1.4-6.3.2-9.4 1.8-.6-.4-1.2-.7-1.8-1.1-2.6-1.8-5-2.5-8.2-.7-3.8 2.1-8.1 1.9-13.1.4 3.9-2.2 7.3-4 10.4-6 3.3-2.1 6.4-4.3 9.8-6.6zm106.5-28.5c3.6.8 7.2 2 10.9 2.3 7.8.7 15.7 1 23.6 1.5 6 .4 11.9 1 17.9 1.6.9.1 1.8.5 2.8 1.2-3.7.8-6.7 3.4-11.2 2.2-5.6-1.5-11.7-1.1-17.5-.6-5.9.5-11.7 1.2-17.5 1.8-1.1.1-2.3.3-3.3 0-9-2.1-18.1-1.7-27.2-1.2-8.6.5-17.2 1.2-25.8.1-1.2-.1-2.4-.5-3.8-.8 1.1-3.1 3.4-3.9 5.8-4.4 2.2-.5 4.4-.7 6.6-1.2 1.5-.3 3-.9 4.6-1.3 0-.3.1-.6.1-.9-1.1-.3-2.1-.8-3.2-1-5.9-1.1-11.9-1.4-17.9-1.1-12.3.7-24.3 3.1-36.3 5.4-.4.1-.8.4-1.4.7 1.1 1.9 2.7 1.4 4 1.3 3-.4 5.9-1 8.9-1.4 2.7-.4 5.5-.6 8.2-.8 1.2-.1 2.4.3 3.6.9-3.4 2-7.3 1.7-11 2.4s-7.4 1.1-11.1 1.6c-3.8.5-7.7.9-11.5 1.4-3.7.4-7.4.9-11.2 1 2-2.5 5.6-2.4 7.5-5.2-3.4-2.9-6.1.3-9.3.9-.4-1-.7-1.9-1.1-3 4.6-3 9.4-2.8 14-1.8 2.9.6 5.3.1 7.9-.8 10-3.8 20.3-6.2 31.1-6.1.7 0 1.5-.1 2.2.1 3.6.9 7 .6 10.5-1 1.9-.9 4.4-.7 6.8-1.1.1 1.2.2 2.1.3 3.3.5.1 1.1.2 1.6.3 2.9.6 5.2.3 6.3-3 .5-1.5 1.8-1.4 3.1-1.5 1.6 0 3.2-.2 5-.4 1.1.9 2.4 2.3 3.9 3.3s3.7.6 4.9 2.6c-3.5 2.4-8 .1-11.6 2.7 2.9 1.5 16.2 1.3 24.7-.4v-3.5c6-4.1 18.3-4.3 23.9-.3-2.7 2.1-5.9 2.7-9.1 2.9-3.1.3-6.3.1-9.5.1-.1.3-.2.8-.2 1.2zm-46-10.9c-2.4-1.4-4.3-2.6-6.9-4.1 1.2-1.1 2-2 3-2.6 4.3-2.7 9-4.2 14.1-4.5 3.6-.2 7.2-.3 10.9-.3 4.5 0 8.9-.6 13.2-2.2 1-.4 2.3-.6 3.2-.2 5.5 2.6 11.2 1.9 16.9 1.6 4.5-.3 9-.5 13.4-.7.7 0 1.4.2 2.6.5-3.8 3.2-7.8 4.9-12.1 5.5-4 .6-8.2.6-12.3.6-6 .1-12-.4-17.8 1.5-.8.3-2.2.2-2.8-.3-3.9-3.5-8.2-2.6-12.3-1.1-3.4 1.2-6.6 3-9.8 4.5-1.1.5-2.2 1.2-3.3 1.8zm-154.7 73.9c.8 2.2 1.5 3.9 2.2 5.9-21 6.7-41.4 14.3-63.1 17.7.5-.6.9-1.2 1.5-1.6 4.7-3.3 10.1-4.8 15.6-6.3 4.4-1.1 8.7-2.2 13-3.4 3.4-1 6.5-2.6 9.1-5 .8-.7 2-1.3 2.9-1.2 4.7.5 8.9-1.1 12.9-3.1 1.9-.8 3.6-1.8 5.9-3zm-148.5 50.4c2-3.2 4.5-5.8 7.8-7.8 2.6-1.6 4.7-.4 6.8 1.8 6.8-3.4 13.5-6.9 20.5-10.4.8 1.9 1.5 3.4 2.4 5.5-6.5 1.9-12.7 3.7-18.8 5.6-6.1 1.9-12.2 4-18.3 6.1-.2-.3-.3-.6-.4-.8zm53-19.1c4.3-3.8 8.7-6.8 14.3-7.7 1.8-.3 3.5.1 4.3 2.3-.5.5-1 1.2-1.6 1.5-4 2-8 3.9-12.1 5.7-1.7.7-3.3.4-4.9-1.8zM652 153.7c7.9-4.1 16-5.2 24.7-4.1-1.5 3.3-2 3.4-4.7 3.1-2-.2-4.2.1-6.2.5-2.8.6-5.5 1.6-8.3 2.1-1.9.5-3.9.6-5.5-1.6zM534.1 177c.8-4.3 3.4-5.7 6.3-6.4 2.8-.6 5.6-.9 8.5-1.1 1.9-.2 3.8 0 5.8.3-5.5 5.6-13.2 4.9-20.6 7.2zm-17.5 1.4c-5.7 4.4-11.8 4.1-18.4 4.2 5-4.8 14.4-7 18.4-4.2zm358.9 288.7c-7.5 2.4-11.1-3.2-16-6.1 3.9-1.6 10 .8 16 6.1zm-99.9-297c2.7-3.4 7.2-3.5 10.2-.1-2.7 3-6.8 3-10.2.1zm-230.7-29.4c.9-5 5-7.8 9.9-6.9-1.3 3-5.6 6.1-9.9 6.9zm52.3-21.5c3.8-2.2 8-2.4 12.6-2.9-2.1 2.8-2.1 2.8-12.6 2.9zm-237.5 80.9c2.7-4.2 6.4-4.8 10.3-5.9-1.3 2.9-4.6 4.8-10.3 5.9zM726 110.5c5.9-1.4 8.3-.8 9.6 2.5-3.3.1-6.5.7-9.6-2.5zm-138.4 9.2c-.2 3.3-.2 3.4-3.2 5.4-.9-1.1-1.8-2.2-2.8-3.5 1.7-1.7 3.9-1.4 6-1.9zm274.7 577.8c2.7-2.1 4-1.6 6.5 2.3-2.2 1.2-2.5 1.1-6.5-2.3zm-74.2-527.7c2-.4 4-1.1 6.1.4-1.1 2-2.7 2.5-4.7 2.2-1-.1-1.1-.5-1.4-2.6zm39.8 246.4c-2.9 1.8-5.6 1.4-8.3.8-6.8-1.5-11.8-5.8-15.9-11.2-1.6-2-3.1-4.1-3.7-6.7 1.6-1.3 2.7-.4 4 .2 1.6.8 3.3 1.3 5.5 2.2.7 2.7 3.4 4.3 6.5 5.7 2.4 1.1 4.8 2.2 7 3.5 2.1 1.2 3.9 2.8 4.9 5.5z"/>
</svg>