<svg version="1.1" id="Layer_1" xmlns="http://www.w3.org/2000/svg" x="0" y="0" viewBox="0 0 1000 1000" xml:space="preserve">
  <style>
    .st0{fill:#e4e6e7}.st2{fill:#cacdcf}
  </style>
  <path class="st0" d="M425.3 207.7 368 175.5 311.5 209l.8 65.7 57.3 32.2 56.4-33.5zM763 726.9l-44.8-25.2-44.2 26.2.6 51.4 44.8 25.2 44.2-26.2z"/>
  <path class="st2" d="m928.1 483.7-137.3-77.1-135.4 80.3 1.8 157.5 137.3 77.1L930 641.2zm-88.9-348.2L643.4 25.6 450.3 140.1l2.7 224.5 195.7 110L841.8 360zM643.1 486 370 332.6 100.6 492.4l3.7 313.2L377.4 959l269.4-159.8z"/>
</svg>