<?xml version="1.0" encoding="utf-8"?>
<svg version="1.1" id="Layer_1" xmlns="http://www.w3.org/2000/svg" xmlns:xlink="http://www.w3.org/1999/xlink" x="0px" y="0px"
	 viewBox="0 0 1100 1100" style="enable-background:new 0 0 1100 1100;" xml:space="preserve">
<style type="text/css">.st0{fill:#E4E6E7;}.st2{fill:#CACDCF;}</style>
<g>
	  <g class="st0">
		<path d="M90.3,242c0.7-3.2,1.9-6.4,2.6-9.2c9.4-36.9,36-72,81.5-69.7c10.6,0.5,54.1,31.9,64.9,41.5
			c-2.9-7.1-5.8-14.1-8.8-21.2c-6.5-7.3-57.7-46.9-69.5-47.5c-47.4-2.6-75.1,36.1-84.9,76.6c-1.8,7.4-6,16.7-1.2,23.5
			C80,239,85.1,240.8,90.3,242z"/>
		<path d="M253.2,234c5.3,3.6,21.6,7.4,28,4.2c0.3-0.6,0.7-1.2,1-1.8c0-2.9-8.4-10-14.3-16.8c-7.1,0.7-17.6-1.9-23-4.7
			C247.7,221.2,250.4,227.6,253.2,234z"/>
		<path d="M250.2,143.6c11.7-21.5,48.8-38.6,63.1-41.2c7.1,0.4,14.3,0.8,21.4,1.1c1.7-3.9,3.5-7.8,5.2-11.8
			c7-0.2,13.9-0.5,20.9-0.7c10.5-8.4,15.8-43.7,36.1-43.7c0.9,0.6,1.7,1.3,2.6,1.9c5.4-7.5,10.9-14.9,16.3-22.4
			c-7.7-6.1-15.3-12.1-23-18.2c-21.2,0-26.7,38.9-37.6,48c-7.2,0.3-14.5,0.5-21.7,0.8c-1.8,4.3-3.6,8.6-5.4,12.9
			c-7.4-0.4-14.9-0.8-22.3-1.3c-20,3.8-83,36.6-66.9,70.8C242.4,141.8,246.2,143,250.2,143.6z"/>
		<path d="M414,70.5c-3.6,4.6-7.1,9.3-10.7,13.9c1.2,4.7,28,40.6,37.4,31.6c0.5-3.2,1-6.5,1.5-9.7
			c3.5-0.6,6.9-1.2,10.4-1.8c2.7,2.2,5.4,4.3,8.1,6.5c6.4,0,8.6-8.3,9.5-13.4c8.9-15.6,45.1,9.5,57.8,6.7
			c14.4-5.9,28.8-11.8,43.2-17.6c22.2-2.8,72.5-2.3,87,20.8c14.6,23.9,11.1,44.8,21,54.7c3,3.2,0.4,4-2.1,3.4
			c0.2,0.9,0.3,1.8,0.5,2.7c10.6,10.6,74-9.1,72,27.4c1.7-1,3.5-2,5.2-2.9c27.2-67.9-57-37.8-69.6-51.1c-0.2-1-0.3-2-0.5-3
			c2.5,0.7,5.3-0.2,2.1-3.7C676.5,124,680.2,101,665,74.7c-15.1-25.4-67.5-25.9-90.6-22.9c-15,6.5-30,12.9-45,19.4
			c-13.2,3.1-50.9-24.5-60.2-7.3c-1,5.5-3.2,14.7-9.9,14.7c-2.8-2.4-5.6-4.8-8.5-7.1c-3.6,0.7-7.2,1.3-10.8,2
			c-0.5,3.6-1,7.1-1.6,10.7C433.2,89.5,422.7,80.7,414,70.5z"/>
		<path d="M744.5,214.7c-3.7,2-7.4,3.9-11,5.9c0.9,2.1,1.8,4.2,2.7,6.3c10.6-0.8,21.2-1.5,31.8-2.3
			c9.8,3.9-1.8,68.3-13.9,80.7c-2.6,8,21.2,30,27.3,34c9.2,12.3-17.3,21.3,16.4,45.5c20.7,14.9,96.1,40.6,105.1,53.1
			c0,12,0,23.9,0,35.9c2.8,1.8,5.5,3.6,8.3,5.4c2,5-18.8,44.3-13.2,55.5c3.5,3.5,9.4,4.3,15.7,5c-0.7-16.1,16.6-51.4,14.7-56.4
			c-2.9-2-5.7-4-8.6-6c0-13.1,0-26.3,0-39.5c-9.4-13.8-87.8-42.1-109.4-58.4c-35.1-26.6-7.5-36.5-17.1-50
			c-6.4-4.5-31.1-28.7-28.4-37.4c12.6-13.6,24.7-84.4,14.5-88.7c-10.5,0.8-21,1.6-31.5,2.4C746.8,208.6,745.8,211.5,744.5,214.7z"/>
		<path d="M333.2,201.2c3.1-9.1-0.8-20.4-5.5-28.3c-0.1,0-0.2-0.1-0.2-0.1c-0.2,1.7-0.5,3.4-1,5
			c-17.2,0.5-34.4,1.1-51.5,1.6c-1.8,2.8-3.6,5.5-5.4,8.3c-4.6-1.4-9.1-2.9-13.7-4.3c-8.3,3.5,2.3,14.5,10.3,23.1
			c4.1,1.2,8.3,2.5,12.4,3.7c1.7-2.5,3.5-5,5.2-7.5C300.2,202.2,316.7,201.7,333.2,201.2z"/>
		<path d="M74.5,511.6c-0.1,0.6-0.2,1.2-0.3,1.8c0,24.4,21.1,42.1,13.7,77.6c-8.6,2-10.5,8.9-11.3,15.9
			c1.7-1,4.2-1.6,6.5-0.1c17.7,3.7,1.6-25.4,21-29.8c6.7-30.4-10.9-46.4-12.9-66.8c-5.4,0.1-10.7,0.2-16.1,0.3
			C75,510.9,74.7,511.2,74.5,511.6z"/>
		<path d="M886.6,708.2c-0.5,4.8-1.1,9.5-1.7,11.7c-2.7,8.4-15.6,1.7-19.8,6.1c-15.6,16.3-9.7,25-16.1,44.6
			c-3.2,3.3-45.2-12.2-57.4-7.2c-1.3,1.5-2.5,3.1-3.8,4.6c2.2,3.3,4.5,6.5,6.8,9.8c1.3,2.7,0.5,3.9-1.4,4.1
			c-6.1,1.1-12.1,2.1-18.2,3.2c-3.2-0.1,0.3-4.2-2.1-5.1c-1,4.8-6.4,9.4-8.1,10.6c2.5,3.3,4.9,6.6,7.4,9.8c1,9.2-6,28.7-14.6,30.9
			c-3.4-2.9-6.7-5.9-10.1-8.8c-3,1.1-6,2.3-9.1,3.4c0,0-16.4-15.1-17.2-16.7c-4.2,0-16.8-6.7-19.5,1.9c0.1,12,0.1,24,0.2,36
			c-0.7,1.1-11.8,37.2-18.5,46.8c-7.5,10.7-19.9,19.7-28.3,30.5c-1.7,4.6-3.4,9.2-5.2,13.8c-13.9,0-56.9,6.6-66.2-10.3
			c-4.5-20.2-9.1-40.4-13.6-60.6c-7.5-8.9-13.8-5.4-22.9-10.4c0,0-35.7-43.2-35.8-43.5c-0.2,0.6-1.8,2.3-4,2.2
			c-8.4-1.7-11.1-7.8-18.3-11.6c-5,5.3-2.6,8.8-5.7,13.5c-2,4.2-63.3-8.6-73.6-15.5c-27.4,0-32,38.8-53.9,45.6
			c-30.5,9.4-50,38.6-79,50.8c-13.5,5.7-22.3-4.4-34.5-4.4c-17.9,18.7-90.4,8.7-105.5-7.6c-12.2-13.2-15.3-39.2-13.3-62.1
			c-3.9,1.9-7.6,4-9,6.1c-9.5,26.5-11.6,79.1,7.4,100.7c15.7,17.9,91.3,28.9,109.9,8.4c12.7,0,21.9,11.1,35.9,4.8
			c30.2-13.4,50.6-45.5,82.3-55.8c22.9-7.4,27.6-50.1,56.2-50.1c10.7,7.6,74.6,21.6,76.7,17c3.2-5.1,0.7-9.1,5.9-14.8
			c7.6,4.2,10.3,10.9,19.1,12.8c2.4,0.1,4-1.7,4.2-2.4c0.1,0.3,37.3,47.8,37.3,47.8c9.5,5.5,16,1.6,23.9,11.4
			c4.7,22.2,9.4,44.4,14.2,66.6c9.7,18.5,54.5,11.3,69,11.3c1.8-5.1,3.6-10.1,5.4-15.2c8.8-11.9,21.7-21.8,29.5-33.5
			c7-10.5,18.6-50.2,19.3-51.4c-0.1-13.2-0.1-26.4-0.2-39.6c2.9-9.4,15.9-2.1,20.4-2.1c0.8,1.8,17.9,18.4,17.9,18.4
			c3.1-1.2,6.3-2.5,9.4-3.7c3.5,3.2,7,6.5,10.5,9.7c9-2.4,16.3-23.8,15.2-33.9c-2.6-3.6-5.1-7.2-7.7-10.8c1.8-1.3,7.4-6.4,8.4-11.7
			c2.5,1.1-1.1,5.6,2.2,5.6c6.3-1.2,12.7-2.3,19-3.5c2-0.3,2.8-1.6,1.5-4.6c-2.3-3.6-4.7-7.2-7-10.8c1.3-1.7,2.6-3.4,3.9-5.1
			c12.7-5.5,56.5,11.6,59.8,7.9c6.6-21.5,0.4-31.1,16.7-49c4.4-4.8,17.8,2.5,20.6-6.7c1.3-5.6,2.9-24,2.9-29.4
			C904.1,714.4,896.3,711,886.6,708.2z"/>
		<path d="M947.7,577.6c3.2-2.2,10.4-4.7,9.7-12.4c-3.2-10.1-11.2-13-19.6-14.3c0.4,0.9,0.8,1.8,1.2,2.8
			c0.7,6.9-6.2,9.2-9.3,11.2c0,11.3,24.6,25.9,6.4,39.6c-25.4,13-114.2-21.9-127,3.9c-3.2,22.9,2.6,41.4,16,54.5
			c-3.7-10.9-4.8-23.4-3-37.5c13.3-28.4,105.7,10,132.2-4.3C973.4,606,947.7,590,947.7,577.6z"/>
		<path d="M126.1,806.3c1-4.2,2.1-8,3.4-11.4c3.3-4.4,18.9-9,19.7-11.6c0-6.1-51.1-47.9-61-55.3
			c-2.1-3.4-3.5-6.5-4.3-9.3c-12.6,6.6-25.7,16.1-12.6,38.1C78.9,763,110.5,790.1,126.1,806.3z"/>
		<path d="M97,695c6.9-3.8,14.4-6.4,17.7-9.6c2-6,0.4-10.7-3.1-15.8c-15.9-10.7-39.5-0.9-50.9-19.8
			c-1.4-7.1,2.1-17.5,5.9-26c-0.2,0-0.4-0.1-0.6-0.1c-4.4-3.1-9.3,1.7-9.1,2.3c0,0-17.1,29.5-14.3,45c11.8,20.8,36.4,10.1,53,21.8
			C96.1,693.5,96.5,694.2,97,695z"/>
		<path d="M138.7,445.9c-13.5,27.9,1.4,33.2-19.1,57.6c3.1-0.1,6.3-0.1,9.4-0.2c27.8-27.4,9.8-30.7,23.9-58.2
			c6.2-3.3,12.3-6.6,18.5-9.9c9.9-19.2-31.9-71-45.1-79.5c0.6-0.1,1.3-0.2,1.9-0.3c-1.5-0.7-3-1.4-4.5-2c-8.2-11,12.2-34.3,8.7-37.8
			c-9.2-9.2-17.4-13.8-12.1-29.6c3.9-2,7.8-4.1,11.7-6.1c3.6-3.5,3-11.6-0.3-14.9c-4.4-1.5-8.9-2.3-13.3-3.1
			c-0.4,0.9-0.9,1.7-1.5,2.4c-4.1,2.2-8.1,4.5-12.2,6.7c-5.5,17.3,3.1,22.4,12.6,32.5c3.6,3.8-17.6,29.4-9,41.5
			c1.5,0.7,3.1,1.5,4.6,2.2c-0.7,0.1-1.3,0.2-2,0.3c13.8,9.3,57.3,66.3,47,87.4C151.5,438.6,145.1,442.2,138.7,445.9z"/>
	</g>   
	 <path class="st2"  d="M126.3,355.6c13.2,8.5,55,60.3,45.1,79.5c-6.2,3.3-12.3,6.6-18.5,9.9c-14,27.5,3.9,30.8-23.9,58.2
                                    c-12.4,0.2-24.8,0.4-37.1,0.6c-0.2,0.3-0.4,0.6-0.6,1c-0.1,0.5-0.2,1.1-0.3,1.6c0,22.2,20.2,38.3,13.1,70.6
                                    c-19.4,4.3-3.3,33.4-21,29.8c-4.2-2.8-8.9,1.6-8.8,2.1c0,0-16.4,26.8-13.7,40.9c11.3,18.9,35,9.2,50.9,19.8
                                    c3.4,5.1,5.1,9.8,3.1,15.8c-8.3,8.2-45.2,12.7-26.5,42.6c9.9,7.4,61,49.2,61,55.3c-0.9,2.5-16.4,7.1-19.7,11.6
                                    c-9.1,24.1-11.1,72,7.1,91.6c15.1,16.3,87.7,26.3,105.5,7.6c12.2,0,21,10.1,34.5,4.4c29-12.2,48.6-41.4,79-50.8
                                    c21.9-6.8,26.5-45.6,53.9-45.6c10.3,6.9,71.6,19.7,73.6,15.5c3.1-4.7,0.7-8.3,5.7-13.5c7.3,3.8,9.9,9.9,18.3,11.6
                                    c2.3,0.1,3.9-1.5,4-2.2c0.1,0.3,35.8,43.5,35.8,43.5c9.1,5,15.4,1.4,22.9,10.4c4.5,20.2,9.1,40.4,13.6,60.6
                                    c9.4,16.9,52.3,10.3,66.2,10.3c1.7-4.6,3.4-9.2,5.2-13.8c8.5-10.8,20.8-19.8,28.3-30.5c6.7-9.6,17.9-45.7,18.5-46.8
                                    c-0.1-12-0.1-24-0.2-36c2.8-8.6,15.3-1.9,19.5-1.9c0.8,1.6,17.2,16.7,17.2,16.7c3-1.1,6-2.3,9.1-3.4c3.4,2.9,6.7,5.9,10.1,8.8
                                    c8.6-2.2,15.6-21.7,14.6-30.9c-2.5-3.3-4.9-6.6-7.4-9.8c1.7-1.2,7.1-5.8,8.1-10.6c2.4,1-1.1,5.1,2.1,5.1c6.1-1.1,12.1-2.1,18.2-3.2
                                    c1.9-0.3,2.7-1.5,1.4-4.1c-2.2-3.3-4.5-6.5-6.8-9.8c1.3-1.5,2.5-3.1,3.8-4.6c12.2-5,54.2,10.6,57.4,7.2c6.3-19.6,0.4-28.3,16.1-44.6
                                    c4.2-4.4,17,2.3,19.8-6.1c1.2-5,2.8-21.9,2.8-26.7c0.2-5.8-17.6-10-32.3-13.2c-34-10.3-51.3-35.5-46.3-71.6
                                    c12.8-25.8,101.5,9.1,127-3.9c18.2-13.8-6.4-28.3-6.4-39.6c3.1-2,9.9-4.3,9.3-11.2c-6.4-19-32.1-9.8-41.2-18.9
                                    c-5.6-11.2,15.2-50.5,13.2-55.5c-2.8-1.8-5.5-3.6-8.3-5.4c0-12,0-23.9,0-35.9c-9-12.5-84.3-38.3-105.1-53.1
                                    c-33.7-24.2-7.2-33.2-16.4-45.5c-6.1-4.1-29.9-26.1-27.3-34c12.1-12.4,23.7-76.8,13.9-80.7c-10.6,0.8-21.2,1.5-31.8,2.3
                                    c-0.9-2.1-1.8-4.2-2.7-6.3c3.7-2,7.4-3.9,11-5.9c26.1-61.8-54.8-34.4-66.9-46.5c-0.2-0.9-0.3-1.8-0.5-2.7c2.4,0.6,5.1-0.2,2.1-3.4
                                    c-9.9-9.9-6.4-30.7-21-54.7c-14.5-23.1-64.8-23.6-87-20.8c-14.4,5.9-28.8,11.8-43.2,17.6c-12.7,2.8-48.9-22.3-57.8-6.7
                                    c-0.9,5-3.1,13.4-9.5,13.4c-2.7-2.2-5.4-4.3-8.1-6.5c-3.5,0.6-6.9,1.2-10.4,1.8c-0.5,3.2-1,6.5-1.5,9.7
                                    c-9.5,9.1-36.3-26.9-37.4-31.6c5.3-6.9,10.5-13.7,15.8-20.6c-7.4-5.5-14.7-11-22.1-16.6c-20.3,0-25.6,35.3-36.1,43.7
                                    c-7,0.2-13.9,0.5-20.9,0.7c-1.7,3.9-3.5,7.8-5.2,11.8c-7.1-0.4-14.3-0.8-21.4-1.1c-19.2,3.5-79.7,33.3-64.2,64.4
                                    c22.7,11.3,58.8-6.3,78.5,6.1c4.7,7.9,8.6,19.2,5.5,28.3c-16.5,0.5-33,1-49.5,1.5c-1.7,2.5-3.5,5-5.2,7.5c-4.4-1.3-8.8-2.6-13.2-3.9
                                    c-11.9,4.7,16.9,24.8,16.9,30.1c-0.3,0.6-0.7,1.2-1,1.8c-6.4,3.1-22.7-0.6-28-4.2c-4-9.2-8-18.4-12.1-27.7
                                    c-6.3-6.6-55.4-42.6-66.7-43.2c-45.5-2.3-72.1,32.8-81.5,69.7c-1.7,6.7-5.7,15.2-1.1,21.4c12.9,7.3,26.5,6.3,39.9,10.7
                                    c3.3,3.3,3.9,11.4,0.3,14.9c-3.9,2-7.8,4.1-11.7,6.1c-5.3,15.8,2.9,20.4,12.1,29.6c3.5,3.5-16.9,26.7-8.7,37.8c1.5,0.7,3,1.4,4.5,2
                                    C127.6,355.4,126.9,355.5,126.3,355.6z"/>
                                  
</g>
</svg>
