<svg version="1.1" id="Layer_1" xmlns="http://www.w3.org/2000/svg" x="0" y="0" viewBox="0 0 1000 1000" xml:space="preserve">
  <style>
    .st0{fill:#e4e6e7}.st2{fill:#cacdcf}
  </style>
  <path class="st0" d="M919.9 538.7c-4.1.7-5.5 4.8-6.4 9.2-1.3 6.1-1.8 12.3-2.1 18.6-.1 1.9.5 2.6 1.8 2.7.4 0 .8 0 1.1-.1 1.5-.5 2.5.2 3.2 2 .2.4.4.8.8 1.4 3.1-7.6 4.7-16.1 9.5-22.8.4 1.6.8 2.8 1 4 2.4 11.9 3 24 2.2 36.2-1 15.5-3.9 30.6-7.2 45.5-3.5 15.6-7.1 31-10.6 46.6-.4 2-1.2 3.4-2.4 4.6-.9.9-1.9 1.8-2.7 2.8-2.5 2.9-2.9 4.7-1.7 8.8.6 2.2.9 4.5.5 6.8-.5 2.8-1.5 5.1-3.4 6.6-2.1 1.7-4.3 3.5-6.4 5.3-3.8 3.1-6.3 7.5-7.5 13.3-.5 2.1.2 3.3 1.7 2.8 1.1-.3 2.1-1.2 3.1-1.9 1.2-1 2.4-2.2 3.5-3.3 1.2-1.2 2.5-1.1 4-.7 0 .7.2 1.4 0 1.8-1.7 3.4-3.3 6.8-5.2 9.9-1.5 2.4-3.5 4-5.7 4.8-6.5 2.3-10.5 8.2-13.8 15.5-1.2 2.7-.9 3.6 1.5 4.2.2.1.4.2.7.4-.1 2.3-1.1 3.9-2.3 5.3-2.3 2.7-4.5 5.4-6.9 8.1-10.7 12.1-21.4 24.2-32 36.4-1.5 1.7-2.7 2.2-4.5.8-1-.8-2.1-1.2-3.2-1.7-4-1.8-8.3.3-10.8 5.3.4 1.3 1.3 1.6 2.2 1.4 1.1-.2 2.3-.5 3.4-.7.9-.2 1.7-.4 2.6-.6.3 1.8-.5 2.4-1 3.2-3.7 5.9-8.5 8.6-14.3 8.5-1.1 0-2.3.1-3.4.4-1.6.4-2.9 1.3-3.9 3.3-2.3 4.9-6 7.5-10 9.2-4.8 2.1-9.6 3.8-14.5 5.4-5 1.7-10.1 2.8-15 5.4-2.3 1.3-4.6 2.8-6.4 5.2-.5.6-.9 1.5-1.4 2.4 1.9 1.3 3.6 1.2 5.2.9 4.1-.7 8.1-1.6 12.2-2.6 3.9-1 7.7-2.3 11.6-3.3 1.5-.4 3-.4 4.5-.6.1.2.1.4.2.6-.3.5-.5 1-.9 1.4-8.1 7.1-16.9 11.1-26.6 11.8-2.2.1-4.4 0-6.6 0-1.2 0-2.2.2-3 1.6-1.8 2.7-4.2 4-6.7 4.9-5.3 2.1-10.8 2.3-16.3 2.5-4.6.1-9.1.5-13.7.7-.6 0-1.2.2-1.8.6-.9.6-1 2 0 2.5.7.4 1.6.5 2.4.6.8.1 1.5-.2 2.3-.2 1 0 1.8.4 2.3 1.9-.5.4-.9.8-1.3 1-7.7 2.7-15.5 3-23.4 1.7-5.4-.9-10.9-1.5-16.4-2.2-.5-.1-.9 0-1.4 0-2.5.2-3 1-3 4.3 0 .4 0 .8-.1 1.5-2.6.4-5.1.3-7.7-.4-4-1.1-7.4-3.6-10.8-6.4-.6-.5-1.4-1-1.9-1.7-2.6-3.1-5.7-3-8.8-2.2-.7.2-1.5.5-2.2.9-2.1 1.3-2.5 2.8-1.6 5.6.2.6.4 1.3.7 2.3-1.6-.3-3-.5-4.3-.8-9.8-2.3-19.4-5.4-28.9-9.2-12.5-4.9-24.7-11.1-36.5-18.4-16.7-10.3-32.4-23-47.3-37.4-8.9-8.6-17.3-18-25.3-28-13.5-16.9-25.6-35.4-36.5-55.3-.7-1.3-1.4-2.5-.7-4.4.3-.7 0-2.3-.4-3.2-1.7-3.7-3.5-7.3-5.3-11.1-1.9 1.3-2.1 3.9-3.6 5.5-.6-.6-1.4-1.2-2-2-.9-1.1-1.7-2.4-2.6-3.4-.9-1-2-1.6-3.4-2.7-.7-2.7.4-4.8 3-4.3 1.4.3 2.7 1.2 4.1 1.9.6.3 1.2.9 2.1 1.1-.3-.7-.6-1.5-1-2.2-2.4-4.6-4.7-9.2-6.1-14.6-.7-2.8-1.4-5.6-.6-8.6.3-1.4-.2-2-1.1-2.5-5.9-3.8-10.7-9.4-14.7-16.2-.3-.5-.5-1-.7-1.5-.1-.2 0-.4 0-.7 1.2-.6 2.2.2 3.1 1 1.4 1.2 2.8 2.5 4.2 3.7.8.6 1.6 1.2 2.5 1.6 1 .5 1.9.1 2.6-1.1-.1-.3-.2-.7-.3-.8-6.8-5.9-12.1-14.2-17.8-21.8-.1-.1-.3 0-.6 0 .1.7.1 1.3.2 2s.3 1.4.3 2.1c-.1 2.4-1.7 3.6-3.1 2.2-2.4-2.6-4.8-5.4-7.1-8.1-2.9-3.4-5.7-7-8.7-10.3-1-1.1-2-2.5-3.9-2.7.3 1.4.5 2.5.9 3.5.5 1.3 1.2 2.4 1.6 3.7.2.6.4 1.9.2 2.1-.5.5-1.3.8-1.8.6-.9-.4-1.7-1.3-2.4-2.1-1-1.1-1.8-2.5-2.7-3.7-.3-.5-.8-.7-1.5-1.4-.1 1.3-.1 2.1-.2 3-.2 1.6-.8 2.2-2 2.3-1.8.1-3.6.3-5.8.4-8.5-18.2-17.8-36.4-23.9-56.9 1.2-1.1 2.5-1.9 3.5-3.1 1-1.2 1.7-2.8 2.6-4.2 1.7-2.8 2.9-2.9 4.9-.2.5.6.9 1.3 1.7 2.5.2-1.2.5-1.9.4-2.4-.2-1.2-.6-2.3-.9-3.4-.6-2.3-1.2-4.6-1.9-6.8-.2-.8-.4-1.5-.8-2.2-.9-1.8-1.4-2-2.8-.8l-.9.9c-1.4 1.1-2.3.7-2.8-1.3-.6-2.3-1-4.7-1.5-7-.5-1.8-1-3.6-1.7-5.3-.8-1.8-1.5-1.7-2.7-.4-.5.6-1.2 1-2.1 1.6.3 3.5 2.2 6.9 1.6 11.1-1-.4-1.2-1.4-1.5-2.3-2.6-7.3-4.7-14.9-6.5-22.7-3.3-14.6-5.3-29.6-7.1-44.6-.7-6.3-1.3-12.7-2-19-.1-.8 0-2 .4-2.4.8-.8 1.6 0 2.2.9.4.7.8 1.6.9 2.4.3 2.4.5 4.8.7 7.2.1.8.1 1.5.2 2.5 1.3-1.1 1.3-2.5 1.6-3.9.9-5.1.6-10.1-.9-14.9-.2-.7-.5-1.5-.9-2.1-1.7-3.1-4.5-3.1-6.1.1-1.5 3-2.5 6.3-2.7 9.9-.2 3.8-.2 7.7-.2 11.5 0 1 .1 2-.2 3.2-.2-.4-.5-.7-.7-1.2-2.1-6.4-2.8-13.2-3.1-20.1-.5-11.5.2-22.9 1.4-34.3.1-.9.3-1.9.4-2.8.2 0 .4-.1.5-.1.4.8.9 1.5 1.1 2.4.3 1.9.6 3.8.7 5.7.1 2.7.1 5.5.2 8.2.1 1.2.3 2.5.5 3.8 1.4-.6 1.7-2 1.9-3.2.7-3.1 1.3-6.2 2-9.3.2-.8.4-1.6.7-2.2.3-.6.9-1.4 1.3-1.3.5.1.9.9 1.2 1.6.3.8.4 1.8.8 2.5.4.8 1 1.9 1.5 1.9s1.4-1 1.6-1.8c.6-2.5 1.3-5.1 1.4-7.6.3-7.3-.5-14.4-2.6-21.1-.8-2.5-2-4.7-3.1-7-.4-.9-.8-1.6-.7-2.7.4-4 .7-8 .9-12.1.2-5 .7-9.9 1.8-14.6.8-3.5.2-4.6-2.5-5-.4-.1-.8-.1-1.1-.2-1.5-.4-1.7-.8-1.3-2.6 1.5-5.8 2-11.9 2.8-17.9.4-3.2 1.1-6.3 1.8-10 2.5 2.9 1.5 6.6 2.4 9.9 2.7-3.6 2.2-9.1 5.1-12.5.4.7.8 1.2 1 1.8.9 3.8 1.7 7.6 2.5 11.4.8 3.8 1.5 7.6 2.4 11.4.2.9.7 1.7.9 2.4 2.9-2.1 5.5-4.1 8.2-6.1.2.2.4.4.4.7.4 5.4.8 10.9 1 16.4.1 3.6-1.3 5-4.1 4.3-1.2-.3-2.3-.8-3.5-1.2-2.1 3.5-2.2 10.8-.2 15.3 1.6-1.1.9-3.7 2.1-5.5.3.9.7 1.5.8 2.2 1 6 1.9 12.1 2.9 18.1.1.7.2 1.3.4 2.3.8-1 1.4-1.8 2.3-2.9.5 1.2 1.2 2.2 1.4 3.2 1.1 6.1 1.4 12.2.4 18.4-.3 1.6-.1 2.6.8 3.8 2.7 3.6 3.3 8.4 3.8 13.1.3 2.6.2 5.2.3 8.2.6-.3 1.2-.3 1.6-.7 1.2-1.2 2.5-2.4 3.6-3.7 1.3-1.6 1.3-2.1.3-4.1-2.2-4.6-4-9.3-5.1-14.6-1.8-8.8-1.8-17.6-1-26.6 1.5-17.3 5.9-33.3 11.8-48.7 7-18.6 15.9-35.6 26.1-51.3 5.6-8.7 11.5-17.1 17.5-25.2 9.3-12.5 19.2-24 29.3-35.4 11.1-12.5 22.2-25 33.3-37.6 1-1.2 2-2.4 3-3.7-.1-.2-.1-.4-.2-.6-.6.3-1.2.5-1.7.9-10.5 7.8-21.1 15.4-31.5 23.6-14 11-27.1 23.7-39.4 38.1-15.3 18-28.6 38.3-38.8 61.9-5.6 12.9-10.2 26.3-13.4 40.6-.2 1-.5 2-1.2 3-.1-.5-.3-1-.4-1.6-.7-6.3-.4-12.5.6-18.8 1.7-11.5 5.2-22 9.6-32.1 6.2-14.3 13.8-27.2 22.3-39.2 13.2-18.6 28.1-34.5 43.4-49.9 4.2-4.2 8.4-8.5 12.5-12.8.7-.7 1.3-1.6 1.8-2.7-5 2.4-9.9 4.8-14.9 7.2l-.3-.3c.5-.6.9-1.3 1.5-1.9 16.5-16.8 33.6-32.4 51.5-46.3 16-12.3 32.5-23.2 49.6-32.5 11.9-6.4 24.1-12 36.5-16.7 9.9-3.7 19.9-6.9 30-9.3 10.2-2.4 20.5-4.1 30.8-5 11.5-1.1 23-1.1 34.5-.3 8.4.6 16.7 1.9 25 3.7 9.8 2.1 19.4 5.2 28.9 8.9.8.3 1.6.6 2.4 1.1 6 3.9 12.5 2.9 18.8 4.2 15.8 3.2 30.9 9.1 44.7 20.2 2.2 1.8 4.2 4.1 6.2 6.1.3.3.6.9 1.1 1.8-1.9-.2-3.3-.4-4.7-.6-.4 1.5.4 1.9.9 2.5 2.1 2.3 4.3 4.5 6.4 6.9.9 1 1.7 2.3 2.5 3.6.5.8.8 2 .2 2.8-.4.5-1.3.6-1.9.4-3.6-1.5-7.1-3-10.6-4.7-5.9-2.8-11.7-5.8-17.6-8.4-4.3-1.9-8.7-2.8-13.3-1.8l-.9.3s-.1.2-.2.6c.5.4 1.1.8 1.7 1.1 19.6 9 37.5 22.5 53.8 39.4 6.4 6.6 12.5 13.7 18.7 20.5.4.5.8 1 1.2 1.4.5.7 1.3 1.3.8 2.5-.5 1.3-1.4 1.5-2.3 1.2-1.1-.4-2.1-1.1-3.2-1.7l-3.6-2.1c-.4-.2-1-.1-2-.2.7.9.9 1.4 1.3 1.7 10.6 9 20.3 19.8 30.1 30.2 3.6 3.8 7.4 7.4 11.2 11.1.5.4 1 .7 1.7.8-2.5-5.6-5.9-10.1-9.5-14.4-3.6-4.2-7.1-8.4-10.6-13.2.5 0 .9-.1 1.4.1 4.9 1.9 9.3 5 13.6 8.6 7.2 6.1 13.8 13.4 19.9 21.4 14.5 18.8 26.1 40.5 35.5 64.2 2.8 7.1 5.3 14.4 8 21.6.4 1 .6 2 .9 3-.1.1-.3.2-.4.4-.6-1-1.2-1.9-1.7-2.9-3.7-7.2-7.5-14.4-11.2-21.5-5.7-10.7-11.6-21.1-18.7-30.4-4-5.3-8.3-10.2-13.1-14.2-.7-.6-1.4-1.1-2-1.6-.1.2-.3.4-.4.6.3.8.6 1.7 1 2.5 2.5 5.4 5.8 9.9 9.3 14.2 4.2 5.2 8.4 10.3 12.6 15.5 2.6 3.3 4.9 7.1 6.1 11.6.6 2.2.9 4.7 1.1 7.1.1.9-.2 1.9-.4 3.2-.9-.7-1.5-1.2-2-1.7-1-.8-2-1.5-3.2-.8-1.1.7-1.8 0-2.5-1.1-5.5-8-9.6-17-12.4-27.1-.5-1.9-1.1-3.7-1.7-5.5-.2 0-.4.1-.5.1-.1.8-.2 1.7-.3 2.5-.2 5.6 1.3 10.5 3 15.4 3 8.4 6.8 16.1 10.5 23.9 7.2 14.9 14.4 29.9 20.8 45.5 5.7 14.1 10.7 28.7 14.3 44 2.1 8.7 3.5 17.7 4 26.8 0 .9 0 1.8-.1 2.7 0 .2-.2.5-.5 1.3-.4-1.3-.6-2.2-.9-3.1-2.1-8-4-16-7-23.4-1.1-2.8-2.5-5.3-3.8-7.9-1-1.9-2.2-2.9-4.1-1.7-1.1.7-2.4.6-3.5 1.2-1.3.7-2.4 1.6-3.6 2.6-.9.8-1 1.8-.4 3.1 1.4 3.4 2.4 7 2.9 10.8.6 4.5 0 8.7-1.1 12.9-2 7.4-1.4 14.6.7 21.7.1.5.3 1 .4 1.4.6 2.2.5 2.8-1.2 3.1-1.3.3-1.6 1.3-1.7 2.7-.1 1.1-.1 2.2-.1 3.3-.1 13.6-.6 27.2-2.2 40.6-.6 5.2-1.3 10.5-2.8 15.6-.1-.3-.2-.7-.2-1 0-2.7.1-5.5.1-8.2 0-1.5.2-3-1.1-4-.4-.3-.5-1.6-.6-2.5-.3-5.6-.6-11.1-.8-16.7-.2-6.3-.2-12.6-1.6-18.7-.6-2.4-1.7-4.5-2.6-6.7-.2-.5-.6-.7-1.2-1.4-.1 1.1-.2 1.7-.2 2.3.2 8 .5 16 .6 24 .1 6.8.3 13.6 1.9 20.2.3 0 .3.4.3 1zM456.4 692.6c.7 1.3 1 2 1.3 2.6 1.5 2.8 3.1 5.5 4.7 8.3 6.7 12.2 13.2 24.6 19.9 36.8 6.3 11.4 13.3 22 21.2 31.4 5.5 6.5 11.4 12.2 18.1 16.2.4.2.8.3 1.5.6-.7-2.7-1.9-4.4-3.2-5.9-3.9-4.4-7.9-8.6-11.8-13-2.8-3.1-5.6-6.2-8.3-9.6-2-2.5-3.5-5.6-4.4-9.1-.3-1.2-.9-2.4-.1-4 .9.7 1.7 1.3 2.5 2.1 1.7 1.8 3.2 3.8 4.9 5.5 1.3 1.3 2.6 2.4 4 3.5.7.5 1.6.9 2.5-.5-.6-1.1-1.2-2.2-1.9-3.2-7.6-11.6-15.4-23-22.9-34.8-8.5-13.3-15.8-27.8-21.4-43.7-.1-.3-.1-.7-.3-.8-.5-.4-1-1.2-1.5-1.1-.5.2-1.1.9-1.4 1.6-.2.4-.1 1.2-.1 1.8 0 1.5-.3 2.9-1.3 4.4-2.3-4.4-5.9-3.4-9.2-4.7 0 3.2 1.3 4.9 2.7 6.4 1.1 1.1 2.4 1.8 3.6 2.7 1.2.9 2.5 1.6 3.6 2.7.9.8 1.8 1.9 1.5 4-1.2-.2-2.4-.2-4.2-.2zM454.8 357c.2.2.4.4.5.7-4 11.3-8.7 22.2-12.6 34.1 1.5-.1 2.6-.1 3.7-.2 1.5-.1 1.7 2.1 2.9 3 .5-1.4 1.1-2.5 1.5-3.8 1.2-3.9 2.4-7.9 3.5-11.9 2.6-9.6 5-19.4 8.6-28.5.2-.6.4-1.3.7-2.5-2.3 2.2-3.3 5.4-5.9 7.3.1-2.3.1-4 .4-5.5.8-4.5 2.8-8.1 5-11.5 2.5-3.8 5.2-7.5 7.6-11.4 1.5-2.5 3-5.2 4.1-8 .9-2.3 1.2-4.9-.2-7.4-.3.2-.6.2-.8.4-.3.3-.6.7-.8 1.1-8.9 13.5-17.6 27.2-25.5 41.9-6.9 13-12.9 26.5-16.8 41.7-.3 1.3-.6 2.6-1 4.3.6-.4.9-.4 1-.6.5-.6 1-1.3 1.4-2 2.6-5.5 5.3-10.9 7.8-16.5 3.2-7.3 6.2-14.7 11-20.5 1.3-1.5 2.6-2.8 3.9-4.2zm27.1 309c1.8-1.9 1.9-2.3 1.1-4.6-1.9-5.4-3.9-10.8-5.8-16.2-.7-2.1-1.3-4.3-2.1-6.4-.7-1.9-1.3-2.1-2.7-1.1-1.9 1.3-3.9 1.6-6 .9-2.3-.8-4.6-1.5-6.9-2.2-1-.3-2.1-.5-2.9.6 2.2 4.5 4.2 8.7 6.4 13.2.6-.5 1.1-.9 1.5-1.3.7-.6 1.3-1.4 2-2 1.2-.9 2.2-.5 3 .9.8 1.3.8 2.1-.2 3.7l-.6.9c-1 1.8-1 2.8.2 4.5 1.4 2.1 3.2 3.4 5.3 3.8 2.7.4 5 1.7 6.8 4.4.2.4.5.6.9.9zm434.4-242c-.4.1-.7.1-.9.2-.4.2-.8.5-1.2.8-1.2.9-1.4 1.4-.8 3.2 3.3 9.6 4.8 19.8 6.3 30 .9 6.1 1.9 12.1 3.9 17.7.3.9.8 1.8 1.1 2.7.2-.1.4-.1.6-.2 0-1.1 0-2.1.1-3.2.4-5.8-.2-12 3.9-16.1-1.4-3.7-2.7-7.3-4-10.8-2.5-7-5-14.1-7.5-21.1-.4-1.2-1-2.2-1.5-3.2zM479.1 583.5c.5-2-.7-4.3.5-6.5.6 1.4 1 2.5 1.6 4 1.3-1.6 2.4-2.9 3.4-4.4.6-.9.8-1.9.3-3-1.8-4-4-7.5-7.2-9.5-1.9-1.2-4-2.4-6.5-1.3.6 3.8-.5 7.2-1.2 10.7-.3 1.2-.4 2.6-.3 3.9 0 2.2.4 2.8 2 3.4 2.4.8 4.8 1.7 7.4 2.7zm-5.8-244.8c1.9-.4 3.5-1.7 4.8-3.5 1.8-2.6 3.6-5.2 5.2-8.1 3.5-6.3 6.3-13.4 10.9-18.6.2-.2.1-.8.2-1.3-1.7-.2-1.7 3.1-3.6 2.5-.1-.7-.2-1.4-.3-2.6-6.9 8.9-12.8 18.1-18.6 27.3.4 1.4.8 2.6 1.4 4.3zm-45.3 4.2c5.5-3 26.8-35 27.7-41.5-1.7 2.5-3.2 4.8-4.8 6.9-6.2 7.9-12.5 15.8-18.6 23.8-1.3 1.7-2.3 3.8-3.2 5.9-.6 1.3-.7 3-1.1 4.9zm64.9 342.2c-2.7-6.1-5.1-11.6-7.5-17.3-.6.7-1 1-1.4 1.5-1 1.6-2 3.3-2.9 5-2.5 4.4-2.4 4.4.2 8.8.8 1.3 1.6 1.9 2.9 1.9 2.7 0 5.4.1 8.7.1zm.4.9c-.2.1-.4.3-.6.4.3 8.4 5.5 13.1 9.2 19.7h-5.3c-.1.2-.1.5-.2.7 1.4 1.9 2.9 3.8 4.3 5.6 1.4 1.8 2.9 3.6 4.4 5.3 1.5 1.8 3.1 3.6 4.7 5.2s2.9 3.6 5 4.3c-1-2.2-2.1-4.2-3.2-6.2-.6-1.1-1.4-1.8-2.4-2.1-.8-.2-1.5-.8-2.3-1.2 1-3.4-.2-5.5-2-7.2-.2-.2-.5-.5-.8-.7-1-.7-1.5-1.5-1-3.2.2-.6-.2-1.5-.5-2.1-2.8-5.7-5.6-11.3-8.4-17-.2-.4-.6-.9-.9-1.5zM364.7 488.4c-.4-3.8 1-7.2 1.9-10.9.5-2.1.4-4.6.5-6.9 0-1.2-.6-1.8-1.5-1.8H361c-1.1 0-1.5.8-1.5 2.1.1 4.9.2 9.7.4 14.6.1 1.7.5 3.4 1.6 4.4 1.1-.4 2.1-.9 3.2-1.5zm554.6 117.2c-1.2.2-1.7 1.3-2 2.6-.4 1.7-.7 3.5-.9 5.3-.3 2.8-.4 5.7-.8 8.4-.3 1.8-.9 3.6-1.7 5.2-1 2.1-.7 3.5 1.2 3.7 1.1.2 2.1.1 3.2.1 1.8 0 1.7 0 2.3-2.4 1.7-7.7.3-15.1-1-22.5 0-.1-.1-.2-.3-.4zM464.7 279.5c-6.2 3.3-25 29.1-26.5 36.2 1-1 1.7-1.6 2.4-2.4 3-3.9 6-7.7 8.9-11.7 4.7-6.6 9.3-13.3 14-20 .3-.7.8-1.4 1.2-2.1zm46.6 6c-1.7 1.5-3.6 2.9-5.3 4.5-.5.4-.9 1.4-.9 2.2-.1 1.6-.1 3.2-.9 4.6-.6 1.2-.1 2.1.6 2.9.7.8 1.4.6 2-.2 1.8-2.1 3.7-4.2 5.5-6.3 1-1.2 1.5-2.7 1.4-4-.8-1.3-1.5-2.3-2.4-3.7zm302 508.6c-1.6-.7-2.7-.2-3.8.7-1.8 1.5-3.5 3.1-5.4 4.4-1.1.7-1.5 1.5-1.2 3 .1.6.1 1.2.2 1.8.4 2.7 1.3 3.4 3.2 2.3.5-.3 1-.6 1.4-1 2.8-2.9 4.3-6.8 5.6-11.2zM484.7 256.9c0 .2.1.5.1.7.6-.2 1.3-.2 1.8-.6 2.4-1.7 4.9-3.4 7.1-5.5 4.4-4.3 8.7-8.8 13-13.3.2-.2.2-.5.4-.7-1.5 0-1.9 0-3.8 1.5-2.8 2.3-5.5 4.7-8.1 7.3-3.5 3.5-7 7.1-10.5 10.6zm305.2 552.7c-.1-.5-.1-.6-.1-.7-1.5-2.5-2.9-3.1-4.9-1.7-2.4 1.6-4.7 3.3-7 5.1-.8.6-.8 1.9 0 2.5.6.4 1.3.8 1.9.8 1.1 0 2.3-.2 3.4-.6 2.6-1 4.9-2.7 6.7-5.4zm41.3-23.2c-2.8-2.7-5.5-2.8-8.2-1-1.9 1.2-3.3 3-3.6 6.3 2.2 0 4.1.1 6 0 2.5-.2 4.2-2.2 5.8-5.3zM489 647c.7 3.2 3.9 9.9 5.6 11.3.8-1.1 1.7-2.2 2.5-3.4.3-.4.4-1.3.3-1.9-1.1-4.6-4.6-7.2-8.4-6zm-66.4-305.3c.9-.8 1.5-1.3 2-2 1.1-1.7 2.3-3.5 3.3-5.4 1.9-3.8 3.6-7.7 5.3-11.6.2-.4.2-.8.3-1.5-2.7 1.7-9.5 14.5-10.9 20.5zm488.8 254.9c-.5.1-.6.1-.7.2-2.9 2.7-3.9 8.1-2.2 12 .2.5 1 .9 1.5.9.3 0 .9-.9.9-1.4.3-3.4.6-6.8.8-10.2 0-.5-.2-.9-.3-1.5zm-1-78c-.7 2.4-.4 4.6-.2 6.7.2 2.2.5 4.4.7 6.6.4 4.8.4 4.8 1.5 6.4.1-2.1.3-3.9.3-5.7-.1-3.9-.3-7.9-.5-11.8-.1-1.2-.6-2-1.8-2.2zm-551-153.1c-.6.8-1.1 1.1-1.3 1.7-1 2.9-1.1 5.8-.3 8.8.1.5.4 1.2.8 1.4.5.3 1.2.6 1.6.3.4-.3.9-1.2.9-1.8-.1-2.6-.2-5.2-.5-7.8 0-.8-.7-1.6-1.2-2.6zm77.8 43.4c-1.8 3.7-2.7 7.8-3.8 11.9-.3.9-.3 1.9.6 2.2.8.3 1-.6 1.2-1.4 1.1-4.1 1.8-8.3 2-12.7zm490 87.2c1.8-4.6 1.8-4.8 0-6.8-1.4 1.9-1.4 2.9 0 6.8zm-463.3 170c.2 1.2.7 1.9 1.6 1.4-.5-.5-1-1-1.6-1.4zm-3.6-.1c-.3.3-.5.6-.8 1 .3.4.6.9.8 1.3.2-.6.2-.8.2-1.1-.1-.4-.1-.8-.2-1.2z"/>
  <path class="st0" d="M428.8 722.1c.9 1.1 1.9 2.2 2.8 3.4 7.9 10.2 14.9 21.4 21.8 32.8 7.6 12.5 15.1 25 23.4 36.6 5.9 8.3 12.2 16.2 19.3 22.8 4.8 4.4 9.7 8.4 15 11.5.4.2.8.4 1.5.1-.4-.5-.7-1.1-1.1-1.5-6.1-6.9-12.4-13.5-18.3-20.6-19.3-23.2-36.9-48.4-51.8-76.8-3.7-7-7-14.2-10.5-21.4-.2-.5-.3-1.1-.6-1.8 1-.3 1.5.5 2 1.2 3.4 4.4 6.9 8.6 10 13.3 7.5 11.1 14.7 22.5 22.2 33.6 7.4 11 15 21.6 23.2 31.6 7.9 9.7 15.7 19.6 23.8 28.9 14.2 16.4 28.8 32.1 45.2 44.4 11.6 8.7 23.6 16.2 36.6 20.1 3.5 1.1 5.9 3.6 8 6.9 1.1 1.7 2.3 3.2 2.8 5.6-1.1.9-2.3.6-3.4.4-6-.8-11.8-3.2-17.4-6.2-8.2-4.3-15.9-9.7-23.7-15-2.8-1.9-5.7-3.5-8.5-5.1-.4-.2-.8-.3-1.6-.5 1.2 3.9 4.5 5.3 5.2 9.3-1.9.8-3.4-.1-4.8-1.1-4-2.7-8-5.5-11.9-8.5-11-8.4-21.2-18.4-31.5-28.2-6-5.7-11.7-11.7-17.8-17.1-3.3-2.9-5.6-6.5-7.8-10.7-3.5-6.5-7.5-12.6-11.5-18.5-8.6-12.7-17.7-24.9-25.7-38.4-5.2-8.9-10.1-18.1-14.3-27.9-.4-.9-.7-1.9-1.1-2.8.2-.2.3-.3.5-.4zm100.8 125.7c1.5 5.8 9.6 13.9 14.2 14.4-.4-4.1-8.9-12.9-14.2-14.4zm-126.4-79.1c-1.4.5-2.3-.4-3.2-1.3-1.7-1.7-3.3-3.6-4.9-5.4-1.1-1.2-2.2-2.5-3.4-3.6-.6-.5-1.3-.8-2.1-1.3-.4 2.2.2 3.4 1 4.5 1.4 1.8 2.9 3.6 4.4 5.3 1.1 1.2 2.3 2.3 3.5 3.5.7.7 1.3 1.5 1.8 2.3.6.8.9 1.8.2 2.7-.6.8-1.3.4-1.8-.2-2.1-2-4.2-4-6.3-6.1-7.2-7.4-14-15.4-20.5-23.8-5.2-6.8-10.4-13.8-15.5-20.6-1-1.3-1.7-2.6-1.7-4.7 0-2.9-1.2-5.4-2.5-7.7-2.4-4.2-4.9-8.3-7.4-12.4-5-8-10-16.1-13.8-25.4-.7-1.6-1.3-3.2-1.9-4.9-.2-.6-.3-1.3-.5-2.3.6.4.9.5 1 .7 24.2 33.9 47.5 69.1 73.6 100.7zm556.4-346.4c-1.8-.2-2.9-1.3-3.8-2.6-1.8-2.5-3.6-4.9-5.2-7.7-6.5-11.9-11.8-24.6-15.3-38.6-1-4-1.7-8-1.2-12.2.3-2.6.8-3.8 2.3-5.4.2.2.5.4.6.7 4.7 11.6 9.5 23.1 14.2 34.7 3.5 8.8 6.4 17.9 8 27.7.2 1.1.3 2.1.4 3.4zM906 244.5c-20.5-26.1-43-48.4-67.8-67.2.7-1.8 1.3-3.4 1.9-5.1.6.3 1.1.5 1.4.8 10.9 9.2 21.8 18.3 32.5 27.7 8.1 7.1 15.7 15.1 22.5 24.3 3.3 4.5 6.4 9.3 8.6 14.9.5 1.3.9 2.7 1.3 4.1-.1.1-.2.3-.4.5zM341.4 507.4c.8 2.4 1.7 4.7 2.3 7.1 3.1 11.9 6.1 23.8 9.1 35.7 3.1 12.2 6 24.4 9.2 36.6 2.3 9 4.9 17.9 7.3 26.9.1.4.1.9-.2 1.7-.7-.9-1.4-1.7-2-2.7-4.4-7-7.6-14.9-10.3-23.2-4-12.2-6.8-24.9-9-37.9-2.4-14.3-4.6-28.7-6.9-43.1v-.9c.2 0 .3-.1.5-.2zm604.4-221.9c-24.3-41.8-52.6-78.2-83.7-111 7 3.8 32.2 28.6 47.1 48.4 14.2 18.9 26.8 39.2 36.6 62.6zm12.4 47.9c-1.9-3.4-3.7-6.9-5.6-10.3-8-14.2-16.2-28.2-24.1-42.5-4.2-7.6-8.2-15.3-12.3-23.1-1-2-1.8-4.3-2.6-6.4-.2-.7-.3-1.4-.2-2.3 19.1 24.4 34.9 51.7 45.4 84.2-.3.1-.5.2-.6.4zM327.6 661.6c-1.2-2.2-2.2-3.9-3.2-5.7-5.5-10.4-9.6-21.8-13.2-33.6-3.5-11.8-6.3-23.9-8.8-36.1-.1-.6-.1-1.2-.2-2.2 1.5-.7 3-1.4 4.7-2.1.3 1.6.6 2.8.8 4.1 1.6 11.1 4.1 21.8 7.6 32.1 2.2 6.6 4.7 12.9 8.2 18.5 2.4 3.8 3.1 8.7 3.6 13.6.4 3.2.6 6.4.8 9.7 0 .4-.1.7-.3 1.7zm-25.2-299.1c-.7 3.4-1.3 6.5-1.9 9.6-1.7 8.9-2.3 18-3 27-.9 12.1-1.6 24.2-2.5 36.3-.2 2.2-.5 4.4-.8 6.6-.1 1-.3 2.1-1.3 2.1s-1.8-.7-2-2c-.2-1-.2-2-.2-3 0-.7.1-1.4.2-2.1.3-3.6-.1-4.2-2.9-4.9 0-1.1-.1-2.3 0-3.5.9-9.7 2.4-19.2 4.3-28.6 1.7-8.5 3.4-17 4.9-25.6.6-3.3.8-6.8 1.1-10.2.3-3.3.5-3.5 2.8-2.5.4.3.8.5 1.3.8zm632.7 323.9c-2.3 8-4.5 15.8-6.8 23.8-.6-.4-1.1-.8-1.6-1.2-1.7-1.4-3.4-1.3-4.9.4-1.2 1.4-2.3 3-3.2 4.7-1.3 2.3-2.4 4.9-3.7 7.3-1 1.7-2 3.3-3.2 4.7-.7.8-1.5 1.8-2.8 1.2.3-.9.5-1.7.8-2.5 3.4-9 6.9-18 10.3-27.1 1.6-4.2 3-8.4 4.4-12.7.8-2.3 1-2.4 2.8-1.8l5.7 2.1c.7.2 1.3.6 2.2 1.1zm11.7-225.1c.6 2.3 1.2 4.4 1.5 6.5 2.1 12 4.1 23.9 6 35.9.4 2.7.1 3.2-1.9 3.5-2.2.4-4.4 0-6.4-1.4-1.3-.9-2.6-1.5-4-2-.9-.3-1.3-.9-1.5-2-.2-2.1-.6-4.2-.7-6.3-.1-2.9-.1-5.9-.2-8.8-.1-2.6.9-3.7 2.8-2.9.7.3 1.3 1 2 1.4 1.6 1.1 2.9.2 3-2.2.1-1.3-.1-2.6-.4-3.9-.7-3.7-1.5-7.4-2.3-11.2-.2-1.1-.3-2.2-.3-3.3.2-1.7.8-2.6 2.4-3.3zM345 594.1c.6.9 1.2 1.7 1.7 2.6 2.8 5.4 5.6 10.9 8.4 16.3 3.3 6.3 6.7 12.6 10 18.8 1.4 2.7 2.2 5.6 1.3 8.9-.2.8-.3 1.6-.5 2.3-.6 2-.5 4 .2 5.9.3.8.5 1.6.8 2.7-1.2.4-1.8-.7-2.4-1.4-2.6-3-4.3-6.8-5.6-11-1.3-4.4-2.6-8.9-3.9-13.3-1.3-4.4-3.4-8.1-6.2-11.1-.6-.6-1.1-1.5-1.3-2.4-.6-2.3-1-4.7-1.4-7-.5-3-1-6.1-1.5-9.2-.1-.6-.1-1.1-.2-1.7.4-.2.5-.3.6-.4zm520.5 199.2c.6.9 1.3 1.6 1.7 2.5 1.3 2.9 2.9 5.2 5.9 5.3-.3.8-.3 1.3-.5 1.7-2.3 3.6-4.6 7.4-7 10.9-1.2 1.7-2.7 3-4.1 4.4-.9.8-1.8 1-2.7-.1-2.8-3.2-5.6-6.3-8.3-9.5-.2-.2-.2-.5-.4-1 1.4-3.2 3.3-5.9 6.1-7.3.7-.4 1.4-.7 2.2-.9 2.3-.7 4.3-2.1 5.8-4.5.3-.5.7-.8 1.3-1.5zm71.3-193.4c-.3-.4-.4-.5-.4-.6.1-4.6-.8-9-1.3-13.5-.2-2.2-.3-4.4.8-6.8.9.5 1.8.9 2.6 1.5 1 .8 2 1.9 2.9 2.9 2.1 2.2 4.4 3.1 7 2.2.3-.1.7-.1 1.4-.3.1 1.5.2 2.9.2 4.3-.1 5.5-1.2 10.6-3.8 15-.7 1.2-1.6 2.2-2.5 3-.5.5-1.3.7-1.9.8-1.3.1-1.7-.8-1.3-2.5.1-.4.3-.7.4-1.1.5-2 .1-3.8-1-5.3-1.1-1.4-2.1-.5-3.1.4zM326.6 452.2c-1-28.3.7-56.4 6.3-84.5 1 1.8 1 3.3 1 4.7.1 5.6-.9 11.1-1.6 16.6-1 7.6-2 15.2-2.7 22.8-.3 2.7.1 5.4.4 8.1.2 1.9.9 3.7 2.2 4.8.9.7 1 1.7.7 2.9-.7 3.6-1.3 7.3-2.2 10.8-1.2 4.7-2.7 9.2-4.1 13.8zm201.7 436.5c-2.6-2.2-5.3-4.3-7.9-6.5-6.4-5.3-12.9-10.4-19.2-15.9-4-3.5-7.7-7.6-10.7-12.7-1.3-2.1-2.5-4.2-3-7.4.5.4.8.5 1 .7 5.7 7.2 12.3 12.6 18.9 18.1 4.5 3.8 9.1 7.5 13.4 11.5 2.1 1.9 3.8 4.3 5.6 6.6 1.1 1.4 1.9 3.1 2.3 5.1-.2.2-.3.3-.4.5zm-114.6-226c1.1.5 2.2 1 3.3 1.6 4.4 2.6 8.4 6.2 12.2 10.1 6.4 6.5 12.5 13.7 18.1 21.4.4.5.7 1 1 1.6.1.2.1.6.1 1.1-2.2-.1-4.1-1-5.9-2.2-4.6-2.8-8.5-7-12.2-11.6-5.5-6.8-11-13.7-16.5-20.6-.2-.2-.3-.5-.4-.7.2-.2.3-.4.3-.7zm473.6 120.8c-1.2-3.2-2.8-4.3-4.8-4.7-.8-.2-1.5-.9-2.4-1.4.3-.8.4-1.5.7-2 3.2-5.3 7.1-9.2 12.1-10.9 1.9-.6 3.8-.8 5.6.5 2 1.4 2.2 2.6.8 4.9-.8 1.2-1.6 2.4-2.6 3.3-3.4 2.9-7 5.1-9.4 10.3zM325.8 364.7c-1.7 7.1-1.2 14.1-1.3 21 0 1.1-.1 2.2-.3 3.3-.1.5-.4 1.4-.7 1.4-1.8.5-2.1 2.4-2.5 4.2-.1.5-.3.9-.5 1.3-1.1-.2-1.4-1.3-1.6-2.4-.4-3.2-.6-6.4-.9-9.6-.2-2.4-.3-4.9-.6-7.2-.4-2.7.1-4.8 1.7-6.5 1.3-1.4 2.1-3.1 2.4-5.3.3-2 .8-2.3 2.2-1.7.8.5 1.3.9 2.1 1.5zm-11.1 78.9c1.3 2.8 1.9 5.9 2 9.1.1 5.7.2 11.4 0 17-.2 6.8-.2 13.6.8 20.3.1.5.1 1 .1 1.5 0 .2-.1.4-.2.9-.3-.5-.6-.9-.8-1.3-2.3-7.2-3.6-14.7-3.6-22.5 0-7.7.5-15.4.8-23.1 0-.7.2-1.3.4-1.9.1.1.3 0 .5 0zM923 678.9c-.1.7 0 1.2-.1 1.6-1.4 5.3-2.7 10.7-4.3 16-.5 1.8-1.5 3.5-2.5 5-.4.7-1.2 1.3-1.9 1.6-1.6.8-2.6-.2-2.4-2.4.6-7.9 3-14.8 7.5-20.2.9-1.1 2-2.3 3.7-1.6zm-78.6 146.5c-.1.4-.1.7-.2.9-2.6 3.5-5.2 7.1-8.6 9.4-1.8 1.2-2.1 1.1-3.5-.8-1.2-1.6-2.4-3.3-3.8-5.2 4-3.4 7.7-6.7 12.4-6.4 1.4-.1 2.8.4 3.7 2.1zm109.2-154.2c-.1-.7-.2-1.2-.1-1.6.3-2.1 0-4-.5-5.9-1-3.7-.7-7.3.4-10.9.3-1.1.8-1.7 1.7-1.5 1.7.3 3.3.6 4.9 1 .8.2 1.2.8 1 2-.6 4.9-1.4 9.7-3.9 13.7-.9 1.4-1.9 2.8-3.5 3.2zm-53.8-416.6c-.2-.2-.5-.4-.7-.7-4.8-6.9-10.5-12.6-15.8-18.9-1.5-1.7-2.7-3.9-3.9-5.9-.5-.9-.9-2.1-.3-3.5.4.3.7.5 1 .8 5.1 5.7 10.2 11.3 15.2 17.1 1.9 2.2 3.7 4.6 4.6 7.8.3 1 .3 2 .5 3-.3.1-.4.2-.6.3zm32.4 50.9c-3.5-2.7-18.2-25.6-19-29.6.5.3.9.5 1.2.8 4.3 4.1 8.3 8.6 11.9 13.7 2.6 3.7 4.7 7.7 5.6 12.7.2.7.2 1.5.3 2.4zM403.4 675.2c-4.7-.4-19.2-17.3-22.7-26.7.8.3 1.3.4 1.8.8 3.6 2.5 6.6 6.1 9.5 9.8 3.7 4.9 7.3 10 10.9 15.1.2.2.3.6.5 1zm5.2 41c5.2 2.2 22.4 19 24.7 24.2-.9-.2-1.7-.3-2.3-.5-3-1.1-5.6-3.3-8-5.7-5-5-9.4-10.9-13.8-16.8-.2-.2-.3-.5-.6-1.2zm498.8 31.3c2.3-6 4.3-11.5 8.5-15.3.6 2.1 1.6 2.4 3 1.9.6-.2 1.2-.2 1.8-.2 1 0 1.9.1 2.1 1.7.2 1.5-.3 2.8-1.4 3.4-.9.5-1.9.8-2.7 1.5-1.9 1.4-3.6 3-5.5 4.4-1.6 1.3-3.2 2.6-5.8 2.6zM339.7 570.8c-.7-1.1-1.5-2.1-2.1-3.3-2.3-4.5-3.7-9.5-4.8-14.7-.5-2.4-.9-4.9-1.2-7.4-.1-.8-.2-1.6-.1-2.4.1-1.3.8-1.8 1.6-1.2 1.4 1.1 2.8 2.1 3.2 4.7 1.2 7.5 2.6 15 3.9 22.5.1.5.1.9.2 1.4-.3.1-.5.3-.7.4zm481.4 265.5c1.1 1.6 2.2 3.4 3.3 5.1-5.4 6.6-16.2 7.7-20.3 3.9 2.2-3.4 5-5 8.1-3.6 3.5 1.6 5.7 0 7.4-3.9.2-.5.6-.9.9-1.4.1-.1.3-.1.6-.1zm-195.3 71.8c.1-1.8 1.1-2.4 2.1-2.6 2.2-.4 4.4-1 6.6-.8 3 .3 6 1 9 1.9 1.1.3 2 1.7 2.9 2.7.2.3.2 1.3 0 1.7-.2.4-.8.7-1.1.6-6.2-1.8-12.5-2.7-18.8-3-.3-.1-.4-.3-.7-.5zm319.6-577.5c.5.5 1.1.8 1.5 1.4 1.7 2.8 3.5 5.6 5 8.7 1.9 3.8 3.5 7.8 5.2 11.8.2.3.4.7.4 1.1 0 .5 0 1.3-.2 1.6-.3.3-1 .5-1.2.2-.9-.8-1.8-1.6-2.4-2.7-2.1-4.1-4.1-8.3-6-12.5-.8-1.8-1.4-3.8-2-5.8-.3-1.1-.5-2.2-.7-3.3 0-.2.2-.3.4-.5zm6.3 53.6c-1.8-4-3.5-8-4.8-12.3-.4-1.4-.8-2.9-1-4.3-.1-.9-.1-1.8.1-2.7.1-1.1.6-2 1.5-1.9.5.1 1 .8 1.2 1.4 1.4 4.1 2.8 8.3 4.1 12.5.4 1.4.5 3 .4 4.5 0 1-.5 1.9-.8 2.9-.2-.1-.5-.1-.7-.1zm-10.4 301.2c-2 6-3.2 11.9-5.7 17-.4.9-1.1 1.6-1.7 2.4-.6.7-1.3.9-2.2.1.3-1.3.7-2.6 1-3.9 1-3.9 2.1-7.8 3.1-11.7.4-1.6.9-2.6 2.4-2.5.8-.2 1.7-.8 3.1-1.4zm-543.6 16.8c-3.8.2-12.2-11.4-14.7-19.1.8-.8 1.5-.2 2 .3 1.4 1.3 3 2.6 4.1 4.3 2.9 4.5 5.7 9.3 8.5 13.9.1.2.1.4.1.6zm515 78.5c-1.5-1.5-1.5-3.1-1.4-4.6.5-5.2 2.5-9.2 5.6-12.3 1-1 2.1-1.5 3.7-.4-1.8 5.3-4.3 10.1-6.5 15.1-.4.8-.9 1.4-1.4 2.2zm-524.4-54c3.3.6 14.5 12.8 18.2 19.7-3.7.3-16.3-13.4-18.2-19.7zm116 153.4c-6.2-2.2-17.3-13.9-18.2-19.6 6.6 6.2 13.2 11.5 18.2 19.6zM360.1 666.4c1-.9 1.9-1.8 2.7-2.5.4.2.6.2.6.3 1.9 4.5 3.9 9.1 5 14.2.4 1.6.1 3-.8 4.1-1.3-1.4-5.6-10.4-7.5-16.1zm217.2 226.3c4.4 1.5 8.6 2.9 13.1 4.5-.3 1.8-.5 3.4-.8 5.3-3-1.3-5.8-2.4-8.6-3.7-1.1-.5-2.2-1.4-3.2-2.3-.9-.8-1.3-2-.5-3.8zM340.9 408.4c-1.3-2.7-1-6.6 1.1-15.3 1.4.4 2.8.8 4.5 1.3-.2.9-.4 1.6-.5 2.4-.2 1-.5 2.2-.3 3.1.4 1.8-.1 3-1.2 3.5-1.7.8-2.9 2.2-3.6 5zm-37.6 210c2.1-.3 3 .9 3.5 2.6.5 1.6.8 3.3 1.1 5 .6 3.7 1.2 7.3 2.9 10.5.2.4 0 1.2 0 1.8-.5 0-1.1.2-1.5 0-.5-.4-1-1.1-1.2-1.8-1.9-5.8-3-11.9-4.8-18.1zm23.8-62.3c-1.3.2-2-.5-2.4-1.7-.4-1.2-.7-2.5-.8-3.7-.2-2.8-.3-5.6-.3-8.5 0-.7.4-1.8.7-1.9.6 0 1.3.3 1.7.9.5.7.8 1.8.9 2.8.3 3.6.4 7.2.6 10.9 0 .4-.2.7-.4 1.2zm92.8 127.4c3.7 2.1 6.5 5.3 8.6 9.6.4.8.9 1.8.2 2.8-.6.9-1.4.6-2.1.1-.5-.3-1-.6-1.4-1.1-2.5-3.1-4.1-7.1-5.3-11.4zm551.7-247.7c-2.7-3.3-4.4-13.7-3.8-20.8 1 .9 2.1 4.4 3 9.8.7 3.5 1.8 6.9.8 11zm-637.5 164c2.7 4.1 5.1 8.5 7.1 13.2.2.5.2 1.7-.1 2.1-.3.4-1.3.7-1.6.4-.9-.8-1.8-1.7-2.2-2.9-1.1-3-2-6.1-2.9-9.2-.3-1.1-.5-2.2-.8-3.4.2 0 .3-.1.5-.2zm70.6 65.4c1.4-1 2.5-.5 3.2.6 1.9 3 3.7 6.1 5.4 9.3.2.3.1 1.4-.1 1.6-.4.4-1.2.8-1.6.6-.7-.3-1.3-1.1-1.7-1.9-1.7-3.2-3.4-6.6-5.2-10.2zm15.3 37c3.2-.9 7.9 2.8 9.8 7.5-3 1.9-7.8-1.6-9.8-7.5z"/>
  <path class="st2" d="M887.2 543.1c-5.4.7-7.3 4.8-8.6 9.2-1.7 6.1-2.4 12.3-2.7 18.6-.1 1.9.6 2.6 2.5 2.7.5 0 1 0 1.5-.1 2-.5 3.4.2 4.3 2 .2.4.6.8 1.1 1.4 4.1-7.6 6.2-16.1 12.7-22.8.6 1.6 1.1 2.8 1.4 4 3.1 11.9 4 24 2.9 36.2-1.4 15.5-5.1 30.6-9.5 45.5-4.6 15.6-9.5 31-14.1 46.6-.6 2-1.6 3.4-3.3 4.6-1.2.9-2.5 1.8-3.6 2.8-3.4 2.9-3.8 4.7-2.3 8.8.8 2.2 1.2 4.5.7 6.8-.7 2.8-2 5.1-4.5 6.6-2.9 1.7-5.7 3.5-8.5 5.3-5.1 3.1-8.4 7.5-10 13.3-.6 2.1.2 3.3 2.3 2.8 1.4-.3 2.8-1.2 4.1-1.9 1.6-1 3.2-2.2 4.7-3.3 1.6-1.2 3.4-1.1 5.3-.7 0 .7.2 1.4 0 1.8-2.2 3.4-4.4 6.8-6.9 9.9-1.9 2.4-4.7 4-7.6 4.8-8.6 2.3-14 8.2-18.3 15.5-1.7 2.7-1.2 3.6 2 4.2.3.1.5.2.9.4-.1 2.3-1.5 3.9-3 5.3-3 2.7-6 5.4-9.1 8.1-14.2 12.1-28.4 24.2-42.6 36.4-1.9 1.7-3.6 2.2-5.9.8-1.3-.8-2.8-1.2-4.2-1.7-5.3-1.8-11 .3-14.3 5.3.6 1.3 1.7 1.6 3 1.4 1.5-.2 3-.5 4.5-.7 1.1-.2 2.3-.4 3.5-.6.4 1.8-.7 2.4-1.3 3.2-5 5.9-11.3 8.6-19 8.5-1.5 0-3.1.1-4.5.4-2.1.4-3.9 1.3-5.2 3.3-3.1 4.9-8 7.5-13.2 9.2-6.3 2.1-12.8 3.8-19.3 5.4-6.7 1.7-13.5 2.8-19.9 5.4-3.1 1.3-6.1 2.8-8.5 5.2-.7.6-1.2 1.5-1.9 2.4 2.5 1.3 4.8 1.2 6.9.9 5.4-.7 10.8-1.6 16.2-2.6 5.2-1 10.3-2.3 15.5-3.3 1.9-.4 4-.4 5.9-.6l.3.6c-.4.5-.7 1-1.2 1.4-10.7 7.1-22.5 11.1-35.4 11.8-2.9.1-5.9 0-8.8 0-1.6 0-2.9.2-4 1.6-2.3 2.7-5.6 4-8.9 4.9-7.1 2.1-14.4 2.3-21.7 2.5-6.1.1-12.1.5-18.2.7-.8 0-1.6.2-2.3.6-1.3.6-1.3 2 0 2.5 1 .4 2.1.5 3.2.6 1 .1 2-.2 3-.2 1.3 0 2.4.4 3.1 1.9-.6.4-1.2.8-1.8 1-10.2 2.7-20.6 3-31.1 1.7-7.2-.9-14.5-1.5-21.8-2.2-.6-.1-1.2 0-1.8 0-3.3.2-4.1 1-4 4.3 0 .4-.1.8-.1 1.5-3.4.4-6.8.3-10.2-.4-5.3-1.1-9.9-3.6-14.4-6.4-.9-.5-1.8-1-2.6-1.7-3.5-3.1-7.6-3-11.8-2.2-1 .2-2 .5-2.9.9-2.8 1.3-3.3 2.8-2.1 5.6.3.6.5 1.3.9 2.3-2.2-.3-3.9-.5-5.7-.8-13-2.3-25.8-5.4-38.4-9.2-16.6-4.9-32.8-11.1-48.6-18.4-22.3-10.3-43.1-23-62.9-37.4-11.8-8.6-23-18-33.6-28-18-16.9-34-35.4-48.6-55.3-1-1.3-1.9-2.5-.9-4.4.4-.7 0-2.3-.5-3.2-2.2-3.7-4.6-7.3-7-11.1-2.5 1.3-2.8 3.9-4.8 5.5-.9-.6-1.9-1.2-2.7-2-1.2-1.1-2.2-2.4-3.5-3.4-1.2-1-2.7-1.6-4.5-2.7-1-2.7.5-4.8 4-4.3 1.9.3 3.6 1.2 5.4 1.9.8.3 1.6.9 2.7 1.1-.4-.7-.8-1.5-1.3-2.2-3.1-4.6-6.3-9.2-8.2-14.6-1-2.8-1.8-5.6-.9-8.6.4-1.4-.3-2-1.5-2.5-7.8-3.8-14.2-9.4-19.5-16.2-.4-.5-.7-1-1-1.5-.1-.2 0-.4 0-.7 1.6-.6 2.9.2 4.1 1 1.9 1.2 3.7 2.5 5.6 3.7 1 .6 2.1 1.2 3.3 1.6 1.4.5 2.6.1 3.4-1.1-.2-.3-.2-.7-.5-.8-9.1-5.9-16.1-14.2-23.6-21.8-.1-.1-.4 0-.8 0 .1.7.1 1.3.2 2s.4 1.4.3 2.1c-.1 2.4-2.3 3.6-4.2 2.2-3.2-2.6-6.3-5.4-9.5-8.1-3.9-3.4-7.7-7-11.6-10.3-1.3-1.1-2.7-2.5-5.2-2.7.4 1.4.7 2.5 1.2 3.5.6 1.3 1.5 2.4 2.2 3.7.3.6.6 1.9.3 2.1-.6.5-1.7.8-2.4.6-1.2-.4-2.3-1.3-3.3-2.1-1.3-1.1-2.4-2.5-3.6-3.7-.5-.5-1.1-.7-2-1.4-.1 1.3-.2 2.1-.3 3-.3 1.6-1 2.2-2.7 2.3-2.4.1-4.8.3-7.7.4-11.3-18.2-23.7-36.4-31.8-56.9 1.7-1.1 3.3-1.9 4.6-3.1 1.3-1.2 2.3-2.8 3.4-4.2 2.3-2.8 3.9-2.9 6.5-.2.6.6 1.2 1.3 2.2 2.5.3-1.2.6-1.9.5-2.4-.3-1.2-.8-2.3-1.2-3.4-.8-2.3-1.7-4.6-2.5-6.8-.3-.8-.6-1.5-1-2.2-1.2-1.8-1.9-2-3.7-.8l-1.2.9c-1.8 1.1-3.1.7-3.7-1.3-.8-2.3-1.3-4.7-2-7-.6-1.8-1.3-3.6-2.3-5.3-1.1-1.8-2-1.7-3.5-.4-.7.6-1.6 1-2.7 1.6.3 3.5 2.9 6.9 2.1 11.1-1.3-.4-1.6-1.4-2-2.3-3.5-7.3-6.3-14.9-8.6-22.7-4.3-14.6-7.1-29.6-9.4-44.6-1-6.3-1.8-12.7-2.6-19-.1-.8.1-2 .6-2.4 1.1-.8 2.2 0 2.9.9.5.7 1 1.6 1.2 2.4.4 2.4.6 4.8.9 7.2.1.8.2 1.5.3 2.5 1.7-1.1 1.8-2.5 2.1-3.9 1.2-5.1.8-10.1-1.2-14.9-.3-.7-.7-1.5-1.2-2.1-2.2-3.1-5.9-3.1-8.1.1-2 3-3.3 6.3-3.6 9.9-.3 3.8-.2 7.7-.3 11.5 0 1 .1 2-.3 3.2-.3-.4-.7-.7-.9-1.2-2.8-6.4-3.8-13.2-4.2-20.1-.6-11.5.3-22.9 1.8-34.3.1-.9.4-1.9.6-2.8.2 0 .5-.1.7-.1.5.8 1.2 1.5 1.4 2.4.4 1.9.8 3.8.9 5.7.2 2.7.1 5.5.3 8.2.1 1.2.5 2.5.7 3.8 1.9-.6 2.2-2 2.6-3.2l2.7-9.3c.2-.8.5-1.6.9-2.2.4-.6 1.2-1.4 1.7-1.3.6.1 1.2.9 1.6 1.6.5.8.5 1.8 1 2.5.5.8 1.3 1.9 2 1.9s1.8-1 2.1-1.8c.8-2.5 1.7-5.1 1.8-7.6.4-7.3-.6-14.4-3.5-21.1-1.1-2.5-2.7-4.7-4.2-7-.6-.9-1-1.6-.9-2.7.5-4 1-8 1.2-12.1.2-5 .9-9.9 2.5-14.6 1.1-3.5.3-4.6-3.4-5-.5-.1-1-.1-1.5-.2-1.9-.4-2.3-.8-1.7-2.6 2-5.8 2.7-11.9 3.7-17.9.5-3.2 1.5-6.3 2.3-10 3.4 2.9 2.1 6.6 3.2 9.9 3.6-3.6 2.9-9.1 6.7-12.5.5.7 1.1 1.2 1.3 1.8 1.2 3.8 2.3 7.6 3.4 11.4 1.1 3.8 2.1 7.6 3.2 11.4.3.9.9 1.7 1.2 2.4 3.8-2.1 7.3-4.1 10.9-6.1.2.2.6.4.6.7.5 5.4 1.1 10.9 1.3 16.4.2 3.6-1.8 5-5.4 4.3-1.6-.3-3.1-.8-4.6-1.2-2.8 3.5-2.9 10.8-.3 15.3 2.1-1.1 1.2-3.7 2.8-5.5.5.9.9 1.5 1.1 2.2 1.3 6 2.6 12.1 3.9 18.1.1.7.3 1.3.6 2.3 1.1-1 1.9-1.8 3.1-2.9.7 1.2 1.6 2.2 1.8 3.2 1.4 6.1 1.9 12.2.5 18.4-.4 1.6-.1 2.6 1 3.8 3.5 3.6 4.3 8.4 5 13.1.4 2.6.3 5.2.4 8.2.9-.3 1.6-.3 2.1-.7 1.6-1.2 3.3-2.4 4.8-3.7 1.7-1.6 1.7-2.1.5-4.1-2.9-4.6-5.3-9.3-6.8-14.6-2.4-8.8-2.4-17.6-1.3-26.6 2.1-17.3 7.9-33.3 15.7-48.7 9.4-18.6 21.2-35.6 34.8-51.3 7.5-8.7 15.3-17.1 23.4-25.2 12.3-12.5 25.6-24 39-35.4 14.8-12.5 29.6-25 44.4-37.6 1.4-1.2 2.6-2.4 4-3.7l-.3-.6c-.8.3-1.6.5-2.2.9-14 7.8-28.1 15.4-41.9 23.6-18.6 11-36.1 23.7-52.4 38.1-20.4 18-38 38.3-51.7 61.9-7.4 12.9-13.5 26.3-17.9 40.6-.3 1-.7 2-1.6 3-.2-.5-.5-1-.5-1.6-1-6.3-.5-12.5.7-18.8 2.3-11.5 7-22 12.7-32.1 8.2-14.3 18.4-27.2 29.7-39.2 17.6-18.6 37.4-34.5 57.7-49.9 5.6-4.2 11.1-8.5 16.7-12.8.9-.7 1.8-1.6 2.4-2.7l-19.8 7.2c-.1-.1-.2-.2-.4-.3.6-.6 1.2-1.3 1.9-1.9 21.9-16.8 44.7-32.4 68.6-46.3 21.3-12.3 43.2-23.2 66-32.5 15.9-6.4 32.1-12 48.6-16.7 13.2-3.7 26.5-6.9 40-9.3 13.6-2.4 27.3-4.1 41.1-5 15.3-1.1 30.6-1.1 45.9-.3 11.1.6 22.2 1.9 33.2 3.7 13 2.1 25.8 5.2 38.5 8.9 1.1.3 2.2.6 3.2 1.1 7.9 3.9 16.7 2.9 25 4.2 21.1 3.2 41.2 9.1 59.5 20.2 2.9 1.8 5.6 4.1 8.3 6.1.4.3.7.9 1.5 1.8-2.5-.2-4.4-.4-6.2-.6-.6 1.5.5 1.9 1.1 2.5 2.8 2.3 5.8 4.5 8.6 6.9 1.2 1 2.3 2.3 3.3 3.6.7.8 1.1 2 .2 2.8-.6.5-1.7.6-2.5.4-4.7-1.5-9.5-3-14.2-4.7-7.8-2.8-15.6-5.8-23.5-8.4-5.7-1.9-11.6-2.8-17.7-1.8l-1.2.3c-.1 0-.1.2-.3.6.7.4 1.4.8 2.2 1.1 26.2 9 49.9 22.5 71.7 39.4 8.5 6.6 16.6 13.7 24.9 20.5.5.5 1.1 1 1.6 1.4.7.7 1.7 1.3 1.1 2.5-.7 1.3-1.9 1.5-3.1 1.2-1.4-.4-2.8-1.1-4.2-1.7-1.6-.7-3.1-1.4-4.7-2.1-.6-.2-1.3-.1-2.6-.2.9.9 1.2 1.4 1.7 1.7 14.2 9 27 19.8 40.1 30.2 4.9 3.8 9.9 7.4 14.9 11.1.6.4 1.3.7 2.2.8-3.3-5.6-7.9-10.1-12.7-14.4-4.7-4.2-9.5-8.4-14.1-13.2.6 0 1.3-.1 1.8.1 6.5 1.9 12.4 5 18.1 8.6 9.6 6.1 18.4 13.4 26.5 21.4 19.2 18.8 34.7 40.5 47.3 64.2 3.8 7.1 7.1 14.4 10.6 21.6.5 1 .8 2 1.2 3-.2.1-.4.2-.5.4-.8-1-1.6-1.9-2.3-2.9-5-7.2-9.9-14.4-14.9-21.5-7.6-10.7-15.5-21.1-24.8-30.4-5.3-5.3-11.1-10.2-17.4-14.2-.9-.6-1.8-1.1-2.7-1.6l-.6.6c.4.8.9 1.7 1.3 2.5 3.3 5.4 7.8 9.9 12.4 14.2 5.6 5.2 11.2 10.3 16.7 15.5 3.5 3.3 6.5 7.1 8.2 11.6.8 2.2 1.1 4.7 1.5 7.1.1.9-.3 1.9-.5 3.2-1.2-.7-1.9-1.2-2.7-1.7-1.3-.8-2.7-1.5-4.3-.8-1.5.7-2.4 0-3.4-1.1-7.3-8-12.8-17-16.5-27.1-.7-1.9-1.5-3.7-2.2-5.5-.2 0-.5.1-.7.1-.1.8-.3 1.7-.4 2.5-.3 5.6 1.7 10.5 4 15.4 4 8.4 9 16.1 14 23.9 9.6 14.9 19.2 29.9 27.7 45.5 7.6 14.1 14.3 28.7 19.1 44 2.7 8.7 4.7 17.7 5.3 26.8.1.9 0 1.8-.1 2.7 0 .2-.3.5-.7 1.3-.5-1.3-.9-2.2-1.2-3.1-2.8-8-5.3-16-9.3-23.4-1.5-2.8-3.3-5.3-5.1-7.9-1.3-1.9-3-2.9-5.4-1.7-1.4.7-3.2.6-4.7 1.2-1.7.7-3.2 1.6-4.8 2.6-1.3.8-1.3 1.8-.6 3.1 1.9 3.4 3.2 7 3.9 10.8.8 4.5 0 8.7-1.5 12.9-2.7 7.4-1.8 14.6 1 21.7.2.5.4 1 .5 1.4.8 2.2.6 2.8-1.6 3.1-1.8.3-2.1 1.3-2.3 2.7-.1 1.1-.1 2.2-.1 3.3-.2 13.6-.8 27.2-2.9 40.6-.8 5.2-1.8 10.5-3.7 15.6-.1-.3-.3-.7-.3-1 0-2.7.1-5.5.2-8.2 0-1.5.2-3-1.5-4-.6-.3-.7-1.6-.8-2.5-.4-5.6-.8-11.1-1.1-16.7-.3-6.3-.3-12.6-2.2-18.7-.7-2.4-2.2-4.5-3.4-6.7-.3-.5-.8-.7-1.6-1.4-.1 1.1-.2 1.7-.2 2.3.3 8 .6 16 .8 24 .1 6.8.4 13.6 2.5 20.2-.4 0-.4.4-.3 1zm-617 154c.9 1.3 1.3 2 1.8 2.6 2.1 2.8 4.2 5.5 6.2 8.3 8.9 12.2 17.6 24.6 26.5 36.8 8.4 11.4 17.7 22 28.2 31.4 7.3 6.5 15.2 12.2 24.2 16.2.5.2 1.1.3 2 .6-1-2.7-2.5-4.4-4.2-5.9-5.1-4.4-10.5-8.6-15.7-13-3.7-3.1-7.5-6.2-11-9.6-2.7-2.5-4.7-5.6-5.9-9.1-.4-1.2-1.1-2.4-.1-4 1.2.7 2.3 1.3 3.3 2.1 2.2 1.8 4.3 3.8 6.5 5.5 1.7 1.3 3.5 2.4 5.3 3.5.9.5 2.1.9 3.3-.5-.8-1.1-1.6-2.2-2.5-3.2-10.2-11.6-20.5-23-30.5-34.8-11.3-13.3-21.1-27.8-28.4-43.7-.1-.3-.2-.7-.4-.8-.6-.4-1.4-1.2-1.9-1.1-.7.2-1.4.9-1.9 1.6-.3.4-.1 1.2-.1 1.8 0 1.5-.4 2.9-1.8 4.4-3.1-4.4-7.8-3.4-12.2-4.7.1 3.2 1.7 4.9 3.7 6.4 1.5 1.1 3.2 1.8 4.7 2.7 1.6.9 3.3 1.6 4.7 2.7 1.1.8 2.4 1.9 2 4-1.7-.2-3.4-.2-5.8-.2zm-2.1-335.7c.2.2.5.4.7.7-5.3 11.3-11.6 22.2-16.8 34.1 2-.1 3.5-.1 4.9-.2 2-.1 2.2 2.1 3.9 3 .7-1.4 1.5-2.5 2-3.8 1.6-3.9 3.2-7.9 4.7-11.9 3.5-9.6 6.6-19.4 11.4-28.5.3-.6.5-1.3.9-2.5-3 2.2-4.4 5.4-7.9 7.3.2-2.3.1-4 .5-5.5 1-4.5 3.8-8.1 6.7-11.5 3.3-3.8 6.9-7.5 10.1-11.4 2.1-2.5 4-5.2 5.5-8 1.2-2.3 1.6-4.9-.2-7.4-.5.2-.8.2-1 .4-.4.3-.8.7-1.1 1.1-11.9 13.5-23.5 27.2-33.9 41.9-9.2 13-17.2 26.5-22.4 41.7-.4 1.3-.8 2.6-1.3 4.3.9-.4 1.2-.4 1.4-.6.6-.6 1.3-1.3 1.8-2 3.5-5.5 7.1-10.9 10.4-16.5 4.3-7.3 8.3-14.7 14.6-20.5 1.6-1.5 3.4-2.8 5.1-4.2zm36.1 309.1c2.4-1.9 2.6-2.3 1.4-4.6-2.6-5.4-5.2-10.8-7.7-16.2-1-2.1-1.7-4.3-2.8-6.4-.9-1.9-1.7-2.1-3.6-1.1-2.6 1.3-5.2 1.6-8 .9-3-.8-6.1-1.5-9.2-2.2-1.4-.3-2.7-.5-3.9.6 2.9 4.5 5.6 8.7 8.5 13.2.8-.5 1.4-.9 2-1.3.9-.6 1.7-1.4 2.7-2 1.6-.9 2.9-.5 4.1.9 1.1 1.3 1 2.1-.3 3.7-.3.3-.6.6-.8.9-1.4 1.8-1.3 2.8.3 4.5 1.9 2.1 4.2 3.4 7.1 3.8 3.5.4 6.7 1.7 9.1 4.4.2.3.6.5 1.1.9zm578.2-242c-.6.1-.9.1-1.2.2-.6.2-1.1.5-1.6.8-1.7.9-1.9 1.4-1 3.2 4.5 9.6 6.4 19.8 8.4 30 1.2 6.1 2.6 12.1 5.2 17.7.4.9 1 1.8 1.5 2.7.3-.1.5-.1.8-.2 0-1.1 0-2.1.1-3.2.6-5.8-.3-12 5.1-16.1-1.8-3.7-3.6-7.3-5.3-10.8-3.3-7-6.6-14.1-10-21.1-.5-1.2-1.4-2.2-2-3.2zM300.4 588c.7-2-.9-4.3.7-6.5.7 1.4 1.3 2.5 2.2 4 1.7-1.6 3.2-2.9 4.6-4.4.8-.9 1-1.9.3-3-2.4-4-5.3-7.5-9.5-9.5-2.6-1.2-5.3-2.4-8.7-1.3.8 3.8-.6 7.2-1.6 10.7-.4 1.2-.5 2.6-.5 3.9 0 2.2.6 2.8 2.7 3.4 3.2.7 6.3 1.7 9.8 2.7zm-7.8-244.9c2.6-.4 4.7-1.7 6.4-3.5 2.4-2.6 4.8-5.2 6.9-8.1 4.7-6.3 8.4-13.4 14.5-18.6.2-.2.1-.8.2-1.3-2.3-.2-2.3 3.1-4.7 2.5-.1-.7-.2-1.4-.4-2.6-9.2 8.9-17.1 18.1-24.8 27.3.7 1.5 1.2 2.7 1.9 4.3zm-60.2 4.3c7.3-3 35.6-35 36.8-41.5-2.3 2.5-4.2 4.8-6.4 6.9-8.2 7.9-16.6 15.8-24.8 23.8-1.7 1.7-3 3.8-4.2 5.9-.8 1.3-.9 3-1.4 4.9zm86.4 342.1c-3.6-6.1-6.7-11.6-10-17.3-.8.7-1.4 1-1.8 1.5-1.3 1.6-2.6 3.3-3.9 5-3.3 4.4-3.3 4.4.2 8.8 1 1.3 2.1 1.9 3.8 1.9 3.7 0 7.3.1 11.7.1zm.6 1c-.3.1-.5.3-.8.4.4 8.4 7.3 13.1 12.3 19.7h-7c-.1.2-.2.5-.3.7 1.9 1.9 3.8 3.8 5.8 5.6 1.9 1.8 3.9 3.6 5.8 5.3 2.1 1.8 4.1 3.6 6.3 5.2 2.1 1.6 3.9 3.6 6.7 4.3-1.3-2.2-2.8-4.2-4.3-6.2-.8-1.1-1.8-1.8-3.2-2.1-1-.2-2-.8-3.1-1.2 1.3-3.4-.3-5.5-2.7-7.2-.3-.2-.7-.5-1-.7-1.4-.7-2-1.5-1.4-3.2.2-.6-.3-1.5-.7-2.1-3.7-5.7-7.4-11.3-11.2-17l-1.2-1.5zM148.2 492.9c-.6-3.8 1.4-7.2 2.5-10.9.7-2.1.5-4.6.6-6.9.1-1.2-.8-1.8-2-1.8h-6.1c-1.4 0-2 .8-2 2.1.2 4.9.3 9.7.6 14.6.1 1.7.7 3.4 2.1 4.4 1.4-.5 2.7-.9 4.3-1.5zM886.4 610c-1.6.2-2.3 1.3-2.7 2.6-.5 1.7-.9 3.5-1.1 5.3-.4 2.8-.5 5.7-1.1 8.4-.4 1.8-1.2 3.6-2.2 5.2-1.3 2.1-.9 3.5 1.6 3.7 1.4.2 2.8.1 4.3.1 2.4 0 2.3 0 3-2.4 2.2-7.7.4-15.1-1.3-22.5-.1 0-.3-.2-.5-.4zM281.2 284c-8.3 3.3-33.2 29.1-35.3 36.2 1.3-1 2.3-1.6 3.1-2.4 4-3.9 8-7.7 11.9-11.7 6.3-6.6 12.4-13.3 18.6-20 .6-.8 1.2-1.5 1.7-2.1zm62.1 6c-2.3 1.5-4.8 2.9-7.1 4.5-.6.4-1.1 1.4-1.2 2.2-.1 1.6-.2 3.2-1.2 4.6-.8 1.2-.1 2.1.8 2.9.9.8 1.8.6 2.7-.2 2.5-2.1 5-4.2 7.4-6.3 1.3-1.2 2-2.7 1.9-4-1.2-1.4-2.1-2.4-3.3-3.7zm402 508.5c-2.2-.7-3.6-.2-5 .7-2.4 1.5-4.7 3.1-7.2 4.4-1.5.7-2 1.5-1.6 3 .2.6.2 1.2.3 1.8.6 2.7 1.7 3.4 4.3 2.3.6-.3 1.3-.6 1.8-1 3.7-2.9 5.6-6.8 7.4-11.2zM307.9 261.3c0 .2.1.5.1.7.8-.2 1.7-.2 2.5-.6 3.2-1.7 6.5-3.4 9.4-5.5 5.9-4.3 11.6-8.8 17.4-13.3.2-.2.3-.5.5-.7-2 0-2.5 0-5 1.5-3.7 2.3-7.3 4.7-10.8 7.3-4.8 3.5-9.4 7.1-14.1 10.6zM714.1 814c-.1-.5-.1-.6-.2-.7-2-2.5-3.8-3.1-6.6-1.7-3.1 1.6-6.2 3.3-9.3 5.1-1 .6-1.1 1.9 0 2.5.8.4 1.7.8 2.6.8 1.5 0 3-.2 4.5-.6 3.6-1 6.7-2.7 9-5.4zm55-23.1c-3.8-2.7-7.3-2.8-10.9-1-2.5 1.2-4.4 3-4.9 6.3 2.9 0 5.5.1 8 0 3.4-.3 5.7-2.3 7.8-5.3zM313.6 651.4c.9 3.2 5.2 9.9 7.4 11.3 1.1-1.1 2.3-2.2 3.3-3.4.4-.4.5-1.3.4-1.9-1.3-4.6-6.1-7.1-11.1-6zm-88.4-305.3c1.1-.8 2-1.3 2.6-2 1.5-1.7 3.1-3.5 4.4-5.4 2.5-3.8 4.7-7.7 7.1-11.6.2-.4.2-.8.4-1.5-3.6 1.8-12.6 14.5-14.5 20.5zM875.9 601c-.6.1-.8.1-1 .2-3.8 2.7-5.2 8.1-2.9 12 .3.5 1.3.9 2 .9.4 0 1.1-.9 1.2-1.4.4-3.4.8-6.8 1.1-10.2 0-.4-.3-.9-.4-1.5zm-1.3-78c-.9 2.4-.5 4.6-.3 6.7.2 2.2.6 4.4.9 6.6.5 4.8.5 4.8 2 6.4.1-2.1.4-3.9.4-5.7-.1-3.9-.4-7.9-.6-11.8-.2-1.2-.8-1.9-2.4-2.2zM141.1 369.9c-.8.8-1.5 1.1-1.7 1.7-1.4 2.9-1.4 5.8-.4 8.8.2.5.6 1.2 1.1 1.4.6.3 1.6.6 2.2.3.6-.3 1.3-1.2 1.2-1.8-.1-2.6-.3-5.2-.7-7.8-.2-.8-1-1.5-1.7-2.6zm103.5 43.4c-2.4 3.7-3.5 7.8-5 11.9-.3.9-.4 1.9.8 2.2 1 .3 1.3-.6 1.6-1.4 1.5-4.1 2.4-8.3 2.6-12.7zM897 500.5c2.4-4.6 2.4-4.8 0-6.8-1.9 1.9-1.9 2.9 0 6.8zm-616.8 170c.3 1.2.9 1.9 2.2 1.4-.8-.5-1.5-.9-2.2-1.4zm-4.8 0c-.3.3-.7.6-1 1 .4.4.7.9 1.1 1.3.3-.6.3-.8.2-1.1l-.3-1.2z"/>
  <path class="st2" d="M233.4 726.5c1.3 1.1 2.5 2.2 3.8 3.4 10.5 10.2 19.9 21.4 29.1 32.8 10.1 12.5 20.1 25 31.1 36.6 7.9 8.3 16.3 16.2 25.7 22.8 6.3 4.4 12.9 8.4 20 11.5.5.2 1.1.4 1.9.1-.5-.5-1-1.1-1.5-1.5-8.1-6.9-16.5-13.5-24.4-20.6-25.7-23.2-49.1-48.4-69-76.8-4.9-7-9.3-14.2-14-21.4-.3-.5-.4-1.1-.7-1.8 1.3-.3 2.1.5 2.7 1.2 4.5 4.4 9.2 8.6 13.4 13.3 10 11.1 19.6 22.5 29.5 33.6 9.8 11 20 21.6 30.8 31.6 10.5 9.7 20.9 19.6 31.7 28.9 18.9 16.4 38.3 32.1 60.1 44.4 15.4 8.7 31.4 16.2 48.7 20.1 4.7 1.1 7.8 3.6 10.6 6.9 1.4 1.7 3.1 3.2 3.8 5.6-1.5.9-3 .6-4.5.4-8-.8-15.7-3.2-23.1-6.2-10.9-4.3-21.2-9.7-31.6-15-3.7-1.9-7.6-3.5-11.3-5.1-.5-.2-1.1-.3-2.1-.5 1.7 3.9 6 5.3 7 9.3-2.6.8-4.5-.1-6.4-1.1-5.3-2.7-10.6-5.5-15.8-8.5-14.6-8.4-28.2-18.4-41.9-28.2-7.9-5.7-15.6-11.7-23.7-17.1-4.4-2.9-7.4-6.5-10.4-10.7-4.7-6.5-10-12.6-15.3-18.5-11.5-12.7-23.6-24.9-34.2-38.4-7-8.9-13.4-18.1-19-27.9-.5-.9-1-1.9-1.4-2.8.1-.1.2-.3.4-.4zm134.3 125.8c2 5.8 12.8 13.9 18.9 14.4-.6-4.2-11.9-12.9-18.9-14.4zm-168.3-79.1c-1.8.5-3.1-.4-4.3-1.3-2.2-1.7-4.4-3.6-6.6-5.4-1.5-1.2-3-2.5-4.5-3.6-.8-.5-1.7-.8-2.8-1.3-.6 2.2.3 3.4 1.3 4.5 1.9 1.8 3.9 3.6 5.9 5.3 1.5 1.2 3.1 2.3 4.6 3.5.9.7 1.7 1.5 2.4 2.3.7.8 1.1 1.8.2 2.7-.8.8-1.7.4-2.5-.2-2.8-2-5.6-4-8.4-6.1-9.6-7.4-18.6-15.4-27.3-23.8-7-6.8-13.8-13.8-20.7-20.6-1.3-1.3-2.2-2.6-2.2-4.7 0-2.9-1.6-5.4-3.3-7.7-3.2-4.2-6.5-8.3-9.9-12.4-6.7-8-13.3-16.1-18.3-25.4-.9-1.6-1.7-3.2-2.5-4.9-.3-.6-.3-1.3-.6-2.3.7.4 1.1.5 1.4.7 32.4 33.8 63.3 69 98.1 100.7zM940 426.7c-2.4-.2-3.8-1.3-5.1-2.6-2.4-2.5-4.9-4.9-6.9-7.7-8.6-11.9-15.7-24.6-20.4-38.6-1.3-4-2.2-8-1.6-12.2.3-2.6 1-3.8 3.1-5.4.3.2.7.4.8.7 6.3 11.6 12.7 23.1 18.9 34.7 4.7 8.8 8.5 17.9 10.7 27.7.3 1.1.4 2.2.5 3.4zm-71.3-177.8c-27.2-26.1-57.2-48.4-90.2-67.2.9-1.8 1.7-3.4 2.5-5.1.8.3 1.4.5 1.9.8 14.5 9.2 29 18.3 43.3 27.7 10.8 7.1 20.9 15.1 30 24.3 4.4 4.5 8.5 9.3 11.5 14.9.7 1.3 1.2 2.7 1.8 4.1-.3.1-.6.3-.8.5zm-751.6 263c1 2.4 2.3 4.7 3.1 7.1 4.1 11.9 8.1 23.8 12.1 35.7 4.1 12.2 8 24.4 12.2 36.6 3.1 9 6.5 17.9 9.7 26.9.2.4.1.9-.3 1.7-.9-.9-1.8-1.7-2.6-2.7-5.9-7-10.1-14.9-13.7-23.2-5.3-12.2-9.1-24.9-12-37.9-3.2-14.3-6.2-28.7-9.2-43.1-.1-.3 0-.6.1-.9.2-.1.4-.2.6-.2zm804.6-222c-32.4-41.8-70.1-78.2-111.5-111 9.3 3.8 42.9 28.6 62.7 48.4 19 18.9 35.8 39.3 48.8 62.6zm16.4 47.9c-2.5-3.4-4.9-6.9-7.5-10.3-10.7-14.2-21.5-28.2-32.1-42.5-5.6-7.6-11-15.3-16.3-23.1-1.4-2-2.4-4.3-3.4-6.4-.3-.7-.4-1.4-.2-2.3 25.4 24.4 46.5 51.7 60.4 84.2-.3.1-.6.3-.9.4zM98.8 666.1c-1.6-2.2-3-3.9-4.2-5.7-7.4-10.4-12.9-21.8-17.6-33.6-4.7-11.8-8.4-23.9-11.8-36.1-.2-.6-.2-1.2-.3-2.2 2-.7 3.9-1.4 6.2-2.1.4 1.6.8 2.8 1.1 4.1 2.2 11.1 5.5 21.8 10.1 32.1 2.9 6.6 6.2 12.9 10.9 18.5 3.2 3.8 4.1 8.7 4.9 13.6.5 3.2.7 6.4 1.1 9.7-.1.3-.2.7-.4 1.7zM65.2 366.9c-.9 3.4-1.8 6.5-2.5 9.6-2.2 8.9-3.1 18-4 27-1.2 12.1-2.2 24.2-3.3 36.3-.2 2.2-.7 4.4-1.1 6.6-.2 1-.4 2.1-1.8 2.1s-2.4-.7-2.7-2c-.2-1-.2-2-.2-3 0-.7.2-1.4.2-2.1.4-3.6-.1-4.2-3.8-4.9 0-1.1-.1-2.3 0-3.5 1.2-9.7 3.2-19.2 5.7-28.6 2.3-8.5 4.5-17 6.5-25.6.8-3.3 1.1-6.8 1.5-10.2.4-3.3.7-3.5 3.7-2.5.6.3 1.1.5 1.8.8zm842.2 323.9c-3 8-6 15.8-9 23.8-.8-.4-1.4-.8-2.1-1.2-2.3-1.4-4.5-1.3-6.5.4-1.6 1.4-3 3-4.3 4.7-1.8 2.3-3.2 4.9-5 7.3-1.3 1.7-2.7 3.3-4.2 4.7-.9.8-1.9 1.8-3.8 1.2.4-.9.7-1.7 1.1-2.5 4.6-9 9.2-18 13.8-27.1 2.1-4.2 3.9-8.4 5.9-12.7 1-2.3 1.4-2.4 3.7-1.8 2.5.7 5.1 1.4 7.6 2.1.9.2 1.6.6 2.8 1.1zM923 465.7c.7 2.3 1.6 4.4 2.1 6.5 2.7 12 5.4 23.9 8 35.9.6 2.7.2 3.2-2.6 3.5-3 .4-5.8 0-8.5-1.4-1.7-.9-3.5-1.5-5.3-2-1.1-.3-1.8-.9-2-2-.3-2.1-.7-4.2-.9-6.3-.2-2.9-.1-5.9-.2-8.8-.1-2.6 1.2-3.7 3.8-2.9.9.3 1.8 1 2.7 1.4 2.1 1.1 3.9.2 4-2.2.1-1.3-.2-2.6-.5-3.9-.9-3.7-2-7.4-3-11.2-.3-1.1-.3-2.2-.4-3.3-.1-1.6.7-2.6 2.8-3.3zM122 598.5c.8.9 1.6 1.7 2.3 2.6 3.8 5.4 7.5 10.9 11.2 16.3 4.4 6.3 8.9 12.6 13.4 18.8 1.9 2.7 2.9 5.6 1.8 8.9-.3.8-.4 1.6-.7 2.3-.7 2-.6 4 .3 5.9.4.8.7 1.6 1.1 2.7-1.6.4-2.4-.7-3.2-1.4-3.5-3-5.7-6.8-7.4-11-1.8-4.4-3.4-8.9-5.1-13.3-1.7-4.4-4.5-8.1-8.2-11.1-.7-.6-1.5-1.5-1.8-2.4-.8-2.3-1.3-4.7-1.9-7-.7-3-1.3-6.1-2-9.2-.1-.6-.2-1.1-.3-1.7.1-.2.3-.3.5-.4zm692.8 199.3c.8.9 1.8 1.6 2.3 2.5 1.7 2.9 3.9 5.2 7.8 5.3-.3.8-.4 1.3-.7 1.7-3.1 3.6-6.1 7.4-9.3 10.9-1.6 1.7-3.5 3-5.4 4.4-1.1.8-2.4 1-3.6-.1-3.7-3.2-7.4-6.3-11.1-9.5-.2-.2-.3-.5-.6-1 1.9-3.2 4.4-5.9 8.1-7.3.9-.4 1.9-.7 2.9-.9 3.1-.7 5.7-2.1 7.8-4.5.4-.5 1-.9 1.8-1.5zm94.9-193.5c-.4-.4-.5-.5-.5-.6.1-4.6-1.1-9-1.7-13.5-.3-2.2-.4-4.4 1.1-6.8 1.2.5 2.5.9 3.5 1.5 1.4.8 2.6 1.9 3.9 2.9 2.8 2.2 5.9 3.1 9.4 2.2.5-.1 1-.1 1.8-.3.1 1.5.3 2.9.2 4.3-.1 5.5-1.6 10.6-5 15-.9 1.2-2.1 2.2-3.3 3-.7.5-1.7.7-2.5.8-1.7.1-2.3-.8-1.8-2.5.1-.4.3-.7.5-1.1.7-2 .1-3.8-1.4-5.3-1.5-1.3-2.9-.5-4.2.4zM97.4 456.6c-1.3-28.3.9-56.4 8.4-84.5 1.4 1.8 1.3 3.3 1.3 4.7.1 5.6-1.2 11.1-2.1 16.6-1.3 7.6-2.6 15.2-3.6 22.8-.3 2.7.2 5.4.5 8.1.3 1.9 1.2 3.7 2.9 4.8 1.1.7 1.3 1.7 1 2.9-1 3.6-1.7 7.3-2.9 10.8-1.6 4.7-3.6 9.2-5.5 13.8zm268.5 436.5c-3.5-2.2-7-4.3-10.6-6.5-8.5-5.3-17.2-10.4-25.6-15.9-5.4-3.5-10.3-7.6-14.3-12.7-1.7-2.1-3.3-4.2-3.9-7.4.7.4 1.1.5 1.3.7 7.6 7.2 16.4 12.6 25.1 18.1 6 3.8 12 7.5 17.9 11.5 2.7 1.9 5.1 4.3 7.5 6.6 1.4 1.4 2.5 3.1 3 5.1-.1.2-.2.4-.4.5zM213.4 667.2c1.5.5 3 1 4.4 1.6 5.9 2.6 11.2 6.2 16.2 10.1 8.6 6.5 16.6 13.7 24.1 21.4.5.5 1 1 1.4 1.6.2.2.1.6.2 1.1-2.9-.1-5.4-1-7.9-2.2-6.2-2.8-11.4-7-16.3-11.6-7.3-6.8-14.6-13.7-21.9-20.6-.2-.2-.4-.5-.5-.7.2-.3.2-.5.3-.7zM843.8 788c-1.6-3.2-3.7-4.3-6.4-4.7-1-.2-2-.9-3.2-1.4.4-.8.6-1.5 1-2 4.2-5.3 9.4-9.2 16-10.9 2.5-.6 5-.8 7.4.5 2.7 1.4 3 2.6 1.1 4.9-1 1.2-2.2 2.4-3.5 3.3-4.4 2.9-9.2 5.1-12.4 10.3zM96.4 369.1c-2.2 7.1-1.6 14.1-1.7 21 0 1.1-.1 2.2-.4 3.3-.1.5-.5 1.4-.9 1.4-2.4.5-2.8 2.4-3.3 4.2-.1.5-.4.9-.7 1.3-1.5-.2-1.9-1.3-2.1-2.4-.5-3.2-.8-6.4-1.2-9.6-.3-2.4-.3-4.9-.8-7.2-.5-2.7.2-4.8 2.3-6.5 1.7-1.4 2.8-3.1 3.3-5.3.4-2 1.1-2.3 3-1.7.7.5 1.4 1 2.5 1.5zm-14.9 79c1.7 2.8 2.5 5.9 2.6 9.1.2 5.7.2 11.4 0 17-.2 6.8-.2 13.6 1.1 20.3.1.5.1 1 .1 1.5 0 .2-.1.4-.3.9-.4-.5-.8-.9-1-1.3-3-7.2-4.8-14.7-4.8-22.5 0-7.7.7-15.4 1.1-23.1 0-.7.3-1.3.5-1.9h.7zm809.9 235.2c-.1.7 0 1.2-.2 1.6-1.9 5.3-3.6 10.7-5.7 16-.7 1.8-2 3.5-3.3 5-.6.7-1.6 1.3-2.5 1.6-2.1.8-3.5-.2-3.3-2.4.8-7.9 4-14.8 9.9-20.2 1.4-1.1 2.8-2.3 5.1-1.6zM786.8 829.8c-.1.4-.1.7-.3.9-3.5 3.5-7 7.1-11.5 9.4-2.4 1.2-2.8 1.1-4.7-.8-1.6-1.6-3.2-3.3-5-5.2 5.4-3.4 10.2-6.7 16.5-6.4 1.9 0 3.7.4 5 2.1zM932 675.7c-.1-.7-.2-1.2-.1-1.6.5-2.1 0-4-.7-5.9-1.4-3.7-.9-7.3.5-10.9.4-1.1 1.1-1.7 2.3-1.5 2.2.3 4.4.6 6.6 1 1 .2 1.6.8 1.4 2-.8 4.9-1.9 9.7-5.2 13.7-1.2 1.3-2.6 2.7-4.8 3.2zm-71.6-416.6c-.3-.2-.7-.4-1-.7-6.4-6.9-14-12.6-21.1-18.9-1.9-1.7-3.6-3.9-5.2-5.9-.7-.9-1.2-2.1-.4-3.5.5.3.9.5 1.3.8 6.8 5.7 13.6 11.3 20.2 17.1 2.5 2.2 4.9 4.6 6.1 7.8.4 1 .5 2 .7 3-.1.1-.3.2-.6.3zm43.2 50.9c-4.7-2.7-24.2-25.6-25.2-29.6.7.3 1.2.5 1.7.8 5.7 4.1 11.1 8.6 15.8 13.7 3.4 3.7 6.3 7.7 7.5 12.7.1.6.1 1.4.2 2.4zm-704 369.7c-6.3-.4-25.5-17.3-30.2-26.7 1 .3 1.7.4 2.4.8 4.8 2.5 8.8 6.1 12.7 9.8 5 4.9 9.7 10 14.6 15.1.2.2.3.6.5 1zm7 41c6.9 2.2 29.8 19 32.9 24.2-1.3-.2-2.2-.3-3.1-.5-4-1.1-7.4-3.3-10.7-5.7-6.7-5-12.6-10.9-18.4-16.8-.2-.3-.3-.6-.7-1.2zm663.9 31.2c3.1-6 5.7-11.5 11.4-15.3.8 2.1 2.2 2.4 4 1.9.8-.2 1.6-.2 2.4-.2 1.3 0 2.5.1 2.8 1.7.3 1.5-.4 2.8-1.8 3.4-1.2.5-2.5.8-3.7 1.5-2.5 1.4-4.8 3-7.3 4.4-2.1 1.3-4.3 2.7-7.8 2.6zM114.8 575.3c-1-1.1-2-2.1-2.8-3.3-3-4.5-4.9-9.5-6.4-14.7-.7-2.4-1.1-4.9-1.7-7.4-.2-.8-.2-1.6-.2-2.4.1-1.3 1.1-1.8 2.2-1.2 1.9 1.1 3.8 2.1 4.3 4.7 1.6 7.5 3.5 15 5.2 22.5.1.5.1.9.2 1.4-.2 0-.5.2-.8.4zm640.9 265.4c1.4 1.6 2.9 3.4 4.4 5.1-7.1 6.6-21.6 7.7-27 3.9 2.9-3.4 6.6-5 10.8-3.6 4.7 1.6 7.6 0 9.9-3.9.3-.5.8-.9 1.2-1.4.1-.1.3 0 .7-.1zm-260 71.9c.2-1.8 1.5-2.4 2.8-2.6 2.9-.4 5.9-1 8.7-.8 4 .3 8 1 11.9 1.9 1.4.3 2.7 1.7 3.8 2.7.3.3.3 1.3.1 1.7-.2.4-1 .7-1.5.6-8.3-1.8-16.6-2.7-25-3-.2-.1-.5-.4-.8-.5zm425.4-577.5c.7.5 1.5.8 2 1.4 2.3 2.8 4.6 5.6 6.6 8.7 2.5 3.8 4.7 7.8 7 11.8.2.3.5.7.5 1.1 0 .5 0 1.3-.3 1.6-.4.3-1.3.5-1.6.2-1.2-.8-2.5-1.6-3.2-2.7-2.8-4.1-5.4-8.3-8-12.5-1.1-1.8-1.9-3.8-2.7-5.8-.4-1.1-.6-2.2-1-3.3.3-.2.5-.4.7-.5zm8.5 53.6c-2.4-4-4.6-8-6.4-12.3-.6-1.4-1-2.9-1.3-4.3-.2-.9-.1-1.8.1-2.7.2-1.1.9-2 2-1.9.6.1 1.4.8 1.6 1.4 1.9 4.1 3.8 8.3 5.4 12.5.5 1.4.6 3 .6 4.5 0 1-.7 1.9-1.1 2.9-.3-.1-.6-.1-.9-.1zm-13.9 301.1c-2.7 6-4.3 11.9-7.6 17-.6.9-1.5 1.6-2.3 2.4-.8.7-1.8.9-2.9.1.5-1.3.9-2.6 1.4-3.9 1.4-3.9 2.8-7.8 4.1-11.7.5-1.6 1.3-2.6 3.2-2.5 1-.2 2.2-.8 4.1-1.4zM192 706.7c-5 .2-16.3-11.4-19.6-19.1 1-.8 2-.2 2.7.3 1.9 1.3 4 2.6 5.4 4.3 3.9 4.5 7.6 9.3 11.3 13.9.3.1.2.4.2.6zm685.6 78.5c-2-1.5-2-3.1-1.8-4.6.7-5.2 3.4-9.2 7.5-12.3 1.3-1 2.8-1.5 4.9-.4-2.4 5.3-5.8 10.1-8.7 15.1-.6.7-1.3 1.4-1.9 2.2zm-698-54.1c4.3.6 19.4 12.8 24.3 19.7-5 .3-21.8-13.3-24.3-19.7zm154.3 153.5c-8.3-2.2-23-13.9-24.3-19.6 8.9 6.1 17.7 11.5 24.3 19.6zM142 670.8c1.3-.9 2.5-1.8 3.6-2.5.5.2.8.2.8.3 2.6 4.5 5.2 9.1 6.6 14.2.5 1.6.2 3-1 4.1-1.7-1.3-7.4-10.3-10-16.1zm289.1 226.3c5.8 1.5 11.4 2.9 17.4 4.5-.4 1.8-.7 3.4-1 5.3-4-1.3-7.8-2.4-11.4-3.7-1.5-.5-2.9-1.4-4.2-2.3-1.3-.8-1.8-2-.8-3.8zM116.4 412.8c-1.8-2.7-1.3-6.6 1.5-15.3 1.9.4 3.8.8 6 1.3-.3.9-.6 1.6-.7 2.4-.2 1-.6 2.2-.4 3.1.5 1.8-.2 3-1.6 3.5-2.2.9-3.9 2.2-4.8 5zm-50 210c2.8-.3 3.9.9 4.6 2.6.6 1.6 1.1 3.3 1.4 5 .9 3.7 1.6 7.3 3.9 10.5.3.4 0 1.2.1 1.8-.7 0-1.5.2-2 0-.7-.4-1.3-1.1-1.6-1.8-2.6-5.7-4-11.8-6.4-18.1zm31.7-62.2c-1.7.2-2.7-.5-3.2-1.7s-.9-2.5-1.1-3.7c-.3-2.8-.4-5.6-.4-8.5 0-.7.6-1.8 1-1.9.8 0 1.8.3 2.3.9.6.7 1.1 1.8 1.2 2.8.3 3.6.5 7.2.7 10.9 0 .3-.3.7-.5 1.2zM221.6 688c4.9 2.1 8.7 5.3 11.5 9.6.5.8 1.2 1.8.2 2.8-.9.9-1.9.6-2.8.1-.6-.3-1.3-.6-1.8-1.1-3.3-3.2-5.4-7.2-7.1-11.4zm734.5-247.8c-3.6-3.3-5.9-13.7-5-20.8 1.3.9 2.8 4.4 4 9.9.7 3.4 2.2 6.8 1 10.9zm-848.7 164c3.6 4.1 6.7 8.5 9.5 13.2.3.5.3 1.7-.1 2.1-.4.4-1.7.7-2.1.4-1.1-.8-2.3-1.7-2.9-2.9-1.5-3-2.7-6.1-3.9-9.2-.4-1.1-.7-2.2-1-3.4.1 0 .3-.1.5-.2zm94 65.5c1.9-1 3.3-.5 4.2.6 2.5 3 4.9 6.1 7.2 9.3.2.3.1 1.4-.2 1.6-.6.4-1.5.8-2.1.6-.9-.3-1.7-1.1-2.3-1.9-2.2-3.3-4.4-6.7-6.8-10.2zm20.4 37c4.2-.9 10.5 2.8 13.1 7.5-4.2 1.8-10.5-1.7-13.1-7.5z"/>
</svg>