<svg version="1.1" id="Layer_1" xmlns="http://www.w3.org/2000/svg" x="0" y="0" viewBox="0 0 1000 1000" xml:space="preserve">
  <style>
    .st0{fill:#e4e6e7}.st2{fill:#cacdcf}
  </style>
  <path class="st0" d="M789.9 159.7c31.1-3.6 41.4 30.3 32.3 51.5-9.1 21.2-45.5 32.3-67.7 8.1s0-55.5 35.4-59.6zm-298.2-24.2C476.5 63.7 639.3-20.2 692.8 61.7c53.6 81.9-23.2 148.6-75.8 151.6-52.5 3-112-15-125.3-77.8zM487.6 841c24.3-17.3 102.1 29.3 66.7 72.8-35.4 43.5-70.8 8.1-78.8-2s-19.2-48.6 12.1-70.8z"/>
  <path class="st0" d="M59.1 502.4C107.6 356.2 212.7 187 356.3 187c91 0 141.1 64.6 205.2 71.8C723.2 277 947 337.5 971.9 554.9 987 687.3 852.5 776.3 746.4 796.5c-69.7 13.3-151.2-17.8-227.4 3-66.7 18.2-144.7 188.7-325.5 99.1-118.2-58.7-205.2-183-134.4-396.2z"/>
  <path class="st2" d="M62.1 478.1c48.5-146.2 153.6-315.4 297.2-315.4 91 0 141.1 64.6 205.2 71.8 161.7 18.2 385.5 78.7 410.4 296.1C990 663.1 855.6 752 749.4 772.2c-69.7 13.3-151.2-17.8-227.4 3-66.7 18.2-144.7 188.7-325.5 99.1C78.3 815.7-8.6 691.4 62.1 478.1z"/>
  <path class="st2" d="M505.8 146.6C490.7 74.8 653.4-9.1 707 72.8c53.6 81.9-23.2 148.6-75.8 151.6s-112.1-15-125.4-77.8zm290.1 23.2c31.1-3.6 41.4 30.3 32.3 51.5s-45.5 32.3-67.7 8.1c-22.2-24.2 0-55.5 35.4-59.6zM496.7 833.9c24.3-17.3 102.1 29.3 66.7 72.8-35.4 43.5-70.8 8.1-78.8-2-8.1-10.2-19.2-48.6 12.1-70.8z"/>
</svg>
