<?xml version="1.0" encoding="utf-8"?>
<!-- Generator: Adobe Illustrator 24.0.3, SVG Export Plug-In . SVG Version: 6.00 Build 0)  -->
<svg version="1.1" id="Layer_1" xmlns="http://www.w3.org/2000/svg" xmlns:xlink="http://www.w3.org/1999/xlink" x="0px" y="0px"
	 viewBox="0 0 64 64" style="enable-background:new 0 0 64 64;" xml:space="preserve">
<style type="text/css">
	.st0{fill:#FFFFFF;}
</style>
<g>
	<path class="st0" d="M2.8,31.9c-1.1,2.5,0.1,5.4,2.7,6.5c2.5,1.1,5.4-0.1,6.5-2.7c1.1-2.5-0.1-5.4-2.7-6.5
		C6.7,28.2,3.8,29.4,2.8,31.9z"/>
	<ellipse transform="matrix(0.7071 -0.7071 0.7071 0.7071 -20.4219 37.3102)" class="st0" cx="34.8" cy="43.3" rx="5" ry="5"/>
	<ellipse transform="matrix(0.9732 -0.2298 0.2298 0.9732 -2.2435 6.8224)" class="st0" cx="28.2" cy="13" rx="5" ry="5"/>
	<circle class="st0" cx="56.8" cy="25.7" r="5"/>
	<path class="st0" d="M59.5,6.5H36.4c0.7,0.9,1.3,1.9,1.7,3h21.4c0.3,0,0.5,0.2,0.5,0.5v5.7c1.1,0.3,2.1,0.9,3,1.5V10
		C63,8,61.4,6.5,59.5,6.5z"/>
	<path class="st0" d="M4,10c0-0.3,0.2-0.5,0.5-0.5h13.7c0.4-1.1,1-2.1,1.7-3H4.5C2.6,6.5,1,8,1,10v15.4c0.9-0.7,1.9-1.2,3-1.6V10z"
		/>
	<path class="st0" d="M60,54c0,0.3-0.2,0.5-0.5,0.5h-55C4.2,54.5,4,54.3,4,54V43.8c-1.1-0.4-2.1-0.9-3-1.6V54c0,1.9,1.6,3.5,3.5,3.5
		h55c1.9,0,3.5-1.6,3.5-3.5V34.2c-0.9,0.7-1.9,1.2-3,1.5V54z"/>
</g>
</svg>
